<svg width="6209" height="183" viewBox="0 0 6209 183" fill="none" xmlns="http://www.w3.org/2000/svg">
<path d="M2764.49 182.979C2671.49 182.979 2323.12 181.5 2323.12 181.5L1787.49 181.5C1787.49 181.5 1602 181.5 1552 181.5V0C1841.54 9.56868 1817.16 151.891 2159.99 111.336C2296.15 95.2396 2369.41 4.2926 2561.35 0.357832C2821.19 -4.96305 2853.74 124.083 3104.22 117.689V182.979C3104.22 182.979 2857.49 182.979 2764.49 182.979Z" fill="#FBF0D3"/>
<path d="M339.729 182.979C432.729 182.979 781.102 181.5 781.102 181.5L1316.73 181.5C1316.73 181.5 1502.22 181.5 1552.22 181.5V0C1262.68 9.56868 1287.06 151.891 944.229 111.336C808.071 95.2396 734.812 4.2926 542.867 0.357832C283.03 -4.96305 250.477 124.083 7.10861e-09 117.689L0 182.979C0 182.979 246.729 182.979 339.729 182.979Z" fill="#FBF0D3"/>
<path d="M5868.49 182.979C5775.49 182.979 5427.12 181.5 5427.12 181.5L4891.49 181.5C4891.49 181.5 4706 181.5 4656 181.5V0C4945.54 9.56868 4921.16 151.891 5263.99 111.336C5400.15 95.2396 5473.41 4.2926 5665.35 0.357832C5925.19 -4.96305 5957.74 124.083 6208.22 117.689V182.979C6208.22 182.979 5961.49 182.979 5868.49 182.979Z" fill="#FBF0D3"/>
<path d="M3443.73 182.979C3536.73 182.979 3885.1 181.5 3885.1 181.5L4420.73 181.5C4420.73 181.5 4606.22 181.5 4656.22 181.5V0C4366.68 9.56868 4391.06 151.891 4048.23 111.336C3912.07 95.2396 3838.81 4.2926 3646.87 0.357832C3387.03 -4.96305 3354.48 124.083 3104 117.689L3104 182.979C3104 182.979 3350.73 182.979 3443.73 182.979Z" fill="#FBF0D3"/>
</svg>
