<?xml version="1.0" encoding="utf-8"?>
<!-- Generator: Adobe Illustrator 29.5.0, SVG Export Plug-In . SVG Version: 9.03 Build 0)  -->
<svg version="1.1" baseProfile="tiny" id="Layer_1" xmlns="http://www.w3.org/2000/svg" xmlns:xlink="http://www.w3.org/1999/xlink"
	 x="0px" y="0px" viewBox="0 0 5837.92 150" overflow="visible" xml:space="preserve">
<path fill="#FBF0D3" d="M5725.09,75c-55.35,0-256.06,65.94-361.59,19.02c-105.53-46.92-215.97-0.4-238.35,0
	c-22.38,0.4-36.9-29.12-98.39-29.12c-61.5,0-46.24,15.78-97.41,33.57c-51.16,17.8-90.77-33.57-124.22-23.47
	c-33.45,10.1-44.03,26.71-82.16,16.19c-38.13-10.52-52.63,0-52.63,0s-11.71,5.65-17.42-4.3C4638.22,61.26,4594.13,75,4557.5,75
	c-55.35,0-256.06,65.94-361.59,19.02c-105.53-46.92-215.97-0.4-238.35,0c-22.38,0.4-36.9-29.12-98.39-29.12
	s-46.24,15.78-97.41,33.57c-51.16,17.8-90.77-33.57-124.22-23.47s-44.03,26.71-82.16,16.19c-38.13-10.52-52.63,0-52.63,0
	S3445.27,75,3389.92,75s-256.06,65.94-361.59,19.02c-105.53-46.92-215.97-0.4-238.35,0c-22.38,0.4-36.9-29.12-98.39-29.12
	s-46.24,15.78-97.41,33.57c-51.16,17.8-90.77-33.57-124.22-23.47c-33.45,10.1-44.03,26.71-82.16,16.19
	c-5.5-1.52-10.51-2.21-15.05-2.28l0,0c0,0-52.09-8.23-90.21,2.28c-38.13,10.52-48.7-6.09-82.16-16.19
	c-33.45-10.1-73.06,41.27-124.22,23.47c-51.16-17.8-35.91-33.57-97.41-33.57s-76.01,29.53-98.39,29.12
	c-22.38-0.4-132.83-46.92-238.35,0C1536.48,140.94,1335.76,75,1280.41,75c-55.35,0-112.83,2.19-112.83,2.19S1110.1,75,1054.75,75
	c-55.35,0-256.06,65.94-361.59,19.02c-105.53-46.92-215.97-0.4-238.35,0c-22.38,0.4-36.9-29.12-98.39-29.12
	s-46.24,15.78-97.41,33.57C207.85,116.27,168.24,64.9,134.79,75S91.91,86.54,52.63,91.19c-38.85,4.6-52.63,0-52.63,0V150h1167.58
	h1167.58h1167.58h1167.58h1167.58V91.19C5837.92,91.19,5780.43,75,5725.09,75z"/>
</svg>
