<?xml version="1.0" encoding="UTF-8" standalone="no"?>
<svg
   width="1512"
   height="1911"
   viewBox="0 0 1512 1911"
   fill="none"
   version="1.1"
   id="svg9"
   sodipodi:docname="aboutuzmabackground.svg"
   inkscape:version="1.4 (e7c3feb1, 2024-10-09)"
   xmlns:inkscape="http://www.inkscape.org/namespaces/inkscape"
   xmlns:sodipodi="http://sodipodi.sourceforge.net/DTD/sodipodi-0.dtd"
   xmlns="http://www.w3.org/2000/svg"
   xmlns:svg="http://www.w3.org/2000/svg">
  <defs
     id="defs9" />
  <sodipodi:namedview
     id="namedview9"
     pagecolor="#505050"
     bordercolor="#eeeeee"
     borderopacity="1"
     inkscape:showpageshadow="0"
     inkscape:pageopacity="0"
     inkscape:pagecheckerboard="0"
     inkscape:deskcolor="#505050"
     inkscape:zoom="0.24495101"
     inkscape:cx="708.30489"
     inkscape:cy="1481.929"
     inkscape:window-width="1104"
     inkscape:window-height="857"
     inkscape:window-x="0"
     inkscape:window-y="38"
     inkscape:window-maximized="0"
     inkscape:current-layer="svg9" />
  <rect
     x="-5.24121"
     width="1560.86"
     height="899"
     fill="#FFFAED"
     id="rect1" />
  <path
     d="M1205.16 702.234C1208.37 702.276 1212.51 703.276 1212.9 698.714C1211.88 659.342 1214.22 619.703 1212.96 580.36C1212.75 573.841 1210.65 566.927 1210.33 560.703C1209.3 540.116 1212.68 517.727 1203.86 498.801C1204.48 495.394 1219.17 494.802 1221.91 495.253L1221.89 439.646C1221 434.76 1214.08 434.675 1215.47 427.663H1223.2L1223.22 417.806C1226.4 418.51 1223.6 426.283 1228.33 424.832C1228.71 420.045 1232.75 417.468 1233.43 412.793C1236.73 390.446 1235.78 360.27 1237.38 336.838C1241.01 283.879 1245.46 230.75 1247.72 177.762C1248.18 167.187 1246.54 156.401 1248.97 146.023C1251.22 145.685 1250.19 149.219 1250.25 150.923C1253.41 238.79 1261.2 326.39 1265.79 414.173C1266.18 417.778 1268.84 422.847 1272.18 419.749C1272.52 416.989 1270.7 414.102 1274.73 414.975L1275.34 426.283L1283.76 429.057C1284.86 433.183 1277.67 435.436 1277.3 437.083L1276.21 495.028L1292.78 496.633C1291.75 507.321 1288.34 517.53 1287.64 528.33C1286.64 543.89 1285.54 560.759 1285 576.136C1283.66 614.493 1286.11 653.161 1285.03 691.546L1294.07 692.363V617.028C1294.07 614.578 1285.8 612.635 1287.73 608.706C1300.86 601.891 1303.38 589.105 1309.52 576.192L1326.98 576.558L1328.86 568.462L1334.57 568.377L1338.53 576.91H1381.69L1381.68 568.447H1388.13L1388.12 576.91L1396.41 576.924L1397.14 568.447L1404.32 569.771L1404.87 576.91C1419.77 573.137 1419.97 589.457 1427.01 599.891C1429.1 602.989 1436.43 609.649 1437.06 611.452C1438.15 614.55 1431.25 614.845 1430.63 617.338L1430.64 633.25L1463.54 633.278C1466.71 632.658 1468.78 623.35 1469.38 633.095L1475.75 633.25L1477.03 526.908L1479.61 524.824V559.323C1479.61 562.646 1497.16 582.036 1500.74 586.936C1509.62 599.088 1517.9 612.015 1525.99 624.787C1510.29 622.477 1494.06 622.815 1478.33 624.815L1478.32 633.264C1482.22 632.855 1486.76 633.897 1490.53 633.221C1494.54 632.489 1493.82 627.899 1498.2 633.39L1576.26 633.264V738.169L1660.39 749.026C1667.25 752.617 1661.91 760.868 1662.59 767.036H-90.4463C-93.4743 767.036 -92.0956 758.094 -91.0906 755.771H-32.4628L-30.53 753.659V656.498L-36.9468 654.358L-35.8 645.43C-22.1546 641.558 -16.0212 624.139 -6.69229 613.55H33.8962V569.898H37.7618V612.142H69.3306C70.181 612.142 72.4617 614.902 73.8404 614.958V580.459C73.8404 577.276 68.6863 569.912 66.1351 567.786C67.72 565.547 70.5161 563.702 71.8561 561.379C76.6237 553.099 73.1189 524.359 72.5906 513.601L76.5077 512.812C77.3839 487.241 78.3503 463.584 90.849 441.336C100.088 424.875 105.19 428.508 104.765 405.865C104.726 403.598 103.141 400.556 103.373 399.021C103.567 397.712 106.054 397.768 106.672 396.74C108.192 394.206 107.175 368.225 108.721 360.903C109.971 354.947 114.197 349.441 116.001 343.513C122.701 321.616 119.635 294.369 121.516 271.388C123.771 271.065 122.727 274.585 122.791 276.289C123.539 296.045 122.495 321.476 127.585 340.063C130.767 351.652 135.909 358.523 136.939 372.084C137.764 382.87 138.254 389.643 139.607 400.148C140.418 406.47 138.486 414.722 139.813 421.044C141.243 427.888 158.252 447.475 162.375 462.57C166.91 479.228 164.076 501.012 167.89 513.953C168.418 515.755 171.15 515.403 171.652 517.248C172.451 520.149 169.707 548.213 170.621 556.352C171.446 563.646 175.531 565.828 175.737 567.8C176.265 572.7 173.147 571.109 171.665 573.277C168.289 578.206 171.691 606.27 170.48 614.24L178.842 624.815C181.471 617.211 177.232 609.1 178.108 601.524C179.422 590.175 183.636 574.897 184.615 563.547C185.001 559.027 183.236 546.692 183.532 545.368C183.996 543.312 187.785 543.003 188.364 540.82C188.854 538.989 186.973 535.61 187.192 532.709C187.527 528.288 193.518 518.6 194.588 511.094C195.271 506.307 194.807 501.477 194.936 496.675L198.35 517.558C200.129 522.923 205.798 529.977 206.507 535.427C206.752 537.328 206.494 538.13 204.6 537.511C203.582 537.187 201.636 529.893 201.379 535.356C205.412 542.172 208.968 549.128 210.411 557.211C211.455 558.056 223.258 552.859 224.997 551.367C230.564 546.593 229.855 535.216 237.006 550.212L252.082 551.409L255.406 545.143C264.838 541.313 267.686 555.521 277.376 552.944C274.631 548.382 276.345 542.594 281.769 544.622C284.372 545.594 283.702 551.17 284.823 553.972C286.55 558.267 307.914 582.979 310.091 582.472C315.104 576.192 319.794 573.08 317.848 564.153C329.007 563.35 329.316 552.761 334.921 544.453L364.377 544.537L369.479 540.285C375.626 546.65 374.891 560.858 386.32 554.437C389.168 544.552 387.261 534.117 388.189 524.105C390.418 500.125 395.237 474.793 398.316 450.686C398.87 446.334 396.822 439.674 401.035 437.477L412.001 547.311H446.146C445.85 538.525 449.69 531.963 442.977 524.781L443.17 522.373L473.128 483.101C477.277 474.173 469.958 467.724 486.181 469.893C486.335 472.934 485.047 478.398 488.281 479.566C499.517 478.778 513.343 481.298 524.244 479.834C531.472 478.862 526.911 474.37 529.939 469.104L540.299 469.907C540.595 474.215 539.783 478.975 540.376 483.199C541.819 493.507 563.492 517.656 569.742 527.203L569.716 530.273C565.979 531.231 565.644 533.512 566.069 537.511C571.662 538.328 576.751 534.61 582.176 534.596C591.943 534.582 603.849 539.877 613.113 531.921C614.26 529.837 614.234 488.761 613.783 483.256C613.178 475.877 609.48 470.751 611.735 462.824C612.327 460.726 614.453 459.332 614.956 456.515C616.116 449.996 614.505 442.885 612.495 436.787C612.74 431.436 626.437 425.353 623.911 417.975C621.643 416.707 617.958 417.693 618.873 413.624C622.146 413.539 626.501 413.638 627.39 409.47C628.588 403.851 624.8 404.372 624.04 400.204C620.716 382.152 639.94 366.24 639.464 353.623C639.335 350.258 635.74 350.835 635.508 349.371C635.134 347.047 637.737 343.809 638.136 341.02C642.35 311.07 643.922 281.288 644.656 250.999C644.785 245.746 646.589 240.902 644.656 234.791C653.418 234.904 647.955 239.142 647.581 242.691C645.262 264.967 650.764 305.31 653.65 328.446C654.514 335.303 652.156 342.077 657.503 348.16C646.216 355.933 660.029 369.718 663.623 378.082C665.208 381.772 669.409 396.895 668.816 400.091C668.352 402.584 663.688 403.598 665.466 409.822C666.51 413.469 670.826 413.159 672.978 415.75L667.824 417.848C668.172 428.085 690.914 436.351 674.215 444.11C674.563 448.447 673.468 454.445 675.13 458.402C676.212 460.979 680.928 458.43 680.735 467.851C680.645 472.244 676.857 479.144 676.857 481.904V537.525C682.011 537.187 688.221 538.975 692.899 538.989C702.601 539.018 725.808 534.483 732.959 540.271C735.008 541.932 738.384 551.043 740.587 550.156L765.314 515.22C775.815 512.686 791.613 515.572 801.225 513.615C804.575 512.939 803.299 509.658 806.289 509.236C807.513 509.067 812.886 509.095 813.324 509.545L813.685 513.178L875.714 513.516C879.825 514.558 877.029 552.395 877.853 558.647C883.085 557.915 889.515 558.534 885.971 565.645C879 564.885 878.82 572.404 879.142 578.361L891.241 578.445C892.71 567.434 899.088 557.999 898.392 546.776C898.766 545.241 901.047 546.424 901.987 545.706C905.093 543.34 911.213 477.51 913.301 468.527L924.266 547.396C926.328 549.001 937.512 535.807 939.123 533.371C942.434 528.358 941.043 521.331 948.181 526.232L947.447 533.301H988.679L987.391 526.274L993.679 526.429C995.985 540.975 1010.83 545.819 1012.7 560.97C1012.89 562.576 1010.52 569.912 1013.79 569.912H1037.63L1039.1 550.409L1051.91 549.607C1053.62 548.283 1053.35 536.765 1055.81 532.751C1058.14 528.935 1063.57 529.837 1064.52 526.781C1063.26 517.896 1066.08 510.714 1067.18 502.927C1068.17 495.83 1066.27 491.183 1070.55 484.086C1072.11 481.51 1075.89 479.228 1076.88 476.919C1078.04 474.201 1076.98 470.597 1079.52 468.541C1079.06 479.383 1081.35 476.609 1085.34 481.876C1090.19 488.283 1088.09 492.071 1089.52 498.449C1091.85 508.884 1095.27 517.065 1092.97 528.231C1103.64 531.217 1105.87 538.792 1104.65 550.212C1116.78 548.903 1119.86 554.662 1118.82 567.11L1127.26 565.758C1128.17 559.745 1130.71 553.324 1127.85 547.41C1136.9 546.41 1130.96 560.506 1134.3 567.11H1177.46C1189.51 583.092 1195.53 603.665 1210.29 617.141L1210.31 619.182C1208.84 619.013 1205.16 621.802 1205.16 622.731V702.234ZM629.194 457.219H662.051C665.092 454.192 665.092 446.166 662.051 443.138H629.194V457.219ZM670.427 444.532H666.574C666.948 448.686 665.092 454.093 668.507 457.191C671.909 454.093 670.053 448.686 670.427 444.532ZM801.869 536.06C806.057 535.511 811.61 537.849 814.729 533.962C809.781 524.303 804.485 526.049 801.869 536.06ZM553.171 557.197L552.991 546.833L551.058 544.721C541.639 545.157 530.738 543.453 521.525 544.439C514.064 545.242 512.467 551.015 508.086 556.521C507.751 560.815 509.477 557.197 510.006 557.197H553.171ZM618.886 557.197C611.077 536.117 583.903 546.326 567.525 546.129C565.902 548.297 565.219 557.197 567.989 557.197H618.886ZM691.056 552.958H679.447V560.013H691.056V552.958ZM934.626 558.647C931.25 564.026 940.875 568.968 942.305 563.505C943.671 558.281 935.914 556.591 934.626 558.647ZM1000.3 565.631L999.091 559.224L992.764 558.802L992.519 564.983L1000.3 565.631ZM421.561 568.264C425.131 562.097 416.356 555.76 414.23 563.815C412.271 571.207 420.234 570.546 421.561 568.264ZM461.686 568.462C472.832 569.349 474.301 559.59 461.673 561.407L461.686 568.462ZM742.584 569.87V590.288L744.71 592.174L752.892 592.4L752.764 569.996L742.584 569.87ZM779.951 569.87H768.355V590.992C772.62 591.808 775.712 592.991 779.951 590.992V569.87ZM806.83 590.78C806.018 583.824 810.541 570.743 802.539 569.771C790.955 568.363 796.47 582.134 795.607 590.78C799.305 592.879 803.132 592.879 806.83 590.78ZM823.761 569.87V590.992L834.147 590.372C836.917 588.26 834.997 573.911 833.928 570.025L823.761 569.87ZM862.417 569.87H850.82V590.992H862.417V569.87ZM934.574 588.175C943.066 589.978 944.174 583.303 941.094 576.108L934.574 575.488V588.175ZM974.518 588.175C983.693 589.936 985.78 584.754 982.34 576.108L975.085 576.826L974.518 588.175ZM1000.3 575.488H992.558V588.175H1000.3V575.488ZM572.512 582.543C569.922 582.81 564.265 581.515 562.758 583.867L562.191 599.455H572.512V582.543ZM595.705 599.44C594.7 592.893 598.978 583.374 591.221 582.43C581.197 581.205 583.89 590.034 584.663 598.103L595.705 599.44ZM617.417 582.74L607.289 582.543L608.5 600.257L618.757 599.3L617.417 582.74ZM520.971 583.937H509.361V599.44H520.971V583.937ZM542.876 583.937H532.555C532.49 595.779 529.849 605.073 544.061 599.3L542.876 583.937ZM395.791 594.019C393.858 593.062 390.366 591.203 388.833 593.738L388.24 606.481H395.984L395.791 594.019ZM415.299 592.386L408.135 593.709L407.568 606.481H415.312L415.299 592.386ZM453.968 606.481C456.21 587.26 445.257 587.302 447.512 606.481H453.968ZM474.455 593.935L466.956 593.921L466.84 606.481H474.584L474.455 593.935ZM648.535 592.4L638.781 593.723C636.513 603.017 638.381 610.142 647.968 605.172L648.535 592.4ZM666.574 592.386H657.542V606.481H666.574V592.386ZM687.191 592.386H676.869C676.393 601.876 675.542 610.438 686.624 605.157L687.191 592.386ZM696.197 592.4L696.764 605.172C706.351 610.156 708.206 603.031 705.951 593.723L696.197 592.4ZM725.846 592.414L715.525 592.386V605.073H725.846V592.414ZM434.64 593.794H426.896V606.481H434.64V593.794ZM493.912 593.794H486.168V606.481H493.912V593.794ZM201.417 612.128L202.139 600.82L194.975 599.44L194.962 612.128H201.417ZM219.444 612.128C224.739 594.78 209.045 596.005 213.194 609.804L215.088 611.959L219.444 612.128ZM234.403 599.553C231.414 600.623 231.517 609.931 233.527 611.508C241.026 614.831 241.619 605.524 238.875 600.046L234.403 599.553ZM290.39 599.511C284.076 616.634 300.801 615.803 296.575 601.736L294.68 599.581L290.39 599.511ZM259.401 600.834H251.657V612.114H259.401V600.834ZM277.44 600.834H269.696C269.941 603.651 268.755 609.875 270.907 611.494L277.427 612.114L277.44 600.834ZM942.318 631.827C941.094 624.984 945.9 612.987 937.834 612.001C927.023 610.691 930.953 622.125 931.276 630.49L942.318 631.827ZM962.922 612.114L950.603 613.437V630.518L962.922 631.842V612.114ZM984.827 612.114H971.941V631.827H984.827V612.114ZM1003.97 630.222L1003.59 613.437C998.549 611.212 992.004 609.832 991.205 616.972C989.775 629.828 991.256 635.446 1003.97 630.222ZM520.971 630.419C519.979 623.886 524.231 614.353 516.487 613.409C506.875 612.254 509.374 621.266 509.928 629.096L520.971 630.419ZM542.876 613.508H532.555C533.083 617.155 531.279 627.913 533.766 629.8L542.876 630.419V613.508ZM572.512 613.508H562.191V629.011H572.512V613.508ZM595.705 613.508L585.436 613.564L584.328 626.702L585.294 628.363L595.692 629.011L595.705 613.508ZM617.61 613.508H607.289V629.011H617.61V613.508ZM752.892 613.522L742.687 613.634C741.425 621.027 740.484 628.561 742.726 635.897L752.892 636.052V613.522ZM779.951 636.052V615.634C777.207 611.959 772.246 613.916 768.355 613.522V636.052H779.951ZM807.01 613.522H795.414V633.94C797.991 637.221 804.433 637.221 807.01 633.94V613.522ZM834.069 613.522L824.599 613.733L822.614 615.747L823.748 636.066L834.069 636.052V613.522ZM862.417 613.522H850.82V636.052H862.417V613.522ZM894.643 613.508H883.033V631.827H894.643V613.508ZM911.394 613.508H901.073L901.021 631.166L911.394 631.827V613.508ZM1032.51 631.827C1031.39 625.125 1035.96 614.381 1028.03 613.409C1016.81 612.043 1021.95 623.449 1020.91 631.827H1032.51ZM1047.9 613.592L1037.64 613.508C1037.85 624.449 1034.33 636.685 1048.69 630.504L1047.9 613.592ZM395.971 626.181L388.807 627.504L388.24 641.684H395.984L395.971 626.181ZM415.299 641.684L414.101 626.786C405.725 623.534 407.31 632.982 407.748 639.361C408.728 642.628 412.799 641.642 415.299 641.684ZM428.996 626.364C425.543 627.617 426.986 636.01 427.089 639.375C435.555 646.923 437.268 636.981 435.735 628.504C434.923 625.758 431.225 625.547 428.996 626.364ZM447.512 641.684L454.676 640.361C455.45 637.432 456.158 628.406 454.032 626.8L447.512 626.181V641.684ZM474.584 641.684L473.386 626.786C464.005 623.336 467.317 635.108 466.84 641.684H474.584ZM493.899 626.181L486.735 627.504L486.168 641.684H493.912L493.899 626.181ZM201.417 630.405H194.962V644.501H201.417V630.405ZM219.366 644.402C220.913 643.233 219.74 634.179 220.139 631.785C208.929 624.308 211.635 650.232 219.366 644.402ZM234.403 630.532C231.221 631.673 232.277 639.093 232.535 642.177L233.527 643.895C241.284 646.965 240.601 639.009 239.867 632.743L234.403 630.532ZM251.657 644.501C260.728 647.021 261.784 636.446 257.326 630.532L252.237 631.757L251.657 644.501ZM277.427 644.501C280.7 626.279 266.513 624.35 270.263 643.177L277.427 644.501ZM290.325 644.501L296.575 642.191V632.729L290.325 630.419V644.501ZM648.535 647.317C651.718 625.646 636.307 625.702 639.502 647.317H648.535ZM666.574 647.317L666.007 633.137L657.542 631.813V647.317H666.574ZM678.983 632.025C675.529 633.278 676.689 642.628 677.436 645.993C687.964 651.358 688.569 642.529 686.624 633.151L678.983 632.025ZM706.518 647.317L705.951 633.137C693.543 627.673 695.901 637.713 697.563 647.232L706.518 647.317ZM724.558 631.813H715.525C716.002 635.263 714.314 644.881 716.736 646.697L724.558 647.317V631.813ZM572.512 659.99L571.945 644.402C559.33 638.46 562.333 650.443 562.191 659.99H572.512ZM595.705 659.99L595.138 644.402C582.524 638.46 585.526 650.443 585.384 659.99H595.705ZM617.533 643.177L607.289 643.092V660.004C610.201 659.638 616.605 661.201 618.358 658.638L617.533 643.177ZM885.146 643.29C882.067 644.402 882.325 659.497 883.6 661.483C885.262 664.088 893.908 664.89 894.694 657.948C895.687 649.147 895.725 639.474 885.146 643.29ZM901.897 643.29C898.225 644.613 899.797 657.681 900.351 661.483C915.014 667.608 913.674 656.737 912.115 644.402C910.904 642.515 903.907 642.571 901.897 643.29ZM962.935 662.806L962.329 644.43L950.036 644.487V662.806H962.935ZM1004.17 662.806L1003.6 644.402C988.937 638.277 990.277 649.147 991.836 661.483L1004.17 662.806ZM509.361 659.976L520.404 658.666L519.76 645.12L509.928 645.81L509.361 659.976ZM542.876 644.487H532.555V659.99H542.876V644.487ZM942.318 644.487H930.709C931.288 648.317 929.381 660.258 931.92 662.187L942.318 662.806V644.487ZM984.84 644.487H971.941V662.806H984.84V644.487ZM1032.51 662.806L1031.95 645.81C1030.36 643.332 1023.71 644.853 1020.91 644.487V662.806H1032.51ZM1047.89 644.599L1037.66 644.501V662.82C1040.58 662.454 1046.97 664.017 1048.72 661.454L1047.89 644.599ZM804.433 654.358H796.702V678.296H804.433V654.358ZM832.781 678.296V656.47C830.693 653.287 826.892 654.456 823.761 654.358V678.296H832.781ZM861.128 678.296V656.47C856.825 652.823 850.253 652.288 849.467 659.216C849.171 661.905 849.171 675.536 850.099 676.972L861.128 678.296ZM752.892 655.766H742.584V678.296H752.892V655.766ZM778.663 655.766L769.566 656.385C767.388 658.033 767.942 678.225 769.836 679.507C772.852 680.056 776.666 680.535 778.676 677.592V655.766H778.663ZM219.444 676.888C219.134 673.353 221.518 659.145 214.947 661.412C211.622 664.51 213.104 670.34 213.181 674.578L219.444 676.888ZM201.404 662.806L195.155 665.116V674.578L201.404 676.888V662.806ZM240.06 662.792C230.989 660.272 229.932 670.847 234.39 676.761L239.48 675.536L240.06 662.792ZM258.099 662.806L251.85 665.116V674.578L258.099 676.888V662.806ZM270.997 676.888L277.247 674.578V665.116L270.997 662.806V676.888ZM295.466 676.888L296.665 665.116L290.325 662.792L291.536 676.254L295.466 676.888ZM572.512 689.561L571.906 673.973L563.441 673.269C560.902 675.071 562.732 685.998 562.191 689.561H572.512ZM595.705 689.561L595.1 673.93L585.397 672.649L585.384 689.561H595.705ZM617.597 672.663L607.418 674.212C608.346 677.732 604.712 687.153 607.225 688.927L617.597 689.575V672.663ZM520.971 689.561L520.404 675.381C518.819 672.903 512.17 674.423 509.361 674.057V689.561H520.971ZM542.876 674.057H532.555V689.561H542.876V674.057ZM942.318 693.785L943.053 675.423C928.402 669.185 929.704 680.126 931.276 692.447L942.318 693.785ZM962.922 674.071H950.036V693.785H962.922V674.071ZM984.84 675.479C981.811 676.789 974.222 672.466 972.534 675.409L971.838 693.123L984.84 693.785V675.479ZM1003.97 675.677C999.954 673.494 995.496 673.494 991.45 675.677L992.48 693.166L1004.17 693.785L1003.97 675.677ZM894.643 675.465H883.033V693.785H894.643V675.465ZM912.682 675.465H899.784V693.785H912.682V675.465ZM1032.51 675.465H1020.91V693.785H1032.51V675.465ZM1037.66 693.785C1051.21 696.714 1050.73 687.688 1048.05 676.085L1037.66 675.465V693.785ZM520.971 703.628H509.361C509.89 707.289 508.073 718.019 510.573 719.92L520.971 720.54V703.628ZM542.876 703.628H532.555V719.131H542.876V703.628ZM572.512 719.146L573.234 705.008C570.863 702.389 565.399 704.036 562.191 703.642V719.146H572.512ZM595.705 703.628H584.096C584.624 707.289 582.807 718.019 585.307 719.92L595.705 720.54V703.628ZM617.61 703.628H607.289V719.131L617.597 720.526L617.61 703.628ZM894.643 724.764C893.406 717.92 898.238 705.923 890.159 704.938C878.627 703.529 884.257 716.245 883.033 724.764H894.643ZM942.125 705.247L931.276 706.36L930.709 724.764L942.177 724.609C943.671 718.244 944.741 711.499 942.125 705.247ZM1032.51 724.764L1031.94 706.36C1030.58 704.135 1023.28 705.754 1021.06 706.613L1020.91 724.764H1032.51ZM1037.66 724.764L1048.7 723.44L1048.02 705.627L1038.25 706.36L1037.66 724.764ZM912.682 706.444L900.351 707.768L900.995 724.144L912.682 724.764V706.444ZM962.935 724.764L963.656 707.824C961.839 705.05 953.245 706.993 950.036 706.444V724.764H962.935ZM984.84 706.444H970.653C971.233 710.288 969.326 722.201 971.864 724.144L984.84 724.764V706.444ZM1004.17 706.444H991.269C991.849 710.288 989.942 722.201 992.48 724.144L1004.17 724.764V706.444Z"
     fill="#E9E1CC"
     id="path1" />
  <path
     d="M81.6429 638.095C47.6393 639.883 -5.92649 594.777 -28.4589 572C-24.5328 674.709 -19.0363 882.744 -28.4589 893.217C-37.8816 903.69 1003.43 897.581 1525.26 893.217V572L1506.31 585.411C1487.53 592.222 1447.72 607.506 1438.71 614.148C1427.45 622.45 1371.11 638.095 1318.88 651.506C1266.65 664.917 1241.55 676.731 1183.68 689.822C1125.82 702.914 1118.14 699.721 1067.95 699.721H955.8C907.15 699.721 884.618 714.089 807.29 714.089H695.652C643.93 714.089 629.591 706.745 598.865 699.721C568.139 692.696 538.949 693.654 506.175 699.721C473.4 705.787 432.944 701.956 405.803 699.721C378.662 697.485 320.794 681.52 295.701 670.664C270.608 659.808 226.568 651.506 197.378 644.162C168.188 636.818 124.147 635.86 81.6429 638.095Z"
     fill="#F9F1DB"
     id="path2" />
  <path
     d="M1372.93 669.871C1391.63 659.473 1509.94 600.291 1566.76 572V901.934C1566.76 911.109 518.084 905.757 -6.25293 901.934V593.409C14.0138 606.918 60.8872 638.522 86.2466 656.873C117.946 679.811 113.269 669.871 181.864 726.071C250.459 782.271 224.996 747.48 266.049 747.48C307.102 747.48 311.259 737.54 372.06 747.48C432.86 757.42 444.292 775.007 497.298 810.944C550.303 846.881 556.019 821.266 624.615 821.266C693.21 821.266 655.794 808.268 740.499 810.944C825.203 813.62 855.863 814.002 875.61 821.266C895.357 828.53 963.433 812.473 995.132 796.798C1026.83 781.124 1020.6 766.214 1059.57 762.008C1098.54 757.803 1116.21 788.005 1167.14 783.8C1218.07 779.594 1202.48 747.48 1241.97 726.071C1281.46 704.662 1349.54 682.87 1372.93 669.871Z"
     fill="#E9E1CC"
     id="path3" />
  <rect
     x="-1544.49"
     y="-1671.4441"
     width="1560.86"
     height="772.44409"
     transform="scale(-1)"
     fill="#e9e1cc"
     id="rect3"
     style="stroke-width:0.926944" />
  <path
     d="M1032.47 1539.93H1069.46L1069.94 1409.1C1070.53 1404.77 1088.44 1402.66 1088.2 1410.74C1088.08 1413.2 1085.83 1416.6 1086.18 1420.34C1090.1 1459.93 1090.69 1499.87 1089.27 1539.93H1117.72V1374.08H1143.34C1136.93 1394.81 1143.81 1416.24 1144.64 1437.33C1145 1448.57 1142.86 1461.57 1143.34 1473.87C1143.46 1477.27 1141.2 1484.3 1146.18 1483.71C1147.25 1477.5 1144.64 1468.72 1146.18 1463.21C1147.01 1460.28 1153.18 1460.52 1154.37 1456.77C1162.43 1432.76 1170.61 1399.49 1177.61 1373.37C1178.32 1370.91 1182.94 1371.5 1183.3 1369.63C1186.03 1356.63 1160.29 1345.5 1187.45 1337.77L1187.21 1346.2C1199.19 1351.47 1213.06 1352.29 1220.06 1340.46C1221.24 1354.17 1238.44 1347.61 1248.52 1348.89L1245.67 1337.65L1252.55 1343.04L1259.78 1340.46C1263.46 1349.83 1255.99 1356.74 1254.68 1362.36C1253.61 1367.17 1265.95 1407.81 1268.44 1417.18C1269.39 1421.05 1282.19 1439.32 1282.67 1440.84C1283.97 1446.11 1281.72 1454.08 1282.43 1459.82L1290.85 1461.57C1292.03 1462.74 1288.71 1497.3 1296.9 1486.64C1296.3 1422.45 1297.73 1358.15 1297.01 1293.96C1296.9 1282.6 1292.86 1264.68 1293.69 1254.72C1294.29 1247.93 1299.62 1244.88 1299.74 1240.78C1299.86 1238.91 1293.93 1240.78 1293.58 1235.28C1293.1 1226.61 1299.27 1221.11 1299.39 1215.6C1299.39 1214.43 1297.13 1195.22 1296.78 1193.58C1296.54 1192.53 1285.27 1188.31 1294.05 1174.84L1336.38 1174.96C1345.39 1187.96 1333.89 1192.53 1333.77 1193.58C1333.06 1198.15 1331.28 1209.51 1330.93 1213.02C1330.33 1220.17 1337.57 1226.38 1336.97 1235.4C1336.62 1240.9 1330.81 1239.03 1330.81 1240.9C1331.05 1245.12 1336.38 1248.05 1336.86 1254.84C1337.69 1264.8 1333.65 1282.72 1333.54 1294.08C1332.82 1363.89 1334.37 1433.81 1333.65 1503.62C1344.44 1496.59 1352.51 1474.34 1360.81 1467.08C1364.01 1464.27 1370.06 1465.09 1370.77 1462.51C1374.33 1450.45 1370.18 1398.91 1370.65 1381.22C1371.01 1369.98 1372.67 1366.11 1373.26 1358.73C1374.33 1345.15 1370.65 1297.24 1390.57 1329.33L1394.72 1329.22C1403.02 1320.2 1409.54 1315.75 1421.88 1320.9V1275.92L1413.34 1270.3L1424.72 1271.71C1430.41 1268.43 1422.35 1260.7 1426.03 1253.43C1428.52 1248.28 1438.83 1246.17 1443.34 1242.31C1446.18 1239.85 1447.84 1231.3 1450.22 1233.76C1450.69 1234.22 1451.16 1239.5 1454.37 1242.31C1465.16 1251.44 1479.15 1248.4 1470.14 1270.3H1484.37L1475.71 1277.45L1475.95 1320.9C1483.42 1316.8 1495.75 1319.61 1500.14 1326.64C1504.76 1334.14 1489.94 1362.95 1507.25 1363.07C1509.15 1353.23 1502.86 1334.25 1507.49 1325.59C1511.28 1318.68 1515.91 1314.93 1521.13 1322.66C1524.09 1326.99 1526.82 1363.77 1527.29 1372.79C1528.71 1402.54 1526.11 1432.76 1526.94 1462.51C1535.12 1465.44 1538.32 1467.78 1542.82 1475.51C1552.31 1460.75 1563.81 1375.95 1572.71 1370.09C1574.84 1368.69 1578.52 1368.81 1581.24 1368.69L1575.43 1364.12C1572.11 1351.82 1581.72 1349.83 1585.16 1343.51C1587.41 1339.17 1583.73 1327.81 1589.78 1326.64C1584.68 1339.88 1600.45 1349.48 1601.28 1356.27C1602.47 1364.94 1593.58 1367.87 1605.2 1371.62L1641.01 1509.36C1645.99 1510.06 1643.73 1502.92 1643.85 1499.52C1645.39 1460.52 1646.94 1413.32 1635.43 1377.36C1635.67 1377.12 1640.3 1378.18 1641.13 1375.37C1644.09 1363.65 1648.95 1341.87 1655.59 1331.09C1660.22 1323.71 1674.56 1325.59 1672.43 1312.58C1678.12 1313.05 1676.46 1320.67 1678.83 1323.01C1680.49 1324.65 1686.66 1324.77 1691.05 1329.22C1701.13 1339.17 1706.34 1361.43 1706.34 1375.48L1715 1377.24L1706.22 1386.96C1710.26 1425.03 1701.6 1471.18 1706.22 1508.19C1706.94 1513.58 1711.92 1511.94 1711.8 1513.46C1711.44 1519.08 1707.29 1524.59 1709.31 1532.79C1709.78 1534.9 1714.41 1534.54 1714.88 1536.65C1717.13 1546.38 1710.26 1559.73 1720.57 1567.11C1713.58 1566.52 1715.59 1576.95 1714.88 1576.95H1233.93V1534.78L1200.97 1537.36L1199.78 1576.95H101.871V1496.36C101.871 1478.56 59.1833 1475.51 59.1833 1493.55V1576.48H-279.474C-279.83 1576.48 -278.525 1571.56 -279.593 1570.27C-281.727 1567.46 -288.96 1567.81 -285.047 1562.54C-284.81 1562.19 -280.186 1563.24 -279.474 1560.66C-277.695 1554.11 -281.134 1543.45 -279.474 1536.3C-278.881 1534.08 -274.138 1535.36 -273.545 1530.33C-272.834 1522.83 -276.035 1517.91 -276.391 1513.11C-276.51 1511.7 -271.411 1513.23 -270.818 1507.84C-266.312 1470.94 -274.731 1424.68 -270.936 1386.73L-279.593 1377.01L-270.936 1375.25C-269.514 1367.75 -270.106 1354.63 -268.091 1348.19C-267.735 1346.9 -254.81 1328.16 -252.557 1326.29C-250.067 1324.18 -244.968 1324.41 -243.426 1322.77C-241.055 1320.31 -242.715 1312.7 -237.023 1312.35C-239.158 1325.35 -224.81 1323.48 -220.185 1330.86C-214.612 1339.76 -213.426 1352.06 -211.411 1361.08C-210.936 1363.18 -206.43 1362.6 -205.837 1365.06C-204.414 1370.45 -209.276 1378.06 -200.146 1377.24C-206.667 1386.96 -207.735 1405.35 -208.565 1417.88C-210.343 1445.76 -211.766 1490.27 -203.229 1513.23L-205.719 1534.54H-197.181C-197.063 1505.03 -196.351 1473.05 -190.66 1444C-188.762 1434.4 -184.849 1412.85 -174.533 1410.74L-174.77 1405.35L-179.869 1404.88L-180.225 1400.9C-171.687 1393.29 -160.422 1394.58 -163.15 1379.82C-155.205 1388.72 -159.236 1393.76 -144.414 1399.49C-148.327 1413.32 -141.924 1408.51 -138.841 1416.13C-133.505 1429.48 -129.948 1446.93 -128.999 1461.34L-124.73 1458.53L-89.3943 1314.11L-75.0464 1308.13C-76.8251 1306.49 -79.5524 1304.15 -80.0267 1301.81C-84.6512 1279.2 -63.5444 1279.67 -66.5088 1256.13C-60.1057 1258.12 -64.0187 1275.81 -62.1215 1278.62C-57.0227 1286.35 -38.0503 1289.63 -55.1254 1308.02L-40.7776 1313.99C-26.6668 1369.39 -15.8763 1426.43 -0.224025 1481.37C0.606017 1484.3 0.487438 1489.8 4.63765 1489.22V1440.02L4.51905 1417.77L12.9381 1416.01C8.90645 1405.47 18.6298 1401.13 18.867 1400.2C20.0527 1395.28 17.6812 1377.94 18.867 1376.77L40.0923 1377.01L41.871 1368.69C43.7682 1366.82 55.1517 1369.63 59.6576 1368.46C62.622 1367.75 62.3849 1361.78 66.1794 1360.37C75.7841 1356.98 86.219 1364.12 95.7052 1359.9L95.8237 1368.1L115.389 1368.69L117.168 1377.01L138.393 1376.77L138.156 1400.55L146.575 1402.19C142.543 1412.73 152.267 1417.06 152.504 1418C153.452 1422.22 151.555 1427.25 152.504 1431.12C152.978 1433.34 162.464 1432.53 158.196 1438.5C157.958 1438.85 153.334 1437.68 152.622 1440.37C149.539 1451.73 154.994 1474.81 152.622 1487.81L161.279 1514.4C162.464 1490.39 164.717 1466.73 164.243 1442.6C164.124 1435.1 161.041 1428.54 161.041 1422.8C160.923 1417.77 166.14 1419.52 166.852 1416.83C175.152 1387.2 164.362 1352.99 166.852 1327.81C167.089 1325.82 172.188 1326.05 173.611 1322.66C177.642 1312.94 175.745 1286.11 175.745 1273.93C175.745 1250.74 182.148 1217.71 183.571 1189.72C183.808 1185.73 180.488 1181.52 181.318 1177.07C188.433 1180.93 194.124 1180.93 201.239 1177.07C200.172 1183.39 198.275 1188.43 198.275 1195.22C197.919 1217.94 203.018 1241.96 206.101 1263.27C208.117 1276.98 203.255 1309.19 207.049 1324.18C207.642 1326.41 212.623 1325.94 212.86 1327.81C213.334 1331.44 209.895 1338.47 209.777 1344.21C209.184 1368.57 214.52 1392.47 212.741 1416.83C228.038 1424.91 217.01 1426.67 215.824 1437.21C214.638 1447.52 216.417 1458.88 215.706 1469.42C228.275 1471.88 217.129 1450.33 219.144 1445.99C222.702 1438.26 235.389 1439.55 229.935 1417.88C229.105 1414.6 222.939 1417.88 224.243 1413.32H235.627C228.868 1389.89 239.54 1395.51 251.397 1385.32C254.243 1382.86 255.903 1374.31 258.275 1376.77C258.749 1377.24 259.224 1382.51 262.425 1385.32C274.283 1395.51 284.955 1389.77 278.196 1413.32H289.579C290.765 1417.88 284.718 1414.6 283.888 1417.88C278.552 1439.44 291.121 1438.26 294.678 1445.99C296.575 1450.09 291.358 1464.15 292.544 1469.54C300.607 1470.71 297.761 1468.13 298.236 1462.51C298.473 1458.88 297.168 1435.34 305.35 1438.62C314.125 1442.25 309.738 1450.56 311.042 1452.91C312.346 1455.48 319.935 1452.44 322.425 1458.18L323.967 1480.78C330.014 1478.09 325.39 1466.61 327.406 1460.28C328.473 1456.77 332.86 1454.9 333.809 1452.55C336.892 1445.18 336.18 1405.23 334.876 1394.93C334.402 1391.3 332.504 1388.84 329.659 1386.61C333.572 1380.99 340.805 1380.99 346.734 1383.8L343.769 1451.27C344.244 1455.25 347.445 1449.86 348.038 1449.86H461.872C462.703 1449.86 464.007 1453.37 466.141 1452.67V1403.48C466.141 1397.62 465.904 1390.36 460.45 1386.61C463.177 1380.64 478.473 1380.29 479.54 1386.49C475.983 1404.18 471.121 1431 474.56 1448.57C475.865 1455.6 482.386 1454.31 483.216 1457.47C484.758 1463.68 479.422 1477.27 485.944 1480.78L487.485 1458.18C490.094 1452.44 497.446 1455.37 498.987 1452.79C500.41 1450.33 498.513 1447.05 498.987 1445.64C501.952 1437.09 509.896 1435.45 511.675 1445.64C512.979 1452.79 506.932 1471.65 517.367 1469.54C518.078 1462.04 514.165 1450.68 517.485 1443.65C519.027 1440.37 523.533 1440.61 525.311 1436.74C526.023 1435.22 528.75 1421.28 528.513 1420.58C527.327 1416.13 519.62 1418.12 520.331 1413.43L534.442 1409.22C521.636 1393.99 539.185 1392.47 547.485 1385.44C550.331 1382.98 551.991 1374.43 554.363 1376.89C554.6 1377.12 554.837 1381.46 557.446 1383.68C569.778 1394.11 582.11 1391.76 574.402 1413.43L585.786 1410.62C588.513 1418.12 580.687 1415.19 580.094 1418C579.383 1421.4 579.264 1433.46 580.094 1436.74C580.924 1440.02 588.987 1439.9 591.003 1446.23C593.138 1453.02 590.648 1462.39 591.596 1469.54L595.865 1444.36L601.557 1438.73C613.533 1438.73 608.316 1491.91 608.671 1501.98C608.79 1505.38 606.537 1512.41 611.517 1511.82L616.972 1496.36L611.28 1494.96C614.244 1490.27 616.379 1488.51 617.09 1482.54C620.055 1459.58 617.683 1411.68 617.09 1386.61C616.972 1381.81 616.142 1378.41 614.126 1374.19H639.739C633.335 1394.93 640.332 1416.36 641.043 1437.44C641.636 1454.55 633.81 1479.85 645.549 1493.67L639.976 1495.07L639.857 1500.58C650.529 1498.94 647.328 1514.75 649.818 1514.75L651.241 1500.69H659.778C661.201 1502.1 662.031 1530.91 662.624 1535.95C663.098 1540.17 664.877 1544.62 668.316 1540.17L671.162 1405.23H688.237L691.083 1540.17H728.079L725.352 1431.82L733.771 1430.42V1410.74L736.972 1424.56L745.391 1426.32L745.154 1444.47H770.767V1427.61C780.016 1429.13 771.241 1442.13 773.613 1444.47H782.15C785.233 1429.6 775.866 1413.2 780.846 1399.61C784.996 1388.25 800.293 1387.31 799.225 1374.19L821.992 1396.68C810.727 1364.71 829.463 1347.84 849.384 1326.64C862.546 1312.7 888.277 1301.22 873.218 1277.21L881.755 1253.32C884.957 1259.52 881.874 1265.38 882.467 1270.89C882.704 1273.23 886.617 1275.69 886.973 1277.8C887.447 1280.96 882.704 1283.89 882.23 1288.46C880.095 1307.78 913.653 1328.05 925.985 1343.27C938.554 1358.97 946.024 1373.61 938.791 1393.87C942.823 1391.06 952.546 1383.56 954.325 1379.82C957.408 1373.02 952.783 1362.95 958.594 1360.26C960.965 1366 957.764 1374.9 960.017 1379.7C962.981 1385.91 975.787 1392.35 979.345 1400.31C983.851 1410.74 975.313 1431.59 978.633 1444.47C993.93 1445.53 979.226 1430.89 988.594 1430.42L990.017 1444.47H1021.32V1436.04L1015.63 1438.85L1015.99 1422.45L1022.74 1422.1L1021.32 1410.86C1032.59 1408.28 1024.4 1426.67 1027.01 1430.53L1032.7 1427.72V1539.93H1032.47ZM1429.46 1281.31C1423.3 1282.6 1421.05 1331.44 1432.19 1329.1C1438.36 1327.81 1440.73 1278.97 1429.46 1281.31ZM1456.5 1320.67C1454.72 1312.35 1461.84 1281.19 1449.39 1281.19C1434.09 1285.18 1440.02 1304.15 1439.78 1316.1L1456.5 1320.67ZM1470.73 1362.83C1465.99 1338.12 1476.54 1315.63 1473.69 1291.03C1472.15 1277.45 1463.5 1277.91 1462.07 1291.03C1460.65 1303.68 1461.36 1338.59 1462.43 1352.64C1462.79 1357.56 1464.21 1364.94 1470.73 1362.83ZM104.717 1382.51H57.7604C55.0331 1382.51 49.1042 1384.74 44.954 1383.8L42.1081 1393.76H104.717V1382.51ZM-219.711 1534.31L-216.984 1400.9C-224.336 1381.11 -252.32 1379.23 -260.976 1399.03C-259.79 1432.76 -266.786 1474.81 -262.755 1507.84C-262.043 1513.23 -257.063 1511.59 -257.181 1513.11L-259.672 1534.43H-219.711V1534.31ZM1695.55 1534.31C1691.4 1521.08 1698.04 1510.06 1698.64 1499.41C1700.3 1466.14 1697.33 1432.17 1696.98 1399.03C1690.69 1379.11 1656.66 1382.04 1652.98 1400.9C1647.29 1430.77 1657.25 1476.21 1652.63 1507.84L1658.2 1513.11L1655.71 1534.43H1695.55V1534.31ZM827.565 1444.36V1399.38L821.755 1425.97C823.415 1431.82 817.131 1446.7 827.565 1444.36ZM244.164 1421.87C226.259 1424.79 239.658 1440.72 241.2 1448.69C242.623 1455.83 236.812 1471.88 247.01 1469.66L244.164 1421.87ZM264.085 1441.54C267.998 1414.49 245.943 1414.6 249.856 1441.54H264.085ZM272.623 1469.66C265.745 1454.08 290.409 1427.02 269.777 1421.87C269.421 1436.27 268.235 1450.56 268.591 1464.97C268.71 1468.6 263.018 1470.36 272.623 1469.66ZM542.979 1469.66C538.829 1461.81 548.671 1419.41 535.865 1421.87C524.6 1431.24 535.509 1440.84 537.051 1448.69C538.592 1455.83 532.782 1471.88 542.979 1469.66ZM560.055 1441.54C563.968 1414.49 541.912 1414.6 545.825 1441.54H560.055ZM565.746 1421.87V1469.66L574.521 1431.82L574.284 1421.87H565.746ZM807.644 1444.36C811.202 1414.25 792.704 1414.37 796.261 1444.36H807.644ZM964.167 1444.36C967.724 1414.25 949.226 1414.37 952.783 1444.36H964.167ZM910.095 1539.93V1473.87C910.095 1471.53 898.593 1456.42 893.02 1458.41C891.716 1459.58 907.25 1472.93 907.25 1476.68V1539.93H910.095ZM853.178 1539.93V1473.87C853.178 1473.29 857.566 1470.71 856.024 1466.84C855.194 1465.91 850.332 1470.48 850.332 1471.06V1539.93H853.178ZM887.329 1489.33C891.123 1462.28 869.305 1462.39 873.099 1489.33H887.329ZM887.329 1539.93C887.921 1530.91 888.633 1522.95 880.214 1517.44C871.795 1522.95 872.506 1530.91 873.099 1539.93H887.329Z"
     fill="#DAD3C0"
     id="path4" />
  <path
     d="M363.69 1427.49L373.651 1413.55L383.611 1427.61C382.307 1408.4 396.536 1409.22 394.995 1427.61L404.955 1413.55L413.493 1427.61L419.185 1413.55C427.722 1411.79 423.453 1427.02 430.449 1424.79C432.109 1424.33 437.445 1396.92 444.679 1427.61L453.216 1413.67C460.805 1419.76 462.584 1429.95 460.331 1438.97L450.489 1433.35L446.102 1441.78L437.801 1434.63C428.315 1439.67 428.315 1438.5 419.185 1433.35L414.797 1441.78L406.497 1434.63C395.588 1442.25 395.113 1434.63 390.133 1433.81C388.71 1433.58 367.603 1438.85 365.588 1438.62C360.252 1437.8 359.54 1428.66 349.461 1439.08C350.054 1430.07 348.038 1419.41 356.576 1413.78L363.69 1427.49Z"
     fill="#DAD3C0"
     id="path5" />
  <path
     d="M1134.92 1345.97L1140.73 1365.64L1124.01 1365.41C1119.03 1357.44 1125.08 1346.43 1134.92 1345.97Z"
     fill="#DAD3C0"
     id="path6" />
  <path
     d="M636.893 1365.64L620.174 1365.41C615.549 1357.09 620.529 1351.59 626.933 1346.08C633.573 1351.47 638.553 1356.27 636.893 1365.64Z"
     fill="#DAD3C0"
     id="path7" />
  <path
     d="M1341.55 1413.87C1360.25 1403.47 1478.56 1344.29 1535.38 1316V1645.93C1535.38 1655.11 486.704 1649.76 -37.6328 1645.93V1337.41C-17.3661 1350.92 29.5073 1382.52 54.8667 1400.87C86.566 1423.81 81.889 1413.87 150.484 1470.07C219.079 1526.27 193.616 1491.48 234.669 1491.48C275.722 1491.48 279.88 1481.54 340.68 1491.48C401.48 1501.42 412.913 1519.01 465.918 1554.94C518.923 1590.88 524.64 1565.27 593.235 1565.27C661.83 1565.27 624.414 1552.27 709.119 1554.94C793.823 1557.62 824.483 1558 844.231 1565.27C863.978 1572.53 932.053 1556.47 963.752 1540.8C995.452 1525.12 989.216 1510.21 1028.19 1506.01C1067.16 1501.8 1084.83 1532.01 1135.76 1527.8C1186.69 1523.59 1171.1 1491.48 1210.59 1470.07C1250.09 1448.66 1318.16 1426.87 1341.55 1413.87Z"
     fill="#DAD3C0"
     id="path8" />
  <path
     d="M104.181 1523.83C70.1726 1524.93 16.5992 1497.07 -5.93647 1483C-2.0098 1546.45 3.48753 1674.96 -5.93647 1681.43C-15.3605 1687.9 1026.09 1684.12 1548 1681.43V1483L1529.05 1491.28C1510.27 1495.49 1470.46 1504.93 1461.44 1509.04C1450.17 1514.16 1393.84 1523.83 1341.59 1532.11C1289.35 1540.4 1264.26 1547.7 1206.38 1555.78C1148.5 1563.87 1140.82 1561.9 1090.63 1561.9H978.462C929.806 1561.9 907.27 1570.77 829.932 1570.77H718.278C666.548 1570.77 652.207 1566.24 621.477 1561.9C590.746 1557.56 561.553 1558.15 528.773 1561.9C495.994 1565.65 455.532 1563.28 428.387 1561.9C401.242 1560.52 343.366 1550.65 318.27 1543.95C293.173 1537.24 249.126 1532.11 219.932 1527.58C190.738 1523.04 146.691 1522.45 104.181 1523.83Z"
     fill="#F9F1DB"
     id="path9" />
  <rect
     style="fill:none"
     id="rect9"
     width="16.329796"
     height="228.61714"
     x="975.70532"
     y="1726.8759" />
</svg>
