<svg width="1512" height="921" viewBox="0 0 1512 921" fill="none" xmlns="http://www.w3.org/2000/svg">
<path d="M682.729 957.436L641.81 938.307L646.315 905.148L638.266 896.348C626.262 890.716 611.94 905.261 604.241 913.263C561.397 957.687 513.873 1075.59 431.723 1029.33C368.047 993.501 426.666 876.581 387.863 863.27C349.685 850.185 310.838 998.675 246.376 939.884C224.432 919.874 228.439 823.555 176.558 909.694L146.52 895.603C160.457 853.824 208.507 809.38 249.274 850.366C259.828 860.974 260.119 886.501 272.341 897.492C307.043 919.727 338.241 799.228 394.547 804.079C484.039 811.786 425.876 940.466 463.614 961.397C478.239 969.489 483.915 965.497 495.776 957.318C541.604 925.707 598.989 787.344 672.589 848.492C702.284 873.137 691.767 926.47 682.702 957.424L682.729 957.436Z" fill="url(#paint0_linear_557_3054)"/>
<path d="M204.644 914.375C179.743 935.296 198.356 963.37 181.735 974.498C165.114 985.626 152.479 952.158 134.892 948.17C123.335 945.56 78.1672 968.277 81.5557 939.683C83.0029 927.42 95.4079 915.671 95.8241 896.74C96.1718 880.91 78.9704 869.135 77.7801 858.542C74.0814 825.343 111.551 847.153 128.051 843.073C146.949 838.367 155.119 800.486 174.805 809.976C188.994 816.803 175.106 850.764 202.994 867.861C211.453 873.044 230.807 874.735 232.751 886.11C236.236 906.495 213.543 906.901 204.614 914.394L204.644 914.375Z" fill="#F2ECD6"/>
<path d="M1305.8 956.692L1334.21 934.374L1356.18 953.354L1365.35 951.325C1373.7 944.786 1368.53 927.023 1365.62 917.389C1349.5 863.824 1282.78 772.257 1345.41 731.13C1393.93 699.24 1455.94 798.829 1479.45 775.404C1502.57 752.349 1410.94 653.082 1476.09 631.349C1498.27 623.95 1565.37 672.14 1522.83 592.122L1543.72 575.762C1568.41 605.99 1582.66 663.545 1538.75 675.506C1527.38 678.604 1509.11 666.866 1496.87 671.06C1468.5 687.17 1542.97 767.475 1519.16 808.245C1481.31 873.046 1410.76 768.294 1382.22 787.336C1371.17 794.725 1371.96 800.934 1373.49 813.833C1379.41 863.676 1457.13 972.37 1387 999.984C1358.72 1011.14 1324.57 978.11 1305.82 956.677L1305.8 956.692Z" fill="url(#paint1_linear_557_3054)"/>
<path d="M1264.1 -96.9172C1329.03 -158.53 1426.82 -73.5974 1381.99 3.74882C1371.43 21.9844 1336.05 44.0557 1361.72 68.805C1380.87 87.2507 1400.69 62.8349 1417.88 57.6108C1491.24 35.3221 1547.53 111.265 1508.07 178.148C1499.04 193.439 1473.33 203.232 1482.49 227.277C1490.94 249.453 1513.11 252.514 1529.87 237.306L1559.55 276.285C1500.11 340.344 1399.5 256.196 1441.02 181.03C1454.09 157.39 1491.55 136.392 1459.3 108.874C1428.24 97.1404 1411.99 130.685 1375.02 128.582C1325.25 125.758 1288.93 64.6272 1309.27 16.9782C1318.3 -4.21319 1369 -43.7803 1326.89 -63.4894C1309.54 -71.6206 1297.01 -53.2114 1295.96 -54.6L1264.09 -96.863L1264.1 -96.9172Z" fill="url(#paint2_linear_557_3054)"/>
<path d="M-57.654 847.167C-69.6443 835.113 -137.12 805.116 -125.555 782.04C-113.99 758.965 -40.0275 812.418 -36.3852 809.133C-101.787 707.168 -57.2287 681.323 -1.84993 787.415C7.10956 759.508 -11.1017 709.475 20.8813 695.223C41.2462 696.363 37.6836 772.213 40.7676 787.415C95.8539 683.414 137.275 703.096 77.9881 809.161C91.095 802.102 152.748 763.254 164.552 779.108C180.185 800.148 108.775 834.652 99.2303 847.167H153.732C156.178 847.167 181.089 855.555 183.136 857.836C211.264 889.3 108.748 886.422 96.5983 890.548C109.838 893.833 183.056 938.274 165.111 955.051C135.148 965.53 105.265 936.292 77.9881 925.894C74.7446 929.396 123.556 999.111 106.515 1014.8C90.4303 1032.58 48.2116 961.023 43.3464 947.639C40.0231 958.227 40.7942 1062.96 12.1876 1036.44C8.83774 1033.32 0.835281 1002.59 0.835281 997.835V950.327C-22.2946 965.72 -32.3706 1024.49 -67.863 1015.02C-72.6219 981.791 -50.3163 953.693 -36.3852 925.922C-39.9743 922.61 -109.178 974.76 -124.412 954.671C-140.283 935.396 -70.8407 897.525 -57.6806 890.576C-74.2437 884.142 -146.93 893.779 -147.993 867.772C-148.552 854.28 -113.884 847.167 -104.206 847.167H-57.6806H-57.654Z" fill="#398300"/>
<defs>
<linearGradient id="paint0_linear_557_3054" x1="242.226" y1="702.699" x2="616.437" y2="905.792" gradientUnits="userSpaceOnUse">
<stop stop-color="#E2572C"/>
<stop offset="1" stop-color="#DCC3F4"/>
</linearGradient>
<linearGradient id="paint1_linear_557_3054" x1="1380.28" y1="703.009" x2="1346.83" y2="983.834" gradientUnits="userSpaceOnUse">
<stop stop-color="#EFD407"/>
<stop offset="1" stop-color="#FC6605"/>
</linearGradient>
<linearGradient id="paint2_linear_557_3054" x1="1268.51" y1="-100.838" x2="1574.39" y2="264.731" gradientUnits="userSpaceOnUse">
<stop stop-color="#D51900"/>
<stop offset="1" stop-color="#EF9E07"/>
</linearGradient>
</defs>
</svg>
