<svg width="628" height="373" viewBox="0 0 628 373" fill="none" xmlns="http://www.w3.org/2000/svg">
<mask id="mask0_522_3714" style="mask-type:alpha" maskUnits="userSpaceOnUse" x="0" y="0" width="628" height="373">
<path d="M0.155273 0.153076H611.155C619.992 0.153076 627.155 7.31652 627.155 16.1531V356.153C627.155 364.99 619.992 372.153 611.155 372.153H0.155273V0.153076Z" fill="#DCC3F4"/>
</mask>
<g mask="url(#mask0_522_3714)">
<path d="M0.155273 0.153076H611.155C619.992 0.153076 627.155 7.31652 627.155 16.1531V356.153C627.155 364.99 619.992 372.153 611.155 372.153H0.155273V0.153076Z" fill="#FBF0D3"/>
<path d="M447.089 365.239C470.927 352.891 496.499 369.58 490.334 399.353C489.392 403.932 485.259 413.974 480.044 413.184C505.594 442.563 479.364 483.318 445.818 464.026C433.078 492.574 398.226 489.018 391.056 457.648C390.152 453.673 392.461 447.149 389.901 443.583C389.289 442.742 377.289 440.957 372.124 434.486C355.592 413.753 368.535 385.579 392.96 382.859C385.159 345.589 434.441 329.424 447.085 365.226L447.089 365.239Z" fill="#398300"/>
<path d="M646.317 148.398L654.747 164.445L669.364 154.072L671.154 172.983L688.874 170.147L682.704 187.64L699.52 193.786L687.128 207.487L699.52 221.188L682.82 227.316L688.883 244.837L671.172 242.01L669.381 260.921L654.88 251.56L645.891 266.614L636.061 251.541L620.646 260.931L618.9 242.435L601.136 244.847L607.341 225.954L590.499 221.207L603.769 207.506L591.394 195.195L607.341 189.058L601.136 170.165L618.909 172.605L620.646 154.081L636.575 164.483L646.326 148.408L646.317 148.398ZM648.152 189.011L644.996 183.385L641.362 188.973L634.811 186.221V192.84L627.72 191.895L629.457 198.92L623.279 201.35L627.684 207.487L623.279 213.624L629.395 216.073L627.711 223.08L634.802 222.134V229.699L641.362 225.992L644.996 231.571L648.595 225.86L655.181 229.699L656.156 222.219L663.168 223.07L660.517 215.524L667.609 213.605L662.326 207.468L667.6 202.75L660.553 198.968L663.168 191.866L656.129 192.746L655.19 186.183L648.152 188.982V189.011Z" fill="#253E91"/>
<path d="M725.863 311.127L705.842 311.152L701.956 297.603L697.148 295.673C691.271 295.673 687.932 303.841 686.169 308.302C676.339 333.086 677.288 386.936 635.738 383.971C603.537 381.683 607.29 326.209 589.139 328.088C571.283 329.942 581.059 393.979 544.571 383.012C532.15 379.28 517.151 341.56 510.834 383.996H496.129C494.607 365.437 506.56 339.707 530.294 348.105C536.437 350.278 540.965 360.03 547.856 362.05C565.873 364.338 557.807 312.431 581.647 304.148C619.537 290.982 618.001 350.891 637.033 352.131C644.406 352.604 646.035 350.048 649.468 344.769C662.73 324.369 662.276 260.881 702.904 271.106C719.292 275.222 724.207 297.603 725.85 311.127H725.863Z" fill="url(#paint0_linear_522_3714)"/>
<path d="M580.601 18.6962C575.726 13.5639 548.294 0.791149 552.995 -9.03407C557.697 -18.8593 587.767 3.90054 589.248 2.50189C562.659 -40.914 580.774 -51.9183 603.289 -6.74537C606.931 -18.6281 599.527 -39.9315 612.531 -46C620.81 -45.5145 619.362 -13.2185 620.616 -6.74537C643.011 -51.0282 659.852 -42.6479 635.748 2.51345C641.077 -0.491909 666.142 -17.0329 670.941 -10.2824C677.297 -1.32417 648.264 13.3674 644.384 18.6962H666.542C667.537 18.6962 677.664 22.2679 678.497 23.2389C689.932 36.6358 648.254 35.4106 643.314 37.1676C648.697 38.5662 678.464 57.4884 671.168 64.6319C658.987 69.0937 646.838 56.6446 635.748 52.2175C634.429 53.7086 654.274 83.3923 647.346 90.0735C640.806 97.6447 623.642 67.1749 621.664 61.4763C620.313 65.9843 620.626 110.579 608.996 99.286C607.634 97.9568 604.381 84.8719 604.381 82.849V62.6207C594.977 69.1747 590.88 94.2001 576.451 90.1659C574.516 76.0176 583.584 64.054 589.248 52.229C587.789 50.8188 559.654 73.0238 553.46 64.4701C547.007 56.2632 575.24 40.1383 580.59 37.1791C573.856 34.4396 544.305 38.5431 543.873 27.4695C543.646 21.7246 557.741 18.6962 561.675 18.6962H580.59H580.601Z" fill="#F7AB1B"/>
<path d="M641.596 125.661C630.46 134.471 638.784 146.293 631.351 150.98C623.918 155.666 618.267 141.572 610.402 139.893C605.234 138.794 585.034 148.36 586.55 136.319C587.197 131.155 592.744 126.207 592.931 118.235C593.086 111.569 585.393 106.611 584.861 102.15C583.207 88.1695 599.964 97.3537 607.343 95.6355C615.794 93.6537 619.448 77.7017 628.251 81.6984C634.597 84.5733 628.386 98.8744 640.858 106.074C644.641 108.256 653.296 108.969 654.166 113.759C655.724 122.343 645.576 122.514 641.582 125.669L641.596 125.661Z" fill="#FC6605"/>
</g>
<defs>
<linearGradient id="paint0_linear_522_3714" x1="501.91" y1="292.654" x2="689.003" y2="311.676" gradientUnits="userSpaceOnUse">
<stop stop-color="#E2572C"/>
<stop offset="1" stop-color="#DCC3F4"/>
</linearGradient>
</defs>
</svg>
