<svg width="526" height="328" viewBox="0 0 526 328" fill="none" xmlns="http://www.w3.org/2000/svg">
<line x1="217.262" y1="62.011" x2="250.262" y2="4.01095" stroke="#614718" stroke-width="4"/>
<path d="M280.738 62.0107L247.738 4.01074" stroke="#614718" stroke-width="4"/>
<g filter="url(#filter0_d_565_3054)">
<rect x="15.5" y="69.5" width="495" height="239" stroke="#DFC392" stroke-width="23" shape-rendering="crispEdges"/>
</g>
<path d="M80.5784 174L70.5784 147.68H78.0584L85.0984 168.16H85.1784L92.0584 147.68H98.7784L88.7384 174H80.5784ZM108.068 174.32C101.548 174.32 97.3084 170.56 97.3084 164.16C97.3084 157.72 101.548 153.92 108.068 153.92C114.588 153.92 118.828 157.72 118.828 164.16C118.828 170.56 114.588 174.32 108.068 174.32ZM108.068 169.68C111.028 169.68 112.748 167.64 112.748 164.16C112.748 160.64 111.028 158.56 108.068 158.56C105.108 158.56 103.388 160.64 103.388 164.16C103.388 167.64 105.108 169.68 108.068 169.68ZM121.577 174V146.28H127.657V174H121.577ZM139.713 174.32C133.993 174.32 130.433 170.16 130.433 163.96C130.433 157.92 134.193 153.92 139.953 153.92C143.153 153.92 145.233 155.12 146.113 157.16H146.153V146.28H152.233V174H146.153C146.193 173.6 146.273 171.88 146.393 169.76H146.313C145.553 172.56 143.313 174.32 139.713 174.32ZM141.113 169.68C144.153 169.68 146.153 167.52 146.153 164.28V163.32C146.153 160.48 144.153 158.56 141.193 158.56C138.353 158.56 136.473 160.72 136.473 164C136.473 167.36 138.313 169.68 141.113 169.68ZM164.884 174.32C157.924 174.32 155.004 171.36 155.004 167.36H160.444C160.444 169.2 161.364 170.4 164.844 170.4C168.004 170.4 169.124 169.48 169.124 168.04C169.124 167.32 168.764 166.76 167.724 166.52C166.684 166.28 165.084 166.12 163.124 165.96C160.284 165.72 158.084 165.28 156.884 164.44C155.764 163.64 155.004 162.2 155.004 160.56C155.004 156.28 159.404 153.92 164.884 153.92C171.364 153.92 174.324 156.4 174.324 161H168.964C168.924 158.92 167.964 157.84 164.964 157.84C162.244 157.84 161.044 158.76 161.044 160.12C161.044 160.96 161.364 161.6 162.484 161.88C163.484 162.12 165.244 162.28 167.364 162.48C169.804 162.72 171.524 162.96 173.004 163.8C174.284 164.52 175.204 166 175.204 167.72C175.204 171.88 171.644 174.32 164.884 174.32ZM179.505 174V158.96H176.585V154.24H179.505V152.32C179.505 147.76 182.825 145.44 187.305 145.44C189.305 145.44 191.025 145.88 191.545 146.08V150.56C191.025 150.4 189.945 150.08 188.545 150.08C186.545 150.08 185.585 151 185.585 152.76V154.24H191.865V158.96H185.585V174H179.505ZM200.893 174.32C196.293 174.32 193.093 172.32 193.093 168.32C193.093 165.08 195.413 162.72 200.653 162.72H207.093V161.4C207.093 159 205.733 158.04 202.933 158.04C200.653 158.04 199.333 159 199.333 160.6C199.333 160.72 199.333 161.04 199.373 161.44H193.773C193.733 161.12 193.693 160.68 193.693 160.28C193.693 156.28 197.213 153.92 203.213 153.92C209.493 153.92 213.173 156.72 213.173 162V174H207.093C207.213 173 207.373 171.2 207.373 170H207.333C206.733 172.8 204.493 174.32 200.893 174.32ZM202.092 170.2C205.253 170.2 207.093 168.8 207.093 166.4V166H201.213C199.573 166 198.573 166.76 198.573 167.88C198.573 169.4 199.893 170.2 202.092 170.2ZM230.348 170.4C234.828 170.4 237.468 172.36 237.468 175.64C237.468 180.16 233.428 182.56 226.588 182.56C219.628 182.56 215.508 180.64 215.508 177.36C215.508 175.28 216.868 174 219.068 173.76V173.72C217.868 172.96 217.228 171.88 217.228 170.48C217.228 168.6 218.188 167.44 219.668 166.76V166.72C217.588 165.52 216.428 163.56 216.428 161C216.428 156.56 219.868 153.92 225.668 153.92C227.988 153.92 229.908 154.32 231.388 155.12L231.428 155.04C230.628 154.32 230.268 153.52 230.268 152.8C230.268 151.16 231.908 150.2 234.428 150.2C235.508 150.2 236.068 150.28 236.628 150.4V154.24C236.268 154.16 235.868 154.12 235.428 154.12C234.148 154.12 233.548 154.68 233.548 155.6C233.548 156.08 233.708 156.68 233.988 157.4C234.628 158.4 234.948 159.6 234.948 161C234.948 165.44 231.508 168.04 225.668 168.04C224.468 168.04 223.388 167.92 222.388 167.72C222.228 167.96 222.028 168.44 222.028 169C222.028 169.88 222.748 170.4 223.948 170.4H230.348ZM225.668 157.76C223.468 157.76 222.148 158.96 222.148 161C222.148 163 223.468 164.2 225.668 164.2C227.908 164.2 229.228 163 229.228 161C229.228 158.96 227.908 157.76 225.668 157.76ZM226.508 178.88C229.588 178.88 231.388 178.04 231.388 176.48C231.388 175.4 230.588 174.8 228.828 174.8H224.148C222.508 174.8 221.548 175.48 221.548 176.6C221.548 178.08 223.388 178.88 226.508 178.88ZM239.858 174V146.28H245.938V174H239.858ZM249.235 152.16V147.32H255.315V152.16H249.235ZM249.235 174V154.24H255.315V174H249.235ZM272.848 170.4C277.328 170.4 279.968 172.36 279.968 175.64C279.968 180.16 275.928 182.56 269.088 182.56C262.128 182.56 258.008 180.64 258.008 177.36C258.008 175.28 259.368 174 261.568 173.76V173.72C260.368 172.96 259.728 171.88 259.728 170.48C259.728 168.6 260.688 167.44 262.168 166.76V166.72C260.088 165.52 258.928 163.56 258.928 161C258.928 156.56 262.368 153.92 268.168 153.92C270.488 153.92 272.408 154.32 273.888 155.12L273.928 155.04C273.128 154.32 272.768 153.52 272.768 152.8C272.768 151.16 274.408 150.2 276.928 150.2C278.008 150.2 278.568 150.28 279.128 150.4V154.24C278.768 154.16 278.368 154.12 277.928 154.12C276.648 154.12 276.048 154.68 276.048 155.6C276.048 156.08 276.208 156.68 276.488 157.4C277.128 158.4 277.448 159.6 277.448 161C277.448 165.44 274.008 168.04 268.168 168.04C266.968 168.04 265.888 167.92 264.888 167.72C264.728 167.96 264.528 168.44 264.528 169C264.528 169.88 265.248 170.4 266.448 170.4H272.848ZM268.168 157.76C265.968 157.76 264.648 158.96 264.648 161C264.648 163 265.968 164.2 268.168 164.2C270.408 164.2 271.728 163 271.728 161C271.728 158.96 270.408 157.76 268.168 157.76ZM269.008 178.88C272.088 178.88 273.888 178.04 273.888 176.48C273.888 175.4 273.088 174.8 271.328 174.8H266.648C265.008 174.8 264.048 175.48 264.048 176.6C264.048 178.08 265.888 178.88 269.008 178.88ZM291.777 174V147.68H304.057C311.017 147.68 314.777 150.56 314.777 155.52C314.777 158.88 313.337 161 310.857 161.72V161.8C313.457 162.4 314.617 164.48 314.617 167.44V174H308.057V167.64C308.057 165.24 307.177 164.2 304.697 164.2H298.337V174H291.777ZM298.337 160.24H304.337C307.097 160.24 308.497 159 308.497 156.56C308.497 154.24 307.057 152.84 304.017 152.84H298.337V160.24ZM327.823 152.2C323.783 152.2 321.743 150.12 321.743 147.36C321.743 144.6 323.943 142.52 327.823 142.52C331.823 142.52 333.903 144.6 333.903 147.36C333.903 150.12 331.863 152.2 327.823 152.2ZM327.823 149.2C329.303 149.2 330.103 148.52 330.103 147.36C330.103 146.2 329.263 145.52 327.823 145.52C326.423 145.52 325.543 146.2 325.543 147.36C325.543 148.52 326.343 149.2 327.823 149.2ZM325.463 174.32C320.863 174.32 317.663 172.32 317.663 168.32C317.663 165.08 319.983 162.72 325.223 162.72H331.663V161.4C331.663 159 330.303 158.04 327.503 158.04C325.223 158.04 323.903 159 323.903 160.6C323.903 160.72 323.903 161.04 323.943 161.44H318.343C318.303 161.12 318.263 160.68 318.263 160.28C318.263 156.28 321.783 153.92 327.783 153.92C334.063 153.92 337.743 156.72 337.743 162V174H331.663C331.783 173 331.943 171.2 331.943 170H331.903C331.303 172.8 329.063 174.32 325.463 174.32ZM326.663 170.2C329.823 170.2 331.663 168.8 331.663 166.4V166H325.783C324.143 166 323.143 166.76 323.143 167.88C323.143 169.4 324.463 170.2 326.663 170.2ZM349.518 174.32C343.798 174.32 340.238 170.16 340.238 163.96C340.238 157.92 343.998 153.92 349.758 153.92C352.958 153.92 355.038 155.12 355.918 157.16H355.958V146.28H362.038V174H355.958C355.998 173.6 356.078 171.88 356.198 169.76H356.118C355.358 172.56 353.118 174.32 349.518 174.32ZM350.918 169.68C353.958 169.68 355.958 167.52 355.958 164.28V163.32C355.958 160.48 353.958 158.56 350.998 158.56C348.158 158.56 346.278 160.72 346.278 164C346.278 167.36 348.118 169.68 350.918 169.68ZM379.488 170.4C383.968 170.4 386.608 172.36 386.608 175.64C386.608 180.16 382.568 182.56 375.728 182.56C368.768 182.56 364.648 180.64 364.648 177.36C364.648 175.28 366.008 174 368.208 173.76V173.72C367.008 172.96 366.368 171.88 366.368 170.48C366.368 168.6 367.328 167.44 368.808 166.76V166.72C366.728 165.52 365.568 163.56 365.568 161C365.568 156.56 369.008 153.92 374.808 153.92C377.128 153.92 379.048 154.32 380.528 155.12L380.568 155.04C379.768 154.32 379.408 153.52 379.408 152.8C379.408 151.16 381.048 150.2 383.568 150.2C384.648 150.2 385.208 150.28 385.768 150.4V154.24C385.408 154.16 385.008 154.12 384.568 154.12C383.288 154.12 382.688 154.68 382.688 155.6C382.688 156.08 382.848 156.68 383.128 157.4C383.768 158.4 384.088 159.6 384.088 161C384.088 165.44 380.648 168.04 374.808 168.04C373.608 168.04 372.528 167.92 371.528 167.72C371.368 167.96 371.168 168.44 371.168 169C371.168 169.88 371.888 170.4 373.088 170.4H379.488ZM374.808 157.76C372.608 157.76 371.288 158.96 371.288 161C371.288 163 372.608 164.2 374.808 164.2C377.048 164.2 378.368 163 378.368 161C378.368 158.96 377.048 157.76 374.808 157.76ZM375.648 178.88C378.728 178.88 380.528 178.04 380.528 176.48C380.528 175.4 379.728 174.8 377.968 174.8H373.288C371.648 174.8 370.688 175.48 370.688 176.6C370.688 178.08 372.528 178.88 375.648 178.88ZM389.078 152.16V147.32H395.158V152.16H389.078ZM389.078 174V154.24H395.158V174H389.078ZM405.812 174L397.532 154.24H404.612L409.692 168.44H409.772L414.972 154.24H421.212L413.052 174H405.812ZM441.883 163.56V165.28H427.843C428.123 168.52 429.763 169.92 432.483 169.92C434.843 169.92 436.363 169.08 436.523 167.16H441.883C441.763 171.68 438.003 174.32 432.363 174.32C425.803 174.32 421.723 170.6 421.723 164.32C421.723 157.8 425.803 153.92 432.483 153.92C438.003 153.92 441.883 157.08 441.883 163.56ZM436.523 162.04V161.72C436.523 159.48 435.003 158.32 432.483 158.32C429.923 158.32 428.483 159.44 428.003 162.04H436.523ZM444.543 174V154.24H450.623L450.383 159.88H450.463C451.303 156.12 453.423 153.92 457.303 153.92C461.343 153.92 463.703 156.52 463.703 161.64C463.703 162.76 463.583 164.52 463.503 165.56H457.983C458.063 164.6 458.103 163.6 458.103 163C458.103 160.12 456.943 158.96 455.023 158.96C452.423 158.96 450.623 161.08 450.623 165.48V174H444.543ZM314.078 210.16V205.32H320.158V210.16H314.078ZM314.078 232V212.24H320.158V232H314.078ZM332.87 232V205.68H343.47C351.87 205.68 357.07 210.16 357.07 218.8C357.07 227.48 352.15 232 344.31 232H332.87ZM339.43 226.84H344.23C347.87 226.84 350.55 224.36 350.55 218.8C350.55 213.16 347.71 210.84 343.83 210.84H339.43V226.84ZM367.338 232.32C362.738 232.32 359.538 230.32 359.538 226.32C359.538 223.08 361.858 220.72 367.098 220.72H373.538V219.4C373.538 217 372.178 216.04 369.378 216.04C367.098 216.04 365.778 217 365.778 218.6C365.778 218.72 365.778 219.04 365.818 219.44H360.218C360.178 219.12 360.138 218.68 360.138 218.28C360.138 214.28 363.658 211.92 369.658 211.92C375.938 211.92 379.618 214.72 379.618 220V232H373.538C373.658 231 373.818 229.2 373.818 228H373.778C373.178 230.8 370.938 232.32 367.338 232.32ZM368.538 228.2C371.698 228.2 373.538 226.8 373.538 224.4V224H367.658C366.018 224 365.018 224.76 365.018 225.88C365.018 227.4 366.338 228.2 368.538 228.2ZM382.473 232V212.24H388.553L388.313 217.48H388.393C389.393 213.72 391.713 211.92 396.193 211.92C400.953 211.92 404.033 214.52 404.033 219.64V232H397.953V221C397.953 218.2 396.353 216.96 393.673 216.96C390.473 216.96 388.553 218.84 388.553 222.6V232H382.473ZM406.887 232V212.24H412.967L412.727 217.48H412.807C413.807 213.72 416.127 211.92 420.607 211.92C425.367 211.92 428.447 214.52 428.447 219.64V232H422.367V221C422.367 218.2 420.767 216.96 418.087 216.96C414.887 216.96 412.967 218.84 412.967 222.6V232H406.887ZM451.101 221.56V223.28H437.061C437.341 226.52 438.981 227.92 441.701 227.92C444.061 227.92 445.581 227.08 445.741 225.16H451.101C450.981 229.68 447.221 232.32 441.581 232.32C435.021 232.32 430.941 228.6 430.941 222.32C430.941 215.8 435.021 211.92 441.701 211.92C447.221 211.92 451.101 215.08 451.101 221.56ZM445.741 220.04V219.72C445.741 217.48 444.221 216.32 441.701 216.32C439.141 216.32 437.701 217.44 437.221 220.04H445.741ZM453.762 232V212.24H459.842L459.602 217.88H459.682C460.522 214.12 462.642 211.92 466.522 211.92C470.562 211.92 472.922 214.52 472.922 219.64C472.922 220.76 472.802 222.52 472.722 223.56H467.202C467.282 222.6 467.322 221.6 467.322 221C467.322 218.12 466.162 216.96 464.242 216.96C461.642 216.96 459.842 219.08 459.842 223.48V232H453.762Z" fill="black"/>
<path d="M74.44 275C74.44 271.76 74.992 270.8 79.168 268.856C83.128 267.008 83.752 266.048 83.752 263.96C83.752 262.088 82.432 260.768 80.224 260.768C77.728 260.768 76.36 262.328 76.36 264.776C76.36 265.52 76.432 266.24 76.504 266.6H74.68C74.608 266.24 74.536 265.496 74.536 264.68C74.536 261.2 76.624 258.992 80.272 258.992C83.632 258.992 85.72 261.032 85.72 263.96C85.72 266.36 84.832 268.016 80.224 270.176C76.84 271.76 76.456 272.24 76.456 273.224H86.008V275H74.44ZM94.7324 275.216C90.8204 275.216 88.5644 272.072 88.5644 267.032C88.5644 262.088 90.8204 258.992 94.7324 258.992C98.6444 258.992 100.9 262.088 100.9 267.032C100.9 272.072 98.6444 275.216 94.7324 275.216ZM94.7324 273.44C97.4444 273.44 98.9324 270.992 98.9324 267.032C98.9324 263.168 97.4444 260.768 94.7324 260.768C92.0204 260.768 90.5324 263.168 90.5324 267.032C90.5324 270.992 92.0204 273.44 94.7324 273.44ZM103.409 275C103.409 271.76 103.961 270.8 108.137 268.856C112.097 267.008 112.721 266.048 112.721 263.96C112.721 262.088 111.401 260.768 109.193 260.768C106.697 260.768 105.329 262.328 105.329 264.776C105.329 265.52 105.401 266.24 105.473 266.6H103.649C103.577 266.24 103.505 265.496 103.505 264.68C103.505 261.2 105.593 258.992 109.241 258.992C112.601 258.992 114.689 261.032 114.689 263.96C114.689 266.36 113.801 268.016 109.193 270.176C105.809 271.76 105.425 272.24 105.425 273.224H114.977V275H103.409ZM117.845 275V273.224H123.173V264.776H119.549V263.312L121.757 263.264C123.221 263.24 123.389 262.88 123.413 259.04H125.141V273.224H129.557V275H117.845ZM137.333 268.904V267.512H142.661V268.904H137.333ZM150.495 275C150.495 271.76 151.047 270.8 155.223 268.856C159.183 267.008 159.807 266.048 159.807 263.96C159.807 262.088 158.487 260.768 156.279 260.768C153.783 260.768 152.415 262.328 152.415 264.776C152.415 265.52 152.487 266.24 152.559 266.6H150.735C150.663 266.24 150.591 265.496 150.591 264.68C150.591 261.2 152.679 258.992 156.327 258.992C159.687 258.992 161.775 261.032 161.775 263.96C161.775 266.36 160.887 268.016 156.279 270.176C152.895 271.76 152.511 272.24 152.511 273.224H162.063V275H150.495ZM170.787 275.216C166.875 275.216 164.619 272.072 164.619 267.032C164.619 262.088 166.875 258.992 170.787 258.992C174.699 258.992 176.955 262.088 176.955 267.032C176.955 272.072 174.699 275.216 170.787 275.216ZM170.787 273.44C173.499 273.44 174.987 270.992 174.987 267.032C174.987 263.168 173.499 260.768 170.787 260.768C168.075 260.768 166.587 263.168 166.587 267.032C166.587 270.992 168.075 273.44 170.787 273.44ZM179.463 275C179.463 271.76 180.015 270.8 184.191 268.856C188.151 267.008 188.775 266.048 188.775 263.96C188.775 262.088 187.455 260.768 185.247 260.768C182.751 260.768 181.383 262.328 181.383 264.776C181.383 265.52 181.455 266.24 181.527 266.6H179.703C179.631 266.24 179.559 265.496 179.559 264.68C179.559 261.2 181.647 258.992 185.295 258.992C188.655 258.992 190.743 261.032 190.743 263.96C190.743 266.36 189.855 268.016 185.247 270.176C181.863 271.76 181.479 272.24 181.479 273.224H191.031V275H179.463ZM193.948 275C193.948 271.76 194.5 270.8 198.676 268.856C202.636 267.008 203.26 266.048 203.26 263.96C203.26 262.088 201.94 260.768 199.732 260.768C197.236 260.768 195.868 262.328 195.868 264.776C195.868 265.52 195.94 266.24 196.012 266.6H194.188C194.116 266.24 194.044 265.496 194.044 264.68C194.044 261.2 196.132 258.992 199.78 258.992C203.14 258.992 205.228 261.032 205.228 263.96C205.228 266.36 204.34 268.016 199.732 270.176C196.348 271.76 195.964 272.24 195.964 273.224H205.516V275H193.948Z" fill="#07093B"/>
<circle cx="249" cy="7" r="7" fill="#D9D9D9"/>
<defs>
<filter id="filter0_d_565_3054" x="0" y="58" width="526" height="270" filterUnits="userSpaceOnUse" color-interpolation-filters="sRGB">
<feFlood flood-opacity="0" result="BackgroundImageFix"/>
<feColorMatrix in="SourceAlpha" type="matrix" values="0 0 0 0 0 0 0 0 0 0 0 0 0 0 0 0 0 0 127 0" result="hardAlpha"/>
<feOffset dy="4"/>
<feGaussianBlur stdDeviation="2"/>
<feComposite in2="hardAlpha" operator="out"/>
<feColorMatrix type="matrix" values="0 0 0 0 0 0 0 0 0 0 0 0 0 0 0 0 0 0 0.25 0"/>
<feBlend mode="normal" in2="BackgroundImageFix" result="effect1_dropShadow_565_3054"/>
<feBlend mode="normal" in="SourceGraphic" in2="effect1_dropShadow_565_3054" result="shape"/>
</filter>
</defs>
</svg>
