<svg width="1512" height="1442" viewBox="0 0 1512 1442" fill="none" xmlns="http://www.w3.org/2000/svg">
<path d="M-162 741H-120.12V785.966H-162V741Z" fill="#9686AA"/>
<path d="M-162 789.645H-120.12V834.61H-162V789.645Z" fill="#9686AA"/>
<path d="M-162 838.289H-120.12V883.255H-162V838.289Z" fill="#9686AA"/>
<path d="M118.975 741H160.854V785.966H118.975V741Z" fill="#9686AA"/>
<path d="M118.975 789.645H160.854V834.61H118.975V789.645Z" fill="#9686AA"/>
<path d="M118.975 838.289H160.854V883.255H118.975V838.289Z" fill="#9686AA"/>
<path d="M-21.5127 741H20.367V785.966H-21.5127V741Z" fill="#9686AA"/>
<path d="M-21.5127 789.645H20.367V834.61H-21.5127V789.645Z" fill="#9686AA"/>
<path d="M-21.5127 838.289H20.367V883.255H-21.5127V838.289Z" fill="#9686AA"/>
<path d="M259.462 741H301.342V785.966H259.462V741Z" fill="#9686AA"/>
<path d="M259.462 789.645H301.342V834.61H259.462V789.645Z" fill="#9686AA"/>
<path d="M259.462 838.289H301.342V883.255H259.462V838.289Z" fill="#9686AA"/>
<path d="M-115.171 741H-73.2912V785.966H-115.171V741Z" fill="#9686AA"/>
<path d="M-115.171 789.645H-73.2912V834.61H-115.171V789.645Z" fill="#9686AA"/>
<path d="M-115.171 838.289H-73.2912V883.255H-115.171V838.289Z" fill="#9686AA"/>
<path d="M165.804 741H207.683V785.966H165.804V741Z" fill="#9686AA"/>
<path d="M165.804 789.645H207.683V834.61H165.804V789.645Z" fill="#9686AA"/>
<path d="M165.804 838.289H207.683V883.255H165.804V838.289Z" fill="#9686AA"/>
<path d="M25.3164 741H67.1961V785.966H25.3164V741Z" fill="#9686AA"/>
<path d="M25.3164 789.645H67.1961V834.61H25.3164V789.645Z" fill="#9686AA"/>
<path d="M25.3164 838.289H67.1961V883.255H25.3164V838.289Z" fill="#9686AA"/>
<path d="M306.291 741H348.171V785.966H306.291V741Z" fill="#9686AA"/>
<path d="M306.291 789.645H348.171V834.61H306.291V789.645Z" fill="#9686AA"/>
<path d="M306.291 838.289H348.171V883.255H306.291V838.289Z" fill="#9686AA"/>
<path d="M-68.3418 741H-26.4621V785.966H-68.3418V741Z" fill="#9686AA"/>
<path d="M-68.3418 789.645H-26.4621V834.61H-68.3418V789.645Z" fill="#9686AA"/>
<path d="M-68.3418 838.289H-26.4621V883.255H-68.3418V838.289Z" fill="#9686AA"/>
<path d="M212.633 741H254.513V785.966H212.633V741Z" fill="#9686AA"/>
<path d="M212.633 789.645H254.513V834.61H212.633V789.645Z" fill="#9686AA"/>
<path d="M212.633 838.289H254.513V883.255H212.633V838.289Z" fill="#9686AA"/>
<path d="M72.1455 741H114.025V785.966H72.1455V741Z" fill="#9686AA"/>
<path d="M72.1455 789.645H114.025V834.61H72.1455V789.645Z" fill="#9686AA"/>
<path d="M72.1455 838.289H114.025V883.255H72.1455V838.289Z" fill="#9686AA"/>
<path d="M353.12 741H395V785.966H353.12V741Z" fill="#9686AA"/>
<path d="M353.12 789.645H395V834.61H353.12V789.645Z" fill="#9686AA"/>
<path d="M353.12 838.289H395V883.255H353.12V838.289Z" fill="#9686AA"/>
<path d="M-162 887.964H-120.12V932.929H-162V887.964Z" fill="#9686AA"/>
<path d="M-162 936.608H-120.12V981.574H-162V936.608Z" fill="#9686AA"/>
<path d="M-162 985.253H-120.12V1030.22H-162V985.253Z" fill="#9686AA"/>
<path d="M118.975 887.964H160.854V932.929H118.975V887.964Z" fill="#9686AA"/>
<path d="M118.975 936.608H160.854V981.574H118.975V936.608Z" fill="#9686AA"/>
<path d="M118.975 985.253H160.854V1030.22H118.975V985.253Z" fill="#9686AA"/>
<path d="M-21.5127 887.964H20.367V932.929H-21.5127V887.964Z" fill="#9686AA"/>
<path d="M-21.5127 936.608H20.367V981.574H-21.5127V936.608Z" fill="#9686AA"/>
<path d="M-21.5127 985.253H20.367V1030.22H-21.5127V985.253Z" fill="#9686AA"/>
<path d="M259.462 887.964H301.342V932.929H259.462V887.964Z" fill="#9686AA"/>
<path d="M259.462 936.608H301.342V981.574H259.462V936.608Z" fill="#9686AA"/>
<path d="M259.462 985.253H301.342V1030.22H259.462V985.253Z" fill="#9686AA"/>
<path d="M-115.171 887.964H-73.2912V932.929H-115.171V887.964Z" fill="#9686AA"/>
<path d="M-115.171 936.608H-73.2912V981.574H-115.171V936.608Z" fill="#9686AA"/>
<path d="M-115.171 985.253H-73.2912V1030.22H-115.171V985.253Z" fill="#9686AA"/>
<path d="M165.804 887.964H207.683V932.929H165.804V887.964Z" fill="#9686AA"/>
<path d="M165.804 936.608H207.683V981.574H165.804V936.608Z" fill="#9686AA"/>
<path d="M165.804 985.253H207.683V1030.22H165.804V985.253Z" fill="#9686AA"/>
<path d="M25.3164 887.964H67.1961V932.929H25.3164V887.964Z" fill="#9686AA"/>
<path d="M25.3164 936.608H67.1961V981.574H25.3164V936.608Z" fill="#9686AA"/>
<path d="M25.3164 985.253H67.1961V1030.22H25.3164V985.253Z" fill="#9686AA"/>
<path d="M306.291 887.964H348.171V932.929H306.291V887.964Z" fill="#9686AA"/>
<path d="M306.291 936.608H348.171V981.574H306.291V936.608Z" fill="#9686AA"/>
<path d="M306.291 985.253H348.171V1030.22H306.291V985.253Z" fill="#9686AA"/>
<path d="M-68.3418 887.964H-26.4621V932.929H-68.3418V887.964Z" fill="#9686AA"/>
<path d="M-68.3418 936.608H-26.4621V981.574H-68.3418V936.608Z" fill="#9686AA"/>
<path d="M-68.3418 985.253H-26.4621V1030.22H-68.3418V985.253Z" fill="#9686AA"/>
<path d="M212.633 887.964H254.513V932.929H212.633V887.964Z" fill="#9686AA"/>
<path d="M212.633 936.608H254.513V981.574H212.633V936.608Z" fill="#9686AA"/>
<path d="M212.633 985.253H254.513V1030.22H212.633V985.253Z" fill="#9686AA"/>
<path d="M72.1455 887.964H114.025V932.929H72.1455V887.964Z" fill="#9686AA"/>
<path d="M72.1455 936.608H114.025V981.574H72.1455V936.608Z" fill="#9686AA"/>
<path d="M72.1455 985.253H114.025V1030.22H72.1455V985.253Z" fill="#9686AA"/>
<path d="M353.12 887.964H395V932.929H353.12V887.964Z" fill="#9686AA"/>
<path d="M353.12 936.608H395V981.574H353.12V936.608Z" fill="#9686AA"/>
<path d="M353.12 985.253H395V1030.22H353.12V985.253Z" fill="#9686AA"/>
<path d="M399 741.782H440.88V786.747H399V741.782Z" fill="#9686AA"/>
<path d="M399 790.426H440.88V835.392H399V790.426Z" fill="#9686AA"/>
<path d="M399 839.071H440.88V884.036H399V839.071Z" fill="#9686AA"/>
<path d="M679.975 741.782H721.854V786.747H679.975V741.782Z" fill="#9686AA"/>
<path d="M679.975 790.426H721.854V835.392H679.975V790.426Z" fill="#9686AA"/>
<path d="M679.975 839.071H721.854V884.036H679.975V839.071Z" fill="#9686AA"/>
<path d="M539.487 741.782H581.367V786.747H539.487V741.782Z" fill="#9686AA"/>
<path d="M539.487 790.426H581.367V835.392H539.487V790.426Z" fill="#9686AA"/>
<path d="M539.487 839.071H581.367V884.036H539.487V839.071Z" fill="#9686AA"/>
<path d="M820.462 741.782H862.342V786.747H820.462V741.782Z" fill="#9686AA"/>
<path d="M820.462 790.426H862.342V835.392H820.462V790.426Z" fill="#9686AA"/>
<path d="M820.462 839.071H862.342V884.036H820.462V839.071Z" fill="#9686AA"/>
<path d="M445.829 741.782H487.709V786.747H445.829V741.782Z" fill="#9686AA"/>
<path d="M445.829 790.426H487.709V835.392H445.829V790.426Z" fill="#9686AA"/>
<path d="M445.829 839.071H487.709V884.036H445.829V839.071Z" fill="#9686AA"/>
<path d="M726.804 741.782H768.683V786.747H726.804V741.782Z" fill="#9686AA"/>
<path d="M726.804 790.426H768.683V835.392H726.804V790.426Z" fill="#9686AA"/>
<path d="M726.804 839.071H768.683V884.036H726.804V839.071Z" fill="#9686AA"/>
<path d="M586.316 741.782H628.196V786.747H586.316V741.782Z" fill="#9686AA"/>
<path d="M586.316 790.426H628.196V835.392H586.316V790.426Z" fill="#9686AA"/>
<path d="M586.316 839.071H628.196V884.036H586.316V839.071Z" fill="#9686AA"/>
<path d="M867.291 741.782H909.171V786.747H867.291V741.782Z" fill="#9686AA"/>
<path d="M867.291 790.426H909.171V835.392H867.291V790.426Z" fill="#9686AA"/>
<path d="M867.291 839.071H909.171V884.036H867.291V839.071Z" fill="#9686AA"/>
<path d="M492.658 741.782H534.538V786.747H492.658V741.782Z" fill="#9686AA"/>
<path d="M492.658 790.426H534.538V835.392H492.658V790.426Z" fill="#9686AA"/>
<path d="M492.658 839.071H534.538V884.036H492.658V839.071Z" fill="#9686AA"/>
<path d="M773.633 741.782H815.513V786.747H773.633V741.782Z" fill="#9686AA"/>
<path d="M773.633 790.426H815.513V835.392H773.633V790.426Z" fill="#9686AA"/>
<path d="M773.633 839.071H815.513V884.036H773.633V839.071Z" fill="#9686AA"/>
<path d="M633.146 741.782H675.025V786.747H633.146V741.782Z" fill="#9686AA"/>
<path d="M633.146 790.426H675.025V835.392H633.146V790.426Z" fill="#9686AA"/>
<path d="M633.146 839.071H675.025V884.036H633.146V839.071Z" fill="#9686AA"/>
<path d="M914.12 741.782H956V786.747H914.12V741.782Z" fill="#9686AA"/>
<path d="M914.12 790.426H956V835.392H914.12V790.426Z" fill="#9686AA"/>
<path d="M914.12 839.071H956V884.036H914.12V839.071Z" fill="#9686AA"/>
<path d="M399 888.745H440.88V933.711H399V888.745Z" fill="#9686AA"/>
<path d="M399 937.39H440.88V982.355H399V937.39Z" fill="#9686AA"/>
<path d="M399 986.034H440.88V1031H399V986.034Z" fill="#9686AA"/>
<path d="M679.975 888.745H721.854V933.711H679.975V888.745Z" fill="#9686AA"/>
<path d="M679.975 937.39H721.854V982.355H679.975V937.39Z" fill="#9686AA"/>
<path d="M679.975 986.034H721.854V1031H679.975V986.034Z" fill="#9686AA"/>
<path d="M539.487 888.745H581.367V933.711H539.487V888.745Z" fill="#9686AA"/>
<path d="M539.487 937.39H581.367V982.355H539.487V937.39Z" fill="#9686AA"/>
<path d="M539.487 986.034H581.367V1031H539.487V986.034Z" fill="#9686AA"/>
<path d="M820.462 888.745H862.342V933.711H820.462V888.745Z" fill="#9686AA"/>
<path d="M820.462 937.39H862.342V982.355H820.462V937.39Z" fill="#9686AA"/>
<path d="M820.462 986.034H862.342V1031H820.462V986.034Z" fill="#9686AA"/>
<path d="M445.829 888.745H487.709V933.711H445.829V888.745Z" fill="#9686AA"/>
<path d="M445.829 937.39H487.709V982.355H445.829V937.39Z" fill="#9686AA"/>
<path d="M445.829 986.034H487.709V1031H445.829V986.034Z" fill="#9686AA"/>
<path d="M726.804 888.745H768.683V933.711H726.804V888.745Z" fill="#9686AA"/>
<path d="M726.804 937.39H768.683V982.355H726.804V937.39Z" fill="#9686AA"/>
<path d="M726.804 986.034H768.683V1031H726.804V986.034Z" fill="#9686AA"/>
<path d="M586.316 888.745H628.196V933.711H586.316V888.745Z" fill="#9686AA"/>
<path d="M586.316 937.39H628.196V982.355H586.316V937.39Z" fill="#9686AA"/>
<path d="M586.316 986.034H628.196V1031H586.316V986.034Z" fill="#9686AA"/>
<path d="M867.291 888.745H909.171V933.711H867.291V888.745Z" fill="#9686AA"/>
<path d="M867.291 937.39H909.171V982.355H867.291V937.39Z" fill="#9686AA"/>
<path d="M867.291 986.034H909.171V1031H867.291V986.034Z" fill="#9686AA"/>
<path d="M492.658 888.745H534.538V933.711H492.658V888.745Z" fill="#9686AA"/>
<path d="M492.658 937.39H534.538V982.355H492.658V937.39Z" fill="#9686AA"/>
<path d="M492.658 986.034H534.538V1031H492.658V986.034Z" fill="#9686AA"/>
<path d="M773.633 888.745H815.513V933.711H773.633V888.745Z" fill="#9686AA"/>
<path d="M773.633 937.39H815.513V982.355H773.633V937.39Z" fill="#9686AA"/>
<path d="M773.633 986.034H815.513V1031H773.633V986.034Z" fill="#9686AA"/>
<path d="M633.146 888.745H675.025V933.711H633.146V888.745Z" fill="#9686AA"/>
<path d="M633.146 937.39H675.025V982.355H633.146V937.39Z" fill="#9686AA"/>
<path d="M633.146 986.034H675.025V1031H633.146V986.034Z" fill="#9686AA"/>
<path d="M914.12 888.745H956V933.711H914.12V888.745Z" fill="#9686AA"/>
<path d="M914.12 937.39H956V982.355H914.12V937.39Z" fill="#9686AA"/>
<path d="M914.12 986.034H956V1031H914.12V986.034Z" fill="#9686AA"/>
<path d="M960 741.782H1001.88V786.747H960V741.782Z" fill="#9686AA"/>
<path d="M960 790.426H1001.88V835.392H960V790.426Z" fill="#9686AA"/>
<path d="M960 839.071H1001.88V884.036H960V839.071Z" fill="#9686AA"/>
<path d="M1240.97 741.782H1282.85V786.747H1240.97V741.782Z" fill="#9686AA"/>
<path d="M1240.97 790.426H1282.85V835.392H1240.97V790.426Z" fill="#9686AA"/>
<path d="M1240.97 839.071H1282.85V884.036H1240.97V839.071Z" fill="#9686AA"/>
<path d="M1100.49 741.782H1142.37V786.747H1100.49V741.782Z" fill="#9686AA"/>
<path d="M1100.49 790.426H1142.37V835.392H1100.49V790.426Z" fill="#9686AA"/>
<path d="M1100.49 839.071H1142.37V884.036H1100.49V839.071Z" fill="#9686AA"/>
<path d="M1381.46 741.782H1423.34V786.747H1381.46V741.782Z" fill="#9686AA"/>
<path d="M1381.46 790.426H1423.34V835.392H1381.46V790.426Z" fill="#9686AA"/>
<path d="M1381.46 839.071H1423.34V884.036H1381.46V839.071Z" fill="#9686AA"/>
<path d="M1006.83 741.782H1048.71V786.747H1006.83V741.782Z" fill="#9686AA"/>
<path d="M1006.83 790.426H1048.71V835.392H1006.83V790.426Z" fill="#9686AA"/>
<path d="M1006.83 839.071H1048.71V884.036H1006.83V839.071Z" fill="#9686AA"/>
<path d="M1287.8 741.782H1329.68V786.747H1287.8V741.782Z" fill="#9686AA"/>
<path d="M1287.8 790.426H1329.68V835.392H1287.8V790.426Z" fill="#9686AA"/>
<path d="M1287.8 839.071H1329.68V884.036H1287.8V839.071Z" fill="#9686AA"/>
<path d="M1147.32 741.782H1189.2V786.747H1147.32V741.782Z" fill="#9686AA"/>
<path d="M1147.32 790.426H1189.2V835.392H1147.32V790.426Z" fill="#9686AA"/>
<path d="M1147.32 839.071H1189.2V884.036H1147.32V839.071Z" fill="#9686AA"/>
<path d="M1428.29 741.782H1470.17V786.747H1428.29V741.782Z" fill="#9686AA"/>
<path d="M1428.29 790.426H1470.17V835.392H1428.29V790.426Z" fill="#9686AA"/>
<path d="M1428.29 839.071H1470.17V884.036H1428.29V839.071Z" fill="#9686AA"/>
<path d="M1053.66 741.782H1095.54V786.747H1053.66V741.782Z" fill="#9686AA"/>
<path d="M1053.66 790.426H1095.54V835.392H1053.66V790.426Z" fill="#9686AA"/>
<path d="M1053.66 839.071H1095.54V884.036H1053.66V839.071Z" fill="#9686AA"/>
<path d="M1334.63 741.782H1376.51V786.747H1334.63V741.782Z" fill="#9686AA"/>
<path d="M1334.63 790.426H1376.51V835.392H1334.63V790.426Z" fill="#9686AA"/>
<path d="M1334.63 839.071H1376.51V884.036H1334.63V839.071Z" fill="#9686AA"/>
<path d="M1194.15 741.782H1236.03V786.747H1194.15V741.782Z" fill="#9686AA"/>
<path d="M1194.15 790.426H1236.03V835.392H1194.15V790.426Z" fill="#9686AA"/>
<path d="M1194.15 839.071H1236.03V884.036H1194.15V839.071Z" fill="#9686AA"/>
<path d="M1475.12 741.782H1517V786.747H1475.12V741.782Z" fill="#9686AA"/>
<path d="M1475.12 790.426H1517V835.392H1475.12V790.426Z" fill="#9686AA"/>
<path d="M1475.12 839.071H1517V884.036H1475.12V839.071Z" fill="#9686AA"/>
<path d="M960 888.745H1001.88V933.711H960V888.745Z" fill="#9686AA"/>
<path d="M960 937.39H1001.88V982.355H960V937.39Z" fill="#9686AA"/>
<path d="M960 986.034H1001.88V1031H960V986.034Z" fill="#9686AA"/>
<path d="M1240.97 888.745H1282.85V933.711H1240.97V888.745Z" fill="#9686AA"/>
<path d="M1240.97 937.39H1282.85V982.355H1240.97V937.39Z" fill="#9686AA"/>
<path d="M1240.97 986.034H1282.85V1031H1240.97V986.034Z" fill="#9686AA"/>
<path d="M1100.49 888.745H1142.37V933.711H1100.49V888.745Z" fill="#9686AA"/>
<path d="M1100.49 937.39H1142.37V982.355H1100.49V937.39Z" fill="#9686AA"/>
<path d="M1100.49 986.034H1142.37V1031H1100.49V986.034Z" fill="#9686AA"/>
<path d="M1381.46 888.745H1423.34V933.711H1381.46V888.745Z" fill="#9686AA"/>
<path d="M1381.46 937.39H1423.34V982.355H1381.46V937.39Z" fill="#9686AA"/>
<path d="M1381.46 986.034H1423.34V1031H1381.46V986.034Z" fill="#9686AA"/>
<path d="M1006.83 888.745H1048.71V933.711H1006.83V888.745Z" fill="#9686AA"/>
<path d="M1006.83 937.39H1048.71V982.355H1006.83V937.39Z" fill="#9686AA"/>
<path d="M1006.83 986.034H1048.71V1031H1006.83V986.034Z" fill="#9686AA"/>
<path d="M1287.8 888.745H1329.68V933.711H1287.8V888.745Z" fill="#9686AA"/>
<path d="M1287.8 937.39H1329.68V982.355H1287.8V937.39Z" fill="#9686AA"/>
<path d="M1287.8 986.034H1329.68V1031H1287.8V986.034Z" fill="#9686AA"/>
<path d="M1147.32 888.745H1189.2V933.711H1147.32V888.745Z" fill="#9686AA"/>
<path d="M1147.32 937.39H1189.2V982.355H1147.32V937.39Z" fill="#9686AA"/>
<path d="M1147.32 986.034H1189.2V1031H1147.32V986.034Z" fill="#9686AA"/>
<path d="M1428.29 888.745H1470.17V933.711H1428.29V888.745Z" fill="#9686AA"/>
<path d="M1428.29 937.39H1470.17V982.355H1428.29V937.39Z" fill="#9686AA"/>
<path d="M1428.29 986.034H1470.17V1031H1428.29V986.034Z" fill="#9686AA"/>
<path d="M1053.66 888.745H1095.54V933.711H1053.66V888.745Z" fill="#9686AA"/>
<path d="M1053.66 937.39H1095.54V982.355H1053.66V937.39Z" fill="#9686AA"/>
<path d="M1053.66 986.034H1095.54V1031H1053.66V986.034Z" fill="#9686AA"/>
<path d="M1334.63 888.745H1376.51V933.711H1334.63V888.745Z" fill="#9686AA"/>
<path d="M1334.63 937.39H1376.51V982.355H1334.63V937.39Z" fill="#9686AA"/>
<path d="M1334.63 986.034H1376.51V1031H1334.63V986.034Z" fill="#9686AA"/>
<path d="M1194.15 888.745H1236.03V933.711H1194.15V888.745Z" fill="#9686AA"/>
<path d="M1194.15 937.39H1236.03V982.355H1194.15V937.39Z" fill="#9686AA"/>
<path d="M1194.15 986.034H1236.03V1031H1194.15V986.034Z" fill="#9686AA"/>
<path d="M1475.12 888.745H1517V933.711H1475.12V888.745Z" fill="#9686AA"/>
<path d="M1475.12 937.39H1517V982.355H1475.12V937.39Z" fill="#9686AA"/>
<path d="M1475.12 986.034H1517V1031H1475.12V986.034Z" fill="#9686AA"/>
<path d="M98 1027H1511V1441H98V1027Z" fill="#001A27"/>
<rect x="-157" y="556" width="255" height="885" fill="#001A27"/>
<rect x="644" y="1083" width="286" height="346" fill="#103547"/>
<g filter="url(#filter0_d_587_3824)">
<rect x="83" y="1027" width="1433" height="41" fill="#B18865"/>
</g>
<g filter="url(#filter1_d_587_3824)">
<rect x="657.283" y="1115.89" width="251.926" height="282.492" fill="#3C3C3C"/>
</g>
<rect x="668.119" y="1165.83" width="230.255" height="191.181" fill="black"/>
<rect x="735.841" y="1133.01" width="94.811" height="21.4009" fill="black"/>
<rect x="678.954" y="1181.52" width="208.584" height="142.673" fill="#D7D4BF"/>
<path d="M748 1324.15C748 1302.48 765.566 1284.91 787.236 1284.91H810.568C821.402 1284.91 830.186 1293.7 830.186 1304.53V1304.53C830.186 1315.37 821.402 1324.15 810.568 1324.15H748V1324.15Z" fill="#80542F"/>
<rect x="807.202" y="1296.93" width="42.0215" height="7.29816" rx="3.64908" transform="rotate(-26.1495 807.202 1296.93)" fill="#F0F0CF"/>
<rect x="838.079" y="1280.45" width="8.18549" height="7.29816" rx="3.64908" transform="rotate(-52.0303 838.079 1280.45)" fill="#F0F0CF"/>
<rect x="842.025" y="1280.76" width="8.18549" height="7.29816" rx="3.64908" transform="rotate(-11.6107 842.025 1280.76)" fill="#F0F0CF"/>
<rect width="33.4883" height="18.9811" rx="9.49057" transform="matrix(0.895989 -0.444076 0.437368 0.899283 789.094 1299.78)" fill="#9A6335"/>
<rect x="758.448" y="1314.03" width="23.1731" height="9.69399" rx="4.84699" transform="rotate(-26.1495 758.448 1314.03)" fill="#9A6335"/>
<rect x="767.692" y="1294.66" width="20.5346" height="6.13752" rx="3.06876" transform="rotate(43.7164 767.692 1294.66)" fill="#9A6335"/>
<rect width="22.1433" height="25.5631" rx="11.0717" transform="matrix(0.895989 -0.444076 0.437368 0.899283 789.094 1299.78)" fill="#9A6335"/>
<rect x="678.954" y="1181.52" width="208.584" height="142.673" fill="#212121" fill-opacity="0.84"/>
<ellipse cx="783.923" cy="1377.7" rx="8.80387" ry="9.27372" fill="#D9D9D9"/>
<ellipse cx="706.043" cy="1143" rx="6.77221" ry="7.13363" fill="#D9D9D9"/>
<ellipse cx="860.45" cy="1143" rx="6.77221" ry="7.13363" fill="#D9D9D9"/>
<g filter="url(#filter2_d_587_3824)">
<rect x="956.615" y="1304.22" width="247.863" height="125.552" fill="#103547"/>
</g>
<g filter="url(#filter3_d_587_3824)">
<rect x="1218.02" y="1304.22" width="247.863" height="125.552" fill="#103547"/>
</g>
<g filter="url(#filter4_d_587_3824)">
<rect x="956.615" y="1168.68" width="247.863" height="125.552" fill="#103547"/>
</g>
<g filter="url(#filter5_d_587_3824)">
<rect x="1218.02" y="1168.68" width="247.863" height="125.552" fill="#103547"/>
</g>
<g filter="url(#filter6_d_587_3824)">
<rect x="956.615" y="1084.5" width="247.863" height="67.0561" fill="#103547"/>
</g>
<g filter="url(#filter7_d_587_3824)">
<rect x="1218.02" y="1084.5" width="247.863" height="67.0561" fill="#103547"/>
</g>
<ellipse cx="1080.55" cy="1363.43" rx="14.2216" ry="14.9806" fill="#F9B233"/>
<ellipse cx="1080.55" cy="1232.17" rx="14.2216" ry="14.9806" fill="#F9B233"/>
<ellipse cx="1080.55" cy="1118.03" rx="14.2216" ry="14.9806" fill="#F9B233"/>
<ellipse cx="1341.95" cy="1118.03" rx="14.2216" ry="14.9806" fill="#F9B233"/>
<ellipse cx="1341.95" cy="1232.17" rx="14.2216" ry="14.9806" fill="#F9B233"/>
<ellipse cx="1341.95" cy="1370.56" rx="14.2216" ry="14.9806" fill="#F9B233"/>
<g filter="url(#filter8_d_587_3824)">
<rect x="107" y="1307.72" width="247.863" height="125.552" fill="#103547"/>
</g>
<g filter="url(#filter9_d_587_3824)">
<rect x="368.407" y="1307.72" width="247.863" height="125.552" fill="#103547"/>
</g>
<g filter="url(#filter10_d_587_3824)">
<rect x="107" y="1172.18" width="247.863" height="125.552" fill="#103547"/>
</g>
<g filter="url(#filter11_d_587_3824)">
<rect x="368.407" y="1172.18" width="247.863" height="125.552" fill="#103547"/>
</g>
<g filter="url(#filter12_d_587_3824)">
<rect x="107" y="1088" width="247.863" height="67.0561" fill="#103547"/>
</g>
<g filter="url(#filter13_d_587_3824)">
<rect x="368.407" y="1088" width="247.863" height="67.0561" fill="#103547"/>
</g>
<ellipse cx="230.932" cy="1366.92" rx="14.2216" ry="14.9806" fill="#F9B233"/>
<ellipse cx="230.932" cy="1235.67" rx="14.2216" ry="14.9806" fill="#F9B233"/>
<ellipse cx="230.932" cy="1121.53" rx="14.2216" ry="14.9806" fill="#F9B233"/>
<ellipse cx="492.339" cy="1121.53" rx="14.2216" ry="14.9806" fill="#F9B233"/>
<ellipse cx="492.339" cy="1235.67" rx="14.2216" ry="14.9806" fill="#F9B233"/>
<ellipse cx="492.339" cy="1374.06" rx="14.2216" ry="14.9806" fill="#F9B233"/>
<defs>
<filter id="filter0_d_587_3824" x="79" y="1027" width="1441" height="49" filterUnits="userSpaceOnUse" color-interpolation-filters="sRGB">
<feFlood flood-opacity="0" result="BackgroundImageFix"/>
<feColorMatrix in="SourceAlpha" type="matrix" values="0 0 0 0 0 0 0 0 0 0 0 0 0 0 0 0 0 0 127 0" result="hardAlpha"/>
<feOffset dy="4"/>
<feGaussianBlur stdDeviation="2"/>
<feComposite in2="hardAlpha" operator="out"/>
<feColorMatrix type="matrix" values="0 0 0 0 0 0 0 0 0 0 0 0 0 0 0 0 0 0 0.25 0"/>
<feBlend mode="normal" in2="BackgroundImageFix" result="effect1_dropShadow_587_3824"/>
<feBlend mode="normal" in="SourceGraphic" in2="effect1_dropShadow_587_3824" result="shape"/>
</filter>
<filter id="filter1_d_587_3824" x="653.283" y="1115.89" width="259.926" height="290.492" filterUnits="userSpaceOnUse" color-interpolation-filters="sRGB">
<feFlood flood-opacity="0" result="BackgroundImageFix"/>
<feColorMatrix in="SourceAlpha" type="matrix" values="0 0 0 0 0 0 0 0 0 0 0 0 0 0 0 0 0 0 127 0" result="hardAlpha"/>
<feOffset dy="4"/>
<feGaussianBlur stdDeviation="2"/>
<feComposite in2="hardAlpha" operator="out"/>
<feColorMatrix type="matrix" values="0 0 0 0 0 0 0 0 0 0 0 0 0 0 0 0 0 0 0.25 0"/>
<feBlend mode="normal" in2="BackgroundImageFix" result="effect1_dropShadow_587_3824"/>
<feBlend mode="normal" in="SourceGraphic" in2="effect1_dropShadow_587_3824" result="shape"/>
</filter>
<filter id="filter2_d_587_3824" x="952.615" y="1304.22" width="255.863" height="133.552" filterUnits="userSpaceOnUse" color-interpolation-filters="sRGB">
<feFlood flood-opacity="0" result="BackgroundImageFix"/>
<feColorMatrix in="SourceAlpha" type="matrix" values="0 0 0 0 0 0 0 0 0 0 0 0 0 0 0 0 0 0 127 0" result="hardAlpha"/>
<feOffset dy="4"/>
<feGaussianBlur stdDeviation="2"/>
<feComposite in2="hardAlpha" operator="out"/>
<feColorMatrix type="matrix" values="0 0 0 0 0 0 0 0 0 0 0 0 0 0 0 0 0 0 0.25 0"/>
<feBlend mode="normal" in2="BackgroundImageFix" result="effect1_dropShadow_587_3824"/>
<feBlend mode="normal" in="SourceGraphic" in2="effect1_dropShadow_587_3824" result="shape"/>
</filter>
<filter id="filter3_d_587_3824" x="1214.02" y="1304.22" width="255.862" height="133.552" filterUnits="userSpaceOnUse" color-interpolation-filters="sRGB">
<feFlood flood-opacity="0" result="BackgroundImageFix"/>
<feColorMatrix in="SourceAlpha" type="matrix" values="0 0 0 0 0 0 0 0 0 0 0 0 0 0 0 0 0 0 127 0" result="hardAlpha"/>
<feOffset dy="4"/>
<feGaussianBlur stdDeviation="2"/>
<feComposite in2="hardAlpha" operator="out"/>
<feColorMatrix type="matrix" values="0 0 0 0 0 0 0 0 0 0 0 0 0 0 0 0 0 0 0.25 0"/>
<feBlend mode="normal" in2="BackgroundImageFix" result="effect1_dropShadow_587_3824"/>
<feBlend mode="normal" in="SourceGraphic" in2="effect1_dropShadow_587_3824" result="shape"/>
</filter>
<filter id="filter4_d_587_3824" x="952.615" y="1168.68" width="255.863" height="133.552" filterUnits="userSpaceOnUse" color-interpolation-filters="sRGB">
<feFlood flood-opacity="0" result="BackgroundImageFix"/>
<feColorMatrix in="SourceAlpha" type="matrix" values="0 0 0 0 0 0 0 0 0 0 0 0 0 0 0 0 0 0 127 0" result="hardAlpha"/>
<feOffset dy="4"/>
<feGaussianBlur stdDeviation="2"/>
<feComposite in2="hardAlpha" operator="out"/>
<feColorMatrix type="matrix" values="0 0 0 0 0 0 0 0 0 0 0 0 0 0 0 0 0 0 0.25 0"/>
<feBlend mode="normal" in2="BackgroundImageFix" result="effect1_dropShadow_587_3824"/>
<feBlend mode="normal" in="SourceGraphic" in2="effect1_dropShadow_587_3824" result="shape"/>
</filter>
<filter id="filter5_d_587_3824" x="1214.02" y="1168.68" width="255.862" height="133.552" filterUnits="userSpaceOnUse" color-interpolation-filters="sRGB">
<feFlood flood-opacity="0" result="BackgroundImageFix"/>
<feColorMatrix in="SourceAlpha" type="matrix" values="0 0 0 0 0 0 0 0 0 0 0 0 0 0 0 0 0 0 127 0" result="hardAlpha"/>
<feOffset dy="4"/>
<feGaussianBlur stdDeviation="2"/>
<feComposite in2="hardAlpha" operator="out"/>
<feColorMatrix type="matrix" values="0 0 0 0 0 0 0 0 0 0 0 0 0 0 0 0 0 0 0.25 0"/>
<feBlend mode="normal" in2="BackgroundImageFix" result="effect1_dropShadow_587_3824"/>
<feBlend mode="normal" in="SourceGraphic" in2="effect1_dropShadow_587_3824" result="shape"/>
</filter>
<filter id="filter6_d_587_3824" x="952.615" y="1084.5" width="255.863" height="75.0561" filterUnits="userSpaceOnUse" color-interpolation-filters="sRGB">
<feFlood flood-opacity="0" result="BackgroundImageFix"/>
<feColorMatrix in="SourceAlpha" type="matrix" values="0 0 0 0 0 0 0 0 0 0 0 0 0 0 0 0 0 0 127 0" result="hardAlpha"/>
<feOffset dy="4"/>
<feGaussianBlur stdDeviation="2"/>
<feComposite in2="hardAlpha" operator="out"/>
<feColorMatrix type="matrix" values="0 0 0 0 0 0 0 0 0 0 0 0 0 0 0 0 0 0 0.25 0"/>
<feBlend mode="normal" in2="BackgroundImageFix" result="effect1_dropShadow_587_3824"/>
<feBlend mode="normal" in="SourceGraphic" in2="effect1_dropShadow_587_3824" result="shape"/>
</filter>
<filter id="filter7_d_587_3824" x="1214.02" y="1084.5" width="255.862" height="75.0561" filterUnits="userSpaceOnUse" color-interpolation-filters="sRGB">
<feFlood flood-opacity="0" result="BackgroundImageFix"/>
<feColorMatrix in="SourceAlpha" type="matrix" values="0 0 0 0 0 0 0 0 0 0 0 0 0 0 0 0 0 0 127 0" result="hardAlpha"/>
<feOffset dy="4"/>
<feGaussianBlur stdDeviation="2"/>
<feComposite in2="hardAlpha" operator="out"/>
<feColorMatrix type="matrix" values="0 0 0 0 0 0 0 0 0 0 0 0 0 0 0 0 0 0 0.25 0"/>
<feBlend mode="normal" in2="BackgroundImageFix" result="effect1_dropShadow_587_3824"/>
<feBlend mode="normal" in="SourceGraphic" in2="effect1_dropShadow_587_3824" result="shape"/>
</filter>
<filter id="filter8_d_587_3824" x="103" y="1307.72" width="255.863" height="133.552" filterUnits="userSpaceOnUse" color-interpolation-filters="sRGB">
<feFlood flood-opacity="0" result="BackgroundImageFix"/>
<feColorMatrix in="SourceAlpha" type="matrix" values="0 0 0 0 0 0 0 0 0 0 0 0 0 0 0 0 0 0 127 0" result="hardAlpha"/>
<feOffset dy="4"/>
<feGaussianBlur stdDeviation="2"/>
<feComposite in2="hardAlpha" operator="out"/>
<feColorMatrix type="matrix" values="0 0 0 0 0 0 0 0 0 0 0 0 0 0 0 0 0 0 0.25 0"/>
<feBlend mode="normal" in2="BackgroundImageFix" result="effect1_dropShadow_587_3824"/>
<feBlend mode="normal" in="SourceGraphic" in2="effect1_dropShadow_587_3824" result="shape"/>
</filter>
<filter id="filter9_d_587_3824" x="364.407" y="1307.72" width="255.863" height="133.552" filterUnits="userSpaceOnUse" color-interpolation-filters="sRGB">
<feFlood flood-opacity="0" result="BackgroundImageFix"/>
<feColorMatrix in="SourceAlpha" type="matrix" values="0 0 0 0 0 0 0 0 0 0 0 0 0 0 0 0 0 0 127 0" result="hardAlpha"/>
<feOffset dy="4"/>
<feGaussianBlur stdDeviation="2"/>
<feComposite in2="hardAlpha" operator="out"/>
<feColorMatrix type="matrix" values="0 0 0 0 0 0 0 0 0 0 0 0 0 0 0 0 0 0 0.25 0"/>
<feBlend mode="normal" in2="BackgroundImageFix" result="effect1_dropShadow_587_3824"/>
<feBlend mode="normal" in="SourceGraphic" in2="effect1_dropShadow_587_3824" result="shape"/>
</filter>
<filter id="filter10_d_587_3824" x="103" y="1172.18" width="255.863" height="133.552" filterUnits="userSpaceOnUse" color-interpolation-filters="sRGB">
<feFlood flood-opacity="0" result="BackgroundImageFix"/>
<feColorMatrix in="SourceAlpha" type="matrix" values="0 0 0 0 0 0 0 0 0 0 0 0 0 0 0 0 0 0 127 0" result="hardAlpha"/>
<feOffset dy="4"/>
<feGaussianBlur stdDeviation="2"/>
<feComposite in2="hardAlpha" operator="out"/>
<feColorMatrix type="matrix" values="0 0 0 0 0 0 0 0 0 0 0 0 0 0 0 0 0 0 0.25 0"/>
<feBlend mode="normal" in2="BackgroundImageFix" result="effect1_dropShadow_587_3824"/>
<feBlend mode="normal" in="SourceGraphic" in2="effect1_dropShadow_587_3824" result="shape"/>
</filter>
<filter id="filter11_d_587_3824" x="364.407" y="1172.18" width="255.863" height="133.552" filterUnits="userSpaceOnUse" color-interpolation-filters="sRGB">
<feFlood flood-opacity="0" result="BackgroundImageFix"/>
<feColorMatrix in="SourceAlpha" type="matrix" values="0 0 0 0 0 0 0 0 0 0 0 0 0 0 0 0 0 0 127 0" result="hardAlpha"/>
<feOffset dy="4"/>
<feGaussianBlur stdDeviation="2"/>
<feComposite in2="hardAlpha" operator="out"/>
<feColorMatrix type="matrix" values="0 0 0 0 0 0 0 0 0 0 0 0 0 0 0 0 0 0 0.25 0"/>
<feBlend mode="normal" in2="BackgroundImageFix" result="effect1_dropShadow_587_3824"/>
<feBlend mode="normal" in="SourceGraphic" in2="effect1_dropShadow_587_3824" result="shape"/>
</filter>
<filter id="filter12_d_587_3824" x="103" y="1088" width="255.863" height="75.0561" filterUnits="userSpaceOnUse" color-interpolation-filters="sRGB">
<feFlood flood-opacity="0" result="BackgroundImageFix"/>
<feColorMatrix in="SourceAlpha" type="matrix" values="0 0 0 0 0 0 0 0 0 0 0 0 0 0 0 0 0 0 127 0" result="hardAlpha"/>
<feOffset dy="4"/>
<feGaussianBlur stdDeviation="2"/>
<feComposite in2="hardAlpha" operator="out"/>
<feColorMatrix type="matrix" values="0 0 0 0 0 0 0 0 0 0 0 0 0 0 0 0 0 0 0.25 0"/>
<feBlend mode="normal" in2="BackgroundImageFix" result="effect1_dropShadow_587_3824"/>
<feBlend mode="normal" in="SourceGraphic" in2="effect1_dropShadow_587_3824" result="shape"/>
</filter>
<filter id="filter13_d_587_3824" x="364.407" y="1088" width="255.863" height="75.0561" filterUnits="userSpaceOnUse" color-interpolation-filters="sRGB">
<feFlood flood-opacity="0" result="BackgroundImageFix"/>
<feColorMatrix in="SourceAlpha" type="matrix" values="0 0 0 0 0 0 0 0 0 0 0 0 0 0 0 0 0 0 127 0" result="hardAlpha"/>
<feOffset dy="4"/>
<feGaussianBlur stdDeviation="2"/>
<feComposite in2="hardAlpha" operator="out"/>
<feColorMatrix type="matrix" values="0 0 0 0 0 0 0 0 0 0 0 0 0 0 0 0 0 0 0.25 0"/>
<feBlend mode="normal" in2="BackgroundImageFix" result="effect1_dropShadow_587_3824"/>
<feBlend mode="normal" in="SourceGraphic" in2="effect1_dropShadow_587_3824" result="shape"/>
</filter>
</defs>
</svg>
