<svg width="596" height="328" viewBox="0 0 596 328" fill="none" xmlns="http://www.w3.org/2000/svg">
<g filter="url(#filter0_d_747_3353)">
<rect x="15.5" y="69.5" width="565" height="239" stroke="#DFC392" stroke-width="23" shape-rendering="crispEdges"/>
</g>
<path d="M65.76 128.4C58.4 128.4 53.64 124.52 53.64 117.8V101.68H60.2V117.56C60.2 121.16 62.64 122.96 66.12 122.96C69.6 122.96 72.04 121.16 72.04 117.56V101.68H77.84V117.8C77.84 124.52 73.12 128.4 65.76 128.4ZM89.9009 128.32C84.1809 128.32 80.6209 124.16 80.6209 117.96C80.6209 111.92 84.3809 107.92 90.1409 107.92C93.3409 107.92 95.4209 109.12 96.3009 111.16H96.3409V100.28H102.421V128H96.3409C96.3809 127.6 96.4609 125.88 96.5809 123.76H96.5009C95.7409 126.56 93.5009 128.32 89.9009 128.32ZM91.3009 123.68C94.3409 123.68 96.3409 121.52 96.3409 118.28V117.32C96.3409 114.48 94.3409 112.56 91.3809 112.56C88.5409 112.56 86.6609 114.72 86.6609 118C86.6609 121.36 88.5009 123.68 91.3009 123.68ZM112.991 128L104.711 108.24H111.791L116.871 122.44H116.951L122.151 108.24H128.391L120.231 128H112.991ZM130.75 106.16V101.32H136.83V106.16H130.75ZM130.75 128V108.24H136.83V128H130.75ZM140.123 128V100.28H146.203V117.76H146.243L154.683 108.24H162.083L153.763 116.84L162.563 128H154.563L149.403 120.72L146.203 123.96V128H140.123ZM164.733 128V100.28H170.813V128H164.733ZM174.11 106.16V101.32H180.19V106.16H174.11ZM174.11 128V108.24H180.19V128H174.11ZM183.403 128V108.24H189.483L189.243 113.48H189.323C190.323 109.72 192.643 107.92 197.123 107.92C201.883 107.92 204.963 110.52 204.963 115.64V128H198.883V117C198.883 114.2 197.283 112.96 194.603 112.96C191.403 112.96 189.483 114.84 189.483 118.6V128H183.403ZM222.137 124.4C226.617 124.4 229.257 126.36 229.257 129.64C229.257 134.16 225.217 136.56 218.377 136.56C211.417 136.56 207.297 134.64 207.297 131.36C207.297 129.28 208.657 128 210.857 127.76V127.72C209.657 126.96 209.017 125.88 209.017 124.48C209.017 122.6 209.977 121.44 211.457 120.76V120.72C209.377 119.52 208.217 117.56 208.217 115C208.217 110.56 211.657 107.92 217.457 107.92C219.777 107.92 221.697 108.32 223.177 109.12L223.217 109.04C222.417 108.32 222.057 107.52 222.057 106.8C222.057 105.16 223.697 104.2 226.217 104.2C227.297 104.2 227.857 104.28 228.417 104.4V108.24C228.057 108.16 227.657 108.12 227.217 108.12C225.937 108.12 225.337 108.68 225.337 109.6C225.337 110.08 225.497 110.68 225.777 111.4C226.417 112.4 226.737 113.6 226.737 115C226.737 119.44 223.297 122.04 217.457 122.04C216.257 122.04 215.177 121.92 214.177 121.72C214.017 121.96 213.817 122.44 213.817 123C213.817 123.88 214.537 124.4 215.737 124.4H222.137ZM217.457 111.76C215.257 111.76 213.937 112.96 213.937 115C213.937 117 215.257 118.2 217.457 118.2C219.697 118.2 221.017 117 221.017 115C221.017 112.96 219.697 111.76 217.457 111.76ZM218.297 132.88C221.377 132.88 223.177 132.04 223.177 130.48C223.177 129.4 222.377 128.8 220.617 128.8H215.937C214.297 128.8 213.337 129.48 213.337 130.6C213.337 132.08 215.177 132.88 218.297 132.88ZM240.462 128.32C233.502 128.32 230.582 125.36 230.582 121.36H236.022C236.022 123.2 236.942 124.4 240.422 124.4C243.582 124.4 244.702 123.48 244.702 122.04C244.702 121.32 244.342 120.76 243.302 120.52C242.262 120.28 240.662 120.12 238.702 119.96C235.862 119.72 233.662 119.28 232.462 118.44C231.342 117.64 230.582 116.2 230.582 114.56C230.582 110.28 234.982 107.92 240.462 107.92C246.942 107.92 249.902 110.4 249.902 115H244.542C244.502 112.92 243.542 111.84 240.542 111.84C237.822 111.84 236.622 112.76 236.622 114.12C236.622 114.96 236.942 115.6 238.062 115.88C239.062 116.12 240.822 116.28 242.942 116.48C245.382 116.72 247.102 116.96 248.582 117.8C249.862 118.52 250.782 120 250.782 121.72C250.782 125.88 247.222 128.32 240.462 128.32ZM253.561 128V100.28H259.641V117.76H259.681L268.121 108.24H275.521L267.201 116.84L276.001 128H268.001L262.841 120.72L259.641 123.96V128H253.561ZM286.693 128.32C280.173 128.32 275.933 124.56 275.933 118.16C275.933 111.72 280.173 107.92 286.693 107.92C293.213 107.92 297.453 111.72 297.453 118.16C297.453 124.56 293.213 128.32 286.693 128.32ZM286.693 123.68C289.653 123.68 291.373 121.64 291.373 118.16C291.373 114.64 289.653 112.56 286.693 112.56C283.733 112.56 282.013 114.64 282.013 118.16C282.013 121.64 283.733 123.68 286.693 123.68ZM300.122 128V108.24H306.202L305.962 113.48H306.042C307.042 109.72 309.362 107.92 313.842 107.92C318.602 107.92 321.682 110.52 321.682 115.64V128H315.602V117C315.602 114.2 314.002 112.96 311.322 112.96C308.122 112.96 306.202 114.84 306.202 118.6V128H300.122ZM334.056 128.32C327.096 128.32 324.176 125.36 324.176 121.36H329.616C329.616 123.2 330.536 124.4 334.016 124.4C337.176 124.4 338.296 123.48 338.296 122.04C338.296 121.32 337.936 120.76 336.896 120.52C335.856 120.28 334.256 120.12 332.296 119.96C329.456 119.72 327.256 119.28 326.056 118.44C324.936 117.64 324.176 116.2 324.176 114.56C324.176 110.28 328.576 107.92 334.056 107.92C340.536 107.92 343.496 110.4 343.496 115H338.136C338.096 112.92 337.136 111.84 334.136 111.84C331.416 111.84 330.216 112.76 330.216 114.12C330.216 114.96 330.536 115.6 331.656 115.88C332.656 116.12 334.416 116.28 336.536 116.48C338.976 116.72 340.696 116.96 342.176 117.8C343.456 118.52 344.376 120 344.376 121.72C344.376 125.88 340.816 128.32 334.056 128.32ZM355.195 128.32C350.075 128.32 346.875 125.76 346.875 119.96V108.24H352.955V119.24C352.955 122 354.475 123.28 357.075 123.28C360.355 123.28 362.315 121.12 362.315 116.8V108.24H368.395V128H362.315C362.435 126.64 362.555 125 362.595 122.84H362.515C361.635 126.64 358.955 128.32 355.195 128.32ZM371.569 128V100.28H377.649V128H371.569ZM400.586 117.56V119.28H386.546C386.826 122.52 388.466 123.92 391.186 123.92C393.546 123.92 395.066 123.08 395.226 121.16H400.586C400.466 125.68 396.706 128.32 391.066 128.32C384.506 128.32 380.426 124.6 380.426 118.32C380.426 111.8 384.506 107.92 391.186 107.92C396.706 107.92 400.586 111.08 400.586 117.56ZM395.226 116.04V115.72C395.226 113.48 393.706 112.32 391.186 112.32C388.626 112.32 387.186 113.44 386.706 116.04H395.226ZM403.247 128V108.24H409.327L409.087 113.48H409.167C410.167 109.72 412.487 107.92 416.967 107.92C421.727 107.92 424.807 110.52 424.807 115.64V128H418.727V117C418.727 114.2 417.127 112.96 414.447 112.96C411.247 112.96 409.327 114.84 409.327 118.6V128H403.247ZM437.701 128.32C431.541 128.32 429.341 125.6 429.341 121.2V112.96H426.421V108.24H428.781C429.701 108.24 430.021 107.72 430.141 106.52L430.421 103.76H435.421V108.24H441.741V112.96H435.421V120.88C435.421 122.92 436.381 123.56 438.781 123.56C439.621 123.56 440.861 123.44 441.541 123.28V127.88C441.021 128 439.341 128.32 437.701 128.32ZM453.68 106.16V101.32H459.76V106.16H453.68ZM453.68 128V108.24H459.76V128H453.68ZM53.8 186V159.68H64.4C72.8 159.68 78 164.16 78 172.8C78 181.48 73.08 186 65.24 186H53.8ZM60.36 180.84H65.16C68.8 180.84 71.48 178.36 71.48 172.8C71.48 167.16 68.64 164.84 64.76 164.84H60.36V180.84ZM88.2675 186.32C83.6675 186.32 80.4675 184.32 80.4675 180.32C80.4675 177.08 82.7875 174.72 88.0275 174.72H94.4675V173.4C94.4675 171 93.1075 170.04 90.3075 170.04C88.0275 170.04 86.7075 171 86.7075 172.6C86.7075 172.72 86.7075 173.04 86.7475 173.44H81.1475C81.1075 173.12 81.0675 172.68 81.0675 172.28C81.0675 168.28 84.5875 165.92 90.5875 165.92C96.8675 165.92 100.548 168.72 100.548 174V186H94.4675C94.5875 185 94.7475 183.2 94.7475 182H94.7075C94.1075 184.8 91.8675 186.32 88.2675 186.32ZM89.4675 182.2C92.6275 182.2 94.4675 180.8 94.4675 178.4V178H88.5875C86.9475 178 85.9475 178.76 85.9475 179.88C85.9475 181.4 87.2675 182.2 89.4675 182.2ZM103.403 186V166.24H109.483L109.243 171.48H109.323C110.323 167.72 112.643 165.92 117.123 165.92C121.883 165.92 124.963 168.52 124.963 173.64V186H118.883V175C118.883 172.2 117.283 170.96 114.603 170.96C111.403 170.96 109.483 172.84 109.483 176.6V186H103.403ZM137.337 186.32C130.377 186.32 127.457 183.36 127.457 179.36H132.897C132.897 181.2 133.817 182.4 137.297 182.4C140.457 182.4 141.577 181.48 141.577 180.04C141.577 179.32 141.217 178.76 140.177 178.52C139.137 178.28 137.537 178.12 135.577 177.96C132.737 177.72 130.537 177.28 129.337 176.44C128.217 175.64 127.457 174.2 127.457 172.56C127.457 168.28 131.857 165.92 137.337 165.92C143.817 165.92 146.777 168.4 146.777 173H141.417C141.377 170.92 140.417 169.84 137.417 169.84C134.697 169.84 133.497 170.76 133.497 172.12C133.497 172.96 133.817 173.6 134.937 173.88C135.937 174.12 137.697 174.28 139.817 174.48C142.257 174.72 143.977 174.96 145.457 175.8C146.737 176.52 147.657 178 147.657 179.72C147.657 183.88 144.097 186.32 137.337 186.32ZM150.436 186V158.28H156.516V175.76H156.556L164.996 166.24H172.396L164.076 174.84L172.876 186H164.876L159.716 178.72L156.516 181.96V186H150.436ZM184.464 186V159.68H196.744C203.704 159.68 207.464 162.56 207.464 167.52C207.464 170.88 206.024 173 203.544 173.72V173.8C206.144 174.4 207.304 176.48 207.304 179.44V186H200.744V179.64C200.744 177.24 199.864 176.2 197.384 176.2H191.024V186H184.464ZM191.024 172.24H197.024C199.784 172.24 201.184 171 201.184 168.56C201.184 166.24 199.744 164.84 196.704 164.84H191.024V172.24ZM229.51 169.12C231.07 170.92 231.79 173.4 231.79 176.16C231.79 182 228.71 186.32 220.99 186.32C218.19 186.32 216.03 185.76 214.39 184.76L212.75 186.44L210.71 184.84L212.39 183.08C210.91 181.32 210.23 178.92 210.23 176.16C210.23 170.32 213.31 165.92 220.99 165.92C223.75 165.92 225.91 166.48 227.55 167.48L229.15 165.8L231.23 167.36L229.51 169.12ZM216.07 176.12C216.07 177.16 216.19 178.08 216.47 178.92L224.03 171.12C223.27 170.56 222.27 170.24 220.99 170.24C217.39 170.24 216.07 172.68 216.07 176.12ZM220.99 182C224.59 182 225.91 179.6 225.91 176.12C225.91 175.08 225.79 174.08 225.51 173.28L217.91 181.12C218.67 181.68 219.67 182 220.99 182ZM243.378 186.32C237.658 186.32 234.098 182.16 234.098 175.96C234.098 169.92 237.858 165.92 243.618 165.92C246.818 165.92 248.898 167.12 249.778 169.16H249.818V158.28H255.898V186H249.818C249.858 185.6 249.938 183.88 250.058 181.76H249.978C249.218 184.56 246.978 186.32 243.378 186.32ZM244.778 181.68C247.818 181.68 249.818 179.52 249.818 176.28V175.32C249.818 172.48 247.818 170.56 244.858 170.56C242.018 170.56 240.138 172.72 240.138 176C240.138 179.36 241.978 181.68 244.778 181.68ZM278.828 175.56V177.28H264.788C265.068 180.52 266.708 181.92 269.428 181.92C271.788 181.92 273.308 181.08 273.468 179.16H278.828C278.708 183.68 274.948 186.32 269.308 186.32C262.748 186.32 258.668 182.6 258.668 176.32C258.668 169.8 262.748 165.92 269.428 165.92C274.948 165.92 278.828 169.08 278.828 175.56ZM273.468 174.04V173.72C273.468 171.48 271.948 170.32 269.428 170.32C266.868 170.32 265.428 171.44 264.948 174.04H273.468ZM290.988 186V159.68H297.548V172.76H297.628L308.988 159.68H316.828L306.028 171.6L317.588 186H309.068L301.548 175.72L297.548 179.92V186H290.988ZM328.256 186.32C321.736 186.32 317.496 182.56 317.496 176.16C317.496 169.72 321.736 165.92 328.256 165.92C334.776 165.92 339.016 169.72 339.016 176.16C339.016 182.56 334.776 186.32 328.256 186.32ZM328.256 181.68C331.216 181.68 332.936 179.64 332.936 176.16C332.936 172.64 331.216 170.56 328.256 170.56C325.296 170.56 323.576 172.64 323.576 176.16C323.576 179.64 325.296 181.68 328.256 181.68ZM341.684 186V166.24H347.764L347.524 171.88H347.604C348.444 168.12 350.564 165.92 354.444 165.92C358.484 165.92 360.844 168.52 360.844 173.64C360.844 174.76 360.724 176.52 360.644 177.56H355.124C355.204 176.6 355.244 175.6 355.244 175C355.244 172.12 354.084 170.96 352.164 170.96C349.564 170.96 347.764 173.08 347.764 177.48V186H341.684ZM372.962 186.32C366.002 186.32 363.082 183.36 363.082 179.36H368.522C368.522 181.2 369.442 182.4 372.922 182.4C376.082 182.4 377.202 181.48 377.202 180.04C377.202 179.32 376.842 178.76 375.802 178.52C374.762 178.28 373.162 178.12 371.202 177.96C368.362 177.72 366.162 177.28 364.962 176.44C363.842 175.64 363.082 174.2 363.082 172.56C363.082 168.28 367.482 165.92 372.962 165.92C379.442 165.92 382.402 168.4 382.402 173H377.042C377.002 170.92 376.042 169.84 373.042 169.84C370.322 169.84 369.122 170.76 369.122 172.12C369.122 172.96 369.442 173.6 370.562 173.88C371.562 174.12 373.322 174.28 375.442 174.48C377.882 174.72 379.602 174.96 381.082 175.8C382.362 176.52 383.282 178 383.282 179.72C383.282 183.88 379.722 186.32 372.962 186.32Z" fill="black"/>
<path d="M413.44 279C413.44 275.76 413.992 274.8 418.168 272.856C422.128 271.008 422.752 270.048 422.752 267.96C422.752 266.088 421.432 264.768 419.224 264.768C416.728 264.768 415.36 266.328 415.36 268.776C415.36 269.52 415.432 270.24 415.504 270.6H413.68C413.608 270.24 413.536 269.496 413.536 268.68C413.536 265.2 415.624 262.992 419.272 262.992C422.632 262.992 424.72 265.032 424.72 267.96C424.72 270.36 423.832 272.016 419.224 274.176C415.84 275.76 415.456 276.24 415.456 277.224H425.008V279H413.44ZM433.732 279.216C429.82 279.216 427.564 276.072 427.564 271.032C427.564 266.088 429.82 262.992 433.732 262.992C437.644 262.992 439.9 266.088 439.9 271.032C439.9 276.072 437.644 279.216 433.732 279.216ZM433.732 277.44C436.444 277.44 437.932 274.992 437.932 271.032C437.932 267.168 436.444 264.768 433.732 264.768C431.02 264.768 429.532 267.168 429.532 271.032C429.532 274.992 431.02 277.44 433.732 277.44ZM442.361 279V277.224H447.689V268.776H444.065V267.312L446.273 267.264C447.737 267.24 447.905 266.88 447.929 263.04H449.657V277.224H454.073V279H442.361ZM462.821 279.216C459.221 279.216 456.845 277.512 456.845 274.92C456.845 274.704 456.869 274.464 456.893 274.344H458.741C458.717 274.56 458.717 274.704 458.717 274.824C458.717 276.408 460.349 277.44 462.821 277.44C465.197 277.44 466.733 275.808 466.733 273.624C466.733 271.56 465.197 270.264 462.773 270.264C460.997 270.264 459.485 271.08 458.957 272.352L457.085 272.16L457.709 263.208H467.741V264.984H459.365L458.909 270.888H458.957C459.461 269.544 461.021 268.68 463.205 268.68C466.637 268.68 468.701 270.624 468.701 273.624C468.701 276.888 466.421 279.216 462.821 279.216ZM470.802 272.904V271.512H476.13V272.904H470.802ZM478.432 279C478.432 275.76 478.984 274.8 483.16 272.856C487.12 271.008 487.744 270.048 487.744 267.96C487.744 266.088 486.424 264.768 484.216 264.768C481.72 264.768 480.352 266.328 480.352 268.776C480.352 269.52 480.424 270.24 480.496 270.6H478.672C478.6 270.24 478.528 269.496 478.528 268.68C478.528 265.2 480.616 262.992 484.264 262.992C487.624 262.992 489.712 265.032 489.712 267.96C489.712 270.36 488.824 272.016 484.216 274.176C480.832 275.76 480.448 276.24 480.448 277.224H490V279H478.432ZM498.725 279.216C494.813 279.216 492.557 276.072 492.557 271.032C492.557 266.088 494.813 262.992 498.725 262.992C502.637 262.992 504.893 266.088 504.893 271.032C504.893 276.072 502.637 279.216 498.725 279.216ZM498.725 277.44C501.437 277.44 502.925 274.992 502.925 271.032C502.925 267.168 501.437 264.768 498.725 264.768C496.013 264.768 494.525 267.168 494.525 271.032C494.525 274.992 496.013 277.44 498.725 277.44ZM507.353 279V277.224H512.681V268.776H509.057V267.312L511.265 267.264C512.729 267.24 512.897 266.88 512.921 263.04H514.649V277.224H519.065V279H507.353ZM527.981 279.216C523.397 279.216 521.525 276.312 521.525 271.128C521.525 266.136 523.781 262.992 527.981 262.992C531.413 262.992 533.333 264.84 533.333 267.744C533.333 268.032 533.309 268.392 533.285 268.584H531.413C531.437 268.416 531.461 268.152 531.461 267.768C531.461 265.992 530.285 264.768 527.981 264.768C524.981 264.768 523.493 267.12 523.493 271.056C523.493 271.8 523.493 272.4 523.517 272.616H523.565C523.829 270.888 525.629 269.784 528.221 269.784C531.965 269.784 533.861 271.464 533.861 274.152C533.861 277.224 531.533 279.216 527.981 279.216ZM528.005 277.488C530.357 277.488 531.893 276.168 531.893 274.176C531.893 272.424 530.573 271.368 528.029 271.368C525.437 271.368 523.781 272.712 523.781 274.32C523.973 276.144 525.605 277.488 528.005 277.488Z" fill="#07093B"/>
<line y1="-2" x2="65.9881" y2="-2" transform="matrix(0.47692 -0.878947 0.858775 0.512352 269 63)" stroke="#614718" stroke-width="4"/>
<path d="M327.877 62.0107L296.406 4.01074" stroke="#614718" stroke-width="4"/>
<ellipse cx="297.609" cy="7" rx="6.67568" ry="7" fill="#D9D9D9"/>
<defs>
<filter id="filter0_d_747_3353" x="0" y="58" width="596" height="270" filterUnits="userSpaceOnUse" color-interpolation-filters="sRGB">
<feFlood flood-opacity="0" result="BackgroundImageFix"/>
<feColorMatrix in="SourceAlpha" type="matrix" values="0 0 0 0 0 0 0 0 0 0 0 0 0 0 0 0 0 0 127 0" result="hardAlpha"/>
<feOffset dy="4"/>
<feGaussianBlur stdDeviation="2"/>
<feComposite in2="hardAlpha" operator="out"/>
<feColorMatrix type="matrix" values="0 0 0 0 0 0 0 0 0 0 0 0 0 0 0 0 0 0 0.25 0"/>
<feBlend mode="normal" in2="BackgroundImageFix" result="effect1_dropShadow_747_3353"/>
<feBlend mode="normal" in="SourceGraphic" in2="effect1_dropShadow_747_3353" result="shape"/>
</filter>
</defs>
</svg>
