<svg width="502" height="328" viewBox="0 0 502 328" fill="none" xmlns="http://www.w3.org/2000/svg">
<line y1="-2" x2="65.9881" y2="-2" transform="matrix(0.47692 -0.878947 0.858775 0.512352 209.039 63)" stroke="#614718" stroke-width="4"/>
<path d="M267.916 62.0107L236.445 4.01074" stroke="#614718" stroke-width="4"/>
<g filter="url(#filter0_d_766_5235)">
<rect x="15.5" y="69.5" width="471" height="239" stroke="#DFC392" stroke-width="23" shape-rendering="crispEdges"/>
</g>
<path d="M67.6625 127V105.944H72.9105V127H67.6625ZM75.716 127V111.192H80.58L80.388 115.384H80.452C81.252 112.376 83.108 110.936 86.692 110.936C90.5 110.936 92.964 113.016 92.964 117.112V127H88.1V118.2C88.1 115.96 86.82 114.968 84.676 114.968C82.116 114.968 80.58 116.472 80.58 119.48V127H75.716ZM103.279 127.256C98.3513 127.256 96.5913 125.08 96.5913 121.56V114.968H94.2553V111.192H96.1432C96.8793 111.192 97.1353 110.776 97.2313 109.816L97.4553 107.608H101.455V111.192H106.511V114.968H101.455V121.304C101.455 122.936 102.223 123.448 104.143 123.448C104.815 123.448 105.807 123.352 106.351 123.224V126.904C105.935 127 104.591 127.256 103.279 127.256ZM123.712 118.648V120.024H112.48C112.704 122.616 114.016 123.736 116.192 123.736C118.08 123.736 119.296 123.064 119.424 121.528H123.712C123.616 125.144 120.608 127.256 116.096 127.256C110.848 127.256 107.584 124.28 107.584 119.256C107.584 114.04 110.848 110.936 116.192 110.936C120.608 110.936 123.712 113.464 123.712 118.648ZM119.424 117.432V117.176C119.424 115.384 118.208 114.456 116.192 114.456C114.144 114.456 112.992 115.352 112.608 117.432H119.424ZM136.891 124.12C140.475 124.12 142.587 125.688 142.587 128.312C142.587 131.928 139.355 133.848 133.883 133.848C128.315 133.848 125.019 132.312 125.019 129.688C125.019 128.024 126.107 127 127.867 126.808V126.776C126.907 126.168 126.395 125.304 126.395 124.184C126.395 122.68 127.163 121.752 128.347 121.208V121.176C126.683 120.216 125.755 118.648 125.755 116.6C125.755 113.048 128.507 110.936 133.147 110.936C135.003 110.936 136.539 111.256 137.723 111.896L137.755 111.832C137.115 111.256 136.827 110.616 136.827 110.04C136.827 108.728 138.139 107.96 140.155 107.96C141.019 107.96 141.467 108.024 141.915 108.12V111.192C141.627 111.128 141.307 111.096 140.955 111.096C139.931 111.096 139.451 111.544 139.451 112.28C139.451 112.664 139.579 113.144 139.803 113.72C140.315 114.52 140.571 115.48 140.571 116.6C140.571 120.152 137.819 122.232 133.147 122.232C132.187 122.232 131.323 122.136 130.523 121.976C130.395 122.168 130.235 122.552 130.235 123C130.235 123.704 130.811 124.12 131.771 124.12H136.891ZM133.147 114.008C131.387 114.008 130.331 114.968 130.331 116.6C130.331 118.2 131.387 119.16 133.147 119.16C134.939 119.16 135.995 118.2 135.995 116.6C135.995 114.968 134.939 114.008 133.147 114.008ZM133.819 130.904C136.283 130.904 137.723 130.232 137.723 128.984C137.723 128.12 137.083 127.64 135.675 127.64H131.931C130.619 127.64 129.851 128.184 129.851 129.08C129.851 130.264 131.323 130.904 133.819 130.904ZM144.435 127V111.192H149.299L149.107 115.704H149.171C149.843 112.696 151.539 110.936 154.643 110.936C157.875 110.936 159.763 113.016 159.763 117.112C159.763 118.008 159.667 119.416 159.603 120.248H155.187C155.251 119.48 155.283 118.68 155.283 118.2C155.283 115.896 154.355 114.968 152.819 114.968C150.739 114.968 149.299 116.664 149.299 120.184V127H144.435ZM167.889 127.256C164.209 127.256 161.649 125.656 161.649 122.456C161.649 119.864 163.505 117.976 167.697 117.976H172.849V116.92C172.849 115 171.761 114.232 169.521 114.232C167.697 114.232 166.641 115 166.641 116.28C166.641 116.376 166.641 116.632 166.673 116.952H162.193C162.161 116.696 162.129 116.344 162.129 116.024C162.129 112.824 164.945 110.936 169.745 110.936C174.769 110.936 177.713 113.176 177.713 117.4V127H172.849C172.945 126.2 173.073 124.76 173.073 123.8H173.041C172.561 126.04 170.769 127.256 167.889 127.256ZM168.849 123.96C171.377 123.96 172.849 122.84 172.849 120.92V120.6H168.145C166.833 120.6 166.033 121.208 166.033 122.104C166.033 123.32 167.089 123.96 168.849 123.96ZM188.029 127.256C183.101 127.256 181.341 125.08 181.341 121.56V114.968H179.005V111.192H180.893C181.629 111.192 181.885 110.776 181.981 109.816L182.205 107.608H186.205V111.192H191.261V114.968H186.205V121.304C186.205 122.936 186.973 123.448 188.893 123.448C189.565 123.448 190.557 123.352 191.101 123.224V126.904C190.685 127 189.341 127.256 188.029 127.256ZM193.438 109.528V105.656H198.302V109.528H193.438ZM193.438 127V111.192H198.302V127H193.438ZM209.192 127.256C203.976 127.256 200.584 124.248 200.584 119.128C200.584 113.976 203.976 110.936 209.192 110.936C214.408 110.936 217.8 113.976 217.8 119.128C217.8 124.248 214.408 127.256 209.192 127.256ZM209.192 123.544C211.56 123.544 212.936 121.912 212.936 119.128C212.936 116.312 211.56 114.648 209.192 114.648C206.824 114.648 205.448 116.312 205.448 119.128C205.448 121.912 206.824 123.544 209.192 123.544ZM219.935 127V111.192H224.799L224.607 115.384H224.671C225.471 112.376 227.327 110.936 230.911 110.936C234.719 110.936 237.183 113.016 237.183 117.112V127H232.319V118.2C232.319 115.96 231.039 114.968 228.895 114.968C226.335 114.968 224.799 116.472 224.799 119.48V127H219.935ZM247.082 127.256C241.514 127.256 239.178 124.888 239.178 121.688H243.53C243.53 123.16 244.266 124.12 247.05 124.12C249.578 124.12 250.474 123.384 250.474 122.232C250.474 121.656 250.186 121.208 249.354 121.016C248.522 120.824 247.242 120.696 245.674 120.568C243.402 120.376 241.642 120.024 240.682 119.352C239.786 118.712 239.178 117.56 239.178 116.248C239.178 112.824 242.698 110.936 247.082 110.936C252.266 110.936 254.634 112.92 254.634 116.6H250.346C250.314 114.936 249.546 114.072 247.146 114.072C244.97 114.072 244.01 114.808 244.01 115.896C244.01 116.568 244.266 117.08 245.162 117.304C245.962 117.496 247.37 117.624 249.066 117.784C251.018 117.976 252.394 118.168 253.578 118.84C254.602 119.416 255.338 120.6 255.338 121.976C255.338 125.304 252.49 127.256 247.082 127.256ZM273.337 118.648V120.024H262.105C262.329 122.616 263.641 123.736 265.817 123.736C267.705 123.736 268.921 123.064 269.049 121.528H273.337C273.241 125.144 270.233 127.256 265.721 127.256C260.473 127.256 257.209 124.28 257.209 119.256C257.209 114.04 260.473 110.936 265.817 110.936C270.233 110.936 273.337 113.464 273.337 118.648ZM269.049 117.432V117.176C269.049 115.384 267.833 114.456 265.817 114.456C263.769 114.456 262.617 115.352 262.233 117.432H269.049ZM275.53 127V104.824H280.394V118.808H280.426L287.178 111.192H293.098L286.442 118.072L293.482 127H287.082L282.954 121.176L280.394 123.768V127H275.53ZM301.988 127.256C296.42 127.256 294.084 124.888 294.084 121.688H298.436C298.436 123.16 299.172 124.12 301.956 124.12C304.484 124.12 305.38 123.384 305.38 122.232C305.38 121.656 305.092 121.208 304.26 121.016C303.428 120.824 302.148 120.696 300.58 120.568C298.308 120.376 296.548 120.024 295.588 119.352C294.692 118.712 294.084 117.56 294.084 116.248C294.084 112.824 297.604 110.936 301.988 110.936C307.172 110.936 309.54 112.92 309.54 116.6H305.252C305.22 114.936 304.452 114.072 302.052 114.072C299.876 114.072 298.916 114.808 298.916 115.896C298.916 116.568 299.172 117.08 300.068 117.304C300.868 117.496 302.276 117.624 303.972 117.784C305.924 117.976 307.3 118.168 308.484 118.84C309.508 119.416 310.244 120.6 310.244 121.976C310.244 125.304 307.396 127.256 301.988 127.256ZM312.468 133.336V111.192H317.332L317.236 114.424H317.268C317.876 112.248 319.892 110.936 322.612 110.936C327.028 110.936 329.908 114.072 329.908 118.744C329.908 123.864 327.028 127.256 322.58 127.256C319.7 127.256 317.908 126.072 317.204 124.152H317.172C317.236 125.208 317.332 126.776 317.332 127.352V133.336H312.468ZM321.428 123.544C323.604 123.544 325.076 121.688 325.076 118.936C325.076 116.376 323.604 114.648 321.396 114.648C318.964 114.648 317.332 116.408 317.332 119.064V119.768C317.332 122.04 318.964 123.544 321.428 123.544ZM347.9 118.648V120.024H336.668C336.892 122.616 338.204 123.736 340.38 123.736C342.268 123.736 343.484 123.064 343.612 121.528H347.9C347.804 125.144 344.796 127.256 340.284 127.256C335.036 127.256 331.772 124.28 331.772 119.256C331.772 114.04 335.036 110.936 340.38 110.936C344.796 110.936 347.9 113.464 347.9 118.648ZM343.612 117.432V117.176C343.612 115.384 342.396 114.456 340.38 114.456C338.332 114.456 337.18 115.352 336.796 117.432H343.612ZM350.029 127V111.192H354.893L354.701 115.704H354.765C355.437 112.696 357.133 110.936 360.237 110.936C363.469 110.936 365.357 113.016 365.357 117.112C365.357 118.008 365.26 119.416 365.197 120.248H360.781C360.845 119.48 360.877 118.68 360.877 118.2C360.877 115.896 359.949 114.968 358.413 114.968C356.333 114.968 354.893 116.664 354.893 120.184V127H350.029ZM375.467 127.256C370.539 127.256 368.779 125.08 368.779 121.56V114.968H366.443V111.192H368.331C369.067 111.192 369.323 110.776 369.419 109.816L369.643 107.608H373.643V111.192H378.699V114.968H373.643V121.304C373.643 122.936 374.411 123.448 376.331 123.448C377.003 123.448 377.995 123.352 378.539 123.224V126.904C378.123 127 376.779 127.256 375.467 127.256ZM388.25 109.528V105.656H393.114V109.528H388.25ZM388.25 127V111.192H393.114V127H388.25ZM403.284 127V105.944H418.196V110.072H408.532V114.808H416.02V118.008H408.532V122.872H418.484V127H403.284ZM425.779 127V110.072H419.795V105.944H436.979V110.072H431.027V127H425.779ZM439.163 127V105.944H444.411V127H439.163ZM454.399 119.48V116.408H461.983V119.48H454.399ZM117.596 173V151.944H132.508V156.072H122.844V160.808H130.332V164.008H122.844V168.872H132.796V173H117.596ZM134.811 173V150.824H139.675V164.808H139.707L146.459 157.192H152.379L145.723 164.072L152.763 173H146.363L142.235 167.176L139.675 169.768V173H134.811ZM161.27 173.256C155.702 173.256 153.366 170.888 153.366 167.688H157.718C157.718 169.16 158.454 170.12 161.238 170.12C163.766 170.12 164.662 169.384 164.662 168.232C164.662 167.656 164.374 167.208 163.542 167.016C162.71 166.824 161.43 166.696 159.862 166.568C157.59 166.376 155.83 166.024 154.87 165.352C153.974 164.712 153.366 163.56 153.366 162.248C153.366 158.824 156.886 156.936 161.27 156.936C166.454 156.936 168.822 158.92 168.822 162.6H164.534C164.502 160.936 163.734 160.072 161.334 160.072C159.158 160.072 158.198 160.808 158.198 161.896C158.198 162.568 158.454 163.08 159.35 163.304C160.15 163.496 161.558 163.624 163.254 163.784C165.206 163.976 166.582 164.168 167.766 164.84C168.79 165.416 169.526 166.6 169.526 167.976C169.526 171.304 166.678 173.256 161.27 173.256ZM171.749 179.336V157.192H176.613L176.517 160.424H176.549C177.157 158.248 179.173 156.936 181.893 156.936C186.309 156.936 189.189 160.072 189.189 164.744C189.189 169.864 186.309 173.256 181.861 173.256C178.981 173.256 177.189 172.072 176.485 170.152H176.453C176.517 171.208 176.613 172.776 176.613 173.352V179.336H171.749ZM180.709 169.544C182.885 169.544 184.357 167.688 184.357 164.936C184.357 162.376 182.885 160.648 180.677 160.648C178.245 160.648 176.613 162.408 176.613 165.064V165.768C176.613 168.04 178.245 169.544 180.709 169.544ZM207.181 164.648V166.024H195.949C196.173 168.616 197.485 169.736 199.661 169.736C201.549 169.736 202.765 169.064 202.893 167.528H207.181C207.085 171.144 204.077 173.256 199.565 173.256C194.317 173.256 191.053 170.28 191.053 165.256C191.053 160.04 194.317 156.936 199.661 156.936C204.077 156.936 207.181 159.464 207.181 164.648ZM202.893 163.432V163.176C202.893 161.384 201.677 160.456 199.661 160.456C197.613 160.456 196.461 161.352 196.077 163.432H202.893ZM209.31 173V157.192H214.174L213.982 161.704H214.046C214.718 158.696 216.414 156.936 219.518 156.936C222.75 156.936 224.638 159.016 224.638 163.112C224.638 164.008 224.542 165.416 224.478 166.248H220.062C220.126 165.48 220.158 164.68 220.158 164.2C220.158 161.896 219.23 160.968 217.694 160.968C215.614 160.968 214.174 162.664 214.174 166.184V173H209.31ZM234.748 173.256C229.82 173.256 228.06 171.08 228.06 167.56V160.968H225.724V157.192H227.612C228.348 157.192 228.604 156.776 228.7 155.816L228.924 153.608H232.924V157.192H237.98V160.968H232.924V167.304C232.924 168.936 233.692 169.448 235.612 169.448C236.284 169.448 237.276 169.352 237.82 169.224V172.904C237.404 173 236.06 173.256 234.748 173.256ZM248.217 173.256C243.289 173.256 241.529 171.08 241.529 167.56V160.968H239.193V157.192H241.081C241.817 157.192 242.073 156.776 242.169 155.816L242.393 153.608H246.393V157.192H251.449V160.968H246.393V167.304C246.393 168.936 247.161 169.448 249.081 169.448C249.753 169.448 250.745 169.352 251.289 169.224V172.904C250.873 173 249.529 173.256 248.217 173.256ZM280.164 164.648V166.024H268.932C269.156 168.616 270.468 169.736 272.644 169.736C274.532 169.736 275.748 169.064 275.876 167.528H280.164C280.068 171.144 277.06 173.256 272.548 173.256C269.06 173.256 266.628 172.008 265.636 170.056H265.572C264.836 172.136 263.172 173.256 259.748 173.256C255.428 173.256 252.868 171.656 252.868 168.456C252.868 165.864 254.724 163.976 258.916 163.976H264.068V162.92C264.068 161 262.98 160.232 260.74 160.232C258.916 160.232 257.86 161 257.86 162.28C257.86 162.472 257.86 162.696 257.892 162.952H253.412C253.38 162.696 253.348 162.344 253.348 162.024C253.348 158.824 256.164 156.936 260.58 156.936C263.876 156.936 265.604 157.704 266.724 159.08H266.788C268.036 157.704 269.7 156.936 272.708 156.936C277.06 156.936 280.164 159.464 280.164 164.648ZM275.876 163.432V163.176C275.876 161.384 274.66 160.456 272.644 160.456C270.596 160.456 269.444 161.352 269.06 163.432H275.876ZM264.068 166.92V166.6H259.364C258.052 166.6 257.252 167.208 257.252 168.104C257.252 169.32 258.308 169.96 260.068 169.96C262.596 169.96 264.068 168.84 264.068 166.92ZM282.31 173V157.192H287.174L286.982 161.384H287.046C287.846 158.376 289.702 156.936 293.286 156.936C297.094 156.936 299.558 159.016 299.558 163.112V173H294.694V164.2C294.694 161.96 293.414 160.968 291.27 160.968C288.71 160.968 287.174 162.472 287.174 165.48V173H282.31ZM301.905 173V150.824H306.769V164.808H306.801L313.553 157.192H319.473L312.817 164.072L319.857 173H313.457L309.329 167.176L306.769 169.768V173H301.905ZM335.931 164.648V166.024H324.699C324.923 168.616 326.235 169.736 328.411 169.736C330.299 169.736 331.515 169.064 331.643 167.528H335.931C335.835 171.144 332.827 173.256 328.315 173.256C323.067 173.256 319.803 170.28 319.803 165.256C319.803 160.04 323.067 156.936 328.411 156.936C332.827 156.936 335.931 159.464 335.931 164.648ZM331.643 163.432V163.176C331.643 161.384 330.427 160.456 328.411 160.456C326.363 160.456 325.211 161.352 324.827 163.432H331.643ZM346.092 173.256C341.164 173.256 339.404 171.08 339.404 167.56V160.968H337.068V157.192H338.956C339.692 157.192 339.948 156.776 340.044 155.816L340.268 153.608H344.268V157.192H349.324V160.968H344.268V167.304C344.268 168.936 345.036 169.448 346.956 169.448C347.628 169.448 348.62 169.352 349.164 169.224V172.904C348.748 173 347.404 173.256 346.092 173.256ZM356.983 173.256C353.303 173.256 350.743 171.656 350.743 168.456C350.743 165.864 352.599 163.976 356.791 163.976H361.943V162.92C361.943 161 360.855 160.232 358.615 160.232C356.791 160.232 355.735 161 355.735 162.28C355.735 162.376 355.735 162.632 355.767 162.952H351.287C351.255 162.696 351.223 162.344 351.223 162.024C351.223 158.824 354.039 156.936 358.839 156.936C363.863 156.936 366.807 159.176 366.807 163.4V173H361.943C362.039 172.2 362.167 170.76 362.167 169.8H362.135C361.655 172.04 359.863 173.256 356.983 173.256ZM357.943 169.96C360.471 169.96 361.943 168.84 361.943 166.92V166.6H357.239C355.927 166.6 355.127 167.208 355.127 168.104C355.127 169.32 356.183 169.96 357.943 169.96ZM369.091 173V157.192H373.955L373.763 161.384H373.827C374.627 158.376 376.483 156.936 380.067 156.936C383.875 156.936 386.339 159.016 386.339 163.112V173H381.475V164.2C381.475 161.96 380.195 160.968 378.051 160.968C375.491 160.968 373.955 162.472 373.955 165.48V173H369.091ZM388.686 173V150.824H393.55V164.808H393.582L400.334 157.192H406.254L399.598 164.072L406.638 173H400.238L396.11 167.176L393.55 169.768V173H388.686ZM417.029 173V160.968H414.693V157.192H417.029V155.656C417.029 152.008 419.685 150.152 423.269 150.152C424.869 150.152 426.245 150.504 426.661 150.664V154.248C426.245 154.12 425.381 153.864 424.261 153.864C422.661 153.864 421.893 154.6 421.893 156.008V157.192H426.917V160.968H421.893V173H417.029ZM436.067 173.256C430.851 173.256 427.459 170.248 427.459 165.128C427.459 159.976 430.851 156.936 436.067 156.936C441.283 156.936 444.675 159.976 444.675 165.128C444.675 170.248 441.283 173.256 436.067 173.256ZM436.067 169.544C438.435 169.544 439.811 167.912 439.811 165.128C439.811 162.312 438.435 160.648 436.067 160.648C433.699 160.648 432.323 162.312 432.323 165.128C432.323 167.912 433.699 169.544 436.067 169.544ZM446.81 173V157.192H451.674L451.482 161.704H451.546C452.218 158.696 453.914 156.936 457.018 156.936C460.25 156.936 462.138 159.016 462.138 163.112C462.138 164.008 462.042 165.416 461.978 166.248H457.562C457.626 165.48 457.658 164.68 457.658 164.2C457.658 161.896 456.73 160.968 455.194 160.968C453.114 160.968 451.674 162.664 451.674 166.184V173H446.81ZM77.6313 219V197.944H82.8793V219H77.6313ZM85.6848 219V203.192H90.5488L90.3568 207.384H90.4208C91.2208 204.376 93.0768 202.936 96.6608 202.936C100.469 202.936 102.933 205.016 102.933 209.112V219H98.0688V210.2C98.0688 207.96 96.7888 206.968 94.6448 206.968C92.0848 206.968 90.5488 208.472 90.5488 211.48V219H85.6848ZM113.248 219.256C108.32 219.256 106.56 217.08 106.56 213.56V206.968H104.224V203.192H106.112C106.848 203.192 107.104 202.776 107.2 201.816L107.424 199.608H111.424V203.192H116.48V206.968H111.424V213.304C111.424 214.936 112.192 215.448 114.112 215.448C114.784 215.448 115.776 215.352 116.32 215.224V218.904C115.904 219 114.56 219.256 113.248 219.256ZM133.681 210.648V212.024H122.449C122.673 214.616 123.985 215.736 126.161 215.736C128.049 215.736 129.265 215.064 129.393 213.528H133.681C133.585 217.144 130.577 219.256 126.065 219.256C120.817 219.256 117.553 216.28 117.553 211.256C117.553 206.04 120.817 202.936 126.161 202.936C130.577 202.936 133.681 205.464 133.681 210.648ZM129.393 209.432V209.176C129.393 207.384 128.177 206.456 126.161 206.456C124.113 206.456 122.961 207.352 122.577 209.432H129.393ZM146.86 216.12C150.444 216.12 152.556 217.688 152.556 220.312C152.556 223.928 149.324 225.848 143.852 225.848C138.284 225.848 134.988 224.312 134.988 221.688C134.988 220.024 136.076 219 137.836 218.808V218.776C136.876 218.168 136.364 217.304 136.364 216.184C136.364 214.68 137.132 213.752 138.316 213.208V213.176C136.652 212.216 135.724 210.648 135.724 208.6C135.724 205.048 138.476 202.936 143.116 202.936C144.972 202.936 146.508 203.256 147.692 203.896L147.724 203.832C147.084 203.256 146.796 202.616 146.796 202.04C146.796 200.728 148.108 199.96 150.124 199.96C150.988 199.96 151.436 200.024 151.884 200.12V203.192C151.596 203.128 151.276 203.096 150.924 203.096C149.9 203.096 149.42 203.544 149.42 204.28C149.42 204.664 149.548 205.144 149.772 205.72C150.284 206.52 150.54 207.48 150.54 208.6C150.54 212.152 147.788 214.232 143.116 214.232C142.156 214.232 141.292 214.136 140.492 213.976C140.364 214.168 140.204 214.552 140.204 215C140.204 215.704 140.78 216.12 141.74 216.12H146.86ZM143.116 206.008C141.356 206.008 140.3 206.968 140.3 208.6C140.3 210.2 141.356 211.16 143.116 211.16C144.908 211.16 145.964 210.2 145.964 208.6C145.964 206.968 144.908 206.008 143.116 206.008ZM143.788 222.904C146.252 222.904 147.692 222.232 147.692 220.984C147.692 220.12 147.052 219.64 145.644 219.64H141.9C140.588 219.64 139.82 220.184 139.82 221.08C139.82 222.264 141.292 222.904 143.788 222.904ZM154.404 219V203.192H159.268L159.076 207.704H159.14C159.812 204.696 161.508 202.936 164.612 202.936C167.844 202.936 169.732 205.016 169.732 209.112C169.732 210.008 169.635 211.416 169.572 212.248H165.156C165.22 211.48 165.252 210.68 165.252 210.2C165.252 207.896 164.324 206.968 162.788 206.968C160.708 206.968 159.268 208.664 159.268 212.184V219H154.404ZM177.858 219.256C174.178 219.256 171.618 217.656 171.618 214.456C171.618 211.864 173.474 209.976 177.666 209.976H182.818V208.92C182.818 207 181.73 206.232 179.49 206.232C177.666 206.232 176.61 207 176.61 208.28C176.61 208.376 176.61 208.632 176.642 208.952H172.162C172.13 208.696 172.098 208.344 172.098 208.024C172.098 204.824 174.914 202.936 179.714 202.936C184.738 202.936 187.682 205.176 187.682 209.4V219H182.818C182.914 218.2 183.042 216.76 183.042 215.8H183.01C182.53 218.04 180.738 219.256 177.858 219.256ZM178.818 215.96C181.346 215.96 182.818 214.84 182.818 212.92V212.6H178.114C176.802 212.6 176.002 213.208 176.002 214.104C176.002 215.32 177.058 215.96 178.818 215.96ZM197.998 219.256C193.07 219.256 191.31 217.08 191.31 213.56V206.968H188.974V203.192H190.862C191.598 203.192 191.854 202.776 191.95 201.816L192.174 199.608H196.174V203.192H201.23V206.968H196.174V213.304C196.174 214.936 196.942 215.448 198.862 215.448C199.534 215.448 200.526 215.352 201.07 215.224V218.904C200.654 219 199.31 219.256 197.998 219.256ZM203.407 201.528V197.656H208.271V201.528H203.407ZM203.407 219V203.192H208.271V219H203.407ZM219.161 219.256C213.945 219.256 210.553 216.248 210.553 211.128C210.553 205.976 213.945 202.936 219.161 202.936C224.377 202.936 227.769 205.976 227.769 211.128C227.769 216.248 224.377 219.256 219.161 219.256ZM219.161 215.544C221.529 215.544 222.905 213.912 222.905 211.128C222.905 208.312 221.529 206.648 219.161 206.648C216.793 206.648 215.417 208.312 215.417 211.128C215.417 213.912 216.793 215.544 219.161 215.544ZM229.904 219V203.192H234.768L234.576 207.384H234.64C235.44 204.376 237.296 202.936 240.88 202.936C244.688 202.936 247.152 205.016 247.152 209.112V219H242.288V210.2C242.288 207.96 241.008 206.968 238.864 206.968C236.304 206.968 234.768 208.472 234.768 211.48V219H229.904ZM256.938 201.528V197.656H261.802V201.528H256.938ZM256.938 219V203.192H261.802V219H256.938ZM271.971 219V197.944H277.219V208.408H277.283L286.371 197.944H292.643L284.003 207.48L293.251 219H286.435L280.419 210.776L277.219 214.136V219H271.971ZM308.602 205.496C309.85 206.936 310.426 208.92 310.426 211.128C310.426 215.8 307.962 219.256 301.786 219.256C299.546 219.256 297.818 218.808 296.506 218.008L295.194 219.352L293.562 218.072L294.906 216.664C293.722 215.256 293.178 213.336 293.178 211.128C293.178 206.456 295.642 202.936 301.786 202.936C303.994 202.936 305.722 203.384 307.034 204.184L308.314 202.84L309.978 204.088L308.602 205.496ZM297.85 211.096C297.85 211.928 297.946 212.664 298.17 213.336L304.218 207.096C303.61 206.648 302.81 206.392 301.786 206.392C298.906 206.392 297.85 208.344 297.85 211.096ZM301.786 215.8C304.666 215.8 305.722 213.88 305.722 211.096C305.722 210.264 305.626 209.464 305.402 208.824L299.322 215.096C299.93 215.544 300.73 215.8 301.786 215.8ZM322.864 219.256C319.984 219.256 317.936 218.04 317.36 216.024H317.328C317.36 216.952 317.424 218.232 317.488 219H312.624V196.824H317.488V203.448C317.488 204.184 317.424 205.496 317.392 206.264H317.456C318.064 204.184 320.08 202.936 322.896 202.936C327.408 202.936 330.064 205.848 330.064 210.776C330.064 216.12 327.376 219.256 322.864 219.256ZM321.616 215.544C323.856 215.544 325.2 213.848 325.2 210.936C325.2 208.248 323.856 206.648 321.584 206.648C319.024 206.648 317.488 208.28 317.488 211V211.736C317.488 214.136 319.024 215.544 321.616 215.544ZM348.056 210.648V212.024H336.824C337.048 214.616 338.36 215.736 340.536 215.736C342.424 215.736 343.64 215.064 343.768 213.528H348.056C347.96 217.144 344.952 219.256 340.44 219.256C335.192 219.256 331.928 216.28 331.928 211.256C331.928 206.04 335.192 202.936 340.536 202.936C344.952 202.936 348.056 205.464 348.056 210.648ZM343.768 209.432V209.176C343.768 207.384 342.552 206.456 340.536 206.456C338.488 206.456 337.336 207.352 336.952 209.432H343.768ZM350.185 219V203.192H355.049L354.857 207.384H354.921C355.721 204.376 357.577 202.936 361.161 202.936C364.969 202.936 367.433 205.016 367.433 209.112V219H362.569V210.2C362.569 207.96 361.289 206.968 359.145 206.968C356.585 206.968 355.049 208.472 355.049 211.48V219H350.185ZM369.78 219V196.824H374.644V203.8C374.644 204.408 374.548 206.2 374.452 207.384H374.516C375.316 204.376 377.172 202.936 380.756 202.936C384.564 202.936 387.028 205.016 387.028 209.112V219H382.164V210.2C382.164 207.96 380.916 206.968 378.74 206.968C376.18 206.968 374.644 208.472 374.644 211.48V219H369.78ZM395.358 219.256C391.678 219.256 389.118 217.656 389.118 214.456C389.118 211.864 390.974 209.976 395.166 209.976H400.318V208.92C400.318 207 399.23 206.232 396.99 206.232C395.166 206.232 394.11 207 394.11 208.28C394.11 208.376 394.11 208.632 394.142 208.952H389.662C389.63 208.696 389.598 208.344 389.598 208.024C389.598 204.824 392.414 202.936 397.214 202.936C402.238 202.936 405.182 205.176 405.182 209.4V219H400.318C400.414 218.2 400.542 216.76 400.542 215.8H400.51C400.03 218.04 398.238 219.256 395.358 219.256ZM396.318 215.96C398.846 215.96 400.318 214.84 400.318 212.92V212.6H395.614C394.302 212.6 393.502 213.208 393.502 214.104C393.502 215.32 394.558 215.96 396.318 215.96ZM412.574 219L405.95 203.192H411.614L415.678 214.552H415.742L419.902 203.192H424.894L418.366 219H412.574ZM426.654 219V203.192H431.518L431.326 207.384H431.39C432.19 204.376 434.046 202.936 437.63 202.936C441.438 202.936 443.902 205.016 443.902 209.112V219H439.038V210.2C439.038 207.96 437.758 206.968 435.614 206.968C433.054 206.968 431.518 208.472 431.518 211.48V219H426.654ZM453.801 219.256C448.233 219.256 445.897 216.888 445.897 213.688H450.249C450.249 215.16 450.985 216.12 453.769 216.12C456.297 216.12 457.193 215.384 457.193 214.232C457.193 213.656 456.905 213.208 456.073 213.016C455.241 212.824 453.961 212.696 452.393 212.568C450.121 212.376 448.361 212.024 447.401 211.352C446.505 210.712 445.897 209.56 445.897 208.248C445.897 204.824 449.417 202.936 453.801 202.936C458.985 202.936 461.353 204.92 461.353 208.6H457.065C457.033 206.936 456.265 206.072 453.865 206.072C451.689 206.072 450.729 206.808 450.729 207.896C450.729 208.568 450.985 209.08 451.881 209.304C452.681 209.496 454.089 209.624 455.785 209.784C457.737 209.976 459.113 210.168 460.297 210.84C461.321 211.416 462.057 212.6 462.057 213.976C462.057 217.304 459.209 219.256 453.801 219.256ZM309.44 265V243.944H314.688V254.408H314.752L323.84 243.944H330.112L321.472 253.48L330.72 265H323.904L317.888 256.776L314.688 260.136V265H309.44ZM339.255 265.256C334.039 265.256 330.647 262.248 330.647 257.128C330.647 251.976 334.039 248.936 339.255 248.936C344.471 248.936 347.863 251.976 347.863 257.128C347.863 262.248 344.471 265.256 339.255 265.256ZM339.255 261.544C341.623 261.544 342.999 259.912 342.999 257.128C342.999 254.312 341.623 252.648 339.255 252.648C336.887 252.648 335.511 254.312 335.511 257.128C335.511 259.912 336.887 261.544 339.255 261.544ZM349.997 265V249.192H354.861L354.701 253.288H354.733C355.469 250.568 357.261 248.936 360.141 248.936C363.181 248.936 365.133 250.504 365.485 253.064H365.517C366.157 250.504 367.885 248.936 370.925 248.936C374.381 248.936 376.333 251.112 376.333 254.824V265H371.469V255.944C371.469 254.088 370.509 252.968 368.845 252.968C366.925 252.968 365.581 254.44 365.581 257.352V265H360.717V255.944C360.717 254.088 359.757 252.968 358.093 252.968C356.205 252.968 354.861 254.472 354.861 257.448V265H349.997ZM378.591 265V249.192H383.455L383.295 253.288H383.327C384.063 250.568 385.855 248.936 388.735 248.936C391.775 248.936 393.727 250.504 394.079 253.064H394.111C394.751 250.504 396.479 248.936 399.519 248.936C402.975 248.936 404.927 251.112 404.927 254.824V265H400.063V255.944C400.063 254.088 399.103 252.968 397.439 252.968C395.519 252.968 394.175 254.44 394.175 257.352V265H389.311V255.944C389.311 254.088 388.351 252.968 386.687 252.968C384.799 252.968 383.455 254.472 383.455 257.448V265H378.591ZM413.681 265.256C409.585 265.256 407.025 263.208 407.025 258.568V249.192H411.889V257.992C411.889 260.2 413.105 261.224 415.185 261.224C417.809 261.224 419.377 259.496 419.377 256.04V249.192H424.241V265H419.377C419.473 263.912 419.569 262.6 419.601 260.872H419.537C418.833 263.912 416.689 265.256 413.681 265.256ZM426.716 265V249.192H431.58L431.388 253.384H431.452C432.252 250.376 434.108 248.936 437.692 248.936C441.5 248.936 443.964 251.016 443.964 255.112V265H439.1V256.2C439.1 253.96 437.82 252.968 435.676 252.968C433.116 252.968 431.58 254.472 431.58 257.48V265H426.716ZM462.087 256.648V258.024H450.855C451.079 260.616 452.391 261.736 454.567 261.736C456.455 261.736 457.671 261.064 457.799 259.528H462.087C461.991 263.144 458.983 265.256 454.471 265.256C449.223 265.256 445.959 262.28 445.959 257.256C445.959 252.04 449.223 248.936 454.567 248.936C458.983 248.936 462.087 251.464 462.087 256.648ZM457.799 255.432V255.176C457.799 253.384 456.583 252.456 454.567 252.456C452.519 252.456 451.367 253.352 450.983 255.432H457.799Z" fill="black"/>
<path d="M35.44 280C35.44 276.76 35.992 275.8 40.168 273.856C44.128 272.008 44.752 271.048 44.752 268.96C44.752 267.088 43.432 265.768 41.224 265.768C38.728 265.768 37.36 267.328 37.36 269.776C37.36 270.52 37.432 271.24 37.504 271.6H35.68C35.608 271.24 35.536 270.496 35.536 269.68C35.536 266.2 37.624 263.992 41.272 263.992C44.632 263.992 46.72 266.032 46.72 268.96C46.72 271.36 45.832 273.016 41.224 275.176C37.84 276.76 37.456 277.24 37.456 278.224H47.008V280H35.44ZM55.7324 280.216C51.8204 280.216 49.5644 277.072 49.5644 272.032C49.5644 267.088 51.8204 263.992 55.7324 263.992C59.6444 263.992 61.9004 267.088 61.9004 272.032C61.9004 277.072 59.6444 280.216 55.7324 280.216ZM55.7324 278.44C58.4444 278.44 59.9324 275.992 59.9324 272.032C59.9324 268.168 58.4444 265.768 55.7324 265.768C53.0204 265.768 51.5324 268.168 51.5324 272.032C51.5324 275.992 53.0204 278.44 55.7324 278.44ZM64.3608 280V278.224H69.6888V269.776H66.0648V268.312L68.2728 268.264C69.7368 268.24 69.9048 267.88 69.9288 264.04H71.6568V278.224H76.0728V280H64.3608ZM78.8931 280C78.8931 276.76 79.4451 275.8 83.6211 273.856C87.5811 272.008 88.2051 271.048 88.2051 268.96C88.2051 267.088 86.8851 265.768 84.6771 265.768C82.1811 265.768 80.8131 267.328 80.8131 269.776C80.8131 270.52 80.8851 271.24 80.9571 271.6H79.1331C79.0611 271.24 78.9891 270.496 78.9891 269.68C78.9891 266.2 81.0771 263.992 84.7251 263.992C88.0851 263.992 90.1731 266.032 90.1731 268.96C90.1731 271.36 89.2851 273.016 84.6771 275.176C81.2931 276.76 80.9091 277.24 80.9091 278.224H90.4611V280H78.8931ZM92.8015 273.904V272.512H98.1295V273.904H92.8015ZM100.432 280C100.432 276.76 100.984 275.8 105.16 273.856C109.12 272.008 109.744 271.048 109.744 268.96C109.744 267.088 108.424 265.768 106.216 265.768C103.72 265.768 102.352 267.328 102.352 269.776C102.352 270.52 102.424 271.24 102.496 271.6H100.672C100.6 271.24 100.528 270.496 100.528 269.68C100.528 266.2 102.616 263.992 106.264 263.992C109.624 263.992 111.712 266.032 111.712 268.96C111.712 271.36 110.824 273.016 106.216 275.176C102.832 276.76 102.448 277.24 102.448 278.224H112V280H100.432ZM120.725 280.216C116.813 280.216 114.557 277.072 114.557 272.032C114.557 267.088 116.813 263.992 120.725 263.992C124.637 263.992 126.893 267.088 126.893 272.032C126.893 277.072 124.637 280.216 120.725 280.216ZM120.725 278.44C123.437 278.44 124.925 275.992 124.925 272.032C124.925 268.168 123.437 265.768 120.725 265.768C118.013 265.768 116.525 268.168 116.525 272.032C116.525 275.992 118.013 278.44 120.725 278.44ZM129.353 280V278.224H134.681V269.776H131.057V268.312L133.265 268.264C134.729 268.24 134.897 267.88 134.921 264.04H136.649V278.224H141.065V280H129.353ZM151.973 280V276.28H143.309V274.504L151.709 264.208H153.941V274.504H156.557V276.28H153.941V280H151.973ZM145.421 274.504H151.973V266.512H151.949L145.421 274.48V274.504Z" fill="#07093B"/>
<ellipse cx="237.648" cy="7" rx="6.67568" ry="7" fill="#D9D9D9"/>
<defs>
<filter id="filter0_d_766_5235" x="0" y="58" width="502" height="270" filterUnits="userSpaceOnUse" color-interpolation-filters="sRGB">
<feFlood flood-opacity="0" result="BackgroundImageFix"/>
<feColorMatrix in="SourceAlpha" type="matrix" values="0 0 0 0 0 0 0 0 0 0 0 0 0 0 0 0 0 0 127 0" result="hardAlpha"/>
<feOffset dy="4"/>
<feGaussianBlur stdDeviation="2"/>
<feComposite in2="hardAlpha" operator="out"/>
<feColorMatrix type="matrix" values="0 0 0 0 0 0 0 0 0 0 0 0 0 0 0 0 0 0 0.25 0"/>
<feBlend mode="normal" in2="BackgroundImageFix" result="effect1_dropShadow_766_5235"/>
<feBlend mode="normal" in="SourceGraphic" in2="effect1_dropShadow_766_5235" result="shape"/>
</filter>
</defs>
</svg>
