<svg width="502" height="328" viewBox="0 0 502 328" fill="none" xmlns="http://www.w3.org/2000/svg">
<line y1="-2" x2="65.9881" y2="-2" transform="matrix(0.47692 -0.878947 0.858775 0.512352 209.039 63)" stroke="#614718" stroke-width="4"/>
<path d="M267.916 62.0107L236.445 4.01074" stroke="#614718" stroke-width="4"/>
<g filter="url(#filter0_d_747_3342)">
<rect x="15.5" y="69.5" width="471" height="239" stroke="#DFC392" stroke-width="23" shape-rendering="crispEdges"/>
</g>
<path d="M104.096 127V105.944H113.152C118.528 105.944 121.76 108.472 121.76 113.56C121.76 118.232 119.136 120.984 113.632 120.984H109.344V127H104.096ZM109.344 117.464H113.408C115.616 117.464 116.832 116.28 116.832 113.816C116.832 111.416 115.488 110.072 112.992 110.072H109.344V117.464ZM123.716 127V111.192H128.58L128.388 115.704H128.452C129.124 112.696 130.82 110.936 133.924 110.936C137.156 110.936 139.044 113.016 139.044 117.112C139.044 118.008 138.948 119.416 138.884 120.248H134.468C134.532 119.48 134.564 118.68 134.564 118.2C134.564 115.896 133.636 114.968 132.1 114.968C130.02 114.968 128.58 116.664 128.58 120.184V127H123.716ZM149.442 127.256C144.226 127.256 140.834 124.248 140.834 119.128C140.834 113.976 144.226 110.936 149.442 110.936C154.658 110.936 158.05 113.976 158.05 119.128C158.05 124.248 154.658 127.256 149.442 127.256ZM149.442 123.544C151.81 123.544 153.186 121.912 153.186 119.128C153.186 116.312 151.81 114.648 149.442 114.648C147.074 114.648 145.698 116.312 145.698 119.128C145.698 121.912 147.074 123.544 149.442 123.544ZM160.281 109.528V105.656H165.177V109.528H160.281ZM159.225 133.72C157.177 133.72 156.089 133.496 155.705 133.4V129.752C156.409 129.88 156.985 129.944 157.753 129.944C159.513 129.944 160.281 128.92 160.281 127.224V111.192H165.145V127.48C165.145 131.416 162.937 133.72 159.225 133.72ZM183.587 118.648V120.024H172.355C172.579 122.616 173.891 123.736 176.067 123.736C177.955 123.736 179.171 123.064 179.299 121.528H183.587C183.491 125.144 180.483 127.256 175.971 127.256C170.723 127.256 167.459 124.28 167.459 119.256C167.459 114.04 170.723 110.936 176.067 110.936C180.483 110.936 183.587 113.464 183.587 118.648ZM179.299 117.432V117.176C179.299 115.384 178.083 114.456 176.067 114.456C174.019 114.456 172.867 115.352 172.483 117.432H179.299ZM185.78 127V104.824H190.644V118.808H190.676L197.428 111.192H203.348L196.692 118.072L203.732 127H197.332L193.204 121.176L190.644 123.768V127H185.78ZM213.061 127.256C208.133 127.256 206.373 125.08 206.373 121.56V114.968H204.037V111.192H205.924C206.661 111.192 206.917 110.776 207.013 109.816L207.237 107.608H211.237V111.192H216.293V114.968H211.237V121.304C211.237 122.936 212.005 123.448 213.925 123.448C214.597 123.448 215.589 123.352 216.133 123.224V126.904C215.717 127 214.373 127.256 213.061 127.256ZM218.405 127V104.824H223.269V127H218.405ZM241.619 118.648V120.024H230.387C230.611 122.616 231.923 123.736 234.099 123.736C235.987 123.736 237.203 123.064 237.331 121.528H241.619C241.523 125.144 238.515 127.256 234.003 127.256C228.755 127.256 225.491 124.28 225.491 119.256C225.491 114.04 228.755 110.936 234.099 110.936C238.515 110.936 241.619 113.464 241.619 118.648ZM237.331 117.432V117.176C237.331 115.384 236.115 114.456 234.099 114.456C232.051 114.456 230.899 115.352 230.515 117.432H237.331ZM250.883 127.256C246.307 127.256 243.459 123.928 243.459 118.968C243.459 114.136 246.467 110.936 251.075 110.936C253.635 110.936 255.299 111.896 256.003 113.528H256.035V104.824H260.899V127H256.035C256.067 126.68 256.131 125.304 256.227 123.608H256.163C255.555 125.848 253.763 127.256 250.883 127.256ZM252.003 123.544C254.435 123.544 256.035 121.816 256.035 119.224V118.456C256.035 116.184 254.435 114.648 252.067 114.648C249.795 114.648 248.291 116.376 248.291 119C248.291 121.688 249.763 123.544 252.003 123.544ZM279.244 118.648V120.024H268.012C268.236 122.616 269.548 123.736 271.724 123.736C273.612 123.736 274.828 123.064 274.956 121.528H279.244C279.148 125.144 276.14 127.256 271.628 127.256C266.38 127.256 263.116 124.28 263.116 119.256C263.116 114.04 266.38 110.936 271.724 110.936C276.14 110.936 279.244 113.464 279.244 118.648ZM274.956 117.432V117.176C274.956 115.384 273.74 114.456 271.724 114.456C269.676 114.456 268.524 115.352 268.14 117.432H274.956ZM281.372 127V111.192H286.236L286.044 115.704H286.108C286.78 112.696 288.476 110.936 291.58 110.936C294.812 110.936 296.7 113.016 296.7 117.112C296.7 118.008 296.604 119.416 296.54 120.248H292.124C292.188 119.48 292.22 118.68 292.22 118.2C292.22 115.896 291.292 114.968 289.756 114.968C287.676 114.968 286.236 116.664 286.236 120.184V127H281.372ZM306.218 115.448V113.112C307.818 113.048 308.522 112.376 308.522 110.872V110.744H306.538V105.944H311.274V109.336C311.274 113.752 309.418 115.352 306.218 115.448ZM322.803 127.32C315.571 127.32 313.651 123.64 313.651 119.768H318.323C318.323 122.04 319.251 123.512 322.771 123.512C326.323 123.512 327.123 122.232 327.123 120.888C327.123 119.992 326.739 119.416 325.907 119.128C324.979 118.808 322.803 118.488 321.043 118.232C318.963 117.912 316.851 117.496 315.635 116.696C314.291 115.832 313.587 114.36 313.587 112.344C313.587 108.376 316.691 105.624 322.771 105.624C329.458 105.624 331.635 108.408 331.635 113.144H326.995C326.995 110.744 325.747 109.432 322.867 109.432C320.019 109.432 318.803 110.488 318.803 111.896C318.803 112.92 319.091 113.496 319.827 113.816C320.627 114.168 322.835 114.52 324.627 114.808C326.995 115.192 328.787 115.576 330.035 116.248C331.539 117.048 332.339 118.552 332.339 120.536C332.339 124.12 330.323 127.32 322.803 127.32ZM340.639 127.256C336.959 127.256 334.399 125.656 334.399 122.456C334.399 119.864 336.255 117.976 340.447 117.976H345.599V116.92C345.599 115 344.511 114.232 342.271 114.232C340.447 114.232 339.391 115 339.391 116.28C339.391 116.376 339.391 116.632 339.423 116.952H334.943C334.911 116.696 334.879 116.344 334.879 116.024C334.879 112.824 337.695 110.936 342.495 110.936C347.519 110.936 350.463 113.176 350.463 117.4V127H345.599C345.695 126.2 345.823 124.76 345.823 123.8H345.791C345.311 126.04 343.519 127.256 340.639 127.256ZM341.599 123.96C344.127 123.96 345.599 122.84 345.599 120.92V120.6H340.895C339.583 120.6 338.783 121.208 338.783 122.104C338.783 123.32 339.839 123.96 341.599 123.96ZM352.747 127V111.192H357.611L357.419 115.384H357.483C358.283 112.376 360.139 110.936 363.723 110.936C367.531 110.936 369.995 113.016 369.995 117.112V127H365.131V118.2C365.131 115.96 363.851 114.968 361.707 114.968C359.147 114.968 357.611 116.472 357.611 119.48V127H352.747ZM383.735 124.12C387.319 124.12 389.431 125.688 389.431 128.312C389.431 131.928 386.199 133.848 380.727 133.848C375.159 133.848 371.863 132.312 371.863 129.688C371.863 128.024 372.951 127 374.711 126.808V126.776C373.751 126.168 373.239 125.304 373.239 124.184C373.239 122.68 374.007 121.752 375.191 121.208V121.176C373.527 120.216 372.599 118.648 372.599 116.6C372.599 113.048 375.351 110.936 379.991 110.936C381.847 110.936 383.383 111.256 384.567 111.896L384.599 111.832C383.959 111.256 383.671 110.616 383.671 110.04C383.671 108.728 384.983 107.96 386.999 107.96C387.863 107.96 388.311 108.024 388.759 108.12V111.192C388.471 111.128 388.151 111.096 387.799 111.096C386.775 111.096 386.295 111.544 386.295 112.28C386.295 112.664 386.423 113.144 386.647 113.72C387.159 114.52 387.415 115.48 387.415 116.6C387.415 120.152 384.663 122.232 379.991 122.232C379.031 122.232 378.167 122.136 377.367 121.976C377.239 122.168 377.079 122.552 377.079 123C377.079 123.704 377.655 124.12 378.615 124.12H383.735ZM379.991 114.008C378.231 114.008 377.175 114.968 377.175 116.6C377.175 118.2 378.231 119.16 379.991 119.16C381.783 119.16 382.839 118.2 382.839 116.6C382.839 114.968 381.783 114.008 379.991 114.008ZM380.663 130.904C383.127 130.904 384.567 130.232 384.567 128.984C384.567 128.12 383.927 127.64 382.519 127.64H378.775C377.463 127.64 376.695 128.184 376.695 129.08C376.695 130.264 378.167 130.904 380.663 130.904ZM406.181 118.648V120.024H394.949C395.173 122.616 396.485 123.736 398.661 123.736C400.549 123.736 401.765 123.064 401.893 121.528H406.181C406.085 125.144 403.077 127.256 398.565 127.256C393.317 127.256 390.053 124.28 390.053 119.256C390.053 114.04 393.317 110.936 398.661 110.936C403.077 110.936 406.181 113.464 406.181 118.648ZM401.893 117.432V117.176C401.893 115.384 400.677 114.456 398.661 114.456C396.613 114.456 395.461 115.352 395.077 117.432H401.893ZM417.029 127V114.968H414.693V111.192H417.029V109.656C417.029 106.008 419.685 104.152 423.269 104.152C424.869 104.152 426.245 104.504 426.661 104.664V108.248C426.245 108.12 425.381 107.864 424.261 107.864C422.661 107.864 421.893 108.6 421.893 110.008V111.192H426.917V114.968H421.893V127H417.029ZM436.067 127.256C430.851 127.256 427.459 124.248 427.459 119.128C427.459 113.976 430.851 110.936 436.067 110.936C441.283 110.936 444.675 113.976 444.675 119.128C444.675 124.248 441.283 127.256 436.067 127.256ZM436.067 123.544C438.435 123.544 439.811 121.912 439.811 119.128C439.811 116.312 438.435 114.648 436.067 114.648C433.699 114.648 432.323 116.312 432.323 119.128C432.323 121.912 433.699 123.544 436.067 123.544ZM446.81 127V111.192H451.674L451.482 115.704H451.546C452.218 112.696 453.914 110.936 457.018 110.936C460.25 110.936 462.138 113.016 462.138 117.112C462.138 118.008 462.042 119.416 461.978 120.248H457.562C457.626 119.48 457.658 118.68 457.658 118.2C457.658 115.896 456.73 114.968 455.194 114.968C453.114 114.968 451.674 116.664 451.674 120.184V127H446.81ZM92.9588 173.32C85.7268 173.32 83.8068 169.64 83.8068 165.768H88.4788C88.4788 168.04 89.4068 169.512 92.9268 169.512C96.4788 169.512 97.2788 168.232 97.2788 166.888C97.2788 165.992 96.8948 165.416 96.0628 165.128C95.1348 164.808 92.9588 164.488 91.1988 164.232C89.1188 163.912 87.0068 163.496 85.7908 162.696C84.4468 161.832 83.7428 160.36 83.7428 158.344C83.7428 154.376 86.8468 151.624 92.9268 151.624C99.6147 151.624 101.791 154.408 101.791 159.144H97.1508C97.1508 156.744 95.9028 155.432 93.0228 155.432C90.1748 155.432 88.9588 156.488 88.9588 157.896C88.9588 158.92 89.2468 159.496 89.9828 159.816C90.7828 160.168 92.9908 160.52 94.7828 160.808C97.1508 161.192 98.9428 161.576 100.191 162.248C101.695 163.048 102.495 164.552 102.495 166.536C102.495 170.12 100.479 173.32 92.9588 173.32ZM104.843 155.528V151.656H109.739V155.528H104.843ZM103.787 179.72C101.739 179.72 100.651 179.496 100.267 179.4V175.752C100.971 175.88 101.547 175.944 102.315 175.944C104.075 175.944 104.843 174.92 104.843 173.224V157.192H109.707V173.48C109.707 177.416 107.499 179.72 103.787 179.72ZM139.414 164.648V166.024H128.182C128.406 168.616 129.718 169.736 131.894 169.736C133.782 169.736 134.998 169.064 135.126 167.528H139.414C139.318 171.144 136.31 173.256 131.798 173.256C128.31 173.256 125.878 172.008 124.886 170.056H124.822C124.086 172.136 122.422 173.256 118.998 173.256C114.678 173.256 112.118 171.656 112.118 168.456C112.118 165.864 113.974 163.976 118.166 163.976H123.318V162.92C123.318 161 122.23 160.232 119.99 160.232C118.166 160.232 117.11 161 117.11 162.28C117.11 162.472 117.11 162.696 117.142 162.952H112.662C112.63 162.696 112.598 162.344 112.598 162.024C112.598 158.824 115.414 156.936 119.83 156.936C123.126 156.936 124.854 157.704 125.974 159.08H126.038C127.286 157.704 128.95 156.936 131.958 156.936C136.31 156.936 139.414 159.464 139.414 164.648ZM135.126 163.432V163.176C135.126 161.384 133.91 160.456 131.894 160.456C129.846 160.456 128.694 161.352 128.31 163.432H135.126ZM123.318 166.92V166.6H118.614C117.302 166.6 116.502 167.208 116.502 168.104C116.502 169.32 117.558 169.96 119.318 169.96C121.846 169.96 123.318 168.84 123.318 166.92ZM141.624 173V150.824H146.488V173H141.624ZM164.837 164.648V166.024H153.605C153.829 168.616 155.141 169.736 157.317 169.736C159.205 169.736 160.421 169.064 160.549 167.528H164.837C164.741 171.144 161.733 173.256 157.221 173.256C151.973 173.256 148.709 170.28 148.709 165.256C148.709 160.04 151.973 156.936 157.317 156.936C161.733 156.936 164.837 159.464 164.837 164.648ZM160.549 163.432V163.176C160.549 161.384 159.333 160.456 157.317 160.456C155.269 160.456 154.117 161.352 153.733 163.432H160.549ZM166.966 173V157.192H171.83L171.638 161.384H171.702C172.502 158.376 174.358 156.936 177.942 156.936C181.75 156.936 184.214 159.016 184.214 163.112V173H179.35V164.2C179.35 161.96 178.07 160.968 175.926 160.968C173.366 160.968 171.83 162.472 171.83 165.48V173H166.966ZM185.999 161.448V159.112C187.599 159.048 188.303 158.376 188.303 156.872V156.744H186.319V151.944H191.055V155.336C191.055 159.752 189.199 161.352 185.999 161.448ZM191.726 177.704V175.368C193.326 175.304 194.03 174.632 194.03 173.128V173H192.046V168.2H196.782V171.592C196.782 176.008 194.926 177.608 191.726 177.704ZM215.082 173.256C209.514 173.256 207.178 170.888 207.178 167.688H211.53C211.53 169.16 212.266 170.12 215.05 170.12C217.578 170.12 218.474 169.384 218.474 168.232C218.474 167.656 218.186 167.208 217.354 167.016C216.522 166.824 215.242 166.696 213.674 166.568C211.402 166.376 209.642 166.024 208.682 165.352C207.786 164.712 207.178 163.56 207.178 162.248C207.178 158.824 210.698 156.936 215.082 156.936C220.266 156.936 222.634 158.92 222.634 162.6H218.346C218.314 160.936 217.546 160.072 215.146 160.072C212.97 160.072 212.01 160.808 212.01 161.896C212.01 162.568 212.266 163.08 213.162 163.304C213.962 163.496 215.37 163.624 217.066 163.784C219.018 163.976 220.394 164.168 221.578 164.84C222.602 165.416 223.338 166.6 223.338 167.976C223.338 171.304 220.49 173.256 215.082 173.256ZM231.545 173.256C227.865 173.256 225.305 171.656 225.305 168.456C225.305 165.864 227.161 163.976 231.353 163.976H236.505V162.92C236.505 161 235.417 160.232 233.177 160.232C231.353 160.232 230.297 161 230.297 162.28C230.297 162.376 230.297 162.632 230.329 162.952H225.849C225.817 162.696 225.785 162.344 225.785 162.024C225.785 158.824 228.601 156.936 233.401 156.936C238.425 156.936 241.369 159.176 241.369 163.4V173H236.505C236.601 172.2 236.729 170.76 236.729 169.8H236.697C236.217 172.04 234.425 173.256 231.545 173.256ZM232.505 169.96C235.033 169.96 236.505 168.84 236.505 166.92V166.6H231.801C230.489 166.6 229.689 167.208 229.689 168.104C229.689 169.32 230.745 169.96 232.505 169.96ZM243.654 173V157.192H248.518L248.358 161.288H248.39C249.126 158.568 250.918 156.936 253.798 156.936C256.838 156.936 258.79 158.504 259.142 161.064H259.174C259.814 158.504 261.542 156.936 264.582 156.936C268.038 156.936 269.99 159.112 269.99 162.824V173H265.126V163.944C265.126 162.088 264.166 160.968 262.502 160.968C260.582 160.968 259.238 162.44 259.238 165.352V173H254.374V163.944C254.374 162.088 253.414 160.968 251.75 160.968C249.862 160.968 248.518 162.472 248.518 165.448V173H243.654ZM278.295 173.256C274.615 173.256 272.055 171.656 272.055 168.456C272.055 165.864 273.911 163.976 278.103 163.976H283.255V162.92C283.255 161 282.167 160.232 279.927 160.232C278.103 160.232 277.047 161 277.047 162.28C277.047 162.376 277.047 162.632 277.079 162.952H272.599C272.567 162.696 272.535 162.344 272.535 162.024C272.535 158.824 275.351 156.936 280.151 156.936C285.175 156.936 288.119 159.176 288.119 163.4V173H283.255C283.351 172.2 283.479 170.76 283.479 169.8H283.447C282.967 172.04 281.175 173.256 278.295 173.256ZM279.255 169.96C281.783 169.96 283.255 168.84 283.255 166.92V166.6H278.551C277.239 166.6 276.439 167.208 276.439 168.104C276.439 169.32 277.495 169.96 279.255 169.96ZM290.404 173V157.192H295.268L295.076 161.704H295.14C295.812 158.696 297.508 156.936 300.612 156.936C303.844 156.936 305.732 159.016 305.732 163.112C305.732 164.008 305.635 165.416 305.572 166.248H301.156C301.22 165.48 301.252 164.68 301.252 164.2C301.252 161.896 300.324 160.968 298.788 160.968C296.708 160.968 295.268 162.664 295.268 166.184V173H290.404ZM318.114 173.256C315.234 173.256 313.186 172.04 312.61 170.024H312.578C312.61 170.952 312.674 172.232 312.738 173H307.874V150.824H312.738V157.448C312.738 158.184 312.674 159.496 312.642 160.264H312.706C313.314 158.184 315.33 156.936 318.146 156.936C322.658 156.936 325.314 159.848 325.314 164.776C325.314 170.12 322.626 173.256 318.114 173.256ZM316.866 169.544C319.106 169.544 320.45 167.848 320.45 164.936C320.45 162.248 319.106 160.648 316.834 160.648C314.274 160.648 312.738 162.28 312.738 165V165.736C312.738 168.136 314.274 169.544 316.866 169.544ZM343.306 164.648V166.024H332.074C332.298 168.616 333.61 169.736 335.786 169.736C337.674 169.736 338.89 169.064 339.018 167.528H343.306C343.21 171.144 340.202 173.256 335.69 173.256C330.442 173.256 327.178 170.28 327.178 165.256C327.178 160.04 330.442 156.936 335.786 156.936C340.202 156.936 343.306 159.464 343.306 164.648ZM339.018 163.432V163.176C339.018 161.384 337.802 160.456 335.786 160.456C333.738 160.456 332.586 161.352 332.202 163.432H339.018ZM345.531 155.528V151.656H350.427V155.528H345.531ZM344.475 179.72C342.427 179.72 341.339 179.496 340.955 179.4V175.752C341.659 175.88 342.235 175.944 343.003 175.944C344.763 175.944 345.531 174.92 345.531 173.224V157.192H350.395V173.48C350.395 177.416 348.187 179.72 344.475 179.72ZM360.133 173.256C355.557 173.256 352.709 169.928 352.709 164.968C352.709 160.136 355.717 156.936 360.325 156.936C362.885 156.936 364.549 157.896 365.253 159.528H365.285V150.824H370.149V173H365.285C365.317 172.68 365.381 171.304 365.477 169.608H365.413C364.805 171.848 363.013 173.256 360.133 173.256ZM361.253 169.544C363.685 169.544 365.285 167.816 365.285 165.224V164.456C365.285 162.184 363.685 160.648 361.317 160.648C359.045 160.648 357.541 162.376 357.541 165C357.541 167.688 359.013 169.544 361.253 169.544ZM388.494 164.648V166.024H377.262C377.486 168.616 378.798 169.736 380.974 169.736C382.862 169.736 384.078 169.064 384.206 167.528H388.494C388.398 171.144 385.39 173.256 380.878 173.256C375.63 173.256 372.366 170.28 372.366 165.256C372.366 160.04 375.63 156.936 380.974 156.936C385.39 156.936 388.494 159.464 388.494 164.648ZM384.206 163.432V163.176C384.206 161.384 382.99 160.456 380.974 160.456C378.926 160.456 377.774 161.352 377.39 163.432H384.206ZM397.997 173V157.192H402.861L402.701 161.288H402.733C403.469 158.568 405.261 156.936 408.141 156.936C411.181 156.936 413.133 158.504 413.485 161.064H413.517C414.157 158.504 415.885 156.936 418.925 156.936C422.381 156.936 424.333 159.112 424.333 162.824V173H419.469V163.944C419.469 162.088 418.509 160.968 416.845 160.968C414.925 160.968 413.581 162.44 413.581 165.352V173H408.717V163.944C408.717 162.088 407.757 160.968 406.093 160.968C404.205 160.968 402.861 162.472 402.861 165.448V173H397.997ZM442.431 164.648V166.024H431.199C431.423 168.616 432.735 169.736 434.911 169.736C436.799 169.736 438.015 169.064 438.143 167.528H442.431C442.335 171.144 439.327 173.256 434.815 173.256C429.567 173.256 426.303 170.28 426.303 165.256C426.303 160.04 429.567 156.936 434.911 156.936C439.327 156.936 442.431 159.464 442.431 164.648ZM438.143 163.432V163.176C438.143 161.384 436.927 160.456 434.911 160.456C432.863 160.456 431.711 161.352 431.327 163.432H438.143ZM451.696 173.256C447.12 173.256 444.272 169.928 444.272 164.968C444.272 160.136 447.28 156.936 451.888 156.936C454.448 156.936 456.112 157.896 456.816 159.528H456.848V150.824H461.712V173H456.848C456.88 172.68 456.944 171.304 457.04 169.608H456.976C456.368 171.848 454.576 173.256 451.696 173.256ZM452.816 169.544C455.248 169.544 456.848 167.816 456.848 165.224V164.456C456.848 162.184 455.248 160.648 452.88 160.648C450.608 160.648 449.104 162.376 449.104 165C449.104 167.688 450.576 169.544 452.816 169.544ZM183.128 219V197.944H192.952C198.52 197.944 201.528 200.248 201.528 204.216C201.528 206.904 200.376 208.6 198.392 209.176V209.24C200.472 209.72 201.4 211.384 201.4 213.752V219H196.152V213.912C196.152 211.992 195.448 211.16 193.464 211.16H188.376V219H183.128ZM188.376 207.992H193.176C195.384 207.992 196.504 207 196.504 205.048C196.504 203.192 195.352 202.072 192.92 202.072H188.376V207.992ZM219.165 205.496C220.413 206.936 220.989 208.92 220.989 211.128C220.989 215.8 218.525 219.256 212.349 219.256C210.109 219.256 208.381 218.808 207.069 218.008L205.757 219.352L204.125 218.072L205.469 216.664C204.285 215.256 203.741 213.336 203.741 211.128C203.741 206.456 206.205 202.936 212.349 202.936C214.557 202.936 216.285 203.384 217.597 204.184L218.877 202.84L220.541 204.088L219.165 205.496ZM208.413 211.096C208.413 211.928 208.509 212.664 208.733 213.336L214.781 207.096C214.173 206.648 213.373 206.392 212.349 206.392C209.469 206.392 208.413 208.344 208.413 211.096ZM212.349 215.8C215.229 215.8 216.285 213.88 216.285 211.096C216.285 210.264 216.189 209.464 215.965 208.824L209.885 215.096C210.493 215.544 211.293 215.8 212.349 215.8ZM230.258 219.256C225.682 219.256 222.834 215.928 222.834 210.968C222.834 206.136 225.842 202.936 230.45 202.936C233.01 202.936 234.674 203.896 235.378 205.528H235.41V196.824H240.274V219H235.41C235.442 218.68 235.506 217.304 235.602 215.608H235.538C234.93 217.848 233.138 219.256 230.258 219.256ZM231.378 215.544C233.81 215.544 235.41 213.816 235.41 211.224V210.456C235.41 208.184 233.81 206.648 231.442 206.648C229.17 206.648 227.666 208.376 227.666 211C227.666 213.688 229.138 215.544 231.378 215.544ZM258.619 210.648V212.024H247.387C247.611 214.616 248.923 215.736 251.099 215.736C252.987 215.736 254.203 215.064 254.331 213.528H258.619C258.523 217.144 255.515 219.256 251.003 219.256C245.755 219.256 242.491 216.28 242.491 211.256C242.491 206.04 245.755 202.936 251.099 202.936C255.515 202.936 258.619 205.464 258.619 210.648ZM254.331 209.432V209.176C254.331 207.384 253.115 206.456 251.099 206.456C249.051 206.456 247.899 207.352 247.515 209.432H254.331ZM268.346 219V197.944H273.594V208.408H273.658L282.746 197.944H289.018L280.378 207.48L289.626 219H282.81L276.794 210.776L273.594 214.136V219H268.346ZM298.161 219.256C292.945 219.256 289.553 216.248 289.553 211.128C289.553 205.976 292.945 202.936 298.161 202.936C303.377 202.936 306.769 205.976 306.769 211.128C306.769 216.248 303.377 219.256 298.161 219.256ZM298.161 215.544C300.529 215.544 301.905 213.912 301.905 211.128C301.905 208.312 300.529 206.648 298.161 206.648C295.793 206.648 294.417 208.312 294.417 211.128C294.417 213.912 295.793 215.544 298.161 215.544ZM308.904 219V203.192H313.768L313.576 207.704H313.64C314.312 204.696 316.008 202.936 319.112 202.936C322.344 202.936 324.232 205.016 324.232 209.112C324.232 210.008 324.135 211.416 324.072 212.248H319.656C319.72 211.48 319.752 210.68 319.752 210.2C319.752 207.896 318.824 206.968 317.288 206.968C315.208 206.968 313.768 208.664 313.768 212.184V219H308.904ZM333.926 219.256C328.358 219.256 326.022 216.888 326.022 213.688H330.374C330.374 215.16 331.11 216.12 333.894 216.12C336.422 216.12 337.318 215.384 337.318 214.232C337.318 213.656 337.03 213.208 336.198 213.016C335.366 212.824 334.086 212.696 332.518 212.568C330.246 212.376 328.486 212.024 327.526 211.352C326.63 210.712 326.022 209.56 326.022 208.248C326.022 204.824 329.542 202.936 333.926 202.936C339.11 202.936 341.478 204.92 341.478 208.6H337.19C337.158 206.936 336.39 206.072 333.99 206.072C331.814 206.072 330.854 206.808 330.854 207.896C330.854 208.568 331.11 209.08 332.006 209.304C332.806 209.496 334.214 209.624 335.91 209.784C337.862 209.976 339.238 210.168 340.422 210.84C341.446 211.416 342.182 212.6 342.182 213.976C342.182 217.304 339.334 219.256 333.926 219.256ZM367.716 219L366.276 214.712H357.86L356.42 219H351.044L359.172 197.944H365.7L373.828 219H367.716ZM358.948 211.448H365.188L362.084 202.232H362.02L358.948 211.448ZM383.051 219.256C377.483 219.256 375.147 216.888 375.147 213.688H379.499C379.499 215.16 380.235 216.12 383.019 216.12C385.547 216.12 386.443 215.384 386.443 214.232C386.443 213.656 386.155 213.208 385.323 213.016C384.491 212.824 383.211 212.696 381.643 212.568C379.371 212.376 377.611 212.024 376.651 211.352C375.755 210.712 375.147 209.56 375.147 208.248C375.147 204.824 378.667 202.936 383.051 202.936C388.235 202.936 390.603 204.92 390.603 208.6H386.315C386.283 206.936 385.515 206.072 383.115 206.072C380.939 206.072 379.979 206.808 379.979 207.896C379.979 208.568 380.235 209.08 381.131 209.304C381.931 209.496 383.339 209.624 385.035 209.784C386.987 209.976 388.363 210.168 389.547 210.84C390.571 211.416 391.307 212.6 391.307 213.976C391.307 217.304 388.459 219.256 383.051 219.256ZM397.454 225.72C395.854 225.72 394.83 225.464 394.414 225.304V221.688C394.894 221.816 395.63 221.944 396.43 221.944C398.03 221.944 398.766 221.176 399.566 219H398.51L391.95 203.192H397.518L401.582 214.072H401.646L405.326 203.192H409.998L404.27 219.384C402.67 223.928 400.718 225.72 397.454 225.72ZM411.811 219V196.824H416.675V219H411.811ZM434.88 219.256C429.664 219.256 426.272 216.248 426.272 211.128C426.272 205.976 429.664 202.936 434.88 202.936C440.096 202.936 443.488 205.976 443.488 211.128C443.488 216.248 440.096 219.256 434.88 219.256ZM434.88 215.544C437.248 215.544 438.624 213.912 438.624 211.128C438.624 208.312 437.248 206.648 434.88 206.648C432.512 206.648 431.136 208.312 431.136 211.128C431.136 213.912 432.512 215.544 434.88 215.544ZM456.672 216.12C460.256 216.12 462.368 217.688 462.368 220.312C462.368 223.928 459.136 225.848 453.664 225.848C448.096 225.848 444.8 224.312 444.8 221.688C444.8 220.024 445.888 219 447.648 218.808V218.776C446.688 218.168 446.176 217.304 446.176 216.184C446.176 214.68 446.944 213.752 448.128 213.208V213.176C446.464 212.216 445.536 210.648 445.536 208.6C445.536 205.048 448.288 202.936 452.928 202.936C454.784 202.936 456.32 203.256 457.504 203.896L457.536 203.832C456.896 203.256 456.608 202.616 456.608 202.04C456.608 200.728 457.92 199.96 459.936 199.96C460.8 199.96 461.248 200.024 461.696 200.12V203.192C461.408 203.128 461.088 203.096 460.736 203.096C459.712 203.096 459.232 203.544 459.232 204.28C459.232 204.664 459.36 205.144 459.584 205.72C460.096 206.52 460.352 207.48 460.352 208.6C460.352 212.152 457.6 214.232 452.928 214.232C451.968 214.232 451.104 214.136 450.304 213.976C450.176 214.168 450.016 214.552 450.016 215C450.016 215.704 450.592 216.12 451.552 216.12H456.672ZM452.928 206.008C451.168 206.008 450.112 206.968 450.112 208.6C450.112 210.2 451.168 211.16 452.928 211.16C454.72 211.16 455.776 210.2 455.776 208.6C455.776 206.968 454.72 206.008 452.928 206.008ZM453.6 222.904C456.064 222.904 457.504 222.232 457.504 220.984C457.504 220.12 456.864 219.64 455.456 219.64H451.712C450.4 219.64 449.632 220.184 449.632 221.08C449.632 222.264 451.104 222.904 453.6 222.904ZM163.388 265L155.388 243.944H161.372L167.004 260.328H167.068L172.572 243.944H177.948L169.916 265H163.388ZM185.38 265.256C180.164 265.256 176.772 262.248 176.772 257.128C176.772 251.976 180.164 248.936 185.38 248.936C190.596 248.936 193.988 251.976 193.988 257.128C193.988 262.248 190.596 265.256 185.38 265.256ZM185.38 261.544C187.748 261.544 189.124 259.912 189.124 257.128C189.124 254.312 187.748 252.648 185.38 252.648C183.012 252.648 181.636 254.312 181.636 257.128C181.636 259.912 183.012 261.544 185.38 261.544ZM196.186 265V242.824H201.05V256.808H201.082L207.834 249.192H213.754L207.098 256.072L214.138 265H207.738L203.61 259.176L201.05 261.768V265H196.186ZM221.108 265.256C217.428 265.256 214.868 263.656 214.868 260.456C214.868 257.864 216.724 255.976 220.916 255.976H226.068V254.92C226.068 253 224.98 252.232 222.74 252.232C220.916 252.232 219.86 253 219.86 254.28C219.86 254.376 219.86 254.632 219.892 254.952H215.412C215.38 254.696 215.348 254.344 215.348 254.024C215.348 250.824 218.164 248.936 222.964 248.936C227.988 248.936 230.932 251.176 230.932 255.4V265H226.068C226.164 264.2 226.292 262.76 226.292 261.8H226.26C225.78 264.04 223.988 265.256 221.108 265.256ZM222.068 261.96C224.596 261.96 226.068 260.84 226.068 258.92V258.6H221.364C220.052 258.6 219.252 259.208 219.252 260.104C219.252 261.32 220.308 261.96 222.068 261.96ZM233.28 265V242.824H238.144V265H233.28ZM248.27 265.256C242.702 265.256 240.366 262.888 240.366 259.688H244.718C244.718 261.16 245.454 262.12 248.238 262.12C250.766 262.12 251.662 261.384 251.662 260.232C251.662 259.656 251.374 259.208 250.542 259.016C249.71 258.824 248.43 258.696 246.862 258.568C244.59 258.376 242.83 258.024 241.87 257.352C240.974 256.712 240.366 255.56 240.366 254.248C240.366 250.824 243.886 248.936 248.27 248.936C253.454 248.936 255.822 250.92 255.822 254.6H251.534C251.502 252.936 250.734 252.072 248.334 252.072C246.158 252.072 245.198 252.808 245.198 253.896C245.198 254.568 245.454 255.08 246.35 255.304C247.15 255.496 248.558 255.624 250.254 255.784C252.206 255.976 253.582 256.168 254.766 256.84C255.79 257.416 256.526 258.6 256.526 259.976C256.526 263.304 253.678 265.256 248.27 265.256ZM274.525 256.648V258.024H263.293C263.517 260.616 264.829 261.736 267.005 261.736C268.893 261.736 270.109 261.064 270.237 259.528H274.525C274.429 263.144 271.421 265.256 266.909 265.256C261.661 265.256 258.397 262.28 258.397 257.256C258.397 252.04 261.661 248.936 267.005 248.936C271.421 248.936 274.525 251.464 274.525 256.648ZM270.237 255.432V255.176C270.237 253.384 269.021 252.456 267.005 252.456C264.957 252.456 263.805 253.352 263.421 255.432H270.237ZM276.718 265V242.824H281.582V265H276.718ZM291.707 265.256C286.139 265.256 283.803 262.888 283.803 259.688H288.155C288.155 261.16 288.891 262.12 291.675 262.12C294.203 262.12 295.099 261.384 295.099 260.232C295.099 259.656 294.811 259.208 293.979 259.016C293.147 258.824 291.867 258.696 290.299 258.568C288.027 258.376 286.267 258.024 285.307 257.352C284.411 256.712 283.803 255.56 283.803 254.248C283.803 250.824 287.323 248.936 291.707 248.936C296.891 248.936 299.259 250.92 299.259 254.6H294.971C294.939 252.936 294.171 252.072 291.771 252.072C289.595 252.072 288.635 252.808 288.635 253.896C288.635 254.568 288.891 255.08 289.787 255.304C290.587 255.496 291.995 255.624 293.691 255.784C295.643 255.976 297.019 256.168 298.203 256.84C299.227 257.416 299.963 258.6 299.963 259.976C299.963 263.304 297.115 265.256 291.707 265.256ZM302.186 265V242.824H307.05V256.808H307.082L313.834 249.192H319.754L313.098 256.072L320.138 265H313.738L309.61 259.176L307.05 261.768V265H302.186ZM327.108 265.256C323.428 265.256 320.868 263.656 320.868 260.456C320.868 257.864 322.724 255.976 326.916 255.976H332.068V254.92C332.068 253 330.98 252.232 328.74 252.232C326.916 252.232 325.86 253 325.86 254.28C325.86 254.376 325.86 254.632 325.892 254.952H321.412C321.38 254.696 321.348 254.344 321.348 254.024C321.348 250.824 324.164 248.936 328.964 248.936C333.988 248.936 336.932 251.176 336.932 255.4V265H332.068C332.164 264.2 332.292 262.76 332.292 261.8H332.26C331.78 264.04 329.988 265.256 327.108 265.256ZM328.068 261.96C330.596 261.96 332.068 260.84 332.068 258.92V258.6H327.364C326.052 258.6 325.252 259.208 325.252 260.104C325.252 261.32 326.308 261.96 328.068 261.96ZM349.52 265.256C346.64 265.256 344.592 264.04 344.016 262.024H343.984C344.016 262.952 344.08 264.232 344.144 265H339.28V242.824H344.144V249.448C344.144 250.184 344.08 251.496 344.048 252.264H344.112C344.72 250.184 346.736 248.936 349.552 248.936C354.064 248.936 356.72 251.848 356.72 256.776C356.72 262.12 354.032 265.256 349.52 265.256ZM348.272 261.544C350.512 261.544 351.856 259.848 351.856 256.936C351.856 254.248 350.512 252.648 348.24 252.648C345.68 252.648 344.144 254.28 344.144 257V257.736C344.144 260.136 345.68 261.544 348.272 261.544ZM374.712 256.648V258.024H363.48C363.704 260.616 365.016 261.736 367.192 261.736C369.08 261.736 370.296 261.064 370.424 259.528H374.712C374.616 263.144 371.608 265.256 367.096 265.256C361.848 265.256 358.584 262.28 358.584 257.256C358.584 252.04 361.848 248.936 367.192 248.936C371.608 248.936 374.712 251.464 374.712 256.648ZM370.424 255.432V255.176C370.424 253.384 369.208 252.456 367.192 252.456C365.144 252.456 363.992 253.352 363.608 255.432H370.424ZM384.873 265.256C379.945 265.256 378.185 263.08 378.185 259.56V252.968H375.849V249.192H377.737C378.473 249.192 378.729 248.776 378.825 247.816L379.049 245.608H383.049V249.192H388.105V252.968H383.049V259.304C383.049 260.936 383.817 261.448 385.737 261.448C386.409 261.448 387.401 261.352 387.945 261.224V264.904C387.529 265 386.185 265.256 384.873 265.256ZM407.737 265.32C401.721 265.32 397.273 261.384 397.273 254.76C397.273 247.752 402.009 243.624 408.473 243.624C413.785 243.624 418.041 246.472 418.041 251.272C418.041 251.752 418.009 252.264 417.977 252.52H413.401C413.433 252.168 413.433 251.848 413.433 251.624C413.433 249.128 411.161 247.752 408.665 247.752C405.081 247.752 402.617 250.376 402.617 254.792C402.617 258.984 405.209 261.48 408.473 261.48C410.841 261.48 413.208 260.04 413.208 257.64V257.32H407.769V254.344H418.201V265H414.137C414.169 264.232 414.233 262.728 414.233 261.384H414.201C413.593 263.848 411.161 265.32 407.737 265.32ZM420.655 265V242.824H425.519V265H420.655ZM434.077 265.256C430.397 265.256 427.837 263.656 427.837 260.456C427.837 257.864 429.693 255.976 433.885 255.976H439.037V254.92C439.037 253 437.949 252.232 435.709 252.232C433.885 252.232 432.829 253 432.829 254.28C432.829 254.376 432.829 254.632 432.861 254.952H428.381C428.349 254.696 428.317 254.344 428.317 254.024C428.317 250.824 431.133 248.936 435.933 248.936C440.957 248.936 443.901 251.176 443.901 255.4V265H439.037C439.133 264.2 439.261 262.76 439.261 261.8H439.229C438.749 264.04 436.957 265.256 434.077 265.256ZM435.036 261.96C437.565 261.96 439.037 260.84 439.037 258.92V258.6H434.333C433.021 258.6 432.221 259.208 432.221 260.104C432.221 261.32 433.277 261.96 435.036 261.96ZM453.801 265.256C448.233 265.256 445.897 262.888 445.897 259.688H450.249C450.249 261.16 450.985 262.12 453.769 262.12C456.297 262.12 457.193 261.384 457.193 260.232C457.193 259.656 456.905 259.208 456.073 259.016C455.241 258.824 453.961 258.696 452.393 258.568C450.121 258.376 448.361 258.024 447.401 257.352C446.505 256.712 445.897 255.56 445.897 254.248C445.897 250.824 449.417 248.936 453.801 248.936C458.985 248.936 461.353 250.92 461.353 254.6H457.065C457.033 252.936 456.265 252.072 453.865 252.072C451.689 252.072 450.729 252.808 450.729 253.896C450.729 254.568 450.985 255.08 451.881 255.304C452.681 255.496 454.089 255.624 455.785 255.784C457.737 255.976 459.113 256.168 460.297 256.84C461.321 257.416 462.057 258.6 462.057 259.976C462.057 263.304 459.209 265.256 453.801 265.256Z" fill="black"/>
<path d="M35.44 280C35.44 276.76 35.992 275.8 40.168 273.856C44.128 272.008 44.752 271.048 44.752 268.96C44.752 267.088 43.432 265.768 41.224 265.768C38.728 265.768 37.36 267.328 37.36 269.776C37.36 270.52 37.432 271.24 37.504 271.6H35.68C35.608 271.24 35.536 270.496 35.536 269.68C35.536 266.2 37.624 263.992 41.272 263.992C44.632 263.992 46.72 266.032 46.72 268.96C46.72 271.36 45.832 273.016 41.224 275.176C37.84 276.76 37.456 277.24 37.456 278.224H47.008V280H35.44ZM55.7324 280.216C51.8204 280.216 49.5644 277.072 49.5644 272.032C49.5644 267.088 51.8204 263.992 55.7324 263.992C59.6444 263.992 61.9004 267.088 61.9004 272.032C61.9004 277.072 59.6444 280.216 55.7324 280.216ZM55.7324 278.44C58.4444 278.44 59.9324 275.992 59.9324 272.032C59.9324 268.168 58.4444 265.768 55.7324 265.768C53.0204 265.768 51.5324 268.168 51.5324 272.032C51.5324 275.992 53.0204 278.44 55.7324 278.44ZM64.3608 280V278.224H69.6888V269.776H66.0648V268.312L68.2728 268.264C69.7368 268.24 69.9048 267.88 69.9288 264.04H71.6568V278.224H76.0728V280H64.3608ZM84.9891 280.216C80.4051 280.216 78.5331 277.312 78.5331 272.128C78.5331 267.136 80.7891 263.992 84.9891 263.992C88.4211 263.992 90.3411 265.84 90.3411 268.744C90.3411 269.032 90.3171 269.392 90.2931 269.584H88.4211C88.4451 269.416 88.4691 269.152 88.4691 268.768C88.4691 266.992 87.2931 265.768 84.9891 265.768C81.9891 265.768 80.5011 268.12 80.5011 272.056C80.5011 272.8 80.5011 273.4 80.5251 273.616H80.5731C80.8371 271.888 82.6371 270.784 85.2291 270.784C88.9731 270.784 90.8691 272.464 90.8691 275.152C90.8691 278.224 88.5411 280.216 84.9891 280.216ZM85.0131 278.488C87.3651 278.488 88.9011 277.168 88.9011 275.176C88.9011 273.424 87.5811 272.368 85.0371 272.368C82.4451 272.368 80.7891 273.712 80.7891 275.32C80.9811 277.144 82.6131 278.488 85.0131 278.488ZM92.8015 273.904V272.512H98.1295V273.904H92.8015ZM100.432 280C100.432 276.76 100.984 275.8 105.16 273.856C109.12 272.008 109.744 271.048 109.744 268.96C109.744 267.088 108.424 265.768 106.216 265.768C103.72 265.768 102.352 267.328 102.352 269.776C102.352 270.52 102.424 271.24 102.496 271.6H100.672C100.6 271.24 100.528 270.496 100.528 269.68C100.528 266.2 102.616 263.992 106.264 263.992C109.624 263.992 111.712 266.032 111.712 268.96C111.712 271.36 110.824 273.016 106.216 275.176C102.832 276.76 102.448 277.24 102.448 278.224H112V280H100.432ZM120.725 280.216C116.813 280.216 114.557 277.072 114.557 272.032C114.557 267.088 116.813 263.992 120.725 263.992C124.637 263.992 126.893 267.088 126.893 272.032C126.893 277.072 124.637 280.216 120.725 280.216ZM120.725 278.44C123.437 278.44 124.925 275.992 124.925 272.032C124.925 268.168 123.437 265.768 120.725 265.768C118.013 265.768 116.525 268.168 116.525 272.032C116.525 275.992 118.013 278.44 120.725 278.44ZM129.353 280V278.224H134.681V269.776H131.057V268.312L133.265 268.264C134.729 268.24 134.897 267.88 134.921 264.04H136.649V278.224H141.065V280H129.353ZM145.997 280C147.317 274.384 149.981 269.776 153.749 266.056V266.032H143.405V264.208H156.029V265.864C151.229 270.688 149.573 274.384 148.253 280H145.997Z" fill="#07093B"/>
<ellipse cx="237.648" cy="7" rx="6.67568" ry="7" fill="#D9D9D9"/>
<defs>
<filter id="filter0_d_747_3342" x="0" y="58" width="502" height="270" filterUnits="userSpaceOnUse" color-interpolation-filters="sRGB">
<feFlood flood-opacity="0" result="BackgroundImageFix"/>
<feColorMatrix in="SourceAlpha" type="matrix" values="0 0 0 0 0 0 0 0 0 0 0 0 0 0 0 0 0 0 127 0" result="hardAlpha"/>
<feOffset dy="4"/>
<feGaussianBlur stdDeviation="2"/>
<feComposite in2="hardAlpha" operator="out"/>
<feColorMatrix type="matrix" values="0 0 0 0 0 0 0 0 0 0 0 0 0 0 0 0 0 0 0.25 0"/>
<feBlend mode="normal" in2="BackgroundImageFix" result="effect1_dropShadow_747_3342"/>
<feBlend mode="normal" in="SourceGraphic" in2="effect1_dropShadow_747_3342" result="shape"/>
</filter>
</defs>
</svg>
