<svg width="502" height="328" viewBox="0 0 502 328" fill="none" xmlns="http://www.w3.org/2000/svg">
<line y1="-2" x2="65.9881" y2="-2" transform="matrix(0.47692 -0.878947 0.858775 0.512352 209.039 63)" stroke="#614718" stroke-width="4"/>
<path d="M267.916 62.0107L236.445 4.01074" stroke="#614718" stroke-width="4"/>
<g filter="url(#filter0_d_766_5230)">
<rect x="15.5" y="69.5" width="471" height="239" stroke="#DFC392" stroke-width="23" shape-rendering="crispEdges"/>
</g>
<path d="M171.073 135.4C162.033 135.4 159.633 130.8 159.633 125.96H165.473C165.473 128.8 166.633 130.64 171.033 130.64C175.473 130.64 176.473 129.04 176.473 127.36C176.473 126.24 175.993 125.52 174.953 125.16C173.793 124.76 171.073 124.36 168.873 124.04C166.273 123.64 163.633 123.12 162.113 122.12C160.433 121.04 159.553 119.2 159.553 116.68C159.553 111.72 163.433 108.28 171.033 108.28C179.393 108.28 182.113 111.76 182.113 117.68H176.313C176.313 114.68 174.753 113.04 171.153 113.04C167.593 113.04 166.073 114.36 166.073 116.12C166.073 117.4 166.433 118.12 167.353 118.52C168.353 118.96 171.113 119.4 173.353 119.76C176.313 120.24 178.553 120.72 180.113 121.56C181.993 122.56 182.993 124.44 182.993 126.92C182.993 131.4 180.473 135.4 171.073 135.4ZM195.849 135.32C189.689 135.32 187.489 132.6 187.489 128.2V119.96H184.569V115.24H186.929C187.849 115.24 188.169 114.72 188.289 113.52L188.569 110.76H193.569V115.24H199.889V119.96H193.569V127.88C193.569 129.92 194.529 130.56 196.929 130.56C197.769 130.56 199.009 130.44 199.689 130.28V134.88C199.169 135 197.489 135.32 195.849 135.32ZM202.61 113.16V108.32H208.69V113.16H202.61ZM202.61 135V115.24H208.69V135H202.61ZM213.583 135V119.96H210.663V115.24H213.583V113.32C213.583 108.76 216.903 106.44 221.383 106.44C223.383 106.44 225.103 106.88 225.623 107.08V111.56C225.103 111.4 224.023 111.08 222.623 111.08C220.623 111.08 219.663 112 219.663 113.76V115.24H225.943V119.96H219.663V135H213.583ZM238.544 135.32C232.384 135.32 230.184 132.6 230.184 128.2V119.96H227.264V115.24H229.624C230.544 115.24 230.864 114.72 230.984 113.52L231.264 110.76H236.264V115.24H242.584V119.96H236.264V127.88C236.264 129.92 237.224 130.56 239.624 130.56C240.464 130.56 241.704 130.44 242.384 130.28V134.88C241.864 135 240.184 135.32 238.544 135.32ZM264.086 124.56V126.28H250.046C250.326 129.52 251.966 130.92 254.686 130.92C257.046 130.92 258.566 130.08 258.726 128.16H264.086C263.966 132.68 260.206 135.32 254.566 135.32C248.006 135.32 243.926 131.6 243.926 125.32C243.926 118.8 248.006 114.92 254.686 114.92C260.206 114.92 264.086 118.08 264.086 124.56ZM258.726 123.04V122.72C258.726 120.48 257.206 119.32 254.686 119.32C252.126 119.32 250.686 120.44 250.206 123.04H258.726ZM266.747 135V115.24H272.827L272.587 120.88H272.667C273.507 117.12 275.627 114.92 279.507 114.92C283.547 114.92 285.907 117.52 285.907 122.64C285.907 123.76 285.787 125.52 285.707 126.56H280.187C280.267 125.6 280.307 124.6 280.307 124C280.307 121.12 279.147 119.96 277.227 119.96C274.627 119.96 272.827 122.08 272.827 126.48V135H266.747ZM305.283 135.32C300.683 135.32 297.483 133.32 297.483 129.32C297.483 126.08 299.803 123.72 305.043 123.72H311.483V122.4C311.483 120 310.123 119.04 307.323 119.04C305.043 119.04 303.723 120 303.723 121.6C303.723 121.72 303.723 122.04 303.763 122.44H298.163C298.123 122.12 298.083 121.68 298.083 121.28C298.083 117.28 301.603 114.92 307.603 114.92C313.883 114.92 317.563 117.72 317.563 123V135H311.483C311.603 134 311.763 132.2 311.763 131H311.723C311.123 133.8 308.883 135.32 305.283 135.32ZM306.483 131.2C309.643 131.2 311.483 129.8 311.483 127.4V127H305.603C303.963 127 302.963 127.76 302.963 128.88C302.963 130.4 304.283 131.2 306.483 131.2ZM322.098 135V119.96H319.178V115.24H322.098V113.32C322.098 108.76 325.418 106.44 329.898 106.44C331.898 106.44 333.618 106.88 334.138 107.08V111.56C333.618 111.4 332.538 111.08 331.138 111.08C329.138 111.08 328.178 112 328.178 113.76V115.24H334.458V119.96H328.178V135H322.098ZM346.323 135V108.68H357.923C364.123 108.68 367.803 111.24 367.803 115.56C367.803 118.48 366.403 120.56 364.043 121.2V121.24C366.883 121.88 368.803 124 368.803 127.32C368.803 132.16 365.403 135 358.763 135H346.323ZM352.883 119.6H358.363C360.723 119.6 362.043 118.56 362.043 116.6C362.043 114.64 360.723 113.44 357.883 113.44H352.883V119.6ZM352.883 130.24H358.763C361.163 130.24 362.563 128.88 362.563 126.64C362.563 124.8 361.123 123.56 358.603 123.56H352.883V130.24ZM371.473 135V115.24H377.553L377.313 120.88H377.393C378.233 117.12 380.353 114.92 384.233 114.92C388.273 114.92 390.633 117.52 390.633 122.64C390.633 123.76 390.513 125.52 390.433 126.56H384.913C384.993 125.6 385.033 124.6 385.033 124C385.033 121.12 383.873 119.96 381.953 119.96C379.353 119.96 377.553 122.08 377.553 126.48V135H371.473ZM401.351 135.32C396.231 135.32 393.031 132.76 393.031 126.96V115.24H399.111V126.24C399.111 129 400.631 130.28 403.231 130.28C406.511 130.28 408.471 128.12 408.471 123.8V115.24H414.551V135H408.471C408.591 133.64 408.711 132 408.751 129.84H408.671C407.791 133.64 405.111 135.32 401.351 135.32ZM417.645 135V115.24H423.725L423.485 120.48H423.565C424.565 116.72 426.885 114.92 431.365 114.92C436.125 114.92 439.205 117.52 439.205 122.64V135H433.125V124C433.125 121.2 431.525 119.96 428.845 119.96C425.645 119.96 423.725 121.84 423.725 125.6V135H417.645ZM461.859 124.56V126.28H447.819C448.099 129.52 449.739 130.92 452.459 130.92C454.819 130.92 456.339 130.08 456.499 128.16H461.859C461.739 132.68 457.979 135.32 452.339 135.32C445.779 135.32 441.699 131.6 441.699 125.32C441.699 118.8 445.779 114.92 452.459 114.92C457.979 114.92 461.859 118.08 461.859 124.56ZM456.499 123.04V122.72C456.499 120.48 454.979 119.32 452.459 119.32C449.899 119.32 448.459 120.44 447.979 123.04H456.499ZM260.972 193V166.68H279.172V171.84H267.532V178.28H277.172V182.68H267.532V193H260.972ZM300.258 182.56V184.28H286.218C286.498 187.52 288.138 188.92 290.858 188.92C293.218 188.92 294.738 188.08 294.898 186.16H300.258C300.138 190.68 296.378 193.32 290.738 193.32C284.178 193.32 280.098 189.6 280.098 183.32C280.098 176.8 284.178 172.92 290.858 172.92C296.378 172.92 300.258 176.08 300.258 182.56ZM294.898 181.04V180.72C294.898 178.48 293.378 177.32 290.858 177.32C288.298 177.32 286.858 178.44 286.378 181.04H294.898ZM302.918 193V173.24H308.998L308.798 178.36H308.838C309.758 174.96 311.998 172.92 315.598 172.92C319.398 172.92 321.838 174.88 322.278 178.08H322.318C323.118 174.88 325.278 172.92 329.078 172.92C333.398 172.92 335.838 175.64 335.838 180.28V193H329.758V181.68C329.758 179.36 328.558 177.96 326.478 177.96C324.078 177.96 322.398 179.8 322.398 183.44V193H316.318V181.68C316.318 179.36 315.118 177.96 313.038 177.96C310.678 177.96 308.998 179.84 308.998 183.56V193H302.918ZM338.821 171.16V166.32H344.901V171.16H338.821ZM338.821 193V173.24H344.901V193H338.821ZM348.114 193V173.24H354.194L353.954 178.48H354.034C355.034 174.72 357.354 172.92 361.834 172.92C366.594 172.92 369.674 175.52 369.674 180.64V193H363.594V182C363.594 179.2 361.994 177.96 359.314 177.96C356.114 177.96 354.194 179.84 354.194 183.6V193H348.114ZM372.688 171.16V166.32H378.768V171.16H372.688ZM372.688 193V173.24H378.768V193H372.688ZM391.501 193.32C384.541 193.32 381.621 190.36 381.621 186.36H387.061C387.061 188.2 387.981 189.4 391.461 189.4C394.621 189.4 395.741 188.48 395.741 187.04C395.741 186.32 395.381 185.76 394.341 185.52C393.301 185.28 391.701 185.12 389.741 184.96C386.901 184.72 384.701 184.28 383.501 183.44C382.381 182.64 381.621 181.2 381.621 179.56C381.621 175.28 386.021 172.92 391.501 172.92C397.981 172.92 400.941 175.4 400.941 180H395.581C395.541 177.92 394.581 176.84 391.581 176.84C388.861 176.84 387.661 177.76 387.661 179.12C387.661 179.96 387.981 180.6 389.101 180.88C390.101 181.12 391.861 181.28 393.981 181.48C396.421 181.72 398.141 181.96 399.621 182.8C400.901 183.52 401.821 185 401.821 186.72C401.821 190.88 398.261 193.32 391.501 193.32ZM414.56 193.32C408.4 193.32 406.2 190.6 406.2 186.2V177.96H403.28V173.24H405.64C406.56 173.24 406.88 172.72 407 171.52L407.28 168.76H412.28V173.24H418.6V177.96H412.28V185.88C412.28 187.92 413.24 188.56 415.64 188.56C416.48 188.56 417.72 188.44 418.4 188.28V192.88C417.88 193 416.2 193.32 414.56 193.32ZM440.101 182.56V184.28H426.061C426.341 187.52 427.981 188.92 430.701 188.92C433.061 188.92 434.581 188.08 434.741 186.16H440.101C439.981 190.68 436.221 193.32 430.581 193.32C424.021 193.32 419.941 189.6 419.941 183.32C419.941 176.8 424.021 172.92 430.701 172.92C436.221 172.92 440.101 176.08 440.101 182.56ZM434.741 181.04V180.72C434.741 178.48 433.221 177.32 430.701 177.32C428.141 177.32 426.701 178.44 426.221 181.04H434.741ZM442.762 193V173.24H448.842L448.602 178.88H448.682C449.522 175.12 451.642 172.92 455.522 172.92C459.562 172.92 461.922 175.52 461.922 180.64C461.922 181.76 461.802 183.52 461.722 184.56H456.202C456.282 183.6 456.322 182.6 456.322 182C456.322 179.12 455.162 177.96 453.242 177.96C450.642 177.96 448.842 180.08 448.842 184.48V193H442.762Z" fill="black"/>
<path d="M35.44 280C35.44 276.76 35.992 275.8 40.168 273.856C44.128 272.008 44.752 271.048 44.752 268.96C44.752 267.088 43.432 265.768 41.224 265.768C38.728 265.768 37.36 267.328 37.36 269.776C37.36 270.52 37.432 271.24 37.504 271.6H35.68C35.608 271.24 35.536 270.496 35.536 269.68C35.536 266.2 37.624 263.992 41.272 263.992C44.632 263.992 46.72 266.032 46.72 268.96C46.72 271.36 45.832 273.016 41.224 275.176C37.84 276.76 37.456 277.24 37.456 278.224H47.008V280H35.44ZM55.7324 280.216C51.8204 280.216 49.5644 277.072 49.5644 272.032C49.5644 267.088 51.8204 263.992 55.7324 263.992C59.6444 263.992 61.9004 267.088 61.9004 272.032C61.9004 277.072 59.6444 280.216 55.7324 280.216ZM55.7324 278.44C58.4444 278.44 59.9324 275.992 59.9324 272.032C59.9324 268.168 58.4444 265.768 55.7324 265.768C53.0204 265.768 51.5324 268.168 51.5324 272.032C51.5324 275.992 53.0204 278.44 55.7324 278.44ZM64.3608 280V278.224H69.6888V269.776H66.0648V268.312L68.2728 268.264C69.7368 268.24 69.9048 267.88 69.9288 264.04H71.6568V278.224H76.0728V280H64.3608ZM84.8211 280.216C81.2211 280.216 78.8451 278.512 78.8451 275.92C78.8451 275.704 78.8691 275.464 78.8931 275.344H80.7411C80.7171 275.56 80.7171 275.704 80.7171 275.824C80.7171 277.408 82.3491 278.44 84.8211 278.44C87.1971 278.44 88.7331 276.808 88.7331 274.624C88.7331 272.56 87.1971 271.264 84.7731 271.264C82.9971 271.264 81.4851 272.08 80.9571 273.352L79.0851 273.16L79.7091 264.208H89.7411V265.984H81.3651L80.9091 271.888H80.9571C81.4611 270.544 83.0211 269.68 85.2051 269.68C88.6371 269.68 90.7011 271.624 90.7011 274.624C90.7011 277.888 88.4211 280.216 84.8211 280.216Z" fill="#07093B"/>
<ellipse cx="237.648" cy="7" rx="6.67568" ry="7" fill="#D9D9D9"/>
<defs>
<filter id="filter0_d_766_5230" x="0" y="58" width="502" height="270" filterUnits="userSpaceOnUse" color-interpolation-filters="sRGB">
<feFlood flood-opacity="0" result="BackgroundImageFix"/>
<feColorMatrix in="SourceAlpha" type="matrix" values="0 0 0 0 0 0 0 0 0 0 0 0 0 0 0 0 0 0 127 0" result="hardAlpha"/>
<feOffset dy="4"/>
<feGaussianBlur stdDeviation="2"/>
<feComposite in2="hardAlpha" operator="out"/>
<feColorMatrix type="matrix" values="0 0 0 0 0 0 0 0 0 0 0 0 0 0 0 0 0 0 0.25 0"/>
<feBlend mode="normal" in2="BackgroundImageFix" result="effect1_dropShadow_766_5230"/>
<feBlend mode="normal" in="SourceGraphic" in2="effect1_dropShadow_766_5230" result="shape"/>
</filter>
</defs>
</svg>
