<svg width="596" height="333" viewBox="0 0 596 333" fill="none" xmlns="http://www.w3.org/2000/svg">
<g filter="url(#filter0_d_766_5236)">
<rect x="15.5" y="74.5" width="565" height="239" stroke="#DFC392" stroke-width="23" shape-rendering="crispEdges"/>
</g>
<path d="M53.8 133V106.68H65.12C71.84 106.68 75.88 109.84 75.88 116.2C75.88 122.04 72.6 125.48 65.72 125.48H60.36V133H53.8ZM60.36 121.08H65.44C68.2 121.08 69.72 119.6 69.72 116.52C69.72 113.52 68.04 111.84 64.92 111.84H60.36V121.08ZM78.3247 133V113.24H84.4047L84.1647 118.88H84.2447C85.0847 115.12 87.2047 112.92 91.0847 112.92C95.1247 112.92 97.4847 115.52 97.4847 120.64C97.4847 121.76 97.3647 123.52 97.2847 124.56H91.7647C91.8447 123.6 91.8847 122.6 91.8847 122C91.8847 119.12 90.7247 117.96 88.8047 117.96C86.2047 117.96 84.4047 120.08 84.4047 124.48V133H78.3247ZM110.483 133.32C103.963 133.32 99.7225 129.56 99.7225 123.16C99.7225 116.72 103.963 112.92 110.483 112.92C117.003 112.92 121.243 116.72 121.243 123.16C121.243 129.56 117.003 133.32 110.483 133.32ZM110.483 128.68C113.443 128.68 115.163 126.64 115.163 123.16C115.163 119.64 113.443 117.56 110.483 117.56C107.523 117.56 105.803 119.64 105.803 123.16C105.803 126.64 107.523 128.68 110.483 128.68ZM124.031 111.16V106.32H130.151V111.16H124.031ZM122.711 141.4C120.151 141.4 118.791 141.12 118.311 141V136.44C119.191 136.6 119.911 136.68 120.871 136.68C123.071 136.68 124.031 135.4 124.031 133.28V113.24H130.111V133.6C130.111 138.52 127.351 141.4 122.711 141.4ZM153.164 122.56V124.28H139.124C139.404 127.52 141.044 128.92 143.764 128.92C146.124 128.92 147.644 128.08 147.804 126.16H153.164C153.044 130.68 149.284 133.32 143.644 133.32C137.084 133.32 133.004 129.6 133.004 123.32C133.004 116.8 137.084 112.92 143.764 112.92C149.284 112.92 153.164 116.08 153.164 122.56ZM147.804 121.04V120.72C147.804 118.48 146.284 117.32 143.764 117.32C141.204 117.32 139.764 118.44 139.284 121.04H147.804ZM155.905 133V105.28H161.985V122.76H162.025L170.465 113.24H177.865L169.545 121.84L178.345 133H170.345L165.185 125.72L161.985 128.96V133H155.905ZM190.005 133.32C183.845 133.32 181.645 130.6 181.645 126.2V117.96H178.725V113.24H181.085C182.005 113.24 182.325 112.72 182.445 111.52L182.725 108.76H187.725V113.24H194.045V117.96H187.725V125.88C187.725 127.92 188.685 128.56 191.085 128.56C191.925 128.56 193.165 128.44 193.845 128.28V132.88C193.325 133 191.645 133.32 190.005 133.32ZM196.686 133V105.28H202.766V133H196.686ZM225.703 122.56V124.28H211.663C211.943 127.52 213.583 128.92 216.303 128.92C218.663 128.92 220.183 128.08 220.343 126.16H225.703C225.583 130.68 221.823 133.32 216.183 133.32C209.623 133.32 205.543 129.6 205.543 123.32C205.543 116.8 209.623 112.92 216.303 112.92C221.823 112.92 225.703 116.08 225.703 122.56ZM220.343 121.04V120.72C220.343 118.48 218.823 117.32 216.303 117.32C213.743 117.32 212.303 118.44 211.823 121.04H220.343ZM237.284 133.32C231.564 133.32 228.004 129.16 228.004 122.96C228.004 116.92 231.764 112.92 237.524 112.92C240.724 112.92 242.804 114.12 243.684 116.16H243.724V105.28H249.804V133H243.724C243.764 132.6 243.844 130.88 243.964 128.76H243.884C243.124 131.56 240.884 133.32 237.284 133.32ZM238.684 128.68C241.724 128.68 243.724 126.52 243.724 123.28V122.32C243.724 119.48 241.724 117.56 238.764 117.56C235.924 117.56 234.044 119.72 234.044 123C234.044 126.36 235.884 128.68 238.684 128.68ZM272.734 122.56V124.28H258.694C258.974 127.52 260.614 128.92 263.334 128.92C265.694 128.92 267.214 128.08 267.374 126.16H272.734C272.614 130.68 268.854 133.32 263.214 133.32C256.654 133.32 252.574 129.6 252.574 123.32C252.574 116.8 256.654 112.92 263.334 112.92C268.854 112.92 272.734 116.08 272.734 122.56ZM267.374 121.04V120.72C267.374 118.48 265.854 117.32 263.334 117.32C260.774 117.32 259.334 118.44 258.854 121.04H267.374ZM275.395 133V113.24H281.475L281.235 118.88H281.315C282.155 115.12 284.275 112.92 288.155 112.92C292.195 112.92 294.555 115.52 294.555 120.64C294.555 121.76 294.435 123.52 294.355 124.56H288.835C288.915 123.6 288.955 122.6 288.955 122C288.955 119.12 287.795 117.96 285.875 117.96C283.275 117.96 281.475 120.08 281.475 124.48V133H275.395ZM313.932 133.32C309.332 133.32 306.132 131.32 306.132 127.32C306.132 124.08 308.452 121.72 313.692 121.72H320.132V120.4C320.132 118 318.772 117.04 315.972 117.04C313.692 117.04 312.372 118 312.372 119.6C312.372 119.72 312.372 120.04 312.412 120.44H306.812C306.772 120.12 306.732 119.68 306.732 119.28C306.732 115.28 310.252 112.92 316.252 112.92C322.532 112.92 326.212 115.72 326.212 121V133H320.132C320.252 132 320.412 130.2 320.412 129H320.372C319.772 131.8 317.532 133.32 313.932 133.32ZM315.132 129.2C318.292 129.2 320.132 127.8 320.132 125.4V125H314.252C312.612 125 311.612 125.76 311.612 126.88C311.612 128.4 312.932 129.2 315.132 129.2ZM330.747 133V117.96H327.827V113.24H330.747V111.32C330.747 106.76 334.067 104.44 338.547 104.44C340.547 104.44 342.267 104.88 342.787 105.08V109.56C342.267 109.4 341.187 109.08 339.787 109.08C337.787 109.08 336.827 110 336.827 111.76V113.24H343.107V117.96H336.827V133H330.747ZM354.972 133V106.68H366.292C373.012 106.68 377.052 109.84 377.052 116.2C377.052 122.04 373.772 125.48 366.892 125.48H361.532V133H354.972ZM361.532 121.08H366.612C369.372 121.08 370.892 119.6 370.892 116.52C370.892 113.52 369.212 111.84 366.092 111.84H361.532V121.08ZM379.497 133V113.24H385.577L385.337 118.88H385.417C386.257 115.12 388.377 112.92 392.257 112.92C396.297 112.92 398.657 115.52 398.657 120.64C398.657 121.76 398.537 123.52 398.457 124.56H392.937C393.017 123.6 393.057 122.6 393.057 122C393.057 119.12 391.897 117.96 389.977 117.96C387.377 117.96 385.577 120.08 385.577 124.48V133H379.497ZM411.654 133.32C405.134 133.32 400.894 129.56 400.894 123.16C400.894 116.72 405.134 112.92 411.654 112.92C418.174 112.92 422.414 116.72 422.414 123.16C422.414 129.56 418.174 133.32 411.654 133.32ZM411.654 128.68C414.614 128.68 416.334 126.64 416.334 123.16C416.334 119.64 414.614 117.56 411.654 117.56C408.694 117.56 406.974 119.64 406.974 123.16C406.974 126.64 408.694 128.68 411.654 128.68ZM425.203 111.16V106.32H431.323V111.16H425.203ZM423.883 141.4C421.322 141.4 419.962 141.12 419.482 141V136.44C420.362 136.6 421.082 136.68 422.042 136.68C424.243 136.68 425.203 135.4 425.203 133.28V113.24H431.283V133.6C431.283 138.52 428.523 141.4 423.883 141.4ZM454.336 122.56V124.28H440.296C440.576 127.52 442.216 128.92 444.936 128.92C447.296 128.92 448.816 128.08 448.976 126.16H454.336C454.216 130.68 450.456 133.32 444.816 133.32C438.256 133.32 434.176 129.6 434.176 123.32C434.176 116.8 438.256 112.92 444.936 112.92C450.456 112.92 454.336 116.08 454.336 122.56ZM448.976 121.04V120.72C448.976 118.48 447.456 117.32 444.936 117.32C442.376 117.32 440.936 118.44 440.456 121.04H448.976ZM457.077 133V105.28H463.157V122.76H463.197L471.637 113.24H479.037L470.717 121.84L479.517 133H471.517L466.357 125.72L463.157 128.96V133H457.077ZM491.177 133.32C485.017 133.32 482.817 130.6 482.817 126.2V117.96H479.897V113.24H482.257C483.177 113.24 483.497 112.72 483.617 111.52L483.897 108.76H488.897V113.24H495.217V117.96H488.897V125.88C488.897 127.92 489.857 128.56 492.257 128.56C493.097 128.56 494.337 128.44 495.017 128.28V132.88C494.497 133 492.817 133.32 491.177 133.32ZM497.538 123.6V119.76H507.018V123.6H497.538ZM64.8 191.4C55.76 191.4 53.36 186.8 53.36 181.96H59.2C59.2 184.8 60.36 186.64 64.76 186.64C69.2 186.64 70.2 185.04 70.2 183.36C70.2 182.24 69.72 181.52 68.68 181.16C67.52 180.76 64.8 180.36 62.6 180.04C60 179.64 57.36 179.12 55.84 178.12C54.16 177.04 53.28 175.2 53.28 172.68C53.28 167.72 57.16 164.28 64.76 164.28C73.12 164.28 75.84 167.76 75.84 173.68H70.04C70.04 170.68 68.48 169.04 64.88 169.04C61.32 169.04 59.8 170.36 59.8 172.12C59.8 173.4 60.16 174.12 61.08 174.52C62.08 174.96 64.84 175.4 67.08 175.76C70.04 176.24 72.28 176.72 73.84 177.56C75.72 178.56 76.72 180.44 76.72 182.92C76.72 187.4 74.2 191.4 64.8 191.4ZM86.9463 191V180.92L76.5863 164.68H85.0263L90.7863 175.08H90.9063L96.5863 164.68H103.906L93.5063 180.92V191H86.9463ZM115.219 191L105.219 164.68H112.699L119.739 185.16H119.819L126.699 164.68H133.419L123.379 191H115.219Z" fill="black"/>
<path d="M413.44 284C413.44 280.76 413.992 279.8 418.168 277.856C422.128 276.008 422.752 275.048 422.752 272.96C422.752 271.088 421.432 269.768 419.224 269.768C416.728 269.768 415.36 271.328 415.36 273.776C415.36 274.52 415.432 275.24 415.504 275.6H413.68C413.608 275.24 413.536 274.496 413.536 273.68C413.536 270.2 415.624 267.992 419.272 267.992C422.632 267.992 424.72 270.032 424.72 272.96C424.72 275.36 423.832 277.016 419.224 279.176C415.84 280.76 415.456 281.24 415.456 282.224H425.008V284H413.44ZM433.732 284.216C429.82 284.216 427.564 281.072 427.564 276.032C427.564 271.088 429.82 267.992 433.732 267.992C437.644 267.992 439.9 271.088 439.9 276.032C439.9 281.072 437.644 284.216 433.732 284.216ZM433.732 282.44C436.444 282.44 437.932 279.992 437.932 276.032C437.932 272.168 436.444 269.768 433.732 269.768C431.02 269.768 429.532 272.168 429.532 276.032C429.532 279.992 431.02 282.44 433.732 282.44ZM448.217 284.216C444.305 284.216 442.049 281.072 442.049 276.032C442.049 271.088 444.305 267.992 448.217 267.992C452.129 267.992 454.385 271.088 454.385 276.032C454.385 281.072 452.129 284.216 448.217 284.216ZM448.217 282.44C450.929 282.44 452.417 279.992 452.417 276.032C452.417 272.168 450.929 269.768 448.217 269.768C445.505 269.768 444.017 272.168 444.017 276.032C444.017 279.992 445.505 282.44 448.217 282.44ZM462.701 284.216C458.933 284.216 456.533 282.416 456.533 279.512C456.533 277.568 457.829 276.128 459.749 275.792V275.768C458.117 275.456 457.205 274.088 457.205 272.48C457.205 269.672 459.341 267.992 462.701 267.992C466.061 267.992 468.197 269.672 468.197 272.48C468.197 274.088 467.285 275.456 465.653 275.768V275.792C467.549 276.128 468.869 277.568 468.869 279.512C468.869 282.416 466.469 284.216 462.701 284.216ZM462.701 275.168C464.909 275.168 466.325 274.112 466.325 272.48C466.325 270.8 464.909 269.72 462.701 269.72C460.493 269.72 459.077 270.8 459.077 272.48C459.077 274.112 460.493 275.168 462.701 275.168ZM462.701 282.488C465.269 282.488 466.901 281.312 466.901 279.512C466.901 277.76 465.269 276.656 462.701 276.656C460.133 276.656 458.501 277.76 458.501 279.512C458.501 281.312 460.133 282.488 462.701 282.488ZM470.802 277.904V276.512H476.13V277.904H470.802ZM478.432 284C478.432 280.76 478.984 279.8 483.16 277.856C487.12 276.008 487.744 275.048 487.744 272.96C487.744 271.088 486.424 269.768 484.216 269.768C481.72 269.768 480.352 271.328 480.352 273.776C480.352 274.52 480.424 275.24 480.496 275.6H478.672C478.6 275.24 478.528 274.496 478.528 273.68C478.528 270.2 480.616 267.992 484.264 267.992C487.624 267.992 489.712 270.032 489.712 272.96C489.712 275.36 488.824 277.016 484.216 279.176C480.832 280.76 480.448 281.24 480.448 282.224H490V284H478.432ZM498.725 284.216C494.813 284.216 492.557 281.072 492.557 276.032C492.557 271.088 494.813 267.992 498.725 267.992C502.637 267.992 504.893 271.088 504.893 276.032C504.893 281.072 502.637 284.216 498.725 284.216ZM498.725 282.44C501.437 282.44 502.925 279.992 502.925 276.032C502.925 272.168 501.437 269.768 498.725 269.768C496.013 269.768 494.525 272.168 494.525 276.032C494.525 279.992 496.013 282.44 498.725 282.44ZM507.353 284V282.224H512.681V273.776H509.057V272.312L511.265 272.264C512.729 272.24 512.897 271.88 512.921 268.04H514.649V282.224H519.065V284H507.353ZM521.837 284V282.224H527.165V273.776H523.541V272.312L525.749 272.264C527.213 272.24 527.381 271.88 527.405 268.04H529.133V282.224H533.549V284H521.837Z" fill="#07093B"/>
<line y1="-2" x2="65.9881" y2="-2" transform="matrix(0.47692 -0.878947 0.858775 0.512352 271 63)" stroke="#614718" stroke-width="4"/>
<path d="M329.877 62.0107L298.406 4.01074" stroke="#614718" stroke-width="4"/>
<ellipse cx="299.609" cy="7" rx="6.67568" ry="7" fill="#D9D9D9"/>
<defs>
<filter id="filter0_d_766_5236" x="0" y="63" width="596" height="270" filterUnits="userSpaceOnUse" color-interpolation-filters="sRGB">
<feFlood flood-opacity="0" result="BackgroundImageFix"/>
<feColorMatrix in="SourceAlpha" type="matrix" values="0 0 0 0 0 0 0 0 0 0 0 0 0 0 0 0 0 0 127 0" result="hardAlpha"/>
<feOffset dy="4"/>
<feGaussianBlur stdDeviation="2"/>
<feComposite in2="hardAlpha" operator="out"/>
<feColorMatrix type="matrix" values="0 0 0 0 0 0 0 0 0 0 0 0 0 0 0 0 0 0 0.25 0"/>
<feBlend mode="normal" in2="BackgroundImageFix" result="effect1_dropShadow_766_5236"/>
<feBlend mode="normal" in="SourceGraphic" in2="effect1_dropShadow_766_5236" result="shape"/>
</filter>
</defs>
</svg>
