<svg width="596" height="333" viewBox="0 0 596 333" fill="none" xmlns="http://www.w3.org/2000/svg">
<g filter="url(#filter0_d_766_5227)">
<rect x="15.5" y="74.5" width="565" height="239" stroke="#DFC392" stroke-width="23" shape-rendering="crispEdges"/>
</g>
<path d="M65.76 133.4C58.4 133.4 53.64 129.52 53.64 122.8V106.68H60.2V122.56C60.2 126.16 62.64 127.96 66.12 127.96C69.6 127.96 72.04 126.16 72.04 122.56V106.68H77.84V122.8C77.84 129.52 73.12 133.4 65.76 133.4ZM89.9009 133.32C84.1809 133.32 80.6209 129.16 80.6209 122.96C80.6209 116.92 84.3809 112.92 90.1409 112.92C93.3409 112.92 95.4209 114.12 96.3009 116.16H96.3409V105.28H102.421V133H96.3409C96.3809 132.6 96.4609 130.88 96.5809 128.76H96.5009C95.7409 131.56 93.5009 133.32 89.9009 133.32ZM91.3009 128.68C94.3409 128.68 96.3409 126.52 96.3409 123.28V122.32C96.3409 119.48 94.3409 117.56 91.3809 117.56C88.5409 117.56 86.6609 119.72 86.6609 123C86.6609 126.36 88.5009 128.68 91.3009 128.68ZM112.991 133L104.711 113.24H111.791L116.871 127.44H116.951L122.151 113.24H128.391L120.231 133H112.991ZM130.75 111.16V106.32H136.83V111.16H130.75ZM130.75 133V113.24H136.83V133H130.75ZM140.123 133V105.28H146.203V122.76H146.243L154.683 113.24H162.083L153.763 121.84L162.563 133H154.563L149.403 125.72L146.203 128.96V133H140.123ZM164.733 133V105.28H170.813V133H164.733ZM174.11 111.16V106.32H180.19V111.16H174.11ZM174.11 133V113.24H180.19V133H174.11ZM183.403 133V113.24H189.483L189.243 118.48H189.323C190.323 114.72 192.643 112.92 197.123 112.92C201.883 112.92 204.963 115.52 204.963 120.64V133H198.883V122C198.883 119.2 197.283 117.96 194.603 117.96C191.403 117.96 189.483 119.84 189.483 123.6V133H183.403ZM222.137 129.4C226.617 129.4 229.257 131.36 229.257 134.64C229.257 139.16 225.217 141.56 218.377 141.56C211.417 141.56 207.297 139.64 207.297 136.36C207.297 134.28 208.657 133 210.857 132.76V132.72C209.657 131.96 209.017 130.88 209.017 129.48C209.017 127.6 209.977 126.44 211.457 125.76V125.72C209.377 124.52 208.217 122.56 208.217 120C208.217 115.56 211.657 112.92 217.457 112.92C219.777 112.92 221.697 113.32 223.177 114.12L223.217 114.04C222.417 113.32 222.057 112.52 222.057 111.8C222.057 110.16 223.697 109.2 226.217 109.2C227.297 109.2 227.857 109.28 228.417 109.4V113.24C228.057 113.16 227.657 113.12 227.217 113.12C225.937 113.12 225.337 113.68 225.337 114.6C225.337 115.08 225.497 115.68 225.777 116.4C226.417 117.4 226.737 118.6 226.737 120C226.737 124.44 223.297 127.04 217.457 127.04C216.257 127.04 215.177 126.92 214.177 126.72C214.017 126.96 213.817 127.44 213.817 128C213.817 128.88 214.537 129.4 215.737 129.4H222.137ZM217.457 116.76C215.257 116.76 213.937 117.96 213.937 120C213.937 122 215.257 123.2 217.457 123.2C219.697 123.2 221.017 122 221.017 120C221.017 117.96 219.697 116.76 217.457 116.76ZM218.297 137.88C221.377 137.88 223.177 137.04 223.177 135.48C223.177 134.4 222.377 133.8 220.617 133.8H215.937C214.297 133.8 213.337 134.48 213.337 135.6C213.337 137.08 215.177 137.88 218.297 137.88ZM240.462 133.32C233.502 133.32 230.582 130.36 230.582 126.36H236.022C236.022 128.2 236.942 129.4 240.422 129.4C243.582 129.4 244.702 128.48 244.702 127.04C244.702 126.32 244.342 125.76 243.302 125.52C242.262 125.28 240.662 125.12 238.702 124.96C235.862 124.72 233.662 124.28 232.462 123.44C231.342 122.64 230.582 121.2 230.582 119.56C230.582 115.28 234.982 112.92 240.462 112.92C246.942 112.92 249.902 115.4 249.902 120H244.542C244.502 117.92 243.542 116.84 240.542 116.84C237.822 116.84 236.622 117.76 236.622 119.12C236.622 119.96 236.942 120.6 238.062 120.88C239.062 121.12 240.822 121.28 242.942 121.48C245.382 121.72 247.102 121.96 248.582 122.8C249.862 123.52 250.782 125 250.782 126.72C250.782 130.88 247.222 133.32 240.462 133.32ZM253.561 133V105.28H259.641V122.76H259.681L268.121 113.24H275.521L267.201 121.84L276.001 133H268.001L262.841 125.72L259.641 128.96V133H253.561ZM286.693 133.32C280.173 133.32 275.933 129.56 275.933 123.16C275.933 116.72 280.173 112.92 286.693 112.92C293.213 112.92 297.453 116.72 297.453 123.16C297.453 129.56 293.213 133.32 286.693 133.32ZM286.693 128.68C289.653 128.68 291.373 126.64 291.373 123.16C291.373 119.64 289.653 117.56 286.693 117.56C283.733 117.56 282.013 119.64 282.013 123.16C282.013 126.64 283.733 128.68 286.693 128.68ZM300.122 133V113.24H306.202L305.962 118.48H306.042C307.042 114.72 309.362 112.92 313.842 112.92C318.602 112.92 321.682 115.52 321.682 120.64V133H315.602V122C315.602 119.2 314.002 117.96 311.322 117.96C308.122 117.96 306.202 119.84 306.202 123.6V133H300.122ZM334.056 133.32C327.096 133.32 324.176 130.36 324.176 126.36H329.616C329.616 128.2 330.536 129.4 334.016 129.4C337.176 129.4 338.296 128.48 338.296 127.04C338.296 126.32 337.936 125.76 336.896 125.52C335.856 125.28 334.256 125.12 332.296 124.96C329.456 124.72 327.256 124.28 326.056 123.44C324.936 122.64 324.176 121.2 324.176 119.56C324.176 115.28 328.576 112.92 334.056 112.92C340.536 112.92 343.496 115.4 343.496 120H338.136C338.096 117.92 337.136 116.84 334.136 116.84C331.416 116.84 330.216 117.76 330.216 119.12C330.216 119.96 330.536 120.6 331.656 120.88C332.656 121.12 334.416 121.28 336.536 121.48C338.976 121.72 340.696 121.96 342.176 122.8C343.456 123.52 344.376 125 344.376 126.72C344.376 130.88 340.816 133.32 334.056 133.32ZM355.195 133.32C350.075 133.32 346.875 130.76 346.875 124.96V113.24H352.955V124.24C352.955 127 354.475 128.28 357.075 128.28C360.355 128.28 362.315 126.12 362.315 121.8V113.24H368.395V133H362.315C362.435 131.64 362.555 130 362.595 127.84H362.515C361.635 131.64 358.955 133.32 355.195 133.32ZM371.569 133V105.28H377.649V133H371.569ZM400.586 122.56V124.28H386.546C386.826 127.52 388.466 128.92 391.186 128.92C393.546 128.92 395.066 128.08 395.226 126.16H400.586C400.466 130.68 396.706 133.32 391.066 133.32C384.506 133.32 380.426 129.6 380.426 123.32C380.426 116.8 384.506 112.92 391.186 112.92C396.706 112.92 400.586 116.08 400.586 122.56ZM395.226 121.04V120.72C395.226 118.48 393.706 117.32 391.186 117.32C388.626 117.32 387.186 118.44 386.706 121.04H395.226ZM403.247 133V113.24H409.327L409.087 118.48H409.167C410.167 114.72 412.487 112.92 416.967 112.92C421.727 112.92 424.807 115.52 424.807 120.64V133H418.727V122C418.727 119.2 417.127 117.96 414.447 117.96C411.247 117.96 409.327 119.84 409.327 123.6V133H403.247ZM437.701 133.32C431.541 133.32 429.341 130.6 429.341 126.2V117.96H426.421V113.24H428.781C429.701 113.24 430.021 112.72 430.141 111.52L430.421 108.76H435.421V113.24H441.741V117.96H435.421V125.88C435.421 127.92 436.381 128.56 438.781 128.56C439.621 128.56 440.861 128.44 441.541 128.28V132.88C441.021 133 439.341 133.32 437.701 133.32ZM453.68 111.16V106.32H459.76V111.16H453.68ZM453.68 133V113.24H459.76V133H453.68ZM53.8 191V164.68H64.4C72.8 164.68 78 169.16 78 177.8C78 186.48 73.08 191 65.24 191H53.8ZM60.36 185.84H65.16C68.8 185.84 71.48 183.36 71.48 177.8C71.48 172.16 68.64 169.84 64.76 169.84H60.36V185.84ZM88.2675 191.32C83.6675 191.32 80.4675 189.32 80.4675 185.32C80.4675 182.08 82.7875 179.72 88.0275 179.72H94.4675V178.4C94.4675 176 93.1075 175.04 90.3075 175.04C88.0275 175.04 86.7075 176 86.7075 177.6C86.7075 177.72 86.7075 178.04 86.7475 178.44H81.1475C81.1075 178.12 81.0675 177.68 81.0675 177.28C81.0675 173.28 84.5875 170.92 90.5875 170.92C96.8675 170.92 100.548 173.72 100.548 179V191H94.4675C94.5875 190 94.7475 188.2 94.7475 187H94.7075C94.1075 189.8 91.8675 191.32 88.2675 191.32ZM89.4675 187.2C92.6275 187.2 94.4675 185.8 94.4675 183.4V183H88.5875C86.9475 183 85.9475 183.76 85.9475 184.88C85.9475 186.4 87.2675 187.2 89.4675 187.2ZM103.403 191V171.24H109.483L109.243 176.48H109.323C110.323 172.72 112.643 170.92 117.123 170.92C121.883 170.92 124.963 173.52 124.963 178.64V191H118.883V180C118.883 177.2 117.283 175.96 114.603 175.96C111.403 175.96 109.483 177.84 109.483 181.6V191H103.403ZM127.817 191V171.24H133.897L133.657 176.48H133.737C134.737 172.72 137.057 170.92 141.537 170.92C146.297 170.92 149.377 173.52 149.377 178.64V191H143.297V180C143.297 177.2 141.697 175.96 139.017 175.96C135.817 175.96 133.897 177.84 133.897 181.6V191H127.817ZM172.031 180.56V182.28H157.991C158.271 185.52 159.911 186.92 162.631 186.92C164.991 186.92 166.511 186.08 166.671 184.16H172.031C171.911 188.68 168.151 191.32 162.511 191.32C155.951 191.32 151.871 187.6 151.871 181.32C151.871 174.8 155.951 170.92 162.631 170.92C168.151 170.92 172.031 174.08 172.031 180.56ZM166.671 179.04V178.72C166.671 176.48 165.151 175.32 162.631 175.32C160.071 175.32 158.631 176.44 158.151 179.04H166.671ZM174.692 191V171.24H180.772L180.532 176.88H180.612C181.452 173.12 183.572 170.92 187.452 170.92C191.492 170.92 193.852 173.52 193.852 178.64C193.852 179.76 193.732 181.52 193.652 182.56H188.132C188.212 181.6 188.252 180.6 188.252 180C188.252 177.12 187.092 175.96 185.172 175.96C182.572 175.96 180.772 178.08 180.772 182.48V191H174.692Z" fill="black"/>
<path d="M413.44 284C413.44 280.76 413.992 279.8 418.168 277.856C422.128 276.008 422.752 275.048 422.752 272.96C422.752 271.088 421.432 269.768 419.224 269.768C416.728 269.768 415.36 271.328 415.36 273.776C415.36 274.52 415.432 275.24 415.504 275.6H413.68C413.608 275.24 413.536 274.496 413.536 273.68C413.536 270.2 415.624 267.992 419.272 267.992C422.632 267.992 424.72 270.032 424.72 272.96C424.72 275.36 423.832 277.016 419.224 279.176C415.84 280.76 415.456 281.24 415.456 282.224H425.008V284H413.44ZM433.732 284.216C429.82 284.216 427.564 281.072 427.564 276.032C427.564 271.088 429.82 267.992 433.732 267.992C437.644 267.992 439.9 271.088 439.9 276.032C439.9 281.072 437.644 284.216 433.732 284.216ZM433.732 282.44C436.444 282.44 437.932 279.992 437.932 276.032C437.932 272.168 436.444 269.768 433.732 269.768C431.02 269.768 429.532 272.168 429.532 276.032C429.532 279.992 431.02 282.44 433.732 282.44ZM442.361 284V282.224H447.689V273.776H444.065V272.312L446.273 272.264C447.737 272.24 447.905 271.88 447.929 268.04H449.657V282.224H454.073V284H442.361ZM456.893 284C456.893 280.76 457.445 279.8 461.621 277.856C465.581 276.008 466.205 275.048 466.205 272.96C466.205 271.088 464.885 269.768 462.677 269.768C460.181 269.768 458.813 271.328 458.813 273.776C458.813 274.52 458.885 275.24 458.957 275.6H457.133C457.061 275.24 456.989 274.496 456.989 273.68C456.989 270.2 459.077 267.992 462.725 267.992C466.085 267.992 468.173 270.032 468.173 272.96C468.173 275.36 467.285 277.016 462.677 279.176C459.293 280.76 458.909 281.24 458.909 282.224H468.461V284H456.893ZM470.802 277.904V276.512H476.13V277.904H470.802ZM478.432 284C478.432 280.76 478.984 279.8 483.16 277.856C487.12 276.008 487.744 275.048 487.744 272.96C487.744 271.088 486.424 269.768 484.216 269.768C481.72 269.768 480.352 271.328 480.352 273.776C480.352 274.52 480.424 275.24 480.496 275.6H478.672C478.6 275.24 478.528 274.496 478.528 273.68C478.528 270.2 480.616 267.992 484.264 267.992C487.624 267.992 489.712 270.032 489.712 272.96C489.712 275.36 488.824 277.016 484.216 279.176C480.832 280.76 480.448 281.24 480.448 282.224H490V284H478.432ZM498.725 284.216C494.813 284.216 492.557 281.072 492.557 276.032C492.557 271.088 494.813 267.992 498.725 267.992C502.637 267.992 504.893 271.088 504.893 276.032C504.893 281.072 502.637 284.216 498.725 284.216ZM498.725 282.44C501.437 282.44 502.925 279.992 502.925 276.032C502.925 272.168 501.437 269.768 498.725 269.768C496.013 269.768 494.525 272.168 494.525 276.032C494.525 279.992 496.013 282.44 498.725 282.44ZM507.353 284V282.224H512.681V273.776H509.057V272.312L511.265 272.264C512.729 272.24 512.897 271.88 512.921 268.04H514.649V282.224H519.065V284H507.353ZM527.501 284.216C523.853 284.216 521.525 282.344 521.525 279.272C521.525 278.936 521.573 278.456 521.597 278.192H523.421C523.397 278.6 523.397 278.84 523.397 278.96C523.397 281.24 524.861 282.44 527.501 282.44C530.213 282.44 531.869 281.192 531.869 279.032C531.869 277.448 530.741 276.632 528.821 276.632H526.349V275.192H528.437C530.261 275.192 531.197 274.208 531.197 272.672C531.197 270.848 529.805 269.768 527.693 269.768C525.149 269.768 523.757 271.04 523.757 273.056C523.757 273.488 523.781 273.824 523.805 274.064H521.981C521.933 273.824 521.885 273.296 521.885 272.768C521.885 269.864 524.045 267.992 527.693 267.992C530.981 267.992 533.117 269.672 533.117 272.456C533.117 274.016 532.229 275.288 530.861 275.6V275.648C532.685 275.888 533.837 277.256 533.837 279.152C533.837 282.248 531.413 284.216 527.501 284.216Z" fill="#07093B"/>
<line y1="-2" x2="65.9881" y2="-2" transform="matrix(0.47692 -0.878947 0.858775 0.512352 271 63)" stroke="#614718" stroke-width="4"/>
<path d="M329.877 62.0107L298.406 4.01074" stroke="#614718" stroke-width="4"/>
<ellipse cx="299.609" cy="7" rx="6.67568" ry="7" fill="#D9D9D9"/>
<defs>
<filter id="filter0_d_766_5227" x="0" y="63" width="596" height="270" filterUnits="userSpaceOnUse" color-interpolation-filters="sRGB">
<feFlood flood-opacity="0" result="BackgroundImageFix"/>
<feColorMatrix in="SourceAlpha" type="matrix" values="0 0 0 0 0 0 0 0 0 0 0 0 0 0 0 0 0 0 127 0" result="hardAlpha"/>
<feOffset dy="4"/>
<feGaussianBlur stdDeviation="2"/>
<feComposite in2="hardAlpha" operator="out"/>
<feColorMatrix type="matrix" values="0 0 0 0 0 0 0 0 0 0 0 0 0 0 0 0 0 0 0.25 0"/>
<feBlend mode="normal" in2="BackgroundImageFix" result="effect1_dropShadow_766_5227"/>
<feBlend mode="normal" in="SourceGraphic" in2="effect1_dropShadow_766_5227" result="shape"/>
</filter>
</defs>
</svg>
