<svg width="502" height="328" viewBox="0 0 502 328" fill="none" xmlns="http://www.w3.org/2000/svg">
<line y1="-2" x2="65.9881" y2="-2" transform="matrix(0.47692 -0.878947 0.858775 0.512352 209.039 63)" stroke="#614718" stroke-width="4"/>
<path d="M267.916 62.0107L236.445 4.01074" stroke="#614718" stroke-width="4"/>
<g filter="url(#filter0_d_766_5237)">
<rect x="15.5" y="69.5" width="471" height="239" stroke="#DFC392" stroke-width="23" shape-rendering="crispEdges"/>
</g>
<path d="M250.23 135V108.68H268.43V113.84H256.79V120.28H266.43V124.68H256.79V135H250.23ZM280.115 135.32C273.595 135.32 269.355 131.56 269.355 125.16C269.355 118.72 273.595 114.92 280.115 114.92C286.635 114.92 290.875 118.72 290.875 125.16C290.875 131.56 286.635 135.32 280.115 135.32ZM280.115 130.68C283.075 130.68 284.795 128.64 284.795 125.16C284.795 121.64 283.075 119.56 280.115 119.56C277.155 119.56 275.435 121.64 275.435 125.16C275.435 128.64 277.155 130.68 280.115 130.68ZM293.543 135V115.24H299.623L299.383 120.88H299.463C300.303 117.12 302.423 114.92 306.303 114.92C310.343 114.92 312.703 117.52 312.703 122.64C312.703 123.76 312.583 125.52 312.503 126.56H306.983C307.063 125.6 307.103 124.6 307.103 124C307.103 121.12 305.943 119.96 304.023 119.96C301.423 119.96 299.623 122.08 299.623 126.48V135H293.543ZM315.381 135V107.28H321.461V124.76H321.501L329.941 115.24H337.341L329.021 123.84L337.821 135H329.821L324.661 127.72L321.461 130.96V135H315.381ZM347.351 135L339.071 115.24H346.151L351.231 129.44H351.311L356.511 115.24H362.751L354.591 135H347.351ZM365.11 113.16V108.32H371.19V113.16H365.11ZM365.11 135V115.24H371.19V135H365.11ZM374.403 135V115.24H380.483L380.243 120.48H380.323C381.323 116.72 383.643 114.92 388.123 114.92C392.883 114.92 395.963 117.52 395.963 122.64V135H389.883V124C389.883 121.2 388.283 119.96 385.603 119.96C382.403 119.96 380.483 121.84 380.483 125.6V135H374.403ZM407.737 135.32C402.017 135.32 398.457 131.16 398.457 124.96C398.457 118.92 402.217 114.92 407.977 114.92C411.177 114.92 413.257 116.12 414.137 118.16H414.177V107.28H420.257V135H414.177C414.217 134.6 414.297 132.88 414.417 130.76H414.337C413.577 133.56 411.337 135.32 407.737 135.32ZM409.137 130.68C412.177 130.68 414.177 128.52 414.177 125.28V124.32C414.177 121.48 412.177 119.56 409.217 119.56C406.377 119.56 404.497 121.72 404.497 125C404.497 128.36 406.337 130.68 409.137 130.68ZM443.187 124.56V126.28H429.147C429.427 129.52 431.067 130.92 433.787 130.92C436.147 130.92 437.667 130.08 437.827 128.16H443.187C443.067 132.68 439.307 135.32 433.667 135.32C427.107 135.32 423.027 131.6 423.027 125.32C423.027 118.8 427.107 114.92 433.787 114.92C439.307 114.92 443.187 118.08 443.187 124.56ZM437.827 123.04V122.72C437.827 120.48 436.307 119.32 433.787 119.32C431.227 119.32 429.787 120.44 429.307 123.04H437.827ZM455.227 113.16V108.32H461.307V113.16H455.227ZM455.227 135V115.24H461.307V135H455.227ZM50.7766 193V166.68H68.9766V171.84H57.3366V178.28H66.9766V182.68H57.3366V193H50.7766ZM80.6622 193.32C74.1422 193.32 69.9022 189.56 69.9022 183.16C69.9022 176.72 74.1422 172.92 80.6622 172.92C87.1822 172.92 91.4222 176.72 91.4222 183.16C91.4222 189.56 87.1822 193.32 80.6622 193.32ZM80.6622 188.68C83.6222 188.68 85.3422 186.64 85.3422 183.16C85.3422 179.64 83.6222 177.56 80.6622 177.56C77.7022 177.56 75.9822 179.64 75.9822 183.16C75.9822 186.64 77.7022 188.68 80.6622 188.68ZM94.0903 193V173.24H100.17L99.9303 178.88H100.01C100.85 175.12 102.97 172.92 106.85 172.92C110.89 172.92 113.25 175.52 113.25 180.64C113.25 181.76 113.13 183.52 113.05 184.56H107.53C107.61 183.6 107.65 182.6 107.65 182C107.65 179.12 106.49 177.96 104.57 177.96C101.97 177.96 100.17 180.08 100.17 184.48V193H94.0903ZM135.648 182.56V184.28H121.608C121.888 187.52 123.528 188.92 126.248 188.92C128.608 188.92 130.128 188.08 130.288 186.16H135.648C135.528 190.68 131.768 193.32 126.128 193.32C119.568 193.32 115.488 189.6 115.488 183.32C115.488 176.8 119.568 172.92 126.248 172.92C131.768 172.92 135.648 176.08 135.648 182.56ZM130.288 181.04V180.72C130.288 178.48 128.768 177.32 126.248 177.32C123.688 177.32 122.248 178.44 121.768 181.04H130.288ZM138.309 193V173.24H144.389L144.149 178.48H144.229C145.229 174.72 147.549 172.92 152.029 172.92C156.789 172.92 159.869 175.52 159.869 180.64V193H153.789V182C153.789 179.2 152.189 177.96 149.509 177.96C146.309 177.96 144.389 179.84 144.389 183.6V193H138.309ZM162.883 171.16V166.32H168.963V171.16H162.883ZM162.883 193V173.24H168.963V193H162.883ZM172.176 193V173.24H178.256L178.016 178.48H178.096C179.096 174.72 181.416 172.92 185.896 172.92C190.656 172.92 193.736 175.52 193.736 180.64V193H187.656V182C187.656 179.2 186.056 177.96 183.376 177.96C180.176 177.96 178.256 179.84 178.256 183.6V193H172.176ZM210.91 189.4C215.39 189.4 218.03 191.36 218.03 194.64C218.03 199.16 213.99 201.56 207.15 201.56C200.19 201.56 196.07 199.64 196.07 196.36C196.07 194.28 197.43 193 199.63 192.76V192.72C198.43 191.96 197.79 190.88 197.79 189.48C197.79 187.6 198.75 186.44 200.23 185.76V185.72C198.15 184.52 196.99 182.56 196.99 180C196.99 175.56 200.43 172.92 206.23 172.92C208.55 172.92 210.47 173.32 211.95 174.12L211.99 174.04C211.19 173.32 210.83 172.52 210.83 171.8C210.83 170.16 212.47 169.2 214.99 169.2C216.07 169.2 216.63 169.28 217.19 169.4V173.24C216.83 173.16 216.43 173.12 215.99 173.12C214.71 173.12 214.11 173.68 214.11 174.6C214.11 175.08 214.27 175.68 214.55 176.4C215.19 177.4 215.51 178.6 215.51 180C215.51 184.44 212.07 187.04 206.23 187.04C205.03 187.04 203.95 186.92 202.95 186.72C202.79 186.96 202.59 187.44 202.59 188C202.59 188.88 203.31 189.4 204.51 189.4H210.91ZM206.23 176.76C204.03 176.76 202.71 177.96 202.71 180C202.71 182 204.03 183.2 206.23 183.2C208.47 183.2 209.79 182 209.79 180C209.79 177.96 208.47 176.76 206.23 176.76ZM207.07 197.88C210.15 197.88 211.95 197.04 211.95 195.48C211.95 194.4 211.15 193.8 209.39 193.8H204.71C203.07 193.8 202.11 194.48 202.11 195.6C202.11 197.08 203.95 197.88 207.07 197.88ZM238.968 182.56V184.28H224.928C225.208 187.52 226.848 188.92 229.568 188.92C231.928 188.92 233.448 188.08 233.608 186.16H238.968C238.848 190.68 235.088 193.32 229.448 193.32C222.888 193.32 218.808 189.6 218.808 183.32C218.808 176.8 222.888 172.92 229.568 172.92C235.088 172.92 238.968 176.08 238.968 182.56ZM233.608 181.04V180.72C233.608 178.48 232.088 177.32 229.568 177.32C227.008 177.32 225.568 178.44 225.088 181.04H233.608ZM241.629 193V173.24H247.709L247.469 178.48H247.549C248.549 174.72 250.869 172.92 255.349 172.92C260.109 172.92 263.189 175.52 263.189 180.64V193H257.109V182C257.109 179.2 255.509 177.96 252.829 177.96C249.629 177.96 247.709 179.84 247.709 183.6V193H241.629ZM276.942 193V177.96H274.022V173.24H276.942V171.32C276.942 166.76 280.262 164.44 284.742 164.44C286.742 164.44 288.462 164.88 288.982 165.08V169.56C288.462 169.4 287.382 169.08 285.982 169.08C283.982 169.08 283.022 170 283.022 171.76V173.24H289.302V177.96H283.022V193H276.942ZM300.74 193.32C294.22 193.32 289.98 189.56 289.98 183.16C289.98 176.72 294.22 172.92 300.74 172.92C307.26 172.92 311.5 176.72 311.5 183.16C311.5 189.56 307.26 193.32 300.74 193.32ZM300.74 188.68C303.7 188.68 305.42 186.64 305.42 183.16C305.42 179.64 303.7 177.56 300.74 177.56C297.78 177.56 296.06 179.64 296.06 183.16C296.06 186.64 297.78 188.68 300.74 188.68ZM314.168 193V173.24H320.248L320.008 178.88H320.088C320.928 175.12 323.048 172.92 326.928 172.92C330.968 172.92 333.328 175.52 333.328 180.64C333.328 181.76 333.208 183.52 333.128 184.56H327.608C327.688 183.6 327.728 182.6 327.728 182C327.728 179.12 326.568 177.96 324.648 177.96C322.048 177.96 320.248 180.08 320.248 184.48V193H314.168ZM345.425 193V166.68H364.065V171.84H351.985V177.76H361.345V181.76H351.985V187.84H364.425V193H345.425ZM376.904 193.32C370.744 193.32 368.544 190.6 368.544 186.2V177.96H365.624V173.24H367.984C368.904 173.24 369.224 172.72 369.344 171.52L369.624 168.76H374.624V173.24H380.944V177.96H374.624V185.88C374.624 187.92 375.584 188.56 377.984 188.56C378.824 188.56 380.064 188.44 380.744 188.28V192.88C380.224 193 378.544 193.32 376.904 193.32ZM383.504 193V173.24H389.584L389.344 178.48H389.424C390.424 174.72 392.744 172.92 397.224 172.92C401.984 172.92 405.064 175.52 405.064 180.64V193H398.984V182C398.984 179.2 397.384 177.96 394.704 177.96C391.504 177.96 389.584 179.84 389.584 183.6V193H383.504ZM408.078 171.16V166.32H414.158V171.16H408.078ZM408.078 193V173.24H414.158V193H408.078ZM426.892 193.32C419.932 193.32 417.012 190.36 417.012 186.36H422.452C422.452 188.2 423.372 189.4 426.852 189.4C430.012 189.4 431.132 188.48 431.132 187.04C431.132 186.32 430.772 185.76 429.732 185.52C428.692 185.28 427.092 185.12 425.132 184.96C422.292 184.72 420.092 184.28 418.892 183.44C417.772 182.64 417.012 181.2 417.012 179.56C417.012 175.28 421.412 172.92 426.892 172.92C433.372 172.92 436.332 175.4 436.332 180H430.972C430.932 177.92 429.972 176.84 426.972 176.84C424.252 176.84 423.052 177.76 423.052 179.12C423.052 179.96 423.372 180.6 424.492 180.88C425.492 181.12 427.252 181.28 429.372 181.48C431.812 181.72 433.532 181.96 435.012 182.8C436.292 183.52 437.212 185 437.212 186.72C437.212 190.88 433.652 193.32 426.892 193.32ZM439.991 193V165.28H446.071V182.76H446.111L454.551 173.24H461.951L453.631 181.84L462.431 193H454.431L449.271 185.72L446.071 188.96V193H439.991ZM264.331 251V224.68H270.891V245.84H282.891V251H264.331ZM285.344 229.16V224.32H291.424V229.16H285.344ZM285.344 251V231.24H291.424V251H285.344ZM308.957 247.4C313.437 247.4 316.077 249.36 316.077 252.64C316.077 257.16 312.037 259.56 305.197 259.56C298.237 259.56 294.117 257.64 294.117 254.36C294.117 252.28 295.477 251 297.677 250.76V250.72C296.477 249.96 295.837 248.88 295.837 247.48C295.837 245.6 296.797 244.44 298.277 243.76V243.72C296.197 242.52 295.037 240.56 295.037 238C295.037 233.56 298.477 230.92 304.277 230.92C306.597 230.92 308.517 231.32 309.997 232.12L310.037 232.04C309.237 231.32 308.877 230.52 308.877 229.8C308.877 228.16 310.517 227.2 313.037 227.2C314.117 227.2 314.677 227.28 315.237 227.4V231.24C314.877 231.16 314.477 231.12 314.037 231.12C312.757 231.12 312.157 231.68 312.157 232.6C312.157 233.08 312.317 233.68 312.597 234.4C313.237 235.4 313.557 236.6 313.557 238C313.557 242.44 310.117 245.04 304.277 245.04C303.077 245.04 301.997 244.92 300.997 244.72C300.837 244.96 300.637 245.44 300.637 246C300.637 246.88 301.357 247.4 302.557 247.4H308.957ZM304.277 234.76C302.077 234.76 300.757 235.96 300.757 238C300.757 240 302.077 241.2 304.277 241.2C306.517 241.2 307.837 240 307.837 238C307.837 235.96 306.517 234.76 304.277 234.76ZM305.117 255.88C308.197 255.88 309.997 255.04 309.997 253.48C309.997 252.4 309.197 251.8 307.437 251.8H302.757C301.117 251.8 300.157 252.48 300.157 253.6C300.157 255.08 301.997 255.88 305.117 255.88ZM337.015 240.56V242.28H322.975C323.255 245.52 324.895 246.92 327.615 246.92C329.975 246.92 331.495 246.08 331.655 244.16H337.015C336.895 248.68 333.135 251.32 327.495 251.32C320.935 251.32 316.855 247.6 316.855 241.32C316.855 234.8 320.935 230.92 327.615 230.92C333.135 230.92 337.015 234.08 337.015 240.56ZM331.655 239.04V238.72C331.655 236.48 330.135 235.32 327.615 235.32C325.055 235.32 323.615 236.44 323.135 239.04H331.655ZM349.196 251.32C342.236 251.32 339.316 248.36 339.316 244.36H344.756C344.756 246.2 345.676 247.4 349.156 247.4C352.316 247.4 353.436 246.48 353.436 245.04C353.436 244.32 353.076 243.76 352.036 243.52C350.996 243.28 349.396 243.12 347.436 242.96C344.596 242.72 342.396 242.28 341.196 241.44C340.076 240.64 339.316 239.2 339.316 237.56C339.316 233.28 343.716 230.92 349.196 230.92C355.676 230.92 358.636 233.4 358.636 238H353.276C353.236 235.92 352.276 234.84 349.276 234.84C346.556 234.84 345.356 235.76 345.356 237.12C345.356 237.96 345.676 238.6 346.796 238.88C347.796 239.12 349.556 239.28 351.676 239.48C354.116 239.72 355.836 239.96 357.316 240.8C358.596 241.52 359.516 243 359.516 244.72C359.516 248.88 355.956 251.32 349.196 251.32ZM372.255 251.32C366.095 251.32 363.895 248.6 363.895 244.2V235.96H360.975V231.24H363.335C364.255 231.24 364.575 230.72 364.695 229.52L364.975 226.76H369.975V231.24H376.295V235.96H369.975V243.88C369.975 245.92 370.935 246.56 373.335 246.56C374.175 246.56 375.415 246.44 376.095 246.28V250.88C375.575 251 373.895 251.32 372.255 251.32ZM379.016 229.16V224.32H385.096V229.16H379.016ZM379.016 251V231.24H385.096V251H379.016ZM388.389 251V223.28H394.469V251H388.389ZM397.686 251V223.28H403.766V251H397.686ZM407.063 229.16V224.32H413.143V229.16H407.063ZM407.063 251V231.24H413.143V251H407.063ZM416.356 251V231.24H422.436L422.196 236.48H422.276C423.276 232.72 425.596 230.92 430.076 230.92C434.836 230.92 437.916 233.52 437.916 238.64V251H431.836V240C431.836 237.2 430.236 235.96 427.556 235.96C424.356 235.96 422.436 237.84 422.436 241.6V251H416.356ZM455.09 247.4C459.57 247.4 462.21 249.36 462.21 252.64C462.21 257.16 458.17 259.56 451.33 259.56C444.37 259.56 440.25 257.64 440.25 254.36C440.25 252.28 441.61 251 443.81 250.76V250.72C442.61 249.96 441.97 248.88 441.97 247.48C441.97 245.6 442.93 244.44 444.41 243.76V243.72C442.33 242.52 441.17 240.56 441.17 238C441.17 233.56 444.61 230.92 450.41 230.92C452.73 230.92 454.65 231.32 456.13 232.12L456.17 232.04C455.37 231.32 455.01 230.52 455.01 229.8C455.01 228.16 456.65 227.2 459.17 227.2C460.25 227.2 460.81 227.28 461.37 227.4V231.24C461.01 231.16 460.61 231.12 460.17 231.12C458.89 231.12 458.29 231.68 458.29 232.6C458.29 233.08 458.45 233.68 458.73 234.4C459.37 235.4 459.69 236.6 459.69 238C459.69 242.44 456.25 245.04 450.41 245.04C449.21 245.04 448.13 244.92 447.13 244.72C446.97 244.96 446.77 245.44 446.77 246C446.77 246.88 447.49 247.4 448.69 247.4H455.09ZM450.41 234.76C448.21 234.76 446.89 235.96 446.89 238C446.89 240 448.21 241.2 450.41 241.2C452.65 241.2 453.97 240 453.97 238C453.97 235.96 452.65 234.76 450.41 234.76ZM451.25 255.88C454.33 255.88 456.13 255.04 456.13 253.48C456.13 252.4 455.33 251.8 453.57 251.8H448.89C447.25 251.8 446.29 252.48 446.29 253.6C446.29 255.08 448.13 255.88 451.25 255.88Z" fill="black"/>
<path d="M35.44 280C35.44 276.76 35.992 275.8 40.168 273.856C44.128 272.008 44.752 271.048 44.752 268.96C44.752 267.088 43.432 265.768 41.224 265.768C38.728 265.768 37.36 267.328 37.36 269.776C37.36 270.52 37.432 271.24 37.504 271.6H35.68C35.608 271.24 35.536 270.496 35.536 269.68C35.536 266.2 37.624 263.992 41.272 263.992C44.632 263.992 46.72 266.032 46.72 268.96C46.72 271.36 45.832 273.016 41.224 275.176C37.84 276.76 37.456 277.24 37.456 278.224H47.008V280H35.44ZM55.7324 280.216C51.8204 280.216 49.5644 277.072 49.5644 272.032C49.5644 267.088 51.8204 263.992 55.7324 263.992C59.6444 263.992 61.9004 267.088 61.9004 272.032C61.9004 277.072 59.6444 280.216 55.7324 280.216ZM55.7324 278.44C58.4444 278.44 59.9324 275.992 59.9324 272.032C59.9324 268.168 58.4444 265.768 55.7324 265.768C53.0204 265.768 51.5324 268.168 51.5324 272.032C51.5324 275.992 53.0204 278.44 55.7324 278.44ZM70.2168 280.216C66.3048 280.216 64.0488 277.072 64.0488 272.032C64.0488 267.088 66.3048 263.992 70.2168 263.992C74.1288 263.992 76.3848 267.088 76.3848 272.032C76.3848 277.072 74.1288 280.216 70.2168 280.216ZM70.2168 278.44C72.9288 278.44 74.4168 275.992 74.4168 272.032C74.4168 268.168 72.9288 265.768 70.2168 265.768C67.5048 265.768 66.0168 268.168 66.0168 272.032C66.0168 275.992 67.5048 278.44 70.2168 278.44ZM86.9811 280V276.28H78.3171V274.504L86.7171 264.208H88.9491V274.504H91.5651V276.28H88.9491V280H86.9811ZM80.4291 274.504H86.9811V266.512H86.9571L80.4291 274.48V274.504ZM92.8015 273.904V272.512H98.1295V273.904H92.8015ZM100.432 280C100.432 276.76 100.984 275.8 105.16 273.856C109.12 272.008 109.744 271.048 109.744 268.96C109.744 267.088 108.424 265.768 106.216 265.768C103.72 265.768 102.352 267.328 102.352 269.776C102.352 270.52 102.424 271.24 102.496 271.6H100.672C100.6 271.24 100.528 270.496 100.528 269.68C100.528 266.2 102.616 263.992 106.264 263.992C109.624 263.992 111.712 266.032 111.712 268.96C111.712 271.36 110.824 273.016 106.216 275.176C102.832 276.76 102.448 277.24 102.448 278.224H112V280H100.432ZM120.725 280.216C116.813 280.216 114.557 277.072 114.557 272.032C114.557 267.088 116.813 263.992 120.725 263.992C124.637 263.992 126.893 267.088 126.893 272.032C126.893 277.072 124.637 280.216 120.725 280.216ZM120.725 278.44C123.437 278.44 124.925 275.992 124.925 272.032C124.925 268.168 123.437 265.768 120.725 265.768C118.013 265.768 116.525 268.168 116.525 272.032C116.525 275.992 118.013 278.44 120.725 278.44ZM135.209 280.216C131.297 280.216 129.041 277.072 129.041 272.032C129.041 267.088 131.297 263.992 135.209 263.992C139.121 263.992 141.377 267.088 141.377 272.032C141.377 277.072 139.121 280.216 135.209 280.216ZM135.209 278.44C137.921 278.44 139.409 275.992 139.409 272.032C139.409 268.168 137.921 265.768 135.209 265.768C132.497 265.768 131.009 268.168 131.009 272.032C131.009 275.992 132.497 278.44 135.209 278.44ZM145.997 280C147.317 274.384 149.981 269.776 153.749 266.056V266.032H143.405V264.208H156.029V265.864C151.229 270.688 149.573 274.384 148.253 280H145.997Z" fill="#07093B"/>
<ellipse cx="237.648" cy="7" rx="6.67568" ry="7" fill="#D9D9D9"/>
<defs>
<filter id="filter0_d_766_5237" x="0" y="58" width="502" height="270" filterUnits="userSpaceOnUse" color-interpolation-filters="sRGB">
<feFlood flood-opacity="0" result="BackgroundImageFix"/>
<feColorMatrix in="SourceAlpha" type="matrix" values="0 0 0 0 0 0 0 0 0 0 0 0 0 0 0 0 0 0 127 0" result="hardAlpha"/>
<feOffset dy="4"/>
<feGaussianBlur stdDeviation="2"/>
<feComposite in2="hardAlpha" operator="out"/>
<feColorMatrix type="matrix" values="0 0 0 0 0 0 0 0 0 0 0 0 0 0 0 0 0 0 0.25 0"/>
<feBlend mode="normal" in2="BackgroundImageFix" result="effect1_dropShadow_766_5237"/>
<feBlend mode="normal" in="SourceGraphic" in2="effect1_dropShadow_766_5237" result="shape"/>
</filter>
</defs>
</svg>
