<svg width="502" height="328" viewBox="0 0 502 328" fill="none" xmlns="http://www.w3.org/2000/svg">
<line y1="-2" x2="65.9881" y2="-2" transform="matrix(0.47692 -0.878947 0.858775 0.512352 209.039 63)" stroke="#614718" stroke-width="4"/>
<path d="M267.916 62.0107L236.445 4.01074" stroke="#614718" stroke-width="4"/>
<g filter="url(#filter0_d_747_3357)">
<rect x="15.5" y="69.5" width="471" height="239" stroke="#DFC392" stroke-width="23" shape-rendering="crispEdges"/>
</g>
<path d="M263.628 135V108.68H275.228C281.428 108.68 285.108 111.24 285.108 115.56C285.108 118.48 283.708 120.56 281.348 121.2V121.24C284.188 121.88 286.108 124 286.108 127.32C286.108 132.16 282.708 135 276.068 135H263.628ZM270.188 119.6H275.668C278.028 119.6 279.348 118.56 279.348 116.6C279.348 114.64 278.028 113.44 275.188 113.44H270.188V119.6ZM270.188 130.24H276.068C278.468 130.24 279.868 128.88 279.868 126.64C279.868 124.8 278.428 123.56 275.908 123.56H270.188V130.24ZM299.178 135.32C292.658 135.32 288.418 131.56 288.418 125.16C288.418 118.72 292.658 114.92 299.178 114.92C305.698 114.92 309.938 118.72 309.938 125.16C309.938 131.56 305.698 135.32 299.178 135.32ZM299.178 130.68C302.138 130.68 303.858 128.64 303.858 125.16C303.858 121.64 302.138 119.56 299.178 119.56C296.218 119.56 294.498 121.64 294.498 125.16C294.498 128.64 296.218 130.68 299.178 130.68ZM312.686 135V107.28H318.766V135H312.686ZM322.063 113.16V108.32H328.143V113.16H322.063ZM322.063 135V115.24H328.143V135H322.063ZM345.676 131.4C350.156 131.4 352.796 133.36 352.796 136.64C352.796 141.16 348.756 143.56 341.916 143.56C334.956 143.56 330.836 141.64 330.836 138.36C330.836 136.28 332.196 135 334.396 134.76V134.72C333.196 133.96 332.556 132.88 332.556 131.48C332.556 129.6 333.516 128.44 334.996 127.76V127.72C332.916 126.52 331.756 124.56 331.756 122C331.756 117.56 335.196 114.92 340.996 114.92C343.316 114.92 345.236 115.32 346.716 116.12L346.756 116.04C345.956 115.32 345.596 114.52 345.596 113.8C345.596 112.16 347.236 111.2 349.756 111.2C350.836 111.2 351.396 111.28 351.956 111.4V115.24C351.596 115.16 351.196 115.12 350.756 115.12C349.476 115.12 348.876 115.68 348.876 116.6C348.876 117.08 349.036 117.68 349.316 118.4C349.956 119.4 350.276 120.6 350.276 122C350.276 126.44 346.836 129.04 340.996 129.04C339.796 129.04 338.716 128.92 337.716 128.72C337.556 128.96 337.356 129.44 337.356 130C337.356 130.88 338.076 131.4 339.276 131.4H345.676ZM340.996 118.76C338.796 118.76 337.476 119.96 337.476 122C337.476 124 338.796 125.2 340.996 125.2C343.236 125.2 344.556 124 344.556 122C344.556 119.96 343.236 118.76 340.996 118.76ZM341.836 139.88C344.916 139.88 346.716 139.04 346.716 137.48C346.716 136.4 345.916 135.8 344.156 135.8H339.476C337.836 135.8 336.876 136.48 336.876 137.6C336.876 139.08 338.716 139.88 341.836 139.88ZM364.001 135.32C357.041 135.32 354.121 132.36 354.121 128.36H359.561C359.561 130.2 360.481 131.4 363.961 131.4C367.121 131.4 368.241 130.48 368.241 129.04C368.241 128.32 367.881 127.76 366.841 127.52C365.801 127.28 364.201 127.12 362.241 126.96C359.401 126.72 357.201 126.28 356.001 125.44C354.881 124.64 354.121 123.2 354.121 121.56C354.121 117.28 358.521 114.92 364.001 114.92C370.481 114.92 373.441 117.4 373.441 122H368.081C368.041 119.92 367.081 118.84 364.081 118.84C361.361 118.84 360.161 119.76 360.161 121.12C360.161 121.96 360.481 122.6 361.601 122.88C362.601 123.12 364.361 123.28 366.481 123.48C368.921 123.72 370.641 123.96 372.121 124.8C373.401 125.52 374.321 127 374.321 128.72C374.321 132.88 370.761 135.32 364.001 135.32ZM387.42 135.32C380.9 135.32 376.66 131.56 376.66 125.16C376.66 118.72 380.9 114.92 387.42 114.92C393.94 114.92 398.18 118.72 398.18 125.16C398.18 131.56 393.94 135.32 387.42 135.32ZM387.42 130.68C390.38 130.68 392.1 128.64 392.1 125.16C392.1 121.64 390.38 119.56 387.42 119.56C384.46 119.56 382.74 121.64 382.74 125.16C382.74 128.64 384.46 130.68 387.42 130.68ZM410.528 135.32C404.608 135.32 400.488 131.56 400.488 125.16C400.488 118.72 404.688 114.92 410.768 114.92C416.568 114.92 420.368 118.16 420.368 123.64H415.008C414.968 121.08 413.448 119.56 410.968 119.56C408.128 119.56 406.568 121.52 406.568 125.12C406.568 128.6 408.168 130.68 410.848 130.68C413.448 130.68 415.008 129.2 415.048 126.68H420.408C420.408 132.36 416.368 135.32 410.528 135.32ZM423.235 113.16V108.32H429.315V113.16H423.235ZM423.235 135V115.24H429.315V135H423.235ZM440.088 135.32C435.488 135.32 432.288 133.32 432.288 129.32C432.288 126.08 434.608 123.72 439.848 123.72H446.288V122.4C446.288 120 444.928 119.04 442.128 119.04C439.848 119.04 438.528 120 438.528 121.6C438.528 121.72 438.528 122.04 438.568 122.44H432.968C432.928 122.12 432.888 121.68 432.888 121.28C432.888 117.28 436.408 114.92 442.408 114.92C448.688 114.92 452.368 117.72 452.368 123V135H446.288C446.408 134 446.568 132.2 446.568 131H446.528C445.928 133.8 443.688 135.32 440.088 135.32ZM441.288 131.2C444.448 131.2 446.288 129.8 446.288 127.4V127H440.408C438.768 127 437.768 127.76 437.768 128.88C437.768 130.4 439.088 131.2 441.288 131.2ZM455.303 135V107.28H461.383V135H455.303ZM202.495 193V166.68H213.815C220.535 166.68 224.575 169.84 224.575 176.2C224.575 182.04 221.295 185.48 214.415 185.48H209.055V193H202.495ZM209.055 181.08H214.135C216.895 181.08 218.415 179.6 218.415 176.52C218.415 173.52 216.735 171.84 213.615 171.84H209.055V181.08ZM227.02 193V173.24H233.1L232.86 178.88H232.94C233.78 175.12 235.9 172.92 239.78 172.92C243.82 172.92 246.18 175.52 246.18 180.64C246.18 181.76 246.06 183.52 245.98 184.56H240.46C240.54 183.6 240.58 182.6 240.58 182C240.58 179.12 239.42 177.96 237.5 177.96C234.9 177.96 233.1 180.08 233.1 184.48V193H227.02ZM259.178 193.32C252.658 193.32 248.418 189.56 248.418 183.16C248.418 176.72 252.658 172.92 259.178 172.92C265.698 172.92 269.938 176.72 269.938 183.16C269.938 189.56 265.698 193.32 259.178 193.32ZM259.178 188.68C262.138 188.68 263.858 186.64 263.858 183.16C263.858 179.64 262.138 177.56 259.178 177.56C256.218 177.56 254.498 179.64 254.498 183.16C254.498 186.64 256.218 188.68 259.178 188.68ZM272.726 171.16V166.32H278.846V171.16H272.726ZM271.406 201.4C268.846 201.4 267.486 201.12 267.006 201V196.44C267.886 196.6 268.606 196.68 269.566 196.68C271.766 196.68 272.726 195.4 272.726 193.28V173.24H278.806V193.6C278.806 198.52 276.046 201.4 271.406 201.4ZM301.859 182.56V184.28H287.819C288.099 187.52 289.739 188.92 292.459 188.92C294.819 188.92 296.339 188.08 296.499 186.16H301.859C301.739 190.68 297.979 193.32 292.339 193.32C285.779 193.32 281.699 189.6 281.699 183.32C281.699 176.8 285.779 172.92 292.459 172.92C297.979 172.92 301.859 176.08 301.859 182.56ZM296.499 181.04V180.72C296.499 178.48 294.979 177.32 292.459 177.32C289.899 177.32 288.459 178.44 287.979 181.04H296.499ZM304.6 193V165.28H310.68V182.76H310.72L319.16 173.24H326.56L318.24 181.84L327.04 193H319.04L313.88 185.72L310.68 188.96V193H304.6ZM338.701 193.32C332.541 193.32 330.341 190.6 330.341 186.2V177.96H327.421V173.24H329.781C330.701 173.24 331.021 172.72 331.141 171.52L331.421 168.76H336.421V173.24H342.741V177.96H336.421V185.88C336.421 187.92 337.381 188.56 339.781 188.56C340.621 188.56 341.861 188.44 342.541 188.28V192.88C342.021 193 340.341 193.32 338.701 193.32ZM345.381 193V165.28H351.461V193H345.381ZM374.398 182.56V184.28H360.358C360.638 187.52 362.278 188.92 364.998 188.92C367.358 188.92 368.878 188.08 369.038 186.16H374.398C374.278 190.68 370.518 193.32 364.878 193.32C358.318 193.32 354.238 189.6 354.238 183.32C354.238 176.8 358.318 172.92 364.998 172.92C370.518 172.92 374.398 176.08 374.398 182.56ZM369.038 181.04V180.72C369.038 178.48 367.518 177.32 364.998 177.32C362.438 177.32 360.998 178.44 360.518 181.04H369.038ZM385.979 193.32C380.259 193.32 376.699 189.16 376.699 182.96C376.699 176.92 380.459 172.92 386.219 172.92C389.419 172.92 391.499 174.12 392.379 176.16H392.419V165.28H398.499V193H392.419C392.459 192.6 392.539 190.88 392.659 188.76H392.579C391.819 191.56 389.579 193.32 385.979 193.32ZM387.379 188.68C390.419 188.68 392.419 186.52 392.419 183.28V182.32C392.419 179.48 390.419 177.56 387.459 177.56C384.619 177.56 382.739 179.72 382.739 183C382.739 186.36 384.579 188.68 387.379 188.68ZM421.429 182.56V184.28H407.389C407.669 187.52 409.309 188.92 412.029 188.92C414.389 188.92 415.909 188.08 416.069 186.16H421.429C421.309 190.68 417.549 193.32 411.909 193.32C405.349 193.32 401.269 189.6 401.269 183.32C401.269 176.8 405.349 172.92 412.029 172.92C417.549 172.92 421.429 176.08 421.429 182.56ZM416.069 181.04V180.72C416.069 178.48 414.549 177.32 412.029 177.32C409.469 177.32 408.029 178.44 407.549 181.04H416.069ZM424.09 193V173.24H430.17L429.93 178.88H430.01C430.85 175.12 432.97 172.92 436.85 172.92C440.89 172.92 443.25 175.52 443.25 180.64C443.25 181.76 443.13 183.52 443.05 184.56H437.53C437.61 183.6 437.65 182.6 437.65 182C437.65 179.12 436.49 177.96 434.57 177.96C431.97 177.96 430.17 180.08 430.17 184.48V193H424.09ZM455.227 171.16V166.32H461.307V171.16H455.227ZM455.227 193V173.24H461.307V193H455.227ZM67.4563 251V224.68H79.0563C85.2563 224.68 88.9363 227.24 88.9363 231.56C88.9363 234.48 87.5363 236.56 85.1763 237.2V237.24C88.0163 237.88 89.9363 240 89.9363 243.32C89.9363 248.16 86.5363 251 79.8963 251H67.4563ZM74.0163 235.6H79.4963C81.8563 235.6 83.1763 234.56 83.1763 232.6C83.1763 230.64 81.8563 229.44 79.0163 229.44H74.0163V235.6ZM74.0163 246.24H79.8963C82.2963 246.24 83.6963 244.88 83.6963 242.64C83.6963 240.8 82.2563 239.56 79.7363 239.56H74.0163V246.24ZM103.006 251.32C96.4859 251.32 92.2459 247.56 92.2459 241.16C92.2459 234.72 96.4859 230.92 103.006 230.92C109.526 230.92 113.766 234.72 113.766 241.16C113.766 247.56 109.526 251.32 103.006 251.32ZM103.006 246.68C105.966 246.68 107.686 244.64 107.686 241.16C107.686 237.64 105.966 235.56 103.006 235.56C100.046 235.56 98.3259 237.64 98.3259 241.16C98.3259 244.64 100.046 246.68 103.006 246.68ZM116.514 251V223.28H122.594V251H116.514ZM125.891 229.16V224.32H131.971V229.16H125.891ZM125.891 251V231.24H131.971V251H125.891ZM149.504 247.4C153.984 247.4 156.624 249.36 156.624 252.64C156.624 257.16 152.584 259.56 145.744 259.56C138.784 259.56 134.664 257.64 134.664 254.36C134.664 252.28 136.024 251 138.224 250.76V250.72C137.024 249.96 136.384 248.88 136.384 247.48C136.384 245.6 137.344 244.44 138.824 243.76V243.72C136.744 242.52 135.584 240.56 135.584 238C135.584 233.56 139.024 230.92 144.824 230.92C147.144 230.92 149.064 231.32 150.544 232.12L150.584 232.04C149.784 231.32 149.424 230.52 149.424 229.8C149.424 228.16 151.064 227.2 153.584 227.2C154.664 227.2 155.224 227.28 155.784 227.4V231.24C155.424 231.16 155.024 231.12 154.584 231.12C153.304 231.12 152.704 231.68 152.704 232.6C152.704 233.08 152.864 233.68 153.144 234.4C153.784 235.4 154.104 236.6 154.104 238C154.104 242.44 150.664 245.04 144.824 245.04C143.624 245.04 142.544 244.92 141.544 244.72C141.384 244.96 141.184 245.44 141.184 246C141.184 246.88 141.904 247.4 143.104 247.4H149.504ZM144.824 234.76C142.624 234.76 141.304 235.96 141.304 238C141.304 240 142.624 241.2 144.824 241.2C147.064 241.2 148.384 240 148.384 238C148.384 235.96 147.064 234.76 144.824 234.76ZM145.664 255.88C148.744 255.88 150.544 255.04 150.544 253.48C150.544 252.4 149.744 251.8 147.984 251.8H143.304C141.664 251.8 140.704 252.48 140.704 253.6C140.704 255.08 142.544 255.88 145.664 255.88ZM161.005 251V235.96H158.085V231.24H161.005V229.32C161.005 224.76 164.325 222.44 168.805 222.44C170.805 222.44 172.525 222.88 173.045 223.08V227.56C172.525 227.4 171.445 227.08 170.045 227.08C168.045 227.08 167.085 228 167.085 229.76V231.24H173.365V235.96H167.085V251H161.005ZM184.803 251.32C178.283 251.32 174.043 247.56 174.043 241.16C174.043 234.72 178.283 230.92 184.803 230.92C191.323 230.92 195.563 234.72 195.563 241.16C195.563 247.56 191.323 251.32 184.803 251.32ZM184.803 246.68C187.763 246.68 189.483 244.64 189.483 241.16C189.483 237.64 187.763 235.56 184.803 235.56C181.843 235.56 180.123 237.64 180.123 241.16C180.123 244.64 181.843 246.68 184.803 246.68ZM198.231 251V231.24H204.311L204.071 236.88H204.151C204.991 233.12 207.111 230.92 210.991 230.92C215.031 230.92 217.391 233.52 217.391 238.64C217.391 239.76 217.271 241.52 217.191 242.56H211.671C211.751 241.6 211.791 240.6 211.791 240C211.791 237.12 210.631 235.96 208.711 235.96C206.111 235.96 204.311 238.08 204.311 242.48V251H198.231ZM239.789 240.56V242.28H225.749C226.029 245.52 227.669 246.92 230.389 246.92C232.749 246.92 234.269 246.08 234.429 244.16H239.789C239.669 248.68 235.909 251.32 230.269 251.32C223.709 251.32 219.629 247.6 219.629 241.32C219.629 234.8 223.709 230.92 230.389 230.92C235.909 230.92 239.789 234.08 239.789 240.56ZM234.429 239.04V238.72C234.429 236.48 232.909 235.32 230.389 235.32C227.829 235.32 226.389 236.44 225.909 239.04H234.429ZM242.45 251V231.24H248.53L248.29 236.48H248.37C249.37 232.72 251.69 230.92 256.17 230.92C260.93 230.92 264.01 233.52 264.01 238.64V251H257.93V240C257.93 237.2 256.33 235.96 253.65 235.96C250.45 235.96 248.53 237.84 248.53 241.6V251H242.45ZM267.024 229.16V224.32H273.104V229.16H267.024ZM267.024 251V231.24H273.104V251H267.024ZM276.317 251V231.24H282.397L282.157 236.48H282.237C283.237 232.72 285.557 230.92 290.037 230.92C294.797 230.92 297.877 233.52 297.877 238.64V251H291.797V240C291.797 237.2 290.197 235.96 287.517 235.96C284.317 235.96 282.397 237.84 282.397 241.6V251H276.317ZM315.051 247.4C319.531 247.4 322.171 249.36 322.171 252.64C322.171 257.16 318.131 259.56 311.291 259.56C304.331 259.56 300.211 257.64 300.211 254.36C300.211 252.28 301.571 251 303.771 250.76V250.72C302.571 249.96 301.931 248.88 301.931 247.48C301.931 245.6 302.891 244.44 304.371 243.76V243.72C302.291 242.52 301.131 240.56 301.131 238C301.131 233.56 304.571 230.92 310.371 230.92C312.691 230.92 314.611 231.32 316.091 232.12L316.131 232.04C315.331 231.32 314.971 230.52 314.971 229.8C314.971 228.16 316.611 227.2 319.131 227.2C320.211 227.2 320.771 227.28 321.331 227.4V231.24C320.971 231.16 320.571 231.12 320.131 231.12C318.851 231.12 318.251 231.68 318.251 232.6C318.251 233.08 318.411 233.68 318.691 234.4C319.331 235.4 319.651 236.6 319.651 238C319.651 242.44 316.211 245.04 310.371 245.04C309.171 245.04 308.091 244.92 307.091 244.72C306.931 244.96 306.731 245.44 306.731 246C306.731 246.88 307.451 247.4 308.651 247.4H315.051ZM310.371 234.76C308.171 234.76 306.851 235.96 306.851 238C306.851 240 308.171 241.2 310.371 241.2C312.611 241.2 313.931 240 313.931 238C313.931 235.96 312.611 234.76 310.371 234.76ZM311.211 255.88C314.291 255.88 316.091 255.04 316.091 253.48C316.091 252.4 315.291 251.8 313.531 251.8H308.851C307.211 251.8 306.251 252.48 306.251 253.6C306.251 255.08 308.091 255.88 311.211 255.88ZM343.109 240.56V242.28H329.069C329.349 245.52 330.989 246.92 333.709 246.92C336.069 246.92 337.589 246.08 337.749 244.16H343.109C342.989 248.68 339.229 251.32 333.589 251.32C327.029 251.32 322.949 247.6 322.949 241.32C322.949 234.8 327.029 230.92 333.709 230.92C339.229 230.92 343.109 234.08 343.109 240.56ZM337.749 239.04V238.72C337.749 236.48 336.229 235.32 333.709 235.32C331.149 235.32 329.709 236.44 329.229 239.04H337.749ZM345.77 251V231.24H351.85L351.61 236.48H351.69C352.69 232.72 355.01 230.92 359.49 230.92C364.25 230.92 367.33 233.52 367.33 238.64V251H361.25V240C361.25 237.2 359.65 235.96 356.97 235.96C353.77 235.96 351.85 237.84 351.85 241.6V251H345.77ZM399.403 251L397.603 245.64H387.083L385.283 251H378.563L388.723 224.68H396.883L407.043 251H399.403ZM388.443 241.56H396.243L392.363 230.04H392.283L388.443 241.56ZM429.247 251L427.447 245.64H416.927L415.127 251H408.407L418.567 224.68H426.727L436.887 251H429.247ZM418.287 241.56H426.087L422.207 230.04H422.127L418.287 241.56ZM439.37 251V224.68H450.97C457.17 224.68 460.85 227.24 460.85 231.56C460.85 234.48 459.45 236.56 457.09 237.2V237.24C459.93 237.88 461.85 240 461.85 243.32C461.85 248.16 458.45 251 451.81 251H439.37ZM445.93 235.6H451.41C453.77 235.6 455.09 234.56 455.09 232.6C455.09 230.64 453.77 229.44 450.93 229.44H445.93V235.6ZM445.93 246.24H451.81C454.21 246.24 455.61 244.88 455.61 242.64C455.61 240.8 454.17 239.56 451.65 239.56H445.93V246.24Z" fill="black"/>
<path d="M35.44 280C35.44 276.76 35.992 275.8 40.168 273.856C44.128 272.008 44.752 271.048 44.752 268.96C44.752 267.088 43.432 265.768 41.224 265.768C38.728 265.768 37.36 267.328 37.36 269.776C37.36 270.52 37.432 271.24 37.504 271.6H35.68C35.608 271.24 35.536 270.496 35.536 269.68C35.536 266.2 37.624 263.992 41.272 263.992C44.632 263.992 46.72 266.032 46.72 268.96C46.72 271.36 45.832 273.016 41.224 275.176C37.84 276.76 37.456 277.24 37.456 278.224H47.008V280H35.44ZM55.7324 280.216C51.8204 280.216 49.5644 277.072 49.5644 272.032C49.5644 267.088 51.8204 263.992 55.7324 263.992C59.6444 263.992 61.9004 267.088 61.9004 272.032C61.9004 277.072 59.6444 280.216 55.7324 280.216ZM55.7324 278.44C58.4444 278.44 59.9324 275.992 59.9324 272.032C59.9324 268.168 58.4444 265.768 55.7324 265.768C53.0204 265.768 51.5324 268.168 51.5324 272.032C51.5324 275.992 53.0204 278.44 55.7324 278.44ZM64.3608 280V278.224H69.6888V269.776H66.0648V268.312L68.2728 268.264C69.7368 268.24 69.9048 267.88 69.9288 264.04H71.6568V278.224H76.0728V280H64.3608ZM78.8451 280V278.224H84.1731V269.776H80.5491V268.312L82.7571 268.264C84.2211 268.24 84.3891 267.88 84.4131 264.04H86.1411V278.224H90.5571V280H78.8451ZM92.8015 273.904V272.512H98.1295V273.904H92.8015ZM100.432 280C100.432 276.76 100.984 275.8 105.16 273.856C109.12 272.008 109.744 271.048 109.744 268.96C109.744 267.088 108.424 265.768 106.216 265.768C103.72 265.768 102.352 267.328 102.352 269.776C102.352 270.52 102.424 271.24 102.496 271.6H100.672C100.6 271.24 100.528 270.496 100.528 269.68C100.528 266.2 102.616 263.992 106.264 263.992C109.624 263.992 111.712 266.032 111.712 268.96C111.712 271.36 110.824 273.016 106.216 275.176C102.832 276.76 102.448 277.24 102.448 278.224H112V280H100.432ZM120.725 280.216C116.813 280.216 114.557 277.072 114.557 272.032C114.557 267.088 116.813 263.992 120.725 263.992C124.637 263.992 126.893 267.088 126.893 272.032C126.893 277.072 124.637 280.216 120.725 280.216ZM120.725 278.44C123.437 278.44 124.925 275.992 124.925 272.032C124.925 268.168 123.437 265.768 120.725 265.768C118.013 265.768 116.525 268.168 116.525 272.032C116.525 275.992 118.013 278.44 120.725 278.44ZM129.353 280V278.224H134.681V269.776H131.057V268.312L133.265 268.264C134.729 268.24 134.897 267.88 134.921 264.04H136.649V278.224H141.065V280H129.353ZM149.501 280.216C145.853 280.216 143.525 278.344 143.525 275.272C143.525 274.936 143.573 274.456 143.597 274.192H145.421C145.397 274.6 145.397 274.84 145.397 274.96C145.397 277.24 146.861 278.44 149.501 278.44C152.213 278.44 153.869 277.192 153.869 275.032C153.869 273.448 152.741 272.632 150.821 272.632H148.349V271.192H150.437C152.261 271.192 153.197 270.208 153.197 268.672C153.197 266.848 151.805 265.768 149.693 265.768C147.149 265.768 145.757 267.04 145.757 269.056C145.757 269.488 145.781 269.824 145.805 270.064H143.981C143.933 269.824 143.885 269.296 143.885 268.768C143.885 265.864 146.045 263.992 149.693 263.992C152.981 263.992 155.117 265.672 155.117 268.456C155.117 270.016 154.229 271.288 152.861 271.6V271.648C154.685 271.888 155.837 273.256 155.837 275.152C155.837 278.248 153.413 280.216 149.501 280.216Z" fill="#07093B"/>
<ellipse cx="237.648" cy="7" rx="6.67568" ry="7" fill="#D9D9D9"/>
<defs>
<filter id="filter0_d_747_3357" x="0" y="58" width="502" height="270" filterUnits="userSpaceOnUse" color-interpolation-filters="sRGB">
<feFlood flood-opacity="0" result="BackgroundImageFix"/>
<feColorMatrix in="SourceAlpha" type="matrix" values="0 0 0 0 0 0 0 0 0 0 0 0 0 0 0 0 0 0 127 0" result="hardAlpha"/>
<feOffset dy="4"/>
<feGaussianBlur stdDeviation="2"/>
<feComposite in2="hardAlpha" operator="out"/>
<feColorMatrix type="matrix" values="0 0 0 0 0 0 0 0 0 0 0 0 0 0 0 0 0 0 0.25 0"/>
<feBlend mode="normal" in2="BackgroundImageFix" result="effect1_dropShadow_747_3357"/>
<feBlend mode="normal" in="SourceGraphic" in2="effect1_dropShadow_747_3357" result="shape"/>
</filter>
</defs>
</svg>
