<svg width="502" height="328" viewBox="0 0 502 328" fill="none" xmlns="http://www.w3.org/2000/svg">
<line y1="-2" x2="65.9881" y2="-2" transform="matrix(0.47692 -0.878947 0.858775 0.512352 209.039 63)" stroke="#614718" stroke-width="4"/>
<path d="M267.916 62.0107L236.445 4.01074" stroke="#614718" stroke-width="4"/>
<g filter="url(#filter0_d_766_5221)">
<rect x="15.5" y="69.5" width="471" height="239" stroke="#DFC392" stroke-width="23" shape-rendering="crispEdges"/>
</g>
<path d="M253.394 135V108.68H264.714C271.434 108.68 275.474 111.84 275.474 118.2C275.474 124.04 272.194 127.48 265.314 127.48H259.954V135H253.394ZM259.954 123.08H265.034C267.794 123.08 269.314 121.6 269.314 118.52C269.314 115.52 267.634 113.84 264.514 113.84H259.954V123.08ZM277.918 135V115.24H283.998L283.758 120.88H283.838C284.678 117.12 286.798 114.92 290.678 114.92C294.718 114.92 297.078 117.52 297.078 122.64C297.078 123.76 296.958 125.52 296.878 126.56H291.358C291.438 125.6 291.478 124.6 291.478 124C291.478 121.12 290.318 119.96 288.398 119.96C285.798 119.96 283.998 122.08 283.998 126.48V135H277.918ZM310.076 135.32C303.556 135.32 299.316 131.56 299.316 125.16C299.316 118.72 303.556 114.92 310.076 114.92C316.596 114.92 320.836 118.72 320.836 125.16C320.836 131.56 316.596 135.32 310.076 135.32ZM310.076 130.68C313.036 130.68 314.756 128.64 314.756 125.16C314.756 121.64 313.036 119.56 310.076 119.56C307.116 119.56 305.396 121.64 305.396 125.16C305.396 128.64 307.116 130.68 310.076 130.68ZM323.624 113.16V108.32H329.744V113.16H323.624ZM322.304 143.4C319.744 143.4 318.384 143.12 317.904 143V138.44C318.784 138.6 319.504 138.68 320.464 138.68C322.664 138.68 323.624 137.4 323.624 135.28V115.24H329.704V135.6C329.704 140.52 326.944 143.4 322.304 143.4ZM352.758 124.56V126.28H338.718C338.998 129.52 340.638 130.92 343.358 130.92C345.718 130.92 347.238 130.08 347.398 128.16H352.758C352.638 132.68 348.878 135.32 343.238 135.32C336.678 135.32 332.598 131.6 332.598 125.32C332.598 118.8 336.678 114.92 343.358 114.92C348.878 114.92 352.758 118.08 352.758 124.56ZM347.398 123.04V122.72C347.398 120.48 345.878 119.32 343.358 119.32C340.798 119.32 339.358 120.44 338.878 123.04H347.398ZM355.498 135V107.28H361.578V124.76H361.618L370.058 115.24H377.458L369.138 123.84L377.938 135H369.938L364.778 127.72L361.578 130.96V135H355.498ZM389.599 135.32C383.439 135.32 381.239 132.6 381.239 128.2V119.96H378.319V115.24H380.679C381.599 115.24 381.919 114.72 382.039 113.52L382.319 110.76H387.319V115.24H393.639V119.96H387.319V127.88C387.319 129.92 388.279 130.56 390.679 130.56C391.519 130.56 392.759 130.44 393.439 130.28V134.88C392.919 135 391.239 135.32 389.599 135.32ZM395.96 125.6V121.76H405.44V125.6H395.96ZM427.85 135.32C421.33 135.32 417.09 131.56 417.09 125.16C417.09 118.72 421.33 114.92 427.85 114.92C434.37 114.92 438.61 118.72 438.61 125.16C438.61 131.56 434.37 135.32 427.85 135.32ZM427.85 130.68C430.81 130.68 432.53 128.64 432.53 125.16C432.53 121.64 430.81 119.56 427.85 119.56C424.89 119.56 423.17 121.64 423.17 125.16C423.17 128.64 424.89 130.68 427.85 130.68ZM455.09 131.4C459.57 131.4 462.21 133.36 462.21 136.64C462.21 141.16 458.17 143.56 451.33 143.56C444.37 143.56 440.25 141.64 440.25 138.36C440.25 136.28 441.61 135 443.81 134.76V134.72C442.61 133.96 441.97 132.88 441.97 131.48C441.97 129.6 442.93 128.44 444.41 127.76V127.72C442.33 126.52 441.17 124.56 441.17 122C441.17 117.56 444.61 114.92 450.41 114.92C452.73 114.92 454.65 115.32 456.13 116.12L456.17 116.04C455.37 115.32 455.01 114.52 455.01 113.8C455.01 112.16 456.65 111.2 459.17 111.2C460.25 111.2 460.81 111.28 461.37 111.4V115.24C461.01 115.16 460.61 115.12 460.17 115.12C458.89 115.12 458.29 115.68 458.29 116.6C458.29 117.08 458.45 117.68 458.73 118.4C459.37 119.4 459.69 120.6 459.69 122C459.69 126.44 456.25 129.04 450.41 129.04C449.21 129.04 448.13 128.92 447.13 128.72C446.97 128.96 446.77 129.44 446.77 130C446.77 130.88 447.49 131.4 448.69 131.4H455.09ZM450.41 118.76C448.21 118.76 446.89 119.96 446.89 122C446.89 124 448.21 125.2 450.41 125.2C452.65 125.2 453.97 124 453.97 122C453.97 119.96 452.65 118.76 450.41 118.76ZM451.25 139.88C454.33 139.88 456.13 139.04 456.13 137.48C456.13 136.4 455.33 135.8 453.57 135.8H448.89C447.25 135.8 446.29 136.48 446.29 137.6C446.29 139.08 448.13 139.88 451.25 139.88ZM73.0756 193.32C66.9156 193.32 64.7156 190.6 64.7156 186.2V177.96H61.7956V173.24H64.1556C65.0756 173.24 65.3956 172.72 65.5156 171.52L65.7956 168.76H70.7956V173.24H77.1156V177.96H70.7956V185.88C70.7956 187.92 71.7556 188.56 74.1556 188.56C74.9956 188.56 76.2356 188.44 76.9156 188.28V192.88C76.3956 193 74.7156 193.32 73.0756 193.32ZM79.6763 193V173.24H85.7563L85.5163 178.88H85.5963C86.4363 175.12 88.5563 172.92 92.4363 172.92C96.4763 172.92 98.8363 175.52 98.8363 180.64C98.8363 181.76 98.7162 183.52 98.6363 184.56H93.1163C93.1963 183.6 93.2363 182.6 93.2363 182C93.2363 179.12 92.0763 177.96 90.1563 177.96C87.5563 177.96 85.7563 180.08 85.7563 184.48V193H79.6763ZM101.594 171.16V166.32H107.674V171.16H101.594ZM101.594 193V173.24H107.674V193H101.594ZM118.327 193L110.047 173.24H117.127L122.207 187.44H122.287L127.487 173.24H133.727L125.567 193H118.327ZM144.704 193.32C137.744 193.32 134.824 190.36 134.824 186.36H140.264C140.264 188.2 141.184 189.4 144.664 189.4C147.824 189.4 148.944 188.48 148.944 187.04C148.944 186.32 148.584 185.76 147.544 185.52C146.504 185.28 144.904 185.12 142.944 184.96C140.104 184.72 137.904 184.28 136.704 183.44C135.584 182.64 134.824 181.2 134.824 179.56C134.824 175.28 139.224 172.92 144.704 172.92C151.184 172.92 154.144 175.4 154.144 180H148.784C148.744 177.92 147.784 176.84 144.784 176.84C142.064 176.84 140.864 177.76 140.864 179.12C140.864 179.96 141.184 180.6 142.304 180.88C143.304 181.12 145.064 181.28 147.184 181.48C149.624 181.72 151.344 181.96 152.824 182.8C154.104 183.52 155.024 185 155.024 186.72C155.024 190.88 151.464 193.32 144.704 193.32ZM177.523 182.56V184.28H163.483C163.763 187.52 165.403 188.92 168.123 188.92C170.483 188.92 172.003 188.08 172.163 186.16H177.523C177.403 190.68 173.643 193.32 168.003 193.32C161.443 193.32 157.363 189.6 157.363 183.32C157.363 176.8 161.443 172.92 168.123 172.92C173.643 172.92 177.523 176.08 177.523 182.56ZM172.163 181.04V180.72C172.163 178.48 170.643 177.32 168.123 177.32C165.563 177.32 164.123 178.44 163.643 181.04H172.163ZM180.264 193V165.28H186.344V193H180.264ZM199.001 193.32C192.041 193.32 189.121 190.36 189.121 186.36H194.561C194.561 188.2 195.481 189.4 198.961 189.4C202.121 189.4 203.241 188.48 203.241 187.04C203.241 186.32 202.881 185.76 201.841 185.52C200.801 185.28 199.201 185.12 197.241 184.96C194.401 184.72 192.201 184.28 191.001 183.44C189.881 182.64 189.121 181.2 189.121 179.56C189.121 175.28 193.521 172.92 199.001 172.92C205.481 172.92 208.441 175.4 208.441 180H203.081C203.041 177.92 202.081 176.84 199.081 176.84C196.361 176.84 195.161 177.76 195.161 179.12C195.161 179.96 195.481 180.6 196.601 180.88C197.601 181.12 199.361 181.28 201.481 181.48C203.921 181.72 205.641 181.96 207.121 182.8C208.401 183.52 209.321 185 209.321 186.72C209.321 190.88 205.761 193.32 199.001 193.32ZM212.02 193V173.24H218.1L217.9 178.36H217.94C218.86 174.96 221.1 172.92 224.7 172.92C228.5 172.92 230.94 174.88 231.38 178.08H231.42C232.22 174.88 234.38 172.92 238.18 172.92C242.5 172.92 244.94 175.64 244.94 180.28V193H238.86V181.68C238.86 179.36 237.66 177.96 235.58 177.96C233.18 177.96 231.5 179.8 231.5 183.44V193H225.42V181.68C225.42 179.36 224.22 177.96 222.14 177.96C219.78 177.96 218.1 179.84 218.1 183.56V193H212.02ZM267.562 182.56V184.28H253.522C253.802 187.52 255.442 188.92 258.162 188.92C260.522 188.92 262.042 188.08 262.202 186.16H267.562C267.442 190.68 263.682 193.32 258.042 193.32C251.482 193.32 247.402 189.6 247.402 183.32C247.402 176.8 251.482 172.92 258.162 172.92C263.682 172.92 267.562 176.08 267.562 182.56ZM262.202 181.04V180.72C262.202 178.48 260.682 177.32 258.162 177.32C255.602 177.32 254.162 178.44 253.682 181.04H262.202ZM279.143 193.32C273.423 193.32 269.863 189.16 269.863 182.96C269.863 176.92 273.623 172.92 279.383 172.92C282.583 172.92 284.663 174.12 285.543 176.16H285.583V165.28H291.663V193H285.583C285.623 192.6 285.703 190.88 285.823 188.76H285.743C284.983 191.56 282.743 193.32 279.143 193.32ZM280.543 188.68C283.583 188.68 285.583 186.52 285.583 183.28V182.32C285.583 179.48 283.583 177.56 280.623 177.56C277.783 177.56 275.903 179.72 275.903 183C275.903 186.36 277.743 188.68 280.543 188.68ZM302.353 193.32C297.753 193.32 294.553 191.32 294.553 187.32C294.553 184.08 296.873 181.72 302.113 181.72H308.553V180.4C308.553 178 307.193 177.04 304.393 177.04C302.113 177.04 300.793 178 300.793 179.6C300.793 179.72 300.793 180.04 300.833 180.44H295.233C295.193 180.12 295.153 179.68 295.153 179.28C295.153 175.28 298.673 172.92 304.673 172.92C310.953 172.92 314.633 175.72 314.633 181V193H308.553C308.673 192 308.833 190.2 308.833 189H308.793C308.193 191.8 305.953 193.32 302.353 193.32ZM303.553 189.2C306.713 189.2 308.553 187.8 308.553 185.4V185H302.673C301.033 185 300.033 185.76 300.033 186.88C300.033 188.4 301.353 189.2 303.553 189.2ZM317.489 193V173.24H323.569L323.329 178.88H323.409C324.249 175.12 326.369 172.92 330.249 172.92C334.289 172.92 336.649 175.52 336.649 180.64C336.649 181.76 336.529 183.52 336.449 184.56H330.929C331.009 183.6 331.049 182.6 331.049 182C331.049 179.12 329.889 177.96 327.969 177.96C325.369 177.96 323.569 180.08 323.569 184.48V193H317.489ZM352.127 193.32C348.527 193.32 345.967 191.8 345.247 189.28H345.207C345.247 190.44 345.327 192.04 345.407 193H339.327V165.28H345.407V173.56C345.407 174.48 345.327 176.12 345.287 177.08H345.367C346.127 174.48 348.647 172.92 352.167 172.92C357.807 172.92 361.127 176.56 361.127 182.72C361.127 189.4 357.767 193.32 352.127 193.32ZM350.567 188.68C353.367 188.68 355.047 186.56 355.047 182.92C355.047 179.56 353.367 177.56 350.527 177.56C347.327 177.56 345.407 179.6 345.407 183V183.92C345.407 186.92 347.327 188.68 350.567 188.68ZM383.617 182.56V184.28H369.577C369.857 187.52 371.497 188.92 374.217 188.92C376.577 188.92 378.097 188.08 378.257 186.16H383.617C383.497 190.68 379.737 193.32 374.097 193.32C367.537 193.32 363.457 189.6 363.457 183.32C363.457 176.8 367.537 172.92 374.217 172.92C379.737 172.92 383.617 176.08 383.617 182.56ZM378.257 181.04V180.72C378.257 178.48 376.737 177.32 374.217 177.32C371.657 177.32 370.217 178.44 369.737 181.04H378.257ZM386.398 171.16V166.32H392.518V171.16H386.398ZM385.078 201.4C382.518 201.4 381.158 201.12 380.678 201V196.44C381.558 196.6 382.278 196.68 383.238 196.68C385.438 196.68 386.398 195.4 386.398 193.28V173.24H392.478V193.6C392.478 198.52 389.718 201.4 385.078 201.4ZM404.651 193.32C398.931 193.32 395.371 189.16 395.371 182.96C395.371 176.92 399.131 172.92 404.891 172.92C408.091 172.92 410.171 174.12 411.051 176.16H411.091V165.28H417.171V193H411.091C411.131 192.6 411.211 190.88 411.331 188.76H411.251C410.491 191.56 408.251 193.32 404.651 193.32ZM406.051 188.68C409.091 188.68 411.091 186.52 411.091 183.28V182.32C411.091 179.48 409.091 177.56 406.131 177.56C403.291 177.56 401.411 179.72 401.411 183C401.411 186.36 403.251 188.68 406.051 188.68ZM440.101 182.56V184.28H426.061C426.341 187.52 427.981 188.92 430.701 188.92C433.061 188.92 434.581 188.08 434.741 186.16H440.101C439.981 190.68 436.221 193.32 430.581 193.32C424.021 193.32 419.941 189.6 419.941 183.32C419.941 176.8 424.021 172.92 430.701 172.92C436.221 172.92 440.101 176.08 440.101 182.56ZM434.741 181.04V180.72C434.741 178.48 433.221 177.32 430.701 177.32C428.141 177.32 426.701 178.44 426.221 181.04H434.741ZM442.762 193V173.24H448.842L448.602 178.88H448.682C449.522 175.12 451.642 172.92 455.522 172.92C459.562 172.92 461.922 175.52 461.922 180.64C461.922 181.76 461.802 183.52 461.722 184.56H456.202C456.282 183.6 456.322 182.6 456.322 182C456.322 179.12 455.162 177.96 453.242 177.96C450.642 177.96 448.842 180.08 448.842 184.48V193H442.762ZM314.094 229.16V224.32H320.174V229.16H314.094ZM314.094 251V231.24H320.174V251H314.094ZM332.886 251V224.68H343.486C351.886 224.68 357.086 229.16 357.086 237.8C357.086 246.48 352.166 251 344.326 251H332.886ZM339.446 245.84H344.246C347.886 245.84 350.566 243.36 350.566 237.8C350.566 232.16 347.726 229.84 343.846 229.84H339.446V245.84ZM370.193 251.32C363.673 251.32 359.433 247.56 359.433 241.16C359.433 234.72 363.673 230.92 370.193 230.92C376.713 230.92 380.953 234.72 380.953 241.16C380.953 247.56 376.713 251.32 370.193 251.32ZM370.193 246.68C373.153 246.68 374.873 244.64 374.873 241.16C374.873 237.64 373.153 235.56 370.193 235.56C367.233 235.56 365.513 237.64 365.513 241.16C365.513 244.64 367.233 246.68 370.193 246.68ZM383.622 251V231.24H389.702L389.502 236.36H389.542C390.462 232.96 392.702 230.92 396.302 230.92C400.102 230.92 402.542 232.88 402.982 236.08H403.022C403.822 232.88 405.982 230.92 409.782 230.92C414.102 230.92 416.542 233.64 416.542 238.28V251H410.462V239.68C410.462 237.36 409.262 235.96 407.182 235.96C404.782 235.96 403.102 237.8 403.102 241.44V251H397.022V239.68C397.022 237.36 395.822 235.96 393.742 235.96C391.382 235.96 389.702 237.84 389.702 241.56V251H383.622ZM439.164 240.56V242.28H425.124C425.404 245.52 427.044 246.92 429.764 246.92C432.124 246.92 433.644 246.08 433.804 244.16H439.164C439.044 248.68 435.284 251.32 429.644 251.32C423.084 251.32 419.004 247.6 419.004 241.32C419.004 234.8 423.084 230.92 429.764 230.92C435.284 230.92 439.164 234.08 439.164 240.56ZM433.804 239.04V238.72C433.804 236.48 432.284 235.32 429.764 235.32C427.204 235.32 425.764 236.44 425.284 239.04H433.804ZM449.385 251.32C444.785 251.32 441.585 249.32 441.585 245.32C441.585 242.08 443.905 239.72 449.145 239.72H455.585V238.4C455.585 236 454.225 235.04 451.425 235.04C449.145 235.04 447.825 236 447.825 237.6C447.825 237.72 447.825 238.04 447.865 238.44H442.265C442.225 238.12 442.185 237.68 442.185 237.28C442.185 233.28 445.705 230.92 451.705 230.92C457.985 230.92 461.665 233.72 461.665 239V251H455.585C455.705 250 455.865 248.2 455.865 247H455.825C455.225 249.8 452.985 251.32 449.385 251.32ZM450.585 247.2C453.745 247.2 455.585 245.8 455.585 243.4V243H449.705C448.065 243 447.065 243.76 447.065 244.88C447.065 246.4 448.385 247.2 450.585 247.2Z" fill="black"/>
<path d="M47.44 275C47.44 271.76 47.992 270.8 52.168 268.856C56.128 267.008 56.752 266.048 56.752 263.96C56.752 262.088 55.432 260.768 53.224 260.768C50.728 260.768 49.36 262.328 49.36 264.776C49.36 265.52 49.432 266.24 49.504 266.6H47.68C47.608 266.24 47.536 265.496 47.536 264.68C47.536 261.2 49.624 258.992 53.272 258.992C56.632 258.992 58.72 261.032 58.72 263.96C58.72 266.36 57.832 268.016 53.224 270.176C49.84 271.76 49.456 272.24 49.456 273.224H59.008V275H47.44ZM67.7324 275.216C63.8204 275.216 61.5644 272.072 61.5644 267.032C61.5644 262.088 63.8204 258.992 67.7324 258.992C71.6444 258.992 73.9004 262.088 73.9004 267.032C73.9004 272.072 71.6444 275.216 67.7324 275.216ZM67.7324 273.44C70.4444 273.44 71.9324 270.992 71.9324 267.032C71.9324 263.168 70.4444 260.768 67.7324 260.768C65.0204 260.768 63.5324 263.168 63.5324 267.032C63.5324 270.992 65.0204 273.44 67.7324 273.44ZM76.4088 275C76.4088 271.76 76.9608 270.8 81.1367 268.856C85.0968 267.008 85.7208 266.048 85.7208 263.96C85.7208 262.088 84.4008 260.768 82.1928 260.768C79.6968 260.768 78.3288 262.328 78.3288 264.776C78.3288 265.52 78.4008 266.24 78.4728 266.6H76.6488C76.5768 266.24 76.5048 265.496 76.5048 264.68C76.5048 261.2 78.5928 258.992 82.2408 258.992C85.6008 258.992 87.6888 261.032 87.6888 263.96C87.6888 266.36 86.8008 268.016 82.1928 270.176C78.8088 271.76 78.4248 272.24 78.4248 273.224H87.9768V275H76.4088ZM96.6051 275.216C93.0051 275.216 90.8931 273.416 90.8931 270.848C90.8931 270.704 90.8931 270.368 90.9171 270.056H92.7891C92.7651 270.32 92.7651 270.584 92.7651 270.68C92.7651 272.312 94.1331 273.464 96.5811 273.464C99.4131 273.464 100.877 271.328 100.877 267.176C100.877 266.72 100.877 266.12 100.829 265.664H100.781C100.541 267.56 98.8611 268.88 96.1971 268.88C92.6211 268.88 90.5331 267.032 90.5331 264.224C90.5331 261.08 92.7651 258.992 96.5091 258.992C100.373 258.992 102.869 261.152 102.869 266.936C102.869 272.432 100.637 275.216 96.6051 275.216ZM96.2691 267.296C98.8851 267.296 100.541 265.832 100.541 263.792C100.421 262.064 98.9091 260.744 96.4851 260.744C93.9651 260.744 92.5011 262.136 92.5011 264.224C92.5011 266.096 93.9651 267.296 96.2691 267.296ZM104.802 268.904V267.512H110.13V268.904H104.802ZM112.432 275C112.432 271.76 112.984 270.8 117.16 268.856C121.12 267.008 121.744 266.048 121.744 263.96C121.744 262.088 120.424 260.768 118.216 260.768C115.72 260.768 114.352 262.328 114.352 264.776C114.352 265.52 114.424 266.24 114.496 266.6H112.672C112.6 266.24 112.528 265.496 112.528 264.68C112.528 261.2 114.616 258.992 118.264 258.992C121.624 258.992 123.712 261.032 123.712 263.96C123.712 266.36 122.824 268.016 118.216 270.176C114.832 271.76 114.448 272.24 114.448 273.224H124V275H112.432ZM132.725 275.216C128.813 275.216 126.557 272.072 126.557 267.032C126.557 262.088 128.813 258.992 132.725 258.992C136.637 258.992 138.893 262.088 138.893 267.032C138.893 272.072 136.637 275.216 132.725 275.216ZM132.725 273.44C135.437 273.44 136.925 270.992 136.925 267.032C136.925 263.168 135.437 260.768 132.725 260.768C130.013 260.768 128.525 263.168 128.525 267.032C128.525 270.992 130.013 273.44 132.725 273.44ZM141.401 275C141.401 271.76 141.953 270.8 146.129 268.856C150.089 267.008 150.713 266.048 150.713 263.96C150.713 262.088 149.393 260.768 147.185 260.768C144.689 260.768 143.321 262.328 143.321 264.776C143.321 265.52 143.393 266.24 143.465 266.6H141.641C141.569 266.24 141.497 265.496 141.497 264.68C141.497 261.2 143.585 258.992 147.233 258.992C150.593 258.992 152.681 261.032 152.681 263.96C152.681 266.36 151.793 268.016 147.185 270.176C143.801 271.76 143.417 272.24 143.417 273.224H152.969V275H141.401ZM161.693 275.216C157.781 275.216 155.525 272.072 155.525 267.032C155.525 262.088 157.781 258.992 161.693 258.992C165.605 258.992 167.861 262.088 167.861 267.032C167.861 272.072 165.605 275.216 161.693 275.216ZM161.693 273.44C164.405 273.44 165.893 270.992 165.893 267.032C165.893 263.168 164.405 260.768 161.693 260.768C158.981 260.768 157.493 263.168 157.493 267.032C157.493 270.992 158.981 273.44 161.693 273.44Z" fill="#07093B"/>
<ellipse cx="237.648" cy="7" rx="6.67568" ry="7" fill="#D9D9D9"/>
<defs>
<filter id="filter0_d_766_5221" x="0" y="58" width="502" height="270" filterUnits="userSpaceOnUse" color-interpolation-filters="sRGB">
<feFlood flood-opacity="0" result="BackgroundImageFix"/>
<feColorMatrix in="SourceAlpha" type="matrix" values="0 0 0 0 0 0 0 0 0 0 0 0 0 0 0 0 0 0 127 0" result="hardAlpha"/>
<feOffset dy="4"/>
<feGaussianBlur stdDeviation="2"/>
<feComposite in2="hardAlpha" operator="out"/>
<feColorMatrix type="matrix" values="0 0 0 0 0 0 0 0 0 0 0 0 0 0 0 0 0 0 0.25 0"/>
<feBlend mode="normal" in2="BackgroundImageFix" result="effect1_dropShadow_766_5221"/>
<feBlend mode="normal" in="SourceGraphic" in2="effect1_dropShadow_766_5221" result="shape"/>
</filter>
</defs>
</svg>
