<svg width="502" height="328" viewBox="0 0 502 328" fill="none" xmlns="http://www.w3.org/2000/svg">
<line y1="-2" x2="65.9881" y2="-2" transform="matrix(0.47692 -0.878947 0.858775 0.512352 209.039 63)" stroke="#614718" stroke-width="4"/>
<path d="M267.916 62.0107L236.445 4.01074" stroke="#614718" stroke-width="4"/>
<g filter="url(#filter0_d_766_5228)">
<rect x="15.5" y="69.5" width="471" height="239" stroke="#DFC392" stroke-width="23" shape-rendering="crispEdges"/>
</g>
<path d="M228.975 127V105.944H234.223V127H228.975ZM237.029 127V111.192H241.893L241.701 115.384H241.765C242.565 112.376 244.421 110.936 248.005 110.936C251.812 110.936 254.277 113.016 254.277 117.112V127H249.413V118.2C249.413 115.96 248.133 114.968 245.989 114.968C243.429 114.968 241.893 116.472 241.893 119.48V127H237.029ZM256.688 109.528V105.656H261.552V109.528H256.688ZM256.688 127V111.192H261.552V127H256.688ZM272.154 127.256C267.226 127.256 265.466 125.08 265.466 121.56V114.968H263.13V111.192H265.018C265.754 111.192 266.01 110.776 266.106 109.816L266.33 107.608H270.33V111.192H275.386V114.968H270.33V121.304C270.33 122.936 271.098 123.448 273.018 123.448C273.69 123.448 274.682 123.352 275.226 123.224V126.904C274.81 127 273.466 127.256 272.154 127.256ZM277.563 109.528V105.656H282.427V109.528H277.563ZM277.563 127V111.192H282.427V127H277.563ZM291.045 127.256C287.365 127.256 284.805 125.656 284.805 122.456C284.805 119.864 286.661 117.976 290.853 117.976H296.005V116.92C296.005 115 294.917 114.232 292.677 114.232C290.853 114.232 289.797 115 289.797 116.28C289.797 116.376 289.797 116.632 289.829 116.952H285.349C285.317 116.696 285.285 116.344 285.285 116.024C285.285 112.824 288.101 110.936 292.901 110.936C297.925 110.936 300.869 113.176 300.869 117.4V127H296.005C296.101 126.2 296.229 124.76 296.229 123.8H296.197C295.717 126.04 293.925 127.256 291.045 127.256ZM292.005 123.96C294.533 123.96 296.005 122.84 296.005 120.92V120.6H291.301C289.989 120.6 289.189 121.208 289.189 122.104C289.189 123.32 290.245 123.96 292.005 123.96ZM311.186 127.256C306.258 127.256 304.498 125.08 304.498 121.56V114.968H302.162V111.192H304.049C304.786 111.192 305.042 110.776 305.138 109.816L305.362 107.608H309.362V111.192H314.418V114.968H309.362V121.304C309.362 122.936 310.13 123.448 312.05 123.448C312.722 123.448 313.714 123.352 314.258 123.224V126.904C313.842 127 312.498 127.256 311.186 127.256ZM316.594 109.528V105.656H321.458V109.528H316.594ZM316.594 127V111.192H321.458V127H316.594ZM329.981 127L323.357 111.192H329.021L333.085 122.552H333.149L337.309 111.192H342.301L335.773 127H329.981ZM352.092 127.256C347.164 127.256 345.404 125.08 345.404 121.56V114.968H343.068V111.192H344.956C345.692 111.192 345.948 110.776 346.044 109.816L346.268 107.608H350.268V111.192H355.324V114.968H350.268V121.304C350.268 122.936 351.036 123.448 352.956 123.448C353.628 123.448 354.62 123.352 355.164 123.224V126.904C354.748 127 353.404 127.256 352.092 127.256ZM362.983 127.256C359.303 127.256 356.743 125.656 356.743 122.456C356.743 119.864 358.599 117.976 362.791 117.976H367.943V116.92C367.943 115 366.855 114.232 364.615 114.232C362.791 114.232 361.735 115 361.735 116.28C361.735 116.376 361.735 116.632 361.767 116.952H357.287C357.255 116.696 357.223 116.344 357.223 116.024C357.223 112.824 360.039 110.936 364.839 110.936C369.863 110.936 372.807 113.176 372.807 117.4V127H367.943C368.039 126.2 368.167 124.76 368.167 123.8H368.135C367.655 126.04 365.863 127.256 362.983 127.256ZM363.943 123.96C366.471 123.96 367.943 122.84 367.943 120.92V120.6H363.239C361.927 120.6 361.127 121.208 361.127 122.104C361.127 123.32 362.183 123.96 363.943 123.96ZM386.547 124.12C390.131 124.12 392.243 125.688 392.243 128.312C392.243 131.928 389.011 133.848 383.539 133.848C377.971 133.848 374.675 132.312 374.675 129.688C374.675 128.024 375.763 127 377.523 126.808V126.776C376.563 126.168 376.051 125.304 376.051 124.184C376.051 122.68 376.819 121.752 378.003 121.208V121.176C376.339 120.216 375.411 118.648 375.411 116.6C375.411 113.048 378.163 110.936 382.803 110.936C384.659 110.936 386.195 111.256 387.379 111.896L387.411 111.832C386.771 111.256 386.483 110.616 386.483 110.04C386.483 108.728 387.795 107.96 389.811 107.96C390.675 107.96 391.123 108.024 391.571 108.12V111.192C391.283 111.128 390.963 111.096 390.611 111.096C389.587 111.096 389.107 111.544 389.107 112.28C389.107 112.664 389.235 113.144 389.459 113.72C389.971 114.52 390.227 115.48 390.227 116.6C390.227 120.152 387.475 122.232 382.803 122.232C381.843 122.232 380.979 122.136 380.179 121.976C380.051 122.168 379.891 122.552 379.891 123C379.891 123.704 380.467 124.12 381.427 124.12H386.547ZM382.803 114.008C381.043 114.008 379.987 114.968 379.987 116.6C379.987 118.2 381.043 119.16 382.803 119.16C384.595 119.16 385.651 118.2 385.651 116.6C385.651 114.968 384.595 114.008 382.803 114.008ZM383.475 130.904C385.939 130.904 387.379 130.232 387.379 128.984C387.379 128.12 386.739 127.64 385.331 127.64H381.587C380.275 127.64 379.507 128.184 379.507 129.08C379.507 130.264 380.979 130.904 383.475 130.904ZM408.994 118.648V120.024H397.762C397.986 122.616 399.298 123.736 401.474 123.736C403.362 123.736 404.578 123.064 404.706 121.528H408.994C408.898 125.144 405.89 127.256 401.378 127.256C396.13 127.256 392.866 124.28 392.866 119.256C392.866 114.04 396.13 110.936 401.474 110.936C405.89 110.936 408.994 113.464 408.994 118.648ZM404.706 117.432V117.176C404.706 115.384 403.49 114.456 401.474 114.456C399.426 114.456 398.274 115.352 397.89 117.432H404.706ZM411.122 127V111.192H415.986L415.794 115.704H415.858C416.53 112.696 418.226 110.936 421.33 110.936C424.562 110.936 426.45 113.016 426.45 117.112C426.45 118.008 426.354 119.416 426.29 120.248H421.874C421.938 119.48 421.97 118.68 421.97 118.2C421.97 115.896 421.042 114.968 419.506 114.968C417.426 114.968 415.986 116.664 415.986 120.184V127H411.122ZM443.936 127.256C439.008 127.256 437.248 125.08 437.248 121.56V114.968H434.912V111.192H436.799C437.536 111.192 437.792 110.776 437.888 109.816L438.112 107.608H442.112V111.192H447.168V114.968H442.112V121.304C442.112 122.936 442.88 123.448 444.8 123.448C445.472 123.448 446.464 123.352 447.008 123.224V126.904C446.592 127 445.248 127.256 443.936 127.256ZM449.344 109.528V105.656H454.208V109.528H449.344ZM449.344 127V111.192H454.208V127H449.344ZM456.843 127V104.824H461.707V127H456.843ZM155.253 173V151.944H169.812V156.072H160.501V161.224H168.213V164.744H160.501V173H155.253ZM171.591 173V157.192H176.455L176.263 161.704H176.327C176.999 158.696 178.695 156.936 181.799 156.936C185.031 156.936 186.919 159.016 186.919 163.112C186.919 164.008 186.823 165.416 186.759 166.248H182.343C182.407 165.48 182.439 164.68 182.439 164.2C182.439 161.896 181.511 160.968 179.975 160.968C177.895 160.968 176.455 162.664 176.455 166.184V173H171.591ZM204.837 164.648V166.024H193.605C193.829 168.616 195.141 169.736 197.317 169.736C199.205 169.736 200.421 169.064 200.549 167.528H204.837C204.741 171.144 201.733 173.256 197.221 173.256C191.973 173.256 188.709 170.28 188.709 165.256C188.709 160.04 191.973 156.936 197.317 156.936C201.733 156.936 204.837 159.464 204.837 164.648ZM200.549 163.432V163.176C200.549 161.384 199.333 160.456 197.317 160.456C195.269 160.456 194.117 161.352 193.733 163.432H200.549ZM214.102 173.256C209.526 173.256 206.678 169.928 206.678 164.968C206.678 160.136 209.686 156.936 214.294 156.936C216.854 156.936 218.518 157.896 219.222 159.528H219.254V150.824H224.118V173H219.254C219.286 172.68 219.35 171.304 219.446 169.608H219.382C218.774 171.848 216.982 173.256 214.102 173.256ZM215.222 169.544C217.654 169.544 219.254 167.816 219.254 165.224V164.456C219.254 162.184 217.654 160.648 215.286 160.648C213.014 160.648 211.51 162.376 211.51 165C211.51 167.688 212.982 169.544 215.222 169.544ZM234.238 173.256C228.67 173.256 226.334 170.888 226.334 167.688H230.686C230.686 169.16 231.422 170.12 234.206 170.12C236.734 170.12 237.63 169.384 237.63 168.232C237.63 167.656 237.342 167.208 236.51 167.016C235.678 166.824 234.398 166.696 232.83 166.568C230.558 166.376 228.798 166.024 227.838 165.352C226.942 164.712 226.334 163.56 226.334 162.248C226.334 158.824 229.854 156.936 234.238 156.936C239.422 156.936 241.79 158.92 241.79 162.6H237.502C237.47 160.936 236.702 160.072 234.302 160.072C232.126 160.072 231.166 160.808 231.166 161.896C231.166 162.568 231.422 163.08 232.318 163.304C233.118 163.496 234.526 163.624 236.222 163.784C238.174 163.976 239.55 164.168 240.734 164.84C241.758 165.416 242.494 166.6 242.494 167.976C242.494 171.304 239.646 173.256 234.238 173.256ZM244.718 179.336V157.192H249.582L249.486 160.424H249.518C250.126 158.248 252.142 156.936 254.862 156.936C259.278 156.936 262.158 160.072 262.158 164.744C262.158 169.864 259.278 173.256 254.83 173.256C251.95 173.256 250.158 172.072 249.454 170.152H249.422C249.486 171.208 249.582 172.776 249.582 173.352V179.336H244.718ZM253.678 169.544C255.854 169.544 257.326 167.688 257.326 164.936C257.326 162.376 255.854 160.648 253.646 160.648C251.214 160.648 249.582 162.408 249.582 165.064V165.768C249.582 168.04 251.214 169.544 253.678 169.544ZM264.31 173V157.192H269.174L268.982 161.704H269.046C269.718 158.696 271.414 156.936 274.518 156.936C277.75 156.936 279.638 159.016 279.638 163.112C279.638 164.008 279.542 165.416 279.478 166.248H275.062C275.126 165.48 275.158 164.68 275.158 164.2C275.158 161.896 274.23 160.968 272.694 160.968C270.614 160.968 269.174 162.664 269.174 166.184V173H264.31ZM290.036 173.256C284.82 173.256 281.428 170.248 281.428 165.128C281.428 159.976 284.82 156.936 290.036 156.936C295.252 156.936 298.644 159.976 298.644 165.128C298.644 170.248 295.252 173.256 290.036 173.256ZM290.036 169.544C292.404 169.544 293.78 167.912 293.78 165.128C293.78 162.312 292.404 160.648 290.036 160.648C287.668 160.648 286.292 162.312 286.292 165.128C286.292 167.912 287.668 169.544 290.036 169.544ZM300.875 155.528V151.656H305.771V155.528H300.875ZM299.819 179.72C297.77 179.72 296.682 179.496 296.298 179.4V175.752C297.002 175.88 297.578 175.944 298.346 175.944C300.107 175.944 300.875 174.92 300.875 173.224V157.192H305.739V173.48C305.739 177.416 303.531 179.72 299.819 179.72ZM324.181 164.648V166.024H312.949C313.173 168.616 314.485 169.736 316.661 169.736C318.549 169.736 319.765 169.064 319.893 167.528H324.181C324.085 171.144 321.077 173.256 316.565 173.256C311.317 173.256 308.053 170.28 308.053 165.256C308.053 160.04 311.317 156.936 316.661 156.936C321.077 156.936 324.181 159.464 324.181 164.648ZM319.893 163.432V163.176C319.893 161.384 318.677 160.456 316.661 160.456C314.613 160.456 313.461 161.352 313.077 163.432H319.893ZM326.374 173V150.824H331.238V164.808H331.27L338.022 157.192H343.942L337.286 164.072L344.326 173H337.926L333.798 167.176L331.238 169.768V173H326.374ZM353.654 173.256C348.726 173.256 346.966 171.08 346.966 167.56V160.968H344.63V157.192H346.518C347.254 157.192 347.51 156.776 347.606 155.816L347.83 153.608H351.83V157.192H356.886V160.968H351.83V167.304C351.83 168.936 352.598 169.448 354.518 169.448C355.19 169.448 356.182 169.352 356.726 169.224V172.904C356.31 173 354.966 173.256 353.654 173.256ZM374.087 164.648V166.024H362.855C363.079 168.616 364.391 169.736 366.567 169.736C368.455 169.736 369.671 169.064 369.799 167.528H374.087C373.991 171.144 370.983 173.256 366.471 173.256C361.223 173.256 357.959 170.28 357.959 165.256C357.959 160.04 361.223 156.936 366.567 156.936C370.983 156.936 374.087 159.464 374.087 164.648ZM369.799 163.432V163.176C369.799 161.384 368.583 160.456 366.567 160.456C364.519 160.456 363.367 161.352 362.983 163.432H369.799ZM384.248 173.256C379.32 173.256 377.56 171.08 377.56 167.56V160.968H375.224V157.192H377.112C377.848 157.192 378.104 156.776 378.2 155.816L378.424 153.608H382.424V157.192H387.48V160.968H382.424V167.304C382.424 168.936 383.192 169.448 385.112 169.448C385.784 169.448 386.776 169.352 387.32 169.224V172.904C386.904 173 385.56 173.256 384.248 173.256ZM396.904 173V157.192H401.768L401.608 161.288H401.64C402.376 158.568 404.168 156.936 407.048 156.936C410.088 156.936 412.04 158.504 412.392 161.064H412.424C413.064 158.504 414.792 156.936 417.832 156.936C421.288 156.936 423.24 159.112 423.24 162.824V173H418.376V163.944C418.376 162.088 417.416 160.968 415.752 160.968C413.832 160.968 412.488 162.44 412.488 165.352V173H407.624V163.944C407.624 162.088 406.664 160.968 405 160.968C403.112 160.968 401.768 162.472 401.768 165.448V173H396.904ZM433.817 173.256C428.601 173.256 425.209 170.248 425.209 165.128C425.209 159.976 428.601 156.936 433.817 156.936C439.033 156.936 442.425 159.976 442.425 165.128C442.425 170.248 439.033 173.256 433.817 173.256ZM433.817 169.544C436.185 169.544 437.561 167.912 437.561 165.128C437.561 162.312 436.185 160.648 433.817 160.648C431.449 160.648 430.073 162.312 430.073 165.128C430.073 167.912 431.449 169.544 433.817 169.544ZM451.696 173.256C447.12 173.256 444.272 169.928 444.272 164.968C444.272 160.136 447.28 156.936 451.888 156.936C454.448 156.936 456.112 157.896 456.816 159.528H456.848V150.824H461.712V173H456.848C456.88 172.68 456.944 171.304 457.04 169.608H456.976C456.368 171.848 454.576 173.256 451.696 173.256ZM452.816 169.544C455.248 169.544 456.848 167.816 456.848 165.224V164.456C456.848 162.184 455.248 160.648 452.88 160.648C450.608 160.648 449.104 162.376 449.104 165C449.104 167.688 450.576 169.544 452.816 169.544ZM105.065 219V197.944H114.889C120.457 197.944 123.465 200.248 123.465 204.216C123.465 206.904 122.313 208.6 120.329 209.176V209.24C122.409 209.72 123.337 211.384 123.337 213.752V219H118.089V213.912C118.089 211.992 117.385 211.16 115.401 211.16H110.313V219H105.065ZM110.313 207.992H115.113C117.321 207.992 118.441 207 118.441 205.048C118.441 203.192 117.289 202.072 114.857 202.072H110.313V207.992ZM132.014 219.256C128.334 219.256 125.774 217.656 125.774 214.456C125.774 211.864 127.63 209.976 131.822 209.976H136.974V208.92C136.974 207 135.886 206.232 133.646 206.232C131.822 206.232 130.766 207 130.766 208.28C130.766 208.376 130.766 208.632 130.798 208.952H126.318C126.286 208.696 126.254 208.344 126.254 208.024C126.254 204.824 129.07 202.936 133.87 202.936C138.894 202.936 141.838 205.176 141.838 209.4V219H136.974C137.07 218.2 137.198 216.76 137.198 215.8H137.166C136.686 218.04 134.894 219.256 132.014 219.256ZM132.974 215.96C135.502 215.96 136.974 214.84 136.974 212.92V212.6H132.27C130.958 212.6 130.158 213.208 130.158 214.104C130.158 215.32 131.214 215.96 132.974 215.96ZM151.866 219.256C147.13 219.256 143.834 216.248 143.834 211.128C143.834 205.976 147.194 202.936 152.058 202.936C156.698 202.936 159.738 205.528 159.738 209.912H155.45C155.418 207.864 154.202 206.648 152.218 206.648C149.946 206.648 148.698 208.216 148.698 211.096C148.698 213.88 149.978 215.544 152.122 215.544C154.202 215.544 155.45 214.36 155.482 212.344H159.77C159.77 216.888 156.538 219.256 151.866 219.256ZM162.032 201.528V197.656H166.896V201.528H162.032ZM162.032 219V203.192H166.896V219H162.032ZM177.082 219.256C171.514 219.256 169.178 216.888 169.178 213.688H173.53C173.53 215.16 174.266 216.12 177.05 216.12C179.578 216.12 180.474 215.384 180.474 214.232C180.474 213.656 180.186 213.208 179.354 213.016C178.522 212.824 177.242 212.696 175.674 212.568C173.402 212.376 171.642 212.024 170.682 211.352C169.786 210.712 169.178 209.56 169.178 208.248C169.178 204.824 172.698 202.936 177.082 202.936C182.266 202.936 184.634 204.92 184.634 208.6H180.346C180.314 206.936 179.546 206.072 177.146 206.072C174.97 206.072 174.01 206.808 174.01 207.896C174.01 208.568 174.266 209.08 175.162 209.304C175.962 209.496 177.37 209.624 179.066 209.784C181.018 209.976 182.394 210.168 183.578 210.84C184.602 211.416 185.338 212.6 185.338 213.976C185.338 217.304 182.49 219.256 177.082 219.256ZM187.497 219V203.192H192.361L192.201 207.288H192.233C192.969 204.568 194.761 202.936 197.641 202.936C200.681 202.936 202.633 204.504 202.985 207.064H203.017C203.657 204.504 205.385 202.936 208.425 202.936C211.881 202.936 213.833 205.112 213.833 208.824V219H208.969V209.944C208.969 208.088 208.009 206.968 206.345 206.968C204.425 206.968 203.081 208.44 203.081 211.352V219H198.217V209.944C198.217 208.088 197.257 206.968 195.593 206.968C193.705 206.968 192.361 208.472 192.361 211.448V219H187.497ZM231.931 210.648V212.024H220.699C220.923 214.616 222.235 215.736 224.411 215.736C226.299 215.736 227.515 215.064 227.643 213.528H231.931C231.835 217.144 228.827 219.256 224.315 219.256C219.067 219.256 215.803 216.28 215.803 211.256C215.803 206.04 219.067 202.936 224.411 202.936C228.827 202.936 231.931 205.464 231.931 210.648ZM227.643 209.432V209.176C227.643 207.384 226.427 206.456 224.411 206.456C222.363 206.456 221.211 207.352 220.827 209.432H227.643ZM241.243 211.48V208.408H248.827V211.48H241.243ZM258.659 219V197.944H263.907V208.408H263.971L273.059 197.944H279.331L270.691 207.48L279.939 219H273.123L267.107 210.776L263.907 214.136V219H258.659ZM308.414 210.648V212.024H297.182C297.406 214.616 298.718 215.736 300.894 215.736C302.782 215.736 303.998 215.064 304.126 213.528H308.414C308.318 217.144 305.31 219.256 300.798 219.256C297.31 219.256 294.878 218.008 293.886 216.056H293.822C293.086 218.136 291.422 219.256 287.998 219.256C283.678 219.256 281.118 217.656 281.118 214.456C281.118 211.864 282.974 209.976 287.166 209.976H292.318V208.92C292.318 207 291.23 206.232 288.99 206.232C287.166 206.232 286.11 207 286.11 208.28C286.11 208.472 286.11 208.696 286.142 208.952H281.662C281.63 208.696 281.598 208.344 281.598 208.024C281.598 204.824 284.414 202.936 288.83 202.936C292.126 202.936 293.854 203.704 294.974 205.08H295.038C296.286 203.704 297.95 202.936 300.958 202.936C305.31 202.936 308.414 205.464 308.414 210.648ZM304.126 209.432V209.176C304.126 207.384 302.91 206.456 300.894 206.456C298.846 206.456 297.694 207.352 297.31 209.432H304.126ZM292.318 212.92V212.6H287.614C286.302 212.6 285.502 213.208 285.502 214.104C285.502 215.32 286.558 215.96 288.318 215.96C290.846 215.96 292.318 214.84 292.318 212.92ZM310.56 219V203.192H315.424L315.232 207.704H315.296C315.968 204.696 317.664 202.936 320.768 202.936C324 202.936 325.888 205.016 325.888 209.112C325.888 210.008 325.792 211.416 325.728 212.248H321.312C321.376 211.48 321.408 210.68 321.408 210.2C321.408 207.896 320.48 206.968 318.944 206.968C316.864 206.968 315.424 208.664 315.424 212.184V219H310.56ZM328.03 219V196.824H332.894V219H328.03ZM335.532 201.528V197.656H340.396V201.528H335.532ZM335.532 219V203.192H340.396V219H335.532ZM354.422 216.12C358.006 216.12 360.118 217.688 360.118 220.312C360.118 223.928 356.886 225.848 351.414 225.848C345.846 225.848 342.55 224.312 342.55 221.688C342.55 220.024 343.638 219 345.398 218.808V218.776C344.438 218.168 343.926 217.304 343.926 216.184C343.926 214.68 344.694 213.752 345.878 213.208V213.176C344.214 212.216 343.286 210.648 343.286 208.6C343.286 205.048 346.038 202.936 350.678 202.936C352.534 202.936 354.07 203.256 355.254 203.896L355.286 203.832C354.646 203.256 354.358 202.616 354.358 202.04C354.358 200.728 355.67 199.96 357.686 199.96C358.55 199.96 358.998 200.024 359.446 200.12V203.192C359.158 203.128 358.838 203.096 358.486 203.096C357.462 203.096 356.982 203.544 356.982 204.28C356.982 204.664 357.11 205.144 357.334 205.72C357.846 206.52 358.102 207.48 358.102 208.6C358.102 212.152 355.35 214.232 350.678 214.232C349.718 214.232 348.854 214.136 348.054 213.976C347.926 214.168 347.766 214.552 347.766 215C347.766 215.704 348.342 216.12 349.302 216.12H354.422ZM350.678 206.008C348.918 206.008 347.862 206.968 347.862 208.6C347.862 210.2 348.918 211.16 350.678 211.16C352.47 211.16 353.526 210.2 353.526 208.6C353.526 206.968 352.47 206.008 350.678 206.008ZM351.35 222.904C353.814 222.904 355.254 222.232 355.254 220.984C355.254 220.12 354.614 219.64 353.206 219.64H349.462C348.15 219.64 347.382 220.184 347.382 221.08C347.382 222.264 348.854 222.904 351.35 222.904ZM362.03 219V196.824H366.894V203.8C366.894 204.408 366.798 206.2 366.702 207.384H366.766C367.566 204.376 369.422 202.936 373.006 202.936C376.814 202.936 379.278 205.016 379.278 209.112V219H374.414V210.2C374.414 207.96 373.166 206.968 370.99 206.968C368.43 206.968 366.894 208.472 366.894 211.48V219H362.03ZM397.4 210.648V212.024H386.168C386.392 214.616 387.704 215.736 389.88 215.736C391.768 215.736 392.984 215.064 393.112 213.528H397.4C397.304 217.144 394.296 219.256 389.784 219.256C384.536 219.256 381.272 216.28 381.272 211.256C381.272 206.04 384.536 202.936 389.88 202.936C394.296 202.936 397.4 205.464 397.4 210.648ZM393.112 209.432V209.176C393.112 207.384 391.896 206.456 389.88 206.456C387.832 206.456 386.68 207.352 386.296 209.432H393.112ZM406.665 219.256C402.089 219.256 399.241 215.928 399.241 210.968C399.241 206.136 402.249 202.936 406.857 202.936C409.417 202.936 411.081 203.896 411.785 205.528H411.817V196.824H416.681V219H411.817C411.849 218.68 411.913 217.304 412.009 215.608H411.945C411.337 217.848 409.545 219.256 406.665 219.256ZM407.785 215.544C410.217 215.544 411.817 213.816 411.817 211.224V210.456C411.817 208.184 410.217 206.648 407.849 206.648C405.577 206.648 404.073 208.376 404.073 211C404.073 213.688 405.545 215.544 407.785 215.544ZM434.88 219.256C429.664 219.256 426.272 216.248 426.272 211.128C426.272 205.976 429.664 202.936 434.88 202.936C440.096 202.936 443.488 205.976 443.488 211.128C443.488 216.248 440.096 219.256 434.88 219.256ZM434.88 215.544C437.248 215.544 438.624 213.912 438.624 211.128C438.624 208.312 437.248 206.648 434.88 206.648C432.512 206.648 431.136 208.312 431.136 211.128C431.136 213.912 432.512 215.544 434.88 215.544ZM456.672 216.12C460.256 216.12 462.368 217.688 462.368 220.312C462.368 223.928 459.136 225.848 453.664 225.848C448.096 225.848 444.8 224.312 444.8 221.688C444.8 220.024 445.888 219 447.648 218.808V218.776C446.688 218.168 446.176 217.304 446.176 216.184C446.176 214.68 446.944 213.752 448.128 213.208V213.176C446.464 212.216 445.536 210.648 445.536 208.6C445.536 205.048 448.288 202.936 452.928 202.936C454.784 202.936 456.32 203.256 457.504 203.896L457.536 203.832C456.896 203.256 456.608 202.616 456.608 202.04C456.608 200.728 457.92 199.96 459.936 199.96C460.8 199.96 461.248 200.024 461.696 200.12V203.192C461.408 203.128 461.088 203.096 460.736 203.096C459.712 203.096 459.232 203.544 459.232 204.28C459.232 204.664 459.36 205.144 459.584 205.72C460.096 206.52 460.352 207.48 460.352 208.6C460.352 212.152 457.6 214.232 452.928 214.232C451.968 214.232 451.104 214.136 450.304 213.976C450.176 214.168 450.016 214.552 450.016 215C450.016 215.704 450.592 216.12 451.552 216.12H456.672ZM452.928 206.008C451.168 206.008 450.112 206.968 450.112 208.6C450.112 210.2 451.168 211.16 452.928 211.16C454.72 211.16 455.776 210.2 455.776 208.6C455.776 206.968 454.72 206.008 452.928 206.008ZM453.6 222.904C456.064 222.904 457.504 222.232 457.504 220.984C457.504 220.12 456.864 219.64 455.456 219.64H451.712C450.4 219.64 449.632 220.184 449.632 221.08C449.632 222.264 451.104 222.904 453.6 222.904ZM387.378 265V243.944H392.626V254.408H392.69L401.778 243.944H408.05L399.41 253.48L408.658 265H401.842L395.826 256.776L392.626 260.136V265H387.378ZM416.077 265.256C412.397 265.256 409.837 263.656 409.837 260.456C409.837 257.864 411.693 255.976 415.885 255.976H421.037V254.92C421.037 253 419.949 252.232 417.709 252.232C415.885 252.232 414.829 253 414.829 254.28C414.829 254.376 414.829 254.632 414.861 254.952H410.381C410.349 254.696 410.317 254.344 410.317 254.024C410.317 250.824 413.133 248.936 417.933 248.936C422.957 248.936 425.901 251.176 425.901 255.4V265H421.037C421.133 264.2 421.261 262.76 421.261 261.8H421.229C420.749 264.04 418.957 265.256 416.077 265.256ZM417.036 261.96C419.565 261.96 421.037 260.84 421.037 258.92V258.6H416.333C415.021 258.6 414.221 259.208 414.221 260.104C414.221 261.32 415.277 261.96 417.036 261.96ZM439.641 262.12C443.225 262.12 445.337 263.688 445.337 266.312C445.337 269.928 442.105 271.848 436.633 271.848C431.065 271.848 427.769 270.312 427.769 267.688C427.769 266.024 428.857 265 430.617 264.808V264.776C429.657 264.168 429.145 263.304 429.145 262.184C429.145 260.68 429.913 259.752 431.097 259.208V259.176C429.433 258.216 428.505 256.648 428.505 254.6C428.505 251.048 431.257 248.936 435.897 248.936C437.753 248.936 439.289 249.256 440.473 249.896L440.505 249.832C439.865 249.256 439.577 248.616 439.577 248.04C439.577 246.728 440.889 245.96 442.905 245.96C443.769 245.96 444.217 246.024 444.665 246.12V249.192C444.377 249.128 444.057 249.096 443.705 249.096C442.681 249.096 442.201 249.544 442.201 250.28C442.201 250.664 442.329 251.144 442.553 251.72C443.065 252.52 443.321 253.48 443.321 254.6C443.321 258.152 440.569 260.232 435.897 260.232C434.937 260.232 434.073 260.136 433.273 259.976C433.145 260.168 432.985 260.552 432.985 261C432.985 261.704 433.561 262.12 434.521 262.12H439.641ZM435.897 252.008C434.137 252.008 433.081 252.968 433.081 254.6C433.081 256.2 434.137 257.16 435.897 257.16C437.689 257.16 438.745 256.2 438.745 254.6C438.745 252.968 437.689 252.008 435.897 252.008ZM436.569 268.904C439.033 268.904 440.473 268.232 440.473 266.984C440.473 266.12 439.833 265.64 438.425 265.64H434.681C433.369 265.64 432.601 266.184 432.601 267.08C432.601 268.264 434.073 268.904 436.569 268.904ZM462.087 256.648V258.024H450.855C451.079 260.616 452.391 261.736 454.567 261.736C456.455 261.736 457.671 261.064 457.799 259.528H462.087C461.991 263.144 458.983 265.256 454.471 265.256C449.223 265.256 445.959 262.28 445.959 257.256C445.959 252.04 449.223 248.936 454.567 248.936C458.983 248.936 462.087 251.464 462.087 256.648ZM457.799 255.432V255.176C457.799 253.384 456.583 252.456 454.567 252.456C452.519 252.456 451.367 253.352 450.983 255.432H457.799Z" fill="black"/>
<path d="M35.44 280C35.44 276.76 35.992 275.8 40.168 273.856C44.128 272.008 44.752 271.048 44.752 268.96C44.752 267.088 43.432 265.768 41.224 265.768C38.728 265.768 37.36 267.328 37.36 269.776C37.36 270.52 37.432 271.24 37.504 271.6H35.68C35.608 271.24 35.536 270.496 35.536 269.68C35.536 266.2 37.624 263.992 41.272 263.992C44.632 263.992 46.72 266.032 46.72 268.96C46.72 271.36 45.832 273.016 41.224 275.176C37.84 276.76 37.456 277.24 37.456 278.224H47.008V280H35.44ZM55.7324 280.216C51.8204 280.216 49.5644 277.072 49.5644 272.032C49.5644 267.088 51.8204 263.992 55.7324 263.992C59.6444 263.992 61.9004 267.088 61.9004 272.032C61.9004 277.072 59.6444 280.216 55.7324 280.216ZM55.7324 278.44C58.4444 278.44 59.9324 275.992 59.9324 272.032C59.9324 268.168 58.4444 265.768 55.7324 265.768C53.0204 265.768 51.5324 268.168 51.5324 272.032C51.5324 275.992 53.0204 278.44 55.7324 278.44ZM64.3608 280V278.224H69.6888V269.776H66.0648V268.312L68.2728 268.264C69.7368 268.24 69.9048 267.88 69.9288 264.04H71.6568V278.224H76.0728V280H64.3608ZM84.6051 280.216C81.0051 280.216 78.8931 278.416 78.8931 275.848C78.8931 275.704 78.8931 275.368 78.9171 275.056H80.7891C80.7651 275.32 80.7651 275.584 80.7651 275.68C80.7651 277.312 82.1331 278.464 84.5811 278.464C87.4131 278.464 88.8771 276.328 88.8771 272.176C88.8771 271.72 88.8771 271.12 88.8291 270.664H88.7811C88.5411 272.56 86.8611 273.88 84.1971 273.88C80.6211 273.88 78.5331 272.032 78.5331 269.224C78.5331 266.08 80.7651 263.992 84.5091 263.992C88.3731 263.992 90.8691 266.152 90.8691 271.936C90.8691 277.432 88.6371 280.216 84.6051 280.216ZM84.2691 272.296C86.8851 272.296 88.5411 270.832 88.5411 268.792C88.4211 267.064 86.9091 265.744 84.4851 265.744C81.9651 265.744 80.5011 267.136 80.5011 269.224C80.5011 271.096 81.9651 272.296 84.2691 272.296ZM98.3328 273.904V272.512H103.661V273.904H98.3328ZM117.255 280.192C113.583 280.192 111.255 277.816 111.255 274.096C111.255 270.352 113.583 267.952 117.255 267.952C120.927 267.952 123.255 270.352 123.255 274.096C123.255 277.816 120.927 280.192 117.255 280.192ZM117.255 278.464C119.751 278.464 121.335 276.76 121.335 274.096C121.335 271.408 119.751 269.68 117.255 269.68C114.759 269.68 113.175 271.408 113.175 274.096C113.175 276.76 114.759 278.464 117.255 278.464ZM134.093 278.368C136.493 278.368 137.861 279.424 137.861 281.224C137.861 283.576 135.629 285.088 131.885 285.088C127.973 285.088 125.645 283.816 125.645 281.56C125.645 280.384 126.581 279.4 128.069 279.4V279.376C127.469 278.92 127.109 278.224 127.109 277.408C127.109 276.52 127.493 275.824 127.949 275.56V275.512C126.845 274.792 126.221 273.616 126.221 272.176C126.221 269.608 128.189 267.952 131.261 267.952C132.557 267.952 133.661 268.24 134.501 268.768V268.744C134.237 268.408 134.045 267.952 134.045 267.424C134.045 266.464 134.885 265.84 136.229 265.84C136.733 265.84 137.093 265.912 137.309 265.984V267.52C137.141 267.448 136.853 267.376 136.469 267.376C135.677 267.376 135.245 267.736 135.245 268.432C135.245 268.792 135.365 269.248 135.557 269.728C136.061 270.4 136.325 271.216 136.325 272.176C136.325 274.744 134.357 276.4 131.261 276.4C130.445 276.4 129.725 276.28 129.077 276.064C128.885 276.256 128.741 276.616 128.741 277.072C128.741 277.864 129.245 278.368 130.253 278.368H134.093ZM131.261 269.584C129.317 269.584 128.093 270.592 128.093 272.176C128.093 273.76 129.317 274.768 131.261 274.768C133.205 274.768 134.453 273.76 134.453 272.176C134.453 270.592 133.205 269.584 131.261 269.584ZM131.861 283.456C134.909 283.456 135.941 282.544 135.941 281.416C135.941 280.48 135.245 280 133.805 280H130.277C128.621 280 127.565 280.432 127.565 281.512C127.565 282.832 129.245 283.456 131.861 283.456ZM146.071 280V268.144H147.991L147.943 271.336H147.967C148.615 269.272 150.271 267.952 153.103 267.952C156.223 267.952 158.071 269.752 158.071 272.584V280H156.151V272.992C156.151 270.976 154.999 269.68 152.455 269.68C149.743 269.68 147.991 271.336 147.991 274.168V280H146.071ZM166.177 280.192C163.081 280.192 161.185 278.344 161.185 275.464V268.144H163.105V275.128C163.105 277.168 164.449 278.464 166.705 278.464C169.465 278.464 171.241 276.616 171.241 273.496V268.144H173.161V280H171.241C171.289 279.208 171.337 277.72 171.337 276.52H171.313C170.809 278.752 169.129 280.192 166.177 280.192Z" fill="#07093B"/>
<ellipse cx="237.648" cy="7" rx="6.67568" ry="7" fill="#D9D9D9"/>
<defs>
<filter id="filter0_d_766_5228" x="0" y="58" width="502" height="270" filterUnits="userSpaceOnUse" color-interpolation-filters="sRGB">
<feFlood flood-opacity="0" result="BackgroundImageFix"/>
<feColorMatrix in="SourceAlpha" type="matrix" values="0 0 0 0 0 0 0 0 0 0 0 0 0 0 0 0 0 0 127 0" result="hardAlpha"/>
<feOffset dy="4"/>
<feGaussianBlur stdDeviation="2"/>
<feComposite in2="hardAlpha" operator="out"/>
<feColorMatrix type="matrix" values="0 0 0 0 0 0 0 0 0 0 0 0 0 0 0 0 0 0 0.25 0"/>
<feBlend mode="normal" in2="BackgroundImageFix" result="effect1_dropShadow_766_5228"/>
<feBlend mode="normal" in="SourceGraphic" in2="effect1_dropShadow_766_5228" result="shape"/>
</filter>
</defs>
</svg>
