<svg width="596" height="333" viewBox="0 0 596 333" fill="none" xmlns="http://www.w3.org/2000/svg">
<g filter="url(#filter0_d_766_5231)">
<rect x="15.5" y="74.5" width="565" height="239" stroke="#DFC392" stroke-width="23" shape-rendering="crispEdges"/>
</g>
<path d="M53.8 133V106.68H64.08L69.72 124.2H69.8L75.4 106.68H85.36V133H78.8L78.96 112.32H78.88L72.24 133H66.6L59.92 112.32H59.84L59.96 133H53.8ZM108.476 122.56V124.28H94.4363C94.7163 127.52 96.3563 128.92 99.0763 128.92C101.436 128.92 102.956 128.08 103.116 126.16H108.476C108.356 130.68 104.596 133.32 98.9563 133.32C92.3963 133.32 88.3163 129.6 88.3163 123.32C88.3163 116.8 92.3963 112.92 99.0763 112.92C104.596 112.92 108.476 116.08 108.476 122.56ZM103.116 121.04V120.72C103.116 118.48 101.596 117.32 99.0763 117.32C96.5163 117.32 95.0763 118.44 94.5963 121.04H103.116ZM120.057 133.32C114.337 133.32 110.777 129.16 110.777 122.96C110.777 116.92 114.537 112.92 120.297 112.92C123.497 112.92 125.577 114.12 126.457 116.16H126.497V105.28H132.577V133H126.497C126.537 132.6 126.617 130.88 126.737 128.76H126.657C125.897 131.56 123.657 133.32 120.057 133.32ZM121.457 128.68C124.497 128.68 126.497 126.52 126.497 123.28V122.32C126.497 119.48 124.497 117.56 121.537 117.56C118.697 117.56 116.817 119.72 116.817 123C116.817 126.36 118.657 128.68 121.457 128.68ZM145.228 133.32C138.268 133.32 135.348 130.36 135.348 126.36H140.788C140.788 128.2 141.708 129.4 145.188 129.4C148.348 129.4 149.468 128.48 149.468 127.04C149.468 126.32 149.108 125.76 148.068 125.52C147.028 125.28 145.428 125.12 143.468 124.96C140.628 124.72 138.428 124.28 137.228 123.44C136.108 122.64 135.348 121.2 135.348 119.56C135.348 115.28 139.748 112.92 145.228 112.92C151.708 112.92 154.668 115.4 154.668 120H149.308C149.268 117.92 148.308 116.84 145.308 116.84C142.588 116.84 141.388 117.76 141.388 119.12C141.388 119.96 141.708 120.6 142.828 120.88C143.828 121.12 145.588 121.28 147.708 121.48C150.148 121.72 151.868 121.96 153.348 122.8C154.628 123.52 155.548 125 155.548 126.72C155.548 130.88 151.988 133.32 145.228 133.32ZM168.287 133.32C162.127 133.32 159.927 130.6 159.927 126.2V117.96H157.007V113.24H159.367C160.287 113.24 160.607 112.72 160.727 111.52L161.007 108.76H166.007V113.24H172.327V117.96H166.007V125.88C166.007 127.92 166.967 128.56 169.367 128.56C170.207 128.56 171.447 128.44 172.127 128.28V132.88C171.607 133 169.927 133.32 168.287 133.32ZM175.047 111.16V106.32H181.127V111.16H175.047ZM175.047 133V113.24H181.127V133H175.047ZM186.02 133V117.96H183.1V113.24H186.02V111.32C186.02 106.76 189.34 104.44 193.82 104.44C195.82 104.44 197.54 104.88 198.06 105.08V109.56C197.54 109.4 196.46 109.08 195.06 109.08C193.06 109.08 192.1 110 192.1 111.76V113.24H198.38V117.96H192.1V133H186.02ZM210.982 133.32C204.822 133.32 202.622 130.6 202.622 126.2V117.96H199.702V113.24H202.062C202.982 113.24 203.302 112.72 203.422 111.52L203.702 108.76H208.702V113.24H215.022V117.96H208.702V125.88C208.702 127.92 209.662 128.56 212.062 128.56C212.902 128.56 214.142 128.44 214.822 128.28V132.88C214.302 133 212.622 133.32 210.982 133.32ZM236.523 122.56V124.28H222.483C222.763 127.52 224.403 128.92 227.123 128.92C229.483 128.92 231.003 128.08 231.163 126.16H236.523C236.403 130.68 232.643 133.32 227.003 133.32C220.443 133.32 216.363 129.6 216.363 123.32C216.363 116.8 220.443 112.92 227.123 112.92C232.643 112.92 236.523 116.08 236.523 122.56ZM231.163 121.04V120.72C231.163 118.48 229.643 117.32 227.123 117.32C224.563 117.32 223.123 118.44 222.643 121.04H231.163ZM239.184 133V113.24H245.264L245.024 118.88H245.104C245.944 115.12 248.064 112.92 251.944 112.92C255.984 112.92 258.344 115.52 258.344 120.64C258.344 121.76 258.224 123.52 258.144 124.56H252.624C252.704 123.6 252.744 122.6 252.744 122C252.744 119.12 251.584 117.96 249.664 117.96C247.064 117.96 245.264 120.08 245.264 124.48V133H239.184ZM280.561 133.32C274.041 133.32 269.801 129.56 269.801 123.16C269.801 116.72 274.041 112.92 280.561 112.92C287.081 112.92 291.321 116.72 291.321 123.16C291.321 129.56 287.081 133.32 280.561 133.32ZM280.561 128.68C283.521 128.68 285.241 126.64 285.241 123.16C285.241 119.64 283.521 117.56 280.561 117.56C277.601 117.56 275.881 119.64 275.881 123.16C275.881 126.64 277.601 128.68 280.561 128.68ZM307.801 129.4C312.281 129.4 314.921 131.36 314.921 134.64C314.921 139.16 310.881 141.56 304.041 141.56C297.081 141.56 292.961 139.64 292.961 136.36C292.961 134.28 294.321 133 296.521 132.76V132.72C295.321 131.96 294.681 130.88 294.681 129.48C294.681 127.6 295.641 126.44 297.121 125.76V125.72C295.041 124.52 293.881 122.56 293.881 120C293.881 115.56 297.321 112.92 303.121 112.92C305.441 112.92 307.361 113.32 308.841 114.12L308.881 114.04C308.081 113.32 307.721 112.52 307.721 111.8C307.721 110.16 309.361 109.2 311.881 109.2C312.961 109.2 313.521 109.28 314.081 109.4V113.24C313.721 113.16 313.321 113.12 312.881 113.12C311.601 113.12 311.001 113.68 311.001 114.6C311.001 115.08 311.161 115.68 311.441 116.4C312.081 117.4 312.401 118.6 312.401 120C312.401 124.44 308.961 127.04 303.121 127.04C301.921 127.04 300.841 126.92 299.841 126.72C299.681 126.96 299.481 127.44 299.481 128C299.481 128.88 300.201 129.4 301.401 129.4H307.801ZM303.121 116.76C300.921 116.76 299.601 117.96 299.601 120C299.601 122 300.921 123.2 303.121 123.2C305.361 123.2 306.681 122 306.681 120C306.681 117.96 305.361 116.76 303.121 116.76ZM303.961 137.88C307.041 137.88 308.841 137.04 308.841 135.48C308.841 134.4 308.041 133.8 306.281 133.8H301.601C299.961 133.8 299.001 134.48 299.001 135.6C299.001 137.08 300.841 137.88 303.961 137.88ZM326.73 133V106.68H333.29V119.76H333.37L344.73 106.68H352.57L341.77 118.6L353.33 133H344.81L337.29 122.72L333.29 126.92V133H326.73ZM362.603 133.32C358.003 133.32 354.803 131.32 354.803 127.32C354.803 124.08 357.123 121.72 362.363 121.72H368.803V120.4C368.803 118 367.443 117.04 364.643 117.04C362.363 117.04 361.043 118 361.043 119.6C361.043 119.72 361.043 120.04 361.083 120.44H355.483C355.443 120.12 355.403 119.68 355.403 119.28C355.403 115.28 358.923 112.92 364.923 112.92C371.203 112.92 374.883 115.72 374.883 121V133H368.803C368.923 132 369.083 130.2 369.083 129H369.043C368.443 131.8 366.203 133.32 362.603 133.32ZM363.803 129.2C366.963 129.2 368.803 127.8 368.803 125.4V125H362.923C361.283 125 360.283 125.76 360.283 126.88C360.283 128.4 361.603 129.2 363.803 129.2ZM377.739 133V113.24H383.819L383.579 118.48H383.659C384.659 114.72 386.979 112.92 391.459 112.92C396.219 112.92 399.299 115.52 399.299 120.64V133H393.219V122C393.219 119.2 391.619 117.96 388.939 117.96C385.739 117.96 383.819 119.84 383.819 123.6V133H377.739ZM411.073 133.32C405.353 133.32 401.793 129.16 401.793 122.96C401.793 116.92 405.553 112.92 411.313 112.92C414.513 112.92 416.593 114.12 417.473 116.16H417.513V105.28H423.593V133H417.513C417.553 132.6 417.633 130.88 417.753 128.76H417.673C416.913 131.56 414.673 133.32 411.073 133.32ZM412.473 128.68C415.513 128.68 417.513 126.52 417.513 123.28V122.32C417.513 119.48 415.513 117.56 412.553 117.56C409.713 117.56 407.833 119.72 407.833 123C407.833 126.36 409.673 128.68 412.473 128.68ZM426.883 111.16V106.32H432.963V111.16H426.883ZM426.883 133V113.24H432.963V133H426.883ZM445.096 133.32C439.376 133.32 435.816 129.16 435.816 122.96C435.816 116.92 439.576 112.92 445.336 112.92C448.536 112.92 450.616 114.12 451.496 116.16H451.536V105.28H457.616V133H451.536C451.576 132.6 451.656 130.88 451.776 128.76H451.696C450.936 131.56 448.696 133.32 445.096 133.32ZM446.496 128.68C449.536 128.68 451.536 126.52 451.536 123.28V122.32C451.536 119.48 449.536 117.56 446.576 117.56C443.736 117.56 441.856 119.72 441.856 123C441.856 126.36 443.696 128.68 446.496 128.68ZM468.307 133.32C463.707 133.32 460.507 131.32 460.507 127.32C460.507 124.08 462.827 121.72 468.067 121.72H474.507V120.4C474.507 118 473.147 117.04 470.347 117.04C468.067 117.04 466.747 118 466.747 119.6C466.747 119.72 466.747 120.04 466.787 120.44H461.187C461.147 120.12 461.107 119.68 461.107 119.28C461.107 115.28 464.627 112.92 470.627 112.92C476.907 112.92 480.587 115.72 480.587 121V133H474.507C474.627 132 474.787 130.2 474.787 129H474.747C474.147 131.8 471.907 133.32 468.307 133.32ZM469.507 129.2C472.667 129.2 474.507 127.8 474.507 125.4V125H468.627C466.987 125 465.987 125.76 465.987 126.88C465.987 128.4 467.307 129.2 469.507 129.2ZM493.482 133.32C487.322 133.32 485.122 130.6 485.122 126.2V117.96H482.202V113.24H484.562C485.482 113.24 485.802 112.72 485.922 111.52L486.202 108.76H491.202V113.24H497.522V117.96H491.202V125.88C491.202 127.92 492.162 128.56 494.562 128.56C495.402 128.56 496.642 128.44 497.322 128.28V132.88C496.802 133 495.122 133.32 493.482 133.32ZM519.341 133.32C513.181 133.32 510.981 130.6 510.981 126.2V117.96H508.061V113.24H510.421C511.341 113.24 511.661 112.72 511.781 111.52L512.061 108.76H517.061V113.24H523.381V117.96H517.061V125.88C517.061 127.92 518.021 128.56 520.421 128.56C521.261 128.56 522.501 128.44 523.181 128.28V132.88C522.661 133 520.981 133.32 519.341 133.32ZM526.102 111.16V106.32H532.182V111.16H526.102ZM526.102 133V113.24H532.182V133H526.102ZM535.475 133V105.28H541.555V133H535.475ZM53.8 191V164.68H72V169.84H60.36V176.28H70V180.68H60.36V191H53.8ZM83.6856 191.32C77.1656 191.32 72.9256 187.56 72.9256 181.16C72.9256 174.72 77.1656 170.92 83.6856 170.92C90.2056 170.92 94.4456 174.72 94.4456 181.16C94.4456 187.56 90.2056 191.32 83.6856 191.32ZM83.6856 186.68C86.6456 186.68 88.3656 184.64 88.3656 181.16C88.3656 177.64 86.6456 175.56 83.6856 175.56C80.7256 175.56 79.0056 177.64 79.0056 181.16C79.0056 184.64 80.7256 186.68 83.6856 186.68ZM97.1938 191V163.28H103.274V191H97.1938ZM106.491 191V163.28H112.571V180.76H112.611L121.051 171.24H128.451L120.131 179.84L128.931 191H120.931L115.771 183.72L112.571 186.96V191H106.491ZM149.023 180.56V182.28H134.983C135.263 185.52 136.903 186.92 139.623 186.92C141.983 186.92 143.503 186.08 143.663 184.16H149.023C148.903 188.68 145.143 191.32 139.503 191.32C132.943 191.32 128.863 187.6 128.863 181.32C128.863 174.8 132.943 170.92 139.623 170.92C145.143 170.92 149.023 174.08 149.023 180.56ZM143.663 179.04V178.72C143.663 176.48 142.143 175.32 139.623 175.32C137.063 175.32 135.623 176.44 135.143 179.04H143.663ZM161.724 191.32C155.564 191.32 153.364 188.6 153.364 184.2V175.96H150.444V171.24H152.804C153.724 171.24 154.044 170.72 154.164 169.52L154.444 166.76H159.444V171.24H165.764V175.96H159.444V183.88C159.444 185.92 160.404 186.56 162.804 186.56C163.644 186.56 164.884 186.44 165.564 186.28V190.88C165.044 191 163.364 191.32 161.724 191.32ZM168.485 169.16V164.32H174.565V169.16H168.485ZM168.485 191V171.24H174.565V191H168.485ZM177.778 191V171.24H183.858L183.618 176.48H183.698C184.698 172.72 187.018 170.92 191.498 170.92C196.258 170.92 199.338 173.52 199.338 178.64V191H193.258V180C193.258 177.2 191.658 175.96 188.978 175.96C185.778 175.96 183.858 177.84 183.858 181.6V191H177.778ZM216.512 187.4C220.992 187.4 223.632 189.36 223.632 192.64C223.632 197.16 219.592 199.56 212.752 199.56C205.792 199.56 201.672 197.64 201.672 194.36C201.672 192.28 203.032 191 205.232 190.76V190.72C204.032 189.96 203.392 188.88 203.392 187.48C203.392 185.6 204.352 184.44 205.832 183.76V183.72C203.752 182.52 202.592 180.56 202.592 178C202.592 173.56 206.032 170.92 211.832 170.92C214.152 170.92 216.072 171.32 217.552 172.12L217.592 172.04C216.792 171.32 216.432 170.52 216.432 169.8C216.432 168.16 218.072 167.2 220.592 167.2C221.672 167.2 222.232 167.28 222.792 167.4V171.24C222.432 171.16 222.032 171.12 221.592 171.12C220.312 171.12 219.712 171.68 219.712 172.6C219.712 173.08 219.872 173.68 220.152 174.4C220.792 175.4 221.112 176.6 221.112 178C221.112 182.44 217.672 185.04 211.832 185.04C210.632 185.04 209.552 184.92 208.552 184.72C208.392 184.96 208.192 185.44 208.192 186C208.192 186.88 208.912 187.4 210.112 187.4H216.512ZM211.832 174.76C209.632 174.76 208.312 175.96 208.312 178C208.312 180 209.632 181.2 211.832 181.2C214.072 181.2 215.392 180 215.392 178C215.392 175.96 214.072 174.76 211.832 174.76ZM212.672 195.88C215.752 195.88 217.552 195.04 217.552 193.48C217.552 192.4 216.752 191.8 214.992 191.8H210.312C208.672 191.8 207.712 192.48 207.712 193.6C207.712 195.08 209.552 195.88 212.672 195.88ZM234.837 191.32C227.877 191.32 224.957 188.36 224.957 184.36H230.397C230.397 186.2 231.317 187.4 234.797 187.4C237.957 187.4 239.077 186.48 239.077 185.04C239.077 184.32 238.717 183.76 237.677 183.52C236.637 183.28 235.037 183.12 233.077 182.96C230.237 182.72 228.037 182.28 226.837 181.44C225.717 180.64 224.957 179.2 224.957 177.56C224.957 173.28 229.357 170.92 234.837 170.92C241.317 170.92 244.277 173.4 244.277 178H238.917C238.877 175.92 237.917 174.84 234.917 174.84C232.197 174.84 230.997 175.76 230.997 177.12C230.997 177.96 231.317 178.6 232.437 178.88C233.437 179.12 235.197 179.28 237.317 179.48C239.757 179.72 241.477 179.96 242.957 180.8C244.237 181.52 245.157 183 245.157 184.72C245.157 188.88 241.597 191.32 234.837 191.32ZM254.241 191L245.961 171.24H253.041L258.121 185.44H258.201L263.401 171.24H269.641L261.481 191H254.241ZM278.502 191.32C273.902 191.32 270.702 189.32 270.702 185.32C270.702 182.08 273.022 179.72 278.262 179.72H284.702V178.4C284.702 176 283.342 175.04 280.542 175.04C278.262 175.04 276.942 176 276.942 177.6C276.942 177.72 276.942 178.04 276.982 178.44H271.382C271.342 178.12 271.302 177.68 271.302 177.28C271.302 173.28 274.822 170.92 280.822 170.92C287.102 170.92 290.782 173.72 290.782 179V191H284.702C284.822 190 284.982 188.2 284.982 187H284.942C284.342 189.8 282.102 191.32 278.502 191.32ZM279.702 187.2C282.862 187.2 284.702 185.8 284.702 183.4V183H278.822C277.182 183 276.182 183.76 276.182 184.88C276.182 186.4 277.502 187.2 279.702 187.2ZM293.717 191V163.28H299.797V191H293.717ZM317.254 187.4C321.734 187.4 324.374 189.36 324.374 192.64C324.374 197.16 320.334 199.56 313.494 199.56C306.534 199.56 302.414 197.64 302.414 194.36C302.414 192.28 303.774 191 305.974 190.76V190.72C304.774 189.96 304.134 188.88 304.134 187.48C304.134 185.6 305.094 184.44 306.574 183.76V183.72C304.494 182.52 303.334 180.56 303.334 178C303.334 173.56 306.774 170.92 312.574 170.92C314.894 170.92 316.814 171.32 318.294 172.12L318.334 172.04C317.534 171.32 317.174 170.52 317.174 169.8C317.174 168.16 318.814 167.2 321.334 167.2C322.414 167.2 322.974 167.28 323.534 167.4V171.24C323.174 171.16 322.774 171.12 322.334 171.12C321.054 171.12 320.454 171.68 320.454 172.6C320.454 173.08 320.614 173.68 320.894 174.4C321.534 175.4 321.854 176.6 321.854 178C321.854 182.44 318.414 185.04 312.574 185.04C311.374 185.04 310.294 184.92 309.294 184.72C309.134 184.96 308.934 185.44 308.934 186C308.934 186.88 309.654 187.4 310.854 187.4H317.254ZM312.574 174.76C310.374 174.76 309.054 175.96 309.054 178C309.054 180 310.374 181.2 312.574 181.2C314.814 181.2 316.134 180 316.134 178C316.134 175.96 314.814 174.76 312.574 174.76ZM313.414 195.88C316.494 195.88 318.294 195.04 318.294 193.48C318.294 192.4 317.494 191.8 315.734 191.8H311.054C309.414 191.8 308.454 192.48 308.454 193.6C308.454 195.08 310.294 195.88 313.414 195.88ZM345.312 180.56V182.28H331.272C331.552 185.52 333.192 186.92 335.912 186.92C338.272 186.92 339.792 186.08 339.952 184.16H345.312C345.192 188.68 341.432 191.32 335.792 191.32C329.232 191.32 325.152 187.6 325.152 181.32C325.152 174.8 329.232 170.92 335.912 170.92C341.432 170.92 345.312 174.08 345.312 180.56ZM339.952 179.04V178.72C339.952 176.48 338.432 175.32 335.912 175.32C333.352 175.32 331.912 176.44 331.432 179.04H339.952ZM358.013 191.32C351.853 191.32 349.653 188.6 349.653 184.2V175.96H346.733V171.24H349.093C350.013 171.24 350.333 170.72 350.453 169.52L350.733 166.76H355.733V171.24H362.053V175.96H355.733V183.88C355.733 185.92 356.693 186.56 359.093 186.56C359.933 186.56 361.173 186.44 361.853 186.28V190.88C361.333 191 359.653 191.32 358.013 191.32ZM373.953 191C373.953 184.64 374.593 182.6 381.313 179.4C386.393 177 387.793 175.56 387.793 173.16C387.793 170.84 386.433 169.48 384.072 169.48C381.393 169.48 379.833 171.08 379.833 174.28C379.833 174.72 379.833 175.48 379.953 176.48H374.273C374.193 175.88 374.113 174.88 374.113 173.84C374.113 168.28 377.273 164.32 384.273 164.32C390.713 164.32 394.193 167.88 394.193 172.6C394.193 176.8 392.073 179.48 385.633 182.4C381.513 184.28 381.233 184.92 381.233 185.88H394.753V191H373.953ZM408.493 191.36C400.853 191.36 397.493 185.88 397.493 177.72C397.493 169.36 401.173 164.32 408.493 164.32C415.853 164.32 419.573 169.36 419.573 177.72C419.573 185.88 416.213 191.36 408.493 191.36ZM408.493 186.2C411.733 186.2 413.213 183.12 413.213 177.76C413.213 172.36 411.573 169.48 408.493 169.48C405.453 169.48 403.853 172.36 403.853 177.76C403.853 183.12 405.293 186.2 408.493 186.2ZM422.234 191V185.84H430.234V175.16H424.514V170.96L427.634 170.88C430.314 170.8 431.194 169.2 431.314 164.6H436.674V185.84H443.114V191H422.234ZM457.214 191.36C450.414 191.36 446.414 188.64 446.414 183.96C446.414 183.52 446.454 183.08 446.494 182.8H452.414C452.374 183.08 452.374 183.32 452.374 183.44C452.374 185.16 454.134 186.2 457.014 186.2C459.654 186.2 461.134 184.68 461.134 182.04C461.134 179.6 459.534 178.16 456.814 178.16C454.614 178.16 453.054 179.08 452.614 180.6L446.774 180.08L447.854 164.68H465.894V169.84H453.134L452.574 177.16L452.654 177.2C453.414 175.2 455.654 174.04 458.934 174.04C464.534 174.04 467.574 177.12 467.574 182.04C467.574 187.8 463.574 191.36 457.214 191.36ZM56.368 229.528C54.28 227.2 52.84 223.528 52.84 219.184C52.84 214.864 54.304 210.952 56.416 208.6H58.048C55.984 211 54.424 215.008 54.424 219.184C54.424 223.36 55.984 227.128 58.048 229.528H56.368ZM59.9624 212.632V210.208H62.0264V212.632H59.9624ZM60.0344 226V214.144H61.9544V226H60.0344ZM65.5656 226V209.368H67.4856V220.768H67.5096L74.9496 214.144H77.6376L71.6376 219.304L77.9736 226H75.2376L70.1976 220.528L67.4856 222.88V226H65.5656ZM80.3313 226V209.368H82.2513V220.768H82.2753L89.7153 214.144H92.4033L86.4033 219.304L92.7393 226H90.0033L84.9633 220.528L82.2513 222.88V226H80.3313ZM104.908 219.568V220.456H95.62C95.74 222.976 97.276 224.56 99.604 224.56C101.596 224.56 102.964 223.552 103.132 221.992H104.908C104.788 224.56 102.7 226.192 99.58 226.192C96.004 226.192 93.7 223.84 93.7 220.168C93.7 216.376 95.98 213.952 99.532 213.952C102.916 213.952 104.908 216.04 104.908 219.568ZM103.132 219.064V218.92C103.132 216.832 101.836 215.584 99.58 215.584C97.468 215.584 96.052 216.808 95.692 219.064H103.132ZM113.328 226V214.144H115.248L115.2 217.288H115.224C115.728 215.248 117.24 213.952 119.376 213.952C121.704 213.952 123.24 215.176 123.528 217.072H123.552C123.96 215.176 125.496 213.952 127.728 213.952C130.416 213.952 131.976 215.728 131.976 218.488V226H130.056V218.896C130.056 216.928 129.096 215.68 127.2 215.68C125.016 215.68 123.624 217.288 123.624 220.024V226H121.704V218.824C121.704 216.904 120.72 215.68 118.824 215.68C116.64 215.68 115.248 217.312 115.248 220.12V226H113.328ZM145.947 219.568V220.456H136.659C136.779 222.976 138.315 224.56 140.643 224.56C142.635 224.56 144.003 223.552 144.171 221.992H145.947C145.827 224.56 143.739 226.192 140.619 226.192C137.043 226.192 134.739 223.84 134.739 220.168C134.739 216.376 137.019 213.952 140.571 213.952C143.955 213.952 145.947 216.04 145.947 219.568ZM144.171 219.064V218.92C144.171 216.832 142.875 215.584 140.619 215.584C138.507 215.584 137.091 216.808 136.731 219.064H144.171ZM153.996 226.192C150.564 226.192 148.356 223.696 148.356 220C148.356 216.472 150.564 213.952 154.164 213.952C156.636 213.952 158.148 214.96 158.58 216.52H158.604V209.368H160.524V226H158.604C158.676 224.944 158.7 223.888 158.724 222.832H158.676C158.22 224.872 156.636 226.192 153.996 226.192ZM154.308 224.464C156.924 224.464 158.604 222.808 158.604 220.216V219.616C158.604 217.216 156.948 215.68 154.332 215.68C151.86 215.68 150.276 217.528 150.276 220C150.276 222.64 151.86 224.464 154.308 224.464ZM164.12 226V209.368H166.04V226H164.12ZM180.26 219.568V220.456H170.972C171.092 222.976 172.628 224.56 174.956 224.56C176.948 224.56 178.316 223.552 178.484 221.992H180.26C180.14 224.56 178.052 226.192 174.932 226.192C171.356 226.192 169.052 223.84 169.052 220.168C169.052 216.376 171.332 213.952 174.884 213.952C178.268 213.952 180.26 216.04 180.26 219.568ZM178.484 219.064V218.92C178.484 216.832 177.188 215.584 174.932 215.584C172.82 215.584 171.404 216.808 171.044 219.064H178.484ZM183.149 226V214.144H185.069L185.021 217.288H185.045C185.549 215.248 187.061 213.952 189.197 213.952C191.525 213.952 193.061 215.176 193.349 217.072H193.373C193.781 215.176 195.317 213.952 197.549 213.952C200.237 213.952 201.797 215.728 201.797 218.488V226H199.877V218.896C199.877 216.928 198.917 215.68 197.021 215.68C194.837 215.68 193.445 217.288 193.445 220.024V226H191.525V218.824C191.525 216.904 190.541 215.68 188.645 215.68C186.461 215.68 185.069 217.312 185.069 220.12V226H183.149ZM214.483 226.192C211.795 226.192 210.091 224.824 210.091 222.592C210.091 220.912 211.267 219.472 214.435 219.472H219.259V218.608C219.259 216.568 218.059 215.584 215.635 215.584C213.451 215.584 212.251 216.4 212.251 218.008C212.251 218.08 212.251 218.248 212.275 218.44H210.499C210.475 218.272 210.451 217.936 210.451 217.72C210.451 215.368 212.467 213.952 215.683 213.952C219.163 213.952 221.179 215.68 221.179 218.776V226H219.259C219.283 225.448 219.331 224.344 219.355 223.192H219.331C218.923 225.016 217.435 226.192 214.483 226.192ZM214.867 224.56C217.555 224.56 219.259 223.192 219.259 221.032V220.864H214.603C212.659 220.864 211.891 221.44 211.891 222.592C211.891 223.792 212.995 224.56 214.867 224.56ZM225.046 226V215.824H223.054V214.144H225.046V212.968C225.046 210.376 226.63 208.888 229.102 208.888C230.014 208.888 230.758 209.056 231.19 209.2V210.904C230.758 210.76 230.158 210.616 229.342 210.616C227.83 210.616 226.966 211.456 226.966 212.968V214.144H231.382V215.824H226.966V226H225.046ZM239.352 226V214.144H241.272L241.224 217.336H241.248C241.896 215.272 243.552 213.952 246.384 213.952C249.504 213.952 251.352 215.752 251.352 218.584V226H249.432V218.992C249.432 216.976 248.28 215.68 245.736 215.68C243.024 215.68 241.272 217.336 241.272 220.168V226H239.352ZM260.106 226.192C256.434 226.192 254.106 223.816 254.106 220.096C254.106 216.352 256.434 213.952 260.106 213.952C263.778 213.952 266.106 216.352 266.106 220.096C266.106 223.816 263.778 226.192 260.106 226.192ZM260.106 224.464C262.602 224.464 264.186 222.76 264.186 220.096C264.186 217.408 262.602 215.68 260.106 215.68C257.61 215.68 256.026 217.408 256.026 220.096C256.026 222.76 257.61 224.464 260.106 224.464ZM276.945 224.368C279.345 224.368 280.713 225.424 280.713 227.224C280.713 229.576 278.481 231.088 274.737 231.088C270.825 231.088 268.497 229.816 268.497 227.56C268.497 226.384 269.433 225.4 270.921 225.4V225.376C270.321 224.92 269.961 224.224 269.961 223.408C269.961 222.52 270.345 221.824 270.801 221.56V221.512C269.697 220.792 269.073 219.616 269.073 218.176C269.073 215.608 271.041 213.952 274.113 213.952C275.409 213.952 276.513 214.24 277.353 214.768V214.744C277.089 214.408 276.897 213.952 276.897 213.424C276.897 212.464 277.737 211.84 279.081 211.84C279.585 211.84 279.945 211.912 280.161 211.984V213.52C279.993 213.448 279.705 213.376 279.321 213.376C278.529 213.376 278.097 213.736 278.097 214.432C278.097 214.792 278.217 215.248 278.409 215.728C278.913 216.4 279.177 217.216 279.177 218.176C279.177 220.744 277.209 222.4 274.113 222.4C273.297 222.4 272.577 222.28 271.929 222.064C271.737 222.256 271.593 222.616 271.593 223.072C271.593 223.864 272.097 224.368 273.105 224.368H276.945ZM274.113 215.584C272.169 215.584 270.945 216.592 270.945 218.176C270.945 219.76 272.169 220.768 274.113 220.768C276.057 220.768 277.305 219.76 277.305 218.176C277.305 216.592 276.057 215.584 274.113 215.584ZM274.713 229.456C277.761 229.456 278.793 228.544 278.793 227.416C278.793 226.48 278.097 226 276.657 226H273.129C271.473 226 270.417 226.432 270.417 227.512C270.417 228.832 272.097 229.456 274.713 229.456ZM293.486 219.568V220.456H284.198C284.318 222.976 285.854 224.56 288.182 224.56C290.174 224.56 291.542 223.552 291.71 221.992H293.486C293.366 224.56 291.278 226.192 288.158 226.192C284.582 226.192 282.278 223.84 282.278 220.168C282.278 216.376 284.558 213.952 288.11 213.952C291.494 213.952 293.486 216.04 293.486 219.568ZM291.71 219.064V218.92C291.71 216.832 290.414 215.584 288.158 215.584C286.046 215.584 284.63 216.808 284.27 219.064H291.71ZM301.079 226.096C298.199 226.096 296.975 224.272 296.975 221.656V215.824H295.007V214.144H296.591C296.975 214.144 297.119 213.952 297.167 213.328L297.263 211.456H298.895V214.144H303.191V215.824H298.895V221.536C298.895 223.336 299.471 224.416 301.247 224.416C302.063 224.416 302.831 224.272 303.095 224.176V225.808C302.735 225.952 302.039 226.096 301.079 226.096ZM311.448 230.752V214.144H313.368L313.32 217.192H313.344C313.824 215.224 315.504 213.952 318.072 213.952C321.528 213.952 323.64 216.256 323.64 219.88C323.64 223.72 321.504 226.192 318.024 226.192C315.504 226.192 313.824 224.992 313.32 223.384H313.296C313.32 224.176 313.368 225.424 313.368 225.976V230.752H311.448ZM317.76 224.464C320.184 224.464 321.72 222.688 321.72 219.904C321.72 217.336 320.208 215.68 317.712 215.68C315.12 215.68 313.416 217.384 313.368 220.048V220.768C313.368 223.024 315.072 224.464 317.76 224.464ZM329.819 226.192C327.131 226.192 325.427 224.824 325.427 222.592C325.427 220.912 326.603 219.472 329.771 219.472H334.595V218.608C334.595 216.568 333.395 215.584 330.971 215.584C328.787 215.584 327.587 216.4 327.587 218.008C327.587 218.08 327.587 218.248 327.611 218.44H325.835C325.811 218.272 325.787 217.936 325.787 217.72C325.787 215.368 327.803 213.952 331.019 213.952C334.499 213.952 336.515 215.68 336.515 218.776V226H334.595C334.619 225.448 334.667 224.344 334.691 223.192H334.667C334.259 225.016 332.771 226.192 329.819 226.192ZM330.203 224.56C332.891 224.56 334.595 223.192 334.595 221.032V220.864H329.939C327.995 220.864 327.227 221.44 327.227 222.592C327.227 223.792 328.331 224.56 330.203 224.56ZM339.758 226V214.144H341.678L341.63 217.576H341.654C342.206 215.512 343.43 213.952 345.974 213.952C348.638 213.952 350.054 215.728 350.054 218.584C350.054 219.4 349.982 220.264 349.934 220.696H348.182C348.23 220.336 348.278 219.736 348.278 218.992C348.278 216.808 347.462 215.68 345.518 215.68C343.094 215.68 341.678 217.792 341.678 220.744V226H339.758ZM357.634 226.096C354.754 226.096 353.53 224.272 353.53 221.656V215.824H351.562V214.144H353.146C353.53 214.144 353.674 213.952 353.722 213.328L353.818 211.456H355.45V214.144H359.746V215.824H355.45V221.536C355.45 223.336 356.026 224.416 357.802 224.416C358.618 224.416 359.386 224.272 359.65 224.176V225.808C359.29 225.952 358.594 226.096 357.634 226.096ZM362.4 212.632V210.208H364.464V212.632H362.4ZM362.472 226V214.144H364.392V226H362.472ZM373.534 226V209.368H375.454V226H373.534ZM398.866 219.568V220.696H389.602C389.794 223.072 391.306 224.56 393.562 224.56C395.554 224.56 396.922 223.552 397.09 221.992H398.866C398.746 224.56 396.658 226.192 393.514 226.192C390.994 226.192 389.074 224.968 388.33 223.168H388.258C387.826 224.968 386.242 226.192 383.05 226.192C380.17 226.192 378.466 224.8 378.466 222.64C378.466 220.816 379.642 219.304 382.81 219.304H387.634V218.608C387.634 216.568 386.434 215.584 384.01 215.584C381.874 215.584 380.626 216.4 380.626 217.816C380.626 217.96 380.626 218.176 380.65 218.44H378.874C378.85 218.248 378.826 217.984 378.826 217.72C378.826 215.368 380.866 213.952 384.058 213.952C386.65 213.952 388.258 214.84 388.738 216.424H388.762C389.53 214.984 391.138 213.952 393.49 213.952C396.874 213.952 398.866 216.04 398.866 219.568ZM397.09 219.304V218.944C397.09 216.832 395.794 215.584 393.538 215.584C391.354 215.584 389.89 216.904 389.626 219.304H397.09ZM387.634 220.96V220.696H382.978C381.034 220.696 380.266 221.32 380.266 222.544C380.266 223.792 381.37 224.56 383.242 224.56C385.93 224.56 387.634 223.192 387.634 220.96ZM401.75 226V214.144H403.67L403.622 217.336H403.646C404.294 215.272 405.95 213.952 408.782 213.952C411.902 213.952 413.75 215.752 413.75 218.584V226H411.83V218.992C411.83 216.976 410.678 215.68 408.134 215.68C405.422 215.68 403.67 217.336 403.67 220.168V226H401.75ZM424.953 224.368C427.353 224.368 428.721 225.424 428.721 227.224C428.721 229.576 426.489 231.088 422.745 231.088C418.833 231.088 416.505 229.816 416.505 227.56C416.505 226.384 417.441 225.4 418.929 225.4V225.376C418.329 224.92 417.969 224.224 417.969 223.408C417.969 222.52 418.353 221.824 418.809 221.56V221.512C417.705 220.792 417.081 219.616 417.081 218.176C417.081 215.608 419.049 213.952 422.121 213.952C423.417 213.952 424.521 214.24 425.361 214.768V214.744C425.097 214.408 424.905 213.952 424.905 213.424C424.905 212.464 425.745 211.84 427.089 211.84C427.593 211.84 427.953 211.912 428.169 211.984V213.52C428.001 213.448 427.713 213.376 427.329 213.376C426.537 213.376 426.105 213.736 426.105 214.432C426.105 214.792 426.225 215.248 426.417 215.728C426.921 216.4 427.185 217.216 427.185 218.176C427.185 220.744 425.217 222.4 422.121 222.4C421.305 222.4 420.585 222.28 419.937 222.064C419.745 222.256 419.601 222.616 419.601 223.072C419.601 223.864 420.105 224.368 421.113 224.368H424.953ZM422.121 215.584C420.177 215.584 418.953 216.592 418.953 218.176C418.953 219.76 420.177 220.768 422.121 220.768C424.065 220.768 425.313 219.76 425.313 218.176C425.313 216.592 424.065 215.584 422.121 215.584ZM422.721 229.456C425.769 229.456 426.801 228.544 426.801 227.416C426.801 226.48 426.105 226 424.665 226H421.137C419.481 226 418.425 226.432 418.425 227.512C418.425 228.832 420.105 229.456 422.721 229.456ZM441.494 219.568V220.456H432.206C432.326 222.976 433.862 224.56 436.19 224.56C438.182 224.56 439.55 223.552 439.718 221.992H441.494C441.374 224.56 439.286 226.192 436.166 226.192C432.59 226.192 430.286 223.84 430.286 220.168C430.286 216.376 432.566 213.952 436.118 213.952C439.502 213.952 441.494 216.04 441.494 219.568ZM439.718 219.064V218.92C439.718 216.832 438.422 215.584 436.166 215.584C434.054 215.584 432.638 216.808 432.278 219.064H439.718ZM444.383 226V214.144H446.303L446.255 217.576H446.279C446.831 215.512 448.055 213.952 450.599 213.952C453.263 213.952 454.679 215.728 454.679 218.584C454.679 219.4 454.607 220.264 454.559 220.696H452.807C452.855 220.336 452.903 219.736 452.903 218.992C452.903 216.808 452.087 215.68 450.143 215.68C447.719 215.68 446.303 217.792 446.303 220.744V226H444.383ZM468.283 219.568V220.456H458.995C459.115 222.976 460.651 224.56 462.979 224.56C464.971 224.56 466.339 223.552 466.507 221.992H468.283C468.163 224.56 466.075 226.192 462.955 226.192C459.379 226.192 457.075 223.84 457.075 220.168C457.075 216.376 459.355 213.952 462.907 213.952C466.291 213.952 468.283 216.04 468.283 219.568ZM466.507 219.064V218.92C466.507 216.832 465.211 215.584 462.955 215.584C460.843 215.584 459.427 216.808 459.067 219.064H466.507ZM469.66 229.528C471.748 227.128 473.308 223.36 473.308 219.184C473.308 215.008 471.748 211 469.66 208.6H471.316C473.404 210.952 474.892 214.864 474.892 219.184C474.892 223.528 473.452 227.2 471.364 229.528H469.66Z" fill="black"/>
<path d="M413.44 284C413.44 280.76 413.992 279.8 418.168 277.856C422.128 276.008 422.752 275.048 422.752 272.96C422.752 271.088 421.432 269.768 419.224 269.768C416.728 269.768 415.36 271.328 415.36 273.776C415.36 274.52 415.432 275.24 415.504 275.6H413.68C413.608 275.24 413.536 274.496 413.536 273.68C413.536 270.2 415.624 267.992 419.272 267.992C422.632 267.992 424.72 270.032 424.72 272.96C424.72 275.36 423.832 277.016 419.224 279.176C415.84 280.76 415.456 281.24 415.456 282.224H425.008V284H413.44ZM433.732 284.216C429.82 284.216 427.564 281.072 427.564 276.032C427.564 271.088 429.82 267.992 433.732 267.992C437.644 267.992 439.9 271.088 439.9 276.032C439.9 281.072 437.644 284.216 433.732 284.216ZM433.732 282.44C436.444 282.44 437.932 279.992 437.932 276.032C437.932 272.168 436.444 269.768 433.732 269.768C431.02 269.768 429.532 272.168 429.532 276.032C429.532 279.992 431.02 282.44 433.732 282.44ZM442.361 284V282.224H447.689V273.776H444.065V272.312L446.273 272.264C447.737 272.24 447.905 271.88 447.929 268.04H449.657V282.224H454.073V284H442.361ZM464.981 284V280.28H456.317V278.504L464.717 268.208H466.949V278.504H469.565V280.28H466.949V284H464.981ZM458.429 278.504H464.981V270.512H464.957L458.429 278.48V278.504ZM470.802 277.904V276.512H476.13V277.904H470.802ZM478.432 284C478.432 280.76 478.984 279.8 483.16 277.856C487.12 276.008 487.744 275.048 487.744 272.96C487.744 271.088 486.424 269.768 484.216 269.768C481.72 269.768 480.352 271.328 480.352 273.776C480.352 274.52 480.424 275.24 480.496 275.6H478.672C478.6 275.24 478.528 274.496 478.528 273.68C478.528 270.2 480.616 267.992 484.264 267.992C487.624 267.992 489.712 270.032 489.712 272.96C489.712 275.36 488.824 277.016 484.216 279.176C480.832 280.76 480.448 281.24 480.448 282.224H490V284H478.432ZM498.725 284.216C494.813 284.216 492.557 281.072 492.557 276.032C492.557 271.088 494.813 267.992 498.725 267.992C502.637 267.992 504.893 271.088 504.893 276.032C504.893 281.072 502.637 284.216 498.725 284.216ZM498.725 282.44C501.437 282.44 502.925 279.992 502.925 276.032C502.925 272.168 501.437 269.768 498.725 269.768C496.013 269.768 494.525 272.168 494.525 276.032C494.525 279.992 496.013 282.44 498.725 282.44ZM507.353 284V282.224H512.681V273.776H509.057V272.312L511.265 272.264C512.729 272.24 512.897 271.88 512.921 268.04H514.649V282.224H519.065V284H507.353ZM527.813 284.216C524.213 284.216 521.837 282.512 521.837 279.92C521.837 279.704 521.861 279.464 521.885 279.344H523.733C523.709 279.56 523.709 279.704 523.709 279.824C523.709 281.408 525.341 282.44 527.813 282.44C530.189 282.44 531.725 280.808 531.725 278.624C531.725 276.56 530.189 275.264 527.765 275.264C525.989 275.264 524.477 276.08 523.949 277.352L522.077 277.16L522.701 268.208H532.733V269.984H524.357L523.901 275.888H523.949C524.453 274.544 526.013 273.68 528.197 273.68C531.629 273.68 533.693 275.624 533.693 278.624C533.693 281.888 531.413 284.216 527.813 284.216Z" fill="#07093B"/>
<line y1="-2" x2="65.9881" y2="-2" transform="matrix(0.47692 -0.878947 0.858775 0.512352 271 63)" stroke="#614718" stroke-width="4"/>
<path d="M329.877 62.0107L298.406 4.01074" stroke="#614718" stroke-width="4"/>
<ellipse cx="299.609" cy="7" rx="6.67568" ry="7" fill="#D9D9D9"/>
<defs>
<filter id="filter0_d_766_5231" x="0" y="63" width="596" height="270" filterUnits="userSpaceOnUse" color-interpolation-filters="sRGB">
<feFlood flood-opacity="0" result="BackgroundImageFix"/>
<feColorMatrix in="SourceAlpha" type="matrix" values="0 0 0 0 0 0 0 0 0 0 0 0 0 0 0 0 0 0 127 0" result="hardAlpha"/>
<feOffset dy="4"/>
<feGaussianBlur stdDeviation="2"/>
<feComposite in2="hardAlpha" operator="out"/>
<feColorMatrix type="matrix" values="0 0 0 0 0 0 0 0 0 0 0 0 0 0 0 0 0 0 0.25 0"/>
<feBlend mode="normal" in2="BackgroundImageFix" result="effect1_dropShadow_766_5231"/>
<feBlend mode="normal" in="SourceGraphic" in2="effect1_dropShadow_766_5231" result="shape"/>
</filter>
</defs>
</svg>
