<svg width="596" height="333" viewBox="0 0 596 333" fill="none" xmlns="http://www.w3.org/2000/svg">
<g filter="url(#filter0_d_766_5229)">
<rect x="15.5" y="74.5" width="565" height="239" stroke="#DFC392" stroke-width="23" shape-rendering="crispEdges"/>
</g>
<path d="M53.8 133V106.68H72.44V111.84H60.36V117.76H69.72V121.76H60.36V127.84H72.8V133H53.8ZM75.3188 133V105.28H81.3988V122.76H81.4388L89.8788 113.24H97.2788L88.9588 121.84L97.7588 133H89.7588L84.5988 125.72L81.3988 128.96V133H75.3188ZM108.392 133.32C101.432 133.32 98.5116 130.36 98.5116 126.36H103.952C103.952 128.2 104.872 129.4 108.352 129.4C111.512 129.4 112.632 128.48 112.632 127.04C112.632 126.32 112.272 125.76 111.232 125.52C110.192 125.28 108.592 125.12 106.632 124.96C103.792 124.72 101.592 124.28 100.392 123.44C99.2716 122.64 98.5116 121.2 98.5116 119.56C98.5116 115.28 102.912 112.92 108.392 112.92C114.872 112.92 117.832 115.4 117.832 120H112.472C112.432 117.92 111.472 116.84 108.472 116.84C105.752 116.84 104.552 117.76 104.552 119.12C104.552 119.96 104.872 120.6 105.992 120.88C106.992 121.12 108.752 121.28 110.872 121.48C113.312 121.72 115.032 121.96 116.512 122.8C117.792 123.52 118.712 125 118.712 126.72C118.712 130.88 115.152 133.32 108.392 133.32ZM121.491 140.92V113.24H127.571L127.451 117.28H127.491C128.251 114.56 130.771 112.92 134.171 112.92C139.691 112.92 143.291 116.84 143.291 122.68C143.291 129.08 139.691 133.32 134.131 133.32C130.531 133.32 128.291 131.84 127.411 129.44H127.371C127.451 130.76 127.571 132.72 127.571 133.44V140.92H121.491ZM132.691 128.68C135.411 128.68 137.251 126.36 137.251 122.92C137.251 119.72 135.411 117.56 132.651 117.56C129.611 117.56 127.571 119.76 127.571 123.08V123.96C127.571 126.8 129.611 128.68 132.691 128.68ZM165.781 122.56V124.28H151.741C152.021 127.52 153.661 128.92 156.381 128.92C158.741 128.92 160.261 128.08 160.421 126.16H165.781C165.661 130.68 161.901 133.32 156.261 133.32C149.701 133.32 145.621 129.6 145.621 123.32C145.621 116.8 149.701 112.92 156.381 112.92C161.901 112.92 165.781 116.08 165.781 122.56ZM160.421 121.04V120.72C160.421 118.48 158.901 117.32 156.381 117.32C153.821 117.32 152.381 118.44 151.901 121.04H160.421ZM168.442 133V113.24H174.522L174.282 118.88H174.362C175.202 115.12 177.322 112.92 181.202 112.92C185.242 112.92 187.602 115.52 187.602 120.64C187.602 121.76 187.482 123.52 187.402 124.56H181.882C181.962 123.6 182.002 122.6 182.002 122C182.002 119.12 180.842 117.96 178.922 117.96C176.322 117.96 174.522 120.08 174.522 124.48V133H168.442ZM200.24 133.32C194.08 133.32 191.88 130.6 191.88 126.2V117.96H188.96V113.24H191.32C192.24 113.24 192.56 112.72 192.68 111.52L192.96 108.76H197.96V113.24H204.28V117.96H197.96V125.88C197.96 127.92 198.92 128.56 201.32 128.56C202.16 128.56 203.4 128.44 204.08 128.28V132.88C203.56 133 201.88 133.32 200.24 133.32ZM206.84 133V113.24H212.92L212.72 118.36H212.76C213.68 114.96 215.92 112.92 219.52 112.92C223.32 112.92 225.76 114.88 226.2 118.08H226.24C227.04 114.88 229.2 112.92 233 112.92C237.32 112.92 239.76 115.64 239.76 120.28V133H233.68V121.68C233.68 119.36 232.48 117.96 230.4 117.96C228 117.96 226.32 119.8 226.32 123.44V133H220.24V121.68C220.24 119.36 219.04 117.96 216.96 117.96C214.6 117.96 212.92 119.84 212.92 123.56V133H206.84ZM262.383 122.56V124.28H248.343C248.623 127.52 250.263 128.92 252.983 128.92C255.343 128.92 256.863 128.08 257.023 126.16H262.383C262.263 130.68 258.503 133.32 252.863 133.32C246.303 133.32 242.223 129.6 242.223 123.32C242.223 116.8 246.303 112.92 252.983 112.92C258.503 112.92 262.383 116.08 262.383 122.56ZM257.023 121.04V120.72C257.023 118.48 255.503 117.32 252.983 117.32C250.423 117.32 248.983 118.44 248.503 121.04H257.023ZM273.963 133.32C268.243 133.32 264.683 129.16 264.683 122.96C264.683 116.92 268.443 112.92 274.203 112.92C277.403 112.92 279.483 114.12 280.363 116.16H280.403V105.28H286.483V133H280.403C280.443 132.6 280.523 130.88 280.643 128.76H280.563C279.803 131.56 277.563 133.32 273.963 133.32ZM275.363 128.68C278.403 128.68 280.403 126.52 280.403 123.28V122.32C280.403 119.48 278.403 117.56 275.443 117.56C272.603 117.56 270.723 119.72 270.723 123C270.723 126.36 272.563 128.68 275.363 128.68ZM289.694 133V105.28H295.774V133H289.694ZM318.711 122.56V124.28H304.671C304.951 127.52 306.591 128.92 309.311 128.92C311.671 128.92 313.191 128.08 313.351 126.16H318.711C318.591 130.68 314.831 133.32 309.191 133.32C302.631 133.32 298.551 129.6 298.551 123.32C298.551 116.8 302.631 112.92 309.311 112.92C314.831 112.92 318.711 116.08 318.711 122.56ZM313.351 121.04V120.72C313.351 118.48 311.831 117.32 309.311 117.32C306.751 117.32 305.311 118.44 304.831 121.04H313.351ZM321.372 133V113.24H327.452L327.252 118.36H327.292C328.212 114.96 330.452 112.92 334.052 112.92C337.852 112.92 340.292 114.88 340.732 118.08H340.772C341.572 114.88 343.732 112.92 347.532 112.92C351.852 112.92 354.292 115.64 354.292 120.28V133H348.212V121.68C348.212 119.36 347.012 117.96 344.932 117.96C342.532 117.96 340.852 119.8 340.852 123.44V133H334.772V121.68C334.772 119.36 333.572 117.96 331.492 117.96C329.132 117.96 327.452 119.84 327.452 123.56V133H321.372ZM373.893 133.32C369.293 133.32 366.093 131.32 366.093 127.32C366.093 124.08 368.413 121.72 373.653 121.72H380.093V120.4C380.093 118 378.733 117.04 375.933 117.04C373.653 117.04 372.333 118 372.333 119.6C372.333 119.72 372.333 120.04 372.373 120.44H366.773C366.733 120.12 366.693 119.68 366.693 119.28C366.693 115.28 370.213 112.92 376.213 112.92C382.493 112.92 386.173 115.72 386.173 121V133H380.093C380.213 132 380.373 130.2 380.373 129H380.333C379.733 131.8 377.493 133.32 373.893 133.32ZM375.092 129.2C378.253 129.2 380.093 127.8 380.093 125.4V125H374.213C372.573 125 371.573 125.76 371.573 126.88C371.573 128.4 372.893 129.2 375.092 129.2ZM390.708 133V117.96H387.788V113.24H390.708V111.32C390.708 106.76 394.028 104.44 398.508 104.44C400.508 104.44 402.228 104.88 402.748 105.08V109.56C402.228 109.4 401.148 109.08 399.748 109.08C397.748 109.08 396.788 110 396.788 111.76V113.24H403.068V117.96H396.788V133H390.708ZM424.853 133.36C418.133 133.36 414.173 130.28 414.173 125.04C414.173 124.16 414.293 123.28 414.373 122.84H420.093C420.053 123.4 420.053 123.84 420.053 124.12C420.053 126.68 421.813 128.2 424.853 128.2C428.173 128.2 429.813 126.72 429.813 124.36C429.813 122.72 428.813 121.84 426.653 121.84H422.733V117.84H426.013C428.013 117.84 429.173 116.76 429.173 114.88C429.173 112.72 427.613 111.48 424.973 111.48C421.973 111.48 420.493 112.96 420.493 115.44C420.493 116.04 420.533 116.6 420.573 116.88H415.053C414.933 116.44 414.813 115.48 414.813 114.44C414.813 109.32 418.653 106.32 425.213 106.32C430.973 106.32 435.013 109 435.013 113.76C435.013 116.28 433.733 118.2 431.533 118.76V118.88C434.493 119.48 436.213 121.64 436.213 124.76C436.213 130.16 432.013 133.36 424.853 133.36ZM439.073 133V106.68H457.273V111.84H445.633V118.28H455.273V122.68H445.633V133H439.073ZM459.264 118.56V115.64C461.264 115.56 462.144 114.72 462.144 112.84V112.68H459.664V106.68H465.584V110.92C465.584 116.44 463.264 118.44 459.264 118.56ZM476.595 133.32C469.635 133.32 466.715 130.36 466.715 126.36H472.155C472.155 128.2 473.075 129.4 476.555 129.4C479.715 129.4 480.835 128.48 480.835 127.04C480.835 126.32 480.475 125.76 479.435 125.52C478.395 125.28 476.795 125.12 474.835 124.96C471.995 124.72 469.795 124.28 468.595 123.44C467.475 122.64 466.715 121.2 466.715 119.56C466.715 115.28 471.115 112.92 476.595 112.92C483.075 112.92 486.035 115.4 486.035 120H480.675C480.635 117.92 479.675 116.84 476.675 116.84C473.955 116.84 472.755 117.76 472.755 119.12C472.755 119.96 473.075 120.6 474.195 120.88C475.195 121.12 476.955 121.28 479.075 121.48C481.515 121.72 483.235 121.96 484.715 122.8C485.995 123.52 486.915 125 486.915 126.72C486.915 130.88 483.355 133.32 476.595 133.32ZM53.8 191V164.68H60.36V185.84H72.36V191H53.8ZM74.8128 169.16V164.32H80.8928V169.16H74.8128ZM74.8128 191V171.24H80.8928V191H74.8128ZM98.4259 187.4C102.906 187.4 105.546 189.36 105.546 192.64C105.546 197.16 101.506 199.56 94.6659 199.56C87.7059 199.56 83.5859 197.64 83.5859 194.36C83.5859 192.28 84.9459 191 87.1459 190.76V190.72C85.9459 189.96 85.3059 188.88 85.3059 187.48C85.3059 185.6 86.2659 184.44 87.7459 183.76V183.72C85.6659 182.52 84.5059 180.56 84.5059 178C84.5059 173.56 87.9459 170.92 93.7459 170.92C96.0659 170.92 97.9859 171.32 99.4659 172.12L99.5059 172.04C98.7059 171.32 98.3459 170.52 98.3459 169.8C98.3459 168.16 99.9859 167.2 102.506 167.2C103.586 167.2 104.146 167.28 104.706 167.4V171.24C104.346 171.16 103.946 171.12 103.506 171.12C102.226 171.12 101.626 171.68 101.626 172.6C101.626 173.08 101.786 173.68 102.066 174.4C102.706 175.4 103.026 176.6 103.026 178C103.026 182.44 99.5859 185.04 93.7459 185.04C92.5459 185.04 91.4659 184.92 90.4659 184.72C90.3059 184.96 90.1059 185.44 90.1059 186C90.1059 186.88 90.8259 187.4 92.0259 187.4H98.4259ZM93.7459 174.76C91.5459 174.76 90.2259 175.96 90.2259 178C90.2259 180 91.5459 181.2 93.7459 181.2C95.9859 181.2 97.3059 180 97.3059 178C97.3059 175.96 95.9859 174.76 93.7459 174.76ZM94.5859 195.88C97.6659 195.88 99.4659 195.04 99.4659 193.48C99.4659 192.4 98.6659 191.8 96.9059 191.8H92.2259C90.5859 191.8 89.6259 192.48 89.6259 193.6C89.6259 195.08 91.4659 195.88 94.5859 195.88ZM126.484 180.56V182.28H112.444C112.724 185.52 114.364 186.92 117.084 186.92C119.444 186.92 120.964 186.08 121.124 184.16H126.484C126.364 188.68 122.604 191.32 116.964 191.32C110.404 191.32 106.324 187.6 106.324 181.32C106.324 174.8 110.404 170.92 117.084 170.92C122.604 170.92 126.484 174.08 126.484 180.56ZM121.124 179.04V178.72C121.124 176.48 119.604 175.32 117.084 175.32C114.524 175.32 113.084 176.44 112.604 179.04H121.124ZM138.665 191.32C131.705 191.32 128.785 188.36 128.785 184.36H134.225C134.225 186.2 135.145 187.4 138.625 187.4C141.785 187.4 142.905 186.48 142.905 185.04C142.905 184.32 142.545 183.76 141.505 183.52C140.465 183.28 138.865 183.12 136.905 182.96C134.065 182.72 131.865 182.28 130.665 181.44C129.545 180.64 128.785 179.2 128.785 177.56C128.785 173.28 133.185 170.92 138.665 170.92C145.145 170.92 148.105 173.4 148.105 178H142.745C142.705 175.92 141.745 174.84 138.745 174.84C136.025 174.84 134.825 175.76 134.825 177.12C134.825 177.96 135.145 178.6 136.265 178.88C137.265 179.12 139.025 179.28 141.145 179.48C143.585 179.72 145.305 179.96 146.785 180.8C148.065 181.52 148.985 183 148.985 184.72C148.985 188.88 145.425 191.32 138.665 191.32ZM161.724 191.32C155.564 191.32 153.364 188.6 153.364 184.2V175.96H150.444V171.24H152.804C153.724 171.24 154.044 170.72 154.164 169.52L154.444 166.76H159.444V171.24H165.764V175.96H159.444V183.88C159.444 185.92 160.404 186.56 162.804 186.56C163.644 186.56 164.884 186.44 165.564 186.28V190.88C165.044 191 163.364 191.32 161.724 191.32ZM168.485 169.16V164.32H174.565V169.16H168.485ZM168.485 191V171.24H174.565V191H168.485ZM177.858 191V163.28H183.938V191H177.858ZM187.155 191V163.28H193.235V191H187.155ZM196.532 169.16V164.32H202.612V169.16H196.532ZM196.532 191V171.24H202.612V191H196.532ZM205.825 191V171.24H211.905L211.665 176.48H211.745C212.745 172.72 215.065 170.92 219.545 170.92C224.305 170.92 227.385 173.52 227.385 178.64V191H221.305V180C221.305 177.2 219.705 175.96 217.025 175.96C213.825 175.96 211.905 177.84 211.905 181.6V191H205.825ZM244.559 187.4C249.039 187.4 251.679 189.36 251.679 192.64C251.679 197.16 247.639 199.56 240.799 199.56C233.839 199.56 229.719 197.64 229.719 194.36C229.719 192.28 231.079 191 233.279 190.76V190.72C232.079 189.96 231.439 188.88 231.439 187.48C231.439 185.6 232.399 184.44 233.879 183.76V183.72C231.799 182.52 230.639 180.56 230.639 178C230.639 173.56 234.079 170.92 239.879 170.92C242.199 170.92 244.119 171.32 245.599 172.12L245.639 172.04C244.839 171.32 244.479 170.52 244.479 169.8C244.479 168.16 246.119 167.2 248.639 167.2C249.719 167.2 250.279 167.28 250.839 167.4V171.24C250.479 171.16 250.079 171.12 249.639 171.12C248.359 171.12 247.759 171.68 247.759 172.6C247.759 173.08 247.919 173.68 248.199 174.4C248.839 175.4 249.159 176.6 249.159 178C249.159 182.44 245.719 185.04 239.879 185.04C238.679 185.04 237.599 184.92 236.599 184.72C236.439 184.96 236.239 185.44 236.239 186C236.239 186.88 236.959 187.4 238.159 187.4H244.559ZM239.879 174.76C237.679 174.76 236.359 175.96 236.359 178C236.359 180 237.679 181.2 239.879 181.2C242.119 181.2 243.439 180 243.439 178C243.439 175.96 242.119 174.76 239.879 174.76ZM240.719 195.88C243.799 195.88 245.599 195.04 245.599 193.48C245.599 192.4 244.799 191.8 243.039 191.8H238.359C236.719 191.8 235.759 192.48 235.759 193.6C235.759 195.08 237.599 195.88 240.719 195.88ZM262.884 191.32C255.924 191.32 253.004 188.36 253.004 184.36H258.444C258.444 186.2 259.364 187.4 262.844 187.4C266.004 187.4 267.124 186.48 267.124 185.04C267.124 184.32 266.764 183.76 265.724 183.52C264.684 183.28 263.084 183.12 261.124 182.96C258.284 182.72 256.084 182.28 254.884 181.44C253.764 180.64 253.004 179.2 253.004 177.56C253.004 173.28 257.404 170.92 262.884 170.92C269.364 170.92 272.324 173.4 272.324 178H266.964C266.924 175.92 265.964 174.84 262.964 174.84C260.244 174.84 259.044 175.76 259.044 177.12C259.044 177.96 259.364 178.6 260.484 178.88C261.484 179.12 263.244 179.28 265.364 179.48C267.804 179.72 269.524 179.96 271.004 180.8C272.284 181.52 273.204 183 273.204 184.72C273.204 188.88 269.644 191.32 262.884 191.32ZM285.943 191.32C279.783 191.32 277.583 188.6 277.583 184.2V175.96H274.663V171.24H277.023C277.943 171.24 278.263 170.72 278.383 169.52L278.663 166.76H283.663V171.24H289.983V175.96H283.663V183.88C283.663 185.92 284.623 186.56 287.023 186.56C287.863 186.56 289.103 186.44 289.783 186.28V190.88C289.263 191 287.583 191.32 285.943 191.32ZM325.877 180.56V182.28H311.837C312.117 185.52 313.757 186.92 316.477 186.92C318.837 186.92 320.357 186.08 320.517 184.16H325.877C325.757 188.68 321.997 191.32 316.357 191.32C311.997 191.32 308.957 189.76 307.717 187.32H307.637C306.717 189.92 304.637 191.32 300.357 191.32C294.957 191.32 291.757 189.32 291.757 185.32C291.757 182.08 294.077 179.72 299.317 179.72H305.757V178.4C305.757 176 304.397 175.04 301.597 175.04C299.317 175.04 297.997 176 297.997 177.6C297.997 177.84 297.997 178.12 298.037 178.44H292.437C292.397 178.12 292.357 177.68 292.357 177.28C292.357 173.28 295.877 170.92 301.397 170.92C305.517 170.92 307.677 171.88 309.077 173.6H309.157C310.717 171.88 312.797 170.92 316.557 170.92C321.997 170.92 325.877 174.08 325.877 180.56ZM320.517 179.04V178.72C320.517 176.48 318.997 175.32 316.477 175.32C313.917 175.32 312.477 176.44 311.997 179.04H320.517ZM305.757 183.4V183H299.877C298.237 183 297.237 183.76 297.237 184.88C297.237 186.4 298.557 187.2 300.757 187.2C303.917 187.2 305.757 185.8 305.757 183.4ZM328.559 191V171.24H334.639L334.399 176.48H334.479C335.479 172.72 337.799 170.92 342.279 170.92C347.039 170.92 350.119 173.52 350.119 178.64V191H344.039V180C344.039 177.2 342.439 175.96 339.759 175.96C336.559 175.96 334.639 177.84 334.639 181.6V191H328.559ZM353.053 191V163.28H359.133V180.76H359.173L367.613 171.24H375.013L366.693 179.84L375.493 191H367.493L362.333 183.72L359.133 186.96V191H353.053ZM395.586 180.56V182.28H381.546C381.826 185.52 383.466 186.92 386.186 186.92C388.546 186.92 390.066 186.08 390.226 184.16H395.586C395.466 188.68 391.706 191.32 386.066 191.32C379.506 191.32 375.426 187.6 375.426 181.32C375.426 174.8 379.506 170.92 386.186 170.92C391.706 170.92 395.586 174.08 395.586 180.56ZM390.226 179.04V178.72C390.226 176.48 388.706 175.32 386.186 175.32C383.626 175.32 382.186 176.44 381.706 179.04H390.226ZM408.287 191.32C402.127 191.32 399.927 188.6 399.927 184.2V175.96H397.007V171.24H399.367C400.287 171.24 400.607 170.72 400.727 169.52L401.007 166.76H406.007V171.24H412.327V175.96H406.007V183.88C406.007 185.92 406.967 186.56 409.367 186.56C410.207 186.56 411.447 186.44 412.127 186.28V190.88C411.607 191 409.927 191.32 408.287 191.32ZM421.9 191.32C417.3 191.32 414.1 189.32 414.1 185.32C414.1 182.08 416.42 179.72 421.66 179.72H428.1V178.4C428.1 176 426.74 175.04 423.94 175.04C421.66 175.04 420.34 176 420.34 177.6C420.34 177.72 420.34 178.04 420.38 178.44H414.78C414.74 178.12 414.7 177.68 414.7 177.28C414.7 173.28 418.22 170.92 424.22 170.92C430.5 170.92 434.18 173.72 434.18 179V191H428.1C428.22 190 428.38 188.2 428.38 187H428.34C427.74 189.8 425.5 191.32 421.9 191.32ZM423.1 187.2C426.26 187.2 428.1 185.8 428.1 183.4V183H422.22C420.58 183 419.58 183.76 419.58 184.88C419.58 186.4 420.9 187.2 423.1 187.2ZM437.036 191V171.24H443.116L442.876 176.48H442.956C443.956 172.72 446.276 170.92 450.756 170.92C455.516 170.92 458.596 173.52 458.596 178.64V191H452.516V180C452.516 177.2 450.916 175.96 448.236 175.96C445.036 175.96 443.116 177.84 443.116 181.6V191H437.036ZM461.53 191V163.28H467.61V180.76H467.65L476.09 171.24H483.49L475.17 179.84L483.97 191H475.97L470.81 183.72L467.61 186.96V191H461.53Z" fill="black"/>
<line y1="-2" x2="65.9881" y2="-2" transform="matrix(0.47692 -0.878947 0.858775 0.512352 271 63)" stroke="#614718" stroke-width="4"/>
<path d="M329.877 62.0107L298.406 4.01074" stroke="#614718" stroke-width="4"/>
<ellipse cx="299.609" cy="7" rx="6.67568" ry="7" fill="#D9D9D9"/>
<defs>
<filter id="filter0_d_766_5229" x="0" y="63" width="596" height="270" filterUnits="userSpaceOnUse" color-interpolation-filters="sRGB">
<feFlood flood-opacity="0" result="BackgroundImageFix"/>
<feColorMatrix in="SourceAlpha" type="matrix" values="0 0 0 0 0 0 0 0 0 0 0 0 0 0 0 0 0 0 127 0" result="hardAlpha"/>
<feOffset dy="4"/>
<feGaussianBlur stdDeviation="2"/>
<feComposite in2="hardAlpha" operator="out"/>
<feColorMatrix type="matrix" values="0 0 0 0 0 0 0 0 0 0 0 0 0 0 0 0 0 0 0.25 0"/>
<feBlend mode="normal" in2="BackgroundImageFix" result="effect1_dropShadow_766_5229"/>
<feBlend mode="normal" in="SourceGraphic" in2="effect1_dropShadow_766_5229" result="shape"/>
</filter>
</defs>
</svg>
