<svg width="596" height="333" viewBox="0 0 596 333" fill="none" xmlns="http://www.w3.org/2000/svg">
<g filter="url(#filter0_d_766_5220)">
<rect x="15.5" y="74.5" width="565" height="239" stroke="#DFC392" stroke-width="23" shape-rendering="crispEdges"/>
</g>
<path d="M67.08 146.4C58.96 146.4 53.2 141.36 53.2 132.88C53.2 124.32 58.96 119.28 67.08 119.28C74.28 119.28 79.24 123.36 79.24 129.4C79.24 130 79.2 130.72 79.16 131.08H73.44C73.48 130.64 73.48 130.24 73.48 130.04C73.48 126.48 70.96 124.44 67.4 124.44C63.08 124.44 60 127.68 60 132.88C60 138.12 63.16 141.24 67.4 141.24C71.24 141.24 73.56 139.16 73.56 135.84C73.56 135.68 73.56 135.44 73.52 135H79.28C79.32 135.52 79.32 135.96 79.32 136.28C79.32 142.32 74.32 146.4 67.08 146.4ZM89.5956 146.32C84.9956 146.32 81.7956 144.32 81.7956 140.32C81.7956 137.08 84.1156 134.72 89.3556 134.72H95.7956V133.4C95.7956 131 94.4356 130.04 91.6356 130.04C89.3556 130.04 88.0356 131 88.0356 132.6C88.0356 132.72 88.0356 133.04 88.0756 133.44H82.4756C82.4356 133.12 82.3956 132.68 82.3956 132.28C82.3956 128.28 85.9156 125.92 91.9156 125.92C98.1956 125.92 101.876 128.72 101.876 134V146H95.7956C95.9156 145 96.0756 143.2 96.0756 142H96.0356C95.4356 144.8 93.1956 146.32 89.5956 146.32ZM90.7956 142.2C93.9556 142.2 95.7956 140.8 95.7956 138.4V138H89.9156C88.2756 138 87.2756 138.76 87.2756 139.88C87.2756 141.4 88.5956 142.2 90.7956 142.2ZM104.731 146V126.24H110.811L110.571 131.48H110.651C111.651 127.72 113.971 125.92 118.451 125.92C123.211 125.92 126.291 128.52 126.291 133.64V146H120.211V135C120.211 132.2 118.611 130.96 115.931 130.96C112.731 130.96 110.811 132.84 110.811 136.6V146H104.731ZM138.065 146.32C132.345 146.32 128.785 142.16 128.785 135.96C128.785 129.92 132.545 125.92 138.305 125.92C141.505 125.92 143.585 127.12 144.465 129.16H144.505V118.28H150.585V146H144.505C144.545 145.6 144.625 143.88 144.745 141.76H144.665C143.905 144.56 141.665 146.32 138.065 146.32ZM139.465 141.68C142.505 141.68 144.505 139.52 144.505 136.28V135.32C144.505 132.48 142.505 130.56 139.545 130.56C136.705 130.56 134.825 132.72 134.825 136C134.825 139.36 136.665 141.68 139.465 141.68ZM154.715 146V140H160.635V146H154.715ZM164.772 146V118.28H170.852V146H164.772ZM174.149 124.16V119.32H180.229V124.16H174.149ZM174.149 146V126.24H180.229V146H174.149ZM183.442 146V126.24H189.522L189.282 131.48H189.362C190.362 127.72 192.682 125.92 197.162 125.92C201.922 125.92 205.002 128.52 205.002 133.64V146H198.922V135C198.922 132.2 197.322 130.96 194.642 130.96C191.442 130.96 189.522 132.84 189.522 136.6V146H183.442ZM222.176 142.4C226.656 142.4 229.296 144.36 229.296 147.64C229.296 152.16 225.256 154.56 218.416 154.56C211.456 154.56 207.336 152.64 207.336 149.36C207.336 147.28 208.696 146 210.896 145.76V145.72C209.696 144.96 209.056 143.88 209.056 142.48C209.056 140.6 210.016 139.44 211.496 138.76V138.72C209.416 137.52 208.256 135.56 208.256 133C208.256 128.56 211.696 125.92 217.496 125.92C219.816 125.92 221.736 126.32 223.216 127.12L223.256 127.04C222.456 126.32 222.096 125.52 222.096 124.8C222.096 123.16 223.736 122.2 226.256 122.2C227.336 122.2 227.896 122.28 228.456 122.4V126.24C228.096 126.16 227.696 126.12 227.256 126.12C225.976 126.12 225.376 126.68 225.376 127.6C225.376 128.08 225.536 128.68 225.816 129.4C226.456 130.4 226.776 131.6 226.776 133C226.776 137.44 223.336 140.04 217.496 140.04C216.296 140.04 215.216 139.92 214.216 139.72C214.056 139.96 213.856 140.44 213.856 141C213.856 141.88 214.576 142.4 215.776 142.4H222.176ZM217.496 129.76C215.296 129.76 213.976 130.96 213.976 133C213.976 135 215.296 136.2 217.496 136.2C219.736 136.2 221.056 135 221.056 133C221.056 130.96 219.736 129.76 217.496 129.76ZM218.336 150.88C221.416 150.88 223.216 150.04 223.216 148.48C223.216 147.4 222.416 146.8 220.656 146.8H215.976C214.336 146.8 213.376 147.48 213.376 148.6C213.376 150.08 215.216 150.88 218.336 150.88ZM232.606 146V140H238.526V146H232.606ZM242.583 146V126.24H248.663L248.463 131.36H248.503C249.423 127.96 251.663 125.92 255.263 125.92C259.063 125.92 261.503 127.88 261.943 131.08H261.983C262.783 127.88 264.943 125.92 268.743 125.92C273.063 125.92 275.503 128.64 275.503 133.28V146H269.423V134.68C269.423 132.36 268.223 130.96 266.143 130.96C263.743 130.96 262.063 132.8 262.063 136.44V146H255.983V134.68C255.983 132.36 254.783 130.96 252.703 130.96C250.343 130.96 248.663 132.84 248.663 136.56V146H242.583ZM298.125 135.56V137.28H284.085C284.365 140.52 286.005 141.92 288.725 141.92C291.085 141.92 292.605 141.08 292.765 139.16H298.125C298.005 143.68 294.245 146.32 288.605 146.32C282.045 146.32 277.965 142.6 277.965 136.32C277.965 129.8 282.045 125.92 288.725 125.92C294.245 125.92 298.125 129.08 298.125 135.56ZM292.765 134.04V133.72C292.765 131.48 291.245 130.32 288.725 130.32C286.165 130.32 284.725 131.44 284.245 134.04H292.765ZM300.786 146V126.24H306.866L306.626 131.88H306.706C307.546 128.12 309.666 125.92 313.546 125.92C317.586 125.92 319.946 128.52 319.946 133.64C319.946 134.76 319.826 136.52 319.746 137.56H314.226C314.306 136.6 314.346 135.6 314.346 135C314.346 132.12 313.186 130.96 311.266 130.96C308.666 130.96 306.866 133.08 306.866 137.48V146H300.786ZM332.223 146.32C326.303 146.32 322.183 142.56 322.183 136.16C322.183 129.72 326.383 125.92 332.463 125.92C338.263 125.92 342.063 129.16 342.063 134.64H336.703C336.663 132.08 335.143 130.56 332.663 130.56C329.823 130.56 328.263 132.52 328.263 136.12C328.263 139.6 329.863 141.68 332.543 141.68C335.143 141.68 336.703 140.2 336.743 137.68H342.103C342.103 143.36 338.063 146.32 332.223 146.32ZM345.29 151.88V148.96C347.29 148.88 348.17 148.04 348.17 146.16V146H345.69V140H351.61V144.24C351.61 149.76 349.29 151.76 345.29 151.88ZM60.2 204V182.84H52.72V177.68H74.2V182.84H66.76V204H60.2ZM75.1997 204V184.24H81.2797L81.0397 189.88H81.1197C81.9597 186.12 84.0797 183.92 87.9597 183.92C91.9997 183.92 94.3597 186.52 94.3597 191.64C94.3597 192.76 94.2397 194.52 94.1597 195.56H88.6397C88.7197 194.6 88.7597 193.6 88.7597 193C88.7597 190.12 87.5997 188.96 85.6797 188.96C83.0797 188.96 81.2797 191.08 81.2797 195.48V204H75.1997ZM104.518 204.32C99.9175 204.32 96.7175 202.32 96.7175 198.32C96.7175 195.08 99.0375 192.72 104.278 192.72H110.718V191.4C110.718 189 109.358 188.04 106.558 188.04C104.278 188.04 102.958 189 102.958 190.6C102.958 190.72 102.958 191.04 102.998 191.44H97.3975C97.3575 191.12 97.3175 190.68 97.3175 190.28C97.3175 186.28 100.838 183.92 106.838 183.92C113.118 183.92 116.798 186.72 116.798 192V204H110.718C110.838 203 110.998 201.2 110.998 200H110.958C110.358 202.8 108.118 204.32 104.518 204.32ZM105.717 200.2C108.878 200.2 110.718 198.8 110.718 196.4V196H104.838C103.198 196 102.198 196.76 102.198 197.88C102.198 199.4 103.518 200.2 105.717 200.2ZM119.653 204V184.24H125.733L125.493 189.48H125.573C126.573 185.72 128.893 183.92 133.373 183.92C138.133 183.92 141.213 186.52 141.213 191.64V204H135.133V193C135.133 190.2 133.533 188.96 130.853 188.96C127.653 188.96 125.733 190.84 125.733 194.6V204H119.653ZM153.587 204.32C146.627 204.32 143.707 201.36 143.707 197.36H149.147C149.147 199.2 150.067 200.4 153.547 200.4C156.707 200.4 157.827 199.48 157.827 198.04C157.827 197.32 157.467 196.76 156.427 196.52C155.387 196.28 153.787 196.12 151.827 195.96C148.987 195.72 146.787 195.28 145.587 194.44C144.467 193.64 143.707 192.2 143.707 190.56C143.707 186.28 148.107 183.92 153.587 183.92C160.067 183.92 163.027 186.4 163.027 191H157.667C157.627 188.92 156.667 187.84 153.667 187.84C150.947 187.84 149.747 188.76 149.747 190.12C149.747 190.96 150.067 191.6 151.187 191.88C152.187 192.12 153.947 192.28 156.067 192.48C158.507 192.72 160.227 192.96 161.707 193.8C162.987 194.52 163.907 196 163.907 197.72C163.907 201.88 160.347 204.32 153.587 204.32ZM166.686 204V176.28H172.766V204H166.686ZM183.463 204.32C178.863 204.32 175.663 202.32 175.663 198.32C175.663 195.08 177.983 192.72 183.223 192.72H189.663V191.4C189.663 189 188.303 188.04 185.503 188.04C183.223 188.04 181.903 189 181.903 190.6C181.903 190.72 181.903 191.04 181.943 191.44H176.343C176.303 191.12 176.263 190.68 176.263 190.28C176.263 186.28 179.783 183.92 185.783 183.92C192.063 183.92 195.743 186.72 195.743 192V204H189.663C189.783 203 189.943 201.2 189.943 200H189.903C189.303 202.8 187.063 204.32 183.463 204.32ZM184.663 200.2C187.823 200.2 189.663 198.8 189.663 196.4V196H183.783C182.143 196 181.143 196.76 181.143 197.88C181.143 199.4 182.463 200.2 184.663 200.2ZM208.638 204.32C202.478 204.32 200.278 201.6 200.278 197.2V188.96H197.358V184.24H199.718C200.638 184.24 200.958 183.72 201.078 182.52L201.358 179.76H206.358V184.24H212.678V188.96H206.358V196.88C206.358 198.92 207.318 199.56 209.718 199.56C210.558 199.56 211.798 199.44 212.478 199.28V203.88C211.958 204 210.278 204.32 208.638 204.32ZM233.299 187.12C234.859 188.92 235.579 191.4 235.579 194.16C235.579 200 232.499 204.32 224.779 204.32C221.979 204.32 219.819 203.76 218.179 202.76L216.539 204.44L214.499 202.84L216.179 201.08C214.699 199.32 214.019 196.92 214.019 194.16C214.019 188.32 217.099 183.92 224.779 183.92C227.539 183.92 229.699 184.48 231.339 185.48L232.939 183.8L235.019 185.36L233.299 187.12ZM219.859 194.12C219.859 195.16 219.979 196.08 220.259 196.92L227.819 189.12C227.059 188.56 226.059 188.24 224.779 188.24C221.179 188.24 219.859 190.68 219.859 194.12ZM224.779 200C228.379 200 229.699 197.6 229.699 194.12C229.699 193.08 229.579 192.08 229.299 191.28L221.699 199.12C222.459 199.68 223.459 200 224.779 200ZM238.247 204V184.24H244.327L244.087 189.88H244.167C245.007 186.12 247.127 183.92 251.007 183.92C255.047 183.92 257.407 186.52 257.407 191.64C257.407 192.76 257.287 194.52 257.207 195.56H251.687C251.767 194.6 251.807 193.6 251.807 193C251.807 190.12 250.647 188.96 248.727 188.96C246.127 188.96 244.327 191.08 244.327 195.48V204H238.247ZM255.052 212L266.772 174.4H270.132L258.452 212H255.052ZM286.098 204V182.84H278.618V177.68H300.098V182.84H292.658V204H286.098ZM309.584 204.32C303.064 204.32 298.824 200.56 298.824 194.16C298.824 187.72 303.064 183.92 309.584 183.92C316.104 183.92 320.344 187.72 320.344 194.16C320.344 200.56 316.104 204.32 309.584 204.32ZM309.584 199.68C312.544 199.68 314.264 197.64 314.264 194.16C314.264 190.64 312.544 188.56 309.584 188.56C306.624 188.56 304.904 190.64 304.904 194.16C304.904 197.64 306.624 199.68 309.584 199.68ZM323.092 204V176.28H329.172V204H323.092ZM332.389 204V176.28H338.469V193.76H338.509L346.949 184.24H354.349L346.029 192.84L354.829 204H346.829L341.669 196.72L338.469 199.96V204H332.389ZM365.897 194.6V190.76H375.377V194.6H365.897ZM407.187 193.56V195.28H393.147C393.427 198.52 395.067 199.92 397.787 199.92C400.147 199.92 401.667 199.08 401.827 197.16H407.187C407.067 201.68 403.307 204.32 397.667 204.32C391.107 204.32 387.027 200.6 387.027 194.32C387.027 187.8 391.107 183.92 397.787 183.92C403.307 183.92 407.187 187.08 407.187 193.56ZM401.827 192.04V191.72C401.827 189.48 400.307 188.32 397.787 188.32C395.227 188.32 393.787 189.44 393.307 192.04H401.827ZM409.848 204V184.24H415.928L415.688 189.48H415.768C416.768 185.72 419.088 183.92 423.568 183.92C428.328 183.92 431.408 186.52 431.408 191.64V204H425.328V193C425.328 190.2 423.728 188.96 421.048 188.96C417.848 188.96 415.928 190.84 415.928 194.6V204H409.848ZM448.582 200.4C453.062 200.4 455.702 202.36 455.702 205.64C455.702 210.16 451.662 212.56 444.822 212.56C437.862 212.56 433.742 210.64 433.742 207.36C433.742 205.28 435.102 204 437.302 203.76V203.72C436.102 202.96 435.462 201.88 435.462 200.48C435.462 198.6 436.422 197.44 437.902 196.76V196.72C435.822 195.52 434.662 193.56 434.662 191C434.662 186.56 438.102 183.92 443.902 183.92C446.222 183.92 448.142 184.32 449.622 185.12L449.662 185.04C448.862 184.32 448.502 183.52 448.502 182.8C448.502 181.16 450.142 180.2 452.662 180.2C453.742 180.2 454.302 180.28 454.862 180.4V184.24C454.502 184.16 454.102 184.12 453.662 184.12C452.382 184.12 451.782 184.68 451.782 185.6C451.782 186.08 451.942 186.68 452.222 187.4C452.862 188.4 453.182 189.6 453.182 191C453.182 195.44 449.742 198.04 443.902 198.04C442.702 198.04 441.622 197.92 440.622 197.72C440.462 197.96 440.262 198.44 440.262 199C440.262 199.88 440.982 200.4 442.182 200.4H448.582ZM443.902 187.76C441.702 187.76 440.382 188.96 440.382 191C440.382 193 441.702 194.2 443.902 194.2C446.142 194.2 447.462 193 447.462 191C447.462 188.96 446.142 187.76 443.902 187.76ZM444.742 208.88C447.822 208.88 449.622 208.04 449.622 206.48C449.622 205.4 448.822 204.8 447.062 204.8H442.382C440.742 204.8 439.782 205.48 439.782 206.6C439.782 208.08 441.622 208.88 444.742 208.88ZM476.64 193.56V195.28H462.6C462.88 198.52 464.52 199.92 467.24 199.92C469.6 199.92 471.12 199.08 471.28 197.16H476.64C476.52 201.68 472.76 204.32 467.12 204.32C460.56 204.32 456.48 200.6 456.48 194.32C456.48 187.8 460.56 183.92 467.24 183.92C472.76 183.92 476.64 187.08 476.64 193.56ZM471.28 192.04V191.72C471.28 189.48 469.76 188.32 467.24 188.32C464.68 188.32 463.24 189.44 462.76 192.04H471.28ZM479.381 204V176.28H485.461V204H479.381ZM498.118 204.32C491.158 204.32 488.238 201.36 488.238 197.36H493.678C493.678 199.2 494.598 200.4 498.078 200.4C501.238 200.4 502.358 199.48 502.358 198.04C502.358 197.32 501.998 196.76 500.958 196.52C499.918 196.28 498.318 196.12 496.358 195.96C493.518 195.72 491.318 195.28 490.118 194.44C488.998 193.64 488.238 192.2 488.238 190.56C488.238 186.28 492.638 183.92 498.118 183.92C504.598 183.92 507.558 186.4 507.558 191H502.198C502.158 188.92 501.198 187.84 498.198 187.84C495.478 187.84 494.278 188.76 494.278 190.12C494.278 190.96 494.598 191.6 495.718 191.88C496.718 192.12 498.478 192.28 500.598 192.48C503.038 192.72 504.758 192.96 506.238 193.8C507.518 194.52 508.438 196 508.438 197.72C508.438 201.88 504.878 204.32 498.118 204.32ZM511.217 204V176.28H517.297V193.76H517.337L525.777 184.24H533.177L524.857 192.84L533.657 204H525.657L520.497 196.72L517.297 199.96V204H511.217ZM55.2 262V246.96H52.28V242.24H55.2V240.32C55.2 235.76 58.52 233.44 63 233.44C65 233.44 66.72 233.88 67.24 234.08V238.56C66.72 238.4 65.64 238.08 64.24 238.08C62.24 238.08 61.28 239 61.28 240.76V242.24H67.56V246.96H61.28V262H55.2ZM69.9263 262V242.24H76.0063L75.7663 247.88H75.8463C76.6863 244.12 78.8063 241.92 82.6863 241.92C86.7263 241.92 89.0863 244.52 89.0863 249.64C89.0863 250.76 88.9662 252.52 88.8863 253.56H83.3663C83.4463 252.6 83.4863 251.6 83.4863 251C83.4863 248.12 82.3263 246.96 80.4063 246.96C77.8063 246.96 76.0063 249.08 76.0063 253.48V262H69.9263ZM99.2441 262.32C94.6441 262.32 91.4441 260.32 91.4441 256.32C91.4441 253.08 93.7641 250.72 99.0041 250.72H105.444V249.4C105.444 247 104.084 246.04 101.284 246.04C99.0041 246.04 97.6841 247 97.6841 248.6C97.6841 248.72 97.6841 249.04 97.7241 249.44H92.1241C92.0841 249.12 92.0441 248.68 92.0441 248.28C92.0441 244.28 95.5641 241.92 101.564 241.92C107.844 241.92 111.524 244.72 111.524 250V262H105.444C105.564 261 105.724 259.2 105.724 258H105.684C105.084 260.8 102.844 262.32 99.2441 262.32ZM100.444 258.2C103.604 258.2 105.444 256.8 105.444 254.4V254H99.5641C97.9241 254 96.9241 254.76 96.9241 255.88C96.9241 257.4 98.2441 258.2 100.444 258.2ZM137.158 262.4C129.038 262.4 123.278 257.36 123.278 248.88C123.278 240.32 129.038 235.28 137.158 235.28C144.358 235.28 149.318 239.36 149.318 245.4C149.318 246 149.278 246.72 149.238 247.08H143.518C143.558 246.64 143.558 246.24 143.558 246.04C143.558 242.48 141.038 240.44 137.478 240.44C133.158 240.44 130.078 243.68 130.078 248.88C130.078 254.12 133.238 257.24 137.478 257.24C141.318 257.24 143.638 255.16 143.638 251.84C143.638 251.68 143.638 251.44 143.598 251H149.358C149.398 251.52 149.398 251.96 149.398 252.28C149.398 258.32 144.398 262.4 137.158 262.4ZM152.394 262V235.68H163.994C170.194 235.68 173.874 238.24 173.874 242.56C173.874 245.48 172.474 247.56 170.114 248.2V248.24C172.954 248.88 174.874 251 174.874 254.32C174.874 259.16 171.474 262 164.834 262H152.394ZM158.954 246.6H164.434C166.794 246.6 168.114 245.56 168.114 243.6C168.114 241.64 166.794 240.44 163.954 240.44H158.954V246.6ZM158.954 257.24H164.834C167.234 257.24 168.634 255.88 168.634 253.64C168.634 251.8 167.194 250.56 164.674 250.56H158.954V257.24ZM188.823 262.4C179.783 262.4 177.383 257.8 177.383 252.96H183.223C183.223 255.8 184.383 257.64 188.783 257.64C193.223 257.64 194.223 256.04 194.223 254.36C194.223 253.24 193.743 252.52 192.703 252.16C191.543 251.76 188.823 251.36 186.623 251.04C184.023 250.64 181.383 250.12 179.863 249.12C178.183 248.04 177.303 246.2 177.303 243.68C177.303 238.72 181.183 235.28 188.783 235.28C197.143 235.28 199.863 238.76 199.863 244.68H194.063C194.063 241.68 192.503 240.04 188.903 240.04C185.343 240.04 183.823 241.36 183.823 243.12C183.823 244.4 184.183 245.12 185.103 245.52C186.103 245.96 188.863 246.4 191.103 246.76C194.063 247.24 196.303 247.72 197.863 248.56C199.743 249.56 200.743 251.44 200.743 253.92C200.743 258.4 198.223 262.4 188.823 262.4Z" fill="black"/>
<path d="M413.392 284V282.224H418.72V273.776H415.096V272.312L417.304 272.264C418.768 272.24 418.936 271.88 418.96 268.04H420.688V282.224H425.104V284H413.392ZM433.636 284.216C430.036 284.216 427.924 282.416 427.924 279.848C427.924 279.704 427.924 279.368 427.948 279.056H429.82C429.796 279.32 429.796 279.584 429.796 279.68C429.796 281.312 431.164 282.464 433.612 282.464C436.444 282.464 437.908 280.328 437.908 276.176C437.908 275.72 437.908 275.12 437.86 274.664H437.812C437.572 276.56 435.892 277.88 433.228 277.88C429.652 277.88 427.564 276.032 427.564 273.224C427.564 270.08 429.796 267.992 433.54 267.992C437.404 267.992 439.9 270.152 439.9 275.936C439.9 281.432 437.668 284.216 433.636 284.216ZM433.3 276.296C435.916 276.296 437.572 274.832 437.572 272.792C437.452 271.064 435.94 269.744 433.516 269.744C430.996 269.744 429.532 271.136 429.532 273.224C429.532 275.096 430.996 276.296 433.3 276.296ZM448.121 284.216C444.521 284.216 442.409 282.416 442.409 279.848C442.409 279.704 442.409 279.368 442.433 279.056H444.305C444.281 279.32 444.281 279.584 444.281 279.68C444.281 281.312 445.649 282.464 448.097 282.464C450.929 282.464 452.393 280.328 452.393 276.176C452.393 275.72 452.393 275.12 452.345 274.664H452.297C452.057 276.56 450.377 277.88 447.713 277.88C444.137 277.88 442.049 276.032 442.049 273.224C442.049 270.08 444.281 267.992 448.025 267.992C451.889 267.992 454.385 270.152 454.385 275.936C454.385 281.432 452.153 284.216 448.121 284.216ZM447.785 276.296C450.401 276.296 452.057 274.832 452.057 272.792C451.937 271.064 450.425 269.744 448.001 269.744C445.481 269.744 444.017 271.136 444.017 273.224C444.017 275.096 445.481 276.296 447.785 276.296ZM462.701 284.216C458.933 284.216 456.533 282.416 456.533 279.512C456.533 277.568 457.829 276.128 459.749 275.792V275.768C458.117 275.456 457.205 274.088 457.205 272.48C457.205 269.672 459.341 267.992 462.701 267.992C466.061 267.992 468.197 269.672 468.197 272.48C468.197 274.088 467.285 275.456 465.653 275.768V275.792C467.549 276.128 468.869 277.568 468.869 279.512C468.869 282.416 466.469 284.216 462.701 284.216ZM462.701 275.168C464.909 275.168 466.325 274.112 466.325 272.48C466.325 270.8 464.909 269.72 462.701 269.72C460.493 269.72 459.077 270.8 459.077 272.48C459.077 274.112 460.493 275.168 462.701 275.168ZM462.701 282.488C465.269 282.488 466.901 281.312 466.901 279.512C466.901 277.76 465.269 276.656 462.701 276.656C460.133 276.656 458.501 277.76 458.501 279.512C458.501 281.312 460.133 282.488 462.701 282.488ZM476.333 277.904V276.512H481.661V277.904H476.333ZM489.495 284C489.495 280.76 490.047 279.8 494.223 277.856C498.183 276.008 498.807 275.048 498.807 272.96C498.807 271.088 497.487 269.768 495.279 269.768C492.783 269.768 491.415 271.328 491.415 273.776C491.415 274.52 491.487 275.24 491.559 275.6H489.735C489.663 275.24 489.591 274.496 489.591 273.68C489.591 270.2 491.679 267.992 495.327 267.992C498.687 267.992 500.775 270.032 500.775 272.96C500.775 275.36 499.887 277.016 495.279 279.176C491.895 280.76 491.511 281.24 491.511 282.224H501.063V284H489.495ZM509.787 284.216C505.875 284.216 503.619 281.072 503.619 276.032C503.619 271.088 505.875 267.992 509.787 267.992C513.699 267.992 515.955 271.088 515.955 276.032C515.955 281.072 513.699 284.216 509.787 284.216ZM509.787 282.44C512.499 282.44 513.987 279.992 513.987 276.032C513.987 272.168 512.499 269.768 509.787 269.768C507.075 269.768 505.587 272.168 505.587 276.032C505.587 279.992 507.075 282.44 509.787 282.44ZM524.271 284.216C520.359 284.216 518.103 281.072 518.103 276.032C518.103 271.088 520.359 267.992 524.271 267.992C528.183 267.992 530.439 271.088 530.439 276.032C530.439 281.072 528.183 284.216 524.271 284.216ZM524.271 282.44C526.983 282.44 528.471 279.992 528.471 276.032C528.471 272.168 526.983 269.768 524.271 269.768C521.559 269.768 520.071 272.168 520.071 276.032C520.071 279.992 521.559 282.44 524.271 282.44ZM532.948 284C532.948 280.76 533.5 279.8 537.676 277.856C541.636 276.008 542.26 275.048 542.26 272.96C542.26 271.088 540.94 269.768 538.732 269.768C536.236 269.768 534.868 271.328 534.868 273.776C534.868 274.52 534.94 275.24 535.012 275.6H533.188C533.116 275.24 533.044 274.496 533.044 273.68C533.044 270.2 535.132 267.992 538.78 267.992C542.14 267.992 544.228 270.032 544.228 272.96C544.228 275.36 543.34 277.016 538.732 279.176C535.348 280.76 534.964 281.24 534.964 282.224H544.516V284H532.948Z" fill="#07093B"/>
<line y1="-2" x2="65.9881" y2="-2" transform="matrix(0.47692 -0.878947 0.858775 0.512352 271 63)" stroke="#614718" stroke-width="4"/>
<path d="M329.877 62.0107L298.406 4.01074" stroke="#614718" stroke-width="4"/>
<ellipse cx="299.609" cy="7" rx="6.67568" ry="7" fill="#D9D9D9"/>
<defs>
<filter id="filter0_d_766_5220" x="0" y="63" width="596" height="270" filterUnits="userSpaceOnUse" color-interpolation-filters="sRGB">
<feFlood flood-opacity="0" result="BackgroundImageFix"/>
<feColorMatrix in="SourceAlpha" type="matrix" values="0 0 0 0 0 0 0 0 0 0 0 0 0 0 0 0 0 0 127 0" result="hardAlpha"/>
<feOffset dy="4"/>
<feGaussianBlur stdDeviation="2"/>
<feComposite in2="hardAlpha" operator="out"/>
<feColorMatrix type="matrix" values="0 0 0 0 0 0 0 0 0 0 0 0 0 0 0 0 0 0 0.25 0"/>
<feBlend mode="normal" in2="BackgroundImageFix" result="effect1_dropShadow_766_5220"/>
<feBlend mode="normal" in="SourceGraphic" in2="effect1_dropShadow_766_5220" result="shape"/>
</filter>
</defs>
</svg>
