<svg width="596" height="333" viewBox="0 0 596 333" fill="none" xmlns="http://www.w3.org/2000/svg">
<g filter="url(#filter0_d_766_5222)">
<rect x="15.5" y="74.5" width="565" height="239" stroke="#DFC392" stroke-width="23" shape-rendering="crispEdges"/>
</g>
<path d="M53.8 133V106.68H65.12C71.84 106.68 75.88 109.84 75.88 116.2C75.88 122.04 72.6 125.48 65.72 125.48H60.36V133H53.8ZM60.36 121.08H65.44C68.2 121.08 69.72 119.6 69.72 116.52C69.72 113.52 68.04 111.84 64.92 111.84H60.36V121.08ZM78.3247 133V113.24H84.4047L84.1647 118.88H84.2447C85.0847 115.12 87.2047 112.92 91.0847 112.92C95.1247 112.92 97.4847 115.52 97.4847 120.64C97.4847 121.76 97.3647 123.52 97.2847 124.56H91.7647C91.8447 123.6 91.8847 122.6 91.8847 122C91.8847 119.12 90.7247 117.96 88.8047 117.96C86.2047 117.96 84.4047 120.08 84.4047 124.48V133H78.3247ZM110.483 133.32C103.963 133.32 99.7225 129.56 99.7225 123.16C99.7225 116.72 103.963 112.92 110.483 112.92C117.003 112.92 121.243 116.72 121.243 123.16C121.243 129.56 117.003 133.32 110.483 133.32ZM110.483 128.68C113.443 128.68 115.163 126.64 115.163 123.16C115.163 119.64 113.443 117.56 110.483 117.56C107.523 117.56 105.803 119.64 105.803 123.16C105.803 126.64 107.523 128.68 110.483 128.68ZM124.031 111.16V106.32H130.151V111.16H124.031ZM122.711 141.4C120.151 141.4 118.791 141.12 118.311 141V136.44C119.191 136.6 119.911 136.68 120.871 136.68C123.071 136.68 124.031 135.4 124.031 133.28V113.24H130.111V133.6C130.111 138.52 127.351 141.4 122.711 141.4ZM153.164 122.56V124.28H139.124C139.404 127.52 141.044 128.92 143.764 128.92C146.124 128.92 147.644 128.08 147.804 126.16H153.164C153.044 130.68 149.284 133.32 143.644 133.32C137.084 133.32 133.004 129.6 133.004 123.32C133.004 116.8 137.084 112.92 143.764 112.92C149.284 112.92 153.164 116.08 153.164 122.56ZM147.804 121.04V120.72C147.804 118.48 146.284 117.32 143.764 117.32C141.204 117.32 139.764 118.44 139.284 121.04H147.804ZM155.905 133V105.28H161.985V122.76H162.025L170.465 113.24H177.865L169.545 121.84L178.345 133H170.345L165.185 125.72L161.985 128.96V133H155.905ZM190.005 133.32C183.845 133.32 181.645 130.6 181.645 126.2V117.96H178.725V113.24H181.085C182.005 113.24 182.325 112.72 182.445 111.52L182.725 108.76H187.725V113.24H194.045V117.96H187.725V125.88C187.725 127.92 188.685 128.56 191.085 128.56C191.925 128.56 193.165 128.44 193.845 128.28V132.88C193.325 133 191.645 133.32 190.005 133.32ZM196.366 123.6V119.76H205.846V123.6H196.366ZM228.256 133.32C221.736 133.32 217.496 129.56 217.496 123.16C217.496 116.72 221.736 112.92 228.256 112.92C234.776 112.92 239.016 116.72 239.016 123.16C239.016 129.56 234.776 133.32 228.256 133.32ZM228.256 128.68C231.216 128.68 232.936 126.64 232.936 123.16C232.936 119.64 231.216 117.56 228.256 117.56C225.296 117.56 223.576 119.64 223.576 123.16C223.576 126.64 225.296 128.68 228.256 128.68ZM255.496 129.4C259.976 129.4 262.616 131.36 262.616 134.64C262.616 139.16 258.576 141.56 251.736 141.56C244.776 141.56 240.656 139.64 240.656 136.36C240.656 134.28 242.016 133 244.216 132.76V132.72C243.016 131.96 242.376 130.88 242.376 129.48C242.376 127.6 243.336 126.44 244.816 125.76V125.72C242.736 124.52 241.576 122.56 241.576 120C241.576 115.56 245.016 112.92 250.816 112.92C253.136 112.92 255.056 113.32 256.536 114.12L256.576 114.04C255.776 113.32 255.416 112.52 255.416 111.8C255.416 110.16 257.056 109.2 259.576 109.2C260.656 109.2 261.216 109.28 261.776 109.4V113.24C261.416 113.16 261.016 113.12 260.576 113.12C259.296 113.12 258.696 113.68 258.696 114.6C258.696 115.08 258.856 115.68 259.136 116.4C259.776 117.4 260.096 118.6 260.096 120C260.096 124.44 256.656 127.04 250.816 127.04C249.616 127.04 248.536 126.92 247.536 126.72C247.376 126.96 247.176 127.44 247.176 128C247.176 128.88 247.896 129.4 249.096 129.4H255.496ZM250.816 116.76C248.616 116.76 247.296 117.96 247.296 120C247.296 122 248.616 123.2 250.816 123.2C253.056 123.2 254.376 122 254.376 120C254.376 117.96 253.056 116.76 250.816 116.76ZM251.656 137.88C254.736 137.88 256.536 137.04 256.536 135.48C256.536 134.4 255.736 133.8 253.976 133.8H249.296C247.656 133.8 246.696 134.48 246.696 135.6C246.696 137.08 248.536 137.88 251.656 137.88ZM65.76 191.4C58.4 191.4 53.64 187.52 53.64 180.8V164.68H60.2V180.56C60.2 184.16 62.64 185.96 66.12 185.96C69.6 185.96 72.04 184.16 72.04 180.56V164.68H77.84V180.8C77.84 187.52 73.12 191.4 65.76 191.4ZM89.9009 191.32C84.1809 191.32 80.6209 187.16 80.6209 180.96C80.6209 174.92 84.3809 170.92 90.1409 170.92C93.3409 170.92 95.4209 172.12 96.3009 174.16H96.3409V163.28H102.421V191H96.3409C96.3809 190.6 96.4609 188.88 96.5809 186.76H96.5009C95.7409 189.56 93.5009 191.32 89.9009 191.32ZM91.3009 186.68C94.3409 186.68 96.3409 184.52 96.3409 181.28V180.32C96.3409 177.48 94.3409 175.56 91.3809 175.56C88.5409 175.56 86.6609 177.72 86.6609 181C86.6609 184.36 88.5009 186.68 91.3009 186.68ZM112.991 191L104.711 171.24H111.791L116.871 185.44H116.951L122.151 171.24H128.391L120.231 191H112.991ZM130.75 169.16V164.32H136.83V169.16H130.75ZM130.75 191V171.24H136.83V191H130.75ZM140.123 191V163.28H146.203V180.76H146.243L154.683 171.24H162.083L153.763 179.84L162.563 191H154.563L149.403 183.72L146.203 186.96V191H140.123ZM164.733 191V163.28H170.813V191H164.733ZM174.11 169.16V164.32H180.19V169.16H174.11ZM174.11 191V171.24H180.19V191H174.11ZM183.403 191V171.24H189.483L189.243 176.48H189.323C190.323 172.72 192.643 170.92 197.123 170.92C201.883 170.92 204.963 173.52 204.963 178.64V191H198.883V180C198.883 177.2 197.283 175.96 194.603 175.96C191.403 175.96 189.483 177.84 189.483 181.6V191H183.403ZM222.137 187.4C226.617 187.4 229.257 189.36 229.257 192.64C229.257 197.16 225.217 199.56 218.377 199.56C211.417 199.56 207.297 197.64 207.297 194.36C207.297 192.28 208.657 191 210.857 190.76V190.72C209.657 189.96 209.017 188.88 209.017 187.48C209.017 185.6 209.977 184.44 211.457 183.76V183.72C209.377 182.52 208.217 180.56 208.217 178C208.217 173.56 211.657 170.92 217.457 170.92C219.777 170.92 221.697 171.32 223.177 172.12L223.217 172.04C222.417 171.32 222.057 170.52 222.057 169.8C222.057 168.16 223.697 167.2 226.217 167.2C227.297 167.2 227.857 167.28 228.417 167.4V171.24C228.057 171.16 227.657 171.12 227.217 171.12C225.937 171.12 225.337 171.68 225.337 172.6C225.337 173.08 225.497 173.68 225.777 174.4C226.417 175.4 226.737 176.6 226.737 178C226.737 182.44 223.297 185.04 217.457 185.04C216.257 185.04 215.177 184.92 214.177 184.72C214.017 184.96 213.817 185.44 213.817 186C213.817 186.88 214.537 187.4 215.737 187.4H222.137ZM217.457 174.76C215.257 174.76 213.937 175.96 213.937 178C213.937 180 215.257 181.2 217.457 181.2C219.697 181.2 221.017 180 221.017 178C221.017 175.96 219.697 174.76 217.457 174.76ZM218.297 195.88C221.377 195.88 223.177 195.04 223.177 193.48C223.177 192.4 222.377 191.8 220.617 191.8H215.937C214.297 191.8 213.337 192.48 213.337 193.6C213.337 195.08 215.177 195.88 218.297 195.88ZM240.462 191.32C233.502 191.32 230.582 188.36 230.582 184.36H236.022C236.022 186.2 236.942 187.4 240.422 187.4C243.582 187.4 244.702 186.48 244.702 185.04C244.702 184.32 244.342 183.76 243.302 183.52C242.262 183.28 240.662 183.12 238.702 182.96C235.862 182.72 233.662 182.28 232.462 181.44C231.342 180.64 230.582 179.2 230.582 177.56C230.582 173.28 234.982 170.92 240.462 170.92C246.942 170.92 249.902 173.4 249.902 178H244.542C244.502 175.92 243.542 174.84 240.542 174.84C237.822 174.84 236.622 175.76 236.622 177.12C236.622 177.96 236.942 178.6 238.062 178.88C239.062 179.12 240.822 179.28 242.942 179.48C245.382 179.72 247.102 179.96 248.582 180.8C249.862 181.52 250.782 183 250.782 184.72C250.782 188.88 247.222 191.32 240.462 191.32ZM253.481 191V171.24H259.561L259.361 176.36H259.401C260.321 172.96 262.561 170.92 266.161 170.92C269.961 170.92 272.401 172.88 272.841 176.08H272.881C273.681 172.88 275.841 170.92 279.641 170.92C283.961 170.92 286.401 173.64 286.401 178.28V191H280.321V179.68C280.321 177.36 279.121 175.96 277.041 175.96C274.641 175.96 272.961 177.8 272.961 181.44V191H266.881V179.68C266.881 177.36 265.681 175.96 263.601 175.96C261.241 175.96 259.561 177.84 259.561 181.56V191H253.481ZM309.023 180.56V182.28H294.983C295.263 185.52 296.903 186.92 299.623 186.92C301.983 186.92 303.503 186.08 303.663 184.16H309.023C308.903 188.68 305.143 191.32 299.503 191.32C292.943 191.32 288.863 187.6 288.863 181.32C288.863 174.8 292.943 170.92 299.623 170.92C305.143 170.92 309.023 174.08 309.023 180.56ZM303.663 179.04V178.72C303.663 176.48 302.143 175.32 299.623 175.32C297.063 175.32 295.623 176.44 295.143 179.04H303.663ZM320.604 191.32C314.884 191.32 311.324 187.16 311.324 180.96C311.324 174.92 315.084 170.92 320.844 170.92C324.044 170.92 326.124 172.12 327.004 174.16H327.044V163.28H333.124V191H327.044C327.084 190.6 327.164 188.88 327.284 186.76H327.204C326.444 189.56 324.204 191.32 320.604 191.32ZM322.004 186.68C325.044 186.68 327.044 184.52 327.044 181.28V180.32C327.044 177.48 325.044 175.56 322.084 175.56C319.244 175.56 317.364 177.72 317.364 181C317.364 184.36 319.204 186.68 322.004 186.68ZM343.814 191.32C339.214 191.32 336.014 189.32 336.014 185.32C336.014 182.08 338.334 179.72 343.574 179.72H350.014V178.4C350.014 176 348.654 175.04 345.854 175.04C343.574 175.04 342.254 176 342.254 177.6C342.254 177.72 342.254 178.04 342.294 178.44H336.694C336.654 178.12 336.614 177.68 336.614 177.28C336.614 173.28 340.134 170.92 346.134 170.92C352.414 170.92 356.094 173.72 356.094 179V191H350.014C350.134 190 350.294 188.2 350.294 187H350.254C349.654 189.8 347.414 191.32 343.814 191.32ZM345.014 187.2C348.174 187.2 350.014 185.8 350.014 183.4V183H344.134C342.494 183 341.494 183.76 341.494 184.88C341.494 186.4 342.814 187.2 345.014 187.2ZM358.95 191V171.24H365.03L364.79 176.88H364.87C365.71 173.12 367.83 170.92 371.71 170.92C375.75 170.92 378.11 173.52 378.11 178.64C378.11 179.76 377.99 181.52 377.91 182.56H372.39C372.47 181.6 372.51 180.6 372.51 180C372.51 177.12 371.35 175.96 369.43 175.96C366.83 175.96 365.03 178.08 365.03 182.48V191H358.95ZM393.588 191.32C389.988 191.32 387.428 189.8 386.708 187.28H386.668C386.708 188.44 386.788 190.04 386.868 191H380.788V163.28H386.868V171.56C386.868 172.48 386.788 174.12 386.748 175.08H386.828C387.588 172.48 390.108 170.92 393.628 170.92C399.268 170.92 402.588 174.56 402.588 180.72C402.588 187.4 399.228 191.32 393.588 191.32ZM392.028 186.68C394.828 186.68 396.508 184.56 396.508 180.92C396.508 177.56 394.828 175.56 391.988 175.56C388.788 175.56 386.868 177.6 386.868 181V181.92C386.868 184.92 388.788 186.68 392.028 186.68ZM425.078 180.56V182.28H411.038C411.318 185.52 412.958 186.92 415.678 186.92C418.038 186.92 419.558 186.08 419.718 184.16H425.078C424.958 188.68 421.198 191.32 415.558 191.32C408.998 191.32 404.918 187.6 404.918 181.32C404.918 174.8 408.998 170.92 415.678 170.92C421.198 170.92 425.078 174.08 425.078 180.56ZM419.718 179.04V178.72C419.718 176.48 418.198 175.32 415.678 175.32C413.118 175.32 411.678 176.44 411.198 179.04H419.718ZM427.859 169.16V164.32H433.979V169.16H427.859ZM426.539 199.4C423.979 199.4 422.619 199.12 422.139 199V194.44C423.019 194.6 423.739 194.68 424.699 194.68C426.899 194.68 427.859 193.4 427.859 191.28V171.24H433.939V191.6C433.939 196.52 431.179 199.4 426.539 199.4ZM446.112 191.32C440.392 191.32 436.832 187.16 436.832 180.96C436.832 174.92 440.592 170.92 446.352 170.92C449.552 170.92 451.632 172.12 452.512 174.16H452.552V163.28H458.632V191H452.552C452.592 190.6 452.672 188.88 452.792 186.76H452.712C451.952 189.56 449.712 191.32 446.112 191.32ZM447.512 186.68C450.552 186.68 452.552 184.52 452.552 181.28V180.32C452.552 177.48 450.552 175.56 447.592 175.56C444.752 175.56 442.872 177.72 442.872 181C442.872 184.36 444.712 186.68 447.512 186.68ZM481.562 180.56V182.28H467.522C467.802 185.52 469.442 186.92 472.162 186.92C474.522 186.92 476.042 186.08 476.202 184.16H481.562C481.442 188.68 477.682 191.32 472.042 191.32C465.482 191.32 461.402 187.6 461.402 181.32C461.402 174.8 465.482 170.92 472.162 170.92C477.682 170.92 481.562 174.08 481.562 180.56ZM476.202 179.04V178.72C476.202 176.48 474.682 175.32 472.162 175.32C469.602 175.32 468.162 176.44 467.682 179.04H476.202ZM484.223 191V171.24H490.303L490.063 176.88H490.143C490.983 173.12 493.103 170.92 496.983 170.92C501.023 170.92 503.383 173.52 503.383 178.64C503.383 179.76 503.263 181.52 503.183 182.56H497.663C497.743 181.6 497.783 180.6 497.783 180C497.783 177.12 496.623 175.96 494.703 175.96C492.103 175.96 490.303 178.08 490.303 182.48V191H484.223ZM515.28 198.92V171.24H521.36L521.24 175.28H521.28C522.04 172.56 524.56 170.92 527.96 170.92C533.48 170.92 537.08 174.84 537.08 180.68C537.08 187.08 533.48 191.32 527.92 191.32C524.32 191.32 522.08 189.84 521.2 187.44H521.16C521.24 188.76 521.36 190.72 521.36 191.44V198.92H515.28ZM526.48 186.68C529.2 186.68 531.04 184.36 531.04 180.92C531.04 177.72 529.2 175.56 526.44 175.56C523.4 175.56 521.36 177.76 521.36 181.08V181.96C521.36 184.8 523.4 186.68 526.48 186.68ZM548.674 169.2C544.634 169.2 542.594 167.12 542.594 164.36C542.594 161.6 544.794 159.52 548.674 159.52C552.674 159.52 554.754 161.6 554.754 164.36C554.754 167.12 552.714 169.2 548.674 169.2ZM548.674 166.2C550.154 166.2 550.954 165.52 550.954 164.36C550.954 163.2 550.114 162.52 548.674 162.52C547.274 162.52 546.394 163.2 546.394 164.36C546.394 165.52 547.194 166.2 548.674 166.2ZM546.314 191.32C541.714 191.32 538.514 189.32 538.514 185.32C538.514 182.08 540.834 179.72 546.074 179.72H552.514V178.4C552.514 176 551.154 175.04 548.354 175.04C546.074 175.04 544.754 176 544.754 177.6C544.754 177.72 544.754 178.04 544.794 178.44H539.194C539.154 178.12 539.114 177.68 539.114 177.28C539.114 173.28 542.634 170.92 548.634 170.92C554.914 170.92 558.594 173.72 558.594 179V191H552.514C552.634 190 552.794 188.2 552.794 187H552.754C552.154 189.8 549.914 191.32 546.314 191.32ZM547.514 187.2C550.674 187.2 552.514 185.8 552.514 183.4V183H546.634C544.994 183 543.994 183.76 543.994 184.88C543.994 186.4 545.314 187.2 547.514 187.2ZM53.8 249V222.68H65.4C71.6 222.68 75.28 225.24 75.28 229.56C75.28 232.48 73.88 234.56 71.52 235.2V235.24C74.36 235.88 76.28 238 76.28 241.32C76.28 246.16 72.88 249 66.24 249H53.8ZM60.36 233.6H65.84C68.2 233.6 69.52 232.56 69.52 230.6C69.52 228.64 68.2 227.44 65.36 227.44H60.36V233.6ZM60.36 244.24H66.24C68.64 244.24 70.04 242.88 70.04 240.64C70.04 238.8 68.6 237.56 66.08 237.56H60.36V244.24ZM79.1097 227.16V222.32H85.1897V227.16H79.1097ZM79.1097 249V229.24H85.1897V249H79.1097ZM101.283 249.32C97.6828 249.32 95.1228 247.8 94.4028 245.28H94.3628C94.4028 246.44 94.4828 248.04 94.5628 249H88.4828V221.28H94.5628V229.56C94.5628 230.48 94.4828 232.12 94.4428 233.08H94.5228C95.2828 230.48 97.8028 228.92 101.323 228.92C106.963 228.92 110.283 232.56 110.283 238.72C110.283 245.4 106.923 249.32 101.283 249.32ZM99.7228 244.68C102.523 244.68 104.203 242.56 104.203 238.92C104.203 235.56 102.523 233.56 99.6828 233.56C96.4828 233.56 94.5628 235.6 94.5628 239V239.92C94.5628 242.92 96.4828 244.68 99.7228 244.68ZM113.053 249V221.28H119.133V249H113.053ZM122.43 227.16V222.32H128.51V227.16H122.43ZM122.43 249V229.24H128.51V249H122.43ZM142.123 249.32C135.603 249.32 131.363 245.56 131.363 239.16C131.363 232.72 135.603 228.92 142.123 228.92C148.643 228.92 152.883 232.72 152.883 239.16C152.883 245.56 148.643 249.32 142.123 249.32ZM142.123 244.68C145.083 244.68 146.803 242.64 146.803 239.16C146.803 235.64 145.083 233.56 142.123 233.56C139.163 233.56 137.443 235.64 137.443 239.16C137.443 242.64 139.163 244.68 142.123 244.68ZM165.591 249.32C159.431 249.32 157.231 246.6 157.231 242.2V233.96H154.311V229.24H156.671C157.591 229.24 157.911 228.72 158.031 227.52L158.311 224.76H163.311V229.24H169.631V233.96H163.311V241.88C163.311 243.92 164.271 244.56 166.671 244.56C167.511 244.56 168.751 244.44 169.431 244.28V248.88C168.911 249 167.231 249.32 165.591 249.32ZM191.133 238.56V240.28H177.093C177.373 243.52 179.013 244.92 181.733 244.92C184.093 244.92 185.613 244.08 185.773 242.16H191.133C191.013 246.68 187.253 249.32 181.613 249.32C175.053 249.32 170.973 245.6 170.973 239.32C170.973 232.8 175.053 228.92 181.733 228.92C187.253 228.92 191.133 232.08 191.133 238.56ZM185.773 237.04V236.72C185.773 234.48 184.253 233.32 181.733 233.32C179.173 233.32 177.733 234.44 177.253 237.04H185.773ZM193.873 249V221.28H199.953V238.76H199.993L208.433 229.24H215.833L207.513 237.84L216.313 249H208.313L203.153 241.72L199.953 244.96V249H193.873ZM236.406 238.56V240.28H222.366C222.646 243.52 224.286 244.92 227.006 244.92C229.366 244.92 230.886 244.08 231.046 242.16H236.406C236.286 246.68 232.526 249.32 226.886 249.32C220.326 249.32 216.246 245.6 216.246 239.32C216.246 232.8 220.326 228.92 227.006 228.92C232.526 228.92 236.406 232.08 236.406 238.56ZM231.046 237.04V236.72C231.046 234.48 229.526 233.32 227.006 233.32C224.446 233.32 223.006 234.44 222.526 237.04H231.046ZM249.107 249.32C242.947 249.32 240.747 246.6 240.747 242.2V233.96H237.827V229.24H240.187C241.107 229.24 241.427 228.72 241.547 227.52L241.827 224.76H246.827V229.24H253.147V233.96H246.827V241.88C246.827 243.92 247.787 244.56 250.187 244.56C251.027 244.56 252.267 244.44 252.947 244.28V248.88C252.427 249 250.747 249.32 249.107 249.32ZM265.206 249V222.68H283.406V227.84H271.766V234.28H281.406V238.68H271.766V249H265.206ZM285.629 249V229.24H291.709L291.469 234.88H291.549C292.389 231.12 294.509 228.92 298.389 228.92C302.429 228.92 304.789 231.52 304.789 236.64C304.789 237.76 304.669 239.52 304.589 240.56H299.069C299.149 239.6 299.189 238.6 299.189 238C299.189 235.12 298.029 233.96 296.109 233.96C293.509 233.96 291.709 236.08 291.709 240.48V249H285.629ZM327.187 238.56V240.28H313.147C313.427 243.52 315.067 244.92 317.787 244.92C320.147 244.92 321.667 244.08 321.827 242.16H327.187C327.067 246.68 323.307 249.32 317.667 249.32C311.107 249.32 307.027 245.6 307.027 239.32C307.027 232.8 311.107 228.92 317.787 228.92C323.307 228.92 327.187 232.08 327.187 238.56ZM321.827 237.04V236.72C321.827 234.48 320.307 233.32 317.787 233.32C315.227 233.32 313.787 234.44 313.307 237.04H321.827ZM338.768 249.32C333.048 249.32 329.488 245.16 329.488 238.96C329.488 232.92 333.248 228.92 339.008 228.92C342.208 228.92 344.288 230.12 345.168 232.16H345.208V221.28H351.288V249H345.208C345.248 248.6 345.328 246.88 345.448 244.76H345.368C344.608 247.56 342.368 249.32 338.768 249.32ZM340.168 244.68C343.208 244.68 345.208 242.52 345.208 239.28V238.32C345.208 235.48 343.208 233.56 340.248 233.56C337.408 233.56 335.528 235.72 335.528 239C335.528 242.36 337.368 244.68 340.168 244.68ZM374.218 238.56V240.28H360.178C360.458 243.52 362.098 244.92 364.818 244.92C367.178 244.92 368.698 244.08 368.858 242.16H374.218C374.098 246.68 370.338 249.32 364.698 249.32C358.138 249.32 354.058 245.6 354.058 239.32C354.058 232.8 358.138 228.92 364.818 228.92C370.338 228.92 374.218 232.08 374.218 238.56ZM368.858 237.04V236.72C368.858 234.48 367.338 233.32 364.818 233.32C362.258 233.32 360.818 234.44 360.338 237.04H368.858ZM376.879 249V229.24H382.959L382.719 234.88H382.799C383.639 231.12 385.759 228.92 389.639 228.92C393.679 228.92 396.039 231.52 396.039 236.64C396.039 237.76 395.919 239.52 395.839 240.56H390.319C390.399 239.6 390.439 238.6 390.439 238C390.439 235.12 389.279 233.96 387.359 233.96C384.759 233.96 382.959 236.08 382.959 240.48V249H376.879ZM398.797 227.16V222.32H404.877V227.16H398.797ZM398.797 249V229.24H404.877V249H398.797ZM408.17 249V221.28H414.25V238.76H414.29L422.73 229.24H430.13L421.81 237.84L430.61 249H422.61L417.45 241.72L414.25 244.96V249H408.17ZM441.243 249.32C434.283 249.32 431.363 246.36 431.363 242.36H436.803C436.803 244.2 437.723 245.4 441.203 245.4C444.363 245.4 445.483 244.48 445.483 243.04C445.483 242.32 445.123 241.76 444.083 241.52C443.043 241.28 441.443 241.12 439.483 240.96C436.643 240.72 434.443 240.28 433.243 239.44C432.123 238.64 431.363 237.2 431.363 235.56C431.363 231.28 435.763 228.92 441.243 228.92C447.723 228.92 450.683 231.4 450.683 236H445.323C445.283 233.92 444.323 232.84 441.323 232.84C438.603 232.84 437.403 233.76 437.403 235.12C437.403 235.96 437.723 236.6 438.843 236.88C439.843 237.12 441.603 237.28 443.723 237.48C446.163 237.72 447.883 237.96 449.363 238.8C450.643 239.52 451.563 241 451.563 242.72C451.563 246.88 448.003 249.32 441.243 249.32ZM467.142 249.32C463.542 249.32 460.982 247.8 460.262 245.28H460.222C460.262 246.44 460.342 248.04 460.422 249H454.342V221.28H460.422V229.56C460.422 230.48 460.342 232.12 460.302 233.08H460.382C461.142 230.48 463.662 228.92 467.182 228.92C472.822 228.92 476.142 232.56 476.142 238.72C476.142 245.4 472.782 249.32 467.142 249.32ZM465.582 244.68C468.382 244.68 470.062 242.56 470.062 238.92C470.062 235.56 468.382 233.56 465.542 233.56C462.342 233.56 460.422 235.6 460.422 239V239.92C460.422 242.92 462.342 244.68 465.582 244.68ZM498.633 238.56V240.28H484.593C484.873 243.52 486.513 244.92 489.233 244.92C491.593 244.92 493.113 244.08 493.273 242.16H498.633C498.513 246.68 494.753 249.32 489.113 249.32C482.553 249.32 478.473 245.6 478.473 239.32C478.473 232.8 482.553 228.92 489.233 228.92C494.753 228.92 498.633 232.08 498.633 238.56ZM493.273 237.04V236.72C493.273 234.48 491.753 233.32 489.233 233.32C486.673 233.32 485.233 234.44 484.753 237.04H493.273ZM501.293 249V229.24H507.373L507.133 234.88H507.213C508.053 231.12 510.173 228.92 514.053 228.92C518.093 228.92 520.453 231.52 520.453 236.64C520.453 237.76 520.333 239.52 520.253 240.56H514.733C514.813 239.6 514.853 238.6 514.853 238C514.853 235.12 513.693 233.96 511.773 233.96C509.173 233.96 507.373 236.08 507.373 240.48V249H501.293ZM536.903 245.4C541.383 245.4 544.023 247.36 544.023 250.64C544.023 255.16 539.983 257.56 533.143 257.56C526.183 257.56 522.063 255.64 522.063 252.36C522.063 250.28 523.423 249 525.623 248.76V248.72C524.423 247.96 523.783 246.88 523.783 245.48C523.783 243.6 524.743 242.44 526.223 241.76V241.72C524.143 240.52 522.983 238.56 522.983 236C522.983 231.56 526.423 228.92 532.223 228.92C534.543 228.92 536.463 229.32 537.943 230.12L537.983 230.04C537.183 229.32 536.823 228.52 536.823 227.8C536.823 226.16 538.463 225.2 540.983 225.2C542.063 225.2 542.623 225.28 543.183 225.4V229.24C542.823 229.16 542.423 229.12 541.983 229.12C540.703 229.12 540.103 229.68 540.103 230.6C540.103 231.08 540.263 231.68 540.543 232.4C541.183 233.4 541.503 234.6 541.503 236C541.503 240.44 538.063 243.04 532.223 243.04C531.023 243.04 529.943 242.92 528.943 242.72C528.783 242.96 528.583 243.44 528.583 244C528.583 244.88 529.303 245.4 530.503 245.4H536.903ZM532.223 232.76C530.023 232.76 528.703 233.96 528.703 236C528.703 238 530.023 239.2 532.223 239.2C534.463 239.2 535.783 238 535.783 236C535.783 233.96 534.463 232.76 532.223 232.76ZM533.063 253.88C536.143 253.88 537.943 253.04 537.943 251.48C537.943 250.4 537.143 249.8 535.383 249.8H530.703C529.063 249.8 528.103 250.48 528.103 251.6C528.103 253.08 529.943 253.88 533.063 253.88Z" fill="black"/>
<path d="M413.44 284C413.44 280.76 413.992 279.8 418.168 277.856C422.128 276.008 422.752 275.048 422.752 272.96C422.752 271.088 421.432 269.768 419.224 269.768C416.728 269.768 415.36 271.328 415.36 273.776C415.36 274.52 415.432 275.24 415.504 275.6H413.68C413.608 275.24 413.536 274.496 413.536 273.68C413.536 270.2 415.624 267.992 419.272 267.992C422.632 267.992 424.72 270.032 424.72 272.96C424.72 275.36 423.832 277.016 419.224 279.176C415.84 280.76 415.456 281.24 415.456 282.224H425.008V284H413.44ZM433.732 284.216C429.82 284.216 427.564 281.072 427.564 276.032C427.564 271.088 429.82 267.992 433.732 267.992C437.644 267.992 439.9 271.088 439.9 276.032C439.9 281.072 437.644 284.216 433.732 284.216ZM433.732 282.44C436.444 282.44 437.932 279.992 437.932 276.032C437.932 272.168 436.444 269.768 433.732 269.768C431.02 269.768 429.532 272.168 429.532 276.032C429.532 279.992 431.02 282.44 433.732 282.44ZM442.361 284V282.224H447.689V273.776H444.065V272.312L446.273 272.264C447.737 272.24 447.905 271.88 447.929 268.04H449.657V282.224H454.073V284H442.361ZM459.005 284C460.325 278.384 462.989 273.776 466.757 270.056V270.032H456.413V268.208H469.037V269.864C464.237 274.688 462.581 278.384 461.261 284H459.005ZM470.802 277.904V276.512H476.13V277.904H470.802ZM478.432 284C478.432 280.76 478.984 279.8 483.16 277.856C487.12 276.008 487.744 275.048 487.744 272.96C487.744 271.088 486.424 269.768 484.216 269.768C481.72 269.768 480.352 271.328 480.352 273.776C480.352 274.52 480.424 275.24 480.496 275.6H478.672C478.6 275.24 478.528 274.496 478.528 273.68C478.528 270.2 480.616 267.992 484.264 267.992C487.624 267.992 489.712 270.032 489.712 272.96C489.712 275.36 488.824 277.016 484.216 279.176C480.832 280.76 480.448 281.24 480.448 282.224H490V284H478.432ZM498.725 284.216C494.813 284.216 492.557 281.072 492.557 276.032C492.557 271.088 494.813 267.992 498.725 267.992C502.637 267.992 504.893 271.088 504.893 276.032C504.893 281.072 502.637 284.216 498.725 284.216ZM498.725 282.44C501.437 282.44 502.925 279.992 502.925 276.032C502.925 272.168 501.437 269.768 498.725 269.768C496.013 269.768 494.525 272.168 494.525 276.032C494.525 279.992 496.013 282.44 498.725 282.44ZM507.353 284V282.224H512.681V273.776H509.057V272.312L511.265 272.264C512.729 272.24 512.897 271.88 512.921 268.04H514.649V282.224H519.065V284H507.353ZM527.597 284.216C523.997 284.216 521.885 282.416 521.885 279.848C521.885 279.704 521.885 279.368 521.909 279.056H523.781C523.757 279.32 523.757 279.584 523.757 279.68C523.757 281.312 525.125 282.464 527.573 282.464C530.405 282.464 531.869 280.328 531.869 276.176C531.869 275.72 531.869 275.12 531.821 274.664H531.773C531.533 276.56 529.853 277.88 527.189 277.88C523.613 277.88 521.525 276.032 521.525 273.224C521.525 270.08 523.757 267.992 527.501 267.992C531.365 267.992 533.861 270.152 533.861 275.936C533.861 281.432 531.629 284.216 527.597 284.216ZM527.261 276.296C529.877 276.296 531.533 274.832 531.533 272.792C531.413 271.064 529.901 269.744 527.477 269.744C524.957 269.744 523.493 271.136 523.493 273.224C523.493 275.096 524.957 276.296 527.261 276.296Z" fill="#07093B"/>
<line y1="-2" x2="65.9881" y2="-2" transform="matrix(0.47692 -0.878947 0.858775 0.512352 271 63)" stroke="#614718" stroke-width="4"/>
<path d="M329.877 62.0107L298.406 4.01074" stroke="#614718" stroke-width="4"/>
<ellipse cx="299.609" cy="7" rx="6.67568" ry="7" fill="#D9D9D9"/>
<defs>
<filter id="filter0_d_766_5222" x="0" y="63" width="596" height="270" filterUnits="userSpaceOnUse" color-interpolation-filters="sRGB">
<feFlood flood-opacity="0" result="BackgroundImageFix"/>
<feColorMatrix in="SourceAlpha" type="matrix" values="0 0 0 0 0 0 0 0 0 0 0 0 0 0 0 0 0 0 127 0" result="hardAlpha"/>
<feOffset dy="4"/>
<feGaussianBlur stdDeviation="2"/>
<feComposite in2="hardAlpha" operator="out"/>
<feColorMatrix type="matrix" values="0 0 0 0 0 0 0 0 0 0 0 0 0 0 0 0 0 0 0.25 0"/>
<feBlend mode="normal" in2="BackgroundImageFix" result="effect1_dropShadow_766_5222"/>
<feBlend mode="normal" in="SourceGraphic" in2="effect1_dropShadow_766_5222" result="shape"/>
</filter>
</defs>
</svg>
