<svg width="502" height="328" viewBox="0 0 502 328" fill="none" xmlns="http://www.w3.org/2000/svg">
<line y1="-2" x2="65.9881" y2="-2" transform="matrix(0.47692 -0.878947 0.858775 0.512352 209.039 63)" stroke="#614718" stroke-width="4"/>
<path d="M267.916 62.0107L236.445 4.01074" stroke="#614718" stroke-width="4"/>
<g filter="url(#filter0_d_766_5232)">
<rect x="15.5" y="69.5" width="471" height="239" stroke="#DFC392" stroke-width="23" shape-rendering="crispEdges"/>
</g>
<path d="M50.5422 135V108.68H68.7422V113.84H57.1022V120.28H66.7422V124.68H57.1022V135H50.5422ZM80.4278 135.32C73.9078 135.32 69.6678 131.56 69.6678 125.16C69.6678 118.72 73.9078 114.92 80.4278 114.92C86.9478 114.92 91.1878 118.72 91.1878 125.16C91.1878 131.56 86.9478 135.32 80.4278 135.32ZM80.4278 130.68C83.3878 130.68 85.1078 128.64 85.1078 125.16C85.1078 121.64 83.3878 119.56 80.4278 119.56C77.4678 119.56 75.7478 121.64 75.7478 125.16C75.7478 128.64 77.4678 130.68 80.4278 130.68ZM93.8559 135V115.24H99.9359L99.6959 120.88H99.7759C100.616 117.12 102.736 114.92 106.616 114.92C110.656 114.92 113.016 117.52 113.016 122.64C113.016 123.76 112.896 125.52 112.816 126.56H107.296C107.376 125.6 107.416 124.6 107.416 124C107.416 121.12 106.256 119.96 104.336 119.96C101.736 119.96 99.9359 122.08 99.9359 126.48V135H93.8559ZM115.694 135V107.28H121.774V124.76H121.814L130.254 115.24H137.654L129.334 123.84L138.134 135H130.134L124.974 127.72L121.774 130.96V135H115.694ZM147.663 135L139.383 115.24H146.463L151.543 129.44H151.623L156.823 115.24H163.063L154.903 135H147.663ZM165.422 113.16V108.32H171.502V113.16H165.422ZM165.422 135V115.24H171.502V135H165.422ZM174.715 135V115.24H180.795L180.555 120.48H180.635C181.635 116.72 183.955 114.92 188.435 114.92C193.195 114.92 196.275 117.52 196.275 122.64V135H190.195V124C190.195 121.2 188.595 119.96 185.915 119.96C182.715 119.96 180.795 121.84 180.795 125.6V135H174.715ZM208.049 135.32C202.329 135.32 198.769 131.16 198.769 124.96C198.769 118.92 202.529 114.92 208.289 114.92C211.489 114.92 213.569 116.12 214.449 118.16H214.489V107.28H220.569V135H214.489C214.529 134.6 214.609 132.88 214.729 130.76H214.649C213.889 133.56 211.649 135.32 208.049 135.32ZM209.449 130.68C212.489 130.68 214.489 128.52 214.489 125.28V124.32C214.489 121.48 212.489 119.56 209.529 119.56C206.689 119.56 204.809 121.72 204.809 125C204.809 128.36 206.649 130.68 209.449 130.68ZM243.5 124.56V126.28H229.46C229.74 129.52 231.38 130.92 234.1 130.92C236.46 130.92 237.98 130.08 238.14 128.16H243.5C243.38 132.68 239.62 135.32 233.98 135.32C227.42 135.32 223.34 131.6 223.34 125.32C223.34 118.8 227.42 114.92 234.1 114.92C239.62 114.92 243.5 118.08 243.5 124.56ZM238.14 123.04V122.72C238.14 120.48 236.62 119.32 234.1 119.32C231.54 119.32 230.1 120.44 229.62 123.04H238.14ZM255.859 135V108.68H262.419V135H255.859ZM275.425 135V108.68H284.865L295.185 126.36H295.225L295.025 108.68H301.185V135H293.425L281.465 114.6H281.425L281.585 135H275.425ZM323.44 118.12C325 119.92 325.72 122.4 325.72 125.16C325.72 131 322.64 135.32 314.92 135.32C312.12 135.32 309.96 134.76 308.32 133.76L306.68 135.44L304.64 133.84L306.32 132.08C304.84 130.32 304.16 127.92 304.16 125.16C304.16 119.32 307.24 114.92 314.92 114.92C317.68 114.92 319.84 115.48 321.48 116.48L323.08 114.8L325.16 116.36L323.44 118.12ZM310 125.12C310 126.16 310.12 127.08 310.4 127.92L317.96 120.12C317.2 119.56 316.2 119.24 314.92 119.24C311.32 119.24 310 121.68 310 125.12ZM314.92 131C318.52 131 319.84 128.6 319.84 125.12C319.84 124.08 319.72 123.08 319.44 122.28L311.84 130.12C312.6 130.68 313.6 131 314.92 131ZM328.387 135V115.24H334.467L334.227 120.88H334.307C335.147 117.12 337.267 114.92 341.147 114.92C345.187 114.92 347.547 117.52 347.547 122.64C347.547 123.76 347.427 125.52 347.347 126.56H341.827C341.907 125.6 341.947 124.6 341.947 124C341.947 121.12 340.787 119.96 338.867 119.96C336.267 119.96 334.467 122.08 334.467 126.48V135H328.387ZM350.145 135V115.24H356.225L355.985 120.88H356.065C356.905 117.12 359.025 114.92 362.905 114.92C366.945 114.92 369.305 117.52 369.305 122.64C369.305 123.76 369.185 125.52 369.105 126.56H363.585C363.665 125.6 363.705 124.6 363.705 124C363.705 121.12 362.545 119.96 360.625 119.96C358.025 119.96 356.225 122.08 356.225 126.48V135H350.145ZM391.703 124.56V126.28H377.663C377.943 129.52 379.583 130.92 382.303 130.92C384.663 130.92 386.183 130.08 386.343 128.16H391.703C391.583 132.68 387.823 135.32 382.183 135.32C375.623 135.32 371.543 131.6 371.543 125.32C371.543 118.8 375.623 114.92 382.303 114.92C387.823 114.92 391.703 118.08 391.703 124.56ZM386.343 123.04V122.72C386.343 120.48 384.823 119.32 382.303 119.32C379.743 119.32 378.303 120.44 377.823 123.04H386.343ZM407.244 135.32C403.644 135.32 401.084 133.8 400.364 131.28H400.324C400.364 132.44 400.444 134.04 400.524 135H394.444V107.28H400.524V115.56C400.524 116.48 400.444 118.12 400.404 119.08H400.484C401.244 116.48 403.764 114.92 407.284 114.92C412.924 114.92 416.244 118.56 416.244 124.72C416.244 131.4 412.884 135.32 407.244 135.32ZM405.684 130.68C408.484 130.68 410.164 128.56 410.164 124.92C410.164 121.56 408.484 119.56 405.644 119.56C402.444 119.56 400.524 121.6 400.524 125V125.92C400.524 128.92 402.444 130.68 405.684 130.68ZM418.934 135V115.24H425.014L424.774 120.88H424.854C425.694 117.12 427.814 114.92 431.694 114.92C435.734 114.92 438.094 117.52 438.094 122.64C438.094 123.76 437.974 125.52 437.894 126.56H432.374C432.454 125.6 432.494 124.6 432.494 124C432.494 121.12 431.334 119.96 429.414 119.96C426.814 119.96 425.014 122.08 425.014 126.48V135H418.934ZM451.092 135.32C444.572 135.32 440.332 131.56 440.332 125.16C440.332 118.72 444.572 114.92 451.092 114.92C457.612 114.92 461.852 118.72 461.852 125.16C461.852 131.56 457.612 135.32 451.092 135.32ZM451.092 130.68C454.052 130.68 455.772 128.64 455.772 125.16C455.772 121.64 454.052 119.56 451.092 119.56C448.132 119.56 446.412 121.64 446.412 125.16C446.412 128.64 448.132 130.68 451.092 130.68ZM235.933 193V166.68H242.493V187.84H254.493V193H235.933ZM266.561 193.32C260.041 193.32 255.801 189.56 255.801 183.16C255.801 176.72 260.041 172.92 266.561 172.92C273.081 172.92 277.321 176.72 277.321 183.16C277.321 189.56 273.081 193.32 266.561 193.32ZM266.561 188.68C269.521 188.68 271.241 186.64 271.241 183.16C271.241 179.64 269.521 177.56 266.561 177.56C263.601 177.56 261.881 179.64 261.881 183.16C261.881 186.64 263.601 188.68 266.561 188.68ZM280.069 193V165.28H286.149V182.76H286.189L294.629 173.24H302.029L293.709 181.84L302.509 193H294.509L289.349 185.72L286.149 188.96V193H280.069ZM311.221 193.32C306.621 193.32 303.421 191.32 303.421 187.32C303.421 184.08 305.741 181.72 310.981 181.72H317.421V180.4C317.421 178 316.061 177.04 313.261 177.04C310.981 177.04 309.661 178 309.661 179.6C309.661 179.72 309.661 180.04 309.701 180.44H304.101C304.061 180.12 304.021 179.68 304.021 179.28C304.021 175.28 307.541 172.92 313.541 172.92C319.821 172.92 323.501 175.72 323.501 181V193H317.421C317.541 192 317.701 190.2 317.701 189H317.661C317.061 191.8 314.821 193.32 311.221 193.32ZM312.421 189.2C315.581 189.2 317.421 187.8 317.421 185.4V185H311.541C309.901 185 308.901 185.76 308.901 186.88C308.901 188.4 310.221 189.2 312.421 189.2ZM326.436 193V165.28H332.516V193H326.436ZM343.773 193.32C338.653 193.32 335.453 190.76 335.453 184.96V173.24H341.533V184.24C341.533 187 343.053 188.28 345.653 188.28C348.933 188.28 350.893 186.12 350.893 181.8V173.24H356.973V193H350.893C351.013 191.64 351.133 190 351.173 187.84H351.093C350.213 191.64 347.533 193.32 343.773 193.32ZM368.987 193.32C363.267 193.32 359.707 189.16 359.707 182.96C359.707 176.92 363.467 172.92 369.227 172.92C372.427 172.92 374.507 174.12 375.387 176.16H375.427V165.28H381.507V193H375.427C375.467 192.6 375.547 190.88 375.667 188.76H375.587C374.827 191.56 372.587 193.32 368.987 193.32ZM370.387 188.68C373.427 188.68 375.427 186.52 375.427 183.28V182.32C375.427 179.48 373.427 177.56 370.467 177.56C367.627 177.56 365.747 179.72 365.747 183C365.747 186.36 367.587 188.68 370.387 188.68ZM392.077 193L383.797 173.24H390.877L395.957 187.44H396.037L401.237 173.24H407.477L399.317 193H392.077ZM416.338 193.32C411.738 193.32 408.538 191.32 408.538 187.32C408.538 184.08 410.858 181.72 416.098 181.72H422.538V180.4C422.538 178 421.178 177.04 418.378 177.04C416.098 177.04 414.778 178 414.778 179.6C414.778 179.72 414.778 180.04 414.818 180.44H409.218C409.178 180.12 409.138 179.68 409.138 179.28C409.138 175.28 412.658 172.92 418.658 172.92C424.938 172.92 428.618 175.72 428.618 181V193H422.538C422.658 192 422.818 190.2 422.818 189H422.778C422.178 191.8 419.938 193.32 416.338 193.32ZM417.538 189.2C420.698 189.2 422.538 187.8 422.538 185.4V185H416.658C415.018 185 414.018 185.76 414.018 186.88C414.018 188.4 415.338 189.2 417.538 189.2ZM431.553 193V165.28H437.633V193H431.553ZM455.09 189.4C459.57 189.4 462.21 191.36 462.21 194.64C462.21 199.16 458.17 201.56 451.33 201.56C444.37 201.56 440.25 199.64 440.25 196.36C440.25 194.28 441.61 193 443.81 192.76V192.72C442.61 191.96 441.97 190.88 441.97 189.48C441.97 187.6 442.93 186.44 444.41 185.76V185.72C442.33 184.52 441.17 182.56 441.17 180C441.17 175.56 444.61 172.92 450.41 172.92C452.73 172.92 454.65 173.32 456.13 174.12L456.17 174.04C455.37 173.32 455.01 172.52 455.01 171.8C455.01 170.16 456.65 169.2 459.17 169.2C460.25 169.2 460.81 169.28 461.37 169.4V173.24C461.01 173.16 460.61 173.12 460.17 173.12C458.89 173.12 458.29 173.68 458.29 174.6C458.29 175.08 458.45 175.68 458.73 176.4C459.37 177.4 459.69 178.6 459.69 180C459.69 184.44 456.25 187.04 450.41 187.04C449.21 187.04 448.13 186.92 447.13 186.72C446.97 186.96 446.77 187.44 446.77 188C446.77 188.88 447.49 189.4 448.69 189.4H455.09ZM450.41 176.76C448.21 176.76 446.89 177.96 446.89 180C446.89 182 448.21 183.2 450.41 183.2C452.65 183.2 453.97 182 453.97 180C453.97 177.96 452.65 176.76 450.41 176.76ZM451.25 197.88C454.33 197.88 456.13 197.04 456.13 195.48C456.13 194.4 455.33 193.8 453.57 193.8H448.89C447.25 193.8 446.29 194.48 446.29 195.6C446.29 197.08 448.13 197.88 451.25 197.88Z" fill="black"/>
<path d="M35.44 280C35.44 276.76 35.992 275.8 40.168 273.856C44.128 272.008 44.752 271.048 44.752 268.96C44.752 267.088 43.432 265.768 41.224 265.768C38.728 265.768 37.36 267.328 37.36 269.776C37.36 270.52 37.432 271.24 37.504 271.6H35.68C35.608 271.24 35.536 270.496 35.536 269.68C35.536 266.2 37.624 263.992 41.272 263.992C44.632 263.992 46.72 266.032 46.72 268.96C46.72 271.36 45.832 273.016 41.224 275.176C37.84 276.76 37.456 277.24 37.456 278.224H47.008V280H35.44ZM55.7324 280.216C51.8204 280.216 49.5644 277.072 49.5644 272.032C49.5644 267.088 51.8204 263.992 55.7324 263.992C59.6444 263.992 61.9004 267.088 61.9004 272.032C61.9004 277.072 59.6444 280.216 55.7324 280.216ZM55.7324 278.44C58.4444 278.44 59.9324 275.992 59.9324 272.032C59.9324 268.168 58.4444 265.768 55.7324 265.768C53.0204 265.768 51.5324 268.168 51.5324 272.032C51.5324 275.992 53.0204 278.44 55.7324 278.44ZM64.3608 280V278.224H69.6888V269.776H66.0648V268.312L68.2728 268.264C69.7368 268.24 69.9048 267.88 69.9288 264.04H71.6568V278.224H76.0728V280H64.3608ZM84.5091 280.216C80.8611 280.216 78.5331 278.344 78.5331 275.272C78.5331 274.936 78.5811 274.456 78.6051 274.192H80.4291C80.4051 274.6 80.4051 274.84 80.4051 274.96C80.4051 277.24 81.8691 278.44 84.5091 278.44C87.2211 278.44 88.8771 277.192 88.8771 275.032C88.8771 273.448 87.7491 272.632 85.8291 272.632H83.3571V271.192H85.4451C87.2691 271.192 88.2051 270.208 88.2051 268.672C88.2051 266.848 86.8131 265.768 84.7011 265.768C82.1571 265.768 80.7651 267.04 80.7651 269.056C80.7651 269.488 80.7891 269.824 80.8131 270.064H78.9891C78.9411 269.824 78.8931 269.296 78.8931 268.768C78.8931 265.864 81.0531 263.992 84.7011 263.992C87.9891 263.992 90.1251 265.672 90.1251 268.456C90.1251 270.016 89.2371 271.288 87.8691 271.6V271.648C89.6931 271.888 90.8451 273.256 90.8451 275.152C90.8451 278.248 88.4211 280.216 84.5091 280.216ZM92.8015 273.904V272.512H98.1295V273.904H92.8015ZM100.432 280C100.432 276.76 100.984 275.8 105.16 273.856C109.12 272.008 109.744 271.048 109.744 268.96C109.744 267.088 108.424 265.768 106.216 265.768C103.72 265.768 102.352 267.328 102.352 269.776C102.352 270.52 102.424 271.24 102.496 271.6H100.672C100.6 271.24 100.528 270.496 100.528 269.68C100.528 266.2 102.616 263.992 106.264 263.992C109.624 263.992 111.712 266.032 111.712 268.96C111.712 271.36 110.824 273.016 106.216 275.176C102.832 276.76 102.448 277.24 102.448 278.224H112V280H100.432ZM120.725 280.216C116.813 280.216 114.557 277.072 114.557 272.032C114.557 267.088 116.813 263.992 120.725 263.992C124.637 263.992 126.893 267.088 126.893 272.032C126.893 277.072 124.637 280.216 120.725 280.216ZM120.725 278.44C123.437 278.44 124.925 275.992 124.925 272.032C124.925 268.168 123.437 265.768 120.725 265.768C118.013 265.768 116.525 268.168 116.525 272.032C116.525 275.992 118.013 278.44 120.725 278.44ZM129.353 280V278.224H134.681V269.776H131.057V268.312L133.265 268.264C134.729 268.24 134.897 267.88 134.921 264.04H136.649V278.224H141.065V280H129.353ZM151.973 280V276.28H143.309V274.504L151.709 264.208H153.941V274.504H156.557V276.28H153.941V280H151.973ZM145.421 274.504H151.973V266.512H151.949L145.421 274.48V274.504Z" fill="#07093B"/>
<ellipse cx="237.648" cy="7" rx="6.67568" ry="7" fill="#D9D9D9"/>
<defs>
<filter id="filter0_d_766_5232" x="0" y="58" width="502" height="270" filterUnits="userSpaceOnUse" color-interpolation-filters="sRGB">
<feFlood flood-opacity="0" result="BackgroundImageFix"/>
<feColorMatrix in="SourceAlpha" type="matrix" values="0 0 0 0 0 0 0 0 0 0 0 0 0 0 0 0 0 0 127 0" result="hardAlpha"/>
<feOffset dy="4"/>
<feGaussianBlur stdDeviation="2"/>
<feComposite in2="hardAlpha" operator="out"/>
<feColorMatrix type="matrix" values="0 0 0 0 0 0 0 0 0 0 0 0 0 0 0 0 0 0 0.25 0"/>
<feBlend mode="normal" in2="BackgroundImageFix" result="effect1_dropShadow_766_5232"/>
<feBlend mode="normal" in="SourceGraphic" in2="effect1_dropShadow_766_5232" result="shape"/>
</filter>
</defs>
</svg>
