<svg width="439" height="603" viewBox="0 0 439 603" fill="none" xmlns="http://www.w3.org/2000/svg">
<path d="M237.479 46.4645L252.712 59.8413C252.712 59.8413 260.304 79.0157 260.854 79.9914C261.404 80.9671 269.129 96.8892 269.129 96.8892C269.129 96.8892 266.288 120.546 265.813 121.734C265.338 122.922 259.896 135.182 259.896 135.182L260.862 152.306L269.138 159.475L275.621 164.438C275.621 164.438 258.004 170.667 252.146 170.271C246.287 169.875 185.602 169.394 181.569 167.775C177.536 166.156 168.252 165.286 168.252 165.286C168.252 165.286 179.177 161.709 179.119 158.761C179.061 155.812 180.344 148.063 182.036 146.218C183.727 144.38 186.902 139.339 185.319 139.466C183.736 139.593 176.611 135.486 174.035 132.523C171.46 129.554 167.319 123.162 165.819 122.978C164.319 122.794 163.51 105.091 163.51 105.091L161.769 96.8963L167.46 87.5424L169.869 77.1846L180.044 66.9893L180.069 59.9191L191.286 52.4742L193.886 39.1397L189.536 31.8786L200.603 25.9043L211.686 30.2737L231.77 37.1671L237.479 46.4645Z" fill="#DDA000"/>
<path d="M167.376 11.9533L156.815 19.0295L144.691 22.557L131.641 34.627C131.641 34.627 126.472 47.1858 125.733 48.6874C124.995 50.182 118.735 57.9949 118.076 59.8153C117.423 61.6358 119.295 75.1437 118.076 77.0066C116.857 78.8695 116.29 82.8574 111.365 88.007C106.432 93.1566 98.2435 96.4079 99.0035 98.8162C99.7635 101.232 99.0035 110.9 99.0035 110.9L91.0376 124.167C91.0376 124.167 91.9482 122.475 90.4568 126.292C88.9655 130.11 94.8377 136.053 94.8377 137.094C94.8377 138.136 95.5117 139.63 93.1743 142.032C90.8369 144.426 89.618 145.871 89.324 150.17C89.0372 154.47 88.399 153.365 90.4568 156.928C92.5146 160.491 93.0954 166.221 93.0954 166.221C93.0954 166.221 94.0275 164.762 99.0035 170.79C103.979 176.818 108.461 178.532 111.071 178.589C113.68 178.638 115.222 178.539 118.076 177.682C120.936 176.825 126.414 176.506 130.2 170.79C133.986 165.074 135.434 163.997 138.338 163.388C141.235 162.779 146.024 165.357 148.419 161.922C150.814 158.486 153.524 160.583 154.549 161.114C155.575 161.652 175.249 169.352 175.249 169.352L186.865 160.392L191.819 146.367L175.242 129.26L173.256 109.618C173.256 109.618 174.826 95.8624 175.142 94.9416C175.457 94.0208 178.727 81.6674 178.727 81.6674L187.481 71.4533L187.503 64.3699L198.415 55.0199L198.702 38.4378L195.655 36.2774L205.177 30.292L217.229 35.6824L231.985 41.5828L236.911 50.9045L243.622 56.0895L252.14 70.5112C252.14 70.5112 254.858 87.6528 257.03 88.262C259.195 88.8712 263.49 97.5908 263.49 97.5908L266.494 109.236L257.03 135.82L256.198 147.727L261.095 157.934L269.714 169.104L290.306 165.024C290.306 165.024 300.401 167.808 301.764 168.006C303.126 168.205 314.017 167.673 314.017 167.673C314.017 167.673 315.243 155.285 315.243 153.74C315.243 152.196 311.766 148.47 308.281 146.749C304.804 145.028 291.195 143.873 290.019 141.727C288.85 139.581 285.789 128.226 292.249 126.314C298.709 124.401 306.173 123.608 306.503 120.569C306.833 117.523 307.994 115.972 305.384 113.599C302.775 111.226 299.584 114.662 300.745 106.07C301.907 97.4774 300.459 97.8883 303.355 94.9558C306.252 92.0233 309.077 96.7408 306.503 88.5099C303.936 80.2791 301.9 76.1424 300.451 73.7695C299.003 71.3966 296.974 76.3195 300.451 69.1299C303.929 61.9403 309.686 60.2262 301.878 56.7837C294.07 53.3412 294.486 56.1249 292.249 52.2999C290.012 48.4749 289.316 55.5016 288.936 40.9524C288.556 26.4033 286.241 27.9899 282.469 25.0503C278.698 22.1108 280.72 23.5416 273.621 18.9587C266.523 14.3758 278.547 10.5791 257.016 8.31951C235.484 6.05993 232.989 6.35035 228.293 6.35035C223.596 6.35035 227.074 7.49784 217.215 4.91951C207.356 2.34118 205.033 -1.09424 196.917 0.336592C188.793 1.76743 182.419 6.85326 180.096 8.32659C177.773 9.79992 167.376 11.9533 167.376 11.9533Z" fill="#626725"/>
<path d="M302.253 162.003L282.594 155.954L258.593 162.003L242.774 165.63C242.774 165.63 214.039 166.833 213.131 166.727C212.223 166.622 177.91 163.19 177.91 163.19L157.521 153.507C157.521 153.507 152.951 148.767 149.805 150.897C146.651 153.027 133.442 156.304 132.312 158.54C131.182 160.776 117.358 178.46 117.358 178.46C117.358 178.46 143.604 187.094 146.865 190.233C150.126 193.371 150.513 199.07 162.47 200.388C174.427 201.705 185.991 204.55 190.804 205.233C195.617 205.916 197.956 205.209 208.754 205.209C219.553 205.209 221.491 204.656 229.587 205.811C237.682 206.965 244.24 205.209 251.184 203.892C258.128 202.575 271.073 198.753 274.627 197.591C278.181 196.436 278.567 195.119 285.125 188.102C291.683 181.086 288.93 182.118 293.972 176.118C299.014 170.126 302.268 163.873 302.268 163.873V162.003H302.253Z" fill="#67729C"/>
<path d="M110.941 176.379L119.101 175.5L139.657 183.419C139.657 183.419 169.979 193.52 177.694 195.858C185.409 198.195 201.29 196.736 208.611 198.188C215.932 199.64 220.212 200.866 227.174 199.718C234.136 198.571 241.091 197.416 244.963 197.423C248.835 197.43 250.642 197.43 258.593 195.546C266.545 193.662 266.236 196.764 271.262 191.551C276.289 186.338 280.54 184.815 285.187 183.285C289.826 181.755 288.442 179.382 291.252 176.116C294.063 172.851 298.731 167.404 298.731 167.404C298.731 167.404 300.595 162.481 309.715 163.522C318.835 164.564 348.87 166.03 351.638 170.648C354.406 175.259 357.761 185.063 360.593 193.598C363.433 202.134 393.848 282.048 393.848 289.684C393.848 297.319 415.888 364.986 415.888 364.986L412.64 412.877C412.64 412.877 417.286 447.861 415.888 450.319C414.49 452.777 418.785 464.734 421.108 471.562C423.431 478.398 425.74 499.329 426.328 505.902C426.916 512.469 427.769 504.181 431.978 518.511C436.186 532.84 441.557 542.913 436.767 542.913C431.978 542.913 437.929 544.868 425.747 540.568C413.565 536.269 415.214 536.743 402.502 534.788C389.789 532.833 375.88 532.819 371.764 533.797C367.649 534.774 376.037 535.56 359.131 537.352C342.224 539.137 356.528 504.755 356.528 504.755C356.528 504.755 352.692 484.759 352.097 483.583C351.502 482.407 354.621 466.625 356.255 460.76C357.89 454.902 354.922 449.526 353.215 444.192C351.509 438.859 350.964 430.259 348.913 424.529C346.863 418.799 341.256 406.778 339.42 406.488C337.585 406.197 338.273 400.007 331.964 405.56C325.654 411.113 319.818 425.733 321.452 430.288C323.087 434.842 324.715 437.945 327.669 445.566C330.63 453.188 336.43 475.536 338.746 484.128C341.069 492.72 359.138 508.771 359.138 508.771L350.448 542.92L334.279 564.113C334.279 564.113 231.182 573.619 226.959 573.286C222.736 572.953 157.26 577.876 157.26 577.876L92.6221 564.113C92.6221 564.113 86.5204 545.675 84.2045 548.594C81.8886 551.512 46.4689 542.92 46.4689 542.92L0.000183105 544.556C0.000183105 544.556 17.1436 486.232 17.5667 479.17C17.9897 472.108 30.6375 377.552 30.6375 377.552L35.1188 331.461L44.5832 305.182L54.6068 257.957L63.0889 222.201L82.1969 187.301L110.941 176.379Z" fill="#828FBF"/>
<path d="M402.494 531.679L410.819 554.94C410.819 554.94 415.106 565.169 415.106 565.863C415.106 566.557 412.396 577.735 410.467 577.876C408.532 578.018 406.122 579.017 402.494 578.896C398.866 578.776 373.348 583.656 369.864 582.934C366.386 582.211 359.804 583.139 356.52 581.914C353.237 580.688 344.841 581.552 344.841 577.876C344.841 574.193 337.936 573.045 340.173 569.61C342.41 566.175 345.751 559.375 346.404 554.94C347.049 550.506 347.902 542.92 347.902 542.92C347.902 542.92 353.366 537.182 356.248 537.275C359.13 537.367 386.111 532.026 386.111 532.026L402.494 531.679Z" fill="#DDA000"/>
<path d="M31.212 542.579C32.0079 543.422 63.312 544.548 63.312 544.548L77.8671 550.286C77.8671 550.286 80.1328 555.945 79.9392 560.337C79.7457 564.729 82.1404 571.472 82.0759 572.372C82.0114 573.271 78.8566 577.486 81.5023 578.888C84.148 580.291 85.7398 579.632 85.7398 583.259C85.7398 586.885 86.5428 586.503 82.1763 590.902C77.8098 595.293 76.8418 601.98 72.2028 601.789C67.5639 601.597 64.66 602.745 54.0269 601.597C43.3938 600.45 45.1361 603.85 37.3997 600.811C29.6633 597.772 22.902 597.964 19.8046 593.381C16.7143 588.798 13.6168 585.355 15.1656 580.199C16.7143 575.042 16.7143 574.277 20.7725 569.312C24.8307 564.346 26.1859 564.19 28.5089 558.247C30.832 552.305 32.9758 549.818 31.8071 548.579C30.6312 547.353 31.212 542.579 31.212 542.579Z" fill="#DDA000"/>
<path d="M101.305 395.6H116.771L130.695 399.418L148.097 404C148.097 404 160.859 408.583 164.724 408.583C168.589 408.583 179.803 408.583 179.803 408.583C179.803 408.583 178.641 409.348 183.28 408.583C187.919 407.818 212.283 408.201 217.696 408.201C223.109 408.201 235.098 408.881 242.447 408.923C249.796 408.966 279.953 408.923 279.953 408.923C279.953 408.923 291.554 411.643 292.716 411.643C293.877 411.643 303.542 411.643 303.542 411.643C303.542 411.643 309.343 412.791 309.343 414.321C309.343 415.851 309.343 423.104 309.343 423.104C309.343 423.104 302.768 443.731 302.381 445.261C301.994 446.791 297.355 457.487 297.355 459.775C297.355 462.063 293.877 463.975 293.49 459.775C293.103 455.574 291.167 441.053 292.328 438.383C293.49 435.713 295.806 418.897 295.806 418.897C295.806 418.897 289.618 424.245 286.141 424.245C282.663 424.245 258.687 427.298 255.977 427.298C253.266 427.298 217.696 429.784 215.373 428.92C213.05 428.055 147.703 421.95 146.541 421.95C145.379 421.95 119.087 416.219 116.377 415.454C113.667 414.689 101.298 410.871 101.298 410.871L103.621 402.088L101.305 395.6Z" fill="#67729C"/>
<path d="M298.128 408.583C299.289 407.818 306.251 403.618 306.251 402.088C306.251 400.558 312.826 384.132 312.826 384.132L324.427 373.818L339.728 386.809C339.728 386.809 320.627 412.975 322.721 420.901C324.815 428.835 331.389 434.94 333.325 446.026C335.261 457.104 341.062 475.825 341.836 477.348C342.61 478.878 351.888 506.383 351.888 506.383L356.484 519.168C356.484 519.168 348.411 522.809 344.926 522.809C341.449 522.809 336.416 500.653 336.036 499.505C335.656 498.358 323.273 450.226 323.273 450.226L312.833 428.927L309.356 423.097L298.128 408.583Z" fill="#67729C"/>
<path d="M220.728 199.038L212.568 256.349L216.885 344.026L221.832 392.731V408.279C221.832 408.279 202 410.879 202.115 408.109C202.229 405.34 201.34 332.565 201.34 332.565C201.34 332.565 197.081 258.644 198.494 255.782C199.906 252.92 204.997 213.374 204.997 213.374L208.603 198.188L220.728 199.038Z" fill="#67729C"/>
<path d="M223.64 429L219.317 495.307L221.833 535.42L223.64 564.072L229.498 572.352C229.498 572.352 209.644 574.158 210.032 574.13C210.419 574.102 202.238 537.679 203.399 531.68C204.561 525.68 201.435 494.733 203.285 491.297C205.134 487.862 205.328 436.862 205.328 436.862L202.682 427.363L223.64 429Z" fill="#67729C"/>
<path d="M198.214 234.001L193.582 289.775V324.158C193.582 324.158 186.233 344.784 175.571 345.932C164.909 347.079 142.869 354.715 141.714 354.715C140.56 354.715 113.873 361.593 113.873 361.593L95.3102 363.888H88.9934L97.6332 327.976L71.3337 303.786L61.6686 287.48L57.804 280.22C57.804 280.22 86.5413 255.768 88.9934 255.003C91.4455 254.238 117.351 239.611 119.287 238.712C121.223 237.812 161.826 233.994 161.826 233.994L187.445 229.411H198.214V234.001Z" fill="#67729C"/>
<path d="M242.247 97.5291C243.781 98.1382 244.878 99.6682 244.627 101.333C244.513 102.098 244.075 102.813 243.48 103.309C242.892 103.805 242.032 103.932 241.688 104.676C241.351 105.406 241.143 106.05 240.49 106.567C239.881 107.049 239.092 107.29 238.339 107.446C236.367 107.864 234.31 107.934 232.302 107.807C231.865 107.779 231.205 107.495 231.148 106.999C231.09 106.489 231.707 106.341 232.094 106.369C233.75 106.475 235.4 106.39 237.034 106.114C237.572 106.022 238.146 105.887 238.612 105.59C239.185 105.229 239.343 104.704 239.601 104.117C239.881 103.479 240.275 103.054 240.899 102.735C241.48 102.438 241.989 102.147 242.297 101.545C242.835 100.49 242.469 99.1228 241.329 98.6695C240.949 98.5207 240.548 98.0532 240.827 97.6495C241.135 97.2315 241.852 97.3732 242.247 97.5291Z" fill="#626725"/>
<path d="M222.801 99.9441C221.704 101.474 221.653 103.684 222.693 105.25C222.951 105.639 222.471 105.823 222.141 105.816C221.704 105.809 221.03 105.667 220.764 105.264C219.538 103.408 219.574 100.964 220.865 99.1508C220.965 99.0162 221.281 98.9878 221.424 98.9878C221.689 98.9808 221.998 99.0445 222.241 99.1508C222.528 99.2783 223.066 99.5758 222.801 99.9441Z" fill="#626725"/>
<path d="M231.555 79.2825C232.021 82.1866 233.563 84.9066 235.893 86.7554C236.223 87.0175 236.445 87.4921 236.015 87.7825C235.606 88.0587 234.896 87.9454 234.531 87.6479C231.842 85.5158 229.999 82.4771 229.454 79.1125C229.297 78.1137 231.412 78.39 231.555 79.2825Z" fill="#626725"/>
<path d="M211.057 84.2402C211.143 83.2981 207.974 83.9215 207.422 83.9923C205.902 84.1977 204.389 84.5235 202.927 84.984C199.922 85.926 197.097 87.4065 194.609 89.3119C194.036 89.751 192.121 88.9365 192.681 88.5115C195.957 86.004 199.736 84.226 203.787 83.3123C205.73 82.8731 207.788 82.5827 209.781 82.6252C211.029 82.6535 213.287 83.1706 213.144 84.7856C213.079 85.4444 210.993 85.0123 211.057 84.2402Z" fill="#626725"/>
<path d="M189.475 90.3961C188.414 90.1907 187.353 89.9923 186.292 89.7869C186.019 89.7373 185.747 89.6594 185.503 89.539C185.388 89.4823 185.13 89.3619 185.08 89.2132C184.944 88.859 185.804 88.9794 185.911 89.0007C186.973 89.2061 188.034 89.4044 189.095 89.6098C189.367 89.6594 189.64 89.7373 189.884 89.8578C189.998 89.9144 190.257 90.0348 190.307 90.1836C190.443 90.5378 189.583 90.4173 189.475 90.3961Z" fill="#626725"/>
<path d="M189.346 93.6673C189.288 93.6744 189.238 93.6815 189.181 93.6886C189.26 93.6744 189.338 93.6532 189.417 93.639C189.331 93.6602 189.245 93.6886 189.159 93.7311C189.224 93.6956 189.295 93.6673 189.36 93.6319C189.252 93.6815 189.159 93.7523 189.066 93.8302C189.116 93.7806 189.166 93.7381 189.217 93.6886C189.145 93.7594 189.08 93.8302 189.03 93.9152C188.966 94.0002 188.88 94.064 188.779 94.0994C188.672 94.1631 188.564 94.1915 188.442 94.1986C188.306 94.2198 188.17 94.2127 188.034 94.1773C187.89 94.1631 187.754 94.1206 187.625 94.0569C187.546 94.0144 187.474 93.9648 187.395 93.9223C187.266 93.8302 187.166 93.7169 187.087 93.5752C187.066 93.5115 187.044 93.4477 187.03 93.384C187.015 93.2494 187.044 93.1219 187.13 93.0156C187.18 92.9377 187.238 92.8598 187.309 92.7961C187.424 92.6898 187.532 92.5765 187.668 92.4986C187.955 92.3286 188.277 92.2152 188.614 92.1869C188.894 92.1656 189.181 92.2081 189.432 92.3286C189.554 92.3781 189.661 92.4561 189.754 92.5481C189.847 92.619 189.919 92.7111 189.969 92.8173C189.991 92.8811 190.012 92.9448 190.027 93.0086C190.041 93.1431 190.012 93.2706 189.926 93.3769C189.876 93.4265 189.826 93.469 189.776 93.5186C189.654 93.6036 189.511 93.6531 189.346 93.6673Z" fill="#626725"/>
<path d="M236.604 78.7155C239.185 77.6672 241.995 77.2776 244.77 77.5326C246.147 77.6601 247.588 77.8938 248.879 78.3967C249.682 78.7084 251.324 79.6647 250.678 80.7342C250.32 81.3222 248.355 80.5926 248.599 80.1818C249.531 78.6518 245.107 78.4605 244.347 78.4463C242.268 78.4038 240.21 78.8218 238.289 79.608C237.858 79.7851 237.213 79.5938 236.826 79.3813C236.582 79.2397 236.166 78.8997 236.604 78.7155Z" fill="#626725"/>
<path d="M202.525 112.333C209.709 113.473 216.929 114.628 224.214 114.763C227.534 114.826 230.932 114.77 234.202 114.16C236.826 113.672 239.407 112.645 240.956 110.392C241.3 109.896 243.315 110.548 242.899 111.157C240.289 114.954 234.976 115.435 230.746 115.69C224.823 116.052 218.879 115.591 213.007 114.84C209.609 114.408 206.231 113.87 202.847 113.332C202.553 113.282 201.671 113.084 201.65 112.687C201.636 112.262 202.231 112.283 202.525 112.333Z" fill="#626725"/>
<path d="M246.218 119.133C244.404 123.794 239.995 126.918 235.227 128.2C229.154 129.822 222.672 128.597 216.778 126.847C216.563 126.783 215.746 126.557 215.839 126.209C215.932 125.877 216.793 126.068 216.979 126.124C222.457 127.747 228.422 128.894 234.044 127.215C238.453 125.898 242.454 122.923 244.146 118.588C244.354 118.049 246.398 118.68 246.218 119.133Z" fill="#626725"/>
<path d="M213.057 75.4278C205.392 73.912 197.484 76.809 192.027 82.1711C190.299 83.8711 184.377 81.4982 186.277 79.6282C193.676 72.3536 203.908 69.8461 214.025 71.8507C217.889 72.6228 216.864 76.1857 213.057 75.4278Z" fill="#626725"/>
<path d="M230.573 67.828C236.424 62.2392 245.157 63.6063 252.134 66.0713C252.815 66.3122 254.593 66.9851 253.969 67.9059C253.41 68.7418 250.549 67.8209 249.94 67.6084C245.064 65.8872 240.246 66.3263 236.438 69.9601C235.234 71.1147 229.519 68.8338 230.573 67.828Z" fill="#626725"/>
<path d="M187.439 141.494C191.848 144.193 196.53 147.968 201.664 149.073C205.586 149.916 204.367 154.251 200.488 153.415C194.2 152.062 188.665 147.699 183.28 144.405C182.068 143.662 181.853 142.025 182.965 141.14C184.27 140.113 186.22 140.75 187.439 141.494Z" fill="#626725"/>
<path d="M193.784 149.06C194.651 149.761 195.519 150.463 196.387 151.164C196.86 151.546 196.731 151.908 196.157 152.014C195.003 152.233 192.88 151.369 191.998 151.702C194.881 150.611 192.113 153.126 192.343 152.821C191.977 153.324 190.435 154.061 189.948 154.479C188.234 155.973 186.944 157.305 184.85 158.297C182.778 159.281 180.627 160.131 178.519 161.045C177.357 161.548 175.651 161.024 174.525 160.62C174.289 160.535 171.729 159.395 172.632 159.005C174.74 158.091 176.891 157.241 178.963 156.257C181.229 155.18 182.584 153.636 184.492 152.063C185.445 151.284 186.915 149.889 188.105 149.492C188.657 149.308 189.252 149.414 189.819 149.464C190.428 149.513 192.701 149.407 191.009 149.726C190.93 150.009 190.858 150.293 190.78 150.576C189.912 149.875 189.044 149.173 188.177 148.472C187.08 147.587 189.166 147.594 189.611 147.615C190.952 147.693 192.716 148.196 193.784 149.06Z" fill="#626725"/>
<path d="M183.509 147.395C184.255 146.736 185.223 146.594 186.184 146.552C186.593 146.552 186.994 146.601 187.388 146.701C187.811 146.771 188.227 146.885 188.622 147.055C188.98 147.182 189.31 147.359 189.618 147.579C189.891 147.735 190.12 147.926 190.321 148.174C190.55 148.514 190.737 148.967 190.35 149.3C189.905 149.683 189.253 149.704 188.701 149.732C188.679 149.732 188.657 149.732 188.636 149.732C188.865 149.718 189.095 149.704 189.324 149.69C189.238 149.697 189.152 149.711 189.059 149.732C189.245 149.683 189.432 149.633 189.618 149.591C189.468 149.633 189.324 149.69 189.188 149.761C189.324 149.683 189.453 149.598 189.59 149.52C189.496 149.576 189.41 149.64 189.324 149.718C188.908 150.086 188.191 150.15 187.675 150.15C187.267 150.15 186.865 150.101 186.471 150.001C186.048 149.931 185.632 149.817 185.237 149.647C185.001 149.534 184.764 149.428 184.528 149.314C184.148 149.116 183.818 148.854 183.538 148.535C183.309 148.167 183.122 147.735 183.509 147.395Z" fill="#626725"/>
<path d="M261.533 140.233C260.3 143.003 254.665 148.096 256.436 150.851C257.611 152.678 260.494 154.336 262.157 155.774C264.236 157.566 266.323 159.351 268.402 161.143C270.732 163.148 266.767 164.061 265.333 163.75C261.677 162.949 259.476 160.173 257.138 157.488C254.844 154.846 251.782 151.8 251.84 148.096C251.883 145.418 256.378 146.254 257.54 147.656C261.383 152.303 262.121 158.423 267.578 161.901C266.237 162.701 264.896 163.495 263.555 164.295C263.276 164.104 262.996 163.92 262.716 163.728C259.225 161.384 264.437 159.797 266.739 161.334C267.018 161.526 267.298 161.71 267.578 161.901C271.098 164.26 265.85 165.754 263.555 164.295C260.996 162.666 258.938 160.562 257.253 158.062C255.374 155.278 254.535 151.701 252.413 149.13C254.313 148.981 256.213 148.839 258.113 148.691C258.077 151.311 259.877 153.21 261.49 155.129C262.544 156.383 264.595 159.634 266.337 160.017C265.312 160.888 264.294 161.752 263.269 162.623C260.838 160.534 258.414 158.451 255.984 156.362C254.091 154.733 250.9 152.912 249.753 150.653C247.681 146.558 253.826 141.898 255.288 138.597C256.4 136.111 262.559 137.931 261.533 140.233Z" fill="#626725"/>
<path d="M211.307 125.373C205.794 123.879 200.854 120.486 197.627 115.811C196.881 114.734 198.824 114.401 199.369 115.194C202.309 119.437 206.668 122.589 211.695 123.949C212.11 124.063 212.67 124.438 212.541 124.934C212.419 125.437 211.709 125.479 211.307 125.373Z" fill="#626725"/>
<path d="M197.441 112.219C197.039 112.453 196.681 112.744 196.366 113.084C196.387 113.062 196.401 113.041 196.423 113.02C195.792 113.721 195.376 114.599 195.261 115.534C195.247 115.648 194.953 115.648 194.903 115.648C194.659 115.648 194.379 115.598 194.15 115.534C193.906 115.471 193.655 115.393 193.44 115.258C193.347 115.201 193.175 115.116 193.189 114.989C193.361 113.572 194.236 112.269 195.484 111.546C195.62 111.469 195.871 111.497 196.007 111.511C196.272 111.539 196.559 111.603 196.817 111.695C196.903 111.731 197.721 112.056 197.441 112.219Z" fill="#626725"/>
<path d="M247.938 109.911C248.304 110.336 248.641 110.775 248.928 111.256C249.214 111.724 249.444 112.22 249.645 112.73C249.709 112.893 249.544 113.063 249.422 113.134C249.229 113.24 248.942 113.254 248.734 113.226C248.462 113.19 248.175 113.112 247.945 112.956C247.766 112.836 247.637 112.701 247.558 112.496C247.53 112.425 247.501 112.361 247.472 112.291C247.494 112.347 247.515 112.397 247.544 112.454C247.2 111.646 246.741 110.895 246.174 110.222C246.217 110.272 246.26 110.329 246.303 110.378C246.282 110.357 246.268 110.336 246.246 110.314C246.131 110.18 245.995 110.031 246.053 109.84C246.103 109.67 246.303 109.564 246.461 109.528C246.712 109.471 246.992 109.486 247.243 109.556C247.479 109.62 247.773 109.719 247.938 109.911Z" fill="#626725"/>
<path d="M212.928 84.0132C213.502 84.9128 213.731 85.9824 213.545 87.0307C213.516 87.1936 213.28 87.2786 213.143 87.3069C212.907 87.3565 212.598 87.3282 212.369 87.2574C212.125 87.1865 211.86 87.0944 211.673 86.9174C211.552 86.7969 211.43 86.6624 211.466 86.4782C211.509 86.2515 211.53 86.0249 211.53 85.7911C211.53 85.8407 211.53 85.8903 211.53 85.9328C211.523 85.3661 211.401 84.8065 211.15 84.2895C211.172 84.339 211.2 84.3886 211.222 84.4382C211.157 84.3036 211.078 84.169 210.992 84.0345C210.906 83.8999 210.878 83.744 210.992 83.6165C211.114 83.482 211.387 83.4395 211.552 83.4395C211.824 83.4395 212.111 83.489 212.369 83.6024C212.577 83.7086 212.806 83.822 212.928 84.0132Z" fill="#626725"/>
<path d="M252.491 80.5863C252.649 80.6429 252.19 80.4942 252.348 80.5438C252.377 80.5509 252.405 80.5579 252.434 80.565C252.463 80.5721 252.491 80.5792 252.52 80.5863C252.678 80.6288 252.212 80.5296 252.377 80.5579C252.434 80.565 252.491 80.5792 252.549 80.5863C252.707 80.6075 252.269 80.565 252.427 80.5721C252.456 80.5721 252.484 80.5792 252.513 80.5792C252.57 80.5792 252.628 80.5863 252.685 80.5863C252.828 80.5863 252.599 80.5863 252.577 80.5863C252.613 80.5792 252.649 80.5863 252.678 80.5792C252.807 80.5721 252.929 80.5509 253.051 80.5296C252.986 80.5438 252.929 80.5509 252.864 80.565C252.965 80.5438 253.065 80.5225 253.165 80.4942C253.373 80.4304 253.624 80.4517 253.832 80.48C254.09 80.5225 254.391 80.6004 254.621 80.7279C254.685 80.7634 254.75 80.8059 254.815 80.8413C254.908 80.905 254.987 80.9829 255.037 81.0821C255.037 81.1175 255.044 81.16 255.044 81.1954C255.008 81.2804 254.944 81.33 254.85 81.3513C253.825 81.6559 252.735 81.5213 251.739 81.1813C251.552 81.1175 251.294 80.99 251.165 80.8413C251.086 80.7492 251.022 80.6075 251.143 80.5154C251.287 80.4092 251.516 80.4021 251.681 80.4092C251.961 80.4234 252.233 80.4942 252.491 80.5863Z" fill="#626725"/>
<path d="M252.262 82.6529C252.585 83.1062 252.857 83.595 253.087 84.105C253.144 84.2325 253.022 84.2891 252.915 84.3175C252.822 84.3387 252.721 84.3458 252.621 84.3317C252.499 84.3317 252.377 84.3175 252.255 84.2962C251.983 84.2466 251.71 84.1758 251.466 84.0554C251.402 84.02 251.337 83.9846 251.273 83.9492C251.18 83.8996 251.101 83.8287 251.043 83.7437C250.821 83.2337 250.542 82.745 250.219 82.2916C250.133 82.1712 250.312 82.1004 250.391 82.0792C250.484 82.0579 250.585 82.0508 250.685 82.065C250.807 82.065 250.929 82.0792 251.051 82.1004C251.323 82.15 251.596 82.2208 251.839 82.3412C251.997 82.4192 252.162 82.4971 252.262 82.6529Z" fill="#626725"/>
<path d="M172.791 101.184C177.688 106.072 181.115 112.319 182.563 119.048C183.28 122.406 183.711 126.132 182.936 129.511C182.255 132.478 180.377 134.908 177.86 136.622C172.525 140.263 164.983 140.766 158.902 138.938C152.729 137.09 147.043 131.947 146.857 125.204C146.656 117.738 153.002 112.298 158.386 108.034C158.781 107.722 159.333 107.772 159.777 107.963C160.007 108.062 160.702 108.558 160.308 108.87C155.805 112.433 150.664 116.64 149.273 122.456C147.81 128.561 151.661 134.554 157.253 137.04C162.681 139.456 169.729 139.208 174.942 136.339C177.401 134.993 179.495 132.953 180.463 130.304C181.61 127.173 181.316 123.61 180.778 120.38C179.602 113.318 176.204 106.695 171.106 101.609C170.776 101.283 170.905 100.922 171.328 100.788C171.787 100.646 172.461 100.851 172.791 101.184Z" fill="#F79E00"/>
<path d="M269.922 92.0672C274.31 97.1176 276.669 103.486 277.974 109.938C278.29 111.497 278.548 113.069 278.763 114.649C279.014 116.491 279.243 118.396 278.827 120.231C278.49 121.711 277.68 123.113 276.239 123.772C274.891 124.388 273.321 124.396 271.873 124.233C268.703 123.864 265.226 122.561 263.598 119.671C263.426 119.366 264.33 119.494 264.416 119.515C264.76 119.572 265.448 119.706 265.642 120.053C266.99 122.441 269.679 123.673 272.403 123.524C275.952 123.333 277.056 120.11 276.97 117.05C276.892 114.075 276.275 111.022 275.615 108.125C274.977 105.32 274.138 102.558 272.991 99.9155C271.7 96.9405 270.016 94.1497 267.879 91.6918C267.649 91.4297 268.653 91.5218 268.696 91.5359C269.112 91.6068 269.635 91.7414 269.922 92.0672Z" fill="#F79E00"/>
</svg>
