<svg width="188" height="67" viewBox="0 0 188 67" fill="none" xmlns="http://www.w3.org/2000/svg">
<g clip-path="url(#clip0_724_3590)">
<path d="M54.8585 9.61838V1.01524H67.207V65.9736H54.8659V57.3966C54.0164 58.2401 53.2552 59.0501 52.4388 59.7965C48.6401 63.2714 44.2053 65.4735 39.1894 66.4103C32.0885 67.739 25.2449 66.8209 18.7397 63.6297C11.9587 60.3041 6.86194 55.202 3.45673 48.3829C1.482 44.434 0.386159 40.2351 0.084618 35.816C-0.294147 30.2883 0.59209 24.9771 2.87571 19.9496C6.88769 11.13 13.448 5.08354 22.4759 1.83636C26.8961 0.246369 31.4743 -0.291094 36.1409 0.156792C43.4661 0.862212 49.6588 3.92277 54.6084 9.49148C54.6562 9.54373 54.6893 9.60718 54.7298 9.66317C54.7739 9.64824 54.8144 9.63331 54.8585 9.61838ZM11.9918 33.4907C12.0396 45.0947 21.2035 54.6757 33.0335 54.7839C44.6098 54.8884 54.1892 45.6023 54.2812 33.6475C54.3694 22.0211 45.154 12.2721 33.2358 12.2236C21.814 12.1751 12.0985 21.3978 11.9918 33.4944V33.4907Z" fill="black" fill-opacity="0.37"/>
<path d="M133.414 1.00773H145.88V16.5456C145.913 16.5494 145.95 16.5568 145.983 16.5606C146.527 15.6947 147.039 14.8064 147.623 13.9703C152.915 6.3861 160.067 1.78034 169.128 0.384424C175.501 -0.600925 181.657 0.324706 187.555 2.98216C187.831 3.10533 188 3.22103 188 3.58308C187.986 8.08806 187.993 12.593 187.993 17.098C187.993 17.1839 187.982 17.2697 187.967 17.4377C183.121 13.5 177.671 11.6674 171.511 12.3803C165.348 13.0895 160.387 16.0268 156.754 21.1141C150.859 29.3664 151.606 40.5449 158.479 48.032C160.998 50.7791 164.043 52.7012 167.577 53.8135C171.088 54.922 174.652 55.0713 178.252 54.336C181.867 53.597 185.059 51.9585 187.964 49.5586C187.975 49.8049 187.989 49.9729 187.989 50.1408C187.989 54.5226 187.982 58.9045 188 63.2863C188 63.708 187.864 63.8946 187.493 64.0626C182.871 66.1341 178.039 67.1194 172.993 66.9739C167.01 66.7984 161.472 65.1226 156.442 61.7933C152.183 58.9754 148.804 55.3176 146.23 50.8798C146.152 50.7455 146.071 50.6148 145.913 50.3536V65.9885H133.418V1.00773H133.414Z" fill="black" fill-opacity="0.37"/>
<path d="M127.875 17.4452C122.852 13.347 117.207 11.5592 110.864 12.4438C105.396 13.2089 100.913 15.8626 97.3976 20.1773C90.9329 28.1123 91.2565 39.9104 98.0007 47.5842C104.984 55.5304 117.902 57.8519 127.872 49.5847C127.886 49.7713 127.908 49.9132 127.908 50.0587C127.908 54.4928 127.908 58.9306 127.916 63.3647C127.916 63.6819 127.842 63.8573 127.53 63.9992C122.484 66.2909 117.211 67.2538 111.691 66.9104C107.451 66.6454 103.421 65.5817 99.6224 63.6707C94.2425 60.961 89.9915 56.9786 86.7996 51.8204C86.5054 51.3464 86.2369 50.8612 85.8802 50.2528V65.9885H73.4141V1.01522H85.8324V16.8293C85.9758 16.6315 86.0457 16.5531 86.0972 16.4636C89.267 10.8351 93.6578 6.48689 99.3429 3.51219C102.778 1.71691 106.429 0.638251 110.276 0.220224C115.464 -0.343366 120.506 0.291139 125.397 2.1312C126.125 2.4074 126.835 2.73212 127.559 3.02324C127.813 3.12775 127.916 3.28078 127.916 3.57564C127.905 8.11421 127.908 12.6565 127.905 17.1951C127.905 17.2474 127.89 17.2959 127.868 17.4377L127.875 17.4452Z" fill="black" fill-opacity="0.37"/>
</g>
<defs>
<clipPath id="clip0_724_3590">
<rect width="188" height="67" fill="white"/>
</clipPath>
</defs>
</svg>
