<svg width="183" height="136" viewBox="0 0 183 136" fill="none" xmlns="http://www.w3.org/2000/svg">
<g clip-path="url(#clip0_724_3585)">
<path d="M183 71.3734C182.605 73.3509 182.368 75.3818 181.778 77.2999C178.054 89.4261 170.091 97.0806 157.778 100.097C155.771 100.59 153.74 100.697 151.68 100.697C137.939 100.679 124.191 100.691 110.45 100.685C108.413 100.685 107.669 99.9548 107.599 97.8942C107.168 85.2454 102.109 74.5801 93.4321 65.6607C88.0606 60.1439 81.7093 55.9633 74.1892 53.8373C73.9118 53.7601 73.6402 53.6414 73.3569 53.5939C72.1587 53.4038 71.592 53.6414 71.5979 55.1497C71.6687 69.2118 71.6392 83.2798 71.6392 97.3419C71.6392 99.8835 71.0844 100.454 68.5875 100.762C65.2584 101.178 61.9292 100.917 58.6001 100.941C56.6463 100.952 55.6842 99.7351 55.6842 97.5616C55.6842 83.2026 55.6606 68.8436 55.7137 54.4787C55.7137 53.0891 55.4008 52.6437 53.9547 52.6556C44.8232 52.7269 35.6975 52.715 26.566 52.6556C25.3442 52.6497 24.7244 53.0832 24.1931 54.1224C20.6692 61.0228 18.2314 68.2735 16.8265 75.9044C15.9234 80.7976 15.4866 85.7264 15.5338 90.6731C15.5575 93.0069 15.4512 95.3882 15.9234 97.7279C16.2835 99.4857 15.0852 100.905 13.2141 100.941C9.82591 101.006 6.43775 100.988 3.05549 100.941C1.5503 100.923 0.552736 99.8242 0.393362 98.1436C-0.0316336 93.672 -0.102466 89.1766 0.133643 84.705C0.782942 72.4839 3.81694 60.8328 9.01134 49.7577C13.1432 40.9511 18.4734 32.9639 25.1258 25.8735C37.0139 13.207 51.3457 4.67944 68.1212 0.279104C68.2334 0.249412 68.316 0.0950141 68.4104 0C68.6052 0 68.8059 0 69.0007 0C69.8979 0.433502 70.925 0.69479 71.1906 1.88247C71.3972 2.7851 71.651 3.65804 71.651 4.61412C71.6333 14.5253 71.6392 24.4364 71.6392 34.3476C71.6392 36.3726 71.775 36.4438 73.8409 35.9806C82.0693 34.1397 88.704 29.7394 93.8453 23.1181C97.989 17.7854 100.58 11.7699 101.153 4.92885C101.312 2.99888 101.141 0.706667 103.756 0H139.397C139.875 0.5879 140.589 0.302857 141.179 0.451317C146.74 1.83496 151.415 4.7032 155.198 8.97883C159.259 13.5692 161.532 18.9434 161.449 25.149C161.396 29.2525 160.54 33.1896 158.25 36.6992C157.477 37.8869 157.595 38.1185 159.059 38.1957C159.944 38.2432 160.794 38.4332 161.62 38.7004C172.759 42.3228 179.205 50.2446 182.073 61.391C182.492 63.0121 182.687 64.6868 182.982 66.3376V71.3734H183ZM130.277 68.5586C130.277 68.5586 130.3 68.5586 130.312 68.5586C130.312 73.4459 130.336 78.3272 130.295 83.2145C130.283 84.3487 130.602 84.7347 131.8 84.7229C138.375 84.6635 144.957 84.7169 151.533 84.6872C157.866 84.6575 162.5 81.6349 165.451 76.1538C168.426 70.6251 168.161 64.9956 164.684 59.7935C161.75 55.3932 157.677 52.8278 152.105 52.9525C145.288 53.1069 138.458 53.0179 131.634 52.9644C130.537 52.9585 130.236 53.2257 130.253 54.348C130.318 59.0869 130.283 63.8198 130.283 68.5586H130.277ZM92.9067 45.1792C101.306 51.0285 109.062 57.3113 113.631 67.0621V19.3116C110.172 30.7311 102.499 38.6588 92.9067 45.1733V45.1792ZM130.017 26.6693C130.017 29.7216 130.017 32.7799 130.017 35.8322C130.017 36.3785 129.923 36.907 130.79 36.9011C132.644 36.8892 134.503 36.9248 136.357 37.0199C139.892 37.2099 142.313 35.4937 144.06 32.5839C145.347 30.4461 145.813 28.1182 145.565 25.6479C145.022 20.2439 139.922 15.9149 135.513 16.384C134.108 16.5324 132.673 16.4493 131.251 16.3959C130.312 16.3602 129.97 16.6453 129.994 17.6489C130.058 20.6537 130.017 23.6585 130.017 26.6633V26.6693ZM36.9607 36.521C37.1319 36.616 37.2086 36.6992 37.2854 36.6992C42.9697 36.7111 48.6599 36.6932 54.3442 36.7348C55.3123 36.7408 55.33 36.2301 55.33 35.5353C55.3182 31.5922 55.2828 27.6491 55.3477 23.706C55.3713 22.3342 54.9699 22.3639 53.9547 22.9281C49.5217 25.3984 45.4134 28.3142 41.6652 31.7347C40.0183 33.2371 38.2947 34.6742 36.9607 36.521Z" fill="black" fill-opacity="0.37"/>
<path d="M44 121.832C44 118.397 44 114.957 44 111.522C44 111.266 44 111.017 44 110.761C44.0245 109.208 44.8564 108.075 46.037 108.002C47.0463 107.935 48.282 109.421 48.3064 110.803C48.337 112.825 48.3493 114.847 48.3064 116.869C48.2759 118.129 48.9793 118.391 49.8051 117.788C54.1116 114.64 59.3967 117.313 61.2258 122.082C63.0303 126.783 61.6295 132.203 57.5555 134.785C55.2432 136.252 52.8576 136.551 50.4964 134.785C49.4626 134.011 48.5022 133.695 47.5296 135.004C47.083 135.601 46.3123 135.875 45.4742 135.473C44.4343 134.974 44 134.17 44 133.049C44.0122 129.31 44 125.571 44 121.826V121.832ZM52.9432 120.73C51.7932 120.675 50.7227 121.095 49.9581 122.069C48.2269 124.28 48.2942 128.074 50.0376 130.254C51.6953 132.325 54.8334 132.136 56.2342 129.883C57.5555 127.751 57.6228 125.48 56.6563 123.251C56.0079 121.759 54.8823 120.663 52.9371 120.736L52.9432 120.73Z" fill="black" fill-opacity="0.37"/>
<path d="M2.00273 123.128C2.00273 119.773 1.99659 116.418 2.00273 113.063C2.00273 111.501 3.23178 109.946 4.38095 110.001C5.49939 110.057 6.63012 111.544 6.63626 113.032C6.64856 115.218 6.63626 117.404 6.64855 119.589C6.64855 119.969 6.50721 120.471 7.06029 120.606C7.57035 120.728 7.99437 120.618 8.41225 120.171C11.2821 117.085 14.2072 114.048 17.0955 110.981C17.9374 110.087 18.7179 109.763 19.8179 110.699C20.9363 111.642 20.9609 112.567 20.033 113.528C17.9497 115.689 15.8665 117.863 13.6726 119.914C11.6139 121.842 11.743 122.54 13.605 124.463C16.0078 126.948 18.386 129.459 20.8257 131.902C21.0408 132.116 21.1883 132.385 21.3849 132.618C22.1223 133.524 22.2883 134.442 21.3726 135.312C20.3894 136.249 19.2955 136.218 18.3922 135.287C16.1369 132.955 13.9614 130.542 11.743 128.173C10.5262 126.875 9.29102 125.589 8.07426 124.291C7.77928 123.979 7.41671 124.028 7.07872 124.102C6.5195 124.224 6.6547 124.72 6.64855 125.1C6.63626 127.64 6.64241 130.181 6.64855 132.722C6.64855 133.279 6.61783 133.812 6.38431 134.357C5.91112 135.471 5.16754 136.175 3.9262 135.906C2.69715 135.642 2.01502 134.785 2.00888 133.493C2.00273 130.034 2.00888 126.581 2.00888 123.122L2.00273 123.128Z" fill="black" fill-opacity="0.37"/>
<path d="M32.2681 117.117C33.576 116.919 34.907 117.549 36.0991 118.343C37.3665 119.184 38.2635 118.956 39.2357 117.911C39.5598 117.561 39.826 116.534 40.6419 117.246C41.4348 117.94 40.7287 118.431 40.2716 118.909C38.6917 120.556 38.657 120.573 39.7507 122.751C42.6385 128.483 37.8642 136.154 31.6199 135.804C30.2947 135.728 29.0505 135.342 27.9799 134.601C26.753 133.755 25.8213 133.912 24.8491 134.992C24.4729 135.407 24.0736 136.446 23.3271 135.786C22.5806 135.132 23.2692 134.449 23.8306 133.988C25.0806 132.967 25.0227 131.799 24.3398 130.503C21.5852 125.29 25.0401 118.664 30.0632 117.339C30.7345 117.164 31.3827 117.147 32.2739 117.111L32.2681 117.117ZM27.9567 126.166C27.9567 126.405 27.9336 126.65 27.9567 126.89C28.003 127.298 27.7426 127.87 28.2345 128.063C28.709 128.25 28.9521 127.689 29.2415 127.403C30.6361 126.008 32.025 124.607 33.385 123.177C33.7264 122.821 34.4324 122.529 34.1662 121.933C33.8942 121.338 33.194 121.239 32.5459 121.198C29.6813 121.023 27.9625 122.879 27.9509 126.166H27.9567ZM36.0933 126.493C36.0239 125.996 36.3306 125.197 35.7519 124.957C35.1616 124.712 34.8491 125.512 34.4672 125.891C33.1882 127.135 31.944 128.413 30.7172 129.703C30.3757 130.065 29.6581 130.363 29.9128 130.935C30.1384 131.443 30.8213 131.618 31.4 131.682C31.9209 131.735 32.4359 131.717 32.9625 131.554C34.9012 130.958 36.0702 129.125 36.0933 126.498V126.493Z" fill="black" fill-opacity="0.37"/>
<path d="M140.994 126.602C140.994 128.858 140.982 131.115 141 133.372C141.011 134.394 140.74 135.209 139.72 135.587C138.706 135.96 138.038 135.428 137.577 134.613C137.099 133.768 136.378 133.638 135.79 134.17C133.993 135.776 132.028 136.491 129.728 135.635C127.297 134.731 125.752 132.864 124.756 130.465C122.946 126.111 124.485 120.6 128.322 118.177C130.552 116.771 132.869 116.435 135.122 118.225C136.061 118.969 136.949 119.229 137.853 118.112C138.291 117.569 138.816 116.949 139.657 117.327C140.596 117.74 140.994 118.526 140.994 119.554C140.994 121.911 140.994 124.262 140.994 126.619V126.602ZM128.593 126.436C128.593 126.879 128.564 127.322 128.593 127.76C128.755 129.703 130.322 131.57 131.987 131.824C133.751 132.09 135.485 130.973 136.159 128.977C136.891 126.797 136.782 124.67 135.422 122.714C134.131 120.854 131.711 120.623 130.074 122.183C128.853 123.353 128.495 124.806 128.582 126.442L128.593 126.436Z" fill="black" fill-opacity="0.37"/>
<path d="M119.977 128.138C119.977 129.781 119.995 131.423 119.977 133.066C119.954 134.659 119.036 135.969 117.973 135.999C116.753 136.03 115.893 134.826 115.887 133.047C115.881 130.071 115.899 127.094 115.887 124.117C115.87 120.548 112.93 118.658 109.915 120.264C108.247 121.153 108.189 122.888 108.131 124.494C108.026 127.211 108.102 129.935 108.102 132.652C108.102 133.01 108.137 133.375 108.09 133.727C107.962 134.826 107.486 135.759 106.429 135.962C105.278 136.185 104.732 135.221 104.302 134.283C104.046 133.727 104 133.115 104 132.492C104.012 125.464 104.012 118.43 104.006 111.402C104.006 110.889 104.035 110.395 104.232 109.901C104.639 108.87 105.133 107.807 106.341 108.03C107.498 108.24 108.108 109.185 108.108 110.494C108.108 112.544 108.102 114.601 108.108 116.651C108.113 118.269 108.514 118.547 109.763 117.707C114.371 114.619 120.198 117.812 119.995 123.982C119.948 125.365 119.989 126.754 119.989 128.138H119.977Z" fill="black" fill-opacity="0.37"/>
<path d="M74.0674 127.694C72.4476 127.694 70.8278 127.754 69.2137 127.677C68.1434 127.624 68.0232 128.19 68.1491 129.035C68.4181 130.8 70.1925 132.223 72.1443 132.383C74.2563 132.554 76.2024 132.135 77.9768 130.942C78.7495 130.422 79.4649 130.34 80.0659 131.161C80.6841 132.005 80.3808 132.708 79.6596 133.316C76.8835 135.672 73.7126 136.676 70.2611 135.518C66.701 134.326 64.5603 131.674 64.0795 127.748C63.5472 123.419 65.7623 119.959 68.5211 118.188C73.083 115.265 78.3889 118.076 80.3636 122.929C80.5467 123.378 80.6498 123.862 80.7814 124.329C81.4339 126.578 80.6269 127.689 78.3431 127.694C76.9179 127.694 75.4869 127.694 74.0617 127.694H74.0674ZM72.2759 124.76C73.1803 124.76 74.0846 124.795 74.9832 124.748C75.4583 124.724 76.1051 125.043 76.3569 124.346C76.5687 123.75 76.2997 123.171 75.962 122.699C74.9775 121.317 73.6897 120.426 71.9668 120.668C70.2611 120.91 69.2022 122.02 68.607 123.673C68.338 124.423 68.441 124.789 69.2881 124.772C70.284 124.748 71.28 124.772 72.2816 124.772L72.2759 124.76Z" fill="black" fill-opacity="0.37"/>
<path d="M88.3636 128.808C88.3636 130.258 88.3636 131.708 88.3636 133.158C88.3513 134.813 87.5231 135.938 86.2686 135.998C85.0758 136.058 84.0314 134.759 84.0129 133.11C83.9881 130.709 84.0067 128.315 84.0067 125.914C84.0067 124.115 84.019 122.316 84.0005 120.517C83.9943 119.909 84.0808 119.331 84.3095 118.766C84.9769 117.099 86.5405 116.762 87.7085 118.14C88.4872 119.061 89.1176 119.103 89.989 118.333C93.2644 115.445 100.118 117.442 100.748 122.478C101.206 126.118 100.878 129.753 100.983 133.381C100.989 133.663 100.841 133.958 100.724 134.235C100.285 135.246 99.6608 136.215 98.3877 135.956C97.2258 135.715 96.6758 134.753 96.6634 133.597C96.6387 131.648 96.6573 129.698 96.6573 127.749C96.6573 126.798 96.6696 125.848 96.6573 124.903C96.5893 121.124 94.6549 119.626 90.8913 120.439C89.5316 120.733 88.4378 122.244 88.3883 124.013C88.3451 125.613 88.376 127.213 88.376 128.808H88.3636Z" fill="black" fill-opacity="0.37"/>
<path d="M162.056 126.136C162.056 123.922 162.103 121.714 162.038 119.507C162.003 118.252 162.729 117.56 163.679 117.157C164.559 116.784 165.19 117.37 165.698 118.145C166.152 118.844 166.778 118.838 167.427 118.27C169.564 116.394 172.014 116.352 174.404 117.483C176.918 118.666 178.069 120.839 178.016 123.674C177.957 126.716 178.016 129.764 177.999 132.812C177.993 134.386 177.078 135.517 175.886 135.487C174.847 135.464 173.867 134.262 173.855 132.83C173.82 129.734 173.855 126.639 173.843 123.543C173.837 121.099 172.734 120.146 169.959 120.152C167.345 120.152 166.235 121.152 166.229 123.549C166.217 126.349 166.217 129.148 166.229 131.948C166.229 132.593 166.217 133.226 165.934 133.812C165.497 134.724 164.96 135.653 163.797 135.452C162.652 135.256 162.103 134.315 162.08 133.203C162.027 130.847 162.062 128.485 162.062 126.13L162.056 126.136Z" fill="black" fill-opacity="0.37"/>
<path d="M151.669 135.517C150.093 135.541 149.662 134.404 149.249 133.38C147.98 130.208 146.781 127.006 145.565 123.816C145.04 122.448 144.55 121.069 144.013 119.708C143.476 118.359 144.285 117.69 145.294 117.175C146.451 116.589 147.041 117.4 147.448 118.264C148.729 120.969 149.314 123.916 150.305 126.722C150.417 127.041 150.518 127.373 150.624 127.698C150.795 128.225 150.966 128.716 151.692 128.681C152.341 128.651 152.471 128.178 152.625 127.716C153.498 125.023 154.366 122.33 155.24 119.637C155.375 119.223 155.511 118.797 155.718 118.412C156.16 117.583 156.644 116.701 157.813 117.116C159.082 117.565 159.637 118.66 159.182 119.862C157.441 124.473 155.67 129.071 153.87 133.664C153.469 134.682 152.926 135.659 151.68 135.517H151.669Z" fill="black" fill-opacity="0.37"/>
</g>
<defs>
<clipPath id="clip0_724_3585">
<rect width="183" height="136" fill="white"/>
</clipPath>
</defs>
</svg>
