<svg width="108" height="122" viewBox="0 0 108 122" fill="none" xmlns="http://www.w3.org/2000/svg">
<g clip-path="url(#clip0_724_3580)">
<path d="M0.0102344 60.72C0.0102344 40.7 0.0102344 20.68 0.000234375 0.65C0.000234375 0.11 0.170234 0 0.680234 0C18.1602 0.01 35.6402 0 53.1202 0.03C54.9302 0.03 56.7502 0.29 58.5602 0.44C59.7802 0.54 61.0102 0.62 62.2202 0.81C63.7902 1.06 65.3502 1.39 66.9102 1.72C67.8002 1.9 68.6802 2.12 69.5602 2.35C70.4102 2.58 71.2702 2.8 72.1002 3.1C73.8502 3.74 75.6102 4.36 77.3102 5.11C78.7202 5.72 80.0802 6.45 81.4202 7.22C82.7702 7.99 84.1002 8.81 85.3602 9.71C86.7002 10.67 88.0002 11.7 89.2402 12.79C90.5602 13.96 91.8302 15.2 93.0502 16.49C93.9502 17.45 94.7702 18.5 95.5602 19.56C96.4902 20.8 97.3902 22.06 98.2302 23.37C98.9302 24.46 99.5202 25.62 100.13 26.77C100.59 27.64 101.02 28.52 101.42 29.42C101.98 30.66 102.54 31.9 103.01 33.17C103.55 34.62 104.02 36.09 104.48 37.57C104.75 38.45 104.96 39.36 105.16 40.26C105.49 41.76 105.83 43.25 106.11 44.76C106.3 45.75 106.41 46.75 106.55 47.75C106.74 49.11 106.98 50.47 107.1 51.84C107.24 53.52 107.34 55.2 107.35 56.89C107.37 59.91 107.38 62.93 107.28 65.95C107.21 68.02 106.98 70.09 106.74 72.15C106.57 73.6 106.31 75.03 106.02 76.46C105.65 78.27 105.22 80.07 104.77 81.86C104.39 83.36 103.97 84.86 103.52 86.34C103.28 87.13 102.95 87.89 102.64 88.66C102.15 89.88 101.67 91.1 101.13 92.3C100.7 93.26 100.19 94.19 99.6902 95.12C99.1202 96.18 98.5702 97.24 97.9302 98.25C97.0402 99.63 96.1302 101.01 95.1302 102.31C94.0502 103.71 92.9002 105.08 91.6902 106.37C89.6702 108.5 87.5202 110.49 85.0402 112.1C83.8102 112.9 82.6302 113.8 81.3402 114.51C79.1702 115.71 76.9802 116.89 74.6202 117.69C73.1802 118.18 71.7702 118.74 70.3102 119.18C69.3002 119.49 68.2402 119.66 67.2002 119.88C65.7902 120.17 64.3802 120.46 62.9702 120.74C62.6402 120.81 62.3102 120.86 61.9702 120.9C60.9302 121.01 59.8902 121.12 58.8502 121.2C49.7302 121.89 40.6002 121.45 31.4702 121.52C21.2202 121.6 10.9702 121.53 0.720234 121.54C0.160234 121.54 -0.00976562 121.42 -0.00976562 120.82C0.0102344 100.8 0.000234375 80.77 0.000234375 60.75L0.0102344 60.72ZM78.1102 32.27C77.8502 32.22 77.6902 32.16 77.5302 32.16C77.1502 32.15 76.7802 32.16 76.4002 32.16C60.3102 32.16 44.2302 32.16 28.1402 32.16C27.2902 32.16 27.2802 32.16 27.2802 33C27.2802 37.95 27.2802 42.89 27.2802 47.84C27.2802 61.37 27.2802 74.89 27.2802 88.42C27.2802 89.43 27.2802 89.43 28.2602 89.42C34.7702 89.42 41.2902 89.42 47.8002 89.42C57.8702 89.42 67.9402 89.42 78.0102 89.42C78.2302 89.42 78.4502 89.39 78.7702 89.36C78.3902 88.92 78.1102 88.57 77.8002 88.24C76.5502 86.87 75.2902 85.52 74.0502 84.15C72.6702 82.62 71.3202 81.06 69.9402 79.53C68.7502 78.2 67.5402 76.87 66.3402 75.54C65.3702 74.47 64.3902 73.4 63.4202 72.32C62.4002 71.18 61.4002 70.02 60.3802 68.88C59.1402 67.49 57.8802 66.12 56.6302 64.73C55.5502 63.53 54.4902 62.31 53.3802 61.13C53.1002 60.83 53.0602 60.65 53.3402 60.34C54.2502 59.34 55.1502 58.32 56.0402 57.31C57.6402 55.49 59.2302 53.66 60.8402 51.84C62.3602 50.11 63.8902 48.39 65.4102 46.66C66.3002 45.64 67.1602 44.59 68.0602 43.59C69.3002 42.2 70.5902 40.84 71.8302 39.44C73.3202 37.76 74.7802 36.05 76.2602 34.35C76.8402 33.69 77.4202 33.03 78.0802 32.27H78.1102Z" fill="black" fill-opacity="0.37"/>
</g>
<defs>
<clipPath id="clip0_724_3580">
<rect width="107.37" height="121.56" fill="white"/>
</clipPath>
</defs>
</svg>
