<svg width="278" height="114" viewBox="0 0 278 114" fill="none" xmlns="http://www.w3.org/2000/svg">
<path d="M21.3981 72.7317C15.6037 72.7317 9.79261 72.566 4.00649 72.7897C-0.32479 72.9554 0.938846 70.0061 0.739325 67.761C0.53149 65.4828 0.639564 63.8342 3.86516 64.0661C8.26295 64.3809 12.694 64.0496 17.1084 64.1821C19.3031 64.2484 20.0597 63.4365 19.8934 61.3074C19.7354 59.2611 19.9599 57.1735 19.7521 55.1355C19.378 51.5649 17.5573 49.237 13.6583 49.1872C10.0753 49.1458 7.81403 51.4986 7.53137 55.5249C7.41498 57.2397 7.99692 59.0043 5.04566 59.1452C1.71199 59.3026 0.456669 58.5321 0.664504 54.9201C1.22982 45.0616 6.41737 39.8258 15.346 40.588C19.0122 40.9028 22.0964 42.4686 23.9171 45.6084C25.2722 47.9446 26.4693 47.8037 28.4479 46.5859C31.7317 44.5645 35.1734 42.8082 38.4821 40.8365C41.0593 39.3039 42.3562 39.3039 42.5474 42.8993C42.7386 46.5196 41.7493 48.8724 38.2411 50.3388C35.0737 51.6643 32.1557 53.5532 29.0797 55.0941C27.6082 55.8314 26.7935 56.6598 26.7104 58.499C26.4776 64.1407 26.3695 64.1324 32.1058 64.1407C33.9015 64.1407 35.7221 64.3312 37.4845 64.0993C41.5664 63.5773 42.8134 65.2922 42.5557 69.2274C42.3728 71.9612 41.3669 72.8062 38.7814 72.7648C32.987 72.6654 27.1842 72.7317 21.3898 72.7317H21.3981Z" fill="black" fill-opacity="0.37"/>
<path d="M21.3813 112.721C15.5868 112.721 9.77577 112.53 3.98965 112.787C0.0407823 112.961 0.838868 110.459 0.714167 108.206C0.581153 105.803 0.59778 104.105 4.0229 104.204C13.1261 104.453 22.2459 104.179 31.349 104.353C34.2837 104.411 35.4226 103.832 35.406 100.576C35.3395 89.5491 33.8347 87.8342 22.8611 87.6934C21.0654 87.6685 19.2697 87.7017 17.4823 87.7762C10.6154 88.0579 8.39575 89.8888 7.76393 96.8312C7.45633 100.178 5.33642 98.9934 3.66542 99.2171C1.66189 99.4905 0.747421 98.8774 0.680914 96.5743C0.365005 85.8625 5.83522 79.7403 16.651 79.2847C20.7744 79.1107 24.9477 79.119 29.0545 79.4918C36.5699 80.1628 40.8679 84.2305 42.0234 91.6202C42.9878 97.7507 42.2978 103.956 42.4557 110.128C42.5139 112.439 41.0591 112.754 39.1803 112.737C33.2445 112.696 27.3087 112.721 21.373 112.721H21.3813Z" fill="black" fill-opacity="0.37"/>
<path d="M21.6562 35.7829C16.2774 35.9237 10.8904 36.1723 6.16836 32.7591C3.78241 31.0359 3.80735 29.9838 6.43439 28.5837C9.01154 27.2085 11.2977 26.1564 14.5233 26.844C19.0874 27.8298 23.8676 27.5316 28.5231 26.96C33.0622 26.4049 35.3816 23.9941 35.8472 19.9099C36.3959 15.1132 34.7498 12.0231 30.7012 10.2668C28.0825 9.13181 26.5112 4.5008 27.9162 2.13145C28.5148 1.12074 29.4542 1.07103 30.4352 1.1953C32.5135 1.45212 34.4672 2.13973 36.2213 3.2747C41.916 6.96128 44.4931 15.9416 42.3649 24.5326C40.7188 31.185 35.7308 35.2113 28.282 35.7498C26.0873 35.9072 23.8759 35.7746 21.6645 35.7746L21.6562 35.7829Z" fill="black" fill-opacity="0.37"/>
<path d="M99.7031 112.248C104.766 102.589 109.746 93.1114 114.684 83.6174C115.382 82.2836 116.455 82.093 117.768 82.1013C122.598 82.1262 127.428 82.1013 132.258 82.1179C133.472 82.1179 134.86 81.8528 134.927 83.7665C134.993 85.7299 133.58 85.4731 132.366 85.4814C130.571 85.4979 128.75 85.6802 126.988 85.4482C123.188 84.9429 121.75 85.995 121.784 90.2201C121.817 94.3209 123.047 95.3647 126.946 95.1411C128.817 95.0334 132.583 93.3682 132.508 96.8228C132.433 100.029 128.775 97.9329 126.788 98.4797C125.267 98.8939 122.648 97.6347 122.299 99.3081C121.675 102.315 121.991 105.571 122.291 108.686C122.374 109.606 123.97 109.266 124.901 109.283C127.802 109.324 130.695 109.299 133.597 109.307C134.736 109.307 135.376 109.771 135.384 111.022C135.393 112.298 134.694 112.712 133.589 112.712C129.033 112.721 124.477 112.688 119.921 112.737C117.477 112.762 118.117 111.014 117.81 109.614C117.386 107.725 119.414 104.95 116.147 104.039C111.616 102.779 108.399 104.155 106.42 107.559C105.057 109.904 104.882 113.963 99.7031 112.265V112.248ZM117.86 87.362C117.569 87.2791 117.278 87.1963 116.987 87.1134C114.817 91.3965 112.639 95.6713 110.411 100.07C115.377 100.855 117.86 99.0707 117.86 94.7186C117.86 92.2664 117.86 89.8224 117.86 87.3702V87.362Z" fill="black" fill-opacity="0.37"/>
<path d="M108.722 10.4574C108.722 16.5216 108.755 22.2379 108.705 27.9624C108.688 29.611 109.354 31.8561 106.361 31.6821C103.601 31.5247 104.066 29.3956 104.058 27.6973C104.016 20.0094 104.016 12.3214 104.075 4.6334C104.083 3.39901 103.426 1.61785 105.438 1.26162C107.184 0.955097 108.938 0.814261 110.085 2.86881C112.562 7.29271 115.214 11.6255 117.792 15.9997C118.972 18.0045 120.136 20.0259 122.164 22.0059C122.164 17.64 122.164 13.2824 122.164 8.91646C122.164 7.1353 122.223 5.34586 122.156 3.5647C122.09 1.81668 122.821 1.09593 124.592 1.12079C126.18 1.14564 126.812 1.82497 126.812 3.35759C126.795 11.8657 126.812 20.3821 126.795 28.8903C126.795 30.1661 126.604 31.3922 124.966 31.6656C122.879 32.0135 121.583 31.0277 120.602 29.3045C117.476 23.8202 114.325 18.3525 111.141 12.9096C110.675 12.1143 110.484 11.0704 108.73 10.4408L108.722 10.4574Z" fill="black" fill-opacity="0.37"/>
<path d="M167.831 48.3421C167.831 55.9141 167.865 62.3594 167.806 68.813C167.79 70.2628 168.621 72.3505 165.736 72.2676C163.201 72.1931 163.849 70.3456 163.841 68.987C163.791 61.0173 163.783 53.0477 163.858 45.078C163.866 43.8851 163.043 42.1122 165.138 41.7146C166.884 41.3832 168.28 41.7891 169.27 43.562C172.545 49.4522 175.945 55.2679 179.337 61.0919C179.919 62.086 180.077 63.453 181.964 64.0495C181.964 57.629 181.914 51.4157 181.997 45.2023C182.014 43.7857 181.116 41.582 183.993 41.6731C186.852 41.7643 185.797 43.9845 185.813 45.368C185.905 53.1968 185.896 61.0339 185.813 68.8627C185.805 70.0474 186.653 71.812 184.516 72.2014C182.746 72.5245 181.432 72.0688 180.443 70.2794C177.051 64.1406 173.493 58.1012 169.985 52.0287C169.452 51.1091 168.912 50.1978 167.815 48.3504L167.831 48.3421Z" fill="black" fill-opacity="0.37"/>
<path d="M222.567 64.7372C222.567 57.9356 222.55 51.3495 222.584 44.7716C222.584 43.355 222.085 41.5904 224.612 41.6401C227.181 41.6898 226.491 43.5372 226.499 44.8876C226.541 52.7247 226.574 60.5618 226.474 68.3989C226.458 69.6913 227.48 71.6133 225.227 72.1849C222.958 72.7648 221.761 71.5138 220.713 69.6084C217.471 63.7016 214.062 57.8776 210.704 52.0371C210.172 51.1175 209.573 50.2311 208.442 48.4168C208.442 56.0136 208.467 62.6246 208.418 69.2356C208.418 70.2297 208.958 71.6381 207.503 72.0772C204.959 72.8394 204.485 71.4227 204.502 69.2273C204.577 61.1168 204.502 52.9981 204.568 44.8876C204.577 43.7112 203.795 41.9466 206.04 41.6815C207.678 41.4827 208.925 41.8638 209.822 43.4544C213.322 49.6926 216.922 55.8811 220.497 62.0778C221.021 62.9808 221.154 64.1738 222.575 64.7454L222.567 64.7372Z" fill="black" fill-opacity="0.37"/>
<path d="M160.208 14.7487C165.761 10.3911 168.139 4.41803 173.393 1.26993C174.133 0.822572 175.53 0.789434 176.76 1.94926C174.607 4.71627 172.67 7.69867 170.217 10.2006C168.355 12.106 168.555 13.5806 169.752 15.5689C172.304 19.8023 174.79 24.0853 177.126 28.443C177.575 29.2797 179.345 30.5969 177.508 31.4916C176.253 32.1047 174.441 32.1544 173.443 30.5306C171.722 27.7222 170.134 24.8309 168.363 22.0474C167.341 20.4402 166.742 17.3584 164.581 18.0625C162.253 18.8164 160.432 21.2272 160.266 24.135C160.183 25.6428 160.225 27.1589 160.233 28.6749C160.241 30.2655 160.241 31.7236 157.947 31.7319C155.827 31.7319 155.453 30.6218 155.461 28.8489C155.503 20.5976 155.494 12.3463 155.461 4.09493C155.461 2.41319 155.627 1.14567 157.839 1.12081C160.058 1.09596 160.258 2.3552 160.233 4.04523C160.191 7.3093 160.216 10.5734 160.216 14.7405L160.208 14.7487Z" fill="black" fill-opacity="0.37"/>
<path d="M54.0375 16.2317C54.0375 12.106 54.0874 7.98862 54.0208 3.86296C53.9876 1.99896 54.5778 1.04625 56.6146 1.12909C59.3747 1.23679 62.1597 0.971687 64.8948 1.25336C74.3554 2.22264 78.271 10.9296 76.6749 19.1644C74.688 29.4288 66.2499 34.1841 55.8165 31.7236C53.813 31.2514 54.0624 29.9176 54.0541 28.6004C54.0208 24.4747 54.0458 20.3573 54.0458 16.2317H54.0375ZM58.2191 16.1157C58.2191 19.2721 58.3106 22.4367 58.1859 25.5848C58.0944 27.7802 59.0338 28.327 61.1122 28.4098C70.7973 28.824 73.1666 19.794 71.9362 13.2078C70.8887 7.61582 67.6548 4.89024 62.5171 4.41802C59.5243 4.14463 57.7536 4.70798 58.1526 8.29515C58.4436 10.8716 58.2108 13.5061 58.2108 16.1157H58.2191Z" fill="black" fill-opacity="0.37"/>
<path d="M135.549 63.3122C135.192 65.9964 136.83 69.4924 132.731 71.2819C127.835 73.411 123.046 73.5353 118.449 70.7931C113.178 67.645 110.759 59.9322 112.405 52.3436C113.743 46.1717 117.875 42.2697 124.177 41.1844C127.494 40.6128 130.47 41.5158 133.213 43.2721C134.053 43.8106 135.35 44.374 134.311 45.8237C133.446 47.0333 132.598 47.257 131.235 46.3042C127.643 43.8023 123.828 43.9266 120.494 46.5942C115.805 50.3388 115.705 55.6077 116.678 60.9346C117.426 65.0188 119.613 67.9847 123.961 68.9622C129.921 70.3043 132.964 67.1811 131.584 61.266C131.027 58.88 129.281 59.8493 127.968 59.7251C126.571 59.5842 125.025 59.8328 125.199 57.7119C125.366 55.7402 126.97 56.5024 128.059 56.3119C128.192 56.287 128.333 56.3119 128.475 56.3119C133.191 56.2124 135.549 58.5514 135.549 63.3288V63.3122Z" fill="black" fill-opacity="0.37"/>
<path d="M254.64 63.4862C254.232 65.9881 255.937 69.3516 252.096 71.1327C247.266 73.3695 242.469 73.5932 237.822 70.9505C232.451 67.9018 230.04 60.5452 231.528 52.6418C232.742 46.2131 236.882 42.2117 243.383 41.1596C246.692 40.6211 249.677 41.5075 252.387 43.3218C253.185 43.8603 254.507 44.3988 253.384 45.8734C252.453 47.0912 251.68 47.2486 250.333 46.3042C246.759 43.7857 242.943 43.9266 239.609 46.5528C234.712 50.405 234.895 55.8811 235.86 61.2825C236.6 65.3916 239.044 68.1835 243.383 69.0368C249.278 70.1966 252.478 66.6923 250.732 61.0174C250.034 58.7723 248.255 59.9239 246.941 59.7168C245.728 59.5262 244.339 59.841 244.29 57.977C244.24 56.0136 245.703 56.3616 246.892 56.2953C247.033 56.2953 247.166 56.2953 247.307 56.2953C252.196 56.1241 254.64 58.521 254.64 63.4862Z" fill="black" fill-opacity="0.37"/>
<path d="M76.4751 97.5684C76.4751 101.827 76.4585 106.085 76.4834 110.343C76.4917 111.71 76.3421 112.712 74.5464 112.754C72.6426 112.804 72.202 111.934 72.2519 110.26C72.335 107.377 72.094 104.478 72.3267 101.611C72.5429 98.9436 71.4372 98.4714 69.0097 98.4466C58.3103 98.3306 58.3353 98.256 58.1607 108.96C58.1358 110.509 59.1001 112.886 55.9493 112.712C53.1394 112.555 54.1703 110.368 54.1536 108.976C54.0622 101.015 54.1121 93.0451 54.1038 85.0837C54.1038 83.5262 53.9375 82.0019 56.3318 82.1179C58.5514 82.2256 58.0942 83.7582 58.1773 85.0589C58.1856 85.1997 58.1607 85.3323 58.1773 85.4731C58.5514 88.5466 56.6477 93.1611 59.0419 94.3623C62.1511 95.9198 66.5572 94.9008 70.4063 95.0168C72.2519 95.0748 72.2602 93.8487 72.2602 92.548C72.2519 89.7976 72.3018 87.0554 72.2519 84.305C72.2187 82.7558 72.784 82.1013 74.4134 82.1013C76.126 82.1013 76.4917 82.9463 76.4751 84.4044C76.4335 88.7952 76.4585 93.1942 76.4585 97.585L76.4751 97.5684Z" fill="black" fill-opacity="0.37"/>
<path d="M89.4194 1.18701C91.2484 0.830775 92.2875 1.71721 92.8445 3.34925C95.7542 11.8905 98.6639 20.4318 101.557 28.9814C101.898 29.9838 102.596 31.2513 100.884 31.5827C99.6116 31.8312 98.0487 32.2454 97.3421 30.4891C96.9846 29.6027 96.6355 28.6914 96.4941 27.7553C95.8041 23.3894 93.2852 22.2378 88.9954 22.4532C85.587 22.6189 83.5003 23.2982 82.9516 26.8854C82.7438 28.2109 82.2367 29.553 81.5716 30.7211C80.8483 31.9803 79.435 31.9306 78.2379 31.5413C76.8828 31.1022 77.4564 30.0501 77.7474 29.1553C80.6155 20.4567 83.5252 11.7745 86.3019 3.05101C86.8589 1.31127 87.9396 1.05446 89.4277 1.18701H89.4194ZM89.6023 5.41208C89.1866 6.24881 89.0287 6.47249 88.9456 6.72931C88.2057 9.07381 87.4658 11.41 86.7591 13.7628C85.1131 19.2471 85.5953 19.7608 91.3398 19.3134C93.1937 19.1726 93.784 18.7169 93.1438 16.8363C91.9301 13.2575 90.8909 9.62059 89.594 5.41208H89.6023Z" fill="black" fill-opacity="0.37"/>
<path d="M141.619 32.4195C138.319 32.552 135.401 31.3922 132.641 29.7601C131.286 28.9565 130.629 27.8381 131.618 26.3387C132.699 24.7066 133.863 25.2451 135.06 26.2641C137.288 28.1695 139.957 28.6832 142.791 28.4429C145.036 28.2524 146.873 27.2417 147.389 24.9552C147.921 22.5444 146.832 20.7218 144.579 19.62C141.852 18.2945 139.092 17.0435 136.423 15.6186C130.845 12.6362 130.355 6.43939 135.334 2.50427C139.042 -0.428424 146.15 -0.27102 149.633 2.81908C150.506 3.59782 151.296 4.34342 150.257 5.55295C149.459 6.4891 148.619 7.05244 147.464 6.08316C145.543 4.46769 143.282 4.11146 140.863 4.31857C139.084 4.46769 137.646 5.13873 137.03 6.92817C136.365 8.86674 137.005 10.4822 138.61 11.6255C139.832 12.4953 141.187 13.1829 142.534 13.854C143.39 14.2848 144.338 14.525 145.227 14.8895C150.481 17.0766 153.2 20.7135 152.543 24.6569C151.836 28.8654 146.907 32.3615 141.628 32.4029L141.619 32.4195Z" fill="black" fill-opacity="0.37"/>
<path d="M160.598 97.2371C160.598 93.1114 160.598 88.994 160.598 84.8684C160.598 83.4435 160.54 82.0268 162.635 82.1097C166.493 82.2588 170.375 81.7369 174.191 82.6399C178.846 83.7334 181.008 86.3927 181.033 91.09C181.066 95.8453 178.68 99.1508 174.182 100.095C172.046 100.543 169.793 100.609 167.598 100.584C165.503 100.559 164.556 101.205 164.689 103.417C164.83 105.745 164.68 108.09 164.73 110.426C164.763 111.876 164.414 112.754 162.685 112.746C160.997 112.737 160.507 111.909 160.598 110.443C160.607 110.302 160.598 110.169 160.598 110.028C160.598 105.77 160.598 101.512 160.598 97.2454V97.2371ZM164.464 91.4297C166.135 93.012 161.937 97.6762 167.956 97.527C174.249 97.3696 177.059 95.5056 176.959 91.032C176.868 86.9892 174.324 85.6223 168.197 85.2743C162.76 84.9678 165.271 88.8035 164.456 91.4297H164.464Z" fill="black" fill-opacity="0.37"/>
<path d="M259.828 56.7426C259.828 52.7578 259.977 48.773 259.77 44.8047C259.637 42.1951 260.626 41.4909 263.103 41.6069C266.819 41.7809 270.552 41.5986 274.276 41.6815C275.59 41.7146 277.677 40.8696 277.56 43.4543C277.444 46.0308 275.332 44.8876 274.077 44.9787C271.608 45.1527 269.106 45.1527 266.636 44.9953C264.442 44.8544 263.627 45.6746 263.843 47.812C263.968 49.0381 263.968 50.289 263.843 51.5151C263.619 53.7768 264.375 54.8123 266.828 54.6135C269.022 54.4313 271.242 54.5887 273.445 54.5804C274.667 54.5804 275.582 54.8041 275.532 56.3781C275.482 57.9853 274.468 58.0433 273.295 58.0433C270.951 58.0433 268.598 58.1178 266.262 58.0267C264.533 57.9604 263.935 58.5155 263.81 60.3381C263.211 68.8048 263.136 68.8048 271.674 68.8048C273.196 68.8048 274.709 68.8214 276.23 68.8048C277.377 68.7882 277.993 69.2107 278.009 70.47C278.026 71.6795 277.56 72.2511 276.346 72.2511C271.516 72.2511 266.686 72.218 261.856 72.2677C259.761 72.2925 259.828 70.9505 259.836 69.5173C259.853 65.259 259.836 61.0091 259.836 56.7509L259.828 56.7426Z" fill="black" fill-opacity="0.37"/>
<path d="M89.4766 42.0377C92.486 41.0188 93.8993 42.0957 94.8969 44.5562C96.4349 48.3422 98.2638 52.0122 99.9847 55.7734C105.114 52.1365 103.019 43.123 111.382 42.1703C109.129 46.8179 107.201 51.656 104.54 56.0633C101.805 60.5784 102.603 65.3336 102.47 70.0641C102.429 71.5967 101.963 72.3174 100.326 72.276C98.9871 72.2346 98.056 71.7872 98.2888 70.3954C100.001 60.1724 94.0157 52.3022 90.1583 43.7858C89.9338 43.297 89.7675 42.7834 89.4766 42.046V42.0377Z" fill="black" fill-opacity="0.37"/>
<path d="M54.1117 56.784C54.1117 52.6583 54.2114 48.5327 54.0701 44.4153C53.9953 42.2034 54.8433 41.5572 56.9632 41.6234C61.1033 41.7477 65.2516 41.6566 69.4 41.6566C70.6554 41.6566 72.0021 41.4992 71.9938 43.3963C71.9855 45.3846 70.5057 45.0035 69.3335 45.0201C66.5735 45.0532 63.8051 45.1443 61.0451 44.9952C58.9002 44.8792 58.2185 45.6165 58.1354 47.7871C57.8527 55.1437 57.7613 55.1354 65.1602 55.1437C66.1245 55.1437 67.0972 55.1602 68.0616 55.152C69.1756 55.152 69.9155 55.5248 69.9487 56.7923C69.9903 58.2089 69.3003 58.7806 67.9286 58.7226C67.2385 58.6894 66.5485 58.7226 65.8585 58.7226C58.1853 58.764 58.3266 58.7723 58.0938 66.5762C58.0356 68.4651 59.9726 72.0108 56.19 72.0771C52.2412 72.1434 54.4193 68.5562 54.2114 66.6591C53.854 63.395 54.1117 60.0729 54.1117 56.7757V56.784Z" fill="black" fill-opacity="0.37"/>
<path d="M1.31358 25.1872C-2.31106 15.3121 1.86227 4.3849 10.317 1.78358C11.8882 1.30308 13.8252 0.043846 15.039 2.29722C16.2694 4.58373 14.9808 9.43842 12.9357 10.0598C9.06998 11.2361 7.42393 13.9286 7.0914 17.6732C6.63416 22.8427 6.6591 22.8427 1.31358 25.1872Z" fill="black" fill-opacity="0.37"/>
<path d="M79.4013 55.2265C79.4013 58.5237 79.5675 61.8209 79.3514 65.1016C79.1685 67.8769 79.9416 69.1361 82.9594 68.8379C85.4202 68.5976 87.9225 68.7799 90.3999 68.7965C91.6469 68.7965 92.9937 68.6639 92.9189 70.5859C92.844 72.5079 91.4308 72.1765 90.2419 72.2428C89.9676 72.2594 89.6933 72.2511 89.4106 72.2428C84.8715 72.1434 78.9523 73.734 76.184 71.4806C73.2743 69.1195 75.4607 62.9973 75.3028 58.5154C75.1365 53.7187 75.3028 48.9055 75.2529 44.1088C75.2363 42.4767 75.6104 41.5489 77.5391 41.5986C79.4345 41.6483 79.393 42.8247 79.393 44.0922C79.393 47.7954 79.393 51.5068 79.393 55.2099L79.4013 55.2265Z" fill="black" fill-opacity="0.37"/>
<path d="M139.84 97.1377C139.84 93.0203 139.849 88.9029 139.84 84.7856C139.84 83.3358 139.807 82.0848 141.91 82.0683C144.055 82.0517 143.955 83.3524 143.955 84.7773C143.947 91.6368 144.155 98.5046 143.864 105.356C143.723 108.769 144.953 109.622 148.07 109.324C150.39 109.1 152.759 109.299 155.104 109.283C156.326 109.274 157.29 109.473 157.282 111.022C157.282 112.613 156.234 112.712 155.054 112.712C150.781 112.712 146.499 112.63 142.226 112.746C140.015 112.804 139.807 111.611 139.832 109.904C139.89 105.654 139.849 101.396 139.849 97.146L139.84 97.1377Z" fill="black" fill-opacity="0.37"/>
<path d="M147.015 58.6564C147.015 55.3592 146.782 52.0454 147.082 48.773C147.373 45.5504 146.117 44.8296 143.116 44.9125C141.412 44.9539 138.136 46.4119 138.07 43.5207C137.987 40.1075 141.42 41.8555 143.232 41.7478C147.913 41.4827 152.61 41.6152 157.307 41.6898C158.512 41.7064 160.283 40.9773 160.433 43.239C160.591 45.5752 158.812 44.9622 157.573 45.0202C153.311 45.2024 151.18 47.4144 151.18 51.656C151.18 57.5628 151.188 63.4614 151.172 69.3682C151.172 70.6771 151.554 72.1849 149.326 72.2843C147.023 72.3837 146.99 71.0085 147.007 69.3765C147.048 65.8059 147.015 62.2353 147.015 58.6647V58.6564Z" fill="black" fill-opacity="0.37"/>
<path d="M93.001 94.4203C93.001 91.1231 93.0176 87.8342 93.001 84.537C93.001 83.1949 93.1008 82.1428 94.9214 82.0765C96.9166 82.0019 97.1577 83.054 97.1494 84.6364C97.0995 91.3634 97.2575 98.0903 97.0413 104.809C96.9249 108.396 95.5782 111.569 91.6958 112.812C87.9963 113.996 84.5962 113.408 81.728 110.716C80.905 109.945 79.5915 109.042 80.9881 107.667C82.0938 106.582 83.0249 106.739 84.114 107.883C85.7351 109.581 87.7553 110.368 90.1079 109.349C92.7267 108.214 92.9511 105.861 92.9844 103.475C93.0259 100.46 92.9927 97.4359 93.001 94.4203Z" fill="black" fill-opacity="0.37"/>
<path d="M197.202 57.0657C197.202 61.1748 197.21 65.2922 197.202 69.4013C197.202 70.7516 197.443 72.2014 195.281 72.2677C193.186 72.3257 193.203 71.0582 193.203 69.6001C193.219 61.2411 193.203 52.8738 193.219 44.5148C193.219 43.2224 192.829 41.6815 195.073 41.6483C197.534 41.6069 197.177 43.2804 197.185 44.7384C197.21 48.8475 197.193 52.9649 197.193 57.074L197.202 57.0657Z" fill="black" fill-opacity="0.37"/>
</svg>
