<svg width="204" height="158" viewBox="0 0 204 158" fill="none" xmlns="http://www.w3.org/2000/svg">
<path d="M134.863 71.4822C135.058 74.8452 135.093 78.217 135.111 81.5889C134.057 81.5977 132.994 81.7216 131.958 81.5889C130.328 81.3765 129.248 82.1553 128.212 83.235C127.087 84.4121 125.909 85.536 124.571 86.8547C124.571 86.2883 124.571 85.9785 124.571 85.6688C124.571 82.5712 124.563 79.4737 124.58 76.3762C124.58 75.8098 124.439 75.6063 123.854 75.6328C122.889 75.6771 121.923 75.6682 120.958 75.6328C120.444 75.6151 120.329 75.8098 120.329 76.2877C120.347 82.4208 120.338 88.5627 120.329 94.6958C120.329 95.1383 120.444 95.3153 120.914 95.2976C121.852 95.2622 122.791 95.2356 123.721 95.2976C124.43 95.3507 124.669 95.094 124.571 94.4214C124.536 94.1648 124.571 93.8993 124.571 93.6338V89.607C124.881 89.5185 124.943 89.6778 125.05 89.7663C126.812 91.3416 128.176 93.2975 129.93 94.8905C130.24 95.1737 130.505 95.2976 130.904 95.2887C132.427 95.2887 133.942 95.2976 135.465 95.3064C135.563 99.1562 135.634 103.006 135.775 106.856C135.802 107.67 135.625 108.068 134.792 108.351C126.706 111.13 118.637 113.953 110.578 116.794C109.984 117.007 109.71 116.83 109.355 116.396C104.573 110.422 99.7811 104.457 94.9807 98.4924C94.8567 98.342 94.6973 98.2181 94.5467 98.0765C94.529 98.0322 94.5025 97.988 94.4847 97.9437C94.4582 97.9703 94.4316 97.9968 94.405 98.0234C94.4405 98.0499 94.4759 98.0765 94.5202 98.103C94.901 100.041 95.3616 101.97 95.6627 103.926C96.4952 109.289 96.5395 114.679 95.9993 120.086C95.4856 125.29 94.2722 130.326 92.0491 135.078C88.2318 143.22 82.094 149.017 73.99 152.805C68.7291 155.256 63.1758 156.646 57.4277 157.372C53.389 157.885 49.3326 158 45.2673 158C30.5561 158 15.8449 158 1.13368 158C0.383796 158 0.00885684 157.619 0.00885684 156.858C0.0177137 127.91 0.0265705 98.9526 0 69.9865C0 69.1192 0.177137 68.8626 1.09825 68.8626C12.3907 68.898 23.6743 68.8891 34.9668 68.8891C35.2856 68.8891 35.6045 68.9157 35.9322 68.9245C35.941 69.5086 36.003 70.0927 35.9499 70.668C35.8879 71.3494 36.1625 71.4822 36.7913 71.4822C40.0595 71.4556 43.3276 71.4025 46.587 71.4822C49.3149 71.553 51.6974 70.7388 53.8673 69.1546C55.3552 69.3051 56.8432 69.4644 58.3311 69.6148C58.34 69.9954 58.3931 70.3759 58.3577 70.7476C58.3046 71.3229 58.5171 71.5087 59.084 71.4822C59.9519 71.4379 60.8376 71.4114 61.6967 71.4822C62.5381 71.5618 62.9455 71.314 62.8481 70.4379C67.3474 71.2432 71.5987 72.8274 75.7702 74.6859C74.9643 73.6239 74.1494 72.5707 73.3435 71.5087C73.8129 71.491 74.2823 71.4291 74.7428 71.4733C75.2831 71.5176 75.5577 71.3494 75.7791 70.8361C76.4611 69.2431 77.205 67.6855 77.9402 66.119C79.0827 63.6587 80.2252 61.2073 81.3766 58.747C81.6689 58.1275 81.6512 57.7735 80.7921 57.8266C79.8267 57.8885 78.8613 57.8885 77.8959 57.8266C77.1696 57.7823 76.8596 58.1186 76.6294 58.7381C76.1865 59.9329 75.6817 61.1011 75.1857 62.2781C74.4063 64.1455 73.618 66.0217 72.7678 68.0395C72.6438 67.8448 72.5375 67.7298 72.4932 67.597C71.519 64.7385 70.155 62.0392 69.0656 59.2249C68.5254 57.8177 68.4811 57.8354 66.9843 57.8354C66.134 57.8354 65.2837 57.8443 64.4423 57.8354C63.7869 57.8266 63.7249 58.0213 63.9995 58.6142C64.4246 59.5346 65.1332 60.34 65.2306 61.402C64.3449 60.5081 63.6098 59.4904 62.8481 58.4903C62.8304 58.039 62.6444 57.862 62.1573 57.8708C60.9528 57.8974 59.7482 57.8531 58.5348 57.8443H62.0953C61.8916 57.092 61.245 56.7734 61.0325 56.1716C62.7507 55.738 63.3175 54.6583 63.0961 52.9237C62.9721 51.9413 61.617 50.9678 60.2442 51.0917C59.27 51.1802 58.6765 51.844 58.0123 52.4281C55.6564 49.5341 53.3093 46.6313 50.9445 43.7373C50.4131 43.0824 51.1128 43.1532 51.3519 43.0736C55.3641 41.6576 59.3851 40.2593 63.4061 38.861C66.1074 37.9229 68.7999 36.9848 71.4924 36.0378C71.9087 35.8874 72.1832 35.8431 72.5198 36.2856C77.7719 43.1444 83.0506 49.9855 88.3204 56.8265C88.4444 56.9858 88.5329 57.1717 88.6392 57.3487C85.5482 57.6584 83.0771 58.9594 81.6866 61.8533C80.9072 63.4817 80.9338 65.2518 81.5272 66.8979C82.5192 69.6502 84.6891 71.0928 87.4701 71.7742C88.9404 72.1282 90.4106 71.9778 91.8808 71.9601C94.2013 71.9335 96.2384 71.0308 98.054 69.6148C99.4711 71.1547 100.658 72.8805 101.942 74.5266C103.758 76.8718 105.547 79.2348 107.345 81.5889C106.911 81.5977 106.468 81.6331 106.034 81.6154C105.6 81.5889 105.414 81.7039 105.414 82.1907C105.432 86.3679 105.432 90.5363 105.414 94.7135C105.414 95.1737 105.547 95.3241 106.007 95.3064C107.088 95.2799 108.169 95.271 109.249 95.3064C109.816 95.3241 109.993 95.156 109.984 94.5807C109.949 92.3328 109.984 90.0849 109.966 87.837C109.966 87.1025 110.126 86.421 110.498 85.7927C110.799 85.8989 110.914 86.1821 111.082 86.4122C112.845 88.6866 114.599 90.9788 116.361 93.2532C116.485 93.4125 116.565 93.6603 116.919 93.678C116.831 91.439 116.742 89.2442 116.653 87.0405C117.442 86.7839 118.239 86.5272 118.823 86.3325C118.956 84.2793 117.973 82.7925 116.467 81.5977C116.352 78.3763 116.237 75.1549 116.122 71.9335C116.113 71.6415 116.14 71.3583 116.149 71.0662C116.901 71.2963 117.645 71.5618 118.407 71.7565C119.886 72.1371 121.41 72.0043 122.906 71.9689C125.014 71.9158 126.874 71.2167 128.3 69.5706C129.266 68.4555 129.292 66.3669 128.424 65.2075C127.769 64.3313 126.892 63.8623 125.891 63.6145C124.43 63.2428 122.924 63.0746 121.436 62.8711C120.595 62.756 119.718 62.7826 118.912 62.4286C118.522 62.2604 118.159 62.0657 118.079 61.6409C117.982 61.1365 118.442 60.9418 118.77 60.7471C120.258 59.8532 123.464 60.0922 124.66 61.4285C125.466 62.3312 126.051 61.9772 126.724 61.5436C127.034 61.34 127.308 61.0834 127.662 60.9772C127.999 60.871 128.008 60.5966 127.893 60.4373C127.689 60.1364 127.618 59.7647 127.29 59.5169C126.051 58.5788 124.766 57.8089 123.163 57.6053C120.533 57.2602 118 57.2779 115.688 58.7912C115.582 56.2247 115.475 53.6582 115.378 51.0917C115.095 43.3302 114.811 35.5776 114.528 27.8162C114.457 25.8072 114.413 23.7894 114.324 21.7804C114.306 21.3291 114.421 21.1167 114.873 20.9662C123.119 18.1165 131.356 15.2491 139.584 12.3552C140.151 12.1516 140.354 12.3817 140.638 12.7623C153.719 30.3384 166.819 47.9057 179.909 65.473C181.06 67.0218 182.212 68.5705 183.372 70.1104C183.487 70.2609 183.54 70.491 183.868 70.5087C183.868 69.429 183.886 68.367 183.868 67.305C183.735 59.9152 183.602 52.5343 183.461 45.1445C183.345 39.215 183.23 33.2943 183.115 27.3648C183 21.3822 182.885 15.3996 182.761 9.4081C182.681 5.61144 182.601 1.82363 182.486 -1.97303C182.469 -2.45093 182.61 -2.63678 183.035 -2.77838C189.899 -5.15019 196.763 -7.54854 203.619 -9.9292C203.698 -9.95575 203.787 -9.9646 203.955 -10C203.973 -9.67255 204 -9.37165 204 -9.07075C203.991 -4.86699 204.026 -0.654375 203.946 3.54939C203.814 11.0896 203.867 18.621 203.822 26.1612C203.76 36.206 203.707 46.2596 203.645 56.3044C203.592 65.4465 203.521 74.5885 203.486 83.7306C203.486 84.2881 203.318 84.5271 202.777 84.713C194.647 87.5273 186.516 90.3681 178.394 93.209C178.014 93.3417 177.695 93.4922 177.349 93.0231C173.187 87.4565 168.997 81.9075 164.817 76.3497C164.764 76.2877 164.755 76.1904 164.719 76.1107C165.18 75.7744 165.711 75.5089 166.083 75.093C167.279 73.7566 168.023 72.1725 168.041 70.3582C168.085 66.4465 168.041 62.5348 168.067 58.6231C168.067 58.1098 167.943 57.8885 167.385 57.9151C166.367 57.9505 165.339 57.9593 164.321 57.9151C163.727 57.8885 163.577 58.1275 163.586 58.6762C163.612 60.8621 163.657 63.0569 163.568 65.2429C163.524 66.3669 163.01 67.305 162.027 68.0395C161.053 68.7741 160.034 68.6767 158.971 68.6502C158.095 67.4643 157.209 66.2784 156.332 65.0836C156.323 62.9065 156.288 60.7294 156.305 58.5523C156.305 58.0213 156.164 57.8266 155.623 57.8531C154.924 57.8885 154.224 57.862 153.533 57.862C152.612 57.862 152.104 58.2927 152.01 59.1541C151.709 59.0036 151.558 58.7027 151.372 58.4461C145.908 51.1891 140.452 43.932 134.987 36.675C134.783 36.4007 134.562 36.1352 134.252 35.7458C134.048 36.4184 134.119 36.9671 134.137 37.4981C134.234 42.1709 134.341 46.8349 134.447 51.5077C134.447 51.5608 134.411 51.6139 134.394 51.6758C133.163 50.7997 131.001 50.8882 130.302 52.8175C129.682 54.5255 130.798 56.1274 132.374 56.207C133.171 56.2424 133.818 55.9061 134.535 55.7468C134.615 56.4637 134.394 57.2071 134.748 57.8974C133.614 57.9062 132.472 57.9416 131.338 57.9239C130.869 57.9239 130.665 58.0301 130.665 58.5523C130.683 62.6675 130.683 66.7917 130.665 70.9069C130.665 71.4468 130.886 71.5264 131.338 71.5176C132.507 71.4999 133.676 71.5176 134.845 71.5264L134.863 71.4822ZM57.3126 87.5804C53.9824 86.6334 50.5814 86.129 47.1184 86.1201C38.8992 86.1024 30.6889 86.1201 22.4698 86.0936C21.7258 86.0936 21.5575 86.3148 21.5575 87.0317C21.5753 104.617 21.5753 122.21 21.5575 139.795C21.5575 140.539 21.7701 140.707 22.4875 140.707C30.4144 140.68 38.3324 140.707 46.2593 140.68C49.3326 140.672 52.3793 140.388 55.3818 139.672C63.8135 137.645 69.845 132.813 72.8652 124.556C74.5657 119.918 74.7871 115.104 74.4063 110.219C73.8926 103.634 71.7935 97.749 66.9754 93.0231C66.9931 91.9434 67.5422 91.0053 67.8345 89.9964C68.3836 88.0583 69.0922 86.1644 69.721 84.2528C70.0576 83.2173 70.3499 82.173 70.713 80.9517C71.4835 83.3766 72.2098 85.6157 72.9095 87.8459C73.5915 90.0141 74.3709 92.147 74.9554 94.3418C75.0351 94.6427 74.9997 95.3064 75.6994 95.2976C77.453 95.271 79.2067 95.2976 80.9604 95.2976C81.1641 95.2976 81.3058 95.2976 81.4032 95.0144C82.2977 92.3505 83.1834 89.6778 84.1665 87.0405C84.7599 85.4475 85.3091 83.8368 85.9113 82.2438C86.5667 80.5092 87.0893 78.7126 87.7978 76.9957C87.975 76.5621 87.8864 76.3408 87.3727 76.3497C86.4959 76.3674 85.619 76.3497 84.7422 76.3497C82.9974 76.3497 83.0329 76.3585 82.3774 77.9692C82.2092 78.3763 82.156 78.7834 82.0232 79.1817C81.0932 82.0491 80.2164 84.9342 79.189 87.7662C78.8613 88.6601 78.7904 89.6867 78.1262 90.4655C77.8073 89.6867 77.6833 88.8813 77.4176 88.1468C76.7976 86.4741 76.3548 84.7572 75.7968 83.0668C75.1237 81.0579 74.5126 79.0224 73.8395 77.0046C73.7332 76.6948 73.6889 76.3054 73.122 76.332C71.4835 76.3851 69.845 76.3585 68.2065 76.3497C67.7902 76.3497 67.5954 76.4913 67.4891 76.9249C67.1437 78.4117 66.63 79.8543 66.1783 81.3057C65.6203 83.058 65.1509 84.8457 64.5221 86.5803C64.0704 87.8193 63.8578 89.138 63.2378 90.377C63.0695 90.1292 62.9013 89.961 62.8304 89.7575C61.927 87.0405 61.0413 84.3147 60.1556 81.5889C59.6597 80.049 59.1991 78.5002 58.7031 76.9692C58.6057 76.6683 58.5525 76.3231 58.03 76.3408C56.6838 76.3851 55.3375 76.3674 53.9913 76.3497C53.5484 76.3497 53.3979 76.5178 53.5573 76.9338C54.3898 79.2171 55.2401 81.4915 56.0549 83.7749C56.4978 85.0316 56.8963 86.306 57.3126 87.5804ZM95.0959 81.1287C94.1482 81.1818 93.2271 81.1464 92.2705 81.3942C89.3301 82.1464 87.2133 83.6598 86.4427 86.7396C85.8493 89.1026 86.2745 91.1823 87.9041 93.0408C89.3655 94.7135 91.2697 95.5454 93.3776 95.7401C94.9099 95.8817 96.4864 95.9525 98.0363 95.51C99.6483 95.0498 101.189 94.4922 102.305 93.1913C104.094 91.085 104.351 88.6601 103.625 86.0847C103.147 84.3678 102.013 83.173 100.49 82.3234C98.8069 81.3853 97.0001 81.049 95.0959 81.1464V81.1287Z" fill="#7D7B7B" fill-opacity="0.37"/>
<path d="M53.5141 68.668C51.3951 70.2523 49.0599 71.0665 46.4047 70.9957C43.2219 70.9161 40.0304 70.9603 36.8389 70.9957C36.2249 70.9957 35.9481 70.8718 36.0173 70.1815C36.0692 69.6062 36.0086 69.0221 36 68.4379C36.0173 64.7826 36.0346 61.1361 36.0432 57.4808C36.0432 55.87 36.0605 54.268 36.0432 52.6572C36.0432 52.2058 36.1643 52.0465 36.6227 52.0465C40.2466 52.0642 43.8879 51.8961 47.5031 52.1085C49.9594 52.2589 52.3292 53.0909 54.059 55.0911C54.898 56.0647 55.4169 57.2419 55.7283 58.5075C56.1261 60.1714 55.9964 61.8707 55.9013 63.5258C55.7975 65.3048 55.0364 66.8979 53.8515 68.2432C53.739 68.376 53.6439 68.5176 53.5401 68.6592L53.5141 68.668ZM40.6531 61.5079C40.6531 63.1983 40.6531 64.8888 40.6531 66.5793C40.6531 66.8979 40.5926 67.2696 41.0856 67.2431C43.3343 67.1369 45.6176 67.5617 47.8231 66.9156C48.4977 66.7209 49.1378 66.3492 49.7 65.8712C51.4989 64.3224 51.3865 62.2159 51.2135 60.1537C51.1789 59.7289 51.1097 59.2155 50.8676 58.773C49.847 56.8967 48.2469 55.9939 46.2144 55.9054C44.5625 55.8346 42.9105 55.9054 41.2586 55.8789C40.7569 55.87 40.6358 56.0382 40.6445 56.5249C40.6704 58.1889 40.6531 59.8528 40.6531 61.5167V61.5079Z" fill="black" fill-opacity="0.37"/>
<path d="M158.792 68.39C159.868 68.407 160.899 68.5093 161.885 67.802C162.871 67.0862 163.4 66.1829 163.445 65.1092C163.535 63.0044 163.49 60.8911 163.463 58.7863C163.463 58.2494 163.607 58.0278 164.207 58.0534C165.238 58.096 166.279 58.0875 167.31 58.0534C167.874 58.0364 168 58.2409 168 58.7351C167.982 62.5016 168.018 66.2681 167.973 70.0346C167.955 71.7815 167.202 73.2984 165.992 74.5936C165.615 74.9941 165.077 75.2498 164.611 75.5736C161.966 77.2523 158.953 77.0734 156.021 76.8774C153.941 76.741 151.978 75.9741 150.265 74.7385C149.987 74.534 149.934 74.2442 150.077 74.0994C150.705 73.4773 150.911 72.6422 151.377 71.9434C151.601 71.6111 151.718 71.5088 152.265 71.8241C154.775 73.3154 157.537 73.9716 160.495 73.2813C161.051 73.1535 161.697 72.9319 162.002 72.3354C163.266 71.5259 163.723 70.4607 163.284 69.3529C162.862 70.2647 161.84 70.5459 161.15 71.1765C160.271 71.4577 159.375 71.7219 158.46 71.756C157.017 71.8071 155.627 71.5429 154.381 70.759C152.408 69.5148 151.691 67.7594 151.772 65.5608C151.843 63.4646 151.754 61.3597 151.736 59.2549C151.831 58.4255 152.345 58.0108 153.278 58.0108C153.986 58.0108 154.694 58.0364 155.394 58.0023C155.941 57.9767 156.093 58.1642 156.084 58.6755C156.066 60.7718 156.102 62.868 156.111 64.9643C155.896 65.4245 156.264 65.808 156.317 66.234C156.434 67.1373 157.833 68.2962 158.783 68.39H158.792Z" fill="black" fill-opacity="0.37"/>
<path d="M97.841 69.5522C96.0384 70.9921 94.016 71.9159 91.7123 71.9521C90.2526 71.9702 88.793 72.1242 87.3333 71.7619C84.5723 71.0736 82.4092 69.5884 81.4332 66.7719C80.844 65.0964 80.8176 63.2851 81.5914 61.6097C82.9719 58.6483 85.4252 57.317 88.494 57C89.6811 57.1992 90.8857 56.9275 92.0904 57.2264C94.825 57.9056 97.331 59.7622 97.7267 62.9953C97.8234 63.8285 98.0872 64.5711 97.7267 65.4225C97.5684 65.7938 97.4365 65.8391 97.1376 65.8391C96.5045 65.8391 95.8626 65.8662 95.2295 65.8843C92.6531 65.8753 90.068 65.839 87.4916 65.8572C86.9464 65.8572 86.0407 65.5583 85.9176 66.0564C85.733 66.8624 86.6299 67.2971 87.1574 67.8133C87.1926 67.8496 87.2718 67.8405 87.3245 67.8586C88.8545 68.5922 90.3405 69.0541 92.1343 68.6194C93.5764 68.2662 94.9217 67.913 96.0297 66.8624C96.8826 67.3152 97.3398 68.1575 97.9026 68.9001C98.0521 69.0994 98.0257 69.3439 97.8498 69.5431L97.841 69.5522ZM91.3605 60.6044C91.1583 60.2512 90.8242 60.5229 90.5692 60.4143C88.8105 59.6807 87.5356 60.5592 86.3221 61.7184C86.0847 61.9539 85.9176 62.2255 85.8385 62.5335C85.733 62.941 85.8209 63.1946 86.3309 63.1855C88.5819 63.1493 90.8329 63.1584 93.0928 63.1402C93.295 63.1674 93.4973 63.2308 93.3829 62.8595C93.0576 61.7637 92.5036 60.9033 91.3517 60.6044H91.3605Z" fill="black" fill-opacity="0.37"/>
<path d="M135.611 94.9915C134.04 94.9829 132.478 94.9658 130.907 94.9744C130.496 94.9744 130.222 94.8548 129.902 94.59C128.084 93.0609 126.687 91.1731 124.869 89.6441C124.769 89.5586 124.705 89.3963 124.376 89.4903V93.377C124.376 93.6332 124.348 93.8895 124.376 94.1372C124.476 94.7864 124.23 95.0342 123.499 94.9829C122.54 94.9231 121.572 94.9487 120.603 94.9829C120.119 95 119.991 94.8292 120 94.402C120.01 88.4823 120.01 82.554 120 76.6343C120 76.173 120.119 75.9851 120.649 76.0022C121.645 76.0364 122.64 76.0449 123.636 76.0022C124.239 75.9766 124.394 76.173 124.385 76.7197C124.358 79.7095 124.376 82.6993 124.376 85.689C124.376 85.988 124.376 86.287 124.376 86.8337C125.755 85.5523 126.97 84.476 128.13 83.3399C129.19 82.2978 130.313 81.5546 131.994 81.7511C133.063 81.8792 134.159 81.7511 135.246 81.7511C136.315 81.9561 135.173 82.2209 135.264 82.4515C134.396 83.041 133.602 83.6816 132.853 84.3992C131.711 85.4926 130.432 86.4493 129.226 87.4829C128.614 88.0125 128.824 88.1577 129.226 88.525C130.268 89.4818 131.282 90.4641 132.341 91.4037C133.41 92.3605 134.36 93.4453 135.547 94.291C135.62 94.4106 135.675 94.5644 135.785 94.6412C136.251 94.9915 135.849 94.9573 135.62 95L135.611 94.9915Z" fill="black" fill-opacity="0.37"/>
<path d="M135.094 91.5621C135.945 91.4626 136.573 90.8562 137.334 90.5485C137.675 90.4128 137.791 90.4671 137.962 90.6933C138.956 92.0689 140.408 92.5486 141.985 92.8382C142.863 93.0011 143.687 93.0735 144.592 92.8744C145.228 92.7386 145.811 92.5667 146.348 92.2228C146.644 92.0327 146.931 91.8427 146.895 91.3902C146.859 90.9105 146.438 90.6843 146.178 90.6028C145.425 90.3766 144.646 90.1866 143.848 90.0689C141.85 89.7703 139.78 89.7884 137.881 88.9739C136.169 88.2408 135.641 86.9648 135.937 85.2816C136.349 82.9195 137.773 81.8155 140.094 81.2815C141.474 80.9648 142.845 80.9467 144.18 81.0734C146.33 81.2906 148.302 82.0689 149.744 83.8607C150.049 84.2408 149.914 84.5395 149.628 84.63C149.242 84.7476 149.001 85.0372 148.669 85.2092C147.352 85.8607 147.441 85.7974 146.286 84.992C144.834 83.9784 143.194 83.5621 141.411 84.1503C140.972 84.2951 140.515 84.3223 140.157 84.6843C139.592 85.2544 139.664 85.6616 140.381 86.0236C141.268 86.4761 142.253 86.6028 143.194 86.6843C144.09 86.7567 145.013 86.8291 145.891 86.9739C147.37 87.2363 148.92 87.4988 150.085 88.6481C150.954 89.5078 151.267 91.4626 150.748 92.6029C149.816 94.63 148.122 95.3269 146.106 95.7613C144.789 96.0508 143.499 96.0146 142.2 95.9694C139.933 95.906 137.854 95.1549 136.08 93.6888C135.766 93.4264 135.695 92.8834 135.193 92.7748C135.3 92.3585 134.772 91.9784 135.121 91.544L135.094 91.5621Z" fill="black" fill-opacity="0.37"/>
<path d="M115.405 58.4064C117.757 56.8513 120.335 56.8331 123.012 57.1878C124.643 57.4061 125.95 58.1881 127.212 59.1521C127.554 59.4158 127.617 59.7887 127.825 60.0979C127.942 60.2616 127.924 60.5526 127.59 60.6526C127.23 60.7617 126.951 61.0345 126.635 61.2346C125.95 61.6802 125.355 62.044 124.535 61.1164C123.318 59.7523 120.047 59.4977 118.542 60.4162C118.208 60.6162 117.739 60.8163 117.839 61.3346C117.92 61.7712 118.289 61.9712 118.686 62.144C119.515 62.5078 120.398 62.4805 121.254 62.5987C122.778 62.8079 124.301 62.9898 125.788 63.3626C126.806 63.6263 127.699 64.0992 128.366 64.9995C129.249 66.1999 129.213 68.337 128.239 69.4828C126.788 71.1743 124.896 71.8927 122.751 71.9473C121.227 71.9837 119.677 72.1201 118.172 71.729C117.397 71.529 116.64 71.2562 115.874 71.0197C114.918 70.2831 113.801 69.7647 113.188 68.6007C112.891 68.0278 112.918 67.7459 113.476 67.464C114.215 67.1002 114.945 66.7001 115.675 66.3181C116.162 67.0366 116.748 67.6095 117.523 68.0369C118.505 68.5916 119.578 68.8644 120.651 69.0281C121.939 69.2282 123.192 68.8735 124.355 68.2824C124.652 68.1278 125.004 67.855 124.923 67.464C124.851 67.1275 124.661 66.8547 124.274 66.6364C122.958 65.8816 121.498 66.0089 120.101 65.8453C118.569 65.6634 117.081 65.4087 115.657 64.8085C113.431 63.8901 112.981 60.498 115.063 58.661C115.171 58.561 115.288 58.4701 115.405 58.3791V58.4064Z" fill="black" fill-opacity="0.37"/>
<path d="M147.003 60.9571C146.091 60.9571 145.188 60.975 144.276 60.9571C143.906 60.9481 143.786 61.0828 143.786 61.469C143.803 63.1307 143.717 64.7924 143.812 66.4541C143.915 68.1427 145.584 69.1756 147.364 68.2415C148.095 67.8553 148.775 67.4062 149.205 66.6606C149.42 66.2834 149.575 66.499 149.704 66.6696C150.177 67.2984 150.418 68.0798 150.917 68.6906C151.046 68.8523 151.029 69.1307 150.839 69.3373C149.54 70.8283 148.061 71.978 146.022 71.978C144.672 71.978 143.295 72.1666 142.014 71.4391C140.698 70.6936 139.924 69.6337 139.597 68.0439C139.158 65.9241 139.476 63.8223 139.373 61.7116C139.347 61.1637 139.27 60.8583 138.685 60.9661C138.633 60.975 138.573 60.9661 138.513 60.9661C135.846 60.9661 135.855 60.9661 136.104 58.1098C136.139 57.6876 136.311 57.6337 136.638 57.6427C137.352 57.6517 138.057 57.6158 138.771 57.6607C139.278 57.6876 139.399 57.49 139.373 57.005C139.339 56.2685 139.459 55.505 139.339 54.7864C139.21 53.987 139.648 53.6008 140.182 53.5379C141.171 53.4122 142.134 53.1697 143.115 53.017C143.7 52.9271 143.829 53.1966 143.812 53.7625C143.769 54.7056 143.855 55.6667 143.786 56.6098C143.726 57.4361 143.915 57.7325 144.775 57.6876C146.392 57.6068 148.009 57.6876 149.635 57.6517C150.151 57.6427 150.358 57.7774 150.306 58.3433C150.229 59.1966 150.633 60.2834 150.16 60.8313C149.712 61.3343 148.663 60.9391 147.872 60.984C147.588 61.002 147.304 60.984 147.02 60.984L147.003 60.9571Z" fill="black" fill-opacity="0.37"/>
<path d="M116.53 81.4772C118.101 82.6635 119.126 84.1289 118.987 86.1438C118.368 86.3357 117.546 86.5887 116.724 86.8416C116.456 86.8591 116.114 86.7893 115.92 86.9202C115.274 87.3388 115.163 87.2167 115.015 86.4927C114.719 85.036 113.851 84.1202 112.271 84.2859C111.347 84.3818 110.811 84.9837 110.303 85.6205C109.906 86.2398 109.739 86.9027 109.749 87.6354C109.767 89.851 109.739 92.0666 109.767 94.2821C109.767 94.8578 109.592 95.0236 109 94.9974C107.873 94.9538 106.746 94.9625 105.619 94.9974C105.139 95.0061 105 94.8578 105 94.413C105.018 90.2958 105.018 86.1874 105 82.0703C105 81.5906 105.194 81.4859 105.647 81.5033C106.099 81.5295 106.561 81.4946 107.014 81.4772C108.388 81.547 109.145 82.2419 109.287 83.5619C109.897 83.6142 109.786 83.0211 110.054 82.7594C111.846 81.041 113.888 80.5264 116.281 81.4597C116.364 81.4859 116.456 81.4772 116.548 81.4772H116.53Z" fill="black" fill-opacity="0.37"/>
<path d="M103.985 59.7021C104.664 58.9554 105.093 58.2 105.892 57.6906C108.263 56.1973 111.913 57.1284 112.763 60.4575C113.193 62.1264 113.167 62.3372 111.578 62.6183C111.003 62.7149 110.47 62.8993 109.92 63.0662C109.508 63.198 109.336 63.1716 109.268 62.6534C109.07 61.1514 108.091 60.2554 106.828 60.273C105.866 60.2906 105.282 60.9318 104.861 61.6521C104.492 62.2845 104.286 63.0223 104.312 63.8304C104.363 65.9737 104.312 68.1169 104.337 70.2601C104.337 70.7959 104.243 71.0243 103.659 70.998C102.645 70.9453 101.623 70.9716 100.601 70.998C100.189 71.0067 100 70.9365 100 70.4446C100.017 66.3338 100.017 62.2142 100 58.1034C100 57.5852 100.18 57.4359 100.644 57.4886C100.893 57.5149 101.151 57.4886 101.409 57.4886C102.113 57.5061 103.006 57.2602 103.47 57.6115C103.882 57.919 103.814 58.894 103.985 59.7021Z" fill="black" fill-opacity="0.37"/>
<path d="M58.2248 58C59.554 58.0169 60.8833 58.0506 62.2223 58.0253C62.7598 58.0169 62.9748 58.1771 62.9846 58.6156C62.9846 62.4104 62.9846 66.2052 62.9846 69.9916C63.0921 70.8264 62.6328 71.0625 61.714 70.9866C60.7562 70.9107 59.7886 70.936 58.8308 70.9866C58.1955 71.0119 57.9609 70.8348 58.0293 70.2867C58.0684 69.9325 58.0195 69.5699 58 69.2073C58.0098 65.7835 58.0195 62.3682 58.0391 58.9445C58.0391 58.6325 57.8827 58.2699 58.2248 58Z" fill="black" fill-opacity="0.37"/>
<path d="M134.927 70.9916C133.55 70.9916 132.172 70.9663 130.794 70.9831C130.251 70.9831 129.99 70.9072 130 70.401C130.021 66.4783 130.021 62.547 130 58.6243C130 58.1265 130.24 58.0169 130.794 58.0253C132.14 58.0422 133.476 58.0084 134.813 58C135.063 58.1687 134.99 58.4049 134.99 58.6158C134.99 62.6314 134.99 66.6554 134.99 70.671C134.99 70.7807 134.948 70.8903 134.927 71V70.9916Z" fill="black" fill-opacity="0.37"/>
<path d="M134.924 91.6421C134.607 92.0924 135.078 92.4863 134.989 92.9177C134.98 93.6118 134.972 94.3059 134.956 95C133.901 94.0714 133.066 92.8802 132.108 91.8297C131.167 90.798 130.274 89.71 129.341 88.6688C128.984 88.2655 128.798 88.0967 129.341 87.5245C130.404 86.3896 131.54 85.3391 132.562 84.1385C133.228 83.3507 133.942 82.6378 134.705 82C134.753 84.0541 134.802 86.1082 134.851 88.1623C134.875 89.3254 134.899 90.4885 134.924 91.6515V91.6421Z" fill="#7D7B7B" fill-opacity="0.37"/>
<path d="M116 65C117.382 65.57 118.824 65.7997 120.311 65.9699C121.666 66.123 123.082 66.0039 124.359 66.71C124.735 66.9142 124.919 67.1694 124.989 67.4842C125.067 67.85 124.726 68.1137 124.438 68.2499C123.31 68.8028 122.094 69.1346 120.844 68.9475C119.803 68.7943 118.772 68.5306 117.81 68.0202C117.058 67.6118 116.49 67.0758 116.017 66.4122C116.017 65.9443 116.009 65.4679 116 65Z" fill="#7D7B7B" fill-opacity="0.37"/>
<path d="M96 67.0833C94.9072 68.1263 93.5803 68.4679 92.1579 68.8276C90.3974 69.2681 88.923 68.8096 87.4139 68.0723C87.3619 68.0453 87.2838 68.0633 87.2491 68.0273C86.7288 67.5149 85.8355 67.0743 86.0263 66.2831C86.139 65.7885 87.041 66.0942 87.5787 66.0853C90.1198 66.0673 92.6696 66.0942 95.2108 66.1122C95.471 66.4359 95.7398 66.7686 96 67.0923V67.0833Z" fill="#7D7B7B" fill-opacity="0.37"/>
<path d="M58.057 52.3231C58.6975 51.7581 59.2696 51.1062 60.2089 51.0106C61.5325 50.8889 62.839 51.8364 62.9585 52.8099C63.1635 54.5136 62.6255 55.5741 60.9689 56C60.448 55.8088 59.8844 56.0174 59.3379 55.7218C58.2449 55.1395 57.8008 54.2615 58.0826 53.0011C58.1339 52.7838 58.0655 52.5491 58.0485 52.3231H58.057Z" fill="black" fill-opacity="0.37"/>
<path d="M134.171 55.5419C133.493 55.6992 132.881 56.0398 132.127 55.9962C130.626 55.9175 129.579 54.3365 130.166 52.6506C130.828 50.755 132.881 50.6589 134.037 51.5237C135.361 52.9126 135.236 53.9084 134.171 55.5332V55.5419Z" fill="black" fill-opacity="0.37"/>
<path d="M161 71.8343C161.601 71.2 162.49 70.9171 162.857 70C163.24 71.1143 162.849 72.1857 161.741 73C161.468 72.6314 161.164 72.2886 161 71.8343Z" fill="#7D7B7B" fill-opacity="0.37"/>
<path d="M66.7169 92.7108C66.1218 93.1804 66.2841 93.9601 65.9866 94.5626C65.8243 94.8992 65.7161 94.9878 65.3825 94.9878C63.6244 94.9878 61.8753 94.9878 60.1172 94.9878C59.9369 94.9878 59.7115 95.0764 59.6123 94.7752C59.1345 93.3399 58.7198 91.8868 58.1337 90.4958C57.6829 89.4237 57.5116 88.2541 56.8805 87.2618C56.4568 85.9948 56.0601 84.7101 55.6003 83.452C54.7708 81.166 53.9053 78.889 53.0578 76.6031C52.9045 76.1866 53.0578 76.0183 53.4995 76.0183C54.87 76.0272 56.2404 76.0537 57.6108 76.0094C58.1427 75.9917 58.1968 76.3373 58.296 76.6385C58.8009 78.1802 59.2697 79.7307 59.7746 81.2635C60.6672 83.9924 61.5778 86.7213 62.4974 89.4414C62.5696 89.6452 62.7409 89.8135 62.9122 90.0616C63.5433 88.8212 63.7687 87.501 64.2195 86.2606C64.8596 84.524 65.3374 82.7343 65.9055 80.98C66.3743 79.5269 66.8882 78.0827 67.2398 76.5942C67.339 76.1689 67.5373 76.0183 67.9701 76.0183C69.638 76.0272 71.306 76.0626 72.9739 76.0006C73.551 75.9829 73.6051 76.3727 73.7042 76.674C74.3894 78.6941 75.0115 80.723 75.6967 82.7431C76.2647 84.4266 76.7155 86.1543 77.3467 87.8289C77.6262 88.5642 77.7524 89.3705 78.0679 90.1502C78.7441 89.3705 78.8163 88.3427 79.1498 87.4479C80.1957 84.6126 81.0883 81.7242 82.0349 78.8535C82.1702 78.4548 82.2333 78.0384 82.3956 77.6397C83.0628 76.036 83.0267 76.0183 84.8028 76.0183C85.6954 76.0183 86.588 76.036 87.4806 76.0183C88.0125 76.0094 88.0936 76.2221 87.9133 76.6651C87.192 78.3928 86.6601 80.1826 85.9929 81.9192C85.3798 83.514 84.8209 85.1265 84.2168 86.7213C83.216 89.3617 82.3235 92.0374 81.4038 94.7043C81.3047 94.979 81.1604 94.9878 80.953 94.9878C79.1679 94.9878 77.3827 94.9701 75.5976 94.9878C74.8853 94.9967 74.9214 94.3411 74.8402 94.031C74.2452 91.8336 73.4518 89.6895 72.7576 87.5276C72.0453 85.286 71.306 83.0532 70.5216 80.6256C70.152 81.8483 69.8544 82.8938 69.5118 83.9304C68.8807 85.853 68.1504 87.7403 67.5914 89.6806C67.3029 90.6907 66.7349 91.6299 66.7169 92.7108Z" fill="black" fill-opacity="0.37"/>
<path d="M95.0003 81.018C96.9242 80.9278 98.7587 81.2615 100.45 82.2175C101.998 83.0833 103.135 84.3098 103.618 86.0504C104.352 88.6839 104.092 91.155 102.284 93.2924C101.157 94.6271 99.5999 95.1863 97.9712 95.6552C96.4052 96.1062 94.8124 96.034 93.2643 95.8897C91.1345 95.6913 89.2106 94.8436 87.734 93.139C86.0875 91.2451 85.658 89.1258 86.2575 86.7178C87.036 83.5793 89.1837 82.0371 92.1457 81.2706C93.1121 81.018 94.0428 81.0541 95.0003 81V81.018ZM95.1435 92.5979C96.6647 92.625 98.0697 92.0117 99.0361 90.5327C99.9131 89.1979 99.752 86.7178 98.5708 85.7348C96.9153 84.3549 95.0719 83.9852 92.9421 84.8239C91.1792 85.5183 90.2933 87.4032 90.4097 88.5666C90.6423 90.8934 92.1099 92.4446 95.1435 92.5889V92.5979Z" fill="black" fill-opacity="0.37"/>
<path d="M65.3302 61.4008C65.2367 60.3921 64.556 59.6272 64.1476 58.753C63.8839 58.1898 63.9434 58.0049 64.573 58.0133C65.3898 58.0217 66.2065 58.0133 67.0148 58.0133C68.4526 58.0133 68.4952 57.9965 69.0142 59.333C70.0521 62.006 71.3708 64.5697 72.3067 67.2847C72.3493 67.4108 72.4513 67.5201 72.5705 67.705C73.3872 65.7801 74.1444 64.0065 74.8931 62.2329C75.361 61.115 75.846 60.0054 76.2799 58.8707C76.5011 58.2823 76.8074 57.9628 77.4965 58.0049C78.4239 58.0637 79.3513 58.0637 80.2786 58.0049C81.1039 57.9544 81.1124 58.2991 80.8401 58.8791C79.7426 61.2158 78.6366 63.5442 77.5391 65.881C76.8414 67.3688 76.1182 68.8566 75.4631 70.3612C75.2504 70.8487 74.9867 71.0168 74.4677 70.9664C74.0253 70.9243 73.5744 70.9832 73.1235 71C72.1961 70.9832 71.2687 70.9496 70.3499 70.9664C69.9841 70.9664 69.7884 70.8403 69.6522 70.5293C68.9971 69.0667 68.3846 67.5873 67.6614 66.1499C66.8702 64.5697 66.2916 62.8886 65.3217 61.3923L65.3302 61.4008Z" fill="black" fill-opacity="0.37"/>
<path d="M92.9916 62.9553C90.8341 62.9642 88.6767 62.9553 86.5108 63C86.0136 63 85.9377 62.7584 86.0389 62.3557C86.1147 62.0425 86.2664 61.7741 86.5024 61.5504C87.6654 60.405 88.8874 59.5459 90.5729 60.2618C90.8088 60.3602 91.1375 60.1007 91.3313 60.4497C91.7527 61.3803 92.5281 62.0604 93 62.9642L92.9916 62.9553Z" fill="#7D7B7B" fill-opacity="0.37"/>
<path d="M94.644 91.9904C91.6831 91.85 90.2376 90.3403 90.0099 88.0758C89.896 86.9436 90.772 85.1179 92.489 84.4333C94.5739 83.6171 96.3785 83.9769 97.9992 85.3198C99.1555 86.2765 99.3132 88.6814 98.4547 89.9892C97.5086 91.4199 96.1245 92.0255 94.644 91.9992V91.9904Z" fill="#7D7B7B" fill-opacity="0.37"/>
</svg>
