<svg width="323" height="113" viewBox="0 0 323 113" fill="none" xmlns="http://www.w3.org/2000/svg">
<g clip-path="url(#clip0_724_3584)">
<path d="M323.001 46.5126H317.382V69.5817H313.72V46.4626H308.102V43.2811H323.001V46.5126Z" fill="black" fill-opacity="0.37"/>
<path d="M22.7226 42.9442V21.6468H66.8972V25.3398H26.6218V43.094H66.9221V46.9243H0V0H66.9096V3.73048C66.2618 3.75544 65.6016 3.81782 64.9538 3.81782C45.1213 3.78039 25.2889 3.73048 5.44396 3.69306C3.66253 3.69306 3.66253 3.69306 3.66253 5.53958C3.66253 17.5794 3.66253 29.6193 3.66253 41.6592C3.66253 42.4577 3.56287 43.1563 4.77125 43.1439C10.564 43.094 16.3443 43.1064 22.1371 43.094C22.2617 43.094 22.3987 43.0316 22.6977 42.9567L22.7226 42.9442Z" fill="black" fill-opacity="0.37"/>
<path d="M22.6852 112.975V69.7688H3.72481V113H0V65.9635H66.9096V69.6815H26.5595V112.963H22.6728L22.6852 112.975Z" fill="black" fill-opacity="0.37"/>
<path d="M272.547 43.306V69.6939C271.475 69.6939 270.454 69.7937 269.457 69.644C269.084 69.5941 268.66 69.0326 268.498 68.6084C266.43 63.1687 264.412 57.7039 262.381 52.2517C262.269 51.9647 262.157 51.6778 261.833 51.4033V69.5941H258.52V43.2187C259.541 43.2187 260.6 43.1438 261.634 43.2686C261.958 43.306 262.344 43.855 262.506 44.2542C264.474 49.3072 266.393 54.3602 268.336 59.4257C268.535 59.9497 268.76 60.4737 269.171 60.9478V43.2935H272.559L272.547 43.306Z" fill="black" fill-opacity="0.37"/>
<path d="M118.51 69.6689H114.91C112.642 63.6054 110.363 57.5293 108.07 51.4407C107.983 51.4532 107.896 51.4782 107.809 51.4906V69.644H104.545V43.2312C105.616 43.2312 106.688 43.1688 107.722 43.2686C108.021 43.306 108.357 43.8176 108.506 44.1794C110.45 49.195 112.356 54.2105 114.274 59.2261C114.511 59.825 114.748 60.4363 115.234 60.9978V43.2686H118.522V69.6689H118.51Z" fill="black" fill-opacity="0.37"/>
<path d="M152.842 69.5816C152.606 69.644 152.531 69.6814 152.444 69.6814C149.329 69.8311 149.342 69.8311 148.246 66.8867C146.452 62.0582 144.633 57.2423 142.814 52.4264C142.677 52.077 142.49 51.7526 142.091 51.4657V69.619H138.902V43.2187C139.986 43.2187 141.02 43.1313 142.017 43.2686C142.341 43.306 142.714 43.855 142.864 44.2417C144.87 49.3696 146.825 54.5224 148.806 59.6627C148.981 60.0994 149.192 60.5236 149.603 60.9104V43.2811H152.83V69.5816H152.842Z" fill="black" fill-opacity="0.37"/>
<path d="M223.639 69.4819V43.119C226.242 43.119 228.858 42.8819 231.4 43.1813C234.153 43.5057 235.972 45.3398 236.769 48.0222C237.579 50.7172 236.856 53.0628 234.925 55.059C234.713 55.2836 234.477 55.4832 234.153 55.7826C234.377 55.9573 234.576 56.0946 234.763 56.2443C237.217 58.1906 238.214 61.16 237.379 64.0296C236.482 67.1363 234.128 69.2199 230.926 69.4445C228.559 69.6066 226.18 69.4819 223.639 69.4819ZM226.89 57.9536C226.89 59.4507 226.89 60.7982 226.89 62.1457C226.89 63.4931 226.89 64.8157 226.89 66.1506C229.307 66.4376 231.574 66.7745 233.082 64.4538C234.066 62.9442 234.078 61.0602 233.057 59.6379C231.512 57.4919 229.269 57.8163 226.89 57.9536ZM227.089 46.2381C226.977 46.5001 226.915 46.575 226.915 46.6623C226.878 48.4589 226.865 50.2555 226.815 52.0397C226.741 54.7845 226.94 54.9592 229.73 54.4976C229.905 54.4726 230.079 54.4227 230.254 54.3853C232.409 53.8488 233.605 51.9648 233.331 49.5444C233.119 47.6479 231.487 46.2755 229.382 46.2381C228.622 46.2256 227.862 46.2381 227.089 46.2381Z" fill="black" fill-opacity="0.37"/>
<path d="M276.596 43.306C279.573 43.306 282.501 43.1064 285.378 43.3684C288.256 43.6304 290.623 46.6123 290.66 49.6317C290.71 54.2105 290.723 58.7894 290.66 63.3683C290.61 66.8243 287.683 69.644 284.232 69.6939C281.853 69.7314 279.486 69.6939 277.106 69.6939C276.969 69.6939 276.845 69.6565 276.596 69.6191V43.306ZM280.246 46.4876V66.4375C281.267 66.4375 282.189 66.4375 283.123 66.4375C285.553 66.4001 287.035 65.0651 287.048 62.6322C287.085 58.3278 287.01 54.0109 286.923 49.7065C286.886 48.0846 285.702 46.6747 284.17 46.5125C282.899 46.3753 281.591 46.4876 280.233 46.4876H280.246Z" fill="black" fill-opacity="0.37"/>
<path d="M209.686 69.6315H206.186V43.3435C208.951 43.3435 211.717 43.0191 214.37 43.4308C217.186 43.8675 218.979 45.9011 219.59 48.7707C220.213 51.7027 219.328 54.1731 217.061 56.1194C216.625 56.4937 216.114 56.7807 215.491 57.2049C217.073 61.2847 218.668 65.3895 220.35 69.6939C219.154 69.6939 218.083 69.7688 217.049 69.6565C216.712 69.619 216.276 69.1449 216.127 68.7706C214.968 65.7139 213.859 62.6447 212.738 59.5754C212.265 58.2779 211.243 57.7705 209.674 58.0533V69.644L209.686 69.6315ZM209.724 54.4476C211.891 54.5599 214.009 54.7844 215.491 52.7882C216.438 51.5156 216.463 49.7065 215.641 48.359C214.208 46.0384 211.978 46.4127 209.724 46.5125V54.4476Z" fill="black" fill-opacity="0.37"/>
<path d="M250.909 43.2687H254.571C254.571 43.7552 254.571 44.2294 254.571 44.7035C254.571 50.7671 254.571 56.8182 254.571 62.8818C254.571 67.2111 251.556 70.4176 247.483 70.4176C243.359 70.4176 240.332 67.1862 240.332 62.7944C240.332 56.7309 240.332 50.6797 240.332 44.6161C240.332 44.1295 240.332 43.6554 240.332 43.094H243.907C243.932 43.618 243.982 44.142 243.982 44.6536C243.982 50.4427 243.97 56.2318 243.982 62.0209C243.982 62.8194 244.032 63.6553 244.306 64.3914C244.854 65.8387 246.586 66.6996 248.031 66.4002C249.675 66.0633 250.809 64.8032 250.834 63.0814C250.884 58.6772 250.871 54.2854 250.884 49.8812C250.884 47.7353 250.884 45.5768 250.884 43.2562L250.909 43.2687Z" fill="black" fill-opacity="0.37"/>
<path d="M202.199 56.6559C202.199 59.1263 202.461 61.6216 202.137 64.042C201.602 68.047 198.412 70.2054 194.052 69.9559C190.639 69.7563 187.774 66.8118 187.674 63.1437C187.562 58.8767 187.562 54.6098 187.674 50.3428C187.774 46.1507 191.087 43.1064 195.198 43.1937C199.297 43.2811 202.336 46.4751 202.349 50.7171C202.349 52.6884 202.349 54.6721 202.349 56.6434C202.299 56.6434 202.249 56.6434 202.199 56.6434V56.6559ZM198.724 56.7932C198.724 54.5973 198.799 52.3889 198.699 50.2055C198.612 47.8974 196.955 46.3004 194.887 46.3378C192.806 46.3752 191.274 48.0221 191.262 50.3428C191.237 54.5099 191.237 58.6896 191.262 62.8568C191.274 65.2023 192.757 66.7619 194.924 66.8243C197.042 66.8742 198.637 65.3022 198.699 62.9815C198.761 60.9229 198.699 58.8518 198.699 56.7932H198.724Z" fill="black" fill-opacity="0.37"/>
<path d="M121.088 69.6191C123.081 60.7857 125.049 52.0272 127.018 43.3435C127.229 43.2686 127.317 43.2187 127.391 43.2187C130.618 43.1189 130.581 43.1314 131.266 46.263C132.923 53.8612 134.604 61.4594 136.274 69.0576C136.311 69.2323 136.324 69.407 136.348 69.6316H132.499C132.287 68.5586 131.988 67.523 131.901 66.475C131.826 65.4893 131.353 65.3147 130.506 65.3646C129.385 65.4145 128.251 65.4769 127.155 65.3521C125.897 65.2149 125.373 65.6391 125.149 66.9117C124.638 69.7688 124.564 69.7563 121.661 69.6815C121.524 69.6815 121.399 69.6565 121.088 69.6191ZM131.041 62.1706C130.282 58.1407 129.547 54.2605 128.812 50.3678C128.724 50.3678 128.637 50.3678 128.55 50.3678C127.753 54.2729 126.968 58.1656 126.158 62.1706H131.041Z" fill="black" fill-opacity="0.37"/>
<path d="M155.77 62.183H159.221C159.233 62.5323 159.246 62.8318 159.258 63.1312C159.32 64.8031 160.205 66.0258 161.662 66.4874C163.22 66.9865 164.64 66.6247 165.562 65.4893C166.496 64.3414 166.67 62.5074 165.724 61.2223C165.051 60.3115 164.129 59.538 163.22 58.8268C161.887 57.7788 160.454 56.843 159.071 55.8574C154.636 52.7133 154.549 46.2754 158.959 43.7801C161.488 42.3453 164.154 42.3453 166.62 43.8924C169.1 45.4395 169.785 47.8599 169.386 50.742H166.11C166.072 50.4426 166.023 50.1431 166.023 49.8562C166.035 47.8599 165.138 46.5125 163.469 46.0758C161.911 45.6641 160.304 46.2879 159.632 47.5605C158.834 49.0577 159.283 51.1038 160.716 52.3016C162.086 53.4494 163.494 54.5598 164.901 55.6827C165.499 56.1568 166.122 56.5935 166.733 57.0427C169.075 58.7894 170.271 61.135 169.909 64.0295C169.548 66.949 167.854 69.0451 164.964 69.7563C162.098 70.4674 159.32 70.1929 157.203 67.76C155.807 66.1755 155.458 64.304 155.745 62.183H155.77Z" fill="black" fill-opacity="0.37"/>
<path d="M297.986 66.4625H306.706V69.5941H294.311V43.306H306.594C306.644 43.3684 306.731 43.4433 306.743 43.5181C306.884 45.4645 305.987 46.4376 304.052 46.4376C302.047 46.4376 300.041 46.4376 297.948 46.4376V54.5848H302.67V57.8537H297.986V66.4625Z" fill="black" fill-opacity="0.37"/>
<path d="M81.4609 43.2811H94.0306V46.3753H85.0487V54.5849H92.1246V57.8662H84.974V69.6316H81.4609V43.2936V43.2811Z" fill="black" fill-opacity="0.37"/>
<path d="M173.086 43.2811H185.593V46.4127H176.624V54.5724H183.725V57.8537H176.611V69.5941H173.086V43.2936V43.2811Z" fill="black" fill-opacity="0.37"/>
<path d="M96.9199 43.2687H100.246V69.5817H96.9199V43.2687Z" fill="black" fill-opacity="0.37"/>
</g>
<defs>
<clipPath id="clip0_724_3584">
<rect width="323" height="113" fill="white"/>
</clipPath>
</defs>
</svg>
