<svg width="190" height="126" viewBox="0 0 190 126" fill="none" xmlns="http://www.w3.org/2000/svg">
<path d="M167.762 92.5615H22.6602V33.8613H167.762V92.5615ZM95.2109 37.2373C54.7252 37.2374 25.4886 49.0227 25.4883 63.2109C25.4883 77.3994 54.7048 89.1855 95.2119 89.1855C135.719 89.1855 164.913 77.3993 164.913 63.2109C164.913 49.0226 135.697 37.2373 95.2109 37.2373Z" fill="#041236" fill-opacity="0.37"/>
<path d="M69.7631 53.2792C69.4511 53.9007 69.4511 54.5014 69.4511 55.1227V62.8902C69.4511 62.8902 73.6307 57.484 74.5872 56.1997C75.315 55.247 76.2093 53.9007 76.2093 53.2792H89.8502C88.9145 53.9007 87.8748 55.0191 87.0222 56.0547C86.2737 56.9662 82.0315 62.1237 82.0315 62.1237C82.0315 62.1237 88.3323 71.6724 89.1431 72.8944C89.6006 73.5573 90.0997 74.1786 90.682 74.7379H74.9823C74.9823 74.1165 74.3793 72.853 73.7138 71.8587C73.0485 70.8645 69.4511 65.4171 69.4511 65.4171V72.8944C69.4511 73.5159 69.4511 74.1165 69.7629 74.7379H56.6835C56.9954 74.1165 56.9954 73.5159 56.9954 72.8944V55.1227C56.9954 54.5014 56.9954 53.9007 56.6835 53.2792H69.7631ZM118.193 53.2792H92.9486C93.2603 53.9007 93.2603 54.5014 93.2603 55.1227V72.8944C93.2603 73.5159 93.2603 74.1165 92.9485 74.7379H118.193V68.7933C117.569 69.1039 116.966 69.1039 116.342 69.1039H105.716V66.287H115.926V61.7509H105.716V58.913H116.342C116.966 58.913 117.569 58.913 118.193 59.203V53.2792ZM153.168 72.8944C153.376 73.578 153.73 74.1993 154.187 74.7379H140.505C140.567 74.1165 140.338 73.5159 140.089 72.8944C140.089 72.8944 139.881 72.3973 139.59 71.6724L139.465 71.3617H131.584L131.459 71.6931C131.459 71.6931 131.231 72.2937 131.023 72.9152C130.815 73.5366 130.586 74.1371 130.669 74.7586H119.877C120.319 74.2127 120.651 73.5868 120.854 72.9152L127.321 55.1432C127.55 54.5219 127.779 53.9213 127.696 53.2997H145.932C145.766 53.9213 146.098 54.5219 146.327 55.1432C146.868 56.4895 152.711 71.6929 153.168 72.8942M137.739 66.8254L135.826 61.8542C135.66 61.3985 135.514 60.9222 135.41 60.4458C135.327 60.9253 135.202 61.3966 135.036 61.8542C134.973 62.0614 134.163 64.2363 133.227 66.8254H137.739ZM50.1749 55.1226C50.1749 54.5012 50.1749 53.9006 50.4868 53.279H36.2637C36.5756 53.9006 36.5756 54.5012 36.5756 55.1226V72.8942C36.5756 73.5157 36.5756 74.1164 36.2637 74.7377H50.4868C50.1749 74.1164 50.1749 73.5157 50.1749 72.8942V55.1226ZM148.802 54.9776C148.76 56.5311 149.987 57.836 151.567 57.8774C153.127 57.9188 154.437 56.6968 154.478 55.1226V54.9776C154.499 53.4447 153.293 52.1814 151.754 52.1607H151.65C151.291 52.1453 150.931 52.2015 150.593 52.326C150.256 52.4504 149.946 52.6406 149.683 52.8855C149.42 53.1303 149.208 53.4249 149.06 53.7521C148.912 54.0793 148.832 54.4325 148.822 54.7912C148.781 54.8533 148.781 54.9155 148.802 54.9776ZM153.896 54.9776C153.938 56.2204 152.94 57.2767 151.692 57.2974C150.444 57.3388 149.384 56.3445 149.363 55.1019V54.9569C149.322 53.7556 150.257 52.7406 151.463 52.6991H151.63C152.856 52.6784 153.875 53.652 153.896 54.8739V54.9776ZM153.023 56.6761H152.461L151.796 55.4746H151.068V56.6761H150.569V53.279H151.838C152.441 53.2999 152.898 53.7763 152.898 54.3769C152.898 54.7912 152.669 55.1639 152.295 55.3712L153.023 56.6761ZM151.754 54.9776C152.087 54.9982 152.378 54.7496 152.378 54.4183C152.378 54.0869 152.149 53.7969 151.817 53.7969H151.068V54.9983H151.754" fill="#041236" fill-opacity="0.37"/>
</svg>
