<svg width="161" height="110" viewBox="0 0 161 110" fill="none" xmlns="http://www.w3.org/2000/svg">
<g clip-path="url(#clip0_724_3587)">
<path d="M58.2413 0C59.103 0.0878259 59.9648 0.171833 60.8266 0.271115C66.1649 0.893533 71.1715 2.54695 75.7548 5.34592C85.1998 11.1081 91.3351 19.3752 93.5467 30.2274C96.1739 43.1187 92.9518 54.5819 84.0368 64.2924C78.5307 70.2874 71.6634 73.9799 63.6902 75.6028C61.3566 76.0801 58.9887 76.3054 56.6093 76.3169C53.3453 76.3321 50.0851 76.3245 46.8211 76.3169C41.9937 76.3054 38.0243 72.8726 37.3189 68.1032C36.5524 62.9177 40.3083 57.9574 45.4903 57.3236C45.8983 57.2739 46.3101 57.2472 46.7181 57.2472C50.0279 57.2357 53.3338 57.2777 56.6436 57.2166C61.4862 57.125 65.7149 55.4105 69.2649 52.1113C72.7043 48.9152 74.7291 44.9516 75.221 40.2815C75.8387 34.4316 74.1114 29.3033 70.0809 25.0113C67.0305 21.7617 63.2517 19.8105 58.8361 19.2606C52.7924 18.5045 47.496 20.2343 43.0766 24.4461C39.8736 27.4971 38.0129 31.2698 37.4104 35.6497C37.2922 36.5241 37.2426 37.4138 37.2426 38.2959C37.2274 44.3712 37.235 50.4426 37.235 56.5179C37.235 56.7317 37.235 56.9417 37.235 57.1899H18.0933C18.0857 57.0601 18.0742 56.915 18.0742 56.7737C18.0742 37.9102 18.0742 19.0468 18.0742 0.183289C18.0742 0.122193 18.0742 0.0610963 18.078 0C31.462 0 44.8497 0 58.2337 0L58.2413 0Z" fill="black" fill-opacity="0.37"/>
<path d="M123.003 19.0697C133.535 19.0697 142.088 27.6194 142.065 38.1699C142.042 49.0756 133.058 57.4993 122.519 57.2358C112.342 56.9799 103.884 48.6021 103.934 37.9828C103.983 27.5965 112.544 19.0735 123.003 19.0735V19.0697Z" fill="black" fill-opacity="0.37"/>
<path d="M103.964 76.3207C98.6978 76.3284 94.4233 72.0707 94.3966 66.7973C94.3699 61.6462 98.6482 57.3236 103.693 57.2243C108.799 57.125 113.447 61.1536 113.477 66.7553C113.508 72.0173 109.222 76.3131 103.96 76.3207H103.964Z" fill="black" fill-opacity="0.37"/>
<path d="M0 109.698V90.6822C0.087701 90.6631 0.171589 90.6287 0.255477 90.6287C2.72254 90.6402 5.19724 90.5714 7.66049 90.6936C10.0627 90.812 12.2019 91.6788 13.8491 93.5231C14.9359 94.7374 15.5383 96.1885 15.8129 97.7808C16.1446 99.7015 16.1141 101.615 15.5612 103.486C14.5393 106.934 12.1485 108.862 8.67477 109.504C7.96173 109.637 7.22199 109.679 6.49369 109.687C4.34692 109.71 2.20015 109.695 0 109.695L0 109.698ZM2.50901 107.587C4.35073 107.533 6.16195 107.621 7.93503 107.392C10.425 107.067 12.179 105.639 13.0255 103.226C13.5288 101.79 13.5822 100.305 13.4259 98.7965C13.0865 95.4935 10.7453 93.1031 7.45077 92.8587C5.84546 92.7403 4.2249 92.8053 2.60815 92.79C2.58146 92.79 2.55858 92.8167 2.5052 92.8473V107.583L2.50901 107.587Z" fill="black" fill-opacity="0.37"/>
<path d="M107.632 98.5712C107.632 97.8724 107.632 97.2691 107.632 96.6619C107.621 94.8023 107.621 92.9389 107.594 91.0792C107.591 90.7127 107.709 90.6019 108.063 90.6172C108.666 90.6401 109.272 90.6248 109.901 90.6248V109.675H107.69V108.056C106.016 109.737 104.079 110.233 101.913 109.863C100.349 109.599 99.0644 108.812 98.0959 107.552C96.0025 104.837 96.3266 100.648 98.7899 98.3726C101.104 96.2342 105.326 96.1388 107.632 98.5674V98.5712ZM103.423 98.7888C101.535 98.7812 99.9453 99.8389 99.4229 101.588C99.2017 102.329 99.1026 103.15 99.1483 103.921C99.3275 107.006 102.435 108.866 105.192 107.591C106.866 106.815 107.819 104.971 107.632 102.875C107.415 100.454 105.711 98.7965 103.423 98.7888Z" fill="black" fill-opacity="0.37"/>
<path d="M57.9238 90.6516H60.2422V102.413C60.4405 102.229 60.5625 102.126 60.6731 102.012C62.2364 100.446 63.796 98.8767 65.3708 97.3264C65.5309 97.166 65.8093 97.0553 66.0381 97.0476C66.8236 97.0133 67.6129 97.0362 68.3679 97.0362C66.9532 98.5216 65.55 99.9955 64.1087 101.508C65.8436 104.177 67.6053 106.896 69.4241 109.698C68.4823 109.698 67.6129 109.71 66.7397 109.683C66.6253 109.683 66.4956 109.481 66.4118 109.351C65.1763 107.407 63.9485 105.46 62.7207 103.516C62.633 103.375 62.5377 103.237 62.4156 103.05C61.7026 103.753 61.0086 104.425 60.3337 105.116C60.246 105.204 60.246 105.399 60.246 105.544C60.2384 106.766 60.246 107.984 60.246 109.206V109.679H57.9238V90.6554V90.6516Z" fill="black" fill-opacity="0.37"/>
<path d="M19.2669 100.339C18.8512 99.7473 18.4356 99.1631 17.9895 98.533C18.1687 98.3994 18.3326 98.2466 18.5233 98.1359C20.8112 96.7956 23.2592 96.429 25.833 97.0094C27.5184 97.3913 28.3916 98.4719 28.4106 100.206C28.445 103.302 28.4221 106.399 28.4221 109.5C28.4221 109.546 28.4068 109.588 28.3954 109.664H26.0541V107.984C25.9893 107.934 25.9245 107.881 25.8597 107.831C25.8215 107.942 25.8101 108.076 25.7415 108.167C24.1972 110.168 21.0285 110.37 19.3164 109.504C18.0429 108.858 17.4823 107.759 17.4671 106.372C17.4518 105.002 18.0619 103.974 19.2745 103.318C20.407 102.703 21.6577 102.527 22.9007 102.29C23.671 102.145 24.4488 101.939 25.1657 101.634C25.9093 101.317 26.1609 100.648 25.955 99.9382C25.7987 99.396 25.3907 99.1211 24.8797 98.9836C23.3202 98.5598 21.8598 98.8958 20.4603 99.5984C20.0562 99.8008 19.6825 100.076 19.2554 100.339H19.2669ZM26.016 103.173C24.914 103.81 23.7625 104.016 22.6109 104.234C22.0046 104.349 21.3984 104.54 20.8378 104.799C20.06 105.158 19.7702 105.803 19.9113 106.602C20.0295 107.27 20.5557 107.751 21.345 107.885C22.6719 108.114 23.8502 107.751 24.9064 106.96C25.5584 106.472 25.955 105.807 26.0084 104.986C26.0465 104.414 26.016 103.833 26.016 103.176V103.173Z" fill="black" fill-opacity="0.37"/>
<path d="M85.5685 109.675H83.2578V97.0782H85.5495V98.533C85.763 98.3192 85.8812 98.197 86.0032 98.0786C87.9174 96.1847 91.7457 96.3068 93.4426 98.3154C94.3158 99.3502 94.5789 100.595 94.5865 101.897C94.6056 104.414 94.5903 106.934 94.5865 109.45C94.5865 109.511 94.5712 109.569 94.556 109.664H92.2529C92.2453 109.481 92.23 109.301 92.23 109.126C92.23 106.823 92.23 104.517 92.2262 102.214C92.2262 101.878 92.2109 101.538 92.1499 101.214C91.7762 99.3311 90.2434 98.3956 88.3063 98.8538C86.5523 99.27 85.5762 100.48 85.5685 102.294C85.5571 104.582 85.5685 106.873 85.5685 109.16C85.5685 109.324 85.5685 109.488 85.5685 109.675Z" fill="black" fill-opacity="0.37"/>
<path d="M33.9476 109.675H31.6445V97.04C32.3423 97.04 33.0211 97.0285 33.6998 97.0514C33.7837 97.0514 33.9248 97.2347 33.9324 97.3416C33.9629 97.6853 33.9438 98.0366 33.9438 98.5254C34.1535 98.3153 34.2718 98.197 34.39 98.0786C36.4147 96.0853 40.3994 96.3412 42.0199 98.5635C42.6033 99.3654 42.9122 100.282 42.9313 101.252C42.977 103.86 42.9618 106.468 42.9694 109.076C42.9694 109.259 42.9694 109.442 42.9694 109.66H40.6091C40.6091 109.481 40.6091 109.316 40.6091 109.152C40.6091 106.834 40.6091 104.517 40.6091 102.199C40.6091 101.909 40.6091 101.615 40.5557 101.332C40.1134 98.8232 37.3794 97.8877 35.2403 99.5067C34.2984 100.221 33.94 101.191 33.9438 102.34C33.9514 104.597 33.9438 106.854 33.9438 109.114C33.9438 109.294 33.9438 109.473 33.9438 109.675H33.9476Z" fill="black" fill-opacity="0.37"/>
<path d="M124.172 109.679H121.873V108.198C121.171 108.969 120.462 109.511 119.57 109.736C117.763 110.195 116.02 110.115 114.495 108.908C113.397 108.037 112.916 106.8 112.882 105.452C112.817 102.722 112.851 99.9916 112.848 97.2614C112.848 97.2041 112.87 97.1468 112.893 97.0399C113.58 97.0399 114.262 97.0247 114.945 97.0552C115.036 97.059 115.193 97.2881 115.193 97.4141C115.212 98.6208 115.204 99.8236 115.204 101.03C115.204 102.237 115.193 103.44 115.212 104.646C115.215 105.04 115.254 105.441 115.353 105.823C115.749 107.369 117.099 108.201 118.75 107.953C120.256 107.728 121.904 106.728 121.873 104.364C121.846 102.092 121.873 99.816 121.858 97.544C121.858 97.1468 121.961 97.0017 122.369 97.0285C122.956 97.0628 123.547 97.0361 124.169 97.0361V109.679H124.172Z" fill="black" fill-opacity="0.37"/>
<path d="M54.905 98.2198C54.3292 98.8384 53.8297 99.3692 53.2959 99.942C52.5866 99.3043 51.763 98.8995 50.8364 98.8537C50.1348 98.8193 49.4027 98.8804 48.7202 99.0408C47.9156 99.2279 47.5229 99.7702 47.5191 100.404C47.5152 101.034 47.866 101.53 48.663 101.767C49.5476 102.031 50.4704 102.176 51.3703 102.386C51.9918 102.531 52.6248 102.649 53.2234 102.871C54.8478 103.47 55.5113 104.681 55.2711 106.403C55.0423 108.03 54.1271 109.084 52.6019 109.561C50.3941 110.248 48.2092 110.157 46.1158 109.114C45.6506 108.881 45.2388 108.534 44.8613 108.282C45.4219 107.663 45.9252 107.102 46.4476 106.525C47.3856 107.361 48.4228 107.877 49.6124 107.915C50.3293 107.942 51.0728 107.842 51.7668 107.655C52.5752 107.438 52.9527 106.854 52.9451 106.159C52.9374 105.479 52.5714 104.94 51.7668 104.711C50.8479 104.448 49.8946 104.314 48.9604 104.108C48.4113 103.986 47.8622 103.86 47.3284 103.692C44.5677 102.81 44.705 99.3654 46.2684 98.0289C47.1873 97.2423 48.2588 96.8757 49.4447 96.7879C50.9737 96.6772 52.4608 96.8375 53.845 97.5401C54.2034 97.7234 54.5275 97.9754 54.9088 98.2198H54.905Z" fill="black" fill-opacity="0.37"/>
<path d="M135.209 99.9382C133.996 98.9187 132.627 98.6208 131.125 98.9034C130.759 98.9722 130.381 99.1058 130.069 99.3044C129.157 99.8886 129.173 101.088 130.141 101.561C130.797 101.882 131.548 102.023 132.269 102.203C133.108 102.413 133.973 102.527 134.805 102.768C136.017 103.115 136.986 103.799 137.153 105.154C137.34 106.674 137.012 108.045 135.666 108.992C134.805 109.595 133.817 109.828 132.791 109.927C130.957 110.107 129.207 109.859 127.606 108.885C127.297 108.698 127.026 108.45 126.729 108.221C127.297 107.648 127.827 107.113 128.38 106.556C129.108 107.201 129.943 107.648 130.904 107.846C131.895 108.049 132.875 108.011 133.817 107.613C134.618 107.277 134.969 106.64 134.816 105.872C134.702 105.284 134.313 104.914 133.779 104.757C133.009 104.532 132.216 104.387 131.43 104.207C130.763 104.058 130.084 103.948 129.432 103.753C128.185 103.383 127.316 102.626 127.125 101.267C126.915 99.7817 127.346 98.5559 128.616 97.6853C129.47 97.1011 130.431 96.8452 131.449 96.7803C132.868 96.6925 134.252 96.8376 135.552 97.4447C135.971 97.6433 136.357 97.9182 136.822 98.2008C136.25 98.8194 135.735 99.3693 135.209 99.9382Z" fill="black" fill-opacity="0.37"/>
<path d="M140.653 99.0561H138.594V97.0437H140.653V93.1565H143.002V97.0094H146.392V99.0561H143.04C143.028 99.2547 143.013 99.4036 143.013 99.5487C143.013 101.668 143.013 103.791 143.013 105.91C143.013 106.094 143.013 106.277 143.036 106.46C143.166 107.411 143.711 107.919 144.672 107.881C145.24 107.858 145.804 107.713 146.422 107.617C146.422 108.129 146.433 108.702 146.411 109.271C146.411 109.362 146.266 109.496 146.159 109.53C144.927 109.947 143.673 110.042 142.445 109.565C141.095 109.042 140.71 107.862 140.68 106.571C140.626 104.268 140.657 101.962 140.649 99.6594C140.649 99.48 140.649 99.3005 140.649 99.0523L140.653 99.0561Z" fill="black" fill-opacity="0.37"/>
<path d="M79.594 109.675H77.2871V90.6592H79.594V109.675Z" fill="black" fill-opacity="0.37"/>
<path d="M156.105 96.8109V99.0638C155.784 99.0638 155.483 99.0638 155.182 99.0638C153.012 99.0791 151.578 100.335 151.464 102.512C151.35 104.673 151.395 106.842 151.369 109.003C151.369 109.213 151.369 109.427 151.369 109.668H149.069C149.058 109.511 149.039 109.351 149.039 109.191C149.039 105.315 149.043 101.443 149.031 97.5669C149.031 97.1584 149.13 96.998 149.561 97.0247C150.137 97.0591 150.717 97.0324 151.353 97.0324V98.8194C151.384 98.8423 151.411 98.8652 151.441 98.8882C152.577 97.2424 154.133 96.5856 156.105 96.8109Z" fill="black" fill-opacity="0.37"/>
<path d="M158.189 97.0781C158.296 97.0629 158.384 97.0361 158.472 97.0361C159.124 97.0361 159.78 97.0361 160.466 97.0361V109.664H158.189V97.082V97.0781Z" fill="black" fill-opacity="0.37"/>
<path d="M159.338 93.9622C158.373 93.9661 157.66 93.2749 157.641 92.3088C157.622 91.3656 158.35 90.6287 159.307 90.621C160.264 90.6134 160.997 91.3275 161 92.2783C161 93.2405 160.295 93.9546 159.338 93.9622Z" fill="black" fill-opacity="0.37"/>
</g>
<defs>
<clipPath id="clip0_724_3587">
<rect width="161" height="110" fill="white"/>
</clipPath>
</defs>
</svg>
