<svg width="99" height="154" viewBox="0 0 99 154" fill="none" xmlns="http://www.w3.org/2000/svg">
<g clip-path="url(#clip0_724_3581)">
<path d="M44.9593 128.42C44.8893 113.48 55.6793 102.85 71.1293 102.63C86.7093 102.41 98.0893 113.21 98.0593 128.17C98.0193 143.18 87.2293 153.56 71.6393 153.58C55.9793 153.6 45.0393 143.28 44.9593 128.42ZM58.6293 128.22C58.6993 136.05 64.1093 141.52 71.6893 141.42C79.1793 141.32 84.7493 135.48 84.5593 127.92C84.3793 120.47 78.9293 115.02 71.6193 115C63.9093 114.98 58.5593 120.42 58.6293 128.23V128.22Z" fill="black" fill-opacity="0.37"/>
<path d="M33.8603 76.36V100.42H21.5703V53.1C28.3103 51.89 33.9503 51.92 37.9703 59.08C41.5003 65.36 46.3803 70.88 51.6503 76.57V52.99H64.2603V100.29C58.2603 101.18 53.1203 101.73 49.2903 95.24C45.2303 88.36 39.9303 82.22 35.1803 75.75C34.7403 75.95 34.3003 76.15 33.8703 76.35L33.8603 76.36Z" fill="black" fill-opacity="0.37"/>
<path d="M42.4996 48.63C37.1796 48.63 32.9096 48.85 28.6996 48.5C27.4196 48.39 25.9596 46.92 25.1296 45.7C21.3296 40.12 17.7096 34.41 13.0496 28.87V48.37H0.0996094V0.419991H12.7696V18.87C13.1696 18.98 13.5796 19.09 13.9796 19.2C17.0096 14.38 20.2396 9.67999 22.9996 4.70999C24.8996 1.25999 27.1996 -0.390009 31.2396 0.129991C34.1296 0.499991 37.0996 0.199991 41.1296 0.199991C36.4896 7.19999 32.4496 13.56 28.0996 19.7C26.0996 22.52 25.9496 24.63 28.0896 27.54C32.8796 34.06 37.2496 40.89 42.5096 48.63H42.4996Z" fill="black" fill-opacity="0.37"/>
<path d="M94.1406 0.20001C88.0706 16.11 82.3606 31.22 76.4506 46.25C76.0206 47.35 74.0206 48.56 72.8206 48.5C69.4506 48.33 63.8506 48.5 63.1006 46.8C56.4706 31.73 50.7006 16.28 44.3906 0.20001C49.0306 0.20001 52.9706 -0.11999 56.8006 0.37001C58.1906 0.55001 59.9706 2.42001 60.5006 3.91001C63.4806 12.29 66.1406 20.78 69.3906 30.71C72.3806 21.61 75.2906 13.99 77.3106 6.13001C78.5206 1.41001 80.5506 -0.54999 85.4106 0.13001C88.0006 0.50001 90.6806 0.19001 94.1406 0.19001V0.20001Z" fill="black" fill-opacity="0.37"/>
<path d="M12.6508 153.02H0.0507812V105.16H12.6508V153.02Z" fill="black" fill-opacity="0.37"/>
<path d="M0 52.86H12.66V100.42H0V52.86Z" fill="black" fill-opacity="0.37"/>
<path d="M40.6492 116.18H17.4492V105.22H40.6492V116.18Z" fill="black" fill-opacity="0.37"/>
<path d="M17.4609 135.85V124.87H38.3609V135.85H17.4609Z" fill="black" fill-opacity="0.37"/>
</g>
<defs>
<clipPath id="clip0_724_3581">
<rect width="98.06" height="153.57" fill="white"/>
</clipPath>
</defs>
</svg>
