<svg width="143" height="149" viewBox="0 0 143 149" fill="none" xmlns="http://www.w3.org/2000/svg">
<g clip-path="url(#clip0_732_3597)">
<path d="M72.5199 89.6061C72.3492 87.0224 72.2413 84.8573 72.0616 82.7012C71.8728 80.4686 70.7089 79.1587 68.9788 79.2938C66.9567 79.4558 66.2466 80.7927 66.1388 82.6697C66.0085 84.8933 65.7793 87.1079 65.5861 89.4621H58.459C58.7196 85.5865 58.9039 81.882 59.2409 78.1865C59.497 75.3597 60.0318 72.5599 60.252 69.7331C60.3284 68.7114 59.8296 67.6491 59.6049 66.6048C59.3982 65.6325 59.2049 64.6602 58.9218 63.2919H79.2156C78.8112 64.7503 78.4202 65.8621 78.209 67.0099C78.0113 68.0812 77.845 69.2065 77.9394 70.2823C78.4022 75.4902 79.0269 80.6847 79.4583 85.8971C79.7683 89.6061 79.674 89.6106 76.0475 89.6106C74.9465 89.6106 73.8456 89.6106 72.5199 89.6106V89.6061Z" fill="black" fill-opacity="0.37"/>
<path d="M108.447 93.5537C107.723 94.8366 107.175 96.0744 106.371 97.1142C106.029 97.5553 105.094 97.8524 104.515 97.7444C100.515 97.0152 96.9741 98.1405 93.6488 100.238C88.454 103.519 83.0211 103.42 77.9117 100.531C71.8271 97.0872 66.1965 97.1592 60.1434 100.562C55.0834 103.407 49.7269 103.488 44.6085 100.306C41.2023 98.1855 37.6207 97.0152 33.5359 97.7399C32.9427 97.8434 32.0125 97.3483 31.5901 96.8351C30.8442 95.9349 30.3723 94.8141 29.6309 93.5132C34.4392 92.2619 38.888 91.9108 43.2559 94.2559C45.9971 95.7233 48.581 97.8839 51.9109 97.5193C54.3689 97.2493 57.0337 96.9027 59.1458 95.7458C65.9358 92.0368 72.4563 92.0143 79.125 95.9079C83.3266 98.3566 87.744 98.4331 91.8827 95.8494C96.5607 92.9281 101.436 91.7577 106.838 93.0631C107.332 93.1801 107.813 93.3602 108.456 93.5582L108.447 93.5537Z" fill="black" fill-opacity="0.37"/>
<path d="M86.8817 59.4704C88.2882 59.0113 89.2004 58.8312 89.5105 60.4022C89.5779 60.7533 90.1172 61.1719 90.5036 61.2484C90.8182 61.3114 91.2676 60.9603 91.5776 60.6993C92.1573 60.2131 92.8673 59.1328 93.1909 59.2454C93.9099 59.4929 94.4222 60.3347 95.4108 61.3249C96.2331 60.6723 97.3341 59.799 98.4351 58.9213L99.3518 59.5514C98.8485 60.7308 98.125 61.8741 97.9138 63.1029C97.7251 64.1922 97.8284 65.5246 98.3227 66.4833C98.8036 67.4061 99.5001 67.9102 98.3137 68.806C97.9498 69.0806 97.8554 69.9808 97.9453 70.5435C98.7766 75.7694 99.6888 80.9863 100.534 86.2123C100.695 87.2161 100.677 88.2513 100.758 89.4442H85.1426C85.7897 85.4831 86.4008 81.702 87.0344 77.921C87.3805 75.8594 87.8658 73.8204 88.0995 71.7498C88.2253 70.629 88.9847 69.2606 87.4119 68.3604C87.2816 68.2838 87.6052 67.028 87.9871 66.5194C88.9668 65.214 89.0836 64.1382 88.0006 62.7428C87.349 61.9056 87.2546 60.6317 86.8817 59.4659V59.4704Z" fill="black" fill-opacity="0.37"/>
<path d="M38.8256 59.5649C40.2366 58.9482 41.0949 58.8627 41.4589 60.3751C41.5488 60.7397 42.169 61.2934 42.4251 61.2349C42.8835 61.1268 43.243 60.6137 43.6609 60.2896C44.1642 59.8935 44.6585 59.2768 45.2022 59.2183C45.5797 59.1778 46.0336 59.934 46.4695 60.3211C46.8514 60.6587 47.2199 61.1718 47.6513 61.2394C47.9614 61.2889 48.3883 60.7577 48.7253 60.4471C49.2736 59.9385 49.7903 59.3983 50.3206 58.8717C50.6531 59.0878 50.9812 59.3038 51.3137 59.5199C50.8239 60.7037 50.1274 61.847 49.9072 63.0759C49.714 64.1652 49.7229 65.547 50.2487 66.4338C50.8644 67.4601 51.4755 67.9867 50.1409 68.8735C49.8038 69.0985 49.7993 70.0798 49.8937 70.674C50.734 75.9044 51.6418 81.1213 52.5046 86.3473C52.6619 87.288 52.6978 88.2513 52.8101 89.4171H37.082C37.7696 85.339 38.4212 81.4049 39.0997 77.4753C39.4188 75.6388 39.8951 73.8203 40.0839 71.9703C40.2097 70.7775 40.9871 69.3416 39.3738 68.3693C39.2345 68.2838 39.5716 67.055 39.949 66.5463C40.9017 65.2455 41.0949 64.1652 39.9895 62.7653C39.3289 61.928 39.1986 60.6677 38.8211 59.5739L38.8256 59.5649Z" fill="black" fill-opacity="0.37"/>
<path d="M36.1875 103.051C39.4589 102.678 42.1687 103.578 44.7256 105.068C50.0237 108.156 55.3129 108.174 60.6604 105.162C66.2597 102.007 71.8948 102.007 77.4895 105.171C82.8326 108.187 88.1307 108.156 93.4199 105.063C95.9858 103.564 98.7 102.687 102.542 103.114C100.327 105.081 98.7045 106.913 96.7362 108.201C89.6316 112.851 82.3113 113.805 74.6315 109.295C70.6186 106.94 66.5248 107.503 62.5074 109.79C54.0232 114.62 41.6249 111.487 36.192 103.051H36.1875Z" fill="black" fill-opacity="0.37"/>
<path d="M59.8438 49.6577H62.4232C63.6005 50.6704 64.3285 51.7192 65.2407 51.9173C65.7575 52.0298 66.5754 50.7425 66.9529 49.6442H71.0601C71.2893 50.3329 71.5365 51.0846 71.8241 51.9443H74.2282C74.4619 51.1746 74.6731 50.4724 74.9203 49.6442H77.8547C77.9176 51.4312 78.3175 53.0651 76.7447 54.591C76.1336 55.1852 76.2999 56.6706 76.2774 57.7554C76.2549 58.7097 76.4571 59.6684 76.583 60.8252H61.6547C61.7311 59.5739 61.9738 58.3811 61.821 57.2378C61.6637 56.0764 61.0661 54.9871 60.7605 53.8393C60.41 52.5295 60.1718 51.1881 59.8438 49.6577Z" fill="black" fill-opacity="0.37"/>
<path d="M98.1477 11.5682C96.6827 12.8736 95.2717 13.8909 94.1662 15.1737C92.7057 16.8707 91.3576 16.7041 89.7129 15.3133C90.733 11.5142 91.771 7.64765 92.8001 3.80359C95.6941 4.1952 95.7345 4.24921 95.0155 6.79241C94.5706 8.36334 94.1257 9.92977 93.4876 12.1624C95.3391 10.4519 96.6692 9.11505 98.1252 7.93122C98.7408 7.43159 99.6171 7.25154 100.377 6.92295C100.655 7.67916 101.123 8.42636 101.167 9.19607C101.284 11.0956 101.203 13.0086 101.203 15.1332C102.583 13.1076 103.904 11.1631 105.329 9.07004C106.214 9.56968 107.018 10.0243 107.899 10.5239C105.733 13.6073 103.711 16.5646 101.585 19.4454C101.257 19.891 100.251 20.3546 99.9182 20.1701C99.2037 19.7695 98.2959 18.9953 98.224 18.2931C98.0039 16.1775 98.1432 14.0214 98.1432 11.5592L98.1477 11.5682Z" fill="black" fill-opacity="0.37"/>
<path d="M117.025 34.1328C115.017 33.1336 114.558 31.8732 115.601 29.9512C116.405 28.4613 116.904 26.8003 117.74 24.7118C115.425 25.657 113.498 26.3232 111.682 27.2189C110.352 27.8761 109.404 27.3945 108.878 26.3682C108.595 25.8146 108.833 24.7343 109.22 24.1401C111.044 21.3178 112.994 18.5811 115.066 15.5787C115.866 16.1999 116.585 16.7581 117.385 17.3792C115.965 19.3958 114.639 21.2773 113.318 23.1588C113.39 23.2759 113.466 23.3929 113.538 23.5099C115.425 22.7132 117.286 21.849 119.214 21.1558C119.784 20.9532 120.683 21.0252 121.137 21.3628C121.452 21.6014 121.443 22.5782 121.254 23.1093C120.562 25.0538 119.73 26.9489 119.263 29.1095C121.092 27.7636 122.926 26.4177 124.961 24.9233C125.599 25.6255 126.219 26.3052 126.965 27.1244C123.519 29.5551 120.238 31.8687 117.03 34.1328H117.025Z" fill="black" fill-opacity="0.37"/>
<path d="M17.3095 126.741C15.7322 125.747 14.101 124.833 12.6001 123.735C11.4542 122.897 11.6429 120.624 9.50391 120.782C9.59827 120.287 9.58479 119.728 9.81398 119.314C10.1285 118.752 10.852 118.356 11.0228 117.779C11.8901 114.791 13.9932 112.855 16.9635 112.481C19.516 112.162 22.1313 113.674 23.6322 116.159C24.0187 116.798 24.913 117.118 25.3578 117.739C25.6409 118.135 25.7308 118.891 25.5511 119.35C25.2814 120.044 24.5085 120.557 24.2883 121.254C23.3132 124.306 20.7697 126.264 17.305 126.746L17.3095 126.741ZM13.9437 120.584C14.9683 122.713 16.3704 123.501 18.3251 123.167C20.0328 122.875 21.1742 121.921 21.4348 119.81C18.8779 120.075 16.5726 120.314 13.9437 120.584ZM21.4168 118.063C20.4597 116.209 19.2598 115.277 17.4399 115.443C15.5705 115.614 14.3616 116.641 13.8179 118.824C16.3928 118.567 18.77 118.329 21.4213 118.063H21.4168Z" fill="black" fill-opacity="0.37"/>
<path d="M69.0557 33.3947C71.8778 38.238 74.3268 42.4376 77.0366 47.0964H61.1152C63.7935 42.4736 66.2561 38.2245 69.0512 33.3947H69.0557Z" fill="black" fill-opacity="0.37"/>
<path d="M54.4867 6.45928C54.963 9.19603 55.3315 11.3071 55.7494 13.6883C54.7563 13.8233 53.9205 13.9403 52.8779 14.0799C52.1185 10.0513 51.395 6.1847 50.6445 2.1921C51.9612 1.64295 52.8734 1.1073 54.2036 2.65573C56.0101 4.76231 58.3918 6.37375 60.9352 8.54335C60.5083 5.50501 60.1623 3.04284 59.7848 0.382605C60.76 0.252069 61.5509 0.14404 62.6473 0C63.2765 4.03761 63.8876 7.9807 64.4898 11.8608C62.8091 12.9186 61.5823 12.545 60.3286 11.3971C58.585 9.7947 56.7156 8.33179 54.4867 6.46378V6.45928Z" fill="black" fill-opacity="0.37"/>
<path d="M126.661 106.954C129.352 108.367 131.568 109.533 133.945 110.78C133.527 111.644 133.154 112.418 132.669 113.422C128.975 111.491 125.438 109.641 121.668 107.665C123.641 103.024 128.543 104.946 131.752 102.745C129.761 101.742 127.838 100.769 125.735 99.7115C126.139 98.8562 126.503 98.0865 126.966 97.1143C130.673 98.8967 134.268 100.625 137.998 102.421C137.531 103.808 137.306 104.802 135.351 104.96C132.588 105.185 129.887 106.171 126.661 106.954Z" fill="black" fill-opacity="0.37"/>
<path d="M35.4248 133.957C36.5932 135.654 36.0989 137.049 34.8182 138.224C33.4431 139.484 31.8747 139.228 30.4592 138.382C28.5449 137.243 26.7339 135.928 24.7207 134.587C27.0754 131.121 29.3268 127.808 31.704 124.306C33.3802 125.467 35.0159 126.476 36.5168 127.66C39.5456 130.045 39.231 132.233 35.4248 133.957ZM28.2123 134.731C29.929 135.276 31.2456 135.726 32.5893 136.059C32.7061 136.09 33.2813 135.172 33.1869 135.051C32.3376 133.957 31.3849 132.949 30.3424 131.778C29.5784 132.836 29.1111 133.489 28.2123 134.731ZM33.0926 127.57C32.378 128.74 31.9691 129.402 31.358 130.396C32.5803 130.842 33.5509 131.265 34.5665 131.504C34.7328 131.544 35.4113 130.558 35.308 130.387C34.7642 129.505 34.0407 128.731 33.0926 127.57Z" fill="black" fill-opacity="0.37"/>
<path d="M136.303 42.9103C136.321 46.6868 133.477 49.5676 129.693 49.5991C125.914 49.6306 122.822 46.4753 122.809 42.5772C122.795 38.8412 125.685 35.9379 129.446 35.9064C133.288 35.8749 136.29 38.9402 136.303 42.9103ZM129.693 38.7602C127.617 38.7061 125.631 40.6102 125.599 42.6852C125.568 44.6973 127.329 46.5833 129.347 46.7003C131.428 46.8219 133.441 44.9989 133.54 42.8968C133.639 40.8037 131.792 38.8097 129.693 38.7557V38.7602Z" fill="black" fill-opacity="0.37"/>
<path d="M71.1278 143.18V136.689H73.815V148.874C72.4264 149.121 71.4962 149.167 70.5481 147.609C69.1011 145.228 67.1014 143.189 64.877 140.434V148.658H62.0684V136.743C63.8838 136.189 65.0702 136.478 66.1172 137.913C67.5058 139.822 69.1011 141.573 70.611 143.391C70.7817 143.319 70.957 143.252 71.1278 143.18Z" fill="black" fill-opacity="0.37"/>
<path d="M90.5273 137.778C90.0689 136.216 89.6735 134.871 89.2016 133.264C90.0644 132.985 90.8733 132.724 91.9968 132.363C93.255 136.342 94.4683 140.196 95.74 144.211C94.6885 144.553 93.8662 144.823 92.9225 145.129C92.3518 143.499 91.8395 142.032 91.2373 140.313C89.5207 140.785 87.8355 141.249 85.9931 141.757C86.438 143.445 86.8514 144.998 87.3053 146.713C86.3706 146.988 85.5347 147.231 84.4158 147.56C83.2969 143.58 82.2229 139.741 81.0859 135.699C81.9802 135.393 82.7891 135.114 83.881 134.74C84.3619 136.275 84.8202 137.724 85.3235 139.34C87.1165 138.8 88.7927 138.296 90.5273 137.778Z" fill="black" fill-opacity="0.37"/>
<path d="M114.68 133.475C113.287 134.889 112.123 135.798 110.469 134.339C110.209 134.11 109.265 134.29 108.91 134.592C107.306 135.969 104.025 136.018 104.933 139.552C105.023 139.912 103.594 140.659 102.502 141.514C102.075 138.319 101.711 135.622 101.356 132.922C101.199 131.738 101.172 130.527 100.884 129.375C100.552 128.038 101.253 127.326 102.273 126.984C102.969 126.75 103.994 126.683 104.578 127.034C107.948 129.068 111.233 131.252 114.685 133.471L114.68 133.475ZM103.706 129.699C103.976 131.535 104.16 132.818 104.389 134.362C105.549 133.624 106.497 133.021 107.593 132.318C106.295 131.445 105.225 130.725 103.706 129.699Z" fill="black" fill-opacity="0.37"/>
<path d="M82.2934 13.5532C81.2418 13.3641 80.3925 13.2111 79.4039 13.031C79.687 10.6004 79.9701 8.32724 80.2173 6.04512C80.4015 4.32114 79.7993 3.05629 77.9434 2.81773C76.0471 2.57466 75.2112 3.77199 74.9551 5.41944C74.6091 7.62055 74.3754 9.83966 74.0608 12.2883C73.0947 12.2163 72.2498 12.1578 70.9961 12.0633C71.4365 9.04744 71.6387 6.14864 72.3262 3.37138C72.9868 0.702145 75.5752 -0.396157 78.8781 0.134989C81.5384 0.562607 83.2146 2.3586 83.309 4.96932C83.3404 5.86057 83.282 6.76531 83.1697 7.65206C82.9225 9.56058 82.6124 11.4646 82.3024 13.5487L82.2934 13.5532Z" fill="black" fill-opacity="0.37"/>
<path d="M42.4668 144.157C43.725 140.146 44.9024 136.392 46.1786 132.332C49.158 133.255 52.034 134.146 55.1212 135.1C54.883 135.897 54.6763 136.577 54.4067 137.472C52.3845 136.874 50.4791 136.316 48.3806 135.694C48.1559 136.343 47.9312 136.995 47.6571 137.787C49.3872 138.382 50.924 138.908 52.5957 139.48C52.3755 140.236 52.1733 140.92 52.0879 141.217C50.1107 142.568 47.4414 138.301 46.1247 142.635C48.1334 143.283 49.9624 143.869 52.0699 144.548C51.8632 145.322 51.67 146.052 51.4273 146.97C48.3536 146.007 45.4731 145.102 42.4668 144.157Z" fill="black" fill-opacity="0.37"/>
<path d="M46.6728 16.2765C43.7428 17.6674 41.0646 18.9412 38.2785 20.2646C37.8785 19.5444 37.528 18.9097 37.0831 18.104C39.0109 17.1497 40.8534 16.2315 42.8216 15.2547C42.4801 14.575 42.197 14.0124 41.824 13.2742C40.2332 13.9899 38.7638 14.647 37.1415 15.3762C36.7686 14.6831 36.436 14.0574 35.9956 13.2382C37.6224 12.4234 39.1233 11.6762 40.7545 10.8615C40.395 10.1143 40.0894 9.47062 39.712 8.6919C37.7752 9.56514 35.9687 10.3799 34.0229 11.2576C33.6544 10.5869 33.3084 9.95675 32.832 9.09251C35.708 7.72864 38.4402 6.43228 41.3612 5.0459C43.1362 8.79993 44.8483 12.4144 46.6728 16.272V16.2765Z" fill="black" fill-opacity="0.37"/>
<path d="M134.947 61.784C133.414 60.7622 132.358 59.7539 131.1 59.2993C129.312 58.6556 128.736 57.5033 128.754 55.1311C131.136 56.4275 133.217 57.5618 135.513 58.8132C136.996 56.8731 138.609 54.771 140.299 52.5654C142.928 56.6165 138.636 58.2325 137.607 61.1988C139.216 60.9287 140.69 60.6812 142.272 60.4156C142.496 61.2933 142.694 62.0675 142.995 63.2379C138.978 64.1201 135.041 64.9843 130.934 65.8846C130.691 64.8808 130.484 64.0391 130.242 63.0398C131.707 62.6482 133.041 62.2926 134.942 61.784H134.947Z" fill="black" fill-opacity="0.37"/>
<path d="M5.05996 112.288C1.55034 109.038 5.39699 106.423 5.66212 103.204C4.19716 103.853 2.88049 104.429 1.34812 105.108C0.94818 104.339 0.552731 103.578 0 102.52C3.68937 100.72 7.27088 98.9732 11.0996 97.1052C11.5534 97.992 11.9713 98.8022 12.4432 99.7249C11.0861 100.454 9.86377 101.107 8.14267 102.034C9.9177 102.705 11.2478 103.524 12.6364 103.65C14.5283 103.821 15.1709 104.843 15.6922 107.102C13.0813 106.382 10.8164 105.761 8.32242 105.077C7.32481 107.287 6.19688 109.776 5.05996 112.297V112.288Z" fill="black" fill-opacity="0.37"/>
<path d="M132.358 82.071C132.79 82.7867 133.163 83.4034 133.486 83.9301C132.911 85.0734 132.255 86.0681 131.923 87.1664C131.783 87.6256 132.331 88.2918 132.565 88.8634C133.05 88.5978 133.711 88.4538 133.981 88.0487C134.551 87.189 134.888 86.1807 135.383 85.2624C136.237 83.6735 137.508 82.7732 139.391 83.1063C141.31 83.4439 142.375 84.6142 142.694 86.5363C143.148 89.255 141.836 91.9738 139.135 93.5402C138.722 92.883 138.304 92.2168 138.021 91.7667C138.816 90.3848 139.634 89.246 140.11 87.9812C140.276 87.5401 139.598 86.7838 139.301 86.1717C138.749 86.4553 138.003 86.5993 137.684 87.0449C137.05 87.9497 136.722 89.057 136.142 90.0067C135.243 91.4786 133.945 92.1808 132.17 91.7667C130.287 91.3301 129.411 90.0517 129.361 88.2287C129.289 85.7486 129.887 83.5384 132.358 82.0755V82.071Z" fill="black" fill-opacity="0.37"/>
<path d="M109.58 121.957C110.784 119.801 112.142 119.593 114.024 120.512C116.02 121.488 118.163 122.164 120.729 123.158C119.642 120.674 118.869 118.459 117.727 116.452C116.658 114.566 117.013 113.301 118.9 112.036C120.689 116.006 122.486 119.9 124.149 123.856C124.329 124.284 123.839 125.229 123.389 125.63C122.873 126.084 121.92 126.57 121.39 126.386C117.471 125.022 113.606 123.492 109.585 121.961L109.58 121.957Z" fill="black" fill-opacity="0.37"/>
<path d="M57.7129 116.771C60.2384 115.785 62.6785 114.899 65.0647 113.877C67.7609 112.724 70.3808 112.72 73.0815 113.89C75.4632 114.921 77.9123 115.79 80.3614 116.74C72.8613 118.743 65.3028 118.644 57.7129 116.771Z" fill="black" fill-opacity="0.37"/>
<path d="M97.8473 56.9947H88.3655C88.0509 54.8791 88.6261 53.1957 90.3068 52.0524C91.9829 50.909 93.8568 50.8775 95.5959 51.8858C97.4698 52.9661 98.045 54.7351 97.8428 56.9992L97.8473 56.9947Z" fill="black" fill-opacity="0.37"/>
<path d="M49.7092 57.0937C46.7478 57.0937 44.0021 57.0982 41.2609 57.0847C40.9778 57.0847 40.6947 56.9811 40.3847 56.9181C40.0162 54.7395 40.5644 52.7365 42.5327 51.9983C44.0291 51.4356 46.0647 51.4401 47.5657 51.9938C49.5519 52.7275 50.0327 54.7485 49.7137 57.0982L49.7092 57.0937Z" fill="black" fill-opacity="0.37"/>
<path d="M46.4752 36.6491C47.8817 36.8922 48.7985 37.0497 49.9534 37.2478C50.3218 36.3475 50.7308 35.3527 51.2476 34.0879C51.7239 35.3122 52.1104 36.298 52.4878 37.2658C53.5843 37.0722 54.5684 36.8967 56.0514 36.6356C55.0358 37.7834 54.3617 38.5441 53.6427 39.3588C54.3437 40.1691 55.0133 40.9433 56.0963 42.1946C54.6269 41.893 53.6877 41.704 52.5193 41.4609C52.1553 42.3972 51.7688 43.392 51.2745 44.6658C50.7937 43.482 50.4207 42.5592 49.9893 41.5059C49.0052 41.686 48.021 41.8615 46.4707 42.1451C47.4458 41.0063 48.1244 40.2141 48.8389 39.3768C48.1289 38.5576 47.4638 37.7924 46.4797 36.6536L46.4752 36.6491Z" fill="black" fill-opacity="0.37"/>
<path d="M83.4453 42.9508C86.3797 42.5592 87.7323 41.3798 87.7323 39.3633C87.7323 37.3602 86.3887 36.1854 83.661 35.7938C85.4271 34.1959 87.7458 34.2409 89.5433 35.9108C91.3723 37.6078 91.5655 40.4931 89.9792 42.3881C88.312 44.3822 85.9304 44.6522 83.4453 42.9508Z" fill="black" fill-opacity="0.37"/>
<path d="M66.2832 29.4291C67.1999 28.7854 68.0447 27.7816 69.0469 27.5836C70.5388 27.2955 71.4285 28.4883 71.4645 29.8882C71.5004 31.3151 70.5837 32.4809 69.1098 32.2514C68.1032 32.0938 67.2269 31.117 66.2967 30.5049C66.2967 30.1448 66.2877 29.7847 66.2877 29.4246L66.2832 29.4291Z" fill="black" fill-opacity="0.37"/>
</g>
<defs>
<clipPath id="clip0_732_3597">
<rect width="143" height="149" fill="white"/>
</clipPath>
</defs>
</svg>
