<svg width="419" height="86" viewBox="0 0 419 86" fill="none" xmlns="http://www.w3.org/2000/svg">
<g clip-path="url(#clip0_724_3589)">
<path d="M34.7358 0C36.1839 1.57248 36.5617 3.41019 36.5554 5.52578C36.4987 30.717 36.5239 55.9082 36.5176 81.0994C36.5176 85.9495 35.6614 86.6189 30.8196 85.5579C21.7469 83.5687 12.712 81.4152 3.60154 79.6217C0.680148 79.0533 -0.0124246 77.7208 0.000167577 75.0306C0.0757209 53.9063 0.0694248 32.7821 0.00646369 11.6578C0.000167577 8.70862 0.938289 7.30665 4.06746 6.60567C13.4046 4.50272 22.8362 2.79131 32.0096 0H34.7358ZM24.4291 43.3915H24.4606C24.4606 35.7186 24.4795 28.0457 24.4417 20.3727C24.4417 19.2992 24.9706 17.9161 23.7743 17.253C22.3451 16.4573 21.5077 17.9161 20.6262 18.6171C4.77262 31.279 4.9741 55.5546 21.004 68.0965C21.7847 68.7091 22.5151 69.6879 23.6547 69.1511C24.8257 68.5954 24.4102 67.3766 24.4165 66.4167C24.4417 58.7437 24.4291 51.0708 24.4291 43.3979V43.3915Z" fill="black" fill-opacity="0.37"/>
<path d="M419.001 40.0192C416.508 41.3454 415.525 40.3287 415.33 37.79C415.003 33.5146 414.568 29.2519 413.744 24.8313C412.673 28.1341 411.603 31.4369 410.539 34.7398C410.155 35.9207 409.802 37.108 409.406 38.2826C408.984 39.5267 408.31 40.6002 406.837 40.6129C405.345 40.6255 404.709 39.514 404.306 38.2699C402.864 33.7988 401.428 29.3213 399.451 24.8755C399.086 29.0245 398.771 33.1736 398.337 37.3164C398.192 38.6741 398.469 40.7392 396.322 40.5624C394.213 40.3918 394.717 38.5289 394.874 37.0764C395.403 32.2516 395.963 27.4331 396.417 22.602C396.58 20.8843 396.933 19.375 398.923 19.1539C401.032 18.9203 401.901 20.3475 402.455 22.1094C403.871 26.6121 405.326 31.1022 406.925 36.1228C408.549 31.1843 410.042 26.789 411.427 22.362C411.968 20.6254 412.591 19.0529 414.732 19.1539C417.251 19.2739 417.263 21.32 417.49 23.1072C417.931 26.4921 417.691 29.9781 418.988 33.2368V40.0192H419.001Z" fill="black" fill-opacity="0.37"/>
<path d="M76.3207 43.5684C76.3207 53.9569 76.327 64.3516 76.3207 74.7401C76.3207 78.845 75.8862 79.287 71.9134 79.2933C62.8344 79.306 53.7617 79.306 44.6827 79.2933C40.6532 79.287 39.9606 78.5987 39.9606 74.5001C39.948 53.8306 39.948 33.161 39.9606 12.4978C39.9606 8.34238 40.7476 7.57193 44.922 7.56562C54.0009 7.55299 63.0736 7.62877 72.1526 7.52141C75.2125 7.48352 76.4025 8.63288 76.371 11.7147C76.2577 22.3305 76.327 32.9463 76.327 43.5621L76.3207 43.5684ZM50.5003 43.3916C50.5003 49.9341 50.4877 56.4766 50.5129 63.0191C50.5129 64.1053 50.0785 65.4947 51.3125 66.0883C52.4773 66.6504 53.4217 65.5389 54.3157 64.9642C70.2197 54.7589 69.9364 31.3675 53.8184 21.6232C51.0921 19.9749 50.5381 20.2402 50.5129 23.423C50.4688 30.0792 50.5003 36.7354 50.5003 43.3853V43.3916Z" fill="black" fill-opacity="0.37"/>
<path d="M279.579 35.4787C281.014 31.0454 282.481 26.6185 283.86 22.1663C284.408 20.3917 285.208 18.9708 287.317 19.1666C289.407 19.356 289.577 21.0422 289.753 22.6589C290.307 27.6984 290.868 32.7379 291.447 37.7774C291.604 39.1541 291.39 40.4361 289.816 40.6066C288.135 40.7834 287.839 39.3562 287.72 38.0932C287.31 33.7925 286.97 29.4919 285.951 25.1281C284.842 28.6836 283.854 32.2895 282.576 35.7881C281.896 37.6448 282.066 40.6129 279.151 40.5434C276.519 40.4803 276.588 37.7332 275.952 35.9207C274.693 32.3085 273.61 28.633 271.891 24.9323C271.545 28.7846 271.199 32.6369 270.84 36.4828C270.764 37.2659 270.645 38.049 270.557 38.832C270.443 39.8362 269.971 40.6382 268.894 40.6129C267.704 40.5877 267.012 39.8172 267.138 38.6047C267.755 32.7758 268.397 26.9532 269.077 21.1306C269.234 19.8107 270.261 19.2045 271.469 19.1413C273.176 19.0529 274.158 20.0191 274.655 21.6106C275.959 25.8038 277.3 29.9845 278.628 34.1714C278.786 34.6577 278.653 35.3397 279.566 35.4724L279.579 35.4787Z" fill="black" fill-opacity="0.37"/>
<path d="M142.753 36.2238C144.377 31.1527 145.775 26.751 147.191 22.362C147.771 20.5685 148.526 18.7876 150.875 19.1791C153.022 19.5328 153.129 21.3263 153.286 23.1009C153.708 27.9383 154.224 32.7694 154.747 37.6005C154.904 39.0593 154.967 40.537 153.053 40.5939C151.366 40.6444 151.322 39.1982 151.208 37.9163C150.83 33.5462 150.402 29.1761 149.552 24.7554C148.325 28.5761 147.122 32.4031 145.85 36.2112C145.265 37.9605 145.246 40.436 142.778 40.556C140.177 40.6823 140.152 38.1562 139.567 36.4322C138.276 32.6368 137.086 28.8098 135.292 25.008C134.926 28.854 134.555 32.6936 134.196 36.5395C134.121 37.3289 134.158 38.131 134.02 38.9014C133.85 39.8487 133.359 40.676 132.257 40.6191C131.01 40.556 130.469 39.7161 130.588 38.5288C131.168 32.801 131.734 27.0668 132.395 21.3452C132.553 19.9559 133.573 19.1665 134.996 19.1349C136.74 19.0907 137.659 20.158 138.15 21.6989C139.617 26.3153 141.078 30.938 142.753 36.2301V36.2238Z" fill="black" fill-opacity="0.37"/>
<path d="M300.482 25.3932C301.407 29.7381 300.771 34.1461 300.979 38.5225C301.036 39.6845 300.482 40.5939 299.254 40.5812C297.988 40.5686 297.648 39.5771 297.648 38.4467C297.655 32.9209 297.667 27.4015 297.648 21.8757C297.648 20.6063 298.064 19.6149 299.317 19.2549C301.029 18.756 302.138 19.7601 302.962 21.0547C305.802 25.5196 308.604 30.016 311.89 35.2575C311.89 30.4264 311.878 26.3721 311.89 22.3178C311.89 21.0295 311.399 19.2486 313.426 19.1917C315.41 19.1349 315.158 20.8842 315.158 22.2104C315.177 27.1678 315.158 32.1315 315.171 37.0889C315.171 38.5035 315.076 39.9055 313.527 40.4612C311.821 41.0738 310.675 40.0192 309.882 38.7246C307.187 34.3166 304.083 30.1549 301.816 25.488C301.779 25.027 301.602 24.6039 301.111 24.547C300.513 24.4775 300.444 24.9322 300.475 25.3996L300.482 25.3932Z" fill="black" fill-opacity="0.37"/>
<path d="M372.018 27.2752C372.018 25.5828 372.03 23.8966 372.018 22.2042C371.999 20.8211 371.885 19.236 373.787 19.1729C375.72 19.1034 375.688 20.6759 375.682 22.0779C375.669 25.2354 375.65 28.3867 375.694 31.5443C375.713 33.1231 375.808 34.7587 376.878 36.0344C378.137 37.5437 379.8 38.03 381.751 37.5437C383.779 37.0322 384.899 35.6744 384.987 33.7041C385.157 29.9908 385.113 26.2711 385.176 22.5578C385.202 21.1179 384.906 19.2613 386.99 19.1855C389.13 19.1097 388.904 20.9474 388.904 22.4126C388.904 25.6775 388.992 28.9488 388.879 32.2137C388.69 37.7963 385.554 40.7581 380.102 40.695C374.844 40.6318 372.125 37.7205 372.024 32.0053C371.992 30.4265 372.024 28.8477 372.024 27.2752H372.018Z" fill="black" fill-opacity="0.37"/>
<path d="M243.931 34.1525C243.931 39.4635 242.816 40.5434 237.433 40.7076C232.881 40.8465 229.147 39.4698 227.114 35.1376C225.219 31.0896 226.157 25.1534 229.223 22.1726C232.623 18.8571 236.753 18.3203 241.179 19.6339C242.445 20.0065 244.157 20.5433 243.553 22.261C242.936 24.0103 241.538 22.7978 240.405 22.501C237.332 21.6926 234.228 21.4969 231.93 24.1556C229.481 26.9911 229.531 30.3697 230.677 33.7357C231.697 36.7101 234.209 37.67 237.068 37.8911C238.27 37.9858 239.888 38.0616 240.298 36.748C240.707 35.4155 240.581 33.8241 240.31 32.4158C240.128 31.4812 238.957 31.9232 238.226 31.898C237.187 31.8537 235.972 31.9674 235.96 30.5591C235.947 28.8982 237.345 29.1382 238.453 29.113C238.566 29.113 238.68 29.113 238.793 29.113C242.218 29.0372 243.931 30.7233 243.931 34.1714V34.1525Z" fill="black" fill-opacity="0.37"/>
<path d="M207.816 34.1524C207.727 36.4196 208.508 38.9204 205.322 40.0382C201.022 41.5475 195.337 40.6128 192.68 37.6763C189.393 34.0451 189.192 27.4015 192.226 23.2019C194.921 19.476 200.972 17.8467 205.385 19.7159C206.5 20.1833 208.011 20.6885 207.463 22.261C206.928 23.7892 205.687 22.9935 204.605 22.6462C201.563 21.6673 198.485 21.4337 196.054 23.9029C193.379 26.6184 193.467 30.0539 194.443 33.4136C195.362 36.5711 198.951 38.3583 202.306 37.8721C204.907 37.4932 204.202 35.6618 204.378 34.083C204.573 32.2895 203.899 31.6264 202.118 31.8537C201.085 31.9863 199.864 31.9611 199.851 30.5528C199.838 28.8919 201.236 29.1319 202.344 29.1066C202.458 29.1066 202.571 29.1066 202.684 29.1066C206.109 29.0308 207.82 30.717 207.816 34.1651V34.1524Z" fill="black" fill-opacity="0.37"/>
<path d="M113.21 29.6118C113.21 27.0163 113.261 24.4207 113.191 21.8315C113.141 19.937 114.041 19.1728 115.855 19.1855C118.461 19.2044 121.068 19.1918 123.668 19.1855C124.808 19.1855 125.828 19.5328 125.758 20.8148C125.689 22.0778 124.65 22.3304 123.511 22.2736C122.377 22.2231 121.232 22.3872 120.117 22.2357C117.681 21.901 116.78 22.6335 116.837 25.2859C116.894 27.7173 117.649 28.2667 119.947 28.2288C121.515 28.2035 124.424 26.9847 124.48 29.4666C124.543 32.3652 121.471 31.1022 119.897 30.9822C117.026 30.7675 116.944 32.1126 116.862 34.3292C116.768 36.83 117.435 37.8531 120.035 37.4679C121.364 37.2721 122.749 37.4237 124.109 37.43C125.186 37.4363 125.866 37.992 125.821 39.0593C125.79 39.9624 125.085 40.4739 124.21 40.4802C121.15 40.5118 118.09 40.5623 115.043 40.4297C113.45 40.3602 113.179 39.0972 113.198 37.7205C113.236 35.0176 113.21 32.3084 113.21 29.5992V29.6118Z" fill="black" fill-opacity="0.37"/>
<path d="M329.161 19.1161C330.873 19.2739 331.635 20.2907 332.126 21.6548C333.983 26.8395 335.86 32.018 337.717 37.2027C338.202 38.5542 338.454 40.0382 336.678 40.5308C335.029 40.9855 334.487 39.5267 334.298 38.3268C333.631 34.0072 330.307 35.5608 327.763 35.1629C325.125 34.7524 324.539 36.2996 323.992 38.2952C323.658 39.5204 323.236 41.2065 321.309 40.4108C319.767 39.773 320.17 38.5352 320.642 37.2722C322.543 32.1064 324.401 26.9216 326.214 21.7242C326.749 20.196 327.568 19.1539 329.167 19.1097L329.161 19.1161ZM328.972 22.9494C327.99 25.968 327.209 28.3425 326.453 30.7233C326.296 31.2222 326.044 32.0243 326.774 32.0937C328.317 32.239 329.904 32.2453 331.44 32.0685C332.101 31.9927 331.83 31.1591 331.66 30.6602C330.854 28.292 330.017 25.9301 328.972 22.9557V22.9494Z" fill="black" fill-opacity="0.37"/>
<path d="M167.294 36.3186C168.982 30.957 170.436 26.2395 171.966 21.5411C172.363 20.3222 172.652 18.5603 174.579 19.2739C176.38 19.9433 175.681 21.3958 175.234 22.7094C173.515 27.7047 171.834 32.7189 170.134 37.7205C169.643 39.1604 168.994 40.5624 167.231 40.6002C165.317 40.6444 164.612 39.2488 164.077 37.6321C162.446 32.7252 160.715 27.8499 159.046 22.9557C158.568 21.56 157.907 19.8865 159.865 19.2423C161.735 18.6234 161.98 20.3854 162.402 21.6421C163.97 26.328 165.531 31.0138 167.294 36.3186Z" fill="black" fill-opacity="0.37"/>
<path d="M349.951 19.0087C351.198 18.9645 352.646 19.1729 353.93 19.9938C354.642 20.4422 355.196 21.08 354.768 21.9579C354.383 22.7536 353.754 22.9872 352.803 22.6273C351.544 22.1536 350.234 21.6231 348.837 21.8947C347.477 22.1599 346.129 22.5199 345.915 24.2313C345.733 25.6964 346.526 26.5932 347.76 27.1363C349.101 27.7299 350.499 28.1909 351.846 28.7656C354.522 29.915 355.945 31.8474 355.662 34.8724C355.397 37.7016 353.817 39.3309 351.179 40.1834C348.578 41.0234 346.041 40.8971 343.567 39.8614C342.742 39.514 341.854 38.8194 342.226 37.79C342.666 36.5775 343.636 36.5396 344.732 37.1522C345.21 37.4237 345.814 37.4805 346.369 37.5942C348.761 38.0742 351.223 38.0489 351.978 35.3018C352.684 32.7189 350.373 31.9295 348.434 31.1843C348.119 31.0643 347.804 30.938 347.489 30.8117C343.208 29.1698 341.691 27.1931 342.276 24.0419C342.88 20.8022 345.556 18.9834 349.957 18.996L349.951 19.0087Z" fill="black" fill-opacity="0.37"/>
<path d="M255.931 28.5256C257.543 25.6206 258.94 23.0504 260.388 20.5117C260.898 19.6275 261.522 18.6676 262.781 19.3307C264.04 20.0001 264.116 21.0295 263.417 22.1852C262.894 23.0567 262.41 23.9534 261.843 24.7933C259.136 28.854 256.447 32.8957 257.492 38.1815C257.738 39.4319 257.215 40.5181 255.799 40.6002C254.577 40.6697 253.809 39.735 254.029 38.6172C255.27 32.3779 251.479 27.9193 248.64 23.1198C247.903 21.8694 246.713 20.5685 248.697 19.4381C250.554 18.3834 251.039 20.0822 251.694 21.1684C253.091 23.4861 254.401 25.8543 255.925 28.5193L255.931 28.5256Z" fill="black" fill-opacity="0.37"/>
<path d="M96.3503 29.5298C96.3503 27.2689 96.3062 25.0081 96.3629 22.7536C96.4007 21.2569 95.9096 19.1476 98.3021 19.1982C100.43 19.236 100.027 21.1811 100.034 22.5957C100.052 26.6627 100.153 30.736 99.9958 34.7966C99.9139 36.8617 100.462 37.7016 102.615 37.4237C103.956 37.2532 105.335 37.4237 106.695 37.3732C107.753 37.3416 108.584 37.7395 108.647 38.7941C108.728 40.0572 107.809 40.5245 106.638 40.5245C104.139 40.5245 101.645 40.4613 99.1521 40.5434C97.0681 40.6129 96.3062 39.6151 96.3377 37.67C96.3818 34.9608 96.3503 32.2453 96.3503 29.5361V29.5298Z" fill="black" fill-opacity="0.37"/>
<path d="M180.68 29.8203C180.68 27.111 180.693 24.3955 180.674 21.6863C180.661 20.2654 181.115 19.1097 182.708 19.1666C184.124 19.2171 184.458 20.3412 184.452 21.6042C184.433 27.1426 184.439 32.681 184.452 38.2131C184.452 39.4888 184.03 40.5624 182.626 40.5813C181.247 40.6003 180.699 39.5835 180.693 38.2952C180.68 35.4723 180.693 32.6431 180.693 29.8203H180.68Z" fill="black" fill-opacity="0.37"/>
<path d="M292.02 59.9184C292.02 59.691 291.951 59.4384 292.033 59.249C292.876 57.3607 290.112 54.14 293.833 53.4327C298.581 52.5296 302.151 54.3736 303.082 57.6828C304.14 61.4529 302.541 65.1536 299.311 66.4798C297.466 67.244 295.533 67.0545 293.619 67.0545C291.957 67.0545 292.02 65.8041 292.02 64.6547C292.02 63.0759 292.02 61.5035 292.02 59.9247V59.9184ZM300.954 60.1204C300.98 57.0134 299.204 55.1062 296.188 55.2136C292.612 55.3399 294.929 58.0933 294.4 59.5647C294.117 60.3667 294.343 61.3519 294.35 62.255C294.375 65.2294 295.88 66.0883 298.518 64.6484C300.325 63.6633 300.866 62.015 300.954 60.1141V60.1204Z" fill="black" fill-opacity="0.37"/>
<path d="M160.764 60.3288C160.764 62.0213 160.777 63.7201 160.758 65.4125C160.752 66.2398 160.601 67.105 159.518 67.0355C158.46 66.9661 158.441 66.0504 158.397 65.2546C158.365 64.6926 158.46 64.1116 158.365 63.5622C158.208 62.6781 158.97 61.2571 157.434 61.0929C155.891 60.9287 154.122 60.4804 152.793 61.3519C151.862 61.9644 152.523 63.4548 152.403 64.541C152.302 65.5072 152.649 66.9408 151.282 66.985C149.614 67.0418 149.992 65.482 149.973 64.4337C149.935 61.6108 149.922 58.7879 149.973 55.965C149.992 54.942 149.513 53.3632 151.244 53.4011C152.667 53.4326 152.497 54.8725 152.359 55.8008C151.95 58.529 153.108 59.1289 155.702 59.1289C158.126 59.1289 158.554 58.2006 158.416 56.1671C158.347 55.1567 157.874 53.4768 159.48 53.42C161.482 53.3505 160.645 55.1883 160.739 56.2555C160.859 57.6007 160.764 58.9647 160.764 60.3225V60.3288Z" fill="black" fill-opacity="0.37"/>
<path d="M277.3 58.7689C277.3 57.5312 277.3 56.2871 277.3 55.0493C277.3 54.2157 277.394 53.3632 278.446 53.3505C279.459 53.3379 279.718 54.1652 279.73 55.0051C279.762 57.0323 279.73 59.0594 279.768 61.0929C279.799 63.1011 279.988 65.1283 282.658 65.1915C285.548 65.2609 285.756 63.0885 285.819 60.9792C285.875 58.9521 285.837 56.9249 285.844 54.8914C285.844 54.001 286.146 53.2179 287.16 53.3316C288.167 53.4452 288.18 54.342 288.173 55.163C288.154 57.5312 288.28 59.9057 288.123 62.2612C287.909 65.5072 285.749 67.307 282.456 67.2313C279.283 67.1555 277.564 65.482 277.325 62.1476C277.243 61.0235 277.313 59.893 277.313 58.7689C277.313 58.7689 277.3 58.7689 277.294 58.7689H277.3Z" fill="black" fill-opacity="0.37"/>
<path d="M231.973 58.9205C231.879 60.3793 231.923 61.8697 231.658 63.2969C231.142 66.0882 229.134 67.1934 226.489 67.2187C223.858 67.2439 221.849 66.2651 221.27 63.4169C220.678 60.5056 221.031 57.5691 221.024 54.6452C221.024 53.9379 221.459 53.3 222.284 53.3379C223.077 53.3758 223.411 53.9568 223.411 54.7273C223.411 55.8577 223.285 57.007 223.455 58.1059C223.851 60.7077 221.944 65.0083 226.42 65.0399C231.218 65.0778 229.077 60.6004 229.556 57.948C229.732 56.9628 229.587 55.9208 229.587 54.9041C229.587 54.0515 229.732 53.2558 230.846 53.3632C231.709 53.4453 231.86 54.1526 231.866 54.8599C231.885 56.2113 231.866 57.5691 231.866 58.9205C231.898 58.9205 231.929 58.9205 231.961 58.9205H231.973Z" fill="black" fill-opacity="0.37"/>
<path d="M164.776 60.0888C164.776 58.289 164.783 56.4891 164.776 54.683C164.776 53.8936 165.167 53.3126 165.916 53.3C166.709 53.2874 167.037 53.9252 167.024 54.702C167.018 55.1503 167.106 55.6177 167.024 56.0471C166.489 58.7879 167.918 59.0594 170.254 59.1226C172.779 59.192 173.352 58.27 173.119 56.0345C173.018 55.0556 172.565 53.4073 174.246 53.3947C175.933 53.3821 175.429 55.0051 175.455 56.0281C175.511 58.8384 175.511 61.655 175.455 64.4715C175.436 65.4946 175.858 67.0986 174.132 66.9976C172.779 66.9155 173.106 65.4883 173.081 64.522C173.031 62.7159 173.748 60.7898 170.437 60.8782C167.591 60.954 166.596 61.7118 166.993 64.4842C167.119 65.3746 167.459 66.8776 166.061 66.9786C164.285 67.105 164.833 65.4756 164.776 64.4715C164.695 63.0127 164.758 61.5476 164.758 60.0825C164.764 60.0825 164.77 60.0825 164.776 60.0825V60.0888Z" fill="black" fill-opacity="0.37"/>
<path d="M342.729 58.9458C342.836 61.5855 342.647 63.2717 341.703 64.7368C340.236 67.0166 338.083 67.7302 335.539 66.9408C332.945 66.1387 331.522 63.0064 331.95 59.3184C332.297 56.325 333.38 53.7484 336.717 53.1863C339.392 52.7316 341.3 54.0578 342.219 56.5902C342.597 57.6259 342.685 58.7626 342.723 58.9521L342.729 58.9458ZM334.311 59.5962C334.374 60.5877 334.393 61.1434 334.456 61.6992C334.645 63.4737 335.161 65.1788 337.245 65.3241C339.411 65.4756 339.928 63.7263 340.33 62.0212C340.765 60.2025 340.5 58.4532 339.82 56.767C339.367 55.6492 338.492 54.9609 337.208 55.0114C336.068 55.0619 335.306 55.7692 334.96 56.7607C334.601 57.7964 334.463 58.9142 334.311 59.5962Z" fill="black" fill-opacity="0.37"/>
<path d="M240.127 58.2827C241.235 56.6597 242.167 55.2514 243.149 53.8747C243.483 53.4011 243.949 53.0664 244.578 53.4327C245.315 53.8684 245.365 54.4557 244.944 55.1378C244.881 55.2325 244.83 55.3399 244.748 55.4156C241.311 58.5417 241.519 61.6235 244.824 64.7116C245.466 65.3115 245.674 66.1451 244.881 66.7766C243.766 67.6608 243.25 66.5745 242.746 65.9178C241.802 64.6863 240.971 63.3728 239.869 61.7624C238.88 63.2338 238.125 64.44 237.288 65.5831C236.746 66.3219 236.343 67.7871 235.046 66.7893C233.812 65.842 235.128 65.04 235.562 64.2316C235.613 64.1306 235.676 64.0295 235.758 63.9538C238.402 61.4656 238.704 59.0027 235.877 56.3692C235.147 55.6872 234.007 54.4999 235.443 53.5527C236.645 52.757 237.155 54.1716 237.735 54.9104C238.503 55.883 239.176 56.925 240.133 58.2827H240.127Z" fill="black" fill-opacity="0.37"/>
<path d="M183.582 61.8002C182.568 63.3159 181.649 64.7115 180.698 66.0819C180.251 66.7261 179.747 67.5407 178.828 66.8334C177.997 66.1956 178.387 65.4504 178.923 64.781C179.061 64.6042 179.137 64.3768 179.294 64.219C181.995 61.5224 182.524 58.8574 179.376 56.0471C178.696 55.4409 177.802 54.4115 179.13 53.5274C180.27 52.7695 180.704 53.9189 181.208 54.5694C182.039 55.6303 182.782 56.7607 183.638 57.9606C184.986 57.5122 185.074 56.0534 185.905 55.2514C186.629 54.5504 186.868 52.7064 188.31 53.5589C189.884 54.481 188.442 55.6429 187.813 56.2808C185.181 58.9268 185.206 61.3013 187.926 63.8842C188.625 64.5473 190.262 65.7535 188.48 66.865C187.038 67.7681 186.673 65.9998 186.025 65.2483C185.143 64.2379 184.451 63.0633 183.576 61.8066L183.582 61.8002Z" fill="black" fill-opacity="0.37"/>
<path d="M123.611 61.8698C122.472 63.5244 121.477 65.0021 120.457 66.4546C120.117 66.9409 119.613 67.3071 119.028 66.9724C118.335 66.5872 118.26 65.9241 118.612 65.2358C118.713 65.04 118.845 64.8442 119.003 64.6927C122.075 61.7498 122.566 58.7943 119.148 55.7188C118.43 55.0747 118.09 54.159 119.192 53.4769C120.167 52.877 120.615 53.7295 121.068 54.3358C121.943 55.5041 122.774 56.704 123.725 58.0428C125.242 57.0639 125.639 55.3083 126.709 54.0958C127.194 53.5464 127.723 53.0917 128.422 53.5337C129.152 53.9884 128.913 54.6831 128.579 55.3083C128.529 55.4094 128.466 55.5104 128.39 55.5862C125.11 58.5796 125.274 61.5288 128.441 64.5095C129.108 65.141 129.612 66.0757 128.629 66.8272C127.54 67.6608 127.024 66.5998 126.514 65.9178C125.57 64.6674 124.682 63.3728 123.611 61.8761V61.8698Z" fill="black" fill-opacity="0.37"/>
<path d="M214.382 53.3632C214.496 53.3632 214.615 53.338 214.722 53.3632C215.812 53.6664 217.77 52.6054 217.864 54.2031C217.971 55.9651 215.994 55.1946 214.924 55.2452C213.482 55.3083 212.324 55.1694 212.361 57.2723C212.399 59.249 213.539 59.0153 214.792 59.0532C215.724 59.0785 217.247 58.6175 217.228 60.0384C217.203 61.4403 215.667 61.0109 214.754 60.9541C213.085 60.8404 212.374 61.2572 212.355 63.1391C212.336 65.2168 213.425 65.2484 214.899 65.1537C215.572 65.1094 216.252 65.1347 216.932 65.1663C217.562 65.1915 218.091 65.4947 217.978 66.1578C217.921 66.4862 217.417 66.9661 217.102 66.9724C215.075 67.0356 213.035 67.1114 211.02 66.9219C209.862 66.8145 209.969 65.6399 209.963 64.7495C209.95 62.3876 209.963 60.0257 209.963 57.6639C209.963 54.7926 211.44 53.359 214.395 53.3632H214.382Z" fill="black" fill-opacity="0.37"/>
<path d="M361.673 29.6055C361.673 26.8963 361.699 24.1934 361.661 21.4842C361.642 20.1896 362.039 19.1476 363.455 19.1476C364.872 19.1476 365.256 20.1833 365.25 21.4842C365.224 27.1236 365.231 32.7631 365.237 38.4025C365.237 39.7224 364.696 40.6697 363.285 40.575C362.083 40.4929 361.654 39.5645 361.661 38.4025C361.68 35.4723 361.661 32.5357 361.661 29.6055H361.673Z" fill="black" fill-opacity="0.37"/>
<path d="M355.806 60.512C355.806 62.7729 355.825 64.099 355.799 65.4252C355.78 66.2462 355.629 67.1114 354.54 67.0166C353.728 66.9472 353.539 66.2146 353.539 65.501C353.539 61.9014 353.545 58.2954 353.539 54.6957C353.539 53.9253 353.885 53.2243 354.597 53.2117C355.56 53.1927 355.818 54.0263 355.812 54.8978C355.812 56.123 355.812 57.3481 355.812 59.4763C357.694 57.3481 359.105 55.7188 360.559 54.14C361.057 53.6032 361.548 52.7254 362.492 53.4643C363.632 54.3547 362.738 54.9989 362.165 55.6683C362.089 55.7567 362.007 55.8262 361.932 55.9146C358.519 59.931 358.544 59.9184 361.768 63.9159C362.385 64.6863 363.934 65.4757 362.637 66.6693C361.271 67.9197 360.717 66.2272 360.049 65.5199C358.752 64.1432 357.587 62.6402 355.799 60.5183L355.806 60.512Z" fill="black" fill-opacity="0.37"/>
<path d="M99.7936 67.244C99.2458 67.1745 98.5469 67.1808 97.911 66.9787C97.1933 66.7514 96.167 66.4862 96.3559 65.5263C96.5888 64.339 97.5458 64.9831 98.2825 65.0652C99.1702 65.1663 100.152 65.3747 100.952 65.1158C102.847 64.5032 103.118 63.1833 101.689 61.8571C100.99 61.2067 99.9195 60.9035 98.9688 60.5752C97.3003 59.9942 96.2677 58.9206 96.2111 57.1397C96.1607 55.523 97.0296 54.3421 98.4651 53.6727C100.19 52.8707 101.972 52.8264 103.678 53.7674C104.213 54.0642 104.478 54.6705 104.169 55.201C104.025 55.4536 103.395 55.5546 103.005 55.5167C102.23 55.4346 101.481 55.0873 100.713 55.0746C99.7558 55.0494 98.9247 55.4599 98.7169 56.5271C98.5406 57.4302 99.0191 58.0365 99.8124 58.4027C100.423 58.6869 101.059 58.9143 101.682 59.1732C103.836 60.0699 105.466 61.3709 104.837 64.0043C104.232 66.543 102.199 67.1366 99.781 67.2629L99.7936 67.244Z" fill="black" fill-opacity="0.37"/>
<path d="M266.231 60.0951C266.231 59.5331 266.231 58.9647 266.231 58.4027C266.231 53.5526 268.523 51.9359 273.32 53.4326C273.698 53.5526 274.221 53.881 274.284 54.1904C274.422 54.8725 273.799 55.1819 273.238 55.2325C272.225 55.3209 271.199 55.3461 270.179 55.2767C268.68 55.1756 268.586 56.0787 268.535 57.2091C268.485 58.4469 268.819 59.1794 270.216 59.0468C270.556 59.0152 270.896 59.0279 271.236 59.0468C272.099 59.091 273.377 58.7563 273.396 60.0067C273.421 61.3013 272.13 60.9982 271.28 60.9793C269.744 60.9477 268.472 60.7961 268.472 63.1327C268.472 65.6083 269.977 65.1283 271.387 65.1536C271.954 65.1599 272.521 65.1536 273.087 65.1536C273.73 65.1536 274.271 65.4504 274.277 66.0756C274.277 66.6755 273.786 67.0481 273.138 67.0545C271.324 67.0671 269.505 67.0987 267.692 67.0545C266.508 67.0292 266.225 66.2019 266.225 65.1915C266.225 63.499 266.225 61.8002 266.225 60.1078L266.231 60.0951Z" fill="black" fill-opacity="0.37"/>
<path d="M110.566 61.0487C110.566 60.1457 110.522 59.2426 110.579 58.3395C110.699 56.4829 110.642 54.8662 107.998 55.3398C107.299 55.4661 106.556 55.1314 106.543 54.3231C106.531 53.42 107.343 53.3758 108.023 53.3695C110.516 53.3569 113.009 53.3506 115.509 53.3695C116.164 53.3695 116.988 53.3 117.089 54.2094C117.19 55.0999 116.441 55.4472 115.767 55.3335C112.587 54.7967 112.997 56.9249 113.028 58.8321C113.053 60.6383 113.078 62.4444 113.016 64.2505C112.978 65.2862 113.488 66.9597 111.92 66.985C110.094 67.0166 110.68 65.2231 110.585 64.099C110.503 63.0885 110.566 62.0655 110.566 61.0551V61.0487Z" fill="black" fill-opacity="0.37"/>
<path d="M365.238 60.0068C365.238 58.3143 365.238 56.6219 365.238 54.9294C365.238 54.0895 365.414 53.2432 366.428 53.2559C367.404 53.2685 367.675 54.0895 367.681 54.9483C367.693 57.3165 367.819 59.6973 367.656 62.0592C367.505 64.2443 367.914 65.501 370.508 65.16C371.364 65.0463 373.001 64.5537 373.033 65.9494C373.07 67.6671 371.352 67.0166 370.376 67.004C364.149 66.9472 365.358 67.9955 365.232 60.0131L365.238 60.0068Z" fill="black" fill-opacity="0.37"/>
<path d="M328.494 60.1268C328.494 61.9203 328.506 63.7201 328.494 65.5136C328.487 66.2209 328.298 66.9598 327.492 67.0356C326.397 67.1429 326.277 66.2588 326.271 65.4505C326.246 63.0949 326.29 60.7393 326.246 58.3838C326.227 57.2849 326.718 55.4851 324.451 56.7039C323.878 57.0134 323.343 57.0134 323.073 56.3629C322.802 55.7125 323.28 55.2893 323.771 55.0241C325.024 54.3421 326.214 52.8896 327.669 53.4643C329.224 54.0832 328.355 55.8451 328.494 57.1018C328.601 58.0996 328.519 59.1163 328.519 60.1268C328.519 60.1268 328.506 60.1268 328.5 60.1268H328.494Z" fill="black" fill-opacity="0.37"/>
<path d="M256.763 60.253C256.599 61.0677 256.089 61.6613 255.201 61.6613C254.269 61.6613 253.759 60.9793 253.803 60.1078C253.847 59.2552 254.408 58.5479 255.302 58.6174C256.12 58.6805 256.719 59.2615 256.756 60.2593L256.763 60.253Z" fill="black" fill-opacity="0.37"/>
<path d="M346.796 64.219C347.69 64.4084 348.219 64.9452 348.074 65.8609C347.942 66.7072 347.419 67.2882 346.456 67.1682C345.524 67.0482 345.07 66.4356 345.178 65.5452C345.285 64.6611 345.851 64.1685 346.802 64.219H346.796Z" fill="black" fill-opacity="0.37"/>
<path d="M139.076 61.6866C138.194 61.6298 137.621 61.1877 137.565 60.2657C137.508 59.35 138.037 58.7374 138.899 58.6427C139.812 58.5417 140.335 59.1479 140.411 60.0447C140.492 60.9793 139.97 61.4782 139.076 61.6866Z" fill="black" fill-opacity="0.37"/>
<path d="M199.12 58.5796C199.995 58.8511 200.48 59.4132 200.392 60.3036C200.304 61.2193 199.699 61.7498 198.805 61.6488C197.924 61.5477 197.439 60.9225 197.546 59.9942C197.653 59.0722 198.289 58.6933 199.114 58.5796H199.12Z" fill="black" fill-opacity="0.37"/>
<path d="M313.465 61.6866C312.533 61.554 312.023 61.0236 312.035 60.1205C312.054 59.2048 312.659 58.6364 313.521 58.6238C314.44 58.6048 314.913 59.2995 314.9 60.1647C314.888 61.0488 314.371 61.5919 313.465 61.6866Z" fill="black" fill-opacity="0.37"/>
<path d="M300.483 25.3933C300.451 24.926 300.521 24.4713 301.119 24.5408C301.61 24.5976 301.786 25.0207 301.824 25.4817C301.377 25.4501 300.93 25.4249 300.483 25.3933Z" fill="black" fill-opacity="0.37"/>
</g>
<defs>
<clipPath id="clip0_724_3589">
<rect width="419" height="86" fill="white"/>
</clipPath>
</defs>
</svg>
