<svg width="278" height="100" viewBox="0 0 278 100" fill="none" xmlns="http://www.w3.org/2000/svg">
<g clip-path="url(#clip0_724_3588)">
<path d="M88.9675 61.5603H83.3999C82.2243 51.9613 83.6121 42.7981 87.449 34.1469C95.8195 15.2812 110.362 3.96607 130.7 0.681036C159.191 -3.92236 186.882 15.1886 192.967 43.5172C194.034 48.4965 193.93 53.7264 194.426 58.831C194.654 61.2062 193.626 62.0288 191.356 61.7074C190.513 61.5876 189.642 61.6856 188.57 61.6856C189.86 44.4215 184.624 29.8976 171.943 18.4572C162.07 9.55552 150.217 5.27354 136.981 5.79653C108.005 6.94602 85.7564 32.1694 88.9729 61.5494L88.9675 61.5603Z" fill="black" fill-opacity="0.37"/>
<path d="M102.187 61.5494H93.6426V45.2714C99.4823 43.637 104.005 45.4838 107.45 51.0733C110.906 45.5002 115.418 43.6261 121.323 45.2877V61.4949H112.876V55.5241C112.658 55.4261 112.446 55.3335 112.229 55.2354C110.813 56.9406 109.404 58.6512 107.461 60.9992C105.649 58.6185 104.299 56.8534 102.955 55.0883C102.699 55.2463 102.443 55.4043 102.187 55.5623V61.5494Z" fill="black" fill-opacity="0.37"/>
<path d="M156.172 45.4565C164.406 42.3839 169.168 48.3275 175.122 52.4787V45.0261H183.694V61.1789C175.618 64.1643 170.812 58.297 164.825 54.0695V61.5275H156.172V45.4565Z" fill="black" fill-opacity="0.37"/>
<path d="M123.445 61.2116C126.852 55.9926 130.243 50.7627 133.683 45.5655C133.906 45.2277 134.461 45.0915 134.885 44.9226C135.098 44.8409 135.364 44.9008 135.604 44.8954C140.77 44.692 144.749 46.7622 147.539 51.1059C149.705 54.4781 151.893 57.8339 154.369 61.6583C151.278 61.6583 147.827 62.7152 146.08 61.4404C142.418 58.771 138.706 60.4053 135.092 59.8278C134.624 59.7516 133.895 59.6644 133.688 59.915C130.852 63.309 127.092 60.961 123.864 61.7999C123.728 61.6093 123.587 61.4131 123.451 61.2225L123.445 61.2116ZM141.193 55.1808C140.273 53.7481 139.615 52.7184 138.76 51.3892C137.895 52.7566 137.22 53.8243 136.36 55.1808H141.193Z" fill="black" fill-opacity="0.37"/>
<path d="M13.6333 86.2497C12.9911 88.5977 12.2945 90.9294 11.723 93.2937C11.4074 94.6067 11.206 95.6308 9.3991 95.6853C7.46159 95.7398 7.21668 94.6393 6.87381 93.2447C6.29146 90.8804 5.58395 88.5432 4.42471 86.2715V95.4565H0V78.8679C1.95384 78.8679 3.93489 78.759 5.89417 78.9442C6.38943 78.9932 7.01531 79.9248 7.20035 80.5622C7.86977 82.9048 8.38136 85.2963 8.95282 87.6661C9.17596 87.677 9.3991 87.6879 9.62224 87.7043C10.1991 85.3617 10.8958 83.0355 11.3094 80.6657C11.5598 79.2438 12.1475 78.759 13.5299 78.8298C15.2007 78.917 16.8825 78.8516 18.7166 78.8516V95.462H14.3136V86.3369C14.085 86.3096 13.8619 86.277 13.6333 86.2497Z" fill="black" fill-opacity="0.37"/>
<path d="M42.4355 79.124C45.5232 78.6301 47.7347 79.6506 49.0699 82.1857C49.9461 83.8363 50.8659 85.4652 51.7639 87.105C51.9598 87.0506 52.1503 86.9961 52.3462 86.9416V79.0041H56.8254V95.2604C52.6728 96.2138 52.4061 96.0939 50.4414 92.5093C49.4835 90.7605 48.5093 89.0281 47.0725 87.3502V95.4456H42.4355V79.124Z" fill="black" fill-opacity="0.37"/>
<path d="M81.6847 79.0259V83.03C79.8996 83.03 78.1525 82.9047 76.4327 83.0736C75.3334 83.1826 73.3197 83.8526 73.3469 84.0651C73.6136 86.1843 75.3878 85.0784 76.5416 85.2309C77.8641 85.4107 79.2301 85.2745 80.6996 85.2745V89.1969C78.7022 89.1969 76.7865 89.1098 74.8871 89.2514C74.2993 89.295 73.7605 89.9651 73.1999 90.3519C73.7823 90.7169 74.3483 91.3543 74.947 91.3924C77.1022 91.5177 79.2682 91.4414 81.6684 91.4414V95.4401H68.416V79.0259H81.6847Z" fill="black" fill-opacity="0.37"/>
<path d="M176.912 83.4822C175.154 83.6184 173.374 84.4247 171.888 82.5779C171.567 82.1802 170.702 82.0113 170.13 82.0821C169.592 82.1475 169.102 82.6596 168.59 82.9701C168.944 83.4441 169.194 84.1577 169.662 84.343C171.072 84.9041 172.569 85.2418 174.016 85.6886C176.961 86.6038 178.016 87.8459 178.006 90.3519C177.995 93.054 176.699 94.9553 173.869 95.4783C171.801 95.8596 169.57 95.8487 167.491 95.5055C164.976 95.0915 163.648 93.1412 163.316 90.1667C165.243 90.2702 167.279 89.0826 168.775 91.5994C169.156 92.2423 170.925 92.2041 172.052 92.1933C172.438 92.1933 173.026 91.3597 173.129 90.8259C173.194 90.499 172.596 89.8344 172.16 89.6546C170.903 89.137 169.586 88.772 168.28 88.3743C165.27 87.4537 163.676 85.8466 163.746 83.7818C163.833 81.047 165.619 79.2166 168.83 78.5574C173.173 77.6694 176.525 79.6469 176.912 83.4713V83.4822Z" fill="black" fill-opacity="0.37"/>
<path d="M22.2051 95.6691C24.197 90.0687 25.9005 84.975 27.9088 80.0066C28.1918 79.3038 29.9823 78.9933 31.098 78.9279C31.8436 78.8844 33.1063 79.4128 33.3294 79.9957C35.2397 85.0077 36.965 90.0905 38.9406 95.7017C36.7582 95.0589 34.69 96.9166 33.1172 93.9475C32.6818 93.1249 29.6014 93.7078 27.7346 93.6425C26.9944 96.9329 24.4909 95.1733 22.2105 95.6691H22.2051ZM30.9184 85.2038L30.2925 85.182C29.8572 86.6366 29.4218 88.0857 28.9374 89.7091H32.1865C31.7185 88.0421 31.3157 86.6202 30.9184 85.1984V85.2038Z" fill="black" fill-opacity="0.37"/>
<path d="M126.732 95.816C128.539 96.0013 129.916 96.0884 131.276 96.2954C132.136 96.4262 133.404 97.1943 133.715 96.8893C134.384 96.2301 134.553 95.0642 134.825 94.356C132.643 94.356 130.683 94.781 129.023 94.258C126.444 93.4462 125.41 89.2732 126.661 86.2715C127.744 83.6783 130.411 82.7032 133.312 83.5421C134.417 83.8635 135.707 83.5857 136.909 83.5094C138.39 83.4114 139.152 83.9071 139.114 85.536C139.043 88.5105 139.173 91.4905 139.081 94.465C138.983 97.8426 137.644 99.3081 134.417 99.8583C130.993 100.441 128.245 99.1882 126.727 95.8106L126.732 95.816ZM135.979 89.1043C134.395 87.8568 133.551 86.6637 132.561 86.533C130.983 86.3259 130.515 87.7369 130.558 89.1479C130.602 90.6079 131.01 92.1442 132.751 91.8609C133.709 91.7084 134.488 90.4336 135.979 89.0989V89.1043Z" fill="black" fill-opacity="0.37"/>
<path d="M147.919 90.0142C149.922 87.3829 148.338 81.8861 154.521 83.9617C152.823 88.5869 151.397 93.3319 149.334 97.7828C148.104 100.436 145.198 99.4661 142.76 99.3953C142.493 97.7501 141.911 96.3282 144.371 95.9305C146.064 95.6581 145.367 94.1981 145.013 93.2012C143.919 90.1122 142.744 87.0506 141.59 83.9617C145.492 82.9048 146.042 83.2099 146.983 86.7292C147.245 87.7098 147.544 88.6795 147.93 90.0142H147.919Z" fill="black" fill-opacity="0.37"/>
<path d="M211.041 83.8037C215.276 83.1881 215.297 83.2099 215.303 86.8762C215.303 89.6764 215.303 92.4766 215.303 95.9142C213.648 95.5219 212.326 95.1733 210.982 94.9227C210.606 94.8518 210.149 95.0207 209.779 95.1896C205.702 97.0473 202.987 95.3258 202.948 90.8314C202.932 89.0608 203.03 87.2903 202.927 85.5252C202.829 83.8854 203.558 83.4823 205.06 83.4768C206.622 83.4768 207.504 83.8146 207.373 85.6069C207.264 87.1268 207.183 88.6904 207.438 90.1776C207.58 90.9839 208.462 91.654 209.011 92.3894C209.686 91.6376 210.835 90.9567 210.949 90.1286C211.232 88.0911 211.041 85.9937 211.041 83.8037Z" fill="black" fill-opacity="0.37"/>
<path d="M251.293 83.139C252.975 83.5967 254.254 83.9998 255.565 84.2722C255.946 84.3539 256.431 84.0978 256.833 83.9181C260.937 82.0604 263.593 83.7546 263.609 88.2818C263.62 90.6025 263.609 92.9233 263.609 95.4293H259.37C259.37 93.5498 259.402 91.6485 259.359 89.7527C259.326 88.4888 259.489 86.9144 257.661 86.8381C255.669 86.7564 255.44 88.3253 255.413 89.8507C255.38 91.6812 255.407 93.5117 255.407 95.4729H251.298V83.139H251.293Z" fill="black" fill-opacity="0.37"/>
<path d="M89.1959 95.5056H85.2066C85.2066 91.812 85.0977 88.1456 85.3753 84.5174C85.4025 84.1524 87.7373 83.9018 89.0217 83.7111C89.6367 83.6185 90.3932 84.0271 90.9157 83.8037C94.8234 82.1258 97.6534 83.9072 97.7024 88.1783C97.7296 90.5699 97.7024 92.9615 97.7024 95.2986C93.3648 96.0722 93.3267 96.0395 93.3104 92.1279C93.3104 91.0057 93.4628 89.8235 93.1743 88.7775C92.9675 88.0366 92.1239 87.4701 91.5634 86.8272C90.8776 87.4592 89.7075 88.0149 89.5932 88.7394C89.2884 90.6189 89.4571 92.5801 89.4136 94.5032C89.4081 94.8083 89.2884 95.1079 89.2013 95.5056H89.1959Z" fill="black" fill-opacity="0.37"/>
<path d="M186.327 83.2371C190.366 83.2316 192.924 85.6886 192.918 89.562C192.913 93.3918 190.268 95.9632 186.338 95.9632C182.458 95.9632 179.758 93.3428 179.737 89.5511C179.709 85.7213 182.3 83.2425 186.333 83.2371H186.327ZM189.087 90.0033C188.417 88.0475 188.341 86.4186 186.322 86.4567C184.281 86.4949 184.281 88.0856 184.243 89.5838C184.205 91.1582 184.537 92.8416 186.382 92.5855C187.383 92.4493 188.189 90.913 189.087 90.0087V90.0033Z" fill="black" fill-opacity="0.37"/>
<path d="M242.282 83.2426C246.277 83.3134 248.726 85.8793 248.595 89.8671C248.476 93.5825 245.771 96.0612 241.934 95.9741C238.021 95.8815 235.343 93.1576 235.463 89.3877C235.588 85.4598 238.124 83.1717 242.282 83.248V83.2426ZM244.818 89.9379C244.1 88.0312 244.029 86.3859 242.005 86.4622C240.018 86.533 239.888 88.1074 239.877 89.6056C239.866 91.1746 240.317 92.8525 242.119 92.5801C243.126 92.4276 243.926 90.864 244.818 89.9379Z" fill="black" fill-opacity="0.37"/>
<path d="M112.626 92.0571C110.787 95.62 106.982 96.7803 103.586 95.3857C100.582 94.149 99.1398 90.8259 100.179 87.5409C101.246 84.1687 104.49 82.5289 108.338 83.4223C111.559 84.1687 113.089 86.5385 112.583 90.3955H104.12C104.495 92.7871 105.611 93.3537 107.537 92.9124C109.061 92.5637 110.623 92.3894 112.632 92.0571H112.626ZM104.092 87.3175C104.234 87.53 104.375 87.7479 104.517 87.9603H108.582C108.669 87.7206 108.762 87.4755 108.849 87.2358C108.055 86.8054 107.254 86.0264 106.471 86.0427C105.671 86.0591 104.882 86.8599 104.092 87.312V87.3175Z" fill="black" fill-opacity="0.37"/>
<path d="M277.2 87.2794C275.769 86.8054 274.359 86.2552 272.901 85.8956C272.139 85.7104 271.29 85.8629 270.479 85.8629C270.43 86.2388 270.381 86.6093 270.332 86.9852C271.562 87.3338 272.775 87.7424 274.022 88.0203C276.106 88.4888 277.962 89.1752 277.995 91.7575C278.022 93.9311 276.689 95.4456 273.907 95.6091C271.845 95.7344 269.684 95.2441 267.665 94.672C266.93 94.465 266.489 93.2229 265.918 92.4548C266.103 92.1497 266.293 91.8501 266.479 91.545C268.03 92.0244 269.564 92.6128 271.148 92.9451C271.992 93.1194 272.933 92.8525 273.826 92.7871C273.864 92.5147 273.897 92.2478 273.935 91.9754C273.45 91.6594 272.999 91.2399 272.471 91.0493C271.72 90.7823 270.909 90.7006 270.13 90.5045C268.095 89.9978 266.141 89.3277 266.217 86.7128C266.277 84.7243 268.204 83.248 271.034 83.3079C272.819 83.346 274.642 83.8146 276.346 84.3975C276.966 84.6099 277.287 85.6995 277.75 86.3914C277.565 86.6856 277.38 86.9797 277.2 87.2739V87.2794Z" fill="black" fill-opacity="0.37"/>
<path d="M223.983 83.2208C224.745 83.4115 225.431 83.5804 226.062 83.7329C227.02 85.9611 225.437 86.2062 224.049 86.4895C223.358 91.2454 223.553 91.8229 226.204 92.6782V95.5982C224.811 95.5982 223.287 95.9251 222.024 95.4947C221.028 95.1515 219.978 94.0075 219.619 92.9833C219.189 91.7575 219.472 90.2812 219.428 88.9083C219.39 87.6989 219.863 86.2552 217.888 85.9502C217.692 85.9175 217.589 83.9617 217.621 83.9563C219.983 83.5586 219.232 81.5265 219.673 79.963H223.592C223.706 80.9382 223.831 81.946 223.983 83.2208Z" fill="black" fill-opacity="0.37"/>
<path d="M195.699 78.9933H199.672V95.4838H195.699V78.9933Z" fill="black" fill-opacity="0.37"/>
<path d="M124.25 82.7958V86.7563C117.513 86.8163 120.92 92.2586 119.662 95.4728H115.657C115.657 91.801 115.624 88.2164 115.706 84.6317C115.711 84.2721 116.375 83.6184 116.724 83.6238C117.856 83.6402 118.988 83.9017 119.973 84.4519C121.252 83.9562 122.525 83.4659 124.25 82.7958Z" fill="black" fill-opacity="0.37"/>
<path d="M233.061 95.4783H228.789C228.789 91.7902 228.707 88.2109 228.898 84.6481C228.919 84.234 230.438 83.6402 231.282 83.613C231.858 83.5912 232.963 84.3811 232.98 84.8496C233.126 88.3471 233.061 91.8501 233.061 95.4783Z" fill="black" fill-opacity="0.37"/>
<path d="M232.954 79.0477V81.5755C229.166 82.4962 228.518 82.0876 229.051 79.0477H232.954Z" fill="black" fill-opacity="0.37"/>
</g>
<defs>
<clipPath id="clip0_724_3588">
<rect width="278" height="100" fill="white"/>
</clipPath>
</defs>
</svg>
