<svg width="219" height="110" viewBox="0 0 219 110" fill="none" xmlns="http://www.w3.org/2000/svg">
<g clip-path="url(#clip0_724_3591)">
<path d="M173.115 0C175.724 3.66488 177.79 7.65078 180.044 11.523C180.568 12.4258 181.232 12.7134 182.251 12.7C185.76 12.6532 189.262 12.6866 192.77 12.7C196.01 12.7 197.426 14.8802 195.896 17.756C194.226 20.8858 192.381 23.9287 190.563 26.9784C190.02 27.8879 189.899 28.5767 190.516 29.5799C192.354 32.5426 194.085 35.5788 195.749 38.6485C197.439 41.7583 196.278 43.8649 192.73 44.012C189.47 44.1458 186.196 44.1725 182.942 44.012C181.212 43.9251 180.293 44.5872 179.528 46.0184C178.173 48.5664 176.677 51.0409 175.234 53.5421C174.966 54.0102 174.698 54.4917 174.376 54.9264C172.699 57.2003 170.311 57.2337 168.774 54.8328C166.795 51.7431 164.977 48.553 163.18 45.3563C162.63 44.3799 161.986 44.012 160.885 44.0321C157.558 44.0856 154.237 44.0856 150.91 44.0455C146.872 43.9987 145.59 41.7449 147.583 38.274C149.233 35.4049 150.856 32.5225 152.554 29.6802C153.157 28.6704 153.097 27.8678 152.487 26.8714C150.762 24.0424 149.159 21.1466 147.489 18.291C145.731 15.2882 146.852 12.4058 150.85 12.6666C154.164 12.8806 157.498 12.6867 160.825 12.7268C161.898 12.7402 162.549 12.4125 163.146 11.436C165.38 7.73772 167.211 3.78526 169.895 0.35445C169.942 0.287573 169.875 0.133755 169.861 0.0200632C170.948 0.0200632 172.041 0.0200632 173.128 0.0200632L173.115 0ZM171.478 36.1339C174.517 36.7826 176.63 36.2476 178.166 33.1779C181.198 27.1188 181.285 29.5799 178.213 23.601C176.751 20.7521 174.966 19.9763 171.981 20.1368C165.829 20.4645 167.553 19.147 164.508 24.4504C161.818 29.1452 161.965 27.2994 164.36 32.1413C165.923 35.3046 167.761 37.3644 171.478 36.1339Z" fill="black" fill-opacity="0.37"/>
<path d="M0 71.2846C1.14712 71.2646 2.30096 71.3181 3.43466 71.191C4.54824 71.0639 5.02454 71.4184 4.68241 72.9365C6.58087 71.2178 8.53299 70.1945 10.6394 70.7764C12.5043 71.2913 14.9998 71.084 15.6371 73.8795C17.1398 72.0738 18.7229 70.9503 20.9233 70.7095C24.5726 70.3149 27.4773 72.2878 27.692 75.9661C27.967 80.7679 27.8194 85.5897 27.8597 90.4049C27.8597 90.9065 27.6987 91.2007 27.1486 91.1941C25.9411 91.1807 24.7336 91.1941 23.5261 91.1874C22.5936 91.1874 22.9022 90.4584 22.9022 89.997C22.8821 86.205 22.8888 82.4064 22.8888 78.6144C22.8888 76.588 22.1442 75.4645 20.6616 75.2572C19.2395 75.0565 17.1465 76.5345 16.7507 78.066C16.5159 78.9956 16.3348 79.9252 16.3482 80.9016C16.3817 83.8509 16.3281 86.8069 16.3817 89.7562C16.4019 90.766 16.261 91.2342 15.0401 91.2275C11.5316 91.2074 11.5316 91.2743 11.5316 87.79C11.5316 84.8407 11.5987 81.8847 11.5048 78.9354C11.4578 77.3839 11.2834 75.7186 9.29774 75.2839C7.85545 74.9696 6.21862 75.9995 5.40691 77.6514C5.29958 77.8654 5.2392 78.0995 5.17883 78.3268C4.94404 79.1962 4.77633 80.059 4.78974 80.9819C4.82999 83.9913 4.77633 87.0075 4.82999 90.017C4.84341 90.9332 4.62204 91.3211 3.63591 91.2476C2.43512 91.1606 1.22092 91.2074 0.0134167 91.1941V71.2913L0 71.2846Z" fill="black" fill-opacity="0.37"/>
<path d="M35.5684 110C35.7294 109.425 36.3465 108.983 36.0178 108.254C35.3537 106.797 35.461 105.385 36.7155 104.322C38.0102 103.225 39.5598 103.165 41.143 103.707C41.7266 103.907 42.27 104.342 42.9006 103.66C43.1219 103.426 43.5043 103.713 43.4037 104.182C42.9743 106.155 43.6049 108.428 41.74 109.993H35.5684V110ZM38.8554 107.445C38.8756 108.121 37.9029 108.141 37.923 108.823C40.4789 109.679 42.4645 108.703 42.4243 106.616C42.4176 106.195 42.4779 105.686 42.0419 105.533C41.8272 105.459 41.465 105.813 41.1631 105.961C40.3313 106.382 39.8952 107.405 38.8353 107.472C38.3926 106.669 39.2646 106.603 39.5665 106.268C40.0764 105.706 40.9015 105.459 41.2369 104.69C38.7749 103.66 36.7222 104.496 36.6484 106.542C36.6283 107.011 36.5142 107.579 36.9503 107.893C37.5004 108.295 37.6815 107.512 38.0907 107.425C38.3389 107.372 38.6274 106.743 38.8554 107.445Z" fill="black" fill-opacity="0.37"/>
<path d="M0.725138 110C0.711721 108.194 0.745263 106.389 0.67818 104.59C0.644638 103.7 0.959929 103.393 1.81189 103.513C2.16743 103.56 2.53639 103.526 2.89864 103.52C4.55559 103.5 6.23938 103.479 7.00413 105.359C7.72192 107.118 7.14501 108.502 5.60209 109.545C5.56184 109.572 5.55513 109.646 5.5283 109.699C5.40755 109.993 5.6893 109.92 5.80334 109.993H4.35434C4.35434 109.906 4.34093 109.826 4.33422 109.739C4.22018 109.826 4.10613 109.906 3.98538 109.993H0.725138V110ZM1.72468 106.569C1.81859 107.679 1.16118 109.177 3.38834 108.97C5.40755 108.783 6.26621 108.234 6.2528 106.596C6.23938 105.004 5.32034 104.436 3.32126 104.262C1.1746 104.075 1.81189 105.499 1.72468 106.569Z" fill="black" fill-opacity="0.37"/>
<path d="M86.7389 110C86.8664 109.926 87.0743 109.987 87.0139 109.692C86.8999 109.164 85.6186 109.177 86.2693 108.422C86.8261 107.773 87.2487 108.796 87.7988 108.87C88.0336 108.903 88.2617 109.017 88.4965 109.057C89.6436 109.258 91.153 109.478 91.3676 108.121C91.589 106.743 89.9723 107.044 89.06 106.837C88.5367 106.716 87.9598 106.823 87.4567 106.669C86.8731 106.489 86.4169 106.094 86.3498 105.385C86.2961 104.784 86.5242 104.335 86.9737 103.974C87.9263 103.219 90.8377 103.259 91.797 104.021C92.0318 104.208 92.3269 104.422 92.1391 104.737C91.9647 105.031 91.6091 105.024 91.3475 104.817C90.4016 104.081 89.3149 104.142 88.2416 104.309C87.7854 104.382 87.2957 104.69 87.3896 105.272C87.4634 105.72 87.8525 105.927 88.3221 105.974C89.0399 106.041 89.7644 106.081 90.4687 106.228C92.7361 106.69 93.0716 107.512 91.797 109.385C91.6628 109.585 91.2804 109.826 91.8305 110H91.106C91.0993 109.913 91.0926 109.833 91.0859 109.746C90.9718 109.833 90.8578 109.913 90.7438 110H87.8391C87.772 109.906 87.7116 109.739 87.6311 109.732C87.45 109.706 87.403 109.839 87.4768 110H86.7523H86.7389Z" fill="black" fill-opacity="0.37"/>
<path d="M58.0679 110C58.8327 109.559 58.088 109.478 57.8935 109.258C57.6855 109.024 57.1891 108.89 57.5447 108.435C57.8331 108.074 58.135 108.208 58.4771 108.435C59.5169 109.131 60.6305 109.438 61.8715 108.977C62.4216 108.776 62.8711 108.515 62.8174 107.853C62.7637 107.238 62.2807 107.124 61.7843 107.064C60.9525 106.964 60.1207 106.87 59.2888 106.763C58.4369 106.656 57.7794 106.262 57.6855 105.345C57.605 104.523 58.0947 103.981 58.8394 103.727C60.3152 103.225 61.7709 103.239 63.1662 104.035C63.4413 104.188 63.6828 104.449 63.5084 104.75C63.3406 105.044 62.9985 105.024 62.7302 104.81C61.8447 104.122 60.825 104.155 59.8054 104.269C59.2352 104.329 58.7052 104.583 58.7723 105.265C58.8259 105.867 59.3492 105.934 59.8523 105.981C60.5701 106.048 61.2879 106.114 61.9856 106.268C64.0651 106.723 64.3939 107.626 63.1528 109.385C63.0119 109.585 62.6094 109.793 63.1528 110H62.4283C62.1868 109.405 61.9453 109.733 61.7038 110H59.1614C59.0943 109.906 59.0339 109.739 58.9534 109.726C58.7723 109.706 58.7253 109.833 58.7991 110H58.0746H58.0679Z" fill="black" fill-opacity="0.37"/>
<path d="M138.996 110C138.976 108.201 138.996 106.409 138.922 104.61C138.889 103.74 139.197 103.419 140.056 103.513C140.593 103.573 141.136 103.533 141.679 103.52C143.209 103.493 144.564 103.794 145.201 105.399C145.839 107.004 145.369 108.301 144.041 109.345C143.913 109.445 143.799 109.599 143.752 109.753C143.658 110.067 143.96 109.926 144.074 109.993H142.988C142.746 109.371 142.505 109.692 142.263 109.993H138.996V110ZM139.794 106.743C140.083 107.439 138.902 109.09 141.196 108.963C143.558 108.836 144.423 108.335 144.43 106.623C144.437 105.011 143.551 104.483 141.545 104.255C139.405 104.008 139.761 105.325 139.794 106.743Z" fill="black" fill-opacity="0.37"/>
<path d="M45.7302 110C45.7101 108.194 45.69 106.389 45.6833 104.59C45.6833 104.242 45.5961 103.854 45.9516 103.6C46.4883 103.219 50.3724 103.667 51.0231 104.202C52.3446 105.278 52.2709 106.636 51.9019 108.121C51.6805 109.004 50.4059 108.977 50.4529 110H49.3661C49.3661 109.913 49.3527 109.833 49.346 109.746C49.232 109.833 49.1179 109.913 48.9972 110H45.7302ZM46.5084 106.676C46.8103 107.432 45.6363 109.09 47.944 108.963C50.2114 108.836 51.0902 108.362 51.1371 106.736C51.1908 105.004 50.3254 104.456 48.1519 104.262C46.0522 104.068 46.5486 105.419 46.5017 106.683L46.5084 106.676Z" fill="black" fill-opacity="0.37"/>
<path d="M218.115 110C217.17 109.452 216.633 108.515 215.922 107.733C215.56 107.332 215.278 106.476 214.567 106.817C213.862 107.158 213.004 107.519 213.031 108.609C213.044 108.997 213.346 109.739 212.534 109.672C211.836 109.612 212.085 108.937 212.071 108.495C212.044 107.111 212.051 105.727 212.051 104.336C212.051 103.968 212.065 103.546 212.548 103.526C213.071 103.5 213.031 103.954 213.037 104.295C213.051 105.011 213.037 105.733 213.037 106.556C215.016 105.76 216.217 103.747 218.471 103.419C218.391 103.673 218.384 103.794 218.323 103.867C217.639 104.737 215.949 104.998 216.049 106.121C216.13 107.011 217.324 107.786 217.988 108.642C218.31 109.057 218.552 109.539 218.827 109.987H218.102L218.115 110Z" fill="black" fill-opacity="0.37"/>
<path d="M159.377 103.533C159.98 103.533 160.584 103.533 161.188 103.52C162.831 103.506 164.622 103.379 165.36 105.258C166.045 107.011 165.555 108.562 163.898 109.632C163.851 109.659 163.797 109.766 163.817 109.779C163.878 109.86 163.965 109.92 164.045 109.993H162.959C162.845 109.88 162.751 109.699 162.617 109.666C161.557 109.378 160.067 110.241 159.47 109.177C158.981 108.301 159.289 106.97 159.289 105.84C159.289 105.071 159.35 104.295 159.383 103.526L159.377 103.533ZM161.537 108.93C163.737 108.923 164.689 108.221 164.73 106.696C164.777 105.138 163.683 104.389 161.631 104.275C158.994 104.128 160.309 106.048 160.094 107.104C159.853 108.268 160.007 109.338 161.537 108.93Z" fill="black" fill-opacity="0.37"/>
<path d="M194.528 110C194.367 109.612 194.152 109.304 194.441 108.803C195.306 107.298 196.057 105.733 196.862 104.195C197.406 103.152 198.003 103.239 198.519 104.195C199.264 105.553 199.995 106.924 200.639 108.335C200.807 108.703 201.458 109.197 200.955 109.565C200.317 110.02 200.123 109.311 199.807 108.87C199.116 107.9 198.083 107.92 197.017 108.087C195.89 108.261 195.112 108.709 195.246 110.007H194.521L194.528 110ZM197.62 104.697C197.164 105.606 196.762 106.415 196.326 107.285C197.252 107.586 198.07 107.432 198.942 107.392C198.707 106.409 198.197 105.62 197.62 104.697Z" fill="black" fill-opacity="0.37"/>
<path d="M112.867 110C112.847 108.201 112.827 106.395 112.82 104.596C112.82 104.255 112.706 103.653 113.062 103.64C114.732 103.553 116.416 103.586 118.093 103.6C118.16 103.6 118.287 103.874 118.267 104.008C118.227 104.315 117.939 104.295 117.711 104.302C116.805 104.302 115.899 104.322 114.994 104.302C114.229 104.282 113.592 104.255 113.612 105.379C113.632 106.435 114.262 106.315 114.933 106.335C115.953 106.362 116.966 106.409 117.986 106.462C118.046 106.462 118.1 106.636 118.254 106.904C117.342 107.352 116.376 107.191 115.497 107.104C114.034 106.964 113.35 107.378 113.632 108.93C113.692 109.271 113.605 109.639 113.585 110H112.86H112.867Z" fill="black" fill-opacity="0.37"/>
<path d="M122.306 110C120.287 108.676 119.871 106.984 120.777 103.306C121.676 104.496 121.213 105.7 121.287 106.783C121.414 108.656 122.615 109.552 124.446 109.07C125.446 108.81 125.936 108.315 125.949 107.178C125.956 106.081 125.459 104.824 126.721 103.586C126.727 105.981 127.123 108.067 125.936 109.993H125.211C124.97 109.418 124.728 109.746 124.487 109.993H122.306V110Z" fill="black" fill-opacity="0.37"/>
<path d="M19.2333 110C19.2199 108.682 19.1125 107.358 19.2131 106.054C19.3205 104.71 18.9582 104.034 17.4958 104.289C17.2275 104.335 16.9055 104.329 16.7109 104.014C17.6971 103.413 20.6957 103.306 22.6076 103.78C22.735 104.001 22.5338 104.195 22.4264 104.182C20.1255 103.907 20.045 105.285 20.159 107.011C20.2261 108.007 20.6219 109.164 19.5955 109.993H19.2333V110Z" fill="black" fill-opacity="0.37"/>
<path d="M29.7573 110C29.3279 109.532 28.5766 109.411 28.3418 108.709C28.8114 108.281 29.1669 108.509 29.6902 108.783C31.4075 109.692 32.4674 109.017 32.5345 107.057C32.568 106.094 32.5345 105.138 32.5412 104.175C32.5412 103.867 32.5949 103.54 32.984 103.526C33.3999 103.513 33.4133 103.861 33.4133 104.155C33.4133 105.479 33.4267 106.797 33.4066 108.121C33.3865 109.304 32.3333 109.518 31.5685 110H29.7505H29.7573Z" fill="black" fill-opacity="0.37"/>
<path d="M159.376 103.533C159.342 104.302 159.275 105.078 159.282 105.847C159.282 106.977 158.973 108.308 159.463 109.184C160.06 110.254 161.549 109.385 162.609 109.672C162.743 109.712 162.837 109.886 162.951 110H158.96C158.953 108.382 158.92 106.77 158.947 105.151C158.953 104.596 158.692 103.928 159.369 103.533H159.376Z" fill="black" fill-opacity="0.37"/>
<path d="M9.43835 110C9.45177 109.866 9.46518 109.739 9.4786 109.605C11.5045 109.605 13.5237 109.592 15.5496 109.585C15.5698 109.726 15.5832 109.86 15.6033 110H9.43164H9.43835Z" fill="black" fill-opacity="0.37"/>
<path d="M80.4533 109.539C80.4935 109.692 80.5338 109.846 80.574 110H74.4023C74.4158 109.873 74.4225 109.739 74.4359 109.612C76.4417 109.585 78.4475 109.559 80.4533 109.539Z" fill="black" fill-opacity="0.37"/>
<path d="M88.2349 73.6119C87.5104 70.9302 89.0533 71.1575 90.5627 71.191C92.9307 71.2445 92.9374 71.2044 92.9374 73.5518C92.9374 78.9153 92.8972 84.2789 92.971 89.6358C92.9844 90.8596 92.7429 91.4482 91.4214 91.2208C91.0658 91.1606 90.6902 91.1673 90.3346 91.2208C88.6777 91.4548 87.5775 91.1338 88.0739 88.8266C85.9474 90.853 83.5726 91.7759 80.735 91.622C77.8504 91.4682 75.3683 90.5721 73.7583 88.1444C70.3975 83.0885 70.6725 76.4877 74.5969 73.1706C78.2127 70.1143 82.137 69.3251 88.2349 73.6053V73.6119ZM88.5435 81.4165C88.6441 78.5809 85.6388 75.3909 82.7609 75.2772C80.0105 75.1702 76.7301 78.2867 76.6295 81.1089C76.5423 83.5901 80.1715 87.5559 82.5127 87.5358C85.2027 87.5091 88.4429 84.2187 88.5435 81.4165Z" fill="black" fill-opacity="0.37"/>
<path d="M148.683 82.6337C149.32 85.0079 151.017 86.5059 153.124 87.3486C155.472 88.2849 157.135 86.4658 158.839 85.2486C159.483 84.7939 159.973 84.2923 160.838 84.6334C161.992 85.0948 162.858 85.9642 163.448 86.9406C163.757 87.4489 163.039 88.1846 162.522 88.7062C159.296 91.9297 153.493 92.2306 149.119 90.4049C143.35 87.9973 142.377 79.2096 145.503 74.8893C148.099 71.3114 153.271 69.8401 157.538 71.1843C162.442 72.7292 164.193 76.2804 164.783 80.8749C164.937 82.0786 164.609 82.5602 163.267 82.5401C158.491 82.4732 153.714 82.5334 148.938 82.5401C148.884 82.5401 148.831 82.5735 148.69 82.627L148.683 82.6337ZM158.967 78.1529C156.136 74.6686 153.003 74.4011 149.917 77.0361C149.575 77.3304 149.501 77.6045 149.542 77.9055C149.602 78.3268 150.018 78.1396 150.266 78.1396C153.07 78.1529 155.868 78.1529 158.967 78.1529Z" fill="black" fill-opacity="0.37"/>
<path d="M143.196 71.1977C140.405 74.1738 137.97 76.8489 135.427 79.4237C134.622 80.2396 134.763 80.7345 135.401 81.4969C137.997 84.6134 140.546 87.7767 143.343 91.2075C141.056 91.2075 139.043 91.2075 137.037 91.2075C136.447 91.2075 136.273 90.7059 135.978 90.3381C133.844 87.6897 131.704 85.0481 129.262 82.0319C129.262 85.0012 129.222 87.5091 129.283 90.0037C129.303 90.9065 129.108 91.2342 128.109 91.2476C124.453 91.3145 124.453 91.3546 124.453 87.79C124.453 79.1093 124.473 70.4287 124.426 61.748C124.426 60.5308 124.513 59.9423 126.029 60.0092C129.269 60.1496 129.269 60.0493 129.262 63.3731C129.262 68.2886 129.262 73.2108 129.262 78.5208C131.456 76.2136 133.422 74.2139 135.293 72.134C135.917 71.4385 136.534 71.1442 137.467 71.1777C139.251 71.2446 141.042 71.1977 143.196 71.1977Z" fill="black" fill-opacity="0.37"/>
<path d="M41.9334 91.6287C35.6745 91.9297 31.0592 87.1212 31.0861 81.2493C31.1129 75.217 35.7215 70.569 41.7053 70.6426C48.6484 70.7295 52.5527 75.6918 52.5862 80.9685C52.6265 86.9674 48.313 91.8895 41.9334 91.6287ZM35.9831 81.2293C35.688 83.6569 39.4446 87.168 41.6986 87.1814C44.2612 87.1948 47.7965 83.6168 47.7831 81.1423C47.7697 78.3736 44.6704 75.5648 41.6919 75.6316C38.9214 75.6918 35.9362 78.6211 35.9831 81.236V81.2293Z" fill="black" fill-opacity="0.37"/>
<path d="M194.058 75.1903C194.058 70.5089 194.118 66.1217 194.024 61.7345C193.997 60.4104 194.547 60.3167 195.594 60.3234C196.607 60.3368 197.21 60.3569 197.197 61.7078C197.13 71.1576 197.13 80.6073 197.197 90.0638C197.204 91.495 196.385 91.2074 195.587 91.2141C194.762 91.2275 193.823 91.4147 194.044 90.0237C194.138 89.4485 194.058 88.8466 194.058 87.596C191.844 91.0335 189.026 92.0701 185.605 91.5552C183.619 91.2542 181.983 90.2711 180.681 88.7931C177.146 84.7471 177.28 77.4842 181.104 74.0065C184.062 71.3181 189.187 70.0608 194.058 75.197V75.1903ZM194.245 81.8446C194.306 77.7316 191.837 74.9361 188.121 74.9094C184.538 74.8826 181.58 77.6781 181.54 81.1357C181.5 84.6133 184.129 88.3584 186.618 88.3718C191.663 88.3986 194.178 86.2384 194.245 81.8446Z" fill="black" fill-opacity="0.37"/>
<path d="M114.176 91.5419C111.425 91.5753 109.131 90.6056 107.434 88.3986C106.87 87.6697 106.749 87.0076 107.923 86.6999C108.373 86.5796 108.795 86.3187 109.198 86.0713C110.379 85.3557 111.439 85.1885 112.478 86.3856C112.8 86.7601 113.404 87.0009 113.914 87.0744C115.189 87.2617 116.248 86.6331 116.725 85.5563C117.174 84.5398 116.081 84.1118 115.376 83.744C114.048 83.0484 112.633 82.5335 111.298 81.858C108.534 80.4736 107.212 78.2533 107.863 75.6117C108.427 73.3178 109.896 70.8634 113.176 70.7162C115.759 70.5958 118.08 70.9704 120.126 72.5754C121.112 73.3512 121.662 74.1604 120.24 75.0699C119.938 75.2639 119.67 75.5247 119.455 75.8123C118.63 76.9091 117.785 77.1967 116.705 76.0999C116.342 75.732 115.799 75.4712 115.289 75.3375C114.236 75.0699 113.035 75.1034 112.626 76.2269C112.257 77.2502 113.438 77.5578 114.142 77.9323C115.464 78.6345 116.872 79.1695 118.174 79.9052C120.85 81.4099 121.89 83.8777 121.239 86.9006C120.73 89.2881 118.174 91.3412 115.443 91.5352C115.021 91.5686 114.598 91.5352 114.176 91.5352V91.5419Z" fill="black" fill-opacity="0.37"/>
<path d="M206.583 79.5106C208.796 78.1062 210.239 76.2871 211.614 74.5483C213.371 72.328 215.431 72.0337 218.181 72.5554C215.807 75.0298 213.606 77.4642 211.245 79.738C210.265 80.681 210.346 81.129 211.245 82.0653C213.848 84.7939 216.316 87.6496 219.006 90.6457C216.705 90.8664 214.706 91.4884 213.137 89.1543C211.969 87.4222 210.339 86.0044 208.89 84.4729C208.548 84.1051 208.24 83.3427 207.689 83.6169C207.092 83.9178 206.556 84.493 206.576 85.3423C206.603 86.8471 206.502 88.3585 206.609 89.8565C206.69 90.9935 206.314 91.3613 205.201 91.2275C204.302 91.1205 203.269 91.5619 203.322 89.9034C203.43 86.3522 203.356 82.7943 203.356 79.2364C203.356 73.4515 203.416 67.6666 203.322 61.8817C203.295 60.3302 204.033 60.3703 205.174 60.3034C206.455 60.2298 206.623 60.7448 206.616 61.8416C206.569 67.6265 206.596 73.4114 206.596 79.5039L206.583 79.5106Z" fill="black" fill-opacity="0.37"/>
<path d="M61.4155 91.5752C58.5846 91.5552 56.2971 90.4717 54.62 88.1578C54.1907 87.5626 54.09 87.1814 54.9017 86.8269C56.6996 86.0445 58.4102 84.9142 60.3288 86.6664C60.8587 87.1546 61.6771 87.3753 62.5224 86.9072C63.2268 86.5126 64.0184 86.1515 64.1659 85.369C64.3471 84.406 63.3609 84.0916 62.7169 83.7572C61.3954 83.0684 60.0001 82.5066 58.6383 81.8914C54.989 80.2328 54.3114 76.1332 56.069 73.2709C56.8405 72.0136 57.9339 71.2244 59.3359 70.9168C62.348 70.248 65.1319 70.7563 67.5872 72.6823C68.4593 73.3645 68.8953 74.1068 67.7079 74.9495C67.3189 75.2237 66.9834 75.5848 66.6681 75.9527C65.89 76.8622 65.1722 77.1431 64.1391 76.1867C63.4012 75.4979 62.4285 75.0498 61.3149 75.2705C60.6172 75.4109 60.094 75.7253 59.9129 76.4676C59.7116 77.3036 60.3892 77.4173 60.8923 77.6513C62.0327 78.1864 63.1932 78.6746 64.3269 79.2163C68.4257 81.1691 69.0899 83.6235 68.5331 86.9607C68.0635 89.7896 65.0984 91.5953 61.4222 91.5819L61.4155 91.5752Z" fill="black" fill-opacity="0.37"/>
<path d="M98.6519 81.236C98.6519 78.3402 98.6787 75.4444 98.6317 72.5553C98.6183 71.619 98.7458 71.191 99.8661 71.1776C103.462 71.1442 103.462 71.0907 103.468 74.682C103.468 79.6844 103.421 84.6936 103.502 89.696C103.522 90.9934 103.14 91.281 101.899 91.2542C98.6586 91.1807 98.6519 91.2409 98.6519 87.9304C98.6519 85.6967 98.6519 83.4697 98.6519 81.236Z" fill="black" fill-opacity="0.37"/>
<path d="M100.78 62.2027C103.792 62.3364 104.718 63.1724 104.59 65.6736C104.476 67.8672 103.168 68.9506 100.753 68.8369C98.5261 68.7366 97.4527 67.4459 97.5533 65.0048C97.6406 62.8447 98.4925 62.1024 100.787 62.2027H100.78Z" fill="black" fill-opacity="0.37"/>
<path d="M185.874 105.426C185.874 106.596 185.874 107.766 185.874 108.937C185.874 109.278 185.928 109.739 185.378 109.659C184.996 109.605 185.063 109.218 185.063 108.937C185.063 107.492 185.036 106.048 185.069 104.603C185.076 104.195 184.808 103.573 185.606 103.513C186.183 103.466 186.445 103.787 186.673 104.275C187.337 105.727 188.061 107.151 188.833 108.736C189.584 107.151 190.228 105.753 190.899 104.369C191.127 103.894 191.355 103.359 192.08 103.513C192.777 103.667 192.616 104.222 192.623 104.663C192.636 106.108 192.623 107.552 192.61 108.99C192.61 109.391 192.462 109.706 191.986 109.652C191.556 109.599 191.63 109.238 191.63 108.957C191.623 107.833 191.63 106.71 191.375 105.499C190.812 106.643 190.255 107.786 189.691 108.93C189.135 110.06 188.531 110.067 187.961 108.957C187.343 107.76 186.767 106.549 186.176 105.339C186.082 105.365 185.982 105.392 185.888 105.419L185.874 105.426Z" fill="black" fill-opacity="0.37"/>
<path d="M171.404 86.9607C172.98 86.8737 174.054 87.6696 174.148 88.9804C174.242 90.2711 173.148 91.515 171.847 91.602C170.156 91.7157 169.13 90.8463 169.09 89.2747C169.049 87.7231 169.72 87.0476 171.404 86.9607Z" fill="black" fill-opacity="0.37"/>
<path d="M80.4538 109.538C78.448 109.565 76.4422 109.592 74.4364 109.612C74.4163 107.927 74.4029 106.241 74.3761 104.563C74.3694 103.988 74.3694 103.499 75.1945 103.52C76.6435 103.56 78.0925 103.52 79.5415 103.52C79.8366 103.52 80.1922 103.499 80.1855 103.921C80.1788 104.322 79.8299 104.335 79.5281 104.335C78.5017 104.335 77.4753 104.369 76.4489 104.335C75.6909 104.309 75.3622 104.57 75.3756 105.365C75.3957 106.114 75.7781 106.268 76.4087 106.261C77.643 106.248 78.8773 106.261 80.1184 106.469C79.0182 107.285 77.7839 106.877 76.6166 106.964C75.8854 107.017 75.3622 107.024 75.3555 108.007C75.3488 109.09 76.033 108.937 76.677 108.937C77.643 108.937 78.609 108.937 79.575 108.937C80.0245 108.937 80.4471 108.937 80.4538 109.545V109.538Z" fill="black" fill-opacity="0.37"/>
<path d="M15.5498 109.585C13.5239 109.585 11.5047 109.599 9.47876 109.605C9.46534 107.92 9.47876 106.228 9.42509 104.543C9.40497 103.787 9.61963 103.473 10.4448 103.506C11.9877 103.573 13.5373 103.526 15.2278 103.526C14.3825 104.804 13.2488 104.081 12.3298 104.302C11.659 104.463 10.5521 103.673 10.4917 105.225C10.4313 106.743 11.3571 106.449 12.2761 106.395C13.2153 106.342 14.1612 106.382 15.1272 106.609C14.1545 107.164 13.0677 106.89 12.0346 106.957C11.2833 107.011 10.4246 106.763 10.4783 108.061C10.5253 109.345 11.4242 108.87 12.0346 108.91C12.9403 108.97 13.8459 108.93 14.7515 108.923C15.2077 108.923 15.6236 108.957 15.5498 109.585Z" fill="black" fill-opacity="0.37"/>
<path d="M106.274 108.729C107.059 107.138 107.777 105.773 108.407 104.376C108.656 103.821 108.937 103.399 109.581 103.54C110.286 103.687 109.991 104.315 110.004 104.73C110.044 106.108 110.024 107.492 110.011 108.877C110.011 109.198 110.145 109.692 109.595 109.672C109.072 109.646 109.219 109.157 109.212 108.836C109.192 107.706 109.206 106.569 108.951 105.332C108.354 106.516 107.737 107.693 107.166 108.89C106.979 109.284 106.838 109.646 106.328 109.712C105.65 109.799 105.577 109.244 105.375 108.843C104.798 107.699 104.248 106.542 103.457 104.924C103.457 106.656 103.463 107.847 103.457 109.03C103.457 109.311 103.497 109.679 103.048 109.659C102.625 109.646 102.632 109.291 102.625 109.004C102.611 107.679 102.578 106.355 102.638 105.038C102.665 104.523 102.202 103.727 103.088 103.526C104 103.326 104.087 104.195 104.362 104.743C104.98 105.974 105.556 107.218 106.274 108.723V108.729Z" fill="black" fill-opacity="0.37"/>
<path d="M208.032 107.285C208.669 108.047 209.233 108.736 209.85 109.478C208.656 110.1 208.267 109.124 207.851 108.549C207.227 107.679 206.529 107.332 205.443 107.358C204.342 107.385 203.692 107.559 203.913 108.836C203.987 109.251 203.98 109.746 203.336 109.692C202.826 109.646 202.914 109.204 202.9 108.863C202.887 108.442 202.887 108.02 202.887 107.599C202.887 104.688 204.331 103.332 207.22 103.533C208.146 103.6 209.045 103.774 209.414 104.784C209.749 105.72 209.374 106.402 208.039 107.285H208.032ZM205.677 106.629C206.214 106.629 206.576 106.656 206.932 106.629C207.73 106.549 208.602 106.348 208.549 105.372C208.502 104.536 207.75 104.295 206.959 104.309C206.241 104.322 205.53 104.322 204.812 104.295C204.228 104.275 204.014 104.496 203.913 105.098C203.625 106.85 204.738 106.723 205.677 106.636V106.629Z" fill="black" fill-opacity="0.37"/>
<path d="M176.65 105.626C176.65 106.442 176.65 107.646 176.65 108.843C176.65 109.197 176.69 109.632 176.201 109.672C175.671 109.719 175.697 109.284 175.697 108.923C175.697 107.418 175.691 105.914 175.697 104.409C175.697 104.068 175.624 103.66 176.107 103.533C176.516 103.426 176.851 103.64 177.052 103.927C178.22 105.553 180.125 106.476 181.218 108.515C181.728 106.73 181.091 105.058 181.634 103.54C181.829 103.54 182.03 103.533 182.225 103.526C182.225 105.479 182.399 107.459 182.144 109.378C182.037 110.167 181.212 109.552 180.769 109.171C179.374 107.96 177.972 106.763 176.657 105.626H176.65Z" fill="black" fill-opacity="0.37"/>
<path d="M66.8891 106.629C68.9754 105.726 70.2567 103.82 72.551 103.713C71.6252 104.429 70.6995 105.145 69.6932 105.92C70.6592 107.111 71.6386 108.308 72.6851 109.599C71.0282 109.94 70.7867 108.448 69.9481 107.84C69.4651 107.492 69.3645 106.355 68.5796 106.79C67.882 107.171 66.8355 107.472 66.8958 108.662C66.916 109.03 67.0904 109.646 66.4665 109.652C65.8024 109.666 66.0506 109.044 66.0439 108.682C66.017 107.178 66.0238 105.673 66.0305 104.168C66.0305 103.881 66.0171 103.52 66.4397 103.52C66.8355 103.52 66.8958 103.841 66.8958 104.155C66.8958 104.924 66.8958 105.7 66.8958 106.623L66.8891 106.629Z" fill="black" fill-opacity="0.37"/>
<path d="M130.403 104.757C130.403 106.295 130.43 107.378 130.39 108.448C130.376 108.876 130.652 109.592 129.994 109.639C129.243 109.692 129.551 108.943 129.538 108.549C129.498 107.225 129.504 105.894 129.538 104.57C129.545 104.202 129.31 103.673 129.914 103.52C130.376 103.399 130.719 103.673 131.014 103.994C131.96 105.011 132.879 106.041 133.838 107.044C134.24 107.459 134.717 107.806 135.2 108.228C135.589 106.676 134.972 105.044 135.555 103.546C135.743 103.546 135.924 103.533 136.112 103.526C136.112 105.479 136.287 107.452 136.032 109.371C135.918 110.221 135.066 109.599 134.67 109.191C133.328 107.826 132.013 106.435 130.41 104.763L130.403 104.757Z" fill="black" fill-opacity="0.37"/>
<path d="M93.8298 109.311C94.4268 108.148 94.9433 106.937 95.6343 105.827C96.1374 105.018 96.1173 103.533 97.3583 103.6C98.3914 103.653 98.4786 105.011 98.9147 105.807C99.3239 106.556 100.243 107.412 99.713 108.221C99.297 108.863 98.2707 108.114 97.4791 108.221C96.3856 108.362 95.1513 108.007 94.722 109.518C94.6482 109.786 94.3262 109.733 94.0981 109.672C93.9505 109.632 93.7358 109.585 93.8365 109.318L93.8298 109.311ZM95.8959 107.291H98.6396C98.1365 106.362 97.7273 105.606 97.2309 104.69C96.7143 105.693 96.3185 106.476 95.8959 107.291Z" fill="black" fill-opacity="0.37"/>
<path d="M173.906 109.411C173.819 109.492 173.718 109.652 173.591 109.686C173.262 109.759 173.048 109.552 172.833 109.318C171.418 107.76 169.392 107.753 168.084 109.345C167.802 109.686 167.507 109.813 167.178 109.659C166.755 109.465 167.084 109.151 167.205 108.923C168.043 107.285 168.868 105.64 169.754 104.028C170.223 103.165 170.854 103.339 171.257 104.068C172.149 105.686 172.96 107.345 173.799 108.99C173.853 109.09 173.859 109.218 173.906 109.411ZM169.043 107.425C170.076 107.385 170.921 107.659 171.773 107.198C171.236 106.315 171.055 105.419 170.378 104.764C169.962 105.593 169.566 106.382 169.043 107.425Z" fill="black" fill-opacity="0.37"/>
<path d="M151.662 106.502C151.662 105.727 151.649 104.951 151.662 104.168C151.669 103.894 151.649 103.526 152.092 103.546C152.494 103.566 152.528 103.907 152.528 104.195C152.541 105.807 152.541 107.425 152.534 109.037C152.534 109.338 152.487 109.659 152.078 109.652C151.656 109.646 151.662 109.298 151.662 109.01C151.649 108.174 151.662 107.338 151.662 106.502Z" fill="black" fill-opacity="0.37"/>
<path d="M54.378 106.583C54.378 105.807 54.3713 105.024 54.378 104.249C54.378 103.961 54.3646 103.606 54.7469 103.553C55.1561 103.493 55.2366 103.821 55.2434 104.121C55.2568 105.793 55.2434 107.472 55.2434 109.144C55.2434 109.385 55.1696 109.625 54.8811 109.659C54.4786 109.699 54.3914 109.411 54.3847 109.097C54.378 108.261 54.3847 107.425 54.3847 106.583H54.378Z" fill="black" fill-opacity="0.37"/>
<path d="M171.478 36.1339C167.762 37.3644 165.923 35.3046 164.36 32.1413C161.966 27.2994 161.818 29.1452 164.508 24.4504C167.554 19.147 165.83 20.4645 171.981 20.1368C174.966 19.9763 176.744 20.7521 178.213 23.601C181.286 29.5799 181.198 27.1188 178.166 33.1779C176.63 36.2476 174.517 36.7826 171.478 36.1339Z" fill="#C4C4C4" fill-opacity="0.37"/>
</g>
<defs>
<clipPath id="clip0_724_3591">
<rect width="219" height="110" fill="white"/>
</clipPath>
</defs>
</svg>
