<svg width="151" height="117" viewBox="0 0 151 117" fill="none" xmlns="http://www.w3.org/2000/svg">
<g clip-path="url(#clip0_724_3592)">
<path d="M17.6768 39.9073C14.023 21.8031 25.8398 9.07145 41.767 15.9388C47.2477 -2.18457 58.5949 -4.89317 75.6414 8.04295C81.2699 2.97071 87.6318 -0.708897 95.6598 0.345158C103.347 1.35449 107.579 6.38201 109.13 16.2135C116.759 12.8022 123.996 12.8788 129.573 19.7972C134.622 26.0577 134.687 33.4361 133.085 40.5461C136.822 42.6543 140.515 44.181 143.525 46.5574C149.186 51.0164 152.466 56.8233 150.363 64.2592C148.279 71.612 142.586 74.9402 135.42 76.1923C133.561 76.5181 131.638 76.5692 129.74 76.5692C93.4662 76.5884 57.1925 76.6714 20.9188 76.467C16.8598 76.4415 12.4599 75.4896 8.82545 73.7329C-0.566212 69.1845 -2.94629 58.0051 4.03956 50.2882C7.69974 46.2444 12.833 43.5103 17.6768 39.9009V39.9073ZM75.6285 69.1525C84.7178 53.3545 93.5885 38.1122 102.208 22.7294C103.392 20.6213 103.733 17.8169 103.733 15.3383C103.733 9.38447 99.365 5.07243 93.4148 5.10437C87.3552 5.13631 82.6465 8.01739 78.7869 12.3103C79.591 13.952 80.2665 15.1339 80.7618 16.3796C83.1097 22.3014 83.5278 28.2105 80.0735 33.8641C76.9987 38.9044 74.1812 38.8852 71.1257 33.8705C67.3047 27.6036 68.2374 21.324 70.9713 14.923C71.4923 13.7029 71.3058 11.3968 70.4631 10.5152C64.9181 4.74024 56.3177 3.43705 51.2745 7.28914C46.4436 10.9815 46.0062 18.0277 50.181 25.3167C54.0019 31.9859 57.8358 38.6552 61.6954 45.299C66.2175 53.0862 70.7783 60.8542 75.6221 69.1398L75.6285 69.1525ZM80.1893 71.2542C98.9597 71.2542 117.126 71.2734 135.291 71.2095C136.456 71.2095 137.665 70.6474 138.771 70.1619C146.336 66.8656 148.388 59.1997 142.991 53.0223C140.849 50.5756 137.749 48.8828 134.899 47.1452C132.557 45.7142 130.756 46.0592 128.936 48.7741C124.78 54.9643 118.972 58.6567 111.04 57.6538C107.097 57.1555 106.145 55.5201 107.618 51.7958C110.493 44.5324 116.553 41.4277 123.822 40.7953C127.321 40.4886 128.421 39.2238 128.852 36.0936C129.875 28.6769 126.53 21.3496 120.979 19.4842C115.479 17.638 109.419 20.8002 105.412 27.6803C98.5609 39.4538 91.7423 51.24 84.9108 63.0262C83.3863 65.6582 81.8746 68.3029 80.1893 71.2415V71.2542ZM70.8941 71.414C70.1608 69.9958 69.7233 69.0439 69.1959 68.1432C62.9112 57.2896 56.6458 46.4169 50.3032 35.5953C47.9874 31.6474 45.826 27.5398 42.9828 23.9815C39.8887 20.1039 35.5917 17.8552 30.3748 19.4906C25.203 21.1132 23.1831 25.3933 22.3919 30.2611C22.051 32.3565 22.2761 34.5604 22.4112 36.7068C22.5785 39.3132 23.717 40.4759 26.7275 40.7314C34.3116 41.3638 40.6413 44.3982 43.6004 52.0194C45.0027 55.6223 44.1664 57.0277 40.3519 57.6154C32.9607 58.7589 27.4608 55.4498 22.9901 50.0262C19.3621 45.6248 18.8733 45.4012 13.8751 48.2503C12.016 49.3108 10.1763 50.5948 8.72253 52.1407C2.55362 58.7014 4.45769 67.1786 12.9166 70.2896C15.5154 71.2479 18.4873 71.5481 21.2855 71.5673C36.3701 71.6886 51.4546 71.6312 66.5392 71.6184C67.8321 71.6184 69.1251 71.5034 70.8812 71.4203L70.8941 71.414ZM75.6735 17.5422C72.7467 23.4257 72.8946 27.642 75.963 31.0086C78.401 26.5432 77.9121 22.2823 75.6735 17.5422ZM38.6858 52.7987C35.418 48.0395 31.7 46.0656 26.2901 45.7972C29.2684 50.2243 32.6906 52.6901 38.6858 52.7987ZM112.578 51.1058C112.796 51.5786 113.009 52.0513 113.227 52.524C118.309 52.7796 122.426 50.2754 123.545 44.9668C119.892 47.011 116.238 49.0552 112.578 51.1058Z" fill="black" fill-opacity="0.37"/>
<path d="M55.791 116.214V90.7445H61.4003V99.7008C63.0728 99.7008 64.2692 99.7136 65.4721 99.7008C69.2224 99.6433 72.0785 101.119 73.6095 104.594C75.089 107.954 74.7352 111.238 72.3744 114.061C69.93 116.987 66.8166 117.281 63.1628 116.323C61.0015 115.754 58.5699 116.221 55.791 116.221V116.214ZM62.1658 104.147C61.7219 104.581 61.2781 105.009 60.8342 105.444C61.4968 107.379 61.8055 109.577 62.9827 111.136C63.4587 111.768 66.154 111.493 67.1961 110.746C68.0002 110.171 68.4312 107.424 67.9166 107.015C66.2827 105.712 64.1277 105.054 62.1722 104.147H62.1658Z" fill="black" fill-opacity="0.37"/>
<path d="M14.1133 114.151C15.0074 112.515 15.7086 111.219 16.4162 109.915C18.3331 110.535 20.0506 111.366 21.8453 111.557C22.7652 111.653 23.8009 110.599 24.785 110.062C24.1932 109.155 23.7687 108.031 22.9582 107.399C22.1541 106.772 20.9641 106.6 19.922 106.313C16.4097 105.342 14.6536 103.106 14.9817 99.4707C15.3162 95.7017 17.291 92.8909 21.112 92.4693C24.0517 92.1435 27.1201 92.9037 30.8575 93.2486C29.7704 95.5867 29.1271 96.973 28.5481 98.2187C27.9949 98.3081 27.6926 98.4614 27.4932 98.3784C25.4926 97.5607 23.357 96.2255 21.929 98.883C21.7939 99.1322 24.4827 101.336 26.1166 101.956C29.7189 103.316 31.8674 105.399 31.5393 109.436C31.2113 113.448 29.0692 115.856 25.1002 116.674C21.0477 117.511 17.4261 116.732 14.1133 114.144V114.151Z" fill="black" fill-opacity="0.37"/>
<path d="M126.079 99.5666C136.815 99.4196 138.231 100.793 136.706 116.189H131.361C131.361 113.646 131.38 111.148 131.361 108.651C131.322 105.214 129.855 103.649 125.951 104.907V116.074H120.367V90.6742H125.629C125.777 93.5681 125.925 96.4427 126.086 99.5602L126.079 99.5666Z" fill="black" fill-opacity="0.37"/>
<path d="M94.6813 99.6943V116.067C90.7703 116.323 87.0136 116.853 83.2698 116.738C78.9728 116.61 75.9687 112.643 76.1103 107.986C76.2518 103.253 79.5646 99.8604 84.3569 99.7135C87.7148 99.6113 91.0855 99.6943 94.6813 99.6943ZM89.0914 104.952C85.9329 104.773 82.7037 104.07 82.3178 108.146C82.2149 109.251 84.3891 111.576 85.5663 111.608C89.9147 111.73 89.2779 108.395 89.0978 104.952H89.0914Z" fill="black" fill-opacity="0.37"/>
<path d="M115.988 116.016C112.071 116.304 108.417 116.834 104.782 116.764C100.588 116.687 97.3462 112.592 97.462 108.127C97.5842 103.47 100.936 99.9115 105.58 99.7262C108.931 99.5921 112.289 99.7007 115.988 99.7007V116.016ZM110.462 104.83C107.24 104.869 103.888 104.102 103.798 108.318C103.772 109.449 106.05 111.634 107.214 111.602C111.524 111.481 110.668 108.159 110.456 104.83H110.462Z" fill="black" fill-opacity="0.37"/>
<path d="M51.6856 99.0747V116.023C47.8453 116.31 44.2109 116.815 40.5893 116.783C36.3566 116.751 33.0824 112.784 33.1274 108.28C33.1789 103.38 36.5689 99.8669 41.477 99.7072C43.2331 99.6497 44.9956 99.8541 46.7453 99.7583C48.3149 99.6689 49.8716 99.3303 51.692 99.0684L51.6856 99.0747ZM47.1249 108.58C47.0734 107.986 47.0155 107.386 46.964 106.792C45.9027 106.115 44.8927 104.99 43.767 104.856C41.4641 104.588 39.084 105.367 39.4443 108.146C39.6115 109.468 41.6378 111.64 42.6091 111.538C44.2044 111.366 45.6261 109.647 47.1249 108.58Z" fill="black" fill-opacity="0.37"/>
</g>
<defs>
<clipPath id="clip0_724_3592">
<rect width="151" height="117" fill="white"/>
</clipPath>
</defs>
</svg>
