<svg width="227" height="90" viewBox="0 0 227 90" fill="none" xmlns="http://www.w3.org/2000/svg">
<path d="M161.139 50.61C159.829 55.76 161.409 58.72 166.299 60.14H148.679C154.279 58.53 153.379 53.95 153.379 49.83C153.379 42.69 153.519 35.55 153.239 28.43C152.979 21.82 147.869 19.27 142.179 22.77C137.999 25.34 136.309 29.49 136.149 34.15C135.929 40.62 135.729 47.12 136.249 53.55C136.439 55.87 138.719 58.03 140.129 60.41C140.489 60.25 140.099 60.57 139.709 60.57C127.829 60.6 115.949 60.59 103.539 60.1C111.069 58.4 109.519 52.8 109.539 47.97C109.579 41.33 109.829 34.67 109.339 28.07C109.179 25.92 106.999 23.92 105.739 21.85C103.889 23.41 101.149 24.6 100.329 26.58C95.6391 37.87 91.4091 49.34 86.5791 61.93C85.4491 59.88 84.6991 58.77 84.1891 57.56C80.0891 47.79 76.1291 37.96 71.8991 28.24C70.6991 25.49 68.7491 23.08 67.0391 20.33H83.2991C81.4991 21.83 78.8591 22.96 78.5191 24.57C78.1091 26.54 79.5091 28.96 80.3491 31.1C82.8891 37.55 85.5491 43.96 88.6691 51.65C92.0791 42.57 95.3891 34.65 97.8291 26.47C98.2791 24.95 95.2391 22.39 93.7591 20.24H116.819C116.819 27.75 116.819 35.83 116.819 43.9C116.819 46.72 116.899 49.55 116.819 52.36C116.689 56.52 118.069 58.87 122.789 58.88C127.409 58.88 128.989 56.69 128.959 52.49C128.919 45.52 128.899 38.55 128.959 31.58C129.009 26.9 129.149 22.25 123.229 20.18C127.239 19.99 131.249 19.8 135.729 19.59C135.899 21.54 136.069 23.61 136.309 26.42C141.189 19.74 147.239 16.89 154.819 19.83C160.739 22.12 160.389 27.79 160.729 32.41C163.579 28.86 166.129 24.7 169.619 21.58C173.579 18.05 178.779 18.1 183.799 19.43C192.649 21.79 197.569 27.32 197.939 35.17C198.459 46.22 192.889 56.71 185.019 59.53C177.049 62.38 167.759 59.05 161.139 50.62V50.61ZM165.919 46.25C166.949 52.96 169.069 56.47 173.829 57.91C178.289 59.26 182.799 57.43 185.239 51.61C187.819 45.46 189.689 38.85 190.679 32.26C191.579 26.24 188.509 22.15 183.879 21.07C178.639 19.86 174.939 22.67 173.009 26.93C170.189 33.16 168.239 39.79 165.929 46.26L165.919 46.25Z" fill="black" fill-opacity="0.37"/>
<path d="M2.53013 58.53C2.37013 58.75 1.57013 59.88 0.330134 61.63V42.41C0.660134 42.38 0.990134 42.35 1.32013 42.32C2.06013 45.13 2.64013 48 3.58013 50.75C5.38013 56.02 8.77013 59.48 14.6801 59.93C19.1501 60.27 23.0601 59.28 25.2301 55.06C27.4701 50.69 27.1501 46.18 23.7401 42.59C21.2701 39.99 18.1501 37.98 15.2201 35.85C12.0201 33.51 8.45013 31.62 5.49013 29.03C-0.399866 23.88 -1.64987 15.4 2.23013 9.69996C6.14013 3.94996 15.7101 1.80996 22.4101 5.23996C24.0001 6.04996 25.5001 7.03996 27.3101 8.10996C28.2101 6.73996 28.9601 5.61996 30.2201 3.70996C30.4801 5.22996 30.6601 5.79996 30.6601 6.36996C30.6801 10.97 30.6701 15.57 30.6701 20.17C30.2101 20.27 29.7501 20.36 29.2801 20.46C28.7101 18.63 28.1401 16.8 27.5701 14.98C25.9701 9.85996 23.0001 6.21996 17.3301 5.46996C13.2301 4.92996 9.63013 5.92996 7.45013 9.60996C5.21013 13.39 5.50013 17.41 8.33013 20.72C10.2301 22.93 12.7901 24.63 15.2101 26.33C19.1301 29.09 23.3501 31.44 27.1401 34.37C33.0301 38.92 34.9801 45.65 32.7201 52.02C30.6101 57.96 25.2301 61.9 17.9501 61.55C13.0101 61.31 8.13013 59.68 2.53013 58.53Z" fill="black" fill-opacity="0.37"/>
<path d="M34.3191 41.6301C33.9091 24.2801 45.4991 15.1001 60.2091 19.8501C61.1491 20.1501 62.0791 20.5301 62.9491 20.9801C72.1591 25.7201 75.7091 41.5401 70.0291 52.4401C65.4691 61.1801 52.9191 64.5801 43.5391 59.4201C36.0491 55.3001 34.3091 48.2101 34.3191 41.6301ZM41.7691 40.5301C42.7091 44.9501 43.2791 49.4001 44.6491 53.5801C45.9791 57.6501 49.0591 60.0001 53.7091 59.8701C58.1691 59.7401 60.8391 57.2001 62.1891 53.4001C65.2691 44.7001 65.2891 35.8401 62.1891 27.1401C60.7691 23.1501 57.9691 20.5601 53.2491 20.6301C48.5591 20.7001 45.7291 23.2901 44.5091 27.3601C43.2391 31.5801 42.6791 36.0201 41.7791 40.5301H41.7691Z" fill="black" fill-opacity="0.37"/>
<path d="M148.991 85.58C146.761 89.76 142.951 89.33 139.501 88.23C135.511 86.96 134.981 81.71 138.541 78.94C140.721 77.24 143.311 75.82 145.941 75.01C150.761 73.52 151.131 69.96 149.831 66.39C148.361 62.37 144.951 63.43 141.431 64.92C141.871 65.62 142.591 66.24 142.541 66.78C142.421 68.06 142.231 69.54 141.481 70.47C141.111 70.93 138.681 70.62 138.511 70.16C138.041 68.92 137.701 67 138.351 66.08C140.981 62.35 145.091 62.18 149.111 62.77C152.911 63.33 154.841 65.95 154.911 69.73C155.011 75.34 154.941 80.94 154.941 86.46C160.681 88.15 161.911 85.59 161.591 80.92C161.331 77.13 161.781 73.28 161.421 69.5C161.241 67.54 159.991 65.68 159.171 63.62C160.721 63.5 163.051 63.33 165.591 63.14C165.841 64.21 166.091 65.3 166.371 66.5C167.571 65.55 168.641 64.5 169.901 63.76C175.581 60.43 181.241 63.28 181.661 69.8C181.931 73.93 181.561 78.09 181.841 82.22C181.981 84.29 182.911 86.3 183.491 88.35H175.221C175.811 86.76 176.881 85.13 176.961 83.45C177.201 78.66 177.181 73.83 176.941 69.04C176.871 67.59 175.991 65.24 175.021 64.97C173.361 64.51 171.301 65.25 169.481 65.74C168.791 65.93 168.221 66.79 167.751 67.46C165.011 71.26 165.331 84.48 168.651 88.73C161.761 87.42 154.741 91.12 148.851 85.77C149.471 82.22 150.091 78.67 150.871 74.15C148.281 75.34 146.981 75.99 145.641 76.55C141.961 78.08 139.671 80.73 141.321 84.64C143.011 88.64 146.321 86.11 149.021 85.59L148.991 85.58Z" fill="black" fill-opacity="0.37"/>
<path d="M198.63 64.37C201.71 61.92 201.16 54.67 197.39 50.83H204.88C204.88 60.62 204.76 70.52 204.96 80.41C205.01 83.07 206.06 85.72 206.72 88.71C204.89 88.44 202.34 88.06 198.88 87.55C193.63 92.07 184.9 89.37 183.25 79.75C181.59 70.1 186.67 62.29 194.7 62.7C196.09 62.77 197.43 63.91 198.8 64.57C195.13 63.7 190.71 63.09 189.78 67.58C188.69 72.85 188.98 78.52 189.48 83.94C189.6 85.29 192.94 87.46 194.58 87.28C196.51 87.06 199.67 84.72 199.71 83.24C199.87 76.97 199.07 70.68 198.62 64.4L198.63 64.37Z" fill="black" fill-opacity="0.37"/>
<path d="M93.5 52.39C94.09 52.39 95.38 52.44 96.67 52.38C97.78 52.33 98.89 52.15 100.27 52V66.28C101.61 65.3 102.43 64.19 103.31 64.14C106.56 63.94 110.63 62.85 112.93 64.34C118.26 67.79 118.21 73.79 117.34 79.57C116.56 84.72 113.54 88.01 108.56 89.14C106.78 89.54 104.74 88.79 102.82 88.54C100.84 88.28 98.87 87.98 95.95 87.56C95.95 82.91 95.95 76.75 95.95 70.6C95.95 66.63 96.21 62.63 95.84 58.69C95.65 56.61 94.37 54.62 93.51 52.4L93.5 52.39ZM113.09 76.5C112.82 74.33 112.69 72.85 112.45 71.39C111.87 67.88 111.3 64.25 106.49 64.43C102.87 64.56 100.46 67.85 100.37 72.61C100.31 75.74 100.5 78.89 100.32 82.01C100.13 85.13 101.17 87.07 104.41 87.64C107.74 88.23 110.47 87.47 111.56 84.05C112.4 81.41 112.69 78.6 113.11 76.49L113.09 76.5Z" fill="black" fill-opacity="0.37"/>
<path d="M209.849 87.33V80C210.129 79.91 210.419 79.82 210.699 79.72C211.089 81.09 211.089 82.8601 211.969 83.76C213.679 85.49 215.729 87.17 217.959 87.96C218.829 88.27 221.779 86.01 221.679 85.14C221.459 82.97 220.339 80.69 218.989 78.9C217.959 77.54 216.009 76.89 214.509 75.87C209.929 72.73 208.589 69.4101 210.469 65.9801C212.259 62.7301 216.419 61.77 221.019 63.39C222.229 63.82 223.599 63.77 225.459 64.01V70.29L224.789 70.58C224.229 69.43 223.949 67.91 223.039 67.21C221.199 65.8 219.109 64.52 216.929 63.88C216.179 63.66 213.769 65.8101 213.929 66.3001C214.559 68.3101 215.619 70.35 217.059 71.88C218.489 73.4 220.599 74.27 222.359 75.51C225.729 77.89 228.029 80.79 226.059 85.15C224.429 88.7701 219.169 90.4 214.819 88.88C213.269 88.34 211.689 87.9 209.869 87.33H209.849Z" fill="black" fill-opacity="0.37"/>
<path d="M130.65 64.24C126.88 65.62 125.04 69.06 124.93 73.88C124.67 85.63 124.6 85.63 129.48 88.31C125.21 88.31 121.35 88.31 117.5 88.31C121.7 84.27 121.48 67.12 117.01 63.61C119.57 63.46 121.96 63.32 124.51 63.17C124.79 64.29 125.06 65.38 125.38 66.65C126.49 65.63 127.35 64.55 128.45 63.9C129.54 63.26 131.3 62.35 132.02 62.78C133.69 63.78 134.91 65.53 136.31 66.98C135.31 67.83 134.31 68.68 133.32 69.52C132.53 67.97 131.75 66.41 130.65 64.24Z" fill="black" fill-opacity="0.37"/>
<path d="M111.42 10.9C110.14 8.94 107.64 6.81 107.9 5.08C108.18 3.19 111.01 1.67 112.72 0C114.38 1.74 117.15 3.34 117.37 5.25C117.57 6.98 115 9.03 113.66 10.94C112.91 10.93 112.16 10.92 111.42 10.9Z" fill="black" fill-opacity="0.37"/>
</svg>
